G75*
%MOIN*%
%OFA0B0*%
%FSLAX24Y24*%
%IPPOS*%
%LPD*%
%AMOC8*
5,1,8,0,0,1.08239X$1,22.5*
%
%ADD10R,0.4098X0.4252*%
%ADD11R,0.0850X0.0420*%
%ADD12C,0.0660*%
%ADD13C,0.0560*%
%ADD14C,0.0600*%
%ADD15R,0.0630X0.0512*%
%ADD16R,0.0591X0.0512*%
%ADD17R,0.0512X0.0630*%
%ADD18C,0.0560*%
%ADD19OC8,0.0560*%
%ADD20R,0.0945X0.0945*%
%ADD21C,0.0520*%
%ADD22R,0.0551X0.0394*%
%ADD23R,0.0394X0.0551*%
%ADD24R,0.0512X0.0591*%
%ADD25C,0.0396*%
%ADD26C,0.0240*%
%ADD27C,0.0160*%
%ADD28C,0.0320*%
%ADD29C,0.0100*%
%ADD30C,0.0120*%
D10*
X004560Y010814D03*
D11*
X007840Y010814D03*
X007840Y009814D03*
X007840Y011814D03*
D12*
X004760Y005944D02*
X004760Y005284D01*
X003260Y005284D02*
X003260Y005944D01*
X001760Y005944D02*
X001760Y005284D01*
D13*
X006220Y005314D02*
X006780Y005314D01*
X006780Y006314D02*
X006220Y006314D01*
X033180Y012034D02*
X033180Y012594D01*
X034180Y012594D02*
X034180Y012034D01*
D14*
X025200Y010594D02*
X024600Y010594D01*
X024600Y009594D02*
X025200Y009594D01*
X027740Y009194D02*
X027740Y008594D01*
X028740Y008594D02*
X028740Y009194D01*
X029740Y009194D02*
X029740Y008594D01*
X030740Y008594D02*
X030740Y009194D01*
X025200Y008594D02*
X024600Y008594D01*
X024600Y007594D02*
X025200Y007594D01*
X023740Y006794D02*
X023140Y006794D01*
X022300Y006794D02*
X021700Y006794D01*
X020860Y006794D02*
X020260Y006794D01*
X020260Y005794D02*
X020860Y005794D01*
X021700Y005794D02*
X022300Y005794D01*
X023140Y005794D02*
X023740Y005794D01*
X023740Y004794D02*
X023140Y004794D01*
X022300Y004794D02*
X021700Y004794D01*
X020860Y004794D02*
X020260Y004794D01*
X011740Y004794D02*
X011140Y004794D01*
X010220Y004794D02*
X009620Y004794D01*
X008780Y004794D02*
X008180Y004794D01*
X008180Y005794D02*
X008780Y005794D01*
X009620Y005794D02*
X010220Y005794D01*
X011140Y005794D02*
X011740Y005794D01*
X011740Y006794D02*
X011140Y006794D01*
X010220Y006794D02*
X009620Y006794D01*
X008780Y006794D02*
X008180Y006794D01*
X008540Y008154D02*
X008540Y008754D01*
X009540Y008754D02*
X009540Y008154D01*
X010540Y008154D02*
X010540Y008754D01*
X011920Y008774D02*
X011920Y008174D01*
X012920Y008174D02*
X012920Y008774D01*
X013920Y008774D02*
X013920Y008174D01*
X014920Y008174D02*
X014920Y008774D01*
D15*
X016400Y008088D03*
X016400Y007340D03*
X014560Y007208D03*
X014560Y006460D03*
X027840Y006328D03*
X027840Y005580D03*
X014240Y012600D03*
X014240Y013348D03*
D16*
X009380Y011769D03*
X008680Y011769D03*
X008680Y011099D03*
X009380Y011099D03*
X009380Y010469D03*
X008680Y010469D03*
X008680Y009799D03*
X009380Y009799D03*
X030240Y006209D03*
X030240Y005539D03*
D17*
X026694Y004754D03*
X025946Y004754D03*
X018934Y005154D03*
X018186Y005154D03*
X017174Y005634D03*
X016426Y005634D03*
X018186Y005874D03*
X018934Y005874D03*
X017414Y006514D03*
X018186Y006674D03*
X018934Y006674D03*
X016666Y006514D03*
X016934Y004834D03*
X016186Y004834D03*
X010434Y007674D03*
X009686Y007674D03*
D18*
X014940Y015534D03*
D19*
X015940Y015534D03*
X016940Y015534D03*
X017940Y015534D03*
X018940Y015534D03*
X019940Y015534D03*
X020940Y015534D03*
X020940Y014534D03*
X019940Y014534D03*
X018940Y014534D03*
X017940Y014534D03*
X016940Y014534D03*
X015940Y014534D03*
X014940Y014534D03*
D20*
X001600Y008980D03*
X001600Y007248D03*
D21*
X011920Y009454D02*
X011920Y009974D01*
X012920Y009974D02*
X012920Y009454D01*
X013920Y009454D02*
X013920Y009974D01*
X014920Y009974D02*
X014920Y009454D01*
X015920Y009454D02*
X015920Y009974D01*
D22*
X021873Y008168D03*
X021007Y007794D03*
X021873Y007420D03*
X025713Y006168D03*
X024847Y005794D03*
X025713Y005420D03*
X031007Y005500D03*
X031873Y005874D03*
X031007Y006248D03*
X015153Y005928D03*
X014287Y005554D03*
X015153Y005180D03*
X013793Y006540D03*
X012927Y006914D03*
X013793Y007288D03*
D23*
X013654Y005987D03*
X012906Y005987D03*
X013280Y005121D03*
X026426Y005441D03*
X027174Y005441D03*
X026800Y006307D03*
D24*
X031025Y004834D03*
X031695Y004834D03*
D25*
X030400Y004754D03*
X032980Y005294D03*
X029520Y006034D03*
X028480Y005874D03*
X028400Y006514D03*
X031920Y006434D03*
X032980Y006894D03*
X032240Y007314D03*
X030240Y007714D03*
X028880Y007714D03*
X027480Y007774D03*
X025840Y008354D03*
X023360Y007874D03*
X022800Y007874D03*
X022400Y007554D03*
X019600Y006914D03*
X019680Y006274D03*
X016080Y006514D03*
X015920Y005714D03*
X013120Y006434D03*
X015120Y007314D03*
X015760Y007634D03*
X017920Y008514D03*
X019200Y008914D03*
X019680Y008754D03*
X020480Y009394D03*
X018240Y009554D03*
X022320Y010754D03*
X023120Y011314D03*
X020980Y011854D03*
X019440Y011474D03*
X020080Y011314D03*
X024320Y012034D03*
X026580Y012414D03*
X028160Y012494D03*
X029040Y012834D03*
X029700Y013054D03*
X028800Y013274D03*
X029100Y013694D03*
X027520Y014414D03*
X025300Y014614D03*
X025300Y014094D03*
X030050Y015444D03*
X031020Y015834D03*
X029200Y016094D03*
X027180Y016474D03*
X024900Y016294D03*
X024400Y015734D03*
X030400Y014914D03*
X030960Y014834D03*
X034200Y014294D03*
X032320Y013234D03*
X031280Y012514D03*
X029760Y012274D03*
X029280Y011634D03*
X028900Y010974D03*
X026960Y011167D03*
X026440Y010814D03*
X028720Y010194D03*
X031200Y010754D03*
X033220Y010254D03*
X031520Y009394D03*
X031760Y008834D03*
X032640Y008514D03*
X033360Y008834D03*
X026080Y009554D03*
X023440Y009714D03*
X018880Y007474D03*
X024320Y006034D03*
X024720Y005314D03*
X010160Y009394D03*
X007680Y009154D03*
X006020Y008394D03*
X005840Y007554D03*
X007280Y007554D03*
X005680Y006914D03*
X001520Y009714D03*
X002340Y010634D03*
X002080Y011394D03*
X002240Y012514D03*
X003760Y013394D03*
X004700Y013594D03*
X007280Y013154D03*
X010400Y013394D03*
X011840Y013314D03*
X011680Y012594D03*
X010300Y011994D03*
X013360Y011874D03*
X013860Y011934D03*
X015220Y011614D03*
X013520Y011074D03*
X010400Y010994D03*
X009920Y010834D03*
X007460Y010394D03*
X007360Y011794D03*
X014980Y013134D03*
X015760Y012914D03*
X008660Y015094D03*
X007900Y015694D03*
X006900Y016014D03*
X004000Y015094D03*
X002320Y015154D03*
X002640Y016594D03*
X031840Y011554D03*
X033500Y016554D03*
D26*
X033835Y016094D02*
X034215Y015714D01*
X034215Y014309D01*
X034200Y014294D01*
X032880Y013314D02*
X032240Y013954D01*
X031920Y013954D01*
X031440Y014434D01*
X031440Y015234D01*
X031250Y015424D01*
X030070Y015424D01*
X030050Y015444D01*
X029900Y015594D01*
X028900Y015594D01*
X028600Y015894D01*
X025780Y015894D01*
X025600Y015714D01*
X024420Y015714D01*
X024400Y015734D01*
X024400Y016114D01*
X024000Y016514D01*
X020960Y016514D01*
X020940Y016494D01*
X020940Y015874D01*
X020940Y015534D01*
X020940Y014534D01*
X024900Y016294D02*
X029000Y016294D01*
X029200Y016094D01*
X031200Y016094D01*
X031020Y015914D01*
X031020Y015834D01*
X031200Y016094D02*
X033835Y016094D01*
X030400Y014914D02*
X029680Y014194D01*
X029680Y013074D01*
X029700Y013054D01*
X032480Y012294D02*
X032880Y012694D01*
X033120Y012454D01*
X033120Y012374D01*
X033180Y012314D01*
X032480Y012294D02*
X032480Y009874D01*
X033280Y009074D01*
X033280Y008914D01*
X033360Y008834D01*
X028880Y007714D02*
X028760Y007594D01*
X028160Y007594D01*
X028040Y007594D01*
X027840Y007394D01*
X025100Y007394D01*
X024900Y007594D01*
X012920Y008474D02*
X012920Y009714D01*
X012920Y010154D01*
X012400Y010674D01*
X010720Y010674D01*
X010400Y010994D01*
X009920Y010834D02*
X009920Y010674D01*
X009760Y010514D01*
X009425Y010514D01*
X009380Y010469D01*
X008680Y010469D01*
X008680Y010474D01*
X008320Y010834D01*
X007200Y010834D01*
X006640Y010834D01*
X006640Y012594D01*
X006160Y013074D01*
X004080Y013074D01*
X003760Y013394D01*
X002560Y012914D02*
X006640Y012914D01*
X006640Y012594D01*
X007840Y011814D02*
X007885Y011769D01*
X008680Y011769D01*
X009380Y011769D01*
X009900Y012394D02*
X010300Y011994D01*
X009900Y012394D02*
X009900Y014674D01*
X009900Y014994D01*
X010620Y015714D01*
X011200Y015714D01*
X012000Y016514D01*
X020960Y016514D01*
X032880Y013314D02*
X032880Y012694D01*
X011920Y009714D02*
X011920Y008474D01*
X009686Y008308D02*
X009540Y008454D01*
X009686Y008308D02*
X009686Y007674D01*
X006640Y008754D02*
X002560Y008754D01*
X002560Y012914D01*
X008395Y010814D02*
X008680Y011099D01*
X009380Y011099D01*
X008680Y010529D02*
X008395Y010814D01*
X007840Y010814D01*
X008680Y010529D02*
X008680Y010469D01*
X009760Y010514D02*
X010000Y010514D01*
X010320Y010194D01*
X011440Y010194D01*
X011920Y009714D01*
X010160Y009554D02*
X010160Y009394D01*
X010160Y009554D02*
X009920Y009794D01*
X009385Y009794D01*
X009380Y009799D01*
X008680Y009799D01*
X008665Y009814D01*
X007840Y009814D01*
X006640Y010834D02*
X006640Y008754D01*
D27*
X010434Y008348D02*
X010434Y007674D01*
X011920Y007794D02*
X012320Y007394D01*
X013200Y007394D01*
X013360Y007234D01*
X013360Y006834D01*
X013654Y006540D01*
X013793Y006540D01*
X013793Y006126D01*
X013654Y005987D01*
X016934Y005128D02*
X017200Y005394D01*
X017200Y005608D01*
X017174Y005634D01*
X017414Y005874D01*
X017414Y006514D01*
X018026Y006514D01*
X018186Y006674D01*
X018186Y005874D01*
X018186Y004648D01*
X018240Y004594D01*
X019200Y004594D01*
X019920Y005314D01*
X024720Y005314D01*
X029520Y006034D02*
X029695Y006209D01*
X030240Y006209D01*
X031695Y005696D02*
X031873Y005874D01*
X031920Y005921D01*
X031920Y006434D01*
X031695Y005696D02*
X031695Y004834D01*
X028240Y007634D02*
X028240Y009714D01*
X028720Y010194D01*
X026560Y009634D02*
X026560Y007754D01*
X026400Y007594D01*
X024900Y007594D01*
X019200Y008834D02*
X018800Y008434D01*
X018880Y008354D01*
X018880Y007474D01*
X018800Y008434D02*
X018720Y008514D01*
X017920Y008514D01*
X019200Y008834D02*
X019200Y008914D01*
X021760Y010594D02*
X022000Y010354D01*
X024000Y010354D01*
X024240Y010114D01*
X026080Y010114D01*
X026560Y009634D01*
X023040Y011314D02*
X022880Y011154D01*
X022000Y011154D01*
X021760Y010914D01*
X021760Y010594D01*
X023040Y011314D02*
X023120Y011314D01*
X014240Y011794D02*
X013520Y011074D01*
X014240Y011794D02*
X014240Y012600D01*
X014240Y013348D02*
X014080Y013508D01*
X004700Y013594D02*
X004700Y014394D01*
X004000Y015094D01*
X003220Y015874D01*
X002080Y015874D01*
X001520Y015314D01*
X001520Y011580D01*
X001706Y011394D01*
X002080Y011394D01*
X001520Y009714D02*
X001520Y009060D01*
X001600Y008980D01*
X010434Y008348D02*
X010540Y008454D01*
X011920Y008474D02*
X011920Y007794D01*
X018186Y005874D02*
X018186Y005154D01*
X016934Y005128D02*
X016934Y004834D01*
X033140Y012354D02*
X033180Y012314D01*
X004000Y015094D02*
X003980Y015074D01*
D28*
X007360Y011794D02*
X007380Y011814D01*
X007840Y011814D01*
X007200Y010834D02*
X007120Y010754D01*
X007120Y009154D01*
X007120Y008834D01*
X007360Y008594D01*
X006500Y007734D01*
X006500Y007394D01*
X007360Y006534D01*
X007360Y005074D01*
X007640Y004794D01*
X008480Y004794D01*
X009920Y004794D01*
X011440Y004794D01*
X011440Y005794D02*
X009920Y005794D01*
X008480Y005794D01*
X006500Y005314D02*
X006080Y005314D01*
X005040Y006354D01*
X004240Y006354D01*
X004000Y006114D01*
X004000Y005614D01*
X004760Y005614D01*
X004000Y005614D02*
X003260Y005614D01*
X001760Y005614D02*
X001760Y006514D01*
X002000Y006754D01*
X003520Y006754D01*
X004320Y007554D01*
X005840Y007554D01*
X006500Y007394D02*
X006500Y006314D01*
X007280Y007554D02*
X008800Y007554D01*
X009280Y008034D01*
X009280Y008194D01*
X009540Y008454D01*
X008540Y008454D02*
X007500Y008454D01*
X007360Y008594D01*
X001760Y007088D02*
X001600Y007248D01*
X001760Y007088D02*
X001760Y006514D01*
X020560Y005794D02*
X022000Y005794D01*
X023440Y005794D01*
X023440Y004794D02*
X022000Y004794D01*
X020560Y004794D01*
X023440Y004794D02*
X025906Y004794D01*
X025946Y004754D01*
X030240Y005539D02*
X030968Y005539D01*
X031007Y005500D01*
X031025Y005481D01*
X031025Y004834D01*
X030480Y004834D01*
X030400Y004754D01*
X030240Y006209D02*
X030968Y006209D01*
X031007Y006248D01*
D29*
X029600Y007154D02*
X028960Y006514D01*
X028960Y005634D01*
X028400Y005074D01*
X027520Y005074D01*
X027360Y004914D01*
X026960Y004914D01*
X026800Y004754D01*
X026694Y004754D01*
X026694Y004968D01*
X026800Y005074D01*
X026800Y005714D01*
X026640Y005874D01*
X026007Y005874D01*
X025713Y006168D01*
X024847Y005794D02*
X024607Y006034D01*
X024320Y006034D01*
X023440Y006434D02*
X023280Y006274D01*
X020160Y006274D01*
X019680Y005794D01*
X019680Y005634D01*
X019200Y005154D01*
X018934Y005154D01*
X018934Y005874D02*
X019280Y005874D01*
X019680Y006274D01*
X019280Y006594D02*
X020360Y006594D01*
X020560Y006794D01*
X021007Y007241D01*
X021007Y007794D01*
X020000Y007554D02*
X020000Y008514D01*
X020160Y008674D01*
X020720Y008674D01*
X020880Y008514D01*
X022240Y008514D01*
X022400Y008354D01*
X022400Y008274D01*
X022800Y007874D01*
X022400Y007554D02*
X022346Y007500D01*
X022346Y007420D01*
X021873Y007420D01*
X023360Y007874D02*
X023360Y008194D01*
X023280Y008274D01*
X022800Y008274D01*
X022320Y008754D01*
X021040Y008754D01*
X020720Y009074D01*
X020000Y009074D01*
X019200Y009874D01*
X017520Y009874D01*
X016640Y008994D01*
X015520Y008994D01*
X014920Y009594D01*
X014920Y009714D01*
X014720Y010514D02*
X013920Y009714D01*
X014080Y010354D02*
X013120Y010354D01*
X011920Y011554D01*
X010320Y011554D01*
X009520Y012354D01*
X009520Y015074D01*
X008880Y015714D01*
X007920Y015714D01*
X007900Y015694D01*
X009900Y014674D02*
X009980Y014594D01*
X011200Y014594D01*
X012286Y013508D01*
X014080Y013508D01*
X014500Y014094D02*
X014700Y013894D01*
X015000Y013894D01*
X015600Y013294D01*
X016300Y013294D01*
X016500Y013094D01*
X016700Y012894D01*
X017240Y012354D01*
X025120Y012354D01*
X026640Y013874D01*
X026880Y013874D01*
X027120Y013634D01*
X027840Y013634D01*
X028160Y013314D01*
X028160Y012494D01*
X028800Y012834D02*
X028400Y013234D01*
X028400Y013394D01*
X027900Y013894D01*
X027200Y013894D01*
X026900Y014194D01*
X026660Y014194D01*
X025040Y012574D01*
X017320Y012574D01*
X016300Y013594D01*
X015700Y013594D01*
X014940Y014354D01*
X014940Y014534D01*
X015940Y014534D02*
X016060Y014534D01*
X017100Y013494D01*
X018624Y013494D01*
X019124Y012994D01*
X024720Y012994D01*
X026420Y014694D01*
X027240Y014694D01*
X027520Y014414D01*
X027400Y014094D02*
X027100Y014394D01*
X026580Y014394D01*
X024960Y012774D01*
X017420Y012774D01*
X016400Y013794D01*
X015800Y013794D01*
X015400Y014194D01*
X015400Y014894D01*
X015940Y015434D01*
X015940Y015534D01*
X014940Y015534D02*
X014640Y015534D01*
X014500Y015394D01*
X014500Y014094D01*
X016940Y014254D02*
X017400Y013794D01*
X018800Y013794D01*
X019440Y013154D01*
X024360Y013154D01*
X025300Y014094D01*
X025300Y014534D02*
X024360Y013594D01*
X024320Y013554D01*
X024160Y013394D01*
X019520Y013394D01*
X018880Y014034D01*
X017600Y014034D01*
X017440Y014194D01*
X017440Y015074D01*
X016980Y015534D01*
X016940Y015534D01*
X016940Y014534D02*
X016940Y014254D01*
X018940Y014534D02*
X019920Y013554D01*
X024080Y013554D01*
X024960Y014434D01*
X024960Y014994D01*
X025040Y015074D01*
X026160Y015074D01*
X026320Y014914D01*
X027760Y014914D01*
X028160Y014514D01*
X028160Y014434D01*
X028880Y013714D01*
X029080Y013714D01*
X029100Y013694D01*
X028800Y013394D02*
X028100Y014094D01*
X027400Y014094D01*
X025300Y014534D02*
X025300Y014614D01*
X028800Y013394D02*
X028800Y013274D01*
X028080Y012114D02*
X027280Y012914D01*
X026160Y012914D01*
X025280Y012034D01*
X024320Y012034D01*
X023520Y011394D02*
X023280Y011634D01*
X021920Y011634D01*
X021360Y011074D01*
X020880Y011074D01*
X020800Y011154D01*
X020240Y011154D01*
X020080Y011314D01*
X019680Y011154D02*
X017040Y011154D01*
X016320Y011874D01*
X016320Y012354D01*
X016160Y012514D01*
X014326Y012514D01*
X014240Y012600D01*
X014800Y012274D02*
X014560Y012034D01*
X014560Y011474D01*
X013840Y010754D01*
X013360Y010754D01*
X013120Y010994D01*
X013120Y011634D01*
X013360Y011874D01*
X012080Y011714D02*
X012080Y013074D01*
X011840Y013314D01*
X010880Y012674D02*
X010560Y012994D01*
X010560Y013234D01*
X010400Y013394D01*
X010880Y012674D02*
X011600Y012674D01*
X011680Y012594D01*
X012080Y011714D02*
X013280Y010514D01*
X013920Y010514D01*
X014800Y011394D01*
X014800Y011874D01*
X014960Y012034D01*
X015760Y012034D01*
X015840Y011954D01*
X015840Y011554D01*
X016800Y010594D01*
X019760Y010594D01*
X020400Y009954D01*
X020960Y009954D01*
X021760Y009154D01*
X023040Y009154D01*
X023200Y008994D01*
X023520Y008994D01*
X023920Y008594D01*
X023920Y007634D01*
X024480Y007074D01*
X028800Y007074D01*
X029440Y007714D01*
X030240Y007714D01*
X030560Y007954D02*
X030720Y008114D01*
X030960Y008114D01*
X031200Y008354D01*
X031200Y009554D01*
X031440Y009794D01*
X031760Y009794D01*
X031920Y009954D01*
X031920Y011474D01*
X031840Y011554D01*
X031600Y011314D02*
X031440Y011474D01*
X031440Y011714D01*
X031680Y011954D01*
X031840Y011954D01*
X032000Y012114D01*
X032000Y013474D01*
X031120Y014354D01*
X031120Y014674D01*
X030960Y014834D01*
X032320Y013234D02*
X032240Y013154D01*
X032240Y011314D01*
X032080Y011154D01*
X032080Y009394D01*
X031760Y009074D01*
X031760Y008834D01*
X031520Y009074D02*
X031440Y008994D01*
X031440Y008274D01*
X030800Y007634D01*
X030800Y007234D01*
X030720Y007154D01*
X029600Y007154D01*
X029920Y007474D02*
X030080Y007314D01*
X030400Y007314D01*
X030560Y007474D01*
X030560Y007954D01*
X029920Y007474D02*
X029520Y007474D01*
X028880Y006834D01*
X024400Y006834D01*
X023680Y007554D01*
X023680Y008434D01*
X023360Y008754D01*
X022640Y008754D01*
X022480Y008914D01*
X021360Y008914D01*
X020800Y009474D01*
X020800Y009554D01*
X020640Y009714D01*
X020240Y009714D01*
X019600Y010354D01*
X016720Y010354D01*
X015920Y011154D01*
X014880Y011154D01*
X014080Y010354D01*
X014720Y010514D02*
X016160Y010514D01*
X016560Y010114D01*
X019360Y010114D01*
X020000Y009474D01*
X020400Y009474D01*
X020480Y009394D01*
X021040Y010194D02*
X021760Y009474D01*
X023120Y009474D01*
X023280Y009314D01*
X023520Y009314D01*
X023760Y009074D01*
X025520Y009074D01*
X025760Y008834D01*
X025760Y008434D01*
X025840Y008354D01*
X027280Y008134D02*
X027480Y007934D01*
X027480Y007774D01*
X028160Y007554D02*
X028240Y007634D01*
X027280Y008134D02*
X027280Y009714D01*
X026480Y010514D01*
X026480Y010774D01*
X026440Y010814D01*
X026880Y010594D02*
X026880Y010434D01*
X027600Y009714D01*
X027600Y009034D01*
X027740Y008894D01*
X026080Y009554D02*
X026040Y009594D01*
X024900Y009594D01*
X023440Y009714D02*
X022000Y009714D01*
X021360Y010354D01*
X020480Y010354D01*
X019680Y011154D01*
X019760Y010834D02*
X020400Y010194D01*
X021040Y010194D01*
X022320Y010754D02*
X023200Y010754D01*
X023520Y011074D01*
X025920Y011074D01*
X026160Y011314D01*
X026813Y011314D01*
X026960Y011167D01*
X026880Y010594D02*
X027600Y011314D01*
X030160Y011314D01*
X031120Y010354D01*
X031360Y010354D01*
X031600Y010594D01*
X031600Y011314D01*
X031120Y010834D02*
X031200Y010754D01*
X031120Y010834D02*
X030960Y010834D01*
X030000Y011794D01*
X029760Y011794D01*
X029360Y012194D01*
X029200Y012194D01*
X029120Y012114D01*
X028080Y012114D01*
X028240Y011634D02*
X028160Y011554D01*
X026000Y011554D01*
X025680Y011234D01*
X024400Y011234D01*
X024240Y011394D01*
X023520Y011394D01*
X019760Y010834D02*
X016960Y010834D01*
X016080Y011714D01*
X016080Y012194D01*
X016000Y012274D01*
X014800Y012274D01*
X016080Y012914D02*
X016560Y012434D01*
X016560Y011954D01*
X017040Y011474D01*
X019440Y011474D01*
X016080Y012914D02*
X015760Y012914D01*
X020920Y015894D02*
X020940Y015874D01*
X028800Y012834D02*
X029040Y012834D01*
X029760Y012274D02*
X030000Y012514D01*
X031280Y012514D01*
X029280Y011634D02*
X028240Y011634D01*
X031520Y009394D02*
X031520Y009074D01*
X032240Y008114D02*
X032640Y008514D01*
X032240Y008114D02*
X032240Y007314D01*
X028400Y006514D02*
X028294Y006328D01*
X027840Y006328D01*
X028480Y005874D02*
X028480Y005714D01*
X028207Y005441D01*
X027174Y005441D01*
X027701Y005441D01*
X027840Y005580D01*
X026426Y005441D02*
X026367Y005340D01*
X025793Y005340D01*
X025713Y005420D01*
X025946Y005187D01*
X025946Y004754D01*
X026687Y006147D02*
X026800Y006307D01*
X026593Y006514D01*
X023720Y006514D01*
X023440Y006794D01*
X023440Y006434D01*
X022000Y006794D02*
X021960Y006754D01*
X021600Y006754D01*
X021440Y006914D01*
X021440Y008114D01*
X021494Y008168D01*
X021873Y008168D01*
X020000Y007554D02*
X019600Y007154D01*
X019600Y006914D01*
X019280Y007154D02*
X019680Y007554D01*
X019680Y008754D01*
X018240Y009554D02*
X017200Y008514D01*
X016000Y008514D01*
X015200Y007714D01*
X014320Y007714D01*
X014000Y008034D01*
X014000Y008394D01*
X013920Y008474D01*
X015760Y007874D02*
X016000Y008114D01*
X016374Y008114D01*
X016400Y008088D01*
X015760Y007874D02*
X015760Y007634D01*
X016186Y007340D02*
X015153Y006307D01*
X015153Y005928D01*
X015920Y005714D02*
X016346Y005714D01*
X016426Y005634D01*
X015153Y005180D02*
X014854Y005180D01*
X014720Y005314D01*
X014720Y006300D01*
X014560Y006460D01*
X013873Y006460D01*
X013793Y006540D01*
X013120Y006434D02*
X012906Y006434D01*
X012906Y006893D01*
X012927Y006914D01*
X012480Y006914D01*
X012160Y007234D01*
X010560Y007234D01*
X010120Y006794D01*
X009920Y006794D01*
X009000Y006274D02*
X008480Y006794D01*
X009000Y006274D02*
X012000Y006274D01*
X012240Y006034D01*
X012240Y005314D01*
X012400Y005154D01*
X013247Y005154D01*
X013280Y005121D01*
X013567Y004834D01*
X016186Y004834D01*
X014287Y005554D02*
X012560Y005554D01*
X012480Y005634D01*
X012480Y006514D01*
X012240Y006754D01*
X011480Y006754D01*
X011440Y006794D01*
X012847Y006994D02*
X012927Y006914D01*
X012906Y006434D02*
X012906Y005987D01*
X016080Y006514D02*
X016106Y006488D01*
X016666Y006514D01*
X018134Y007340D02*
X018320Y007154D01*
X019280Y007154D01*
X018134Y007340D02*
X016400Y007340D01*
X016186Y007340D01*
X015120Y007314D02*
X015014Y007208D01*
X014560Y007208D01*
X014266Y007208D01*
X014480Y007288D02*
X014560Y007208D01*
X014480Y007288D02*
X013793Y007288D01*
X018934Y006674D02*
X019200Y006674D01*
X019280Y006594D01*
X007680Y009154D02*
X007120Y009154D01*
D30*
X002038Y004869D02*
X002026Y004864D01*
X002994Y004864D01*
X002982Y004869D01*
X002845Y005006D01*
X002770Y005186D01*
X002770Y006041D01*
X002845Y006221D01*
X002982Y006359D01*
X003163Y006434D01*
X003357Y006434D01*
X003538Y006359D01*
X003675Y006221D01*
X003687Y006194D01*
X003729Y006295D01*
X003819Y006385D01*
X004059Y006625D01*
X004176Y006674D01*
X005104Y006674D01*
X005221Y006625D01*
X005311Y006535D01*
X006104Y005742D01*
X006132Y005754D01*
X006868Y005754D01*
X007029Y005687D01*
X007153Y005563D01*
X007220Y005401D01*
X007220Y005226D01*
X007153Y005065D01*
X007029Y004941D01*
X006868Y004874D01*
X006132Y004874D01*
X005971Y004941D01*
X005847Y005065D01*
X005826Y005115D01*
X005250Y005691D01*
X005250Y005186D01*
X005175Y005006D01*
X005038Y004869D01*
X005026Y004864D01*
X007725Y004864D01*
X007731Y004902D01*
X007754Y004971D01*
X007787Y005035D01*
X007829Y005094D01*
X007880Y005145D01*
X007939Y005187D01*
X008003Y005220D01*
X008072Y005243D01*
X008144Y005254D01*
X008440Y005254D01*
X008440Y004864D01*
X008520Y004864D01*
X008520Y005254D01*
X008816Y005254D01*
X008888Y005243D01*
X008957Y005220D01*
X009021Y005187D01*
X009080Y005145D01*
X009131Y005094D01*
X009173Y005035D01*
X009200Y004983D01*
X009227Y005035D01*
X009269Y005094D01*
X009320Y005145D01*
X009379Y005187D01*
X009443Y005220D01*
X009512Y005243D01*
X009584Y005254D01*
X009880Y005254D01*
X009880Y004864D01*
X009960Y004864D01*
X009960Y005254D01*
X010256Y005254D01*
X010328Y005243D01*
X010397Y005220D01*
X010461Y005187D01*
X010520Y005145D01*
X010571Y005094D01*
X010613Y005035D01*
X010646Y004971D01*
X010669Y004902D01*
X010675Y004864D01*
X010685Y004864D01*
X010691Y004902D01*
X010714Y004971D01*
X010747Y005035D01*
X010789Y005094D01*
X010840Y005145D01*
X010899Y005187D01*
X010963Y005220D01*
X011032Y005243D01*
X011104Y005254D01*
X011400Y005254D01*
X011400Y004864D01*
X011480Y004864D01*
X011480Y005254D01*
X011776Y005254D01*
X011848Y005243D01*
X011917Y005220D01*
X011981Y005187D01*
X012040Y005145D01*
X012091Y005094D01*
X012133Y005035D01*
X012166Y004971D01*
X012189Y004902D01*
X012195Y004864D01*
X012923Y004864D01*
X012923Y004944D01*
X012313Y004944D01*
X012190Y005067D01*
X012030Y005227D01*
X012030Y005433D01*
X012001Y005404D01*
X011831Y005334D01*
X011048Y005334D01*
X010879Y005404D01*
X010809Y005474D01*
X010551Y005474D01*
X010481Y005404D01*
X010311Y005334D01*
X009528Y005334D01*
X009359Y005404D01*
X009289Y005474D01*
X009111Y005474D01*
X009041Y005404D01*
X008871Y005334D01*
X008088Y005334D01*
X007919Y005404D01*
X007790Y005533D01*
X007720Y005702D01*
X007720Y005885D01*
X007790Y006054D01*
X007919Y006184D01*
X008088Y006254D01*
X008723Y006254D01*
X008643Y006334D01*
X008088Y006334D01*
X007919Y006404D01*
X007790Y006533D01*
X007720Y006702D01*
X007720Y006885D01*
X007790Y007054D01*
X007919Y007184D01*
X008040Y007234D01*
X007443Y007234D01*
X007351Y007196D01*
X007209Y007196D01*
X007077Y007250D01*
X006976Y007351D01*
X006922Y007483D01*
X006922Y007625D01*
X006976Y007757D01*
X007077Y007858D01*
X007209Y007912D01*
X007351Y007912D01*
X007443Y007874D01*
X008175Y007874D01*
X008147Y007913D01*
X008114Y007977D01*
X008091Y008046D01*
X008080Y008118D01*
X008080Y008414D01*
X008500Y008414D01*
X008500Y008494D01*
X008500Y009213D01*
X008432Y009203D01*
X008363Y009180D01*
X008299Y009147D01*
X008240Y009105D01*
X008189Y009054D01*
X008147Y008995D01*
X008114Y008931D01*
X008091Y008862D01*
X008080Y008790D01*
X008080Y008494D01*
X008500Y008494D01*
X008580Y008494D01*
X008580Y009213D01*
X008648Y009203D01*
X008717Y009180D01*
X008781Y009147D01*
X008840Y009105D01*
X008891Y009054D01*
X008933Y008995D01*
X008966Y008931D01*
X008989Y008862D01*
X009000Y008790D01*
X009000Y008494D01*
X008580Y008494D01*
X008580Y008414D01*
X009000Y008414D01*
X009000Y008354D01*
X009009Y008375D01*
X009080Y008446D01*
X009080Y008845D01*
X009150Y009014D01*
X009279Y009144D01*
X009448Y009214D01*
X009631Y009214D01*
X009801Y009144D01*
X009930Y009014D01*
X010000Y008845D01*
X010000Y008149D01*
X010008Y008149D01*
X010060Y008097D01*
X010080Y008117D01*
X010080Y008845D01*
X010150Y009014D01*
X010171Y009036D01*
X010089Y009036D01*
X009957Y009090D01*
X009856Y009191D01*
X009802Y009323D01*
X009802Y009444D01*
X009742Y009383D01*
X008318Y009383D01*
X008258Y009444D01*
X007349Y009444D01*
X007255Y009538D01*
X007255Y010090D01*
X007349Y010184D01*
X008227Y010184D01*
X008225Y010192D01*
X008225Y010409D01*
X008620Y010409D01*
X008620Y010529D01*
X008620Y010683D01*
X008620Y011039D01*
X008740Y011039D01*
X008740Y010529D01*
X008620Y010529D01*
X008406Y010529D01*
X008393Y010506D01*
X008363Y010476D01*
X008327Y010455D01*
X008286Y010444D01*
X007885Y010444D01*
X007885Y010769D01*
X007795Y010769D01*
X007255Y010769D01*
X007255Y010583D01*
X007266Y010542D01*
X007287Y010506D01*
X007317Y010476D01*
X007353Y010455D01*
X007394Y010444D01*
X007795Y010444D01*
X007795Y010769D01*
X007795Y010859D01*
X007795Y011184D01*
X007394Y011184D01*
X007353Y011173D01*
X007317Y011152D01*
X007287Y011122D01*
X007266Y011086D01*
X007255Y011045D01*
X007255Y010859D01*
X007795Y010859D01*
X007885Y010859D01*
X007885Y011184D01*
X008225Y011184D01*
X008225Y011376D01*
X008236Y011417D01*
X008242Y011429D01*
X008227Y011444D01*
X007451Y011444D01*
X007431Y011436D01*
X007289Y011436D01*
X007157Y011490D01*
X007056Y011591D01*
X007002Y011723D01*
X007002Y011865D01*
X007056Y011997D01*
X007157Y012098D01*
X007289Y012152D01*
X007317Y012152D01*
X007349Y012184D01*
X008318Y012184D01*
X008318Y012184D01*
X009392Y012184D01*
X009310Y012267D01*
X009310Y014987D01*
X008793Y015504D01*
X008209Y015504D01*
X008204Y015491D01*
X008103Y015390D01*
X007971Y015336D01*
X007829Y015336D01*
X007697Y015390D01*
X007596Y015491D01*
X007542Y015623D01*
X007542Y015765D01*
X007596Y015897D01*
X007697Y015998D01*
X007829Y016052D01*
X007971Y016052D01*
X008103Y015998D01*
X008176Y015924D01*
X008967Y015924D01*
X009090Y015801D01*
X009701Y015190D01*
X009741Y015231D01*
X010383Y015873D01*
X010383Y015873D01*
X010461Y015951D01*
X010564Y015994D01*
X011084Y015994D01*
X011574Y016484D01*
X001743Y016484D01*
X001707Y016475D01*
X001643Y016484D01*
X001579Y016484D01*
X001557Y016493D01*
X001552Y016493D01*
X001444Y016478D01*
X001344Y016433D01*
X001310Y016403D01*
X001310Y015434D01*
X001317Y015450D01*
X001877Y016010D01*
X001944Y016077D01*
X002032Y016114D01*
X003268Y016114D01*
X003356Y016077D01*
X003981Y015452D01*
X004071Y015452D01*
X004203Y015398D01*
X004304Y015297D01*
X004358Y015165D01*
X004358Y015075D01*
X004903Y014530D01*
X004940Y014442D01*
X004940Y013860D01*
X005004Y013797D01*
X005058Y013665D01*
X005058Y013523D01*
X005004Y013391D01*
X004903Y013290D01*
X004771Y013236D01*
X004629Y013236D01*
X004497Y013290D01*
X004396Y013391D01*
X004342Y013523D01*
X004342Y013665D01*
X004396Y013797D01*
X004460Y013860D01*
X004460Y014295D01*
X004019Y014736D01*
X003929Y014736D01*
X003797Y014790D01*
X003696Y014891D01*
X003642Y015023D01*
X003642Y015113D01*
X003121Y015634D01*
X002179Y015634D01*
X001760Y015215D01*
X001760Y011679D01*
X001805Y011634D01*
X001814Y011634D01*
X001877Y011698D01*
X002009Y011752D01*
X002151Y011752D01*
X002283Y011698D01*
X002351Y011630D01*
X002351Y013006D01*
X001760Y013006D01*
X001760Y013124D02*
X009310Y013124D01*
X009310Y013006D02*
X006769Y013006D01*
X006675Y013100D01*
X002445Y013100D01*
X002351Y013006D01*
X002351Y012887D02*
X001760Y012887D01*
X001760Y012769D02*
X002351Y012769D01*
X002351Y012650D02*
X001760Y012650D01*
X001760Y012532D02*
X002351Y012532D01*
X002351Y012413D02*
X001760Y012413D01*
X001760Y012295D02*
X002351Y012295D01*
X002351Y012176D02*
X001760Y012176D01*
X001760Y012058D02*
X002351Y012058D01*
X002351Y011939D02*
X001760Y011939D01*
X001760Y011821D02*
X002351Y011821D01*
X002351Y011702D02*
X002271Y011702D01*
X001889Y011702D02*
X001760Y011702D01*
X001384Y011376D02*
X001317Y011444D01*
X001310Y011460D01*
X001310Y010010D01*
X001317Y010018D01*
X001449Y010072D01*
X001591Y010072D01*
X001723Y010018D01*
X001824Y009917D01*
X001878Y009785D01*
X001878Y009643D01*
X001866Y009613D01*
X002020Y009613D01*
X002003Y009653D01*
X002003Y009907D01*
X002100Y010141D01*
X002279Y010320D01*
X002351Y010350D01*
X002351Y011158D01*
X002283Y011090D01*
X002151Y011036D01*
X002009Y011036D01*
X001877Y011090D01*
X001814Y011154D01*
X001754Y011154D01*
X001658Y011154D01*
X001570Y011190D01*
X001384Y011376D01*
X001414Y011347D02*
X001310Y011347D01*
X001310Y011228D02*
X001532Y011228D01*
X001310Y011110D02*
X001858Y011110D01*
X002302Y011110D02*
X002351Y011110D01*
X002351Y010991D02*
X001310Y010991D01*
X001310Y010873D02*
X002351Y010873D01*
X002351Y010754D02*
X001310Y010754D01*
X001310Y010636D02*
X002351Y010636D01*
X002351Y010517D02*
X001310Y010517D01*
X001310Y010399D02*
X002351Y010399D01*
X002239Y010280D02*
X001310Y010280D01*
X001310Y010162D02*
X002121Y010162D01*
X002059Y010043D02*
X001660Y010043D01*
X001815Y009925D02*
X002010Y009925D01*
X002003Y009806D02*
X001869Y009806D01*
X001878Y009688D02*
X002003Y009688D01*
X001380Y010043D02*
X001310Y010043D01*
X003061Y008528D02*
X006675Y008528D01*
X006769Y008622D01*
X006769Y013006D01*
X006769Y012887D02*
X009310Y012887D01*
X009310Y012769D02*
X006769Y012769D01*
X006769Y012650D02*
X009310Y012650D01*
X009310Y012532D02*
X006769Y012532D01*
X006769Y012413D02*
X009310Y012413D01*
X009310Y012295D02*
X006769Y012295D01*
X006769Y012176D02*
X007341Y012176D01*
X007118Y012058D02*
X006769Y012058D01*
X006769Y011939D02*
X007033Y011939D01*
X007002Y011821D02*
X006769Y011821D01*
X006769Y011702D02*
X007010Y011702D01*
X007064Y011584D02*
X006769Y011584D01*
X006769Y011465D02*
X007217Y011465D01*
X006769Y011347D02*
X008225Y011347D01*
X008225Y011228D02*
X006769Y011228D01*
X006769Y011110D02*
X007280Y011110D01*
X007255Y010991D02*
X006769Y010991D01*
X006769Y010873D02*
X007255Y010873D01*
X007255Y010754D02*
X006769Y010754D01*
X006769Y010636D02*
X007255Y010636D01*
X007280Y010517D02*
X006769Y010517D01*
X006769Y010399D02*
X008225Y010399D01*
X008225Y010280D02*
X006769Y010280D01*
X006769Y010162D02*
X007327Y010162D01*
X007255Y010043D02*
X006769Y010043D01*
X006769Y009925D02*
X007255Y009925D01*
X007255Y009806D02*
X006769Y009806D01*
X006769Y009688D02*
X007255Y009688D01*
X007255Y009569D02*
X006769Y009569D01*
X006769Y009451D02*
X007342Y009451D01*
X006769Y009332D02*
X009802Y009332D01*
X009847Y009214D02*
X006769Y009214D01*
X006769Y009095D02*
X008231Y009095D01*
X008137Y008977D02*
X006769Y008977D01*
X006769Y008858D02*
X008091Y008858D01*
X008080Y008740D02*
X006769Y008740D01*
X006769Y008621D02*
X008080Y008621D01*
X008080Y008503D02*
X003086Y008503D01*
X003061Y008528D02*
X003180Y008409D01*
X003277Y008175D01*
X003277Y007921D01*
X003180Y007687D01*
X003001Y007508D01*
X002767Y007411D01*
X002513Y007411D01*
X002279Y007508D01*
X002232Y007554D01*
X002232Y007074D01*
X003387Y007074D01*
X004139Y007825D01*
X004256Y007874D01*
X005677Y007874D01*
X005769Y007912D01*
X005911Y007912D01*
X006043Y007858D01*
X006144Y007757D01*
X006198Y007625D01*
X006198Y007483D01*
X006144Y007351D01*
X006043Y007250D01*
X005911Y007196D01*
X005769Y007196D01*
X005677Y007234D01*
X004453Y007234D01*
X003791Y006573D01*
X003701Y006483D01*
X003584Y006434D01*
X002133Y006434D01*
X002080Y006381D01*
X002080Y006317D01*
X002175Y006221D01*
X002250Y006041D01*
X002250Y005186D01*
X002175Y005006D01*
X002038Y004869D01*
X002117Y004948D02*
X002903Y004948D01*
X002820Y005066D02*
X002200Y005066D01*
X002249Y005185D02*
X002771Y005185D01*
X002770Y005303D02*
X002250Y005303D01*
X002250Y005422D02*
X002770Y005422D01*
X002770Y005540D02*
X002250Y005540D01*
X002250Y005659D02*
X002770Y005659D01*
X002770Y005777D02*
X002250Y005777D01*
X002250Y005896D02*
X002770Y005896D01*
X002770Y006014D02*
X002250Y006014D01*
X002212Y006133D02*
X002808Y006133D01*
X002875Y006251D02*
X002145Y006251D01*
X002080Y006370D02*
X003008Y006370D01*
X003512Y006370D02*
X003803Y006370D01*
X003711Y006251D02*
X003645Y006251D01*
X003707Y006488D02*
X003922Y006488D01*
X003826Y006607D02*
X004040Y006607D01*
X003944Y006725D02*
X006063Y006725D01*
X006051Y006722D02*
X005989Y006690D01*
X005933Y006650D01*
X005884Y006601D01*
X005844Y006545D01*
X005812Y006483D01*
X005791Y006417D01*
X005780Y006349D01*
X005780Y006344D01*
X006470Y006344D01*
X006470Y006754D01*
X006185Y006754D01*
X006117Y006743D01*
X006051Y006722D01*
X005891Y006607D02*
X005240Y006607D01*
X005358Y006488D02*
X005815Y006488D01*
X005783Y006370D02*
X005477Y006370D01*
X005595Y006251D02*
X005784Y006251D01*
X005780Y006279D02*
X005791Y006211D01*
X005812Y006145D01*
X005844Y006083D01*
X005884Y006027D01*
X005933Y005978D01*
X005989Y005938D01*
X006051Y005906D01*
X006117Y005885D01*
X006185Y005874D01*
X006470Y005874D01*
X006470Y006284D01*
X005780Y006284D01*
X005780Y006279D01*
X005818Y006133D02*
X005714Y006133D01*
X005832Y006014D02*
X005897Y006014D01*
X005951Y005896D02*
X006083Y005896D01*
X006069Y005777D02*
X007720Y005777D01*
X007724Y005896D02*
X006917Y005896D01*
X006949Y005906D02*
X007011Y005938D01*
X007067Y005978D01*
X007116Y006027D01*
X007156Y006083D01*
X007188Y006145D01*
X007209Y006211D01*
X007220Y006279D01*
X007220Y006284D01*
X006530Y006284D01*
X006530Y006344D01*
X006470Y006344D01*
X006470Y006284D01*
X006530Y006284D01*
X006530Y005874D01*
X006815Y005874D01*
X006883Y005885D01*
X006949Y005906D01*
X007103Y006014D02*
X007773Y006014D01*
X007868Y006133D02*
X007182Y006133D01*
X007216Y006251D02*
X008083Y006251D01*
X008002Y006370D02*
X007217Y006370D01*
X007220Y006349D02*
X007209Y006417D01*
X007188Y006483D01*
X007156Y006545D01*
X007116Y006601D01*
X007067Y006650D01*
X007011Y006690D01*
X006949Y006722D01*
X006883Y006743D01*
X006815Y006754D01*
X006530Y006754D01*
X006530Y006344D01*
X007220Y006344D01*
X007220Y006349D01*
X007185Y006488D02*
X007835Y006488D01*
X007760Y006607D02*
X007109Y006607D01*
X006937Y006725D02*
X007720Y006725D01*
X007720Y006844D02*
X004063Y006844D01*
X004181Y006962D02*
X007752Y006962D01*
X007816Y007081D02*
X004300Y007081D01*
X004418Y007199D02*
X005760Y007199D01*
X005920Y007199D02*
X007200Y007199D01*
X007360Y007199D02*
X007957Y007199D01*
X007010Y007318D02*
X006110Y007318D01*
X006179Y007436D02*
X006941Y007436D01*
X006922Y007555D02*
X006198Y007555D01*
X006178Y007673D02*
X006942Y007673D01*
X007012Y007792D02*
X006108Y007792D01*
X005915Y007910D02*
X007205Y007910D01*
X007355Y007910D02*
X008148Y007910D01*
X008097Y008029D02*
X003277Y008029D01*
X003277Y008147D02*
X008080Y008147D01*
X008080Y008266D02*
X003239Y008266D01*
X003190Y008384D02*
X008080Y008384D01*
X008500Y008503D02*
X008580Y008503D01*
X008580Y008621D02*
X008500Y008621D01*
X008500Y008740D02*
X008580Y008740D01*
X008580Y008858D02*
X008500Y008858D01*
X008500Y008977D02*
X008580Y008977D01*
X008580Y009095D02*
X008500Y009095D01*
X008849Y009095D02*
X009231Y009095D01*
X009134Y008977D02*
X008943Y008977D01*
X008989Y008858D02*
X009085Y008858D01*
X009080Y008740D02*
X009000Y008740D01*
X009000Y008621D02*
X009080Y008621D01*
X009080Y008503D02*
X009000Y008503D01*
X009000Y008384D02*
X009018Y008384D01*
X010000Y008384D02*
X010080Y008384D01*
X010080Y008266D02*
X010000Y008266D01*
X010010Y008147D02*
X010080Y008147D01*
X010850Y007813D02*
X010930Y007893D01*
X011000Y008062D01*
X011000Y008845D01*
X010930Y009014D01*
X010801Y009144D01*
X010631Y009214D01*
X010473Y009214D01*
X011575Y009214D01*
X011561Y009234D02*
X011600Y009180D01*
X011641Y009139D01*
X011620Y009125D01*
X011569Y009074D01*
X011527Y009015D01*
X011494Y008951D01*
X011471Y008882D01*
X011460Y008810D01*
X011460Y008514D01*
X011880Y008514D01*
X011880Y009035D01*
X011887Y009034D01*
X011900Y009034D01*
X011900Y009694D01*
X011500Y009694D01*
X011500Y009421D01*
X011510Y009356D01*
X011531Y009293D01*
X011561Y009234D01*
X011518Y009332D02*
X010518Y009332D01*
X010518Y009323D02*
X010518Y009465D01*
X010464Y009597D01*
X010432Y009628D01*
X010397Y009713D01*
X010157Y009953D01*
X010079Y010031D01*
X009976Y010074D01*
X009835Y010074D01*
X009835Y010121D01*
X009818Y010139D01*
X009824Y010151D01*
X009835Y010192D01*
X009835Y010409D01*
X009440Y010409D01*
X009440Y010529D01*
X009320Y010529D01*
X009320Y010884D01*
X009320Y011039D01*
X009440Y011039D01*
X009440Y010529D01*
X009835Y010529D01*
X009835Y010746D01*
X009825Y010784D01*
X009835Y010822D01*
X009835Y011039D01*
X009440Y011039D01*
X009440Y011159D01*
X009835Y011159D01*
X009835Y011376D01*
X009824Y011417D01*
X009818Y011429D01*
X009835Y011446D01*
X009835Y011742D01*
X010233Y011344D01*
X010309Y011344D01*
X010197Y011298D01*
X010096Y011197D01*
X010042Y011065D01*
X010042Y010923D01*
X010096Y010791D01*
X010197Y010690D01*
X010329Y010636D01*
X010362Y010636D01*
X010561Y010437D01*
X010664Y010394D01*
X012284Y010394D01*
X012535Y010143D01*
X012500Y010057D01*
X012500Y009370D01*
X012564Y009216D01*
X012638Y009142D01*
X012530Y009034D01*
X012460Y008865D01*
X012460Y008082D01*
X012530Y007913D01*
X012659Y007784D01*
X012828Y007714D01*
X013011Y007714D01*
X013181Y007784D01*
X013310Y007913D01*
X013380Y008082D01*
X013380Y008865D01*
X013310Y009034D01*
X013202Y009142D01*
X013276Y009216D01*
X013340Y009370D01*
X013340Y010057D01*
X013304Y010144D01*
X013536Y010144D01*
X013500Y010057D01*
X013500Y009370D01*
X013564Y009216D01*
X013638Y009142D01*
X013530Y009034D01*
X013460Y008865D01*
X013460Y008082D01*
X013530Y007913D01*
X013659Y007784D01*
X013828Y007714D01*
X014011Y007714D01*
X014020Y007717D01*
X014092Y007645D01*
X013451Y007645D01*
X013357Y007551D01*
X013357Y007182D01*
X013269Y007271D01*
X012585Y007271D01*
X012503Y007188D01*
X012247Y007444D01*
X010850Y007444D01*
X010850Y007813D01*
X010850Y007792D02*
X011663Y007792D01*
X011679Y007781D02*
X011743Y007748D01*
X011812Y007725D01*
X011880Y007715D01*
X011880Y008434D01*
X011460Y008434D01*
X011460Y008138D01*
X011471Y008066D01*
X011494Y007997D01*
X011527Y007933D01*
X011569Y007874D01*
X011620Y007823D01*
X011679Y007781D01*
X011543Y007910D02*
X010937Y007910D01*
X010986Y008029D02*
X011483Y008029D01*
X011460Y008147D02*
X011000Y008147D01*
X011000Y008266D02*
X011460Y008266D01*
X011460Y008384D02*
X011000Y008384D01*
X011000Y008503D02*
X011880Y008503D01*
X011880Y008514D02*
X011880Y008434D01*
X011960Y008434D01*
X011960Y008514D01*
X011880Y008514D01*
X011960Y008514D02*
X011960Y009035D01*
X011953Y009034D01*
X011940Y009034D01*
X011940Y009694D01*
X011940Y009734D01*
X011900Y009734D01*
X011900Y010394D01*
X011887Y010394D01*
X011822Y010384D01*
X011759Y010363D01*
X011700Y010333D01*
X011646Y010294D01*
X011600Y010248D01*
X011561Y010194D01*
X011531Y010135D01*
X011510Y010072D01*
X011500Y010007D01*
X011500Y009734D01*
X011900Y009734D01*
X011900Y009694D01*
X011940Y009694D01*
X012340Y009694D01*
X012340Y009421D01*
X012330Y009356D01*
X012309Y009293D01*
X012279Y009234D01*
X012240Y009180D01*
X012199Y009139D01*
X012220Y009125D01*
X012271Y009074D01*
X012313Y009015D01*
X012346Y008951D01*
X012369Y008882D01*
X012380Y008810D01*
X012380Y008514D01*
X011960Y008514D01*
X011960Y008503D02*
X012460Y008503D01*
X012380Y008434D02*
X011960Y008434D01*
X011960Y007715D01*
X012028Y007725D01*
X012097Y007748D01*
X012161Y007781D01*
X012220Y007823D01*
X012271Y007874D01*
X012313Y007933D01*
X012346Y007997D01*
X012369Y008066D01*
X012380Y008138D01*
X012380Y008434D01*
X012380Y008384D02*
X012460Y008384D01*
X012460Y008266D02*
X012380Y008266D01*
X012380Y008147D02*
X012460Y008147D01*
X012482Y008029D02*
X012357Y008029D01*
X012297Y007910D02*
X012533Y007910D01*
X012651Y007792D02*
X012177Y007792D01*
X011960Y007792D02*
X011880Y007792D01*
X011880Y007910D02*
X011960Y007910D01*
X011960Y008029D02*
X011880Y008029D01*
X011880Y008147D02*
X011960Y008147D01*
X011960Y008266D02*
X011880Y008266D01*
X011880Y008384D02*
X011960Y008384D01*
X011960Y008621D02*
X011880Y008621D01*
X011880Y008740D02*
X011960Y008740D01*
X011960Y008858D02*
X011880Y008858D01*
X011880Y008977D02*
X011960Y008977D01*
X011940Y009095D02*
X011900Y009095D01*
X011900Y009214D02*
X011940Y009214D01*
X011940Y009332D02*
X011900Y009332D01*
X011900Y009451D02*
X011940Y009451D01*
X011940Y009569D02*
X011900Y009569D01*
X011900Y009688D02*
X011940Y009688D01*
X011940Y009734D02*
X012340Y009734D01*
X012340Y010007D01*
X012330Y010072D01*
X012309Y010135D01*
X012279Y010194D01*
X012240Y010248D01*
X012194Y010294D01*
X012140Y010333D01*
X012081Y010363D01*
X012018Y010384D01*
X011953Y010394D01*
X011940Y010394D01*
X011940Y009734D01*
X011940Y009806D02*
X011900Y009806D01*
X011900Y009925D02*
X011940Y009925D01*
X011940Y010043D02*
X011900Y010043D01*
X011900Y010162D02*
X011940Y010162D01*
X011940Y010280D02*
X011900Y010280D01*
X011633Y010280D02*
X009835Y010280D01*
X009827Y010162D02*
X011544Y010162D01*
X011506Y010043D02*
X010049Y010043D01*
X010185Y009925D02*
X011500Y009925D01*
X011500Y009806D02*
X010303Y009806D01*
X010408Y009688D02*
X011500Y009688D01*
X011500Y009569D02*
X010475Y009569D01*
X010518Y009451D02*
X011500Y009451D01*
X010518Y009323D02*
X010473Y009214D01*
X010849Y009095D02*
X011591Y009095D01*
X011507Y008977D02*
X010946Y008977D01*
X010995Y008858D02*
X011468Y008858D01*
X011460Y008740D02*
X011000Y008740D01*
X011000Y008621D02*
X011460Y008621D01*
X012380Y008621D02*
X012460Y008621D01*
X012460Y008740D02*
X012380Y008740D01*
X012372Y008858D02*
X012460Y008858D01*
X012506Y008977D02*
X012333Y008977D01*
X012249Y009095D02*
X012591Y009095D01*
X012566Y009214D02*
X012265Y009214D01*
X012322Y009332D02*
X012516Y009332D01*
X012500Y009451D02*
X012340Y009451D01*
X012340Y009569D02*
X012500Y009569D01*
X012500Y009688D02*
X012340Y009688D01*
X012340Y009806D02*
X012500Y009806D01*
X012500Y009925D02*
X012340Y009925D01*
X012334Y010043D02*
X012500Y010043D01*
X012516Y010162D02*
X012296Y010162D01*
X012207Y010280D02*
X012397Y010280D01*
X013340Y010043D02*
X013500Y010043D01*
X013500Y009925D02*
X013340Y009925D01*
X013340Y009806D02*
X013500Y009806D01*
X013500Y009688D02*
X013340Y009688D01*
X013340Y009569D02*
X013500Y009569D01*
X013500Y009451D02*
X013340Y009451D01*
X013324Y009332D02*
X013516Y009332D01*
X013566Y009214D02*
X013274Y009214D01*
X013249Y009095D02*
X013591Y009095D01*
X013506Y008977D02*
X013334Y008977D01*
X013380Y008858D02*
X013460Y008858D01*
X013460Y008740D02*
X013380Y008740D01*
X013380Y008621D02*
X013460Y008621D01*
X013460Y008503D02*
X013380Y008503D01*
X013380Y008384D02*
X013460Y008384D01*
X013460Y008266D02*
X013380Y008266D01*
X013380Y008147D02*
X013460Y008147D01*
X013482Y008029D02*
X013358Y008029D01*
X013307Y007910D02*
X013533Y007910D01*
X013651Y007792D02*
X013189Y007792D01*
X013361Y007555D02*
X010850Y007555D01*
X010850Y007673D02*
X014063Y007673D01*
X013357Y007436D02*
X012254Y007436D01*
X012373Y007318D02*
X013357Y007318D01*
X013357Y007199D02*
X013340Y007199D01*
X013363Y007020D02*
X013451Y006931D01*
X014085Y006931D01*
X014085Y006897D01*
X013831Y006897D01*
X013831Y006578D01*
X013755Y006578D01*
X013448Y006578D01*
X013478Y006505D01*
X013478Y006501D01*
X013755Y006501D01*
X013755Y006578D01*
X013755Y006897D01*
X013496Y006897D01*
X013456Y006886D01*
X013419Y006865D01*
X013389Y006835D01*
X013368Y006799D01*
X013363Y006777D01*
X013363Y007020D01*
X013363Y006962D02*
X013420Y006962D01*
X013398Y006844D02*
X013363Y006844D01*
X013755Y006844D02*
X013831Y006844D01*
X013831Y006725D02*
X013755Y006725D01*
X013755Y006607D02*
X013831Y006607D01*
X013832Y006578D02*
X014085Y006578D01*
X014085Y006520D01*
X014500Y006520D01*
X014500Y006400D01*
X014229Y006400D01*
X014229Y006501D01*
X013832Y006501D01*
X013832Y006578D01*
X014229Y006488D02*
X014500Y006488D01*
X014500Y006400D02*
X014620Y006400D01*
X014620Y006520D01*
X015035Y006520D01*
X015035Y006737D01*
X015024Y006778D01*
X015003Y006814D01*
X014983Y006834D01*
X015035Y006886D01*
X015035Y006962D01*
X015049Y006956D01*
X015191Y006956D01*
X015323Y007010D01*
X015424Y007111D01*
X015478Y007243D01*
X015478Y007385D01*
X015461Y007427D01*
X015557Y007330D01*
X015689Y007276D01*
X015825Y007276D01*
X014949Y006400D01*
X014620Y006400D01*
X014620Y006044D01*
X014717Y006044D01*
X014717Y005822D01*
X014629Y005911D01*
X014011Y005911D01*
X014011Y005949D01*
X013692Y005949D01*
X013692Y006025D01*
X014011Y006025D01*
X014011Y006183D01*
X014085Y006183D01*
X014096Y006142D01*
X014117Y006106D01*
X014147Y006076D01*
X014183Y006055D01*
X014224Y006044D01*
X014500Y006044D01*
X014500Y006400D01*
X014500Y006370D02*
X014620Y006370D01*
X014620Y006488D02*
X015038Y006488D01*
X015035Y006607D02*
X015156Y006607D01*
X015275Y006725D02*
X015035Y006725D01*
X014993Y006844D02*
X015393Y006844D01*
X015512Y006962D02*
X015207Y006962D01*
X015393Y007081D02*
X015630Y007081D01*
X015749Y007199D02*
X015460Y007199D01*
X015478Y007318D02*
X015587Y007318D01*
X016823Y007714D02*
X016875Y007662D01*
X016875Y007550D01*
X018221Y007550D01*
X018407Y007364D01*
X019193Y007364D01*
X019470Y007641D01*
X019470Y008457D01*
X019376Y008551D01*
X019322Y008683D01*
X019322Y008825D01*
X019376Y008957D01*
X019477Y009058D01*
X019609Y009112D01*
X019665Y009112D01*
X019113Y009664D01*
X018582Y009664D01*
X018598Y009625D01*
X018598Y009483D01*
X018544Y009351D01*
X018443Y009250D01*
X018311Y009196D01*
X018179Y009196D01*
X017410Y008427D01*
X017287Y008304D01*
X016875Y008304D01*
X016875Y007766D01*
X016823Y007714D01*
X016864Y007673D02*
X019470Y007673D01*
X019470Y007792D02*
X016875Y007792D01*
X016875Y007910D02*
X019470Y007910D01*
X019470Y008029D02*
X016875Y008029D01*
X016875Y008147D02*
X019470Y008147D01*
X019470Y008266D02*
X016875Y008266D01*
X017368Y008384D02*
X019470Y008384D01*
X019425Y008503D02*
X017486Y008503D01*
X017605Y008621D02*
X019347Y008621D01*
X019322Y008740D02*
X017723Y008740D01*
X017842Y008858D02*
X019336Y008858D01*
X019397Y008977D02*
X017960Y008977D01*
X018079Y009095D02*
X019569Y009095D01*
X019563Y009214D02*
X018355Y009214D01*
X018525Y009332D02*
X019444Y009332D01*
X019326Y009451D02*
X018585Y009451D01*
X018598Y009569D02*
X019207Y009569D01*
X023337Y010594D02*
X023410Y010667D01*
X023607Y010864D01*
X024228Y010864D01*
X024207Y010835D01*
X024174Y010771D01*
X024151Y010702D01*
X024141Y010634D01*
X024860Y010634D01*
X024860Y010554D01*
X024141Y010554D01*
X024141Y010553D01*
X024136Y010557D01*
X024048Y010594D01*
X023337Y010594D01*
X023379Y010636D02*
X024141Y010636D01*
X024168Y010754D02*
X023498Y010754D01*
X024940Y010634D02*
X025659Y010634D01*
X025649Y010702D01*
X025626Y010771D01*
X025593Y010835D01*
X025572Y010864D01*
X026007Y010864D01*
X026120Y010977D01*
X026082Y010885D01*
X026082Y010743D01*
X026136Y010611D01*
X026237Y010510D01*
X026270Y010497D01*
X026270Y010427D01*
X026393Y010304D01*
X027070Y009627D01*
X027070Y008047D01*
X027166Y007951D01*
X027122Y007845D01*
X027122Y007703D01*
X027134Y007674D01*
X026787Y007674D01*
X026800Y007706D01*
X026800Y009682D01*
X026763Y009770D01*
X026696Y009837D01*
X026216Y010317D01*
X026128Y010354D01*
X025594Y010354D01*
X025626Y010417D01*
X025649Y010486D01*
X025659Y010554D01*
X024940Y010554D01*
X024940Y010634D01*
X025632Y010754D02*
X026082Y010754D01*
X026082Y010873D02*
X026016Y010873D01*
X026126Y010636D02*
X025659Y010636D01*
X025654Y010517D02*
X026230Y010517D01*
X026298Y010399D02*
X025617Y010399D01*
X026253Y010280D02*
X026416Y010280D01*
X026371Y010162D02*
X026535Y010162D01*
X026490Y010043D02*
X026653Y010043D01*
X026608Y009925D02*
X026772Y009925D01*
X026727Y009806D02*
X026890Y009806D01*
X026797Y009688D02*
X027009Y009688D01*
X027070Y009569D02*
X026800Y009569D01*
X026800Y009451D02*
X027070Y009451D01*
X027070Y009332D02*
X026800Y009332D01*
X026800Y009214D02*
X027070Y009214D01*
X027070Y009095D02*
X026800Y009095D01*
X026800Y008977D02*
X027070Y008977D01*
X027070Y008858D02*
X026800Y008858D01*
X026800Y008740D02*
X027070Y008740D01*
X027070Y008621D02*
X026800Y008621D01*
X026800Y008503D02*
X027070Y008503D01*
X027070Y008384D02*
X026800Y008384D01*
X026800Y008266D02*
X027070Y008266D01*
X027070Y008147D02*
X026800Y008147D01*
X026800Y008029D02*
X027088Y008029D01*
X027149Y007910D02*
X026800Y007910D01*
X026800Y007792D02*
X027122Y007792D01*
X028160Y007594D02*
X028160Y007554D01*
X028480Y007874D02*
X028480Y008204D01*
X028648Y008134D01*
X028831Y008134D01*
X029001Y008204D01*
X029130Y008333D01*
X029200Y008502D01*
X029200Y009285D01*
X029130Y009454D01*
X029001Y009584D01*
X028831Y009654D01*
X028648Y009654D01*
X028480Y009584D01*
X028480Y009615D01*
X028701Y009836D01*
X028791Y009836D01*
X028923Y009890D01*
X029024Y009991D01*
X029078Y010123D01*
X029078Y010265D01*
X029024Y010397D01*
X028923Y010498D01*
X028791Y010552D01*
X028649Y010552D01*
X028517Y010498D01*
X028416Y010397D01*
X028362Y010265D01*
X028362Y010175D01*
X028037Y009850D01*
X028000Y009762D01*
X028000Y009584D01*
X027831Y009654D01*
X027810Y009654D01*
X027810Y009801D01*
X027687Y009924D01*
X027097Y010514D01*
X027687Y011104D01*
X030073Y011104D01*
X030910Y010267D01*
X031033Y010144D01*
X031447Y010144D01*
X031710Y010407D01*
X031710Y010041D01*
X031673Y010004D01*
X031353Y010004D01*
X031230Y009881D01*
X030990Y009641D01*
X030990Y009588D01*
X030831Y009654D01*
X030648Y009654D01*
X030479Y009584D01*
X030350Y009454D01*
X030280Y009285D01*
X030280Y008502D01*
X030350Y008333D01*
X030479Y008204D01*
X030503Y008194D01*
X030361Y008052D01*
X030311Y008072D01*
X030169Y008072D01*
X030037Y008018D01*
X029944Y007924D01*
X029353Y007924D01*
X029231Y007802D01*
X029184Y007917D01*
X029083Y008018D01*
X028951Y008072D01*
X028809Y008072D01*
X028677Y008018D01*
X028576Y007917D01*
X028559Y007874D01*
X028480Y007874D01*
X028480Y007910D02*
X028574Y007910D01*
X028480Y008029D02*
X028705Y008029D01*
X028616Y008147D02*
X028480Y008147D01*
X028864Y008147D02*
X029626Y008147D01*
X029632Y008145D02*
X029700Y008135D01*
X029700Y008854D01*
X029280Y008854D01*
X029280Y008558D01*
X029291Y008486D01*
X029314Y008417D01*
X029347Y008353D01*
X029389Y008294D01*
X029440Y008243D01*
X029499Y008201D01*
X029563Y008168D01*
X029632Y008145D01*
X029700Y008147D02*
X029780Y008147D01*
X029780Y008135D02*
X029848Y008145D01*
X029917Y008168D01*
X029981Y008201D01*
X030040Y008243D01*
X030091Y008294D01*
X030133Y008353D01*
X030166Y008417D01*
X030189Y008486D01*
X030200Y008558D01*
X030200Y008854D01*
X029780Y008854D01*
X029780Y008934D01*
X029700Y008934D01*
X029700Y009653D01*
X029632Y009643D01*
X029563Y009620D01*
X029499Y009587D01*
X029440Y009545D01*
X029389Y009494D01*
X029347Y009435D01*
X029314Y009371D01*
X029291Y009302D01*
X029280Y009230D01*
X029280Y008934D01*
X029700Y008934D01*
X029700Y008854D01*
X029780Y008854D01*
X029780Y008135D01*
X029854Y008147D02*
X030457Y008147D01*
X030417Y008266D02*
X030063Y008266D01*
X030150Y008384D02*
X030329Y008384D01*
X030280Y008503D02*
X030191Y008503D01*
X030200Y008621D02*
X030280Y008621D01*
X030280Y008740D02*
X030200Y008740D01*
X030280Y008858D02*
X029780Y008858D01*
X029780Y008934D02*
X030200Y008934D01*
X030200Y009230D01*
X030189Y009302D01*
X030166Y009371D01*
X030133Y009435D01*
X030091Y009494D01*
X030040Y009545D01*
X029981Y009587D01*
X029917Y009620D01*
X029848Y009643D01*
X029780Y009653D01*
X029780Y008934D01*
X029780Y008977D02*
X029700Y008977D01*
X029700Y009095D02*
X029780Y009095D01*
X029780Y009214D02*
X029700Y009214D01*
X029700Y009332D02*
X029780Y009332D01*
X029780Y009451D02*
X029700Y009451D01*
X029700Y009569D02*
X029780Y009569D01*
X030006Y009569D02*
X030465Y009569D01*
X030349Y009451D02*
X030122Y009451D01*
X030179Y009332D02*
X030299Y009332D01*
X030280Y009214D02*
X030200Y009214D01*
X030200Y009095D02*
X030280Y009095D01*
X030280Y008977D02*
X030200Y008977D01*
X029780Y008740D02*
X029700Y008740D01*
X029700Y008858D02*
X029200Y008858D01*
X029200Y008740D02*
X029280Y008740D01*
X029280Y008621D02*
X029200Y008621D01*
X029200Y008503D02*
X029289Y008503D01*
X029330Y008384D02*
X029151Y008384D01*
X029063Y008266D02*
X029417Y008266D01*
X029700Y008266D02*
X029780Y008266D01*
X029780Y008384D02*
X029700Y008384D01*
X029700Y008503D02*
X029780Y008503D01*
X029780Y008621D02*
X029700Y008621D01*
X029280Y008977D02*
X029200Y008977D01*
X029200Y009095D02*
X029280Y009095D01*
X029280Y009214D02*
X029200Y009214D01*
X029181Y009332D02*
X029301Y009332D01*
X029358Y009451D02*
X029131Y009451D01*
X029015Y009569D02*
X029474Y009569D01*
X028672Y009806D02*
X031156Y009806D01*
X031037Y009688D02*
X028553Y009688D01*
X028019Y009806D02*
X027804Y009806D01*
X027810Y009688D02*
X028000Y009688D01*
X028112Y009925D02*
X027686Y009925D01*
X027567Y010043D02*
X028230Y010043D01*
X028349Y010162D02*
X027449Y010162D01*
X027330Y010280D02*
X028368Y010280D01*
X028419Y010399D02*
X027212Y010399D01*
X027101Y010517D02*
X028565Y010517D01*
X028875Y010517D02*
X030659Y010517D01*
X030541Y010636D02*
X027219Y010636D01*
X027338Y010754D02*
X030422Y010754D01*
X030304Y010873D02*
X027456Y010873D01*
X027575Y010991D02*
X030185Y010991D01*
X030744Y011347D02*
X031270Y011347D01*
X031230Y011387D02*
X031353Y011264D01*
X031390Y011227D01*
X031390Y011063D01*
X031271Y011112D01*
X031129Y011112D01*
X031023Y011068D01*
X030087Y012004D01*
X029996Y012004D01*
X030064Y012071D01*
X030118Y012203D01*
X030118Y012304D01*
X030984Y012304D01*
X031077Y012210D01*
X031209Y012156D01*
X031351Y012156D01*
X031483Y012210D01*
X031584Y012311D01*
X031638Y012443D01*
X031638Y012585D01*
X031584Y012717D01*
X031483Y012818D01*
X031351Y012872D01*
X031209Y012872D01*
X031077Y012818D01*
X030984Y012724D01*
X029913Y012724D01*
X029821Y012632D01*
X029689Y012632D01*
X029557Y012578D01*
X029456Y012477D01*
X029426Y012404D01*
X029113Y012404D01*
X029033Y012324D01*
X028477Y012324D01*
X028518Y012423D01*
X028518Y012565D01*
X028464Y012697D01*
X028370Y012790D01*
X028370Y012967D01*
X028713Y012624D01*
X028744Y012624D01*
X028837Y012530D01*
X028969Y012476D01*
X029111Y012476D01*
X029243Y012530D01*
X029344Y012631D01*
X029398Y012763D01*
X029398Y012905D01*
X029344Y013037D01*
X029243Y013138D01*
X029147Y013177D01*
X029158Y013203D01*
X029158Y013336D01*
X029171Y013336D01*
X029303Y013390D01*
X029404Y013491D01*
X029458Y013623D01*
X029458Y013765D01*
X029404Y013897D01*
X029303Y013998D01*
X029171Y014052D01*
X029029Y014052D01*
X028897Y013998D01*
X028895Y013996D01*
X028370Y014521D01*
X028370Y014601D01*
X027847Y015124D01*
X026407Y015124D01*
X026247Y015284D01*
X024953Y015284D01*
X024830Y015161D01*
X024830Y015161D01*
X024750Y015081D01*
X024750Y014521D01*
X023993Y013764D01*
X023644Y013764D01*
X023818Y013853D01*
X024141Y014176D01*
X024349Y014583D01*
X024420Y015034D01*
X024366Y015376D01*
X024471Y015376D01*
X024603Y015430D01*
X024606Y015434D01*
X025656Y015434D01*
X025759Y015477D01*
X025837Y015555D01*
X025896Y015614D01*
X028484Y015614D01*
X028663Y015435D01*
X028741Y015357D01*
X028844Y015314D01*
X029716Y015314D01*
X029746Y015241D01*
X029847Y015140D01*
X029979Y015086D01*
X030121Y015086D01*
X030253Y015140D01*
X030256Y015144D01*
X030773Y015144D01*
X030757Y015138D01*
X030656Y015037D01*
X030602Y014905D01*
X030602Y014763D01*
X030656Y014631D01*
X030757Y014530D01*
X030889Y014476D01*
X030910Y014476D01*
X030910Y014267D01*
X031033Y014144D01*
X031790Y013387D01*
X031790Y012201D01*
X031753Y012164D01*
X031593Y012164D01*
X031470Y012041D01*
X031230Y011801D01*
X031230Y011387D01*
X031230Y011465D02*
X030625Y011465D01*
X030507Y011584D02*
X031230Y011584D01*
X031230Y011702D02*
X030388Y011702D01*
X030270Y011821D02*
X031250Y011821D01*
X031369Y011939D02*
X030151Y011939D01*
X030050Y012058D02*
X031487Y012058D01*
X031401Y012176D02*
X031766Y012176D01*
X031790Y012295D02*
X031567Y012295D01*
X031626Y012413D02*
X031790Y012413D01*
X031790Y012532D02*
X031638Y012532D01*
X031611Y012650D02*
X031790Y012650D01*
X031790Y012769D02*
X031531Y012769D01*
X031790Y012887D02*
X029398Y012887D01*
X029398Y012769D02*
X031029Y012769D01*
X031790Y013006D02*
X029356Y013006D01*
X029256Y013124D02*
X031790Y013124D01*
X031790Y013243D02*
X029158Y013243D01*
X029233Y013361D02*
X031790Y013361D01*
X031697Y013480D02*
X029392Y013480D01*
X029448Y013598D02*
X031578Y013598D01*
X031460Y013717D02*
X029458Y013717D01*
X029429Y013835D02*
X031341Y013835D01*
X031223Y013954D02*
X029346Y013954D01*
X028818Y014072D02*
X031104Y014072D01*
X030986Y014191D02*
X028700Y014191D01*
X028581Y014309D02*
X030910Y014309D01*
X030910Y014428D02*
X028463Y014428D01*
X028370Y014546D02*
X030741Y014546D01*
X030642Y014665D02*
X028306Y014665D01*
X028187Y014783D02*
X030602Y014783D01*
X030602Y014902D02*
X028069Y014902D01*
X027950Y015020D02*
X030650Y015020D01*
X030761Y015139D02*
X030250Y015139D01*
X029850Y015139D02*
X026392Y015139D01*
X026273Y015257D02*
X029740Y015257D01*
X030121Y015802D02*
X030253Y015748D01*
X030296Y015704D01*
X031306Y015704D01*
X031409Y015661D01*
X031487Y015583D01*
X031487Y015583D01*
X031677Y015393D01*
X031720Y015290D01*
X031720Y014550D01*
X032036Y014234D01*
X032296Y014234D01*
X032399Y014191D01*
X034290Y014191D01*
X034290Y014309D02*
X031960Y014309D01*
X031842Y014428D02*
X034290Y014428D01*
X034290Y014546D02*
X031723Y014546D01*
X031720Y014665D02*
X034290Y014665D01*
X034290Y014783D02*
X031720Y014783D01*
X031720Y014902D02*
X034290Y014902D01*
X034290Y015020D02*
X031720Y015020D01*
X031720Y015139D02*
X034290Y015139D01*
X034290Y015257D02*
X031720Y015257D01*
X031684Y015376D02*
X034290Y015376D01*
X034290Y015494D02*
X031575Y015494D01*
X031457Y015613D02*
X034290Y015613D01*
X034290Y015731D02*
X030269Y015731D01*
X030121Y015802D02*
X030088Y015802D01*
X030059Y015831D01*
X029956Y015874D01*
X029016Y015874D01*
X028759Y016131D01*
X028656Y016174D01*
X025724Y016174D01*
X025621Y016131D01*
X025484Y015994D01*
X024680Y015994D01*
X024680Y016170D01*
X024637Y016273D01*
X024426Y016484D01*
X033622Y016484D01*
X033665Y016474D01*
X033723Y016484D01*
X033781Y016484D01*
X033809Y016495D01*
X033852Y016499D01*
X034027Y016479D01*
X034188Y016409D01*
X034290Y016325D01*
X034290Y013025D01*
X034268Y013034D01*
X034092Y013034D01*
X033931Y012967D01*
X033807Y012843D01*
X033740Y012681D01*
X033740Y011946D01*
X033807Y011785D01*
X033931Y011661D01*
X034092Y011594D01*
X034268Y011594D01*
X034290Y011603D01*
X034290Y004864D01*
X032111Y004864D01*
X032111Y005195D01*
X032017Y005289D01*
X031935Y005289D01*
X031935Y005517D01*
X032215Y005517D01*
X032309Y005611D01*
X032309Y006137D01*
X032219Y006227D01*
X032224Y006231D01*
X032278Y006363D01*
X032278Y006505D01*
X032224Y006637D01*
X032123Y006738D01*
X031991Y006792D01*
X031849Y006792D01*
X031717Y006738D01*
X031616Y006637D01*
X031562Y006505D01*
X031562Y006363D01*
X031616Y006231D01*
X031617Y006231D01*
X031531Y006231D01*
X031443Y006142D01*
X031443Y006511D01*
X031349Y006605D01*
X030665Y006605D01*
X030643Y006583D01*
X030602Y006624D01*
X029878Y006624D01*
X029785Y006531D01*
X029785Y006449D01*
X029647Y006449D01*
X029559Y006412D01*
X029539Y006392D01*
X029449Y006392D01*
X029317Y006338D01*
X029216Y006237D01*
X029170Y006125D01*
X029170Y006427D01*
X029687Y006944D01*
X030807Y006944D01*
X030887Y007024D01*
X031010Y007147D01*
X031010Y007547D01*
X031650Y008187D01*
X031650Y008492D01*
X031689Y008476D01*
X031831Y008476D01*
X031963Y008530D01*
X032064Y008631D01*
X032118Y008763D01*
X032118Y008905D01*
X032064Y009037D01*
X032042Y009059D01*
X032290Y009307D01*
X032290Y009668D01*
X032321Y009637D01*
X033000Y008958D01*
X033000Y008858D01*
X033002Y008854D01*
X033002Y008763D01*
X033056Y008631D01*
X033157Y008530D01*
X033289Y008476D01*
X033431Y008476D01*
X033563Y008530D01*
X033664Y008631D01*
X033718Y008763D01*
X033718Y008905D01*
X033664Y009037D01*
X033563Y009138D01*
X033555Y009141D01*
X033517Y009233D01*
X032760Y009990D01*
X032760Y011898D01*
X032807Y011785D01*
X032931Y011661D01*
X033092Y011594D01*
X033268Y011594D01*
X033429Y011661D01*
X033553Y011785D01*
X033620Y011946D01*
X033620Y012681D01*
X033553Y012843D01*
X033429Y012967D01*
X033268Y013034D01*
X033160Y013034D01*
X033160Y013370D01*
X033117Y013473D01*
X033039Y013551D01*
X032399Y014191D01*
X032517Y014072D02*
X034290Y014072D01*
X034290Y013954D02*
X032636Y013954D01*
X032754Y013835D02*
X034290Y013835D01*
X034290Y013717D02*
X032873Y013717D01*
X032991Y013598D02*
X034290Y013598D01*
X034290Y013480D02*
X033110Y013480D01*
X033160Y013361D02*
X034290Y013361D01*
X034290Y013243D02*
X033160Y013243D01*
X033160Y013124D02*
X034290Y013124D01*
X034025Y013006D02*
X033335Y013006D01*
X033509Y012887D02*
X033851Y012887D01*
X033776Y012769D02*
X033584Y012769D01*
X033620Y012650D02*
X033740Y012650D01*
X033740Y012532D02*
X033620Y012532D01*
X033620Y012413D02*
X033740Y012413D01*
X033740Y012295D02*
X033620Y012295D01*
X033620Y012176D02*
X033740Y012176D01*
X033740Y012058D02*
X033620Y012058D01*
X033617Y011939D02*
X033743Y011939D01*
X033792Y011821D02*
X033568Y011821D01*
X033471Y011702D02*
X033889Y011702D01*
X034290Y011584D02*
X032760Y011584D01*
X032760Y011702D02*
X032889Y011702D01*
X032792Y011821D02*
X032760Y011821D01*
X032760Y011465D02*
X034290Y011465D01*
X034290Y011347D02*
X032760Y011347D01*
X032760Y011228D02*
X034290Y011228D01*
X034290Y011110D02*
X032760Y011110D01*
X032760Y010991D02*
X034290Y010991D01*
X034290Y010873D02*
X032760Y010873D01*
X032760Y010754D02*
X034290Y010754D01*
X034290Y010636D02*
X032760Y010636D01*
X032760Y010517D02*
X034290Y010517D01*
X034290Y010399D02*
X032760Y010399D01*
X032760Y010280D02*
X034290Y010280D01*
X034290Y010162D02*
X032760Y010162D01*
X032760Y010043D02*
X034290Y010043D01*
X034290Y009925D02*
X032825Y009925D01*
X032943Y009806D02*
X034290Y009806D01*
X034290Y009688D02*
X033062Y009688D01*
X033180Y009569D02*
X034290Y009569D01*
X034290Y009451D02*
X033299Y009451D01*
X033417Y009332D02*
X034290Y009332D01*
X034290Y009214D02*
X033525Y009214D01*
X033605Y009095D02*
X034290Y009095D01*
X034290Y008977D02*
X033688Y008977D01*
X033718Y008858D02*
X034290Y008858D01*
X034290Y008740D02*
X033709Y008740D01*
X033654Y008621D02*
X034290Y008621D01*
X034290Y008503D02*
X033497Y008503D01*
X033223Y008503D02*
X032998Y008503D01*
X032998Y008443D02*
X032998Y008585D01*
X032944Y008717D01*
X032843Y008818D01*
X032711Y008872D01*
X032569Y008872D01*
X032437Y008818D01*
X032336Y008717D01*
X032282Y008585D01*
X032282Y008453D01*
X032030Y008201D01*
X032030Y007610D01*
X031936Y007517D01*
X031882Y007385D01*
X031882Y007243D01*
X031936Y007111D01*
X032037Y007010D01*
X032169Y006956D01*
X032311Y006956D01*
X032443Y007010D01*
X032544Y007111D01*
X032598Y007243D01*
X032598Y007385D01*
X032544Y007517D01*
X032450Y007610D01*
X032450Y008027D01*
X032579Y008156D01*
X032711Y008156D01*
X032843Y008210D01*
X032944Y008311D01*
X032998Y008443D01*
X032974Y008384D02*
X034290Y008384D01*
X034290Y008266D02*
X032898Y008266D01*
X032571Y008147D02*
X034290Y008147D01*
X034290Y008029D02*
X032452Y008029D01*
X032450Y007910D02*
X034290Y007910D01*
X034290Y007792D02*
X032450Y007792D01*
X032450Y007673D02*
X034290Y007673D01*
X034290Y007555D02*
X032505Y007555D01*
X032577Y007436D02*
X034290Y007436D01*
X034290Y007318D02*
X032598Y007318D01*
X032580Y007199D02*
X034290Y007199D01*
X034290Y007081D02*
X032513Y007081D01*
X032327Y006962D02*
X034290Y006962D01*
X034290Y006844D02*
X029587Y006844D01*
X029469Y006725D02*
X031705Y006725D01*
X031604Y006607D02*
X030619Y006607D01*
X029861Y006607D02*
X029350Y006607D01*
X029232Y006488D02*
X029785Y006488D01*
X029395Y006370D02*
X029170Y006370D01*
X029170Y006251D02*
X029231Y006251D01*
X029173Y006133D02*
X029170Y006133D01*
X029170Y005943D02*
X029216Y005831D01*
X029317Y005730D01*
X029449Y005676D01*
X029591Y005676D01*
X029723Y005730D01*
X029785Y005792D01*
X029785Y005599D01*
X030180Y005599D01*
X030180Y005479D01*
X030300Y005479D01*
X030300Y005123D01*
X030556Y005123D01*
X030597Y005134D01*
X030609Y005141D01*
X030609Y004894D01*
X030965Y004894D01*
X030965Y004864D01*
X027607Y004864D01*
X028487Y004864D01*
X029047Y005424D01*
X029170Y005547D01*
X029170Y005943D01*
X029170Y005896D02*
X029190Y005896D01*
X029170Y005777D02*
X029270Y005777D01*
X029170Y005659D02*
X029785Y005659D01*
X029770Y005777D02*
X029785Y005777D01*
X030180Y005540D02*
X029164Y005540D01*
X029045Y005422D02*
X029785Y005422D01*
X029785Y005479D02*
X029785Y005262D01*
X029796Y005222D01*
X029817Y005185D01*
X028808Y005185D01*
X028927Y005303D02*
X029785Y005303D01*
X029817Y005185D02*
X029846Y005155D01*
X029883Y005134D01*
X029924Y005123D01*
X030180Y005123D01*
X030180Y005479D01*
X029785Y005479D01*
X030180Y005422D02*
X030300Y005422D01*
X030300Y005479D02*
X030300Y005599D01*
X030571Y005599D01*
X030571Y005538D01*
X030968Y005538D01*
X030968Y005461D01*
X030969Y005461D02*
X031045Y005461D01*
X031045Y005143D01*
X031085Y005143D01*
X031085Y004894D01*
X030965Y004894D01*
X030965Y005143D01*
X030969Y005143D01*
X030969Y005461D01*
X030968Y005461D02*
X030695Y005461D01*
X030695Y005479D01*
X030300Y005479D01*
X030300Y005540D02*
X030571Y005540D01*
X030686Y005850D02*
X030684Y005857D01*
X030678Y005869D01*
X030695Y005886D01*
X030695Y005889D01*
X031031Y005889D01*
X031037Y005891D01*
X031349Y005891D01*
X031437Y005980D01*
X031437Y005737D01*
X031432Y005759D01*
X031411Y005795D01*
X031381Y005825D01*
X031344Y005846D01*
X031304Y005857D01*
X031045Y005857D01*
X031045Y005538D01*
X030969Y005538D01*
X030969Y005857D01*
X030710Y005857D01*
X030686Y005850D01*
X030969Y005777D02*
X031045Y005777D01*
X031045Y005659D02*
X030969Y005659D01*
X030969Y005540D02*
X031045Y005540D01*
X031045Y005538D02*
X031443Y005538D01*
X031443Y005606D01*
X031455Y005594D01*
X031455Y005289D01*
X031443Y005289D01*
X031443Y005461D01*
X031045Y005461D01*
X031045Y005538D01*
X031045Y005422D02*
X030969Y005422D01*
X030969Y005303D02*
X031045Y005303D01*
X031045Y005185D02*
X030969Y005185D01*
X030965Y005066D02*
X031085Y005066D01*
X031085Y004948D02*
X030965Y004948D01*
X030609Y004948D02*
X028571Y004948D01*
X028690Y005066D02*
X030609Y005066D01*
X030300Y005185D02*
X030180Y005185D01*
X030180Y005303D02*
X030300Y005303D01*
X031443Y005303D02*
X031455Y005303D01*
X031443Y005422D02*
X031455Y005422D01*
X031443Y005540D02*
X031455Y005540D01*
X031437Y005777D02*
X031421Y005777D01*
X031437Y005896D02*
X031354Y005896D01*
X031443Y006251D02*
X031608Y006251D01*
X031562Y006370D02*
X031443Y006370D01*
X031443Y006488D02*
X031562Y006488D01*
X032135Y006725D02*
X034290Y006725D01*
X034290Y006607D02*
X032236Y006607D01*
X032278Y006488D02*
X034290Y006488D01*
X034290Y006370D02*
X032278Y006370D01*
X032232Y006251D02*
X034290Y006251D01*
X034290Y006133D02*
X032309Y006133D01*
X032309Y006014D02*
X034290Y006014D01*
X034290Y005896D02*
X032309Y005896D01*
X032309Y005777D02*
X034290Y005777D01*
X034290Y005659D02*
X032309Y005659D01*
X032238Y005540D02*
X034290Y005540D01*
X034290Y005422D02*
X031935Y005422D01*
X031935Y005303D02*
X034290Y005303D01*
X034290Y005185D02*
X032111Y005185D01*
X032111Y005066D02*
X034290Y005066D01*
X034290Y004948D02*
X032111Y004948D01*
X027607Y004864D02*
X027607Y004864D01*
X026388Y005402D02*
X026069Y005402D01*
X026069Y005381D01*
X025752Y005381D01*
X025752Y005458D01*
X026149Y005458D01*
X026149Y005479D01*
X026388Y005479D01*
X026388Y005402D01*
X026388Y005422D02*
X025752Y005422D01*
X025751Y005458D02*
X025675Y005458D01*
X025675Y005381D01*
X025277Y005381D01*
X025277Y005202D01*
X025288Y005161D01*
X025309Y005125D01*
X025339Y005095D01*
X025376Y005074D01*
X025416Y005063D01*
X025530Y005063D01*
X025530Y004864D01*
X024195Y004864D01*
X024189Y004902D01*
X024166Y004971D01*
X024133Y005035D01*
X024105Y005074D01*
X024454Y005074D01*
X024517Y005010D01*
X024649Y004956D01*
X024791Y004956D01*
X024923Y005010D01*
X025024Y005111D01*
X025078Y005243D01*
X025078Y005385D01*
X025057Y005437D01*
X025189Y005437D01*
X025277Y005526D01*
X025277Y005458D01*
X025675Y005458D01*
X025675Y005777D01*
X025416Y005777D01*
X025376Y005766D01*
X025339Y005745D01*
X025309Y005715D01*
X025288Y005679D01*
X025283Y005657D01*
X025283Y005900D01*
X025371Y005811D01*
X025773Y005811D01*
X025807Y005777D01*
X025751Y005777D01*
X025751Y005458D01*
X025751Y005540D02*
X025675Y005540D01*
X025675Y005422D02*
X025063Y005422D01*
X025078Y005303D02*
X025277Y005303D01*
X025282Y005185D02*
X025054Y005185D01*
X024979Y005066D02*
X025404Y005066D01*
X025530Y004948D02*
X024174Y004948D01*
X024111Y005066D02*
X024461Y005066D01*
X025283Y005659D02*
X025283Y005659D01*
X025283Y005777D02*
X025807Y005777D01*
X025751Y005659D02*
X025675Y005659D01*
X025286Y005896D02*
X025283Y005896D01*
X022879Y007184D02*
X022750Y007054D01*
X022720Y006982D01*
X022690Y007054D01*
X022561Y007184D01*
X022391Y007254D01*
X022309Y007254D01*
X022309Y007381D01*
X021912Y007381D01*
X021912Y007458D01*
X022309Y007458D01*
X022309Y007638D01*
X022298Y007679D01*
X022277Y007715D01*
X022247Y007745D01*
X022210Y007766D01*
X022170Y007777D01*
X021911Y007777D01*
X021911Y007458D01*
X021835Y007458D01*
X021835Y007777D01*
X021650Y007777D01*
X021650Y007811D01*
X022215Y007811D01*
X022309Y007905D01*
X022309Y008068D01*
X022442Y007935D01*
X022442Y007803D01*
X022496Y007671D01*
X022597Y007570D01*
X022729Y007516D01*
X022871Y007516D01*
X023003Y007570D01*
X023080Y007647D01*
X023157Y007570D01*
X023289Y007516D01*
X023431Y007516D01*
X023470Y007532D01*
X023470Y007467D01*
X023683Y007254D01*
X023048Y007254D01*
X022879Y007184D01*
X022917Y007199D02*
X022523Y007199D01*
X022664Y007081D02*
X022776Y007081D01*
X022309Y007318D02*
X023619Y007318D01*
X023500Y007436D02*
X021912Y007436D01*
X021911Y007555D02*
X021835Y007555D01*
X021835Y007673D02*
X021911Y007673D01*
X021650Y007792D02*
X022446Y007792D01*
X022442Y007910D02*
X022309Y007910D01*
X022309Y008029D02*
X022348Y008029D01*
X022299Y007673D02*
X022495Y007673D01*
X022634Y007555D02*
X022309Y007555D01*
X022966Y007555D02*
X023194Y007555D01*
X019384Y007555D02*
X016875Y007555D01*
X018334Y007436D02*
X019266Y007436D01*
X014620Y006251D02*
X014500Y006251D01*
X014500Y006133D02*
X014620Y006133D01*
X014717Y006014D02*
X013692Y006014D01*
X013616Y006014D02*
X013263Y006014D01*
X013297Y006025D02*
X013297Y006120D01*
X013263Y006105D01*
X013263Y005764D01*
X013297Y005764D01*
X013297Y005949D01*
X013616Y005949D01*
X013616Y006025D01*
X013297Y006025D01*
X013297Y005896D02*
X013263Y005896D01*
X013263Y005777D02*
X013297Y005777D01*
X013637Y005344D02*
X013851Y005344D01*
X013851Y005291D01*
X013945Y005197D01*
X014629Y005197D01*
X014717Y005286D01*
X014717Y005218D01*
X015115Y005218D01*
X015115Y005141D01*
X014717Y005141D01*
X014717Y005044D01*
X013654Y005044D01*
X013637Y005061D01*
X013637Y005344D01*
X013637Y005303D02*
X013851Y005303D01*
X013637Y005185D02*
X015115Y005185D01*
X015115Y005218D02*
X015115Y005537D01*
X014856Y005537D01*
X014816Y005526D01*
X014779Y005505D01*
X014749Y005475D01*
X014728Y005439D01*
X014723Y005417D01*
X014723Y005660D01*
X014811Y005571D01*
X015495Y005571D01*
X015563Y005639D01*
X015616Y005511D01*
X015717Y005410D01*
X015849Y005356D01*
X015991Y005356D01*
X016010Y005364D01*
X016010Y005309D01*
X015864Y005309D01*
X015770Y005215D01*
X015770Y005044D01*
X015589Y005044D01*
X015589Y005141D01*
X015192Y005141D01*
X015192Y005218D01*
X015589Y005218D01*
X015589Y005398D01*
X015578Y005439D01*
X015557Y005475D01*
X015527Y005505D01*
X015490Y005526D01*
X015450Y005537D01*
X015191Y005537D01*
X015191Y005218D01*
X015115Y005218D01*
X015192Y005185D02*
X015770Y005185D01*
X015770Y005066D02*
X015589Y005066D01*
X015589Y005303D02*
X015858Y005303D01*
X015706Y005422D02*
X015582Y005422D01*
X015604Y005540D02*
X014723Y005540D01*
X014723Y005422D02*
X014724Y005422D01*
X014723Y005659D02*
X014723Y005659D01*
X015115Y005422D02*
X015191Y005422D01*
X015191Y005303D02*
X015115Y005303D01*
X014717Y005066D02*
X013637Y005066D01*
X012309Y004948D02*
X012174Y004948D01*
X012190Y005066D02*
X012111Y005066D01*
X012072Y005185D02*
X011984Y005185D01*
X012030Y005303D02*
X007220Y005303D01*
X007212Y005422D02*
X007901Y005422D01*
X007787Y005540D02*
X007162Y005540D01*
X007057Y005659D02*
X007738Y005659D01*
X007936Y005185D02*
X007203Y005185D01*
X007154Y005066D02*
X007809Y005066D01*
X007746Y004948D02*
X007036Y004948D01*
X005964Y004948D02*
X005117Y004948D01*
X005200Y005066D02*
X005846Y005066D01*
X005756Y005185D02*
X005249Y005185D01*
X005250Y005303D02*
X005638Y005303D01*
X005519Y005422D02*
X005250Y005422D01*
X005250Y005540D02*
X005401Y005540D01*
X005282Y005659D02*
X005250Y005659D01*
X006470Y005896D02*
X006530Y005896D01*
X006530Y006014D02*
X006470Y006014D01*
X006470Y006133D02*
X006530Y006133D01*
X006530Y006251D02*
X006470Y006251D01*
X006470Y006370D02*
X006530Y006370D01*
X006530Y006488D02*
X006470Y006488D01*
X006470Y006607D02*
X006530Y006607D01*
X006530Y006725D02*
X006470Y006725D01*
X003987Y007673D02*
X003167Y007673D01*
X003224Y007792D02*
X004105Y007792D01*
X003868Y007555D02*
X003048Y007555D01*
X002829Y007436D02*
X003750Y007436D01*
X003631Y007318D02*
X002232Y007318D01*
X002232Y007436D02*
X002451Y007436D01*
X002232Y007199D02*
X003513Y007199D01*
X003394Y007081D02*
X002232Y007081D01*
X003273Y007910D02*
X005765Y007910D01*
X009849Y009095D02*
X009952Y009095D01*
X009946Y008977D02*
X010134Y008977D01*
X010085Y008858D02*
X009995Y008858D01*
X010000Y008740D02*
X010080Y008740D01*
X010080Y008621D02*
X010000Y008621D01*
X010000Y008503D02*
X010080Y008503D01*
X012491Y007199D02*
X012514Y007199D01*
X014011Y006133D02*
X014101Y006133D01*
X014085Y006183D02*
X014085Y006183D01*
X014644Y005896D02*
X014717Y005896D01*
X012030Y005422D02*
X012019Y005422D01*
X011480Y005185D02*
X011400Y005185D01*
X011400Y005066D02*
X011480Y005066D01*
X011480Y004948D02*
X011400Y004948D01*
X010769Y005066D02*
X010591Y005066D01*
X010654Y004948D02*
X010706Y004948D01*
X009960Y004948D02*
X009880Y004948D01*
X009880Y005066D02*
X009960Y005066D01*
X009960Y005185D02*
X009880Y005185D01*
X009376Y005185D02*
X009024Y005185D01*
X009151Y005066D02*
X009249Y005066D01*
X008520Y005066D02*
X008440Y005066D01*
X008440Y004948D02*
X008520Y004948D01*
X008520Y005185D02*
X008440Y005185D01*
X009059Y005422D02*
X009341Y005422D01*
X010464Y005185D02*
X010896Y005185D01*
X010861Y005422D02*
X010499Y005422D01*
X010652Y010399D02*
X009835Y010399D01*
X009835Y010636D02*
X010328Y010636D01*
X010480Y010517D02*
X009440Y010517D01*
X009440Y010636D02*
X009320Y010636D01*
X009320Y010529D02*
X009320Y010409D01*
X008740Y010409D01*
X008740Y010529D01*
X008925Y010529D01*
X009320Y010529D01*
X009320Y010517D02*
X008740Y010517D01*
X008740Y010636D02*
X008620Y010636D01*
X008620Y010754D02*
X008740Y010754D01*
X008740Y010873D02*
X008620Y010873D01*
X008620Y010991D02*
X008740Y010991D01*
X008740Y011039D02*
X008740Y011159D01*
X009135Y011159D01*
X009320Y011159D01*
X009320Y011039D01*
X008740Y011039D01*
X008740Y011110D02*
X009320Y011110D01*
X009320Y010991D02*
X009440Y010991D01*
X009440Y010873D02*
X009320Y010873D01*
X009320Y010754D02*
X009440Y010754D01*
X009833Y010754D02*
X010133Y010754D01*
X010062Y010873D02*
X009835Y010873D01*
X009835Y010991D02*
X010042Y010991D01*
X010060Y011110D02*
X009440Y011110D01*
X009835Y011228D02*
X010128Y011228D01*
X010230Y011347D02*
X009835Y011347D01*
X009835Y011465D02*
X010111Y011465D01*
X009993Y011584D02*
X009835Y011584D01*
X009835Y011702D02*
X009874Y011702D01*
X007885Y011110D02*
X007795Y011110D01*
X007795Y010991D02*
X007885Y010991D01*
X007885Y010873D02*
X007795Y010873D01*
X007795Y010754D02*
X007885Y010754D01*
X007885Y010636D02*
X007795Y010636D01*
X007795Y010517D02*
X007885Y010517D01*
X008400Y010517D02*
X008620Y010517D01*
X012388Y011702D02*
X012910Y011702D01*
X012910Y011721D02*
X012910Y011181D01*
X012290Y011801D01*
X012290Y013161D01*
X012198Y013253D01*
X012198Y013299D01*
X012199Y013298D01*
X013765Y013298D01*
X013765Y013026D01*
X013817Y012974D01*
X013765Y012922D01*
X013765Y012278D01*
X013859Y012184D01*
X014000Y012184D01*
X014000Y011893D01*
X013539Y011432D01*
X013449Y011432D01*
X013330Y011383D01*
X013330Y011516D01*
X013431Y011516D01*
X013563Y011570D01*
X013664Y011671D01*
X013718Y011803D01*
X013718Y011945D01*
X013664Y012077D01*
X013563Y012178D01*
X013431Y012232D01*
X013289Y012232D01*
X013157Y012178D01*
X013056Y012077D01*
X013002Y011945D01*
X013002Y011813D01*
X012910Y011721D01*
X013002Y011821D02*
X012290Y011821D01*
X012290Y011939D02*
X013002Y011939D01*
X013049Y012058D02*
X012290Y012058D01*
X012290Y012176D02*
X013156Y012176D01*
X013564Y012176D02*
X014000Y012176D01*
X014000Y012058D02*
X013671Y012058D01*
X013718Y011939D02*
X014000Y011939D01*
X013928Y011821D02*
X013718Y011821D01*
X013677Y011702D02*
X013809Y011702D01*
X013691Y011584D02*
X013576Y011584D01*
X013572Y011465D02*
X013330Y011465D01*
X012910Y011465D02*
X012625Y011465D01*
X012744Y011347D02*
X012910Y011347D01*
X012910Y011228D02*
X012862Y011228D01*
X013520Y011074D02*
X013526Y011080D01*
X015010Y011364D02*
X015733Y011364D01*
X015630Y011467D01*
X015630Y011824D01*
X015047Y011824D01*
X015010Y011787D01*
X015010Y011364D01*
X015010Y011465D02*
X015631Y011465D01*
X015630Y011584D02*
X015010Y011584D01*
X015010Y011702D02*
X015630Y011702D01*
X015630Y011821D02*
X015044Y011821D01*
X013765Y012295D02*
X012290Y012295D01*
X012290Y012413D02*
X013765Y012413D01*
X013765Y012532D02*
X012290Y012532D01*
X012290Y012650D02*
X013765Y012650D01*
X013765Y012769D02*
X012290Y012769D01*
X012290Y012887D02*
X013765Y012887D01*
X013785Y013006D02*
X012290Y013006D01*
X012290Y013124D02*
X013765Y013124D01*
X013765Y013243D02*
X012208Y013243D01*
X014663Y012974D02*
X014715Y013026D01*
X014715Y013670D01*
X014701Y013684D01*
X014913Y013684D01*
X015390Y013207D01*
X015468Y013129D01*
X015456Y013117D01*
X015402Y012985D01*
X015402Y012843D01*
X015451Y012724D01*
X014715Y012724D01*
X014715Y012922D01*
X014663Y012974D01*
X014695Y013006D02*
X015411Y013006D01*
X015402Y012887D02*
X014715Y012887D01*
X014715Y012769D02*
X015432Y012769D01*
X015464Y013124D02*
X014715Y013124D01*
X014715Y013243D02*
X015354Y013243D01*
X015235Y013361D02*
X014715Y013361D01*
X014715Y013480D02*
X015117Y013480D01*
X014998Y013598D02*
X014715Y013598D01*
X016207Y013084D02*
X016213Y013084D01*
X016290Y013007D01*
X016490Y012807D01*
X016490Y012807D01*
X017153Y012144D01*
X017327Y012144D01*
X023978Y012144D01*
X023962Y012105D01*
X023962Y011963D01*
X024016Y011831D01*
X024117Y011730D01*
X024249Y011676D01*
X024391Y011676D01*
X024523Y011730D01*
X024616Y011824D01*
X025367Y011824D01*
X026247Y012704D01*
X027193Y012704D01*
X027870Y012027D01*
X027870Y012027D01*
X027993Y011904D01*
X029044Y011904D01*
X028984Y011844D01*
X028153Y011844D01*
X028073Y011764D01*
X025913Y011764D01*
X025790Y011641D01*
X025593Y011444D01*
X024487Y011444D01*
X024450Y011481D01*
X024327Y011604D01*
X023607Y011604D01*
X023490Y011721D01*
X023367Y011844D01*
X021833Y011844D01*
X021710Y011721D01*
X021273Y011284D01*
X020967Y011284D01*
X020887Y011364D01*
X020438Y011364D01*
X020438Y011385D01*
X020384Y011517D01*
X020283Y011618D01*
X020151Y011672D01*
X020009Y011672D01*
X019877Y011618D01*
X019798Y011538D01*
X019798Y011545D01*
X019744Y011677D01*
X019643Y011778D01*
X019511Y011832D01*
X019369Y011832D01*
X019237Y011778D01*
X019144Y011684D01*
X017127Y011684D01*
X016770Y012041D01*
X016770Y012521D01*
X016290Y013001D01*
X016207Y013084D01*
X016285Y013006D02*
X016291Y013006D01*
X016403Y012887D02*
X016409Y012887D01*
X016522Y012769D02*
X016528Y012769D01*
X016640Y012650D02*
X016646Y012650D01*
X016759Y012532D02*
X016765Y012532D01*
X016770Y012413D02*
X016883Y012413D01*
X016770Y012295D02*
X017002Y012295D01*
X017120Y012176D02*
X016770Y012176D01*
X016770Y012058D02*
X023962Y012058D01*
X023972Y011939D02*
X016871Y011939D01*
X016990Y011821D02*
X019342Y011821D01*
X019538Y011821D02*
X021810Y011821D01*
X021692Y011702D02*
X019718Y011702D01*
X019782Y011584D02*
X019844Y011584D01*
X020316Y011584D02*
X021573Y011584D01*
X021455Y011465D02*
X020405Y011465D01*
X020904Y011347D02*
X021336Y011347D01*
X023390Y011821D02*
X024027Y011821D01*
X024184Y011702D02*
X023508Y011702D01*
X024347Y011584D02*
X025733Y011584D01*
X025615Y011465D02*
X024465Y011465D01*
X024450Y011481D02*
X024450Y011481D01*
X024456Y011702D02*
X025852Y011702D01*
X025601Y012058D02*
X027839Y012058D01*
X027720Y012176D02*
X025720Y012176D01*
X025838Y012295D02*
X027602Y012295D01*
X027483Y012413D02*
X025957Y012413D01*
X026075Y012532D02*
X027365Y012532D01*
X027246Y012650D02*
X026194Y012650D01*
X025483Y011939D02*
X027957Y011939D01*
X028130Y011821D02*
X024613Y011821D01*
X028391Y012769D02*
X028568Y012769D01*
X028483Y012650D02*
X028686Y012650D01*
X028836Y012532D02*
X028518Y012532D01*
X028514Y012413D02*
X029430Y012413D01*
X029512Y012532D02*
X029244Y012532D01*
X029352Y012650D02*
X029840Y012650D01*
X030118Y012295D02*
X030993Y012295D01*
X031159Y012176D02*
X030107Y012176D01*
X028449Y012887D02*
X028370Y012887D01*
X024539Y014309D02*
X024209Y014309D01*
X024149Y014191D02*
X024420Y014191D01*
X024302Y014072D02*
X024038Y014072D01*
X024141Y014176D02*
X024141Y014176D01*
X024183Y013954D02*
X023919Y013954D01*
X023818Y013853D02*
X023818Y013853D01*
X023818Y013853D01*
X023784Y013835D02*
X024065Y013835D01*
X024270Y014428D02*
X024657Y014428D01*
X024750Y014546D02*
X024330Y014546D01*
X024362Y014665D02*
X024750Y014665D01*
X024750Y014783D02*
X024380Y014783D01*
X024399Y014902D02*
X024750Y014902D01*
X024750Y015020D02*
X024418Y015020D01*
X024420Y015034D02*
X024420Y015034D01*
X024403Y015139D02*
X024808Y015139D01*
X024927Y015257D02*
X024385Y015257D01*
X024472Y015376D02*
X028722Y015376D01*
X028603Y015494D02*
X025777Y015494D01*
X025895Y015613D02*
X028485Y015613D01*
X028921Y015968D02*
X034290Y015968D01*
X034290Y015850D02*
X030014Y015850D01*
X028803Y016087D02*
X034290Y016087D01*
X034290Y016205D02*
X024665Y016205D01*
X024680Y016087D02*
X025577Y016087D01*
X024586Y016324D02*
X034290Y016324D01*
X034111Y016442D02*
X024467Y016442D01*
X022139Y016234D02*
X022102Y016215D01*
X022102Y016215D01*
X021779Y015892D01*
X021571Y015485D01*
X021500Y015034D01*
X021500Y015034D01*
X021571Y014583D01*
X021779Y014176D01*
X021779Y014176D01*
X022102Y013853D01*
X022276Y013764D01*
X020007Y013764D01*
X019380Y014391D01*
X019380Y014716D01*
X019122Y014974D01*
X018758Y014974D01*
X018500Y014716D01*
X018500Y014352D01*
X018608Y014244D01*
X018272Y014244D01*
X018380Y014352D01*
X018380Y014716D01*
X018122Y014974D01*
X017758Y014974D01*
X017650Y014866D01*
X017650Y015161D01*
X017527Y015284D01*
X017380Y015431D01*
X017380Y015716D01*
X017122Y015974D01*
X016758Y015974D01*
X016500Y015716D01*
X016500Y015352D01*
X016758Y015094D01*
X017122Y015094D01*
X017123Y015094D01*
X017230Y014987D01*
X017230Y014866D01*
X017122Y014974D01*
X016758Y014974D01*
X016500Y014716D01*
X016500Y014391D01*
X016380Y014511D01*
X016380Y014716D01*
X016122Y014974D01*
X015777Y014974D01*
X015897Y015094D01*
X016122Y015094D01*
X016380Y015352D01*
X016380Y015716D01*
X016122Y015974D01*
X015758Y015974D01*
X015500Y015716D01*
X015500Y015352D01*
X015530Y015321D01*
X015313Y015104D01*
X015190Y014981D01*
X015190Y014906D01*
X015122Y014974D01*
X014758Y014974D01*
X014710Y014926D01*
X014710Y015153D01*
X014852Y015094D01*
X015028Y015094D01*
X015189Y015161D01*
X015313Y015285D01*
X015380Y015446D01*
X015380Y015621D01*
X015313Y015783D01*
X015189Y015907D01*
X015028Y015974D01*
X014852Y015974D01*
X014691Y015907D01*
X014567Y015783D01*
X014549Y015740D01*
X014413Y015604D01*
X014357Y015548D01*
X014181Y015892D01*
X014181Y015892D01*
X013858Y016215D01*
X013821Y016234D01*
X020660Y016234D01*
X020660Y015876D01*
X020500Y015716D01*
X020500Y015352D01*
X020660Y015192D01*
X020660Y014876D01*
X020500Y014716D01*
X020500Y014352D01*
X020758Y014094D01*
X021122Y014094D01*
X021380Y014352D01*
X021380Y014716D01*
X021220Y014876D01*
X021220Y015192D01*
X021380Y015352D01*
X021380Y015716D01*
X021220Y015876D01*
X021220Y016234D01*
X022139Y016234D01*
X022092Y016205D02*
X021220Y016205D01*
X021220Y016087D02*
X021974Y016087D01*
X021855Y015968D02*
X021220Y015968D01*
X021246Y015850D02*
X021757Y015850D01*
X021779Y015892D02*
X021779Y015892D01*
X021697Y015731D02*
X021365Y015731D01*
X021380Y015613D02*
X021637Y015613D01*
X021576Y015494D02*
X021380Y015494D01*
X021380Y015376D02*
X021554Y015376D01*
X021571Y015485D02*
X021571Y015485D01*
X021535Y015257D02*
X021286Y015257D01*
X021220Y015139D02*
X021517Y015139D01*
X021502Y015020D02*
X021220Y015020D01*
X021220Y014902D02*
X021521Y014902D01*
X021540Y014783D02*
X021313Y014783D01*
X021380Y014665D02*
X021558Y014665D01*
X021571Y014583D02*
X021571Y014583D01*
X021590Y014546D02*
X021380Y014546D01*
X021380Y014428D02*
X021650Y014428D01*
X021711Y014309D02*
X021338Y014309D01*
X021219Y014191D02*
X021771Y014191D01*
X021882Y014072D02*
X019698Y014072D01*
X019758Y014094D02*
X019910Y014094D01*
X019910Y014504D01*
X019500Y014504D01*
X019500Y014352D01*
X019758Y014094D01*
X019661Y014191D02*
X019580Y014191D01*
X019542Y014309D02*
X019461Y014309D01*
X019500Y014428D02*
X019380Y014428D01*
X019380Y014546D02*
X019910Y014546D01*
X019910Y014564D02*
X019910Y014504D01*
X019970Y014504D01*
X019970Y014564D01*
X019910Y014564D01*
X019910Y014974D01*
X019758Y014974D01*
X019500Y014716D01*
X019500Y014564D01*
X019910Y014564D01*
X019970Y014564D02*
X019970Y014974D01*
X020122Y014974D01*
X020380Y014716D01*
X020380Y014564D01*
X019970Y014564D01*
X019970Y014546D02*
X020500Y014546D01*
X020500Y014428D02*
X020380Y014428D01*
X020380Y014352D02*
X020380Y014504D01*
X019970Y014504D01*
X019970Y014094D01*
X020122Y014094D01*
X020380Y014352D01*
X020338Y014309D02*
X020542Y014309D01*
X020661Y014191D02*
X020219Y014191D01*
X019970Y014191D02*
X019910Y014191D01*
X019910Y014309D02*
X019970Y014309D01*
X019970Y014428D02*
X019910Y014428D01*
X019910Y014665D02*
X019970Y014665D01*
X019970Y014783D02*
X019910Y014783D01*
X019910Y014902D02*
X019970Y014902D01*
X019970Y015094D02*
X020122Y015094D01*
X020380Y015352D01*
X020380Y015504D01*
X019970Y015504D01*
X019970Y015564D01*
X019910Y015564D01*
X019910Y015974D01*
X019758Y015974D01*
X019500Y015716D01*
X019500Y015564D01*
X019910Y015564D01*
X019910Y015504D01*
X019500Y015504D01*
X019500Y015352D01*
X019758Y015094D01*
X019910Y015094D01*
X019910Y015504D01*
X019970Y015504D01*
X019970Y015094D01*
X019970Y015139D02*
X019910Y015139D01*
X019910Y015257D02*
X019970Y015257D01*
X019970Y015376D02*
X019910Y015376D01*
X019910Y015494D02*
X019970Y015494D01*
X019970Y015564D02*
X020380Y015564D01*
X020380Y015716D01*
X020122Y015974D01*
X019970Y015974D01*
X019970Y015564D01*
X019970Y015613D02*
X019910Y015613D01*
X019910Y015731D02*
X019970Y015731D01*
X019970Y015850D02*
X019910Y015850D01*
X019910Y015968D02*
X019970Y015968D01*
X020128Y015968D02*
X020660Y015968D01*
X020660Y016087D02*
X013986Y016087D01*
X013868Y016205D02*
X020660Y016205D01*
X020634Y015850D02*
X020246Y015850D01*
X020365Y015731D02*
X020515Y015731D01*
X020500Y015613D02*
X020380Y015613D01*
X020380Y015494D02*
X020500Y015494D01*
X020500Y015376D02*
X020380Y015376D01*
X020286Y015257D02*
X020594Y015257D01*
X020660Y015139D02*
X020167Y015139D01*
X020194Y014902D02*
X020660Y014902D01*
X020660Y015020D02*
X017650Y015020D01*
X017650Y014902D02*
X017686Y014902D01*
X017758Y015094D02*
X018122Y015094D01*
X018380Y015352D01*
X018380Y015716D01*
X018122Y015974D01*
X017758Y015974D01*
X017500Y015716D01*
X017500Y015352D01*
X017758Y015094D01*
X017713Y015139D02*
X017650Y015139D01*
X017594Y015257D02*
X017553Y015257D01*
X017500Y015376D02*
X017435Y015376D01*
X017380Y015494D02*
X017500Y015494D01*
X017500Y015613D02*
X017380Y015613D01*
X017365Y015731D02*
X017515Y015731D01*
X017634Y015850D02*
X017246Y015850D01*
X017128Y015968D02*
X017752Y015968D01*
X018128Y015968D02*
X018752Y015968D01*
X018758Y015974D02*
X018500Y015716D01*
X018500Y015352D01*
X018758Y015094D01*
X019122Y015094D01*
X019380Y015352D01*
X019380Y015716D01*
X019122Y015974D01*
X018758Y015974D01*
X018634Y015850D02*
X018246Y015850D01*
X018365Y015731D02*
X018515Y015731D01*
X018500Y015613D02*
X018380Y015613D01*
X018380Y015494D02*
X018500Y015494D01*
X018500Y015376D02*
X018380Y015376D01*
X018286Y015257D02*
X018594Y015257D01*
X018713Y015139D02*
X018167Y015139D01*
X018194Y014902D02*
X018686Y014902D01*
X018567Y014783D02*
X018313Y014783D01*
X018380Y014665D02*
X018500Y014665D01*
X018500Y014546D02*
X018380Y014546D01*
X018380Y014428D02*
X018500Y014428D01*
X018542Y014309D02*
X018338Y014309D01*
X019380Y014665D02*
X019500Y014665D01*
X019567Y014783D02*
X019313Y014783D01*
X019194Y014902D02*
X019686Y014902D01*
X019713Y015139D02*
X019167Y015139D01*
X019286Y015257D02*
X019594Y015257D01*
X019500Y015376D02*
X019380Y015376D01*
X019380Y015494D02*
X019500Y015494D01*
X019500Y015613D02*
X019380Y015613D01*
X019365Y015731D02*
X019515Y015731D01*
X019634Y015850D02*
X019246Y015850D01*
X019128Y015968D02*
X019752Y015968D01*
X016752Y015968D02*
X016128Y015968D01*
X016246Y015850D02*
X016634Y015850D01*
X016515Y015731D02*
X016365Y015731D01*
X016380Y015613D02*
X016500Y015613D01*
X016500Y015494D02*
X016380Y015494D01*
X016380Y015376D02*
X016500Y015376D01*
X016594Y015257D02*
X016286Y015257D01*
X016167Y015139D02*
X016713Y015139D01*
X016686Y014902D02*
X016194Y014902D01*
X016313Y014783D02*
X016567Y014783D01*
X016500Y014665D02*
X016380Y014665D01*
X016380Y014546D02*
X016500Y014546D01*
X016500Y014428D02*
X016463Y014428D01*
X017194Y014902D02*
X017230Y014902D01*
X017196Y015020D02*
X015824Y015020D01*
X015348Y015139D02*
X015136Y015139D01*
X015230Y015020D02*
X014710Y015020D01*
X014710Y015139D02*
X014744Y015139D01*
X015286Y015257D02*
X015467Y015257D01*
X015500Y015376D02*
X015351Y015376D01*
X015380Y015494D02*
X015500Y015494D01*
X015500Y015613D02*
X015380Y015613D01*
X015334Y015731D02*
X015515Y015731D01*
X015634Y015850D02*
X015246Y015850D01*
X015041Y015968D02*
X015752Y015968D01*
X014839Y015968D02*
X014105Y015968D01*
X014203Y015850D02*
X014634Y015850D01*
X014541Y015731D02*
X014263Y015731D01*
X014323Y015613D02*
X014422Y015613D01*
X014413Y015604D02*
X014413Y015604D01*
X013858Y016215D02*
X013858Y016215D01*
X011533Y016442D02*
X001365Y016442D01*
X001310Y016324D02*
X011414Y016324D01*
X011296Y016205D02*
X001310Y016205D01*
X001310Y016087D02*
X001967Y016087D01*
X001835Y015968D02*
X001310Y015968D01*
X001310Y015850D02*
X001717Y015850D01*
X001598Y015731D02*
X001310Y015731D01*
X001310Y015613D02*
X001480Y015613D01*
X001361Y015494D02*
X001310Y015494D01*
X001803Y015257D02*
X003497Y015257D01*
X003616Y015139D02*
X001760Y015139D01*
X001760Y015020D02*
X003643Y015020D01*
X003692Y014902D02*
X001760Y014902D01*
X001760Y014783D02*
X003814Y014783D01*
X004090Y014665D02*
X001760Y014665D01*
X001760Y014546D02*
X004208Y014546D01*
X004327Y014428D02*
X001760Y014428D01*
X001760Y014309D02*
X004445Y014309D01*
X004460Y014191D02*
X001760Y014191D01*
X001760Y014072D02*
X004460Y014072D01*
X004460Y013954D02*
X001760Y013954D01*
X001760Y013835D02*
X004435Y013835D01*
X004363Y013717D02*
X001760Y013717D01*
X001760Y013598D02*
X004342Y013598D01*
X004360Y013480D02*
X001760Y013480D01*
X001760Y013361D02*
X004426Y013361D01*
X004612Y013243D02*
X001760Y013243D01*
X004788Y013243D02*
X009310Y013243D01*
X009310Y013361D02*
X004974Y013361D01*
X005040Y013480D02*
X009310Y013480D01*
X009310Y013598D02*
X005058Y013598D01*
X005037Y013717D02*
X009310Y013717D01*
X009310Y013835D02*
X004965Y013835D01*
X004940Y013954D02*
X009310Y013954D01*
X009310Y014072D02*
X004940Y014072D01*
X004940Y014191D02*
X009310Y014191D01*
X009310Y014309D02*
X004940Y014309D01*
X004940Y014428D02*
X009310Y014428D01*
X009310Y014546D02*
X004887Y014546D01*
X004768Y014665D02*
X009310Y014665D01*
X009310Y014783D02*
X004650Y014783D01*
X004531Y014902D02*
X009310Y014902D01*
X009276Y015020D02*
X004413Y015020D01*
X004358Y015139D02*
X009158Y015139D01*
X009039Y015257D02*
X004320Y015257D01*
X004224Y015376D02*
X007732Y015376D01*
X007595Y015494D02*
X003939Y015494D01*
X003820Y015613D02*
X007546Y015613D01*
X007542Y015731D02*
X003702Y015731D01*
X003583Y015850D02*
X007577Y015850D01*
X007668Y015968D02*
X003465Y015968D01*
X003333Y016087D02*
X011177Y016087D01*
X010503Y015968D02*
X008132Y015968D01*
X009041Y015850D02*
X010360Y015850D01*
X010242Y015731D02*
X009159Y015731D01*
X009278Y015613D02*
X010123Y015613D01*
X010005Y015494D02*
X009396Y015494D01*
X009515Y015376D02*
X009886Y015376D01*
X009768Y015257D02*
X009633Y015257D01*
X008921Y015376D02*
X008068Y015376D01*
X008205Y015494D02*
X008802Y015494D01*
X003379Y015376D02*
X001921Y015376D01*
X002040Y015494D02*
X003260Y015494D01*
X003142Y015613D02*
X002158Y015613D01*
X012507Y011584D02*
X012910Y011584D01*
X017108Y011702D02*
X019162Y011702D01*
X019935Y013835D02*
X022136Y013835D01*
X022102Y013853D02*
X022102Y013853D01*
X022001Y013954D02*
X019817Y013954D01*
X020380Y014665D02*
X020500Y014665D01*
X020567Y014783D02*
X020313Y014783D01*
X030862Y011228D02*
X031388Y011228D01*
X031353Y011264D02*
X031353Y011264D01*
X031390Y011110D02*
X031276Y011110D01*
X031124Y011110D02*
X030981Y011110D01*
X030778Y010399D02*
X029021Y010399D01*
X029072Y010280D02*
X030896Y010280D01*
X031015Y010162D02*
X029078Y010162D01*
X029045Y010043D02*
X031710Y010043D01*
X031710Y010162D02*
X031465Y010162D01*
X031584Y010280D02*
X031710Y010280D01*
X031702Y010399D02*
X031710Y010399D01*
X031274Y009925D02*
X028957Y009925D01*
X032079Y009095D02*
X032862Y009095D01*
X032744Y009214D02*
X032197Y009214D01*
X032290Y009332D02*
X032625Y009332D01*
X032507Y009451D02*
X032290Y009451D01*
X032290Y009569D02*
X032388Y009569D01*
X032088Y008977D02*
X032981Y008977D01*
X033000Y008858D02*
X032744Y008858D01*
X032536Y008858D02*
X032118Y008858D01*
X032109Y008740D02*
X032360Y008740D01*
X032297Y008621D02*
X032054Y008621D01*
X031897Y008503D02*
X032282Y008503D01*
X032214Y008384D02*
X031650Y008384D01*
X031650Y008266D02*
X032095Y008266D01*
X032030Y008147D02*
X031611Y008147D01*
X031492Y008029D02*
X032030Y008029D01*
X032030Y007910D02*
X031374Y007910D01*
X031255Y007792D02*
X032030Y007792D01*
X032030Y007673D02*
X031137Y007673D01*
X031018Y007555D02*
X031975Y007555D01*
X031903Y007436D02*
X031010Y007436D01*
X031010Y007318D02*
X031882Y007318D01*
X031900Y007199D02*
X031010Y007199D01*
X030944Y007081D02*
X031967Y007081D01*
X032153Y006962D02*
X030826Y006962D01*
X030887Y007024D02*
X030887Y007024D01*
X030065Y008029D02*
X029055Y008029D01*
X029186Y007910D02*
X029340Y007910D01*
X032920Y008740D02*
X033011Y008740D01*
X032983Y008621D02*
X033066Y008621D01*
M02*
