%
M48
M72
T01C0.0236
T02C0.0320
T03C0.0354
T04C0.0360
T05C0.0400
T06C0.0440
T07C0.1102
%
T01
X15920Y5714
X16080Y6514
X15120Y7314
X15760Y7634
X17920Y8514
X19200Y8914
X19680Y8754
X20480Y9394
X18240Y9554
X22320Y10754
X23120Y11314
X20980Y11854
X19440Y11474
X20080Y11314
X24320Y12034
X26580Y12414
X28160Y12494
X29040Y12834
X29700Y13054
X28800Y13274
X29100Y13694
X27520Y14414
X25300Y14614
X25300Y14094
X30050Y15444
X31020Y15834
X29200Y16094
X27180Y16474
X24900Y16294
X24400Y15734
X30400Y14914
X30960Y14834
X34200Y14294
X32320Y13234
X31280Y12514
X29760Y12274
X29280Y11634
X28900Y10974
X26960Y11167
X26440Y10814
X28720Y10194
X31200Y10754
X33220Y10254
X31520Y9394
X31760Y8834
X32640Y8514
X33360Y8834
X30240Y7714
X28880Y7714
X27480Y7774
X25840Y8354
X23360Y7874
X22800Y7874
X22400Y7554
X19600Y6914
X19680Y6274
X18880Y7474
X24320Y6034
X24720Y5314
X28480Y5874
X29520Y6034
X28400Y6514
X31920Y6434
X32980Y6894
X32240Y7314
X32980Y5294
X30400Y4754
X26080Y9554
X23440Y9714
X15220Y11614
X13860Y11934
X13360Y11874
X13520Y11074
X10400Y10994
X9920Y10834
X7460Y10394
X10160Y9394
X7680Y9154
X6020Y8394
X5840Y7554
X7280Y7554
X5680Y6914
X13120Y6434
X1520Y9714
X2340Y10634
X2080Y11394
X2240Y12514
X3760Y13394
X4700Y13594
X7280Y13154
X10400Y13394
X11840Y13314
X11680Y12594
X10300Y11994
X7360Y11794
X14980Y13134
X15760Y12914
X8660Y15094
X7900Y15694
X6900Y16014
X4000Y15094
X2320Y15154
X2640Y16594
X31840Y11554
X33500Y16554
T02
X15920Y9714
X14920Y9714
X13920Y9714
X12920Y9714
X11920Y9714
T03
X2640Y9780
X2640Y8048
T04
X6500Y6314
X6500Y5314
X33180Y12314
X34180Y12314
X20940Y14534
X19940Y14534
X18940Y14534
X17940Y14534
X16940Y14534
X15940Y14534
X14940Y14534
X14940Y15534
X15940Y15534
X16940Y15534
X17940Y15534
X18940Y15534
X19940Y15534
X20940Y15534
T05
X8480Y4794
X9920Y4794
X11440Y4794
X11440Y5794
X9920Y5794
X8480Y5794
X8480Y6794
X9920Y6794
X11440Y6794
X11920Y8474
X12920Y8474
X13920Y8474
X14920Y8474
X10540Y8454
X9540Y8454
X8540Y8454
X20560Y6794
X22000Y6794
X23440Y6794
X24900Y7594
X24900Y8594
X27740Y8894
X28740Y8894
X29740Y8894
X30740Y8894
X24900Y9594
X24900Y10594
X23440Y5794
X22000Y5794
X20560Y5794
X20560Y4794
X22000Y4794
X23440Y4794
T06
X4760Y5614
X3260Y5614
X1760Y5614
T07
X13000Y15034
X22960Y15034
M30
