G75*
%MOIN*%
%OFA0B0*%
%FSLAX24Y24*%
%IPPOS*%
%LPD*%
%AMOC8*
5,1,8,0,0,1.08239X$1,22.5*
%
%ADD10C,0.0100*%
%ADD11C,0.0000*%
D10*
X000800Y004354D02*
X034800Y004354D01*
X034800Y016514D01*
X034762Y016567D01*
X034722Y016617D01*
X034679Y016664D01*
X034633Y016709D01*
X034584Y016752D01*
X034534Y016791D01*
X034481Y016828D01*
X034426Y016862D01*
X034369Y016892D01*
X034311Y016919D01*
X034251Y016943D01*
X034190Y016963D01*
X034127Y016979D01*
X034064Y016993D01*
X034001Y017002D01*
X033937Y017008D01*
X033872Y017010D01*
X033808Y017008D01*
X033744Y017003D01*
X033680Y016994D01*
X001680Y016994D01*
X000800Y016594D02*
X000800Y004354D01*
X000800Y016594D02*
X000833Y016640D01*
X000868Y016685D01*
X000906Y016727D01*
X000946Y016767D01*
X000989Y016804D01*
X001034Y016838D01*
X001081Y016870D01*
X001131Y016898D01*
X001181Y016923D01*
X001234Y016945D01*
X001287Y016963D01*
X001342Y016978D01*
X001398Y016990D01*
X001454Y016998D01*
X001510Y017002D01*
X001567Y017003D01*
X001624Y017000D01*
X001680Y016994D01*
D11*
X012449Y015034D02*
X012451Y015081D01*
X012457Y015127D01*
X012467Y015173D01*
X012480Y015218D01*
X012498Y015261D01*
X012519Y015303D01*
X012543Y015343D01*
X012571Y015380D01*
X012602Y015415D01*
X012636Y015448D01*
X012672Y015477D01*
X012711Y015503D01*
X012752Y015526D01*
X012795Y015545D01*
X012839Y015561D01*
X012884Y015573D01*
X012930Y015581D01*
X012977Y015585D01*
X013023Y015585D01*
X013070Y015581D01*
X013116Y015573D01*
X013161Y015561D01*
X013205Y015545D01*
X013248Y015526D01*
X013289Y015503D01*
X013328Y015477D01*
X013364Y015448D01*
X013398Y015415D01*
X013429Y015380D01*
X013457Y015343D01*
X013481Y015303D01*
X013502Y015261D01*
X013520Y015218D01*
X013533Y015173D01*
X013543Y015127D01*
X013549Y015081D01*
X013551Y015034D01*
X013549Y014987D01*
X013543Y014941D01*
X013533Y014895D01*
X013520Y014850D01*
X013502Y014807D01*
X013481Y014765D01*
X013457Y014725D01*
X013429Y014688D01*
X013398Y014653D01*
X013364Y014620D01*
X013328Y014591D01*
X013289Y014565D01*
X013248Y014542D01*
X013205Y014523D01*
X013161Y014507D01*
X013116Y014495D01*
X013070Y014487D01*
X013023Y014483D01*
X012977Y014483D01*
X012930Y014487D01*
X012884Y014495D01*
X012839Y014507D01*
X012795Y014523D01*
X012752Y014542D01*
X012711Y014565D01*
X012672Y014591D01*
X012636Y014620D01*
X012602Y014653D01*
X012571Y014688D01*
X012543Y014725D01*
X012519Y014765D01*
X012498Y014807D01*
X012480Y014850D01*
X012467Y014895D01*
X012457Y014941D01*
X012451Y014987D01*
X012449Y015034D01*
X022409Y015034D02*
X022411Y015081D01*
X022417Y015127D01*
X022427Y015173D01*
X022440Y015218D01*
X022458Y015261D01*
X022479Y015303D01*
X022503Y015343D01*
X022531Y015380D01*
X022562Y015415D01*
X022596Y015448D01*
X022632Y015477D01*
X022671Y015503D01*
X022712Y015526D01*
X022755Y015545D01*
X022799Y015561D01*
X022844Y015573D01*
X022890Y015581D01*
X022937Y015585D01*
X022983Y015585D01*
X023030Y015581D01*
X023076Y015573D01*
X023121Y015561D01*
X023165Y015545D01*
X023208Y015526D01*
X023249Y015503D01*
X023288Y015477D01*
X023324Y015448D01*
X023358Y015415D01*
X023389Y015380D01*
X023417Y015343D01*
X023441Y015303D01*
X023462Y015261D01*
X023480Y015218D01*
X023493Y015173D01*
X023503Y015127D01*
X023509Y015081D01*
X023511Y015034D01*
X023509Y014987D01*
X023503Y014941D01*
X023493Y014895D01*
X023480Y014850D01*
X023462Y014807D01*
X023441Y014765D01*
X023417Y014725D01*
X023389Y014688D01*
X023358Y014653D01*
X023324Y014620D01*
X023288Y014591D01*
X023249Y014565D01*
X023208Y014542D01*
X023165Y014523D01*
X023121Y014507D01*
X023076Y014495D01*
X023030Y014487D01*
X022983Y014483D01*
X022937Y014483D01*
X022890Y014487D01*
X022844Y014495D01*
X022799Y014507D01*
X022755Y014523D01*
X022712Y014542D01*
X022671Y014565D01*
X022632Y014591D01*
X022596Y014620D01*
X022562Y014653D01*
X022531Y014688D01*
X022503Y014725D01*
X022479Y014765D01*
X022458Y014807D01*
X022440Y014850D01*
X022427Y014895D01*
X022417Y014941D01*
X022411Y014987D01*
X022409Y015034D01*
X002463Y009780D02*
X002465Y009806D01*
X002471Y009832D01*
X002481Y009857D01*
X002494Y009880D01*
X002510Y009900D01*
X002530Y009918D01*
X002552Y009933D01*
X002575Y009945D01*
X002601Y009953D01*
X002627Y009957D01*
X002653Y009957D01*
X002679Y009953D01*
X002705Y009945D01*
X002729Y009933D01*
X002750Y009918D01*
X002770Y009900D01*
X002786Y009880D01*
X002799Y009857D01*
X002809Y009832D01*
X002815Y009806D01*
X002817Y009780D01*
X002815Y009754D01*
X002809Y009728D01*
X002799Y009703D01*
X002786Y009680D01*
X002770Y009660D01*
X002750Y009642D01*
X002728Y009627D01*
X002705Y009615D01*
X002679Y009607D01*
X002653Y009603D01*
X002627Y009603D01*
X002601Y009607D01*
X002575Y009615D01*
X002551Y009627D01*
X002530Y009642D01*
X002510Y009660D01*
X002494Y009680D01*
X002481Y009703D01*
X002471Y009728D01*
X002465Y009754D01*
X002463Y009780D01*
X002463Y008048D02*
X002465Y008074D01*
X002471Y008100D01*
X002481Y008125D01*
X002494Y008148D01*
X002510Y008168D01*
X002530Y008186D01*
X002552Y008201D01*
X002575Y008213D01*
X002601Y008221D01*
X002627Y008225D01*
X002653Y008225D01*
X002679Y008221D01*
X002705Y008213D01*
X002729Y008201D01*
X002750Y008186D01*
X002770Y008168D01*
X002786Y008148D01*
X002799Y008125D01*
X002809Y008100D01*
X002815Y008074D01*
X002817Y008048D01*
X002815Y008022D01*
X002809Y007996D01*
X002799Y007971D01*
X002786Y007948D01*
X002770Y007928D01*
X002750Y007910D01*
X002728Y007895D01*
X002705Y007883D01*
X002679Y007875D01*
X002653Y007871D01*
X002627Y007871D01*
X002601Y007875D01*
X002575Y007883D01*
X002551Y007895D01*
X002530Y007910D01*
X002510Y007928D01*
X002494Y007948D01*
X002481Y007971D01*
X002471Y007996D01*
X002465Y008022D01*
X002463Y008048D01*
M02*
