G75*
%MOIN*%
%OFA0B0*%
%FSLAX24Y24*%
%IPPOS*%
%LPD*%
%AMOC8*
5,1,8,0,0,1.08239X$1,22.5*
%
%ADD10R,0.4178X0.4332*%
%ADD11R,0.0930X0.0500*%
%ADD12C,0.0740*%
%ADD13C,0.0640*%
%ADD14C,0.0680*%
%ADD15C,0.0434*%
%ADD16R,0.0710X0.0592*%
%ADD17R,0.0671X0.0592*%
%ADD18R,0.0592X0.0710*%
%ADD19C,0.1182*%
%ADD20C,0.0640*%
%ADD21OC8,0.0640*%
%ADD22R,0.1025X0.1025*%
%ADD23C,0.0600*%
%ADD24R,0.0631X0.0474*%
%ADD25R,0.0474X0.0631*%
%ADD26R,0.0592X0.0671*%
%ADD27C,0.0476*%
D10*
X004560Y010814D03*
D11*
X007840Y010814D03*
X007840Y009814D03*
X007840Y011814D03*
D12*
X004760Y005944D02*
X004760Y005284D01*
X003260Y005284D02*
X003260Y005944D01*
X001760Y005944D02*
X001760Y005284D01*
D13*
X006220Y005314D02*
X006780Y005314D01*
X006780Y006314D02*
X006220Y006314D01*
X033180Y012034D02*
X033180Y012594D01*
X034180Y012594D02*
X034180Y012034D01*
D14*
X008780Y004794D02*
X008180Y004794D01*
X009620Y004794D02*
X010220Y004794D01*
X011140Y004794D02*
X011740Y004794D01*
X011740Y005794D02*
X011140Y005794D01*
X010220Y005794D02*
X009620Y005794D01*
X008780Y005794D02*
X008180Y005794D01*
X008180Y006794D02*
X008780Y006794D01*
X009620Y006794D02*
X010220Y006794D01*
X011140Y006794D02*
X011740Y006794D01*
X011920Y008174D02*
X011920Y008774D01*
X012920Y008774D02*
X012920Y008174D01*
X013920Y008174D02*
X013920Y008774D01*
X014920Y008774D02*
X014920Y008174D01*
X010540Y008154D02*
X010540Y008754D01*
X009540Y008754D02*
X009540Y008154D01*
X008540Y008154D02*
X008540Y008754D01*
X020260Y006794D02*
X020860Y006794D01*
X021700Y006794D02*
X022300Y006794D01*
X023140Y006794D02*
X023740Y006794D01*
X024600Y007594D02*
X025200Y007594D01*
X025200Y008594D02*
X024600Y008594D01*
X027740Y008594D02*
X027740Y009194D01*
X028740Y009194D02*
X028740Y008594D01*
X029740Y008594D02*
X029740Y009194D01*
X030740Y009194D02*
X030740Y008594D01*
X025200Y009594D02*
X024600Y009594D01*
X024600Y010594D02*
X025200Y010594D01*
X023740Y005794D02*
X023140Y005794D01*
X022300Y005794D02*
X021700Y005794D01*
X020860Y005794D02*
X020260Y005794D01*
X020260Y004794D02*
X020860Y004794D01*
X021700Y004794D02*
X022300Y004794D01*
X023140Y004794D02*
X023740Y004794D01*
D15*
X002640Y008048D03*
X002640Y009780D03*
D16*
X014240Y012600D03*
X014240Y013348D03*
X016400Y008088D03*
X016400Y007340D03*
X014560Y007208D03*
X014560Y006460D03*
X027840Y006328D03*
X027840Y005580D03*
D17*
X030240Y005539D03*
X030240Y006209D03*
X009380Y009799D03*
X008680Y009799D03*
X008680Y010469D03*
X009380Y010469D03*
X009380Y011099D03*
X008680Y011099D03*
X008680Y011769D03*
X009380Y011769D03*
D18*
X009686Y007674D03*
X010434Y007674D03*
X016666Y006514D03*
X017414Y006514D03*
X018186Y006674D03*
X018934Y006674D03*
X018934Y005874D03*
X018186Y005874D03*
X017174Y005634D03*
X016426Y005634D03*
X018186Y005154D03*
X018934Y005154D03*
X016934Y004834D03*
X016186Y004834D03*
X025946Y004754D03*
X026694Y004754D03*
D19*
X022960Y015034D03*
X013000Y015034D03*
D20*
X014940Y015534D03*
D21*
X015940Y015534D03*
X016940Y015534D03*
X017940Y015534D03*
X018940Y015534D03*
X019940Y015534D03*
X020940Y015534D03*
X020940Y014534D03*
X019940Y014534D03*
X018940Y014534D03*
X017940Y014534D03*
X016940Y014534D03*
X015940Y014534D03*
X014940Y014534D03*
D22*
X001600Y008980D03*
X001600Y007248D03*
D23*
X011920Y009454D02*
X011920Y009974D01*
X012920Y009974D02*
X012920Y009454D01*
X013920Y009454D02*
X013920Y009974D01*
X014920Y009974D02*
X014920Y009454D01*
X015920Y009454D02*
X015920Y009974D01*
D24*
X021873Y008168D03*
X021007Y007794D03*
X021873Y007420D03*
X025713Y006168D03*
X024847Y005794D03*
X025713Y005420D03*
X031007Y005500D03*
X031873Y005874D03*
X031007Y006248D03*
X015153Y005928D03*
X014287Y005554D03*
X015153Y005180D03*
X013793Y006540D03*
X012927Y006914D03*
X013793Y007288D03*
D25*
X013654Y005987D03*
X012906Y005987D03*
X013280Y005121D03*
X026426Y005441D03*
X027174Y005441D03*
X026800Y006307D03*
D26*
X031025Y004834D03*
X031695Y004834D03*
D27*
X030400Y004754D03*
X032980Y005294D03*
X029520Y006034D03*
X028480Y005874D03*
X028400Y006514D03*
X031920Y006434D03*
X032980Y006894D03*
X032240Y007314D03*
X030240Y007714D03*
X028880Y007714D03*
X027480Y007774D03*
X025840Y008354D03*
X023360Y007874D03*
X022800Y007874D03*
X022400Y007554D03*
X019600Y006914D03*
X019680Y006274D03*
X016080Y006514D03*
X015920Y005714D03*
X013120Y006434D03*
X015120Y007314D03*
X015760Y007634D03*
X017920Y008514D03*
X019200Y008914D03*
X019680Y008754D03*
X020480Y009394D03*
X018240Y009554D03*
X022320Y010754D03*
X023120Y011314D03*
X020980Y011854D03*
X019440Y011474D03*
X020080Y011314D03*
X024320Y012034D03*
X026580Y012414D03*
X028160Y012494D03*
X029040Y012834D03*
X029700Y013054D03*
X028800Y013274D03*
X029100Y013694D03*
X027520Y014414D03*
X025300Y014614D03*
X025300Y014094D03*
X030050Y015444D03*
X031020Y015834D03*
X029200Y016094D03*
X027180Y016474D03*
X024900Y016294D03*
X024400Y015734D03*
X030400Y014914D03*
X030960Y014834D03*
X034200Y014294D03*
X032320Y013234D03*
X031280Y012514D03*
X029760Y012274D03*
X029280Y011634D03*
X028900Y010974D03*
X026960Y011167D03*
X026440Y010814D03*
X028720Y010194D03*
X031200Y010754D03*
X033220Y010254D03*
X031520Y009394D03*
X031760Y008834D03*
X032640Y008514D03*
X033360Y008834D03*
X026080Y009554D03*
X023440Y009714D03*
X018880Y007474D03*
X024320Y006034D03*
X024720Y005314D03*
X010160Y009394D03*
X007680Y009154D03*
X006020Y008394D03*
X005840Y007554D03*
X007280Y007554D03*
X005680Y006914D03*
X001520Y009714D03*
X002340Y010634D03*
X002080Y011394D03*
X002240Y012514D03*
X003760Y013394D03*
X004700Y013594D03*
X007280Y013154D03*
X010400Y013394D03*
X011840Y013314D03*
X011680Y012594D03*
X010300Y011994D03*
X013360Y011874D03*
X013860Y011934D03*
X015220Y011614D03*
X013520Y011074D03*
X010400Y010994D03*
X009920Y010834D03*
X007460Y010394D03*
X007360Y011794D03*
X014980Y013134D03*
X015760Y012914D03*
X008660Y015094D03*
X007900Y015694D03*
X006900Y016014D03*
X004000Y015094D03*
X002320Y015154D03*
X002640Y016594D03*
X031840Y011554D03*
X033500Y016554D03*
M02*
