G75*
%MOIN*%
%OFA0B0*%
%FSLAX24Y24*%
%IPPOS*%
%LPD*%
%AMOC8*
5,1,8,0,0,1.08239X$1,22.5*
%
%ADD10C,0.0080*%
%ADD11C,0.0040*%
%ADD12R,0.0660X0.0380*%
%ADD13C,0.0060*%
D10*
X001600Y007787D02*
X001206Y008190D01*
X001994Y008190D01*
X001600Y007787D01*
X006694Y008808D02*
X006694Y012819D01*
D11*
X012130Y001315D02*
X012207Y001238D01*
X012514Y001238D01*
X012590Y001315D01*
X012590Y001469D01*
X012514Y001545D01*
X012207Y001545D01*
X012130Y001469D01*
X012130Y001315D01*
X012283Y001392D02*
X012130Y001545D01*
X012130Y001699D02*
X012437Y002006D01*
X012514Y002006D01*
X012590Y001929D01*
X012590Y001776D01*
X012514Y001699D01*
X012130Y001699D02*
X012130Y002006D01*
X012130Y002159D02*
X012590Y002159D01*
X012437Y002313D01*
X012590Y002466D01*
X012130Y002466D01*
X012130Y002620D02*
X012590Y002620D01*
X012437Y002773D01*
X012590Y002927D01*
X012130Y002927D01*
X012130Y003080D02*
X012130Y003310D01*
X012207Y003387D01*
X012283Y003387D01*
X012360Y003310D01*
X012360Y003080D01*
X012130Y003080D02*
X012590Y003080D01*
X012590Y003310D01*
X012514Y003387D01*
X012437Y003387D01*
X012360Y003310D01*
X012360Y003540D02*
X012360Y003694D01*
X012130Y003540D02*
X012590Y003540D01*
X012590Y003847D01*
X012437Y004001D02*
X012590Y004154D01*
X012130Y004154D01*
X012130Y004001D02*
X012130Y004308D01*
X012130Y004461D02*
X012207Y004461D01*
X012514Y004768D01*
X012590Y004768D01*
X012590Y004461D01*
X012663Y004401D02*
X012663Y004554D01*
X012740Y004631D01*
X012817Y004631D01*
X012970Y004554D01*
X012970Y004784D01*
X012663Y004784D01*
X012514Y004922D02*
X012590Y004998D01*
X012590Y005152D01*
X012514Y005228D01*
X012207Y004922D01*
X012130Y004998D01*
X012130Y005152D01*
X012207Y005228D01*
X012514Y005228D01*
X012360Y005382D02*
X012360Y005689D01*
X012207Y005842D02*
X012130Y005842D01*
X012207Y005842D02*
X012514Y006149D01*
X012590Y006149D01*
X012590Y005842D01*
X013490Y005864D02*
X013490Y006170D01*
X013490Y006017D02*
X013950Y006017D01*
X013797Y005864D01*
X013950Y005710D02*
X013950Y005403D01*
X013490Y005403D01*
X013720Y005403D02*
X013720Y005557D01*
X013720Y005250D02*
X013720Y004943D01*
X013874Y004789D02*
X013567Y004482D01*
X013490Y004482D01*
X013431Y004554D02*
X013277Y004554D01*
X013431Y004324D02*
X013431Y004784D01*
X013124Y004784D01*
X012514Y004922D02*
X012207Y004922D01*
X012663Y004401D02*
X012740Y004324D01*
X012894Y004324D01*
X012970Y004401D01*
X013584Y004554D02*
X013891Y004554D01*
X013950Y004482D02*
X013950Y004789D01*
X013874Y004789D01*
X014045Y004784D02*
X014045Y004708D01*
X014352Y004401D01*
X014352Y004324D01*
X014505Y004554D02*
X014812Y004554D01*
X014965Y004401D02*
X015042Y004324D01*
X015196Y004324D01*
X015272Y004401D01*
X014965Y004708D01*
X014965Y004401D01*
X015272Y004401D02*
X015272Y004708D01*
X015196Y004784D01*
X015042Y004784D01*
X014965Y004708D01*
X015426Y004708D02*
X015733Y004401D01*
X015733Y004324D01*
X015886Y004324D02*
X016193Y004324D01*
X016293Y004338D02*
X016600Y004031D01*
X016524Y003954D01*
X016370Y003954D01*
X016293Y004031D01*
X016293Y004338D01*
X016370Y004414D01*
X016524Y004414D01*
X016600Y004338D01*
X016600Y004031D01*
X016754Y003954D02*
X017061Y003954D01*
X016754Y004261D01*
X016754Y004338D01*
X016831Y004414D01*
X016984Y004414D01*
X017061Y004338D01*
X017114Y004324D02*
X016884Y004324D01*
X016807Y004401D01*
X016807Y004477D01*
X016884Y004554D01*
X017114Y004554D01*
X017147Y004754D02*
X017147Y005214D01*
X017301Y005061D01*
X017454Y005138D02*
X017531Y005214D01*
X017761Y005214D01*
X017761Y004754D01*
X017728Y004784D02*
X017881Y004631D01*
X018035Y004784D01*
X018035Y004324D01*
X018188Y004324D02*
X018495Y004324D01*
X018188Y004631D01*
X018188Y004708D01*
X018265Y004784D01*
X018418Y004784D01*
X018495Y004708D01*
X018649Y004708D02*
X018649Y004401D01*
X018725Y004324D01*
X018879Y004324D01*
X018956Y004401D01*
X018956Y004708D01*
X018879Y004784D01*
X018725Y004784D01*
X018649Y004708D01*
X018802Y004477D02*
X018649Y004324D01*
X017728Y004324D02*
X017728Y004784D01*
X017761Y004907D02*
X017531Y004907D01*
X017454Y004984D01*
X017454Y005138D01*
X017608Y004907D02*
X017454Y004754D01*
X017574Y004784D02*
X017421Y004631D01*
X017267Y004784D01*
X017267Y004324D01*
X017214Y004338D02*
X017214Y004184D01*
X017291Y004107D01*
X017521Y004107D01*
X017521Y003954D02*
X017521Y004414D01*
X017291Y004414D01*
X017214Y004338D01*
X017114Y004324D02*
X017114Y004784D01*
X016884Y004784D01*
X016807Y004708D01*
X016807Y004631D01*
X016884Y004554D01*
X016840Y004754D02*
X016533Y004754D01*
X016654Y004784D02*
X016347Y004784D01*
X016193Y004631D02*
X016040Y004784D01*
X016040Y004324D01*
X016500Y004554D02*
X016654Y004554D01*
X016687Y004754D02*
X016687Y005214D01*
X016840Y005061D01*
X016654Y004784D02*
X016654Y004324D01*
X016994Y004754D02*
X017301Y004754D01*
X017574Y004784D02*
X017574Y004324D01*
X017368Y004107D02*
X017214Y003954D01*
X015426Y004708D02*
X015426Y004784D01*
X015733Y004784D01*
X014352Y004784D02*
X014045Y004784D01*
X013720Y004329D02*
X013720Y004022D01*
X013567Y003868D02*
X013490Y003792D01*
X013490Y003638D01*
X013567Y003562D01*
X013874Y003868D01*
X013567Y003868D01*
X013874Y003868D02*
X013950Y003792D01*
X013950Y003638D01*
X013874Y003562D01*
X013567Y003562D01*
X013874Y003408D02*
X013567Y003101D01*
X013490Y003101D01*
X013490Y002948D02*
X013490Y002641D01*
X013490Y002794D02*
X013950Y002794D01*
X013797Y002641D01*
X013950Y002487D02*
X013950Y002180D01*
X013490Y002180D01*
X013567Y002027D02*
X013490Y001950D01*
X013490Y001720D01*
X013950Y001720D01*
X013950Y001950D01*
X013874Y002027D01*
X013797Y002027D01*
X013720Y001950D01*
X013720Y001720D01*
X013720Y001950D02*
X013643Y002027D01*
X013567Y002027D01*
X013720Y002180D02*
X013720Y002334D01*
X013950Y003101D02*
X013950Y003408D01*
X013874Y003408D01*
X013950Y001567D02*
X013490Y001567D01*
X013797Y001413D02*
X013950Y001567D01*
X013797Y001413D02*
X013950Y001260D01*
X013490Y001260D01*
X013490Y001106D02*
X013950Y001106D01*
X013797Y000953D01*
X013950Y000799D01*
X013490Y000799D01*
X013490Y000646D02*
X013490Y000339D01*
X013797Y000646D01*
X013874Y000646D01*
X013950Y000569D01*
X013950Y000416D01*
X013874Y000339D01*
X013874Y000185D02*
X013567Y000185D01*
X013490Y000109D01*
X013490Y-000045D01*
X013567Y-000122D01*
X013874Y-000122D01*
X013950Y-000045D01*
X013950Y000109D01*
X013874Y000185D01*
X013643Y000032D02*
X013490Y000185D01*
X020210Y002195D02*
X020210Y002349D01*
X020287Y002425D01*
X020594Y002425D01*
X020670Y002349D01*
X020670Y002195D01*
X020594Y002118D01*
X020287Y002118D01*
X020210Y002195D01*
X020363Y002272D02*
X020210Y002425D01*
X020210Y002579D02*
X020517Y002886D01*
X020594Y002886D01*
X020670Y002809D01*
X020670Y002656D01*
X020594Y002579D01*
X020210Y002579D02*
X020210Y002886D01*
X020210Y003039D02*
X020670Y003039D01*
X020517Y003193D01*
X020670Y003346D01*
X020210Y003346D01*
X020210Y003500D02*
X020670Y003500D01*
X020517Y003653D01*
X020670Y003807D01*
X020210Y003807D01*
X020210Y003960D02*
X020210Y004190D01*
X020287Y004267D01*
X020363Y004267D01*
X020440Y004190D01*
X020440Y003960D01*
X020210Y003960D02*
X020670Y003960D01*
X020670Y004190D01*
X020594Y004267D01*
X020517Y004267D01*
X020440Y004190D01*
X020440Y004420D02*
X020440Y004574D01*
X020210Y004420D02*
X020670Y004420D01*
X020670Y004727D01*
X020517Y004881D02*
X020670Y005034D01*
X020210Y005034D01*
X020210Y004881D02*
X020210Y005188D01*
X020210Y005341D02*
X020287Y005341D01*
X020594Y005648D01*
X020670Y005648D01*
X020670Y005341D01*
X020594Y005802D02*
X020287Y005802D01*
X020594Y006108D01*
X020287Y006108D01*
X020210Y006032D01*
X020210Y005878D01*
X020287Y005802D01*
X020594Y005802D02*
X020670Y005878D01*
X020670Y006032D01*
X020594Y006108D01*
X020440Y006262D02*
X020440Y006569D01*
X020287Y006722D02*
X020210Y006722D01*
X020287Y006722D02*
X020594Y007029D01*
X020670Y007029D01*
X020670Y006722D01*
X021238Y006644D02*
X021545Y006644D01*
X021238Y006951D01*
X021238Y007028D01*
X021315Y007104D01*
X021468Y007104D01*
X021545Y007028D01*
X021698Y007104D02*
X022005Y007104D01*
X022005Y006644D01*
X022005Y006874D02*
X021852Y006874D01*
X022159Y006874D02*
X022466Y006874D01*
X022619Y007028D02*
X022926Y006721D01*
X022926Y006644D01*
X023080Y006874D02*
X023386Y006874D01*
X023540Y006721D02*
X023617Y006644D01*
X023770Y006644D01*
X023847Y006721D01*
X023540Y007028D01*
X023540Y006721D01*
X023847Y006721D02*
X023847Y007028D01*
X023770Y007104D01*
X023617Y007104D01*
X023540Y007028D01*
X024000Y007028D02*
X024307Y006721D01*
X024307Y006644D01*
X024461Y006644D02*
X024768Y006644D01*
X024614Y006644D02*
X024614Y007104D01*
X024768Y006951D01*
X024921Y007104D02*
X025228Y007104D01*
X025228Y006644D01*
X025382Y006721D02*
X025458Y006644D01*
X025688Y006644D01*
X025688Y007104D01*
X025458Y007104D01*
X025382Y007028D01*
X025382Y006951D01*
X025458Y006874D01*
X025688Y006874D01*
X025458Y006874D02*
X025382Y006797D01*
X025382Y006721D01*
X025228Y006874D02*
X025075Y006874D01*
X024307Y007104D02*
X024000Y007104D01*
X024000Y007028D01*
X022926Y007104D02*
X022619Y007104D01*
X022619Y007028D01*
X020670Y007643D02*
X020670Y007950D01*
X020440Y007797D02*
X020440Y007643D01*
X020440Y007490D02*
X020440Y007183D01*
X020210Y007643D02*
X020670Y007643D01*
X020440Y008104D02*
X020440Y008334D01*
X020363Y008410D01*
X020287Y008410D01*
X020210Y008334D01*
X020210Y008180D01*
X020287Y008104D01*
X020440Y008104D01*
X020594Y008257D01*
X020670Y008410D01*
X018940Y007554D02*
X018710Y007554D01*
X018633Y007478D01*
X018633Y007324D01*
X018710Y007247D01*
X018940Y007247D01*
X018940Y007094D02*
X018940Y007554D01*
X018480Y007478D02*
X018403Y007554D01*
X018249Y007554D01*
X018173Y007478D01*
X018173Y007401D01*
X018480Y007094D01*
X018173Y007094D01*
X018019Y007094D02*
X017712Y007094D01*
X017866Y007094D02*
X017866Y007554D01*
X018019Y007401D01*
X018633Y007094D02*
X018787Y007247D01*
X018710Y006754D02*
X018633Y006678D01*
X018633Y006524D01*
X018710Y006447D01*
X018940Y006447D01*
X018940Y006294D02*
X018940Y006754D01*
X018710Y006754D01*
X018480Y006601D02*
X018326Y006754D01*
X018326Y006294D01*
X018173Y006294D02*
X018480Y006294D01*
X018633Y006294D02*
X018787Y006447D01*
X018019Y006447D02*
X018019Y006371D01*
X017942Y006294D01*
X017789Y006294D01*
X017712Y006371D01*
X017712Y006447D01*
X017789Y006524D01*
X017942Y006524D01*
X018019Y006601D01*
X018019Y006678D01*
X017942Y006754D01*
X017789Y006754D01*
X017712Y006678D01*
X017712Y006601D01*
X017789Y006524D01*
X017942Y006524D02*
X018019Y006447D01*
X018001Y006094D02*
X017771Y006094D01*
X017694Y006018D01*
X017694Y005864D01*
X017771Y005787D01*
X018001Y005787D01*
X018001Y005634D02*
X018001Y006094D01*
X018326Y006034D02*
X018326Y005574D01*
X018173Y005574D02*
X018480Y005574D01*
X018633Y005574D02*
X018787Y005727D01*
X018710Y005727D02*
X018940Y005727D01*
X018940Y005574D02*
X018940Y006034D01*
X018710Y006034D01*
X018633Y005958D01*
X018633Y005804D01*
X018710Y005727D01*
X018480Y005881D02*
X018326Y006034D01*
X017848Y005787D02*
X017694Y005634D01*
X017541Y005634D02*
X017234Y005634D01*
X017387Y005634D02*
X017387Y006094D01*
X017541Y005941D01*
X017080Y006018D02*
X017080Y005711D01*
X016773Y006018D01*
X016773Y005711D01*
X016850Y005634D01*
X017004Y005634D01*
X017080Y005711D01*
X017080Y006018D02*
X017004Y006094D01*
X016850Y006094D01*
X016773Y006018D01*
X015440Y006454D02*
X014980Y006454D01*
X015133Y006454D02*
X015133Y006684D01*
X015210Y006761D01*
X015364Y006761D01*
X015440Y006684D01*
X015440Y006454D01*
X015520Y006753D02*
X015980Y006753D01*
X015980Y006983D01*
X015904Y007060D01*
X015750Y007060D01*
X015673Y006983D01*
X015673Y006753D01*
X015673Y006906D02*
X015520Y007060D01*
X015440Y007068D02*
X014980Y007068D01*
X014980Y007221D02*
X014980Y006914D01*
X014980Y006761D02*
X015133Y006607D01*
X015287Y006914D02*
X015440Y007068D01*
X015520Y007213D02*
X015520Y007520D01*
X015520Y007367D02*
X015980Y007367D01*
X015827Y007213D01*
X015364Y007528D02*
X015210Y007375D01*
X015210Y007605D01*
X015133Y007682D01*
X015057Y007682D01*
X014980Y007605D01*
X014980Y007451D01*
X015057Y007375D01*
X015210Y007375D01*
X015364Y007528D02*
X015440Y007682D01*
X015520Y007674D02*
X015827Y007980D01*
X015904Y007980D01*
X015980Y007904D01*
X015980Y007750D01*
X015904Y007674D01*
X015520Y007674D02*
X015520Y007980D01*
X012590Y007454D02*
X012590Y007300D01*
X012514Y007224D01*
X012590Y007070D02*
X012590Y006763D01*
X012130Y006763D01*
X012360Y006763D02*
X012360Y006917D01*
X012360Y006610D02*
X012360Y006303D01*
X012207Y007224D02*
X012130Y007300D01*
X012130Y007454D01*
X012207Y007530D01*
X012283Y007530D01*
X012360Y007454D01*
X012360Y007377D01*
X012360Y007454D02*
X012437Y007530D01*
X012514Y007530D01*
X012590Y007454D01*
X010440Y008094D02*
X010440Y008554D01*
X010210Y008554D01*
X010133Y008478D01*
X010133Y008324D01*
X010210Y008247D01*
X010440Y008247D01*
X010287Y008247D02*
X010133Y008094D01*
X009980Y008094D02*
X009673Y008401D01*
X009673Y008478D01*
X009749Y008554D01*
X009903Y008554D01*
X009980Y008478D01*
X009980Y008094D02*
X009673Y008094D01*
X009484Y009804D02*
X009177Y009804D01*
X009100Y009881D01*
X009100Y010034D01*
X009177Y010111D01*
X009100Y010264D02*
X009100Y010571D01*
X009100Y010418D02*
X009560Y010418D01*
X009407Y010264D01*
X009484Y010111D02*
X009560Y010034D01*
X009560Y009881D01*
X009484Y009804D01*
X009800Y009881D02*
X009800Y010034D01*
X009877Y010111D01*
X009800Y010264D02*
X009800Y010571D01*
X009800Y010418D02*
X010260Y010418D01*
X010107Y010264D01*
X010184Y010111D02*
X010260Y010034D01*
X010260Y009881D01*
X010184Y009804D01*
X009877Y009804D01*
X009800Y009881D01*
X008960Y010499D02*
X008884Y010423D01*
X008577Y010423D01*
X008500Y010499D01*
X008500Y010653D01*
X008577Y010730D01*
X008500Y010883D02*
X008500Y011190D01*
X008500Y011037D02*
X008960Y011037D01*
X008807Y010883D01*
X008884Y010730D02*
X008960Y010653D01*
X008960Y010499D01*
X009100Y010725D02*
X009100Y011032D01*
X009100Y010878D02*
X009560Y010878D01*
X009407Y010725D01*
X009800Y010725D02*
X010107Y011032D01*
X010184Y011032D01*
X010260Y010955D01*
X010260Y010801D01*
X010184Y010725D01*
X009800Y010725D02*
X009800Y011032D01*
X008960Y011420D02*
X008960Y011574D01*
X008884Y011650D01*
X008577Y011344D01*
X008500Y011420D01*
X008500Y011574D01*
X008577Y011650D01*
X008884Y011650D01*
X008960Y011420D02*
X008884Y011344D01*
X008577Y011344D01*
X008260Y011420D02*
X008184Y011344D01*
X008107Y011344D01*
X008030Y011420D01*
X008030Y011650D01*
X007877Y011650D02*
X008184Y011650D01*
X008260Y011574D01*
X008260Y011420D01*
X007877Y011344D02*
X007800Y011420D01*
X007800Y011574D01*
X007877Y011650D01*
X007877Y011190D02*
X007800Y011113D01*
X007800Y010960D01*
X007877Y010883D01*
X008184Y010883D01*
X008260Y010960D01*
X008260Y011113D01*
X008184Y011190D01*
X013360Y012473D02*
X013820Y012473D01*
X013820Y012703D01*
X013744Y012780D01*
X013590Y012780D01*
X013513Y012703D01*
X013513Y012473D01*
X013513Y012627D02*
X013360Y012780D01*
X013437Y012934D02*
X013360Y013010D01*
X013360Y013164D01*
X013437Y013240D01*
X013744Y013240D01*
X013820Y013164D01*
X013820Y013010D01*
X013744Y012934D01*
X013667Y012934D01*
X013590Y013010D01*
X013590Y013240D01*
X007740Y013034D02*
X007587Y013034D01*
X007663Y013034D02*
X007663Y013494D01*
X007587Y013494D02*
X007740Y013494D01*
X007433Y013418D02*
X007433Y013111D01*
X007356Y013034D01*
X007203Y013034D01*
X007126Y013111D01*
X006973Y013034D02*
X006666Y013341D01*
X006666Y013418D01*
X006742Y013494D01*
X006896Y013494D01*
X006973Y013418D01*
X007126Y013418D02*
X007203Y013494D01*
X007356Y013494D01*
X007433Y013418D01*
X006973Y013034D02*
X006666Y013034D01*
X002350Y009004D02*
X002350Y007224D01*
X002470Y007284D02*
X002470Y007514D01*
X002547Y007591D01*
X002854Y007591D01*
X002930Y007514D01*
X002930Y007284D01*
X002470Y007284D01*
X000850Y007224D02*
X000850Y009004D01*
X002470Y008051D02*
X002470Y007744D01*
X002470Y007898D02*
X002930Y007898D01*
X002777Y007744D01*
X024050Y006334D02*
X024510Y006334D01*
X024280Y006104D01*
X024280Y006410D01*
X024510Y005950D02*
X024510Y005643D01*
X024050Y005643D01*
X024280Y005643D02*
X024280Y005797D01*
X024280Y005490D02*
X024280Y005183D01*
X024434Y005029D02*
X024127Y004722D01*
X024050Y004722D01*
X024280Y004569D02*
X024280Y004262D01*
X024127Y004108D02*
X024050Y004032D01*
X024050Y003878D01*
X024127Y003802D01*
X024434Y004108D01*
X024127Y004108D01*
X024434Y004108D02*
X024510Y004032D01*
X024510Y003878D01*
X024434Y003802D01*
X024127Y003802D01*
X024434Y003648D02*
X024127Y003341D01*
X024050Y003341D01*
X024050Y003188D02*
X024050Y002881D01*
X024050Y003034D02*
X024510Y003034D01*
X024357Y002881D01*
X024510Y002727D02*
X024510Y002420D01*
X024050Y002420D01*
X024127Y002267D02*
X024050Y002190D01*
X024050Y001960D01*
X024510Y001960D01*
X024510Y002190D01*
X024434Y002267D01*
X024357Y002267D01*
X024280Y002190D01*
X024280Y001960D01*
X024280Y002190D02*
X024203Y002267D01*
X024127Y002267D01*
X024280Y002420D02*
X024280Y002574D01*
X024510Y003341D02*
X024510Y003648D01*
X024434Y003648D01*
X026053Y003951D02*
X026053Y004258D01*
X026130Y004334D01*
X026284Y004334D01*
X026360Y004258D01*
X026360Y004181D01*
X026284Y004104D01*
X026053Y004104D01*
X026053Y003951D02*
X026130Y003874D01*
X026284Y003874D01*
X026360Y003951D01*
X026514Y003874D02*
X026821Y003874D01*
X026974Y003874D02*
X027128Y004027D01*
X027051Y004027D02*
X027281Y004027D01*
X027281Y003874D02*
X027281Y004334D01*
X027051Y004334D01*
X026974Y004258D01*
X026974Y004104D01*
X027051Y004027D01*
X026821Y004181D02*
X026667Y004334D01*
X026667Y003874D01*
X024510Y004722D02*
X024510Y005029D01*
X024434Y005029D01*
X026960Y005453D02*
X027420Y005453D01*
X027420Y005683D01*
X027344Y005760D01*
X027190Y005760D01*
X027113Y005683D01*
X027113Y005453D01*
X027113Y005607D02*
X026960Y005760D01*
X027037Y005914D02*
X026960Y005990D01*
X026960Y006144D01*
X027037Y006220D01*
X027113Y006220D01*
X027190Y006144D01*
X027190Y005914D01*
X027037Y005914D01*
X027190Y005914D02*
X027344Y006067D01*
X027420Y006220D01*
X027453Y006644D02*
X027530Y006721D01*
X027530Y007028D01*
X027453Y007104D01*
X027300Y007104D01*
X027223Y007028D01*
X027223Y006721D01*
X027300Y006644D01*
X027453Y006644D01*
X027377Y006797D02*
X027223Y006644D01*
X027070Y006644D02*
X026763Y006951D01*
X026763Y007028D01*
X026839Y007104D01*
X026993Y007104D01*
X027070Y007028D01*
X026609Y007104D02*
X026456Y006951D01*
X026302Y007104D01*
X026302Y006644D01*
X026149Y006644D02*
X026149Y007104D01*
X025995Y006951D01*
X025842Y007104D01*
X025842Y006644D01*
X026609Y006644D02*
X026609Y007104D01*
X026763Y006644D02*
X027070Y006644D01*
X029360Y006090D02*
X029360Y005784D01*
X029360Y005937D02*
X029820Y005937D01*
X029667Y005784D01*
X029744Y005630D02*
X029820Y005553D01*
X029820Y005400D01*
X029744Y005323D01*
X029437Y005323D01*
X029360Y005400D01*
X029360Y005553D01*
X029437Y005630D01*
X030923Y005638D02*
X030999Y005714D01*
X031153Y005714D01*
X031230Y005638D01*
X031383Y005638D02*
X031460Y005714D01*
X031613Y005714D01*
X031690Y005638D01*
X031690Y005331D01*
X031613Y005254D01*
X031460Y005254D01*
X031383Y005331D01*
X031230Y005254D02*
X030923Y005561D01*
X030923Y005638D01*
X030923Y005254D02*
X031230Y005254D01*
X032210Y005221D02*
X032670Y005221D01*
X032670Y005297D02*
X032670Y005144D01*
X032594Y005451D02*
X032287Y005451D01*
X032210Y005528D01*
X032210Y005681D01*
X032287Y005758D01*
X032210Y005911D02*
X032210Y006218D01*
X032210Y006065D02*
X032670Y006065D01*
X032517Y005911D01*
X032594Y005758D02*
X032670Y005681D01*
X032670Y005528D01*
X032594Y005451D01*
X032210Y005297D02*
X032210Y005144D01*
X024510Y001807D02*
X024050Y001807D01*
X024050Y001500D02*
X024510Y001500D01*
X024357Y001653D01*
X024510Y001807D01*
X024510Y001346D02*
X024050Y001346D01*
X024357Y001193D02*
X024510Y001346D01*
X024357Y001193D02*
X024510Y001039D01*
X024050Y001039D01*
X024050Y000886D02*
X024050Y000579D01*
X024357Y000886D01*
X024434Y000886D01*
X024510Y000809D01*
X024510Y000656D01*
X024434Y000579D01*
X024434Y000425D02*
X024127Y000425D01*
X024050Y000349D01*
X024050Y000195D01*
X024127Y000118D01*
X024434Y000118D01*
X024510Y000195D01*
X024510Y000349D01*
X024434Y000425D01*
X024203Y000272D02*
X024050Y000425D01*
D12*
X006990Y009814D03*
X006990Y010814D03*
X006990Y011814D03*
D13*
X031380Y006434D02*
X031700Y006434D01*
X031700Y006214D01*
X031700Y005534D02*
X031700Y005314D01*
X031380Y005314D01*
M02*
