G75*
%MOIN*%
%OFA0B0*%
%FSLAX24Y24*%
%IPPOS*%
%LPD*%
%AMOC8*
5,1,8,0,0,1.08239X$1,22.5*
%
%ADD10R,0.0240X0.0240*%
%ADD11R,0.0709X0.0630*%
%ADD12R,0.0512X0.0591*%
%ADD13R,0.0591X0.0512*%
%ADD14R,0.0512X0.0630*%
%ADD15R,0.4098X0.4252*%
%ADD16R,0.0850X0.0420*%
%ADD17C,0.0660*%
%ADD18C,0.0560*%
%ADD19R,0.0591X0.0591*%
%ADD20R,0.0630X0.0512*%
%ADD21C,0.0600*%
%ADD22C,0.0594*%
%ADD23R,0.0610X0.0512*%
%ADD24R,0.0118X0.0591*%
%ADD25R,0.2540X0.1000*%
%ADD26R,0.0630X0.0709*%
%ADD27R,0.0787X0.0630*%
%ADD28R,0.0551X0.0748*%
%ADD29R,0.0630X0.1181*%
%ADD30R,0.1181X0.0630*%
%ADD31R,0.0110X0.0410*%
%ADD32R,0.0787X0.0984*%
%ADD33R,0.0787X0.1299*%
%ADD34R,0.0197X0.1220*%
%ADD35R,0.0394X0.0551*%
%ADD36C,0.0560*%
%ADD37OC8,0.0560*%
%ADD38R,0.0276X0.0114*%
%ADD39R,0.0114X0.0276*%
%ADD40R,0.0394X0.0157*%
%ADD41R,0.0157X0.0394*%
%ADD42R,0.0390X0.0120*%
%ADD43C,0.0520*%
%ADD44C,0.0120*%
%ADD45C,0.0160*%
%ADD46C,0.0396*%
%ADD47C,0.0100*%
%ADD48C,0.0240*%
%ADD49C,0.0500*%
D10*
X021700Y013975D03*
X023380Y013895D03*
X023380Y015575D03*
X021620Y019415D03*
X023300Y021095D03*
D11*
X035660Y009406D03*
X036560Y009406D03*
X036560Y008304D03*
X035660Y008304D03*
D12*
X023635Y016335D03*
X022965Y016335D03*
X022835Y017695D03*
X022165Y017695D03*
X022165Y018495D03*
X022835Y018495D03*
X021235Y013695D03*
X020565Y013695D03*
X022245Y013215D03*
X022915Y013215D03*
X037685Y023195D03*
X038355Y023195D03*
X038165Y026835D03*
X038835Y026835D03*
X038875Y027615D03*
X038205Y027615D03*
X035095Y027995D03*
X034425Y027995D03*
X033095Y027815D03*
X032425Y027815D03*
D13*
X030200Y024510D03*
X030200Y023840D03*
X024980Y020030D03*
X024180Y020030D03*
X024180Y019360D03*
X024980Y019360D03*
X014560Y021160D03*
X014560Y021830D03*
X014560Y022540D03*
X014560Y023210D03*
X013820Y023210D03*
X013820Y022540D03*
X013820Y021830D03*
X013820Y021160D03*
D14*
X016786Y023015D03*
X017534Y023015D03*
X017234Y023855D03*
X016486Y023855D03*
X016986Y024695D03*
X017734Y024695D03*
X015834Y026595D03*
X015086Y026595D03*
X010194Y026995D03*
X009446Y026995D03*
X022226Y022815D03*
X022974Y022815D03*
X023506Y021915D03*
X024254Y021915D03*
X023886Y018495D03*
X024634Y018495D03*
X024634Y017695D03*
X023886Y017695D03*
X022154Y016335D03*
X021406Y016335D03*
X030526Y027815D03*
X031274Y027815D03*
D15*
X009700Y022115D03*
D16*
X012980Y022115D03*
X012980Y021115D03*
X012980Y023115D03*
D17*
X009220Y008925D02*
X009220Y008265D01*
X007720Y008265D02*
X007720Y008925D01*
X006220Y008925D02*
X006220Y008265D01*
D18*
X006180Y010195D02*
X006180Y010755D01*
X007180Y010755D02*
X007180Y010195D01*
X037840Y023935D02*
X037840Y024495D01*
X038840Y024495D02*
X038840Y023935D01*
D19*
X014260Y026066D03*
X014260Y027444D03*
X007529Y025115D03*
X006151Y025115D03*
D20*
X006180Y024229D03*
X006180Y023481D03*
X038180Y025221D03*
X038180Y025969D03*
D21*
X035400Y021095D02*
X035400Y020495D01*
X034400Y020495D02*
X034400Y021095D01*
X033400Y021095D02*
X033400Y020495D01*
X032400Y020495D02*
X032400Y021095D01*
X029860Y021495D02*
X029260Y021495D01*
X029260Y020495D02*
X029860Y020495D01*
X029860Y019495D02*
X029260Y019495D01*
X029260Y022495D02*
X029860Y022495D01*
X017160Y020215D02*
X016560Y020215D01*
X016560Y019215D02*
X017160Y019215D01*
X017160Y018215D02*
X016560Y018215D01*
X016560Y017215D02*
X017160Y017215D01*
X015200Y019735D02*
X015200Y020335D01*
X014200Y020335D02*
X014200Y019735D01*
X013200Y019735D02*
X013200Y020335D01*
D22*
X015346Y017704D03*
X015346Y013767D03*
X029734Y013867D03*
X029734Y017804D03*
D23*
X013465Y026149D03*
X013465Y027921D03*
X010335Y027921D03*
X009265Y027881D03*
X009265Y026109D03*
X010335Y026149D03*
X006135Y026109D03*
X006135Y027881D03*
D24*
X031573Y012135D03*
X031828Y012135D03*
X032084Y012135D03*
X032340Y012135D03*
X032596Y012135D03*
X032852Y012135D03*
X033108Y012135D03*
X033364Y012135D03*
X033620Y012135D03*
X033876Y012135D03*
X034132Y012135D03*
X034387Y012135D03*
X034387Y009576D03*
X034132Y009576D03*
X033876Y009576D03*
X033620Y009576D03*
X033364Y009576D03*
X033108Y009576D03*
X032852Y009576D03*
X032596Y009576D03*
X032340Y009576D03*
X032084Y009576D03*
X031828Y009576D03*
X031573Y009576D03*
D25*
X032980Y010855D03*
D26*
X032811Y008555D03*
X033689Y008575D03*
X034791Y008575D03*
X031709Y008555D03*
D27*
X037620Y008304D03*
X037620Y009406D03*
D28*
X037352Y026109D03*
X036408Y026109D03*
X036408Y027841D03*
X037352Y027841D03*
D29*
X029980Y010121D03*
X029980Y008389D03*
D30*
X014406Y024635D03*
X012674Y024635D03*
D31*
G36*
X031840Y024705D02*
X031763Y024628D01*
X031474Y024917D01*
X031551Y024994D01*
X031840Y024705D01*
G37*
G36*
X031974Y024839D02*
X031897Y024762D01*
X031608Y025051D01*
X031685Y025128D01*
X031974Y024839D01*
G37*
G36*
X032115Y024981D02*
X032038Y024904D01*
X031749Y025193D01*
X031826Y025270D01*
X032115Y024981D01*
G37*
G36*
X032257Y025122D02*
X032180Y025045D01*
X031891Y025334D01*
X031968Y025411D01*
X032257Y025122D01*
G37*
G36*
X032391Y025257D02*
X032314Y025180D01*
X032025Y025469D01*
X032102Y025546D01*
X032391Y025257D01*
G37*
G36*
X032533Y025398D02*
X032456Y025321D01*
X032167Y025610D01*
X032244Y025687D01*
X032533Y025398D01*
G37*
G36*
X032674Y025539D02*
X032597Y025462D01*
X032308Y025751D01*
X032385Y025828D01*
X032674Y025539D01*
G37*
G36*
X032815Y025681D02*
X032738Y025604D01*
X032449Y025893D01*
X032526Y025970D01*
X032815Y025681D01*
G37*
G36*
X032950Y025815D02*
X032873Y025738D01*
X032584Y026027D01*
X032661Y026104D01*
X032950Y025815D01*
G37*
G36*
X033091Y025957D02*
X033014Y025880D01*
X032725Y026169D01*
X032802Y026246D01*
X033091Y025957D01*
G37*
G36*
X033233Y026098D02*
X033156Y026021D01*
X032867Y026310D01*
X032944Y026387D01*
X033233Y026098D01*
G37*
G36*
X033367Y026232D02*
X033290Y026155D01*
X033001Y026444D01*
X033078Y026521D01*
X033367Y026232D01*
G37*
G36*
X034082Y026521D02*
X034159Y026444D01*
X033870Y026155D01*
X033793Y026232D01*
X034082Y026521D01*
G37*
G36*
X034216Y026387D02*
X034293Y026310D01*
X034004Y026021D01*
X033927Y026098D01*
X034216Y026387D01*
G37*
G36*
X034358Y026246D02*
X034435Y026169D01*
X034146Y025880D01*
X034069Y025957D01*
X034358Y026246D01*
G37*
G36*
X034499Y026104D02*
X034576Y026027D01*
X034287Y025738D01*
X034210Y025815D01*
X034499Y026104D01*
G37*
G36*
X034634Y025970D02*
X034711Y025893D01*
X034422Y025604D01*
X034345Y025681D01*
X034634Y025970D01*
G37*
G36*
X034775Y025828D02*
X034852Y025751D01*
X034563Y025462D01*
X034486Y025539D01*
X034775Y025828D01*
G37*
G36*
X034916Y025687D02*
X034993Y025610D01*
X034704Y025321D01*
X034627Y025398D01*
X034916Y025687D01*
G37*
G36*
X035058Y025546D02*
X035135Y025469D01*
X034846Y025180D01*
X034769Y025257D01*
X035058Y025546D01*
G37*
G36*
X035192Y025411D02*
X035269Y025334D01*
X034980Y025045D01*
X034903Y025122D01*
X035192Y025411D01*
G37*
G36*
X035334Y025270D02*
X035411Y025193D01*
X035122Y024904D01*
X035045Y024981D01*
X035334Y025270D01*
G37*
G36*
X035475Y025128D02*
X035552Y025051D01*
X035263Y024762D01*
X035186Y024839D01*
X035475Y025128D01*
G37*
G36*
X035609Y024994D02*
X035686Y024917D01*
X035397Y024628D01*
X035320Y024705D01*
X035609Y024994D01*
G37*
G36*
X035686Y023913D02*
X035609Y023836D01*
X035320Y024125D01*
X035397Y024202D01*
X035686Y023913D01*
G37*
G36*
X035552Y023779D02*
X035475Y023702D01*
X035186Y023991D01*
X035263Y024068D01*
X035552Y023779D01*
G37*
G36*
X035411Y023637D02*
X035334Y023560D01*
X035045Y023849D01*
X035122Y023926D01*
X035411Y023637D01*
G37*
G36*
X035269Y023496D02*
X035192Y023419D01*
X034903Y023708D01*
X034980Y023785D01*
X035269Y023496D01*
G37*
G36*
X035135Y023362D02*
X035058Y023285D01*
X034769Y023574D01*
X034846Y023651D01*
X035135Y023362D01*
G37*
G36*
X034993Y023220D02*
X034916Y023143D01*
X034627Y023432D01*
X034704Y023509D01*
X034993Y023220D01*
G37*
G36*
X034852Y023079D02*
X034775Y023002D01*
X034486Y023291D01*
X034563Y023368D01*
X034852Y023079D01*
G37*
G36*
X034711Y022937D02*
X034634Y022860D01*
X034345Y023149D01*
X034422Y023226D01*
X034711Y022937D01*
G37*
G36*
X034576Y022803D02*
X034499Y022726D01*
X034210Y023015D01*
X034287Y023092D01*
X034576Y022803D01*
G37*
G36*
X034435Y022662D02*
X034358Y022585D01*
X034069Y022874D01*
X034146Y022951D01*
X034435Y022662D01*
G37*
G36*
X034293Y022520D02*
X034216Y022443D01*
X033927Y022732D01*
X034004Y022809D01*
X034293Y022520D01*
G37*
G36*
X034159Y022386D02*
X034082Y022309D01*
X033793Y022598D01*
X033870Y022675D01*
X034159Y022386D01*
G37*
G36*
X033290Y022675D02*
X033367Y022598D01*
X033078Y022309D01*
X033001Y022386D01*
X033290Y022675D01*
G37*
G36*
X033156Y022809D02*
X033233Y022732D01*
X032944Y022443D01*
X032867Y022520D01*
X033156Y022809D01*
G37*
G36*
X033014Y022951D02*
X033091Y022874D01*
X032802Y022585D01*
X032725Y022662D01*
X033014Y022951D01*
G37*
G36*
X032873Y023092D02*
X032950Y023015D01*
X032661Y022726D01*
X032584Y022803D01*
X032873Y023092D01*
G37*
G36*
X032738Y023226D02*
X032815Y023149D01*
X032526Y022860D01*
X032449Y022937D01*
X032738Y023226D01*
G37*
G36*
X032597Y023368D02*
X032674Y023291D01*
X032385Y023002D01*
X032308Y023079D01*
X032597Y023368D01*
G37*
G36*
X032456Y023509D02*
X032533Y023432D01*
X032244Y023143D01*
X032167Y023220D01*
X032456Y023509D01*
G37*
G36*
X032314Y023651D02*
X032391Y023574D01*
X032102Y023285D01*
X032025Y023362D01*
X032314Y023651D01*
G37*
G36*
X032180Y023785D02*
X032257Y023708D01*
X031968Y023419D01*
X031891Y023496D01*
X032180Y023785D01*
G37*
G36*
X032038Y023926D02*
X032115Y023849D01*
X031826Y023560D01*
X031749Y023637D01*
X032038Y023926D01*
G37*
G36*
X031897Y024068D02*
X031974Y023991D01*
X031685Y023702D01*
X031608Y023779D01*
X031897Y024068D01*
G37*
G36*
X031763Y024202D02*
X031840Y024125D01*
X031551Y023836D01*
X031474Y023913D01*
X031763Y024202D01*
G37*
D32*
X014252Y008834D03*
X010748Y008834D03*
D33*
X010748Y011157D03*
X014252Y011157D03*
D34*
X013130Y011196D03*
X012815Y011196D03*
X012500Y011196D03*
X012185Y011196D03*
X011870Y011196D03*
D35*
X015880Y024962D03*
X015506Y025828D03*
X016254Y025828D03*
D36*
X019600Y027435D03*
D37*
X020600Y027435D03*
X020600Y026435D03*
X019600Y026435D03*
X021600Y026435D03*
X022600Y026435D03*
X023600Y026435D03*
X024600Y026435D03*
X025600Y026435D03*
X025600Y027435D03*
X024600Y027435D03*
X023600Y027435D03*
X022600Y027435D03*
X021600Y027435D03*
D38*
X021762Y020747D03*
X021762Y020550D03*
X021762Y020354D03*
X021762Y020157D03*
X021762Y019960D03*
X021762Y019763D03*
X023238Y019763D03*
X023238Y019960D03*
X023238Y020157D03*
X023238Y020354D03*
X023238Y020550D03*
X023238Y020747D03*
D39*
X022992Y020993D03*
X022795Y020993D03*
X022598Y020993D03*
X022402Y020993D03*
X022205Y020993D03*
X022008Y020993D03*
X022008Y019517D03*
X022205Y019517D03*
X022402Y019517D03*
X022598Y019517D03*
X022795Y019517D03*
X022992Y019517D03*
D40*
X023228Y015119D03*
X023228Y014863D03*
X023228Y014607D03*
X023228Y014351D03*
X021772Y014351D03*
X021772Y014607D03*
X021772Y014863D03*
X021772Y015119D03*
D41*
X022116Y015463D03*
X022372Y015463D03*
X022628Y015463D03*
X022884Y015463D03*
X022884Y014007D03*
X022628Y014007D03*
X022372Y014007D03*
X022116Y014007D03*
D42*
X019969Y014384D03*
X019969Y014639D03*
X019969Y014895D03*
X019969Y015151D03*
X019969Y015407D03*
X019969Y015663D03*
X019969Y015919D03*
X019969Y016175D03*
X019969Y016431D03*
X019969Y016687D03*
X017671Y016687D03*
X017671Y016431D03*
X017671Y016175D03*
X017671Y015919D03*
X017671Y015663D03*
X017671Y015407D03*
X017671Y015151D03*
X017671Y014895D03*
X017671Y014639D03*
X017671Y014384D03*
D43*
X017580Y021035D02*
X017580Y021555D01*
X018580Y021555D02*
X018580Y021035D01*
X019580Y021035D02*
X019580Y021555D01*
X020580Y021555D02*
X020580Y021035D01*
X016580Y021035D02*
X016580Y021555D01*
D44*
X016100Y022975D02*
X016180Y023055D01*
X016746Y023055D01*
X016786Y023015D01*
X017534Y023015D02*
X017574Y022975D01*
X018180Y022975D01*
X016486Y023855D02*
X015940Y023855D01*
X015860Y023775D01*
X015860Y019535D01*
X015540Y019215D01*
X015460Y019215D01*
X012180Y015935D01*
X012180Y013615D01*
X012185Y013610D01*
X012185Y011196D01*
X012500Y011196D02*
X012500Y013215D01*
X012660Y013375D01*
X012660Y015215D01*
X012660Y016015D01*
X015620Y018975D01*
X015860Y018975D01*
X016100Y019215D01*
X016100Y022975D01*
X014406Y024635D02*
X014266Y024495D01*
X014260Y024495D01*
X014160Y024595D01*
X013439Y027895D02*
X013465Y027921D01*
X009265Y027881D02*
X006135Y027881D01*
X006151Y025115D02*
X006180Y025086D01*
X006180Y024229D01*
X019940Y017935D02*
X020820Y017935D01*
X021540Y017215D01*
X021300Y016815D02*
X022980Y016815D01*
X023300Y017135D01*
X023886Y017695D02*
X023886Y018495D01*
X023700Y018681D01*
X022835Y018495D02*
X022740Y018590D01*
X022740Y018895D01*
X022660Y018975D01*
X022420Y018975D01*
X022402Y018994D01*
X022402Y019517D01*
X022205Y019517D02*
X022205Y018534D01*
X022165Y018495D01*
X021540Y018975D02*
X021540Y017775D01*
X021620Y017695D01*
X022165Y017695D01*
X021300Y016815D02*
X021060Y017055D01*
X020740Y017055D01*
X021406Y016335D02*
X021060Y015989D01*
X021060Y015135D01*
X020565Y014640D01*
X020565Y013695D01*
X021235Y013695D02*
X021692Y013695D01*
X021772Y013775D01*
X021772Y014351D01*
X021772Y014607D02*
X021252Y014607D01*
X021060Y014415D01*
X021412Y014863D02*
X021300Y014975D01*
X021300Y015375D01*
X021540Y015615D01*
X022116Y015463D02*
X022372Y015463D01*
X022116Y015463D02*
X022116Y015135D01*
X022100Y015119D01*
X021772Y015119D01*
X021772Y014863D02*
X021412Y014863D01*
X022116Y015135D02*
X022116Y014007D01*
X022100Y013991D01*
X022100Y013615D01*
X022245Y013470D01*
X022245Y013215D01*
X022884Y013246D02*
X022884Y014007D01*
X022892Y014015D01*
X023140Y014015D01*
X023228Y014103D01*
X023228Y014351D01*
X023228Y014607D01*
X023228Y014863D01*
X023228Y015119D01*
X023220Y015127D01*
X023220Y015375D01*
X023132Y015463D01*
X023635Y015966D01*
X023635Y016335D01*
X022965Y016335D02*
X022154Y016335D01*
X022628Y015998D02*
X022965Y016335D01*
X022628Y015998D02*
X022628Y015463D01*
X022884Y015463D02*
X023132Y015463D01*
X022884Y013246D02*
X022915Y013215D01*
X022900Y013200D01*
X022900Y012975D01*
X022900Y012815D02*
X022820Y012735D01*
X021540Y018975D02*
X022008Y019443D01*
X022008Y019517D01*
X021762Y019763D02*
X021762Y019960D01*
X021762Y020157D01*
X021762Y020354D01*
X021762Y020550D01*
X021817Y020495D01*
X022100Y020495D01*
X022205Y020600D01*
X022205Y020993D01*
X022402Y020993D01*
X022795Y020993D02*
X022992Y020993D01*
X023238Y020747D01*
X023238Y020550D01*
X023238Y020354D01*
X023238Y020157D01*
X024133Y020157D01*
X024180Y020030D01*
X022900Y021695D02*
X022598Y021695D01*
X022412Y021775D02*
X022332Y021695D01*
X021300Y021695D01*
X014420Y013055D02*
X014420Y012415D01*
X014980Y011855D01*
X032220Y010815D02*
X032260Y010855D01*
X032500Y010855D01*
X032660Y010855D01*
X033140Y010695D02*
X033220Y010775D01*
X033364Y010919D02*
X033428Y010855D01*
X033460Y010855D01*
X033620Y010855D01*
X033620Y010855D01*
X033700Y010855D01*
X034132Y011287D01*
X033620Y010615D02*
X033620Y009576D01*
X033876Y009576D02*
X034132Y009576D01*
X034387Y009576D01*
X033108Y009576D02*
X033108Y008752D01*
X032811Y008555D01*
X032852Y008496D01*
X032852Y009576D01*
X034820Y011975D02*
X034660Y012135D01*
X034387Y012135D01*
X033620Y012135D02*
X033620Y012935D01*
X033108Y013207D02*
X033108Y012135D01*
X032852Y012135D02*
X032852Y012823D01*
X032340Y012855D02*
X032340Y012135D01*
D45*
X006652Y007976D02*
X006601Y007925D01*
X007339Y007925D01*
X007288Y007976D01*
X007210Y008164D01*
X007210Y009027D01*
X007288Y009214D01*
X007431Y009357D01*
X007619Y009435D01*
X007821Y009435D01*
X008009Y009357D01*
X008152Y009214D01*
X008230Y009027D01*
X008230Y008164D01*
X008152Y007976D01*
X008101Y007925D01*
X008839Y007925D01*
X008788Y007976D01*
X008710Y008164D01*
X008710Y009027D01*
X008788Y009214D01*
X008931Y009357D01*
X009119Y009435D01*
X009190Y009435D01*
X009190Y010640D01*
X009141Y010521D01*
X009034Y010415D01*
X008895Y010357D01*
X008745Y010357D01*
X008606Y010415D01*
X008585Y010435D01*
X008280Y010435D01*
X008170Y010481D01*
X007656Y010995D01*
X007574Y010995D01*
X007606Y010932D01*
X007629Y010863D01*
X007640Y010791D01*
X007640Y010485D01*
X007190Y010485D01*
X007190Y010465D01*
X007190Y009735D01*
X007216Y009735D01*
X007288Y009746D01*
X007357Y009769D01*
X007421Y009802D01*
X007480Y009844D01*
X007531Y009895D01*
X007573Y009954D01*
X007606Y010019D01*
X007629Y010087D01*
X007640Y010159D01*
X007640Y010465D01*
X007190Y010465D01*
X007170Y010465D01*
X007170Y009735D01*
X007144Y009735D01*
X007072Y009746D01*
X007003Y009769D01*
X006939Y009802D01*
X006880Y009844D01*
X006829Y009895D01*
X006787Y009954D01*
X006754Y010019D01*
X006731Y010087D01*
X006720Y010159D01*
X006720Y010465D01*
X007170Y010465D01*
X007170Y010485D01*
X006720Y010485D01*
X006720Y010791D01*
X006731Y010863D01*
X006754Y010932D01*
X006786Y010995D01*
X006578Y010995D01*
X006640Y010847D01*
X006640Y010104D01*
X006570Y009935D01*
X006441Y009805D01*
X006271Y009735D01*
X006088Y009735D01*
X005990Y009776D01*
X005990Y009382D01*
X006119Y009435D01*
X006321Y009435D01*
X006509Y009357D01*
X006652Y009214D01*
X006730Y009027D01*
X006730Y008164D01*
X006652Y007976D01*
X006664Y008005D02*
X007276Y008005D01*
X007210Y008163D02*
X006730Y008163D01*
X006730Y008322D02*
X007210Y008322D01*
X007210Y008480D02*
X006730Y008480D01*
X006730Y008639D02*
X007210Y008639D01*
X007210Y008797D02*
X006730Y008797D01*
X006730Y008956D02*
X007210Y008956D01*
X007246Y009114D02*
X006694Y009114D01*
X006594Y009273D02*
X007346Y009273D01*
X007609Y009431D02*
X006331Y009431D01*
X006109Y009431D02*
X005990Y009431D01*
X005990Y009590D02*
X009190Y009590D01*
X009190Y009748D02*
X007293Y009748D01*
X007190Y009748D02*
X007170Y009748D01*
X007067Y009748D02*
X006303Y009748D01*
X006057Y009748D02*
X005990Y009748D01*
X006542Y009907D02*
X006821Y009907D01*
X006739Y010065D02*
X006624Y010065D01*
X006640Y010224D02*
X006720Y010224D01*
X006720Y010382D02*
X006640Y010382D01*
X006640Y010541D02*
X006720Y010541D01*
X006720Y010699D02*
X006640Y010699D01*
X006635Y010858D02*
X006731Y010858D01*
X007170Y010382D02*
X007190Y010382D01*
X007190Y010224D02*
X007170Y010224D01*
X007170Y010065D02*
X007190Y010065D01*
X007190Y009907D02*
X007170Y009907D01*
X007539Y009907D02*
X009190Y009907D01*
X009190Y010065D02*
X007621Y010065D01*
X007640Y010224D02*
X009190Y010224D01*
X009190Y010382D02*
X008956Y010382D01*
X009149Y010541D02*
X009190Y010541D01*
X009190Y010830D02*
X009141Y010949D01*
X009034Y011056D01*
X008895Y011113D01*
X008745Y011113D01*
X008606Y011056D01*
X008585Y011035D01*
X008464Y011035D01*
X008034Y011465D01*
X008021Y011479D01*
X008101Y011559D01*
X008236Y011794D01*
X008307Y012056D01*
X008307Y012328D01*
X008236Y012590D01*
X008101Y012825D01*
X007909Y013017D01*
X007673Y013153D01*
X007411Y013223D01*
X007140Y013223D01*
X006877Y013153D01*
X006642Y013017D01*
X006450Y012825D01*
X006315Y012590D01*
X006244Y012328D01*
X006244Y012056D01*
X006315Y011794D01*
X006429Y011595D01*
X006200Y011595D01*
X006090Y011549D01*
X005990Y011449D01*
X005990Y023045D01*
X006290Y023045D01*
X006314Y023035D01*
X006705Y023035D01*
X006766Y022975D01*
X006905Y022917D01*
X007055Y022917D01*
X007194Y022975D01*
X007301Y023081D01*
X007358Y023220D01*
X007358Y023370D01*
X007301Y023509D01*
X007194Y023616D01*
X007055Y023673D01*
X006905Y023673D01*
X006766Y023616D01*
X006705Y023555D01*
X006675Y023555D01*
X006675Y023812D01*
X006631Y023855D01*
X006675Y023899D01*
X006675Y024560D01*
X006570Y024665D01*
X006546Y024665D01*
X006626Y024745D01*
X006626Y025485D01*
X006521Y025590D01*
X005990Y025590D01*
X005990Y025673D01*
X006087Y025673D01*
X006087Y026061D01*
X006183Y026061D01*
X006183Y025673D01*
X006464Y025673D01*
X006510Y025686D01*
X006551Y025709D01*
X006584Y025743D01*
X006608Y025784D01*
X006620Y025830D01*
X006620Y026061D01*
X006183Y026061D01*
X006183Y026157D01*
X006620Y026157D01*
X006620Y026389D01*
X006608Y026435D01*
X006584Y026476D01*
X006551Y026509D01*
X006510Y026533D01*
X006464Y026545D01*
X006183Y026545D01*
X006183Y026157D01*
X006087Y026157D01*
X006087Y026545D01*
X005990Y026545D01*
X005990Y027445D01*
X006515Y027445D01*
X006620Y027550D01*
X006620Y027641D01*
X008780Y027641D01*
X008780Y027550D01*
X008885Y027445D01*
X009070Y027445D01*
X009010Y027385D01*
X009010Y027225D01*
X008965Y027225D01*
X008874Y027316D01*
X008735Y027373D01*
X008585Y027373D01*
X008446Y027316D01*
X008339Y027209D01*
X008282Y027070D01*
X008282Y026920D01*
X008339Y026781D01*
X008446Y026675D01*
X008585Y026617D01*
X008735Y026617D01*
X008874Y026675D01*
X008965Y026765D01*
X009010Y026765D01*
X009010Y026606D01*
X009070Y026545D01*
X008936Y026545D01*
X008890Y026533D01*
X008849Y026509D01*
X008816Y026476D01*
X008792Y026435D01*
X008780Y026389D01*
X008780Y026157D01*
X009217Y026157D01*
X009217Y026061D01*
X008780Y026061D01*
X008780Y025830D01*
X008792Y025784D01*
X008816Y025743D01*
X008849Y025709D01*
X008890Y025686D01*
X008936Y025673D01*
X009025Y025673D01*
X008982Y025570D01*
X008982Y025420D01*
X009039Y025281D01*
X008004Y025281D01*
X008004Y025183D02*
X008004Y025434D01*
X007992Y025480D01*
X007968Y025521D01*
X007935Y025554D01*
X007894Y025578D01*
X007848Y025590D01*
X007597Y025590D01*
X007597Y025183D01*
X008004Y025183D01*
X008004Y025047D02*
X007597Y025047D01*
X007597Y024640D01*
X007848Y024640D01*
X007894Y024652D01*
X007935Y024676D01*
X007968Y024709D01*
X007992Y024750D01*
X008004Y024796D01*
X008004Y025047D01*
X008004Y024964D02*
X011903Y024964D01*
X011903Y024974D02*
X011903Y024713D01*
X012596Y024713D01*
X012596Y025130D01*
X012060Y025130D01*
X012014Y025118D01*
X011973Y025094D01*
X011939Y025061D01*
X011916Y025020D01*
X011903Y024974D01*
X011903Y024806D02*
X008004Y024806D01*
X007875Y024647D02*
X012596Y024647D01*
X012596Y024713D02*
X012596Y024558D01*
X011903Y024558D01*
X011903Y024342D01*
X011824Y024421D01*
X007576Y024421D01*
X007471Y024316D01*
X007471Y020294D01*
X007411Y020310D01*
X007140Y020310D01*
X006877Y020239D01*
X006642Y020104D01*
X006450Y019912D01*
X006315Y019676D01*
X006244Y019414D01*
X006244Y019143D01*
X006315Y018880D01*
X006450Y018645D01*
X006642Y018453D01*
X006877Y018317D01*
X007140Y018247D01*
X007411Y018247D01*
X007673Y018317D01*
X007909Y018453D01*
X008101Y018645D01*
X008236Y018880D01*
X008307Y019143D01*
X008307Y019414D01*
X008236Y019676D01*
X008160Y019809D01*
X011824Y019809D01*
X011929Y019915D01*
X011929Y024227D01*
X011939Y024210D01*
X011973Y024176D01*
X012014Y024152D01*
X012060Y024140D01*
X012596Y024140D01*
X012596Y024558D01*
X012751Y024558D01*
X012751Y024713D01*
X012596Y024713D01*
X012596Y024806D02*
X012751Y024806D01*
X012751Y024713D02*
X012751Y025130D01*
X013288Y025130D01*
X013334Y025118D01*
X013375Y025094D01*
X013408Y025061D01*
X013432Y025020D01*
X013444Y024974D01*
X013444Y024713D01*
X012751Y024713D01*
X012751Y024647D02*
X013636Y024647D01*
X013636Y024489D02*
X013444Y024489D01*
X013444Y024558D02*
X012751Y024558D01*
X012751Y024140D01*
X013288Y024140D01*
X013334Y024152D01*
X013375Y024176D01*
X013408Y024210D01*
X013432Y024251D01*
X013444Y024296D01*
X013444Y024558D01*
X013444Y024330D02*
X013636Y024330D01*
X013636Y024246D02*
X013741Y024140D01*
X013976Y024140D01*
X013976Y023646D01*
X013450Y023646D01*
X013430Y023625D01*
X013074Y023625D01*
X012916Y023560D01*
X012902Y023545D01*
X012894Y023545D01*
X012798Y023505D01*
X012480Y023505D01*
X012375Y023400D01*
X012375Y022831D01*
X012480Y022725D01*
X012798Y022725D01*
X012894Y022685D01*
X013166Y022685D01*
X013262Y022725D01*
X013345Y022725D01*
X013345Y022588D01*
X013772Y022588D01*
X013772Y022492D01*
X013868Y022492D01*
X013868Y022105D01*
X013868Y021878D01*
X013772Y021878D01*
X013772Y022492D01*
X013475Y022492D01*
X013474Y022493D01*
X013429Y022505D01*
X013005Y022505D01*
X013005Y022140D01*
X013353Y022140D01*
X013345Y022109D01*
X013345Y022090D01*
X013005Y022090D01*
X013005Y021725D01*
X013345Y021725D01*
X013345Y021550D01*
X013346Y021545D01*
X012894Y021545D01*
X012798Y021505D01*
X012480Y021505D01*
X012375Y021400D01*
X012375Y020831D01*
X012480Y020725D01*
X012798Y020725D01*
X012878Y020692D01*
X012834Y020648D01*
X012789Y020587D01*
X012755Y020519D01*
X012732Y020447D01*
X012720Y020373D01*
X012720Y020055D01*
X013180Y020055D01*
X013180Y020015D01*
X013220Y020015D01*
X013220Y019255D01*
X013238Y019255D01*
X013312Y019267D01*
X013384Y019290D01*
X013452Y019325D01*
X013513Y019369D01*
X013566Y019422D01*
X013611Y019484D01*
X013645Y019551D01*
X013668Y019623D01*
X013680Y019697D01*
X013680Y020015D01*
X013220Y020015D01*
X013220Y020055D01*
X013680Y020055D01*
X013680Y020373D01*
X013668Y020447D01*
X013645Y020519D01*
X013611Y020587D01*
X013566Y020648D01*
X013529Y020685D01*
X013770Y020685D01*
X013770Y020551D01*
X013720Y020431D01*
X013720Y019640D01*
X013750Y019567D01*
X013750Y019245D01*
X010094Y019245D01*
X009936Y019180D01*
X009815Y019059D01*
X009815Y019059D01*
X009376Y018620D01*
X009255Y018499D01*
X009190Y018341D01*
X009190Y010830D01*
X009190Y010858D02*
X009179Y010858D01*
X009190Y011016D02*
X009074Y011016D01*
X009190Y011175D02*
X008325Y011175D01*
X008166Y011333D02*
X009190Y011333D01*
X009190Y011492D02*
X008034Y011492D01*
X008153Y011650D02*
X009190Y011650D01*
X009190Y011809D02*
X008240Y011809D01*
X008283Y011967D02*
X009190Y011967D01*
X009190Y012126D02*
X008307Y012126D01*
X008307Y012284D02*
X009190Y012284D01*
X009190Y012443D02*
X008276Y012443D01*
X008230Y012601D02*
X009190Y012601D01*
X009190Y012760D02*
X008138Y012760D01*
X008007Y012918D02*
X009190Y012918D01*
X009190Y013077D02*
X007805Y013077D01*
X006746Y013077D02*
X005990Y013077D01*
X005990Y013235D02*
X009190Y013235D01*
X009190Y013394D02*
X005990Y013394D01*
X005990Y013552D02*
X009190Y013552D01*
X009190Y013711D02*
X005990Y013711D01*
X005990Y013869D02*
X009190Y013869D01*
X009190Y014028D02*
X005990Y014028D01*
X005990Y014186D02*
X009190Y014186D01*
X009190Y014345D02*
X005990Y014345D01*
X005990Y014503D02*
X009190Y014503D01*
X009190Y014662D02*
X005990Y014662D01*
X005990Y014820D02*
X009190Y014820D01*
X009190Y014979D02*
X005990Y014979D01*
X005990Y015137D02*
X009190Y015137D01*
X009190Y015296D02*
X005990Y015296D01*
X005990Y015454D02*
X009190Y015454D01*
X009190Y015613D02*
X005990Y015613D01*
X005990Y015771D02*
X009190Y015771D01*
X009190Y015930D02*
X005990Y015930D01*
X005990Y016088D02*
X009190Y016088D01*
X009190Y016247D02*
X005990Y016247D01*
X005990Y016405D02*
X009190Y016405D01*
X009190Y016564D02*
X005990Y016564D01*
X005990Y016722D02*
X009190Y016722D01*
X009190Y016881D02*
X005990Y016881D01*
X005990Y017039D02*
X009190Y017039D01*
X009190Y017198D02*
X005990Y017198D01*
X005990Y017356D02*
X009190Y017356D01*
X009190Y017515D02*
X005990Y017515D01*
X005990Y017673D02*
X009190Y017673D01*
X009190Y017832D02*
X005990Y017832D01*
X005990Y017990D02*
X009190Y017990D01*
X009190Y018149D02*
X005990Y018149D01*
X005990Y018307D02*
X006916Y018307D01*
X006630Y018466D02*
X005990Y018466D01*
X005990Y018624D02*
X006471Y018624D01*
X006371Y018783D02*
X005990Y018783D01*
X005990Y018941D02*
X006298Y018941D01*
X006256Y019100D02*
X005990Y019100D01*
X005990Y019258D02*
X006244Y019258D01*
X006245Y019417D02*
X005990Y019417D01*
X005990Y019575D02*
X006287Y019575D01*
X006348Y019734D02*
X005990Y019734D01*
X005990Y019892D02*
X006439Y019892D01*
X006589Y020051D02*
X005990Y020051D01*
X005990Y020209D02*
X006825Y020209D01*
X007471Y020368D02*
X005990Y020368D01*
X005990Y020526D02*
X007471Y020526D01*
X007471Y020685D02*
X005990Y020685D01*
X005990Y020843D02*
X007471Y020843D01*
X007471Y021002D02*
X005990Y021002D01*
X005990Y021160D02*
X007471Y021160D01*
X007471Y021319D02*
X005990Y021319D01*
X005990Y021477D02*
X007471Y021477D01*
X007471Y021636D02*
X005990Y021636D01*
X005990Y021794D02*
X007471Y021794D01*
X007471Y021953D02*
X005990Y021953D01*
X005990Y022111D02*
X007471Y022111D01*
X007471Y022270D02*
X005990Y022270D01*
X005990Y022428D02*
X007471Y022428D01*
X007471Y022587D02*
X005990Y022587D01*
X005990Y022745D02*
X007471Y022745D01*
X007471Y022904D02*
X005990Y022904D01*
X006366Y023295D02*
X006180Y023481D01*
X006366Y023295D02*
X006980Y023295D01*
X007272Y023538D02*
X007471Y023538D01*
X007471Y023696D02*
X006675Y023696D01*
X006632Y023855D02*
X007471Y023855D01*
X007471Y024013D02*
X006675Y024013D01*
X006675Y024172D02*
X007471Y024172D01*
X007485Y024330D02*
X006675Y024330D01*
X006675Y024489D02*
X011903Y024489D01*
X011929Y024172D02*
X011981Y024172D01*
X011929Y024013D02*
X013976Y024013D01*
X013976Y023855D02*
X011929Y023855D01*
X011929Y023696D02*
X013976Y023696D01*
X013710Y024172D02*
X013367Y024172D01*
X013636Y024246D02*
X013636Y025025D01*
X013741Y025130D01*
X013957Y025130D01*
X013852Y025235D01*
X009635Y025235D01*
X009574Y025175D01*
X009435Y025117D01*
X009285Y025117D01*
X009146Y025175D01*
X009039Y025281D01*
X008982Y025440D02*
X008003Y025440D01*
X007597Y025440D02*
X007461Y025440D01*
X007461Y025590D02*
X007461Y025183D01*
X007461Y025047D01*
X007597Y025047D01*
X007597Y025183D01*
X007461Y025183D01*
X007054Y025183D01*
X007054Y025434D01*
X007066Y025480D01*
X007090Y025521D01*
X007123Y025554D01*
X007164Y025578D01*
X007210Y025590D01*
X007461Y025590D01*
X007461Y025281D02*
X007597Y025281D01*
X007597Y025123D02*
X009271Y025123D01*
X009449Y025123D02*
X012032Y025123D01*
X012596Y025123D02*
X012751Y025123D01*
X012751Y024964D02*
X012596Y024964D01*
X012596Y024489D02*
X012751Y024489D01*
X012751Y024330D02*
X012596Y024330D01*
X012596Y024172D02*
X012751Y024172D01*
X012876Y023538D02*
X011929Y023538D01*
X011929Y023379D02*
X012375Y023379D01*
X012375Y023221D02*
X011929Y023221D01*
X011929Y023062D02*
X012375Y023062D01*
X012375Y022904D02*
X011929Y022904D01*
X011929Y022745D02*
X012460Y022745D01*
X012531Y022505D02*
X012486Y022493D01*
X012444Y022469D01*
X012411Y022436D01*
X012387Y022395D01*
X012375Y022349D01*
X012375Y022140D01*
X012955Y022140D01*
X012955Y022090D01*
X013005Y022090D01*
X013005Y022140D01*
X012955Y022140D01*
X012955Y022505D01*
X012531Y022505D01*
X012407Y022428D02*
X011929Y022428D01*
X011929Y022270D02*
X012375Y022270D01*
X012375Y022090D02*
X012375Y021881D01*
X012387Y021836D01*
X012411Y021795D01*
X012444Y021761D01*
X012486Y021737D01*
X012531Y021725D01*
X012955Y021725D01*
X012955Y022090D01*
X012375Y022090D01*
X012375Y021953D02*
X011929Y021953D01*
X011929Y022111D02*
X012955Y022111D01*
X013005Y022111D02*
X013345Y022111D01*
X013005Y021953D02*
X012955Y021953D01*
X012955Y021794D02*
X013005Y021794D01*
X013345Y021636D02*
X011929Y021636D01*
X011929Y021794D02*
X012411Y021794D01*
X012452Y021477D02*
X011929Y021477D01*
X011929Y021319D02*
X012375Y021319D01*
X012375Y021160D02*
X011929Y021160D01*
X011929Y021002D02*
X012375Y021002D01*
X012375Y020843D02*
X011929Y020843D01*
X011929Y020685D02*
X012871Y020685D01*
X012759Y020526D02*
X011929Y020526D01*
X011929Y020368D02*
X012720Y020368D01*
X012720Y020209D02*
X011929Y020209D01*
X011929Y020051D02*
X013180Y020051D01*
X013180Y020015D02*
X012720Y020015D01*
X012720Y019697D01*
X012732Y019623D01*
X012755Y019551D01*
X012789Y019484D01*
X012834Y019422D01*
X012887Y019369D01*
X012948Y019325D01*
X013016Y019290D01*
X013088Y019267D01*
X013162Y019255D01*
X013180Y019255D01*
X013180Y020015D01*
X013220Y020051D02*
X013720Y020051D01*
X013720Y020209D02*
X013680Y020209D01*
X013680Y020368D02*
X013720Y020368D01*
X013760Y020526D02*
X013641Y020526D01*
X013529Y020685D02*
X013770Y020685D01*
X013720Y019892D02*
X013680Y019892D01*
X013680Y019734D02*
X013720Y019734D01*
X013747Y019575D02*
X013653Y019575D01*
X013560Y019417D02*
X013750Y019417D01*
X013750Y019258D02*
X013257Y019258D01*
X013220Y019258D02*
X013180Y019258D01*
X013143Y019258D02*
X008307Y019258D01*
X008306Y019417D02*
X012840Y019417D01*
X012747Y019575D02*
X008263Y019575D01*
X008203Y019734D02*
X012720Y019734D01*
X012720Y019892D02*
X011907Y019892D01*
X013180Y019892D02*
X013220Y019892D01*
X013220Y019734D02*
X013180Y019734D01*
X013180Y019575D02*
X013220Y019575D01*
X013220Y019417D02*
X013180Y019417D01*
X014026Y018385D02*
X014184Y018451D01*
X014424Y018691D01*
X014545Y018812D01*
X014610Y018970D01*
X014610Y019471D01*
X014680Y019640D01*
X014680Y020431D01*
X014630Y020551D01*
X014630Y020725D01*
X014911Y020725D01*
X014793Y020607D01*
X014720Y020431D01*
X014720Y019640D01*
X014793Y019463D01*
X014928Y019328D01*
X015105Y019255D01*
X015161Y019255D01*
X011977Y016071D01*
X011940Y015983D01*
X011940Y015887D01*
X011940Y013910D01*
X011859Y013829D01*
X011802Y013690D01*
X011802Y013540D01*
X011859Y013401D01*
X011945Y013315D01*
X011945Y012514D01*
X011600Y012859D01*
X011600Y013460D01*
X011621Y013481D01*
X011678Y013620D01*
X011678Y013770D01*
X011621Y013909D01*
X011514Y014016D01*
X011375Y014073D01*
X011225Y014073D01*
X011086Y014016D01*
X010979Y013909D01*
X010922Y013770D01*
X010922Y013620D01*
X010979Y013481D01*
X011000Y013460D01*
X011000Y012675D01*
X011046Y012565D01*
X011560Y012051D01*
X011560Y010672D01*
X011503Y010672D01*
X011322Y010597D01*
X011322Y011881D01*
X011216Y011986D01*
X010280Y011986D01*
X010174Y011881D01*
X010174Y010433D01*
X010280Y010327D01*
X011052Y010327D01*
X010977Y010146D01*
X010977Y009884D01*
X011077Y009643D01*
X011213Y009506D01*
X010280Y009506D01*
X010174Y009401D01*
X010174Y008549D01*
X010050Y008673D01*
X010050Y018077D01*
X010358Y018385D01*
X014026Y018385D01*
X014199Y018466D02*
X014371Y018466D01*
X014357Y018624D02*
X014530Y018624D01*
X014516Y018783D02*
X014688Y018783D01*
X014598Y018941D02*
X014847Y018941D01*
X015005Y019100D02*
X014610Y019100D01*
X014610Y019258D02*
X015097Y019258D01*
X014840Y019417D02*
X014610Y019417D01*
X014653Y019575D02*
X014747Y019575D01*
X014720Y019734D02*
X014680Y019734D01*
X014680Y019892D02*
X014720Y019892D01*
X014720Y020051D02*
X014680Y020051D01*
X014680Y020209D02*
X014720Y020209D01*
X014720Y020368D02*
X014680Y020368D01*
X014640Y020526D02*
X014760Y020526D01*
X014871Y020685D02*
X014630Y020685D01*
X015035Y021078D02*
X015035Y021491D01*
X015023Y021504D01*
X015035Y021550D01*
X015035Y021782D01*
X014608Y021782D01*
X014608Y021878D01*
X014512Y021878D01*
X014512Y022492D01*
X014608Y022492D01*
X014608Y022105D01*
X014608Y021878D01*
X015035Y021878D01*
X015035Y022109D01*
X015023Y022155D01*
X015006Y022185D01*
X015023Y022215D01*
X015035Y022261D01*
X015035Y022482D01*
X015145Y022437D01*
X015280Y022437D01*
X015280Y021323D01*
X015035Y021078D01*
X015035Y021160D02*
X015117Y021160D01*
X015035Y021319D02*
X015276Y021319D01*
X015280Y021477D02*
X015035Y021477D01*
X015023Y021504D02*
X015023Y021504D01*
X015035Y021636D02*
X015280Y021636D01*
X015280Y021794D02*
X014608Y021794D01*
X014512Y021794D02*
X013868Y021794D01*
X013868Y021782D02*
X013868Y021878D01*
X014295Y021878D01*
X014512Y021878D01*
X014512Y021782D01*
X013868Y021782D01*
X013868Y021953D02*
X013772Y021953D01*
X013772Y022111D02*
X013868Y022111D01*
X013868Y022270D02*
X013772Y022270D01*
X013772Y022428D02*
X013868Y022428D01*
X013868Y022492D02*
X013868Y022588D01*
X014295Y022588D01*
X014512Y022588D01*
X014512Y022492D01*
X013868Y022492D01*
X013868Y022587D02*
X014512Y022587D01*
X014512Y022428D02*
X014608Y022428D01*
X014608Y022270D02*
X014512Y022270D01*
X014540Y022215D02*
X014660Y022095D01*
X015020Y022095D01*
X015035Y022111D02*
X015280Y022111D01*
X015280Y021953D02*
X015035Y021953D01*
X015035Y022270D02*
X015280Y022270D01*
X015280Y022428D02*
X015035Y022428D01*
X014608Y022111D02*
X014512Y022111D01*
X014512Y021953D02*
X014608Y021953D01*
X013772Y022587D02*
X011929Y022587D01*
X012955Y022428D02*
X013005Y022428D01*
X013005Y022270D02*
X012955Y022270D01*
X015200Y020875D02*
X015540Y021215D01*
X015540Y024622D01*
X015880Y024962D01*
X015503Y024964D02*
X015249Y024964D01*
X015274Y024975D02*
X015381Y025081D01*
X015438Y025220D01*
X015438Y025370D01*
X015437Y025373D01*
X015488Y025373D01*
X015488Y025810D01*
X015524Y025810D01*
X015524Y025373D01*
X015564Y025373D01*
X015503Y025312D01*
X015503Y024953D01*
X015393Y024842D01*
X015393Y024842D01*
X015320Y024769D01*
X015280Y024674D01*
X015280Y024110D01*
X015174Y024216D01*
X015155Y024224D01*
X015177Y024246D01*
X015177Y024934D01*
X015274Y024975D01*
X015356Y024806D02*
X015177Y024806D01*
X015177Y024647D02*
X015280Y024647D01*
X015280Y024489D02*
X015177Y024489D01*
X015177Y024330D02*
X015280Y024330D01*
X015280Y024172D02*
X015218Y024172D01*
X014406Y024635D02*
X014260Y024781D01*
X014260Y025195D01*
X013960Y025495D01*
X009360Y025495D01*
X008993Y025598D02*
X005990Y025598D01*
X006087Y025757D02*
X006183Y025757D01*
X006183Y025915D02*
X006087Y025915D01*
X006183Y026074D02*
X009217Y026074D01*
X009313Y026074D02*
X009850Y026074D01*
X009850Y026101D02*
X009850Y025870D01*
X009862Y025824D01*
X009886Y025783D01*
X009914Y025755D01*
X009721Y025755D01*
X009738Y025784D01*
X009750Y025830D01*
X009750Y026061D01*
X009313Y026061D01*
X009313Y026157D01*
X009750Y026157D01*
X009750Y026389D01*
X009738Y026435D01*
X009714Y026476D01*
X009690Y026500D01*
X009776Y026500D01*
X009820Y026544D01*
X009864Y026500D01*
X009877Y026500D01*
X009862Y026475D01*
X009850Y026429D01*
X009850Y026197D01*
X010287Y026197D01*
X010287Y026101D01*
X009850Y026101D01*
X009850Y026232D02*
X009750Y026232D01*
X009750Y026391D02*
X009850Y026391D01*
X009850Y025915D02*
X009750Y025915D01*
X009722Y025757D02*
X009912Y025757D01*
X010383Y026101D02*
X010383Y026197D01*
X010820Y026197D01*
X010820Y026429D01*
X010808Y026475D01*
X010784Y026516D01*
X010751Y026549D01*
X013049Y026549D01*
X013016Y026516D01*
X012992Y026475D01*
X012980Y026429D01*
X012980Y026197D01*
X013417Y026197D01*
X013417Y026101D01*
X012980Y026101D01*
X012980Y025870D01*
X012992Y025824D01*
X013016Y025783D01*
X013044Y025755D01*
X010756Y025755D01*
X010784Y025783D01*
X010808Y025824D01*
X010820Y025870D01*
X010820Y026101D01*
X010383Y026101D01*
X010820Y026074D02*
X012980Y026074D01*
X012980Y026232D02*
X010820Y026232D01*
X010820Y026391D02*
X012980Y026391D01*
X013049Y026549D02*
X013090Y026573D01*
X013136Y026585D01*
X013417Y026585D01*
X013417Y026197D01*
X013513Y026197D01*
X013513Y026585D01*
X013794Y026585D01*
X013840Y026573D01*
X013881Y026549D01*
X015038Y026549D01*
X015038Y026547D02*
X014650Y026547D01*
X014650Y026521D01*
X014630Y026541D01*
X013890Y026541D01*
X013889Y026541D01*
X013881Y026549D01*
X013513Y026549D02*
X013417Y026549D01*
X013417Y026391D02*
X013513Y026391D01*
X013513Y026232D02*
X013417Y026232D01*
X012980Y025915D02*
X010820Y025915D01*
X010758Y025757D02*
X013042Y025757D01*
X013316Y025123D02*
X013734Y025123D01*
X013636Y024964D02*
X013444Y024964D01*
X013444Y024806D02*
X013636Y024806D01*
X014610Y025591D02*
X014675Y025525D01*
X014755Y025525D01*
X014846Y025616D01*
X014985Y025673D01*
X015129Y025673D01*
X015129Y025810D01*
X015488Y025810D01*
X015488Y025847D01*
X015129Y025847D01*
X015129Y026127D01*
X015134Y026145D01*
X015134Y026547D01*
X015038Y026547D01*
X015038Y026100D01*
X014806Y026100D01*
X014761Y026112D01*
X014735Y026127D01*
X014735Y025696D01*
X014630Y025591D01*
X014610Y025591D01*
X014637Y025598D02*
X014828Y025598D01*
X014735Y025757D02*
X015129Y025757D01*
X015129Y025915D02*
X014735Y025915D01*
X014735Y026074D02*
X015129Y026074D01*
X015134Y026232D02*
X015038Y026232D01*
X015038Y026391D02*
X015134Y026391D01*
X015038Y026547D02*
X015038Y026643D01*
X014650Y026643D01*
X014650Y026934D01*
X014662Y026980D01*
X014686Y027021D01*
X014720Y027054D01*
X014761Y027078D01*
X014806Y027090D01*
X015038Y027090D01*
X015038Y026643D01*
X015134Y026643D01*
X015134Y027090D01*
X015366Y027090D01*
X015411Y027078D01*
X015452Y027054D01*
X015460Y027046D01*
X015504Y027090D01*
X016164Y027090D01*
X016199Y027055D01*
X016252Y027392D01*
X016252Y027392D01*
X016463Y027805D01*
X016463Y027805D01*
X016790Y028132D01*
X016790Y028132D01*
X016855Y028165D01*
X016758Y028165D01*
X016721Y028156D01*
X016654Y028165D01*
X016585Y028165D01*
X016550Y028179D01*
X016320Y028211D01*
X016171Y028265D01*
X013936Y028265D01*
X013950Y028251D01*
X013950Y027919D01*
X014192Y027919D01*
X014192Y027512D01*
X014328Y027512D01*
X014735Y027512D01*
X014735Y027763D01*
X014723Y027809D01*
X014699Y027850D01*
X014666Y027883D01*
X014625Y027907D01*
X014579Y027919D01*
X014328Y027919D01*
X014328Y027512D01*
X014328Y027376D01*
X014735Y027376D01*
X014735Y027125D01*
X014723Y027079D01*
X014699Y027038D01*
X014666Y027005D01*
X014625Y026981D01*
X014579Y026969D01*
X014328Y026969D01*
X014328Y027376D01*
X014192Y027376D01*
X014192Y026969D01*
X013941Y026969D01*
X013895Y026981D01*
X013854Y027005D01*
X013821Y027038D01*
X013797Y027079D01*
X013785Y027125D01*
X013785Y027376D01*
X014192Y027376D01*
X014192Y027512D01*
X013871Y027512D01*
X013845Y027485D01*
X013085Y027485D01*
X012980Y027590D01*
X012980Y027690D01*
X012938Y027648D01*
X012938Y027520D01*
X012881Y027381D01*
X012774Y027275D01*
X012635Y027217D01*
X012507Y027217D01*
X012055Y026765D01*
X010630Y026765D01*
X010630Y026606D01*
X010610Y026585D01*
X010664Y026585D01*
X010710Y026573D01*
X010751Y026549D01*
X010630Y026708D02*
X014650Y026708D01*
X014650Y026866D02*
X012156Y026866D01*
X012315Y027025D02*
X013834Y027025D01*
X013785Y027183D02*
X012473Y027183D01*
X012841Y027342D02*
X013785Y027342D01*
X013860Y027500D02*
X014192Y027500D01*
X014328Y027500D02*
X016307Y027500D01*
X016244Y027342D02*
X014735Y027342D01*
X014735Y027183D02*
X016219Y027183D01*
X015920Y026595D02*
X016260Y026255D01*
X016260Y025834D01*
X016631Y025777D02*
X016631Y025897D01*
X016790Y025738D01*
X017203Y025528D01*
X017660Y025455D01*
X018117Y025528D01*
X018530Y025738D01*
X018857Y026065D01*
X018857Y026065D01*
X019068Y026478D01*
X019140Y026935D01*
X019068Y027392D01*
X019068Y027392D01*
X018857Y027805D01*
X018530Y028132D01*
X018530Y028132D01*
X018460Y028168D01*
X026847Y028182D01*
X026750Y028132D01*
X026423Y027805D01*
X026212Y027392D01*
X026140Y026935D01*
X026212Y026478D01*
X026423Y026065D01*
X026750Y025738D01*
X027163Y025528D01*
X027304Y025505D01*
X024455Y025505D01*
X024290Y025670D01*
X024290Y026095D01*
X024409Y025975D01*
X024590Y025975D01*
X024590Y026425D01*
X024610Y026425D01*
X024610Y025975D01*
X024791Y025975D01*
X025060Y026245D01*
X025060Y026425D01*
X024610Y026425D01*
X024610Y026445D01*
X025060Y026445D01*
X025060Y026626D01*
X024791Y026895D01*
X024610Y026895D01*
X024610Y026445D01*
X024590Y026445D01*
X024590Y026895D01*
X024409Y026895D01*
X024290Y026776D01*
X024290Y027070D01*
X024155Y027205D01*
X024060Y027300D01*
X024060Y027626D01*
X023791Y027895D01*
X023409Y027895D01*
X023140Y027626D01*
X023140Y027245D01*
X023409Y026975D01*
X023735Y026975D01*
X023830Y026880D01*
X023830Y026856D01*
X023791Y026895D01*
X023409Y026895D01*
X023140Y026626D01*
X023140Y026245D01*
X023409Y025975D01*
X023791Y025975D01*
X023830Y026015D01*
X023830Y025530D01*
X023060Y026300D01*
X023060Y026626D01*
X022791Y026895D01*
X022409Y026895D01*
X022290Y026776D01*
X022290Y026800D01*
X022465Y026975D01*
X022791Y026975D01*
X023060Y027245D01*
X023060Y027626D01*
X022791Y027895D01*
X022409Y027895D01*
X022140Y027626D01*
X022140Y027300D01*
X021965Y027125D01*
X021965Y027125D01*
X021830Y026990D01*
X021830Y026856D01*
X021791Y026895D01*
X021409Y026895D01*
X021140Y026626D01*
X021140Y026245D01*
X021409Y025975D01*
X021791Y025975D01*
X021830Y026015D01*
X021830Y026000D01*
X021965Y025865D01*
X022205Y025625D01*
X022725Y025625D01*
X023465Y024885D01*
X022245Y024885D01*
X019925Y022565D01*
X019365Y022565D01*
X018965Y022165D01*
X018830Y022030D01*
X018830Y021927D01*
X018829Y021928D01*
X018668Y021995D01*
X018492Y021995D01*
X018331Y021928D01*
X018207Y021804D01*
X018140Y021643D01*
X018140Y021103D01*
X018020Y021223D01*
X018020Y021643D01*
X017953Y021804D01*
X017829Y021928D01*
X017668Y021995D01*
X017492Y021995D01*
X017331Y021928D01*
X017207Y021804D01*
X017140Y021643D01*
X017140Y020948D01*
X017207Y020786D01*
X017328Y020665D01*
X017255Y020695D01*
X016861Y020695D01*
X016867Y020699D01*
X016916Y020748D01*
X016956Y020804D01*
X016988Y020866D01*
X017009Y020932D01*
X017020Y021000D01*
X017020Y021295D01*
X016580Y021295D01*
X016580Y021295D01*
X017020Y021295D01*
X017020Y021590D01*
X017009Y021658D01*
X016988Y021724D01*
X016956Y021786D01*
X016916Y021842D01*
X016867Y021891D01*
X016811Y021931D01*
X016749Y021963D01*
X016683Y021984D01*
X016615Y021995D01*
X016580Y021995D01*
X016545Y021995D01*
X016477Y021984D01*
X016411Y021963D01*
X016349Y021931D01*
X016340Y021925D01*
X016340Y022815D01*
X016350Y022815D01*
X016350Y022626D01*
X016456Y022520D01*
X017116Y022520D01*
X017160Y022564D01*
X017204Y022520D01*
X017864Y022520D01*
X017970Y022626D01*
X017970Y022653D01*
X018105Y022597D01*
X018255Y022597D01*
X018394Y022655D01*
X018501Y022761D01*
X018558Y022900D01*
X018558Y023050D01*
X018501Y023189D01*
X018394Y023296D01*
X018255Y023353D01*
X018105Y023353D01*
X017970Y023297D01*
X017970Y023397D01*
X018095Y023397D01*
X018234Y023455D01*
X018341Y023561D01*
X018398Y023700D01*
X018398Y023850D01*
X018341Y023989D01*
X018234Y024096D01*
X018095Y024153D01*
X017945Y024153D01*
X017806Y024096D01*
X017715Y024005D01*
X017670Y024005D01*
X017670Y024200D01*
X018064Y024200D01*
X018170Y024306D01*
X018170Y024425D01*
X020355Y024425D01*
X020367Y024437D01*
X020495Y024437D01*
X020634Y024495D01*
X020741Y024601D01*
X020798Y024740D01*
X020798Y024890D01*
X020741Y025029D01*
X020634Y025136D01*
X020495Y025193D01*
X020345Y025193D01*
X020206Y025136D01*
X020099Y025029D01*
X020042Y024890D01*
X020042Y024885D01*
X018170Y024885D01*
X018170Y025085D01*
X018064Y025190D01*
X017404Y025190D01*
X017360Y025146D01*
X017316Y025190D01*
X016878Y025190D01*
X016878Y025290D01*
X016821Y025429D01*
X016730Y025520D01*
X016730Y025677D01*
X016631Y025777D01*
X016651Y025757D02*
X016771Y025757D01*
X016790Y025738D02*
X016790Y025738D01*
X016730Y025598D02*
X017064Y025598D01*
X017203Y025528D02*
X017203Y025528D01*
X016810Y025440D02*
X022910Y025440D01*
X022752Y025598D02*
X018256Y025598D01*
X018117Y025528D02*
X018117Y025528D01*
X017660Y025455D02*
X017660Y025455D01*
X018132Y025123D02*
X020193Y025123D01*
X020072Y024964D02*
X018170Y024964D01*
X018170Y024330D02*
X021690Y024330D01*
X021848Y024489D02*
X020620Y024489D01*
X020760Y024647D02*
X022007Y024647D01*
X022165Y024806D02*
X020798Y024806D01*
X020768Y024964D02*
X023386Y024964D01*
X023227Y025123D02*
X020647Y025123D01*
X021531Y024172D02*
X017670Y024172D01*
X017670Y024013D02*
X017723Y024013D01*
X018317Y024013D02*
X021373Y024013D01*
X021214Y023855D02*
X018396Y023855D01*
X018397Y023696D02*
X021056Y023696D01*
X020897Y023538D02*
X018317Y023538D01*
X018469Y023221D02*
X020580Y023221D01*
X020739Y023379D02*
X017970Y023379D01*
X018553Y023062D02*
X020422Y023062D01*
X020263Y022904D02*
X018558Y022904D01*
X018485Y022745D02*
X020105Y022745D01*
X019946Y022587D02*
X017931Y022587D01*
X017770Y021953D02*
X018390Y021953D01*
X018203Y021794D02*
X017957Y021794D01*
X018020Y021636D02*
X018140Y021636D01*
X018140Y021477D02*
X018020Y021477D01*
X018020Y021319D02*
X018140Y021319D01*
X018140Y021160D02*
X018083Y021160D01*
X017580Y021295D02*
X018260Y020615D01*
X018260Y018575D01*
X017900Y018215D01*
X016860Y018215D01*
X016465Y017735D02*
X017255Y017735D01*
X017432Y017808D01*
X017567Y017943D01*
X017572Y017955D01*
X017952Y017955D01*
X018047Y017995D01*
X018407Y018355D01*
X018480Y018428D01*
X018520Y018523D01*
X018520Y020595D01*
X018668Y020595D01*
X018829Y020662D01*
X018858Y020691D01*
X019070Y020480D01*
X019205Y020345D01*
X020515Y020345D01*
X020675Y020505D01*
X020810Y020640D01*
X020810Y020654D01*
X020829Y020662D01*
X020953Y020786D01*
X021020Y020948D01*
X021020Y021440D01*
X021086Y021375D01*
X021225Y021317D01*
X021375Y021317D01*
X021514Y021375D01*
X021595Y021455D01*
X021855Y021455D01*
X021790Y021390D01*
X021790Y021225D01*
X021771Y021206D01*
X021771Y020984D01*
X021549Y020984D01*
X021444Y020879D01*
X021444Y020550D01*
X021444Y020470D01*
X021449Y020452D01*
X021444Y020434D01*
X021444Y020354D01*
X021509Y020354D01*
X021509Y020354D01*
X021509Y020354D01*
X021444Y020354D01*
X021444Y020273D01*
X021449Y020255D01*
X021444Y020237D01*
X021444Y020157D01*
X021509Y020157D01*
X021509Y020157D01*
X021509Y020157D01*
X021444Y020157D01*
X021444Y020076D01*
X021449Y020058D01*
X021444Y020041D01*
X021444Y019960D01*
X021509Y019960D01*
X021509Y019960D01*
X021444Y019960D01*
X021444Y019879D01*
X021449Y019861D01*
X021444Y019844D01*
X021444Y019763D01*
X021509Y019763D01*
X021509Y019763D01*
X021444Y019763D01*
X021444Y019715D01*
X021425Y019715D01*
X021320Y019610D01*
X021320Y019221D01*
X021383Y019158D01*
X021337Y019111D01*
X021300Y019023D01*
X021300Y017794D01*
X020956Y018139D01*
X020868Y018175D01*
X020235Y018175D01*
X020154Y018256D01*
X020015Y018313D01*
X019865Y018313D01*
X019726Y018256D01*
X019619Y018149D01*
X018201Y018149D01*
X018360Y018307D02*
X019850Y018307D01*
X020030Y018307D02*
X021300Y018307D01*
X021300Y018149D02*
X020932Y018149D01*
X021104Y017990D02*
X021300Y017990D01*
X021300Y017832D02*
X021263Y017832D01*
X020901Y017515D02*
X017536Y017515D01*
X017526Y017528D02*
X017473Y017581D01*
X017412Y017626D01*
X017344Y017660D01*
X017272Y017683D01*
X017198Y017695D01*
X016880Y017695D01*
X016880Y017235D01*
X017640Y017235D01*
X017640Y017253D01*
X017628Y017327D01*
X017605Y017399D01*
X017571Y017467D01*
X017526Y017528D01*
X017619Y017356D02*
X021060Y017356D01*
X021162Y017254D02*
X020721Y017695D01*
X020235Y017695D01*
X020154Y017615D01*
X020015Y017557D01*
X019865Y017557D01*
X019726Y017615D01*
X019619Y017721D01*
X019562Y017860D01*
X019562Y018010D01*
X019619Y018149D01*
X019562Y017990D02*
X018036Y017990D01*
X017792Y018475D02*
X017572Y018475D01*
X017567Y018487D01*
X017432Y018622D01*
X017255Y018695D01*
X016465Y018695D01*
X016288Y018622D01*
X016153Y018487D01*
X016080Y018311D01*
X016080Y018120D01*
X016153Y017943D01*
X016288Y017808D01*
X016465Y017735D01*
X016448Y017683D02*
X016376Y017660D01*
X016308Y017626D01*
X016247Y017581D01*
X016194Y017528D01*
X016149Y017467D01*
X016115Y017399D01*
X016092Y017327D01*
X016080Y017253D01*
X016080Y017235D01*
X016840Y017235D01*
X016840Y017195D01*
X016880Y017195D01*
X016880Y016735D01*
X017198Y016735D01*
X017272Y016747D01*
X017296Y016755D01*
X017296Y016687D01*
X017671Y016687D01*
X017671Y016927D01*
X017544Y016927D01*
X017571Y016964D01*
X017605Y017031D01*
X017628Y017103D01*
X017640Y017177D01*
X017640Y017195D01*
X016880Y017195D01*
X016880Y017235D01*
X016840Y017235D01*
X016840Y017695D01*
X016522Y017695D01*
X016448Y017683D01*
X016416Y017673D02*
X015823Y017673D01*
X015823Y017609D02*
X015823Y017798D01*
X015751Y017974D01*
X015616Y018108D01*
X015441Y018180D01*
X015251Y018180D01*
X015103Y018119D01*
X015719Y018735D01*
X015908Y018735D01*
X015996Y018772D01*
X016063Y018839D01*
X016160Y018936D01*
X016288Y018808D01*
X016465Y018735D01*
X017255Y018735D01*
X017432Y018808D01*
X017567Y018943D01*
X017640Y019120D01*
X017640Y019311D01*
X017567Y019487D01*
X017432Y019622D01*
X017255Y019695D01*
X016465Y019695D01*
X016340Y019644D01*
X016340Y019787D01*
X016465Y019735D01*
X017255Y019735D01*
X017432Y019808D01*
X017567Y019943D01*
X017640Y020120D01*
X017640Y020311D01*
X017567Y020487D01*
X017435Y020619D01*
X017492Y020595D01*
X017668Y020595D01*
X017829Y020662D01*
X017837Y020670D01*
X018000Y020507D01*
X018000Y018683D01*
X017792Y018475D01*
X017941Y018624D02*
X017427Y018624D01*
X017370Y018783D02*
X018000Y018783D01*
X018000Y018941D02*
X017565Y018941D01*
X017632Y019100D02*
X018000Y019100D01*
X018000Y019258D02*
X017640Y019258D01*
X017596Y019417D02*
X018000Y019417D01*
X018000Y019575D02*
X017479Y019575D01*
X017516Y019892D02*
X018000Y019892D01*
X018000Y019734D02*
X016340Y019734D01*
X016350Y018783D02*
X016007Y018783D01*
X016293Y018624D02*
X015608Y018624D01*
X015450Y018466D02*
X016144Y018466D01*
X016080Y018307D02*
X015291Y018307D01*
X015175Y018149D02*
X015133Y018149D01*
X014931Y017946D02*
X014869Y017798D01*
X014869Y017609D01*
X014942Y017433D01*
X015060Y017316D01*
X015060Y014535D01*
X015106Y014425D01*
X015190Y014341D01*
X015287Y014243D01*
X015251Y014243D01*
X015076Y014171D01*
X014942Y014037D01*
X014869Y013861D01*
X014869Y013672D01*
X014942Y013496D01*
X015076Y013362D01*
X015251Y013290D01*
X015441Y013290D01*
X015547Y013334D01*
X015560Y013321D01*
X015560Y010415D01*
X015606Y010305D01*
X016586Y009325D01*
X016174Y009325D01*
X016016Y009260D01*
X015895Y009139D01*
X015363Y008606D01*
X015330Y008686D01*
X015330Y009575D01*
X015284Y009685D01*
X015200Y009769D01*
X015020Y009949D01*
X014910Y009995D01*
X014023Y009995D01*
X014023Y010146D01*
X013948Y010327D01*
X014720Y010327D01*
X014826Y010433D01*
X014826Y011510D01*
X014905Y011477D01*
X015055Y011477D01*
X015194Y011535D01*
X015301Y011641D01*
X015358Y011780D01*
X015358Y011930D01*
X015301Y012069D01*
X015194Y012176D01*
X015055Y012233D01*
X014941Y012233D01*
X014660Y012514D01*
X014660Y012760D01*
X014741Y012841D01*
X014798Y012980D01*
X014798Y013130D01*
X014741Y013269D01*
X014634Y013376D01*
X014495Y013433D01*
X014345Y013433D01*
X014206Y013376D01*
X014099Y013269D01*
X014042Y013130D01*
X014042Y012980D01*
X014099Y012841D01*
X014180Y012760D01*
X014180Y012367D01*
X014217Y012279D01*
X014509Y011986D01*
X013784Y011986D01*
X013678Y011881D01*
X013678Y010597D01*
X013497Y010672D01*
X013408Y010672D01*
X013408Y011196D01*
X013130Y011196D01*
X013130Y011196D01*
X013408Y011196D01*
X013408Y011830D01*
X013396Y011876D01*
X013372Y011917D01*
X013339Y011950D01*
X013298Y011974D01*
X013252Y011986D01*
X013130Y011986D01*
X013130Y011196D01*
X013130Y011196D01*
X013130Y011986D01*
X013008Y011986D01*
X012992Y011982D01*
X012988Y011986D01*
X012740Y011986D01*
X012740Y013116D01*
X012796Y013172D01*
X012863Y013239D01*
X012900Y013327D01*
X012900Y014920D01*
X012981Y015001D01*
X013038Y015140D01*
X013038Y015290D01*
X012981Y015429D01*
X012900Y015510D01*
X012900Y015916D01*
X014931Y017946D01*
X014883Y017832D02*
X014816Y017832D01*
X014869Y017673D02*
X014657Y017673D01*
X014499Y017515D02*
X014908Y017515D01*
X015019Y017356D02*
X014340Y017356D01*
X014182Y017198D02*
X015060Y017198D01*
X015060Y017039D02*
X014023Y017039D01*
X013865Y016881D02*
X015060Y016881D01*
X015060Y016722D02*
X013706Y016722D01*
X013548Y016564D02*
X015060Y016564D01*
X015060Y016405D02*
X013389Y016405D01*
X013231Y016247D02*
X015060Y016247D01*
X015060Y016088D02*
X013072Y016088D01*
X012914Y015930D02*
X015060Y015930D01*
X015060Y015771D02*
X012900Y015771D01*
X012900Y015613D02*
X015060Y015613D01*
X015060Y015454D02*
X012956Y015454D01*
X013036Y015296D02*
X015060Y015296D01*
X015060Y015137D02*
X013037Y015137D01*
X012958Y014979D02*
X015060Y014979D01*
X015060Y014820D02*
X012900Y014820D01*
X012900Y014662D02*
X015060Y014662D01*
X015073Y014503D02*
X012900Y014503D01*
X012900Y014345D02*
X015186Y014345D01*
X015113Y014186D02*
X012900Y014186D01*
X012900Y014028D02*
X014938Y014028D01*
X014873Y013869D02*
X012900Y013869D01*
X012900Y013711D02*
X014869Y013711D01*
X014919Y013552D02*
X012900Y013552D01*
X012900Y013394D02*
X014249Y013394D01*
X014085Y013235D02*
X012859Y013235D01*
X012740Y013077D02*
X014042Y013077D01*
X014067Y012918D02*
X012740Y012918D01*
X012740Y012760D02*
X014180Y012760D01*
X014180Y012601D02*
X012740Y012601D01*
X012740Y012443D02*
X014180Y012443D01*
X014214Y012284D02*
X012740Y012284D01*
X012740Y012126D02*
X014370Y012126D01*
X014732Y012443D02*
X015560Y012443D01*
X015560Y012601D02*
X014660Y012601D01*
X014660Y012760D02*
X015560Y012760D01*
X015560Y012918D02*
X014773Y012918D01*
X014798Y013077D02*
X015560Y013077D01*
X015560Y013235D02*
X014755Y013235D01*
X014591Y013394D02*
X015045Y013394D01*
X014890Y012284D02*
X015560Y012284D01*
X015560Y012126D02*
X015244Y012126D01*
X015343Y011967D02*
X015560Y011967D01*
X015560Y011809D02*
X015358Y011809D01*
X015304Y011650D02*
X015560Y011650D01*
X015560Y011492D02*
X015090Y011492D01*
X014869Y011492D02*
X014826Y011492D01*
X014826Y011333D02*
X015560Y011333D01*
X015560Y011175D02*
X014826Y011175D01*
X014826Y011016D02*
X015560Y011016D01*
X015560Y010858D02*
X014826Y010858D01*
X014826Y010699D02*
X015560Y010699D01*
X015560Y010541D02*
X014826Y010541D01*
X014775Y010382D02*
X015574Y010382D01*
X015687Y010224D02*
X013991Y010224D01*
X014023Y010065D02*
X015846Y010065D01*
X016004Y009907D02*
X015063Y009907D01*
X015221Y009748D02*
X016163Y009748D01*
X016321Y009590D02*
X015324Y009590D01*
X015330Y009431D02*
X016480Y009431D01*
X016048Y009273D02*
X015330Y009273D01*
X015330Y009114D02*
X015871Y009114D01*
X015712Y008956D02*
X015330Y008956D01*
X015330Y008797D02*
X015554Y008797D01*
X015395Y008639D02*
X015350Y008639D01*
X016957Y010382D02*
X018202Y010382D01*
X018202Y010410D02*
X018202Y010260D01*
X018259Y010121D01*
X018305Y010075D01*
X017264Y010075D01*
X016741Y010599D01*
X016745Y010597D01*
X016895Y010597D01*
X017034Y010655D01*
X017141Y010761D01*
X017198Y010900D01*
X017198Y011050D01*
X017141Y011189D01*
X017080Y011250D01*
X017080Y011980D01*
X017141Y012041D01*
X017198Y012180D01*
X017198Y012330D01*
X017141Y012469D01*
X017034Y012576D01*
X016895Y012633D01*
X016745Y012633D01*
X016606Y012576D01*
X016520Y012490D01*
X016520Y013795D01*
X016474Y013905D01*
X015660Y014719D01*
X015660Y017343D01*
X015751Y017433D01*
X015823Y017609D01*
X015784Y017515D02*
X016184Y017515D01*
X016101Y017356D02*
X015673Y017356D01*
X015660Y017198D02*
X016840Y017198D01*
X016840Y017195D02*
X016080Y017195D01*
X016080Y017177D01*
X016092Y017103D01*
X016115Y017031D01*
X016149Y016964D01*
X016194Y016902D01*
X016247Y016849D01*
X016308Y016805D01*
X016376Y016770D01*
X016448Y016747D01*
X016522Y016735D01*
X016840Y016735D01*
X016840Y017195D01*
X016880Y017198D02*
X021162Y017198D01*
X021162Y017254D02*
X021162Y017140D01*
X021219Y017001D01*
X021326Y016895D01*
X021465Y016837D01*
X021615Y016837D01*
X021754Y016895D01*
X021861Y017001D01*
X021918Y017140D01*
X021918Y017220D01*
X022496Y017220D01*
X022509Y017233D01*
X022509Y017232D01*
X022555Y017220D01*
X022787Y017220D01*
X022787Y017647D01*
X022883Y017647D01*
X022883Y017743D01*
X023271Y017743D01*
X023271Y018014D01*
X023258Y018060D01*
X023239Y018094D01*
X023271Y018125D01*
X023271Y018599D01*
X023365Y018505D01*
X023450Y018505D01*
X023450Y018106D01*
X023461Y018095D01*
X023450Y018085D01*
X023450Y017306D01*
X023556Y017200D01*
X024216Y017200D01*
X024260Y017244D01*
X024268Y017236D01*
X024309Y017212D01*
X024354Y017200D01*
X024586Y017200D01*
X024586Y017647D01*
X024682Y017647D01*
X024682Y017200D01*
X024757Y017200D01*
X024632Y017075D01*
X024288Y017075D01*
X024193Y017035D01*
X024033Y016875D01*
X023960Y016802D01*
X023958Y016799D01*
X023914Y016810D01*
X023683Y016810D01*
X023683Y016383D01*
X023587Y016383D01*
X023587Y016810D01*
X023355Y016810D01*
X023309Y016798D01*
X023309Y016798D01*
X023296Y016810D01*
X022635Y016810D01*
X022570Y016745D01*
X022484Y016830D01*
X021824Y016830D01*
X021780Y016786D01*
X021736Y016830D01*
X021076Y016830D01*
X020970Y016725D01*
X020970Y016640D01*
X020874Y016736D01*
X020735Y016793D01*
X020585Y016793D01*
X020446Y016736D01*
X020371Y016661D01*
X020344Y016661D01*
X020344Y016687D01*
X020344Y016770D01*
X020331Y016816D01*
X020308Y016857D01*
X020274Y016891D01*
X020233Y016914D01*
X020187Y016927D01*
X019969Y016927D01*
X019969Y016687D01*
X019969Y016687D01*
X020344Y016687D01*
X019969Y016687D01*
X019969Y016687D01*
X019969Y016927D01*
X019750Y016927D01*
X019704Y016914D01*
X019663Y016891D01*
X019630Y016857D01*
X019606Y016816D01*
X019594Y016770D01*
X019594Y016687D01*
X019969Y016687D01*
X019969Y016687D01*
X019969Y016671D01*
X019969Y016671D01*
X019969Y016687D01*
X019969Y016687D01*
X019594Y016687D01*
X019594Y016603D01*
X019602Y016573D01*
X019594Y016565D01*
X019594Y016040D01*
X019602Y016032D01*
X019594Y016003D01*
X019594Y015919D01*
X019969Y015919D01*
X019969Y015919D01*
X019594Y015919D01*
X019594Y015893D01*
X019317Y015893D01*
X019274Y015936D01*
X019135Y015993D01*
X018985Y015993D01*
X018846Y015936D01*
X018739Y015829D01*
X018682Y015690D01*
X018682Y015540D01*
X018739Y015401D01*
X018845Y015295D01*
X018819Y015269D01*
X018762Y015130D01*
X018762Y014980D01*
X018819Y014841D01*
X018926Y014735D01*
X019065Y014677D01*
X019215Y014677D01*
X019354Y014735D01*
X019461Y014841D01*
X019518Y014980D01*
X019518Y015108D01*
X019587Y015177D01*
X019594Y015177D01*
X019594Y015151D01*
X019594Y015068D01*
X019606Y015023D01*
X019594Y014979D01*
X019594Y014895D01*
X019594Y014812D01*
X019606Y014767D01*
X019594Y014723D01*
X019594Y014639D01*
X019594Y014556D01*
X019606Y014511D01*
X019594Y014467D01*
X019594Y014384D01*
X019969Y014384D01*
X019969Y014384D01*
X019969Y014399D01*
X019969Y014639D01*
X019969Y014639D01*
X019969Y014384D01*
X019969Y014384D01*
X019969Y014383D02*
X019969Y014144D01*
X020187Y014144D01*
X020216Y014151D01*
X020129Y014065D01*
X020129Y013671D01*
X019875Y013925D01*
X019290Y013925D01*
X019290Y014350D01*
X019155Y014485D01*
X018915Y014725D01*
X018570Y014725D01*
X018570Y016270D01*
X018435Y016405D01*
X019594Y016405D01*
X019594Y016247D02*
X018570Y016247D01*
X018570Y016088D02*
X019594Y016088D01*
X019594Y015930D02*
X019280Y015930D01*
X018840Y015930D02*
X018570Y015930D01*
X018570Y015771D02*
X018715Y015771D01*
X018682Y015613D02*
X018570Y015613D01*
X018570Y015454D02*
X018717Y015454D01*
X018845Y015296D02*
X018570Y015296D01*
X018570Y015137D02*
X018765Y015137D01*
X018762Y014979D02*
X018570Y014979D01*
X018570Y014820D02*
X018840Y014820D01*
X018979Y014662D02*
X019594Y014662D01*
X019594Y014639D02*
X019969Y014639D01*
X019594Y014639D01*
X019603Y014503D02*
X019137Y014503D01*
X019290Y014345D02*
X019594Y014345D01*
X019594Y014384D02*
X019594Y014300D01*
X019606Y014254D01*
X019630Y014213D01*
X019663Y014179D01*
X019704Y014156D01*
X019750Y014144D01*
X019969Y014144D01*
X019969Y014383D01*
X019969Y014383D01*
X019969Y014384D02*
X019594Y014384D01*
X019657Y014186D02*
X019290Y014186D01*
X019290Y014028D02*
X020129Y014028D01*
X020129Y013869D02*
X019931Y013869D01*
X020090Y013711D02*
X020129Y013711D01*
X020341Y013220D02*
X020896Y013220D01*
X020909Y013233D01*
X020909Y013232D01*
X020955Y013220D01*
X021187Y013220D01*
X021187Y013647D01*
X021283Y013647D01*
X021283Y013743D01*
X021437Y013743D01*
X021505Y013675D01*
X021860Y013675D01*
X021860Y013635D01*
X021809Y013585D01*
X021809Y012845D01*
X021915Y012740D01*
X022576Y012740D01*
X022589Y012753D01*
X022589Y012752D01*
X022635Y012740D01*
X022867Y012740D01*
X022867Y013167D01*
X022963Y013167D01*
X022963Y013263D01*
X023351Y013263D01*
X023351Y013534D01*
X023338Y013580D01*
X023329Y013595D01*
X023575Y013595D01*
X023680Y013701D01*
X023680Y014090D01*
X023583Y014186D01*
X023593Y014203D01*
X023605Y014249D01*
X023605Y014351D01*
X023459Y014351D01*
X023459Y014351D01*
X023605Y014351D01*
X023605Y014454D01*
X023598Y014479D01*
X023605Y014505D01*
X023605Y014607D01*
X023459Y014607D01*
X023459Y014607D01*
X023459Y014607D01*
X023605Y014607D01*
X023605Y014710D01*
X023598Y014735D01*
X023605Y014761D01*
X023605Y014775D01*
X023646Y014735D01*
X023785Y014677D01*
X023935Y014677D01*
X024074Y014735D01*
X024181Y014841D01*
X024238Y014980D01*
X024238Y015065D01*
X024400Y015228D01*
X024440Y015323D01*
X024440Y016547D01*
X024448Y016555D01*
X024629Y016555D01*
X024602Y016490D01*
X024602Y016340D01*
X024659Y016201D01*
X024750Y016110D01*
X024750Y013950D01*
X023925Y013125D01*
X023914Y013136D01*
X023775Y013193D01*
X023625Y013193D01*
X023486Y013136D01*
X023379Y013029D01*
X023351Y012959D01*
X023351Y013167D01*
X022963Y013167D01*
X022963Y012740D01*
X023194Y012740D01*
X023240Y012752D01*
X023281Y012776D01*
X023315Y012809D01*
X023322Y012822D01*
X023322Y012740D01*
X023379Y012601D01*
X021918Y012601D01*
X021918Y012650D02*
X021861Y012789D01*
X021754Y012896D01*
X021615Y012953D01*
X021465Y012953D01*
X021326Y012896D01*
X021235Y012805D01*
X020755Y012805D01*
X020341Y013220D01*
X020484Y013077D02*
X021809Y013077D01*
X021700Y012975D02*
X021700Y014280D01*
X021772Y014351D01*
X021470Y013711D02*
X021283Y013711D01*
X021283Y013647D02*
X021671Y013647D01*
X021671Y013376D01*
X021658Y013330D01*
X021635Y013289D01*
X021601Y013256D01*
X021560Y013232D01*
X021514Y013220D01*
X021283Y013220D01*
X021283Y013647D01*
X021283Y013552D02*
X021187Y013552D01*
X021187Y013394D02*
X021283Y013394D01*
X021283Y013235D02*
X021187Y013235D01*
X021380Y012918D02*
X020642Y012918D01*
X020309Y012601D02*
X016973Y012601D01*
X017152Y012443D02*
X020467Y012443D01*
X020565Y012345D02*
X019845Y013065D01*
X019845Y013065D01*
X019754Y012975D01*
X019615Y012917D01*
X019465Y012917D01*
X019326Y012975D01*
X019219Y013081D01*
X019193Y013145D01*
X018965Y013145D01*
X018830Y013280D01*
X018590Y013520D01*
X018590Y013570D01*
X018554Y013535D01*
X018415Y013477D01*
X018265Y013477D01*
X018126Y013535D01*
X018019Y013641D01*
X017962Y013780D01*
X017962Y013930D01*
X017979Y013971D01*
X017925Y014025D01*
X017918Y014032D01*
X017918Y013940D01*
X017861Y013801D01*
X017754Y013695D01*
X017615Y013637D01*
X017465Y013637D01*
X017326Y013695D01*
X017244Y013777D01*
X017221Y013721D01*
X017114Y013615D01*
X016975Y013557D01*
X016825Y013557D01*
X016686Y013615D01*
X016579Y013721D01*
X016522Y013860D01*
X016522Y014010D01*
X016562Y014108D01*
X016350Y014320D01*
X016350Y015310D01*
X016485Y015445D01*
X016677Y015637D01*
X017296Y015637D01*
X017296Y015798D01*
X017304Y015806D01*
X017296Y015835D01*
X017296Y015919D01*
X017671Y015919D01*
X017671Y015919D01*
X017296Y015919D01*
X017296Y016003D01*
X017304Y016032D01*
X017296Y016040D01*
X017296Y016565D01*
X017304Y016573D01*
X017296Y016603D01*
X017296Y016687D01*
X017671Y016687D01*
X017671Y016687D01*
X017671Y016687D01*
X017671Y016927D01*
X017890Y016927D01*
X017936Y016914D01*
X017977Y016891D01*
X018010Y016857D01*
X018034Y016816D01*
X018046Y016770D01*
X018046Y016687D01*
X017671Y016687D01*
X017671Y016687D01*
X018046Y016687D01*
X018046Y016661D01*
X018180Y016661D01*
X018435Y016405D01*
X018277Y016564D02*
X019594Y016564D01*
X019594Y016722D02*
X018046Y016722D01*
X017987Y016881D02*
X019653Y016881D01*
X019969Y016881D02*
X019969Y016881D01*
X019969Y016722D02*
X019969Y016722D01*
X020284Y016881D02*
X021359Y016881D01*
X021204Y017039D02*
X017608Y017039D01*
X017671Y016881D02*
X017671Y016881D01*
X017671Y016722D02*
X017671Y016722D01*
X017296Y016722D02*
X015660Y016722D01*
X015660Y016564D02*
X017296Y016564D01*
X017296Y016405D02*
X015660Y016405D01*
X015660Y016247D02*
X017296Y016247D01*
X017296Y016088D02*
X015660Y016088D01*
X015660Y015930D02*
X017296Y015930D01*
X017296Y015771D02*
X015660Y015771D01*
X015660Y015613D02*
X016652Y015613D01*
X016494Y015454D02*
X015660Y015454D01*
X015660Y015296D02*
X016350Y015296D01*
X016350Y015137D02*
X015660Y015137D01*
X015660Y014979D02*
X016350Y014979D01*
X016350Y014820D02*
X015660Y014820D01*
X015718Y014662D02*
X016350Y014662D01*
X016350Y014503D02*
X015876Y014503D01*
X016035Y014345D02*
X016350Y014345D01*
X016484Y014186D02*
X016193Y014186D01*
X016352Y014028D02*
X016529Y014028D01*
X016522Y013869D02*
X016489Y013869D01*
X016520Y013711D02*
X016590Y013711D01*
X016520Y013552D02*
X018108Y013552D01*
X017991Y013711D02*
X017770Y013711D01*
X017889Y013869D02*
X017962Y013869D01*
X017922Y014028D02*
X017918Y014028D01*
X017540Y014015D02*
X017540Y014252D01*
X017671Y014384D01*
X017310Y013711D02*
X017210Y013711D01*
X016520Y013394D02*
X018716Y013394D01*
X018590Y013552D02*
X018572Y013552D01*
X018875Y013235D02*
X016520Y013235D01*
X016520Y013077D02*
X019224Y013077D01*
X019462Y012918D02*
X016520Y012918D01*
X016520Y012760D02*
X020150Y012760D01*
X019992Y012918D02*
X019618Y012918D01*
X018901Y012149D02*
X018794Y012256D01*
X018655Y012313D01*
X018505Y012313D01*
X018366Y012256D01*
X018259Y012149D01*
X018202Y012010D01*
X018202Y011860D01*
X018259Y011721D01*
X018320Y011660D01*
X018320Y010610D01*
X018259Y010549D01*
X018202Y010410D01*
X018256Y010541D02*
X016799Y010541D01*
X017079Y010699D02*
X018320Y010699D01*
X018320Y010858D02*
X017181Y010858D01*
X017198Y011016D02*
X018320Y011016D01*
X018320Y011175D02*
X017147Y011175D01*
X017080Y011333D02*
X018320Y011333D01*
X018320Y011492D02*
X017080Y011492D01*
X017080Y011650D02*
X018320Y011650D01*
X018223Y011809D02*
X017080Y011809D01*
X017080Y011967D02*
X018202Y011967D01*
X018250Y012126D02*
X017176Y012126D01*
X017198Y012284D02*
X018435Y012284D01*
X018725Y012284D02*
X021200Y012284D01*
X021200Y012345D02*
X021200Y010530D01*
X021139Y010469D01*
X021082Y010330D01*
X021082Y010180D01*
X021125Y010075D01*
X018855Y010075D01*
X018901Y010121D01*
X018958Y010260D01*
X018958Y010410D01*
X018901Y010549D01*
X018840Y010610D01*
X018840Y011660D01*
X018901Y011721D01*
X018958Y011860D01*
X018958Y012010D01*
X018901Y012149D01*
X018910Y012126D02*
X021200Y012126D01*
X021200Y011967D02*
X018958Y011967D01*
X018937Y011809D02*
X021200Y011809D01*
X021200Y011650D02*
X018840Y011650D01*
X018840Y011492D02*
X021200Y011492D01*
X021200Y011333D02*
X018840Y011333D01*
X018840Y011175D02*
X021200Y011175D01*
X021200Y011016D02*
X018840Y011016D01*
X018840Y010858D02*
X021200Y010858D01*
X021200Y010699D02*
X018840Y010699D01*
X018904Y010541D02*
X021200Y010541D01*
X021103Y010382D02*
X018958Y010382D01*
X018943Y010224D02*
X021082Y010224D01*
X021460Y010255D02*
X021460Y012495D01*
X021540Y012575D01*
X021894Y012443D02*
X023611Y012443D01*
X023625Y012437D02*
X023775Y012437D01*
X023914Y012495D01*
X024005Y012585D01*
X024035Y012585D01*
X024170Y012720D01*
X024990Y013540D01*
X024990Y011280D01*
X024899Y011189D01*
X024842Y011050D01*
X024842Y010900D01*
X024899Y010761D01*
X025006Y010655D01*
X025145Y010597D01*
X025295Y010597D01*
X025434Y010655D01*
X025541Y010761D01*
X025598Y010900D01*
X025598Y011050D01*
X025541Y011189D01*
X025450Y011280D01*
X025450Y011540D01*
X025685Y011305D01*
X026835Y011305D01*
X026926Y011215D01*
X027065Y011157D01*
X027215Y011157D01*
X027354Y011215D01*
X027461Y011321D01*
X027498Y011412D01*
X027760Y011150D01*
X027760Y010850D01*
X027699Y010789D01*
X027642Y010650D01*
X027642Y010500D01*
X027699Y010361D01*
X027806Y010255D01*
X027945Y010197D01*
X028095Y010197D01*
X028151Y010220D01*
X028084Y010154D01*
X028050Y010139D01*
X027986Y010075D01*
X021795Y010075D01*
X021838Y010180D01*
X021838Y010330D01*
X021781Y010469D01*
X021720Y010530D01*
X021720Y012240D01*
X021754Y012255D01*
X021861Y012361D01*
X021918Y012500D01*
X021918Y012650D01*
X021940Y012735D02*
X021700Y012975D01*
X021700Y012918D02*
X021809Y012918D01*
X021873Y012760D02*
X021895Y012760D01*
X021940Y012735D02*
X022820Y012735D01*
X022867Y012760D02*
X022963Y012760D01*
X022900Y012815D02*
X022900Y012975D01*
X022867Y012918D02*
X022963Y012918D01*
X022900Y012815D02*
X022900Y012095D01*
X022420Y011615D01*
X022020Y011615D01*
X021960Y011555D01*
X021960Y010315D01*
X021838Y010224D02*
X027881Y010224D01*
X027691Y010382D02*
X021817Y010382D01*
X021720Y010541D02*
X027642Y010541D01*
X027662Y010699D02*
X025479Y010699D01*
X025581Y010858D02*
X027760Y010858D01*
X027760Y011016D02*
X025598Y011016D01*
X025547Y011175D02*
X027022Y011175D01*
X027258Y011175D02*
X027735Y011175D01*
X027577Y011333D02*
X027466Y011333D01*
X027875Y011685D02*
X027610Y011950D01*
X027475Y012085D01*
X025955Y012085D01*
X025930Y012110D01*
X025930Y014560D01*
X026035Y014665D01*
X026170Y014800D01*
X026170Y014917D01*
X026255Y014917D01*
X026394Y014975D01*
X026501Y015081D01*
X026558Y015220D01*
X026558Y015370D01*
X026501Y015509D01*
X026394Y015616D01*
X026271Y015667D01*
X026318Y015780D01*
X026318Y015930D01*
X026261Y016069D01*
X026154Y016176D01*
X026015Y016233D01*
X025865Y016233D01*
X025726Y016176D01*
X025724Y016173D01*
X025701Y016229D01*
X025594Y016336D01*
X025455Y016393D01*
X025358Y016393D01*
X025358Y016490D01*
X025301Y016629D01*
X025194Y016736D01*
X025077Y016784D01*
X025440Y017148D01*
X025480Y017243D01*
X025480Y018387D01*
X025840Y018748D01*
X025880Y018843D01*
X025880Y019279D01*
X025888Y019275D01*
X028832Y019275D01*
X028853Y019223D01*
X028988Y019088D01*
X029165Y019015D01*
X029955Y019015D01*
X030132Y019088D01*
X030267Y019223D01*
X030340Y019400D01*
X030340Y019465D01*
X031155Y019465D01*
X031395Y019705D01*
X031530Y019840D01*
X031530Y019857D01*
X031550Y019857D01*
X031550Y016000D01*
X031685Y015865D01*
X032225Y015325D01*
X032355Y015325D01*
X032446Y015235D01*
X032585Y015177D01*
X032735Y015177D01*
X032874Y015235D01*
X032981Y015341D01*
X033012Y015418D01*
X033019Y015411D01*
X033039Y015361D01*
X033146Y015255D01*
X033285Y015197D01*
X033435Y015197D01*
X033574Y015255D01*
X033681Y015361D01*
X033738Y015500D01*
X033738Y015650D01*
X033681Y015789D01*
X033574Y015896D01*
X033435Y015953D01*
X033285Y015953D01*
X033173Y015907D01*
X032915Y016165D01*
X032355Y016165D01*
X032250Y016270D01*
X032250Y019551D01*
X032354Y019595D01*
X032461Y019701D01*
X032518Y019840D01*
X032518Y019990D01*
X032506Y020019D01*
X032672Y020088D01*
X032807Y020223D01*
X032880Y020400D01*
X032880Y021150D01*
X032920Y021110D01*
X032920Y020400D01*
X032993Y020223D01*
X033128Y020088D01*
X033305Y020015D01*
X033495Y020015D01*
X033672Y020088D01*
X033807Y020223D01*
X033880Y020400D01*
X033880Y021191D01*
X033807Y021367D01*
X033672Y021502D01*
X033495Y021575D01*
X033305Y021575D01*
X033164Y021517D01*
X032690Y021990D01*
X032690Y022224D01*
X032799Y022333D01*
X032833Y022298D01*
X032833Y022298D01*
X033002Y022129D01*
X033002Y022020D01*
X033059Y021881D01*
X033166Y021775D01*
X033305Y021717D01*
X033455Y021717D01*
X033594Y021775D01*
X033701Y021881D01*
X033758Y022020D01*
X033758Y022170D01*
X033701Y022309D01*
X033594Y022416D01*
X033485Y022461D01*
X033548Y022523D01*
X033548Y022672D01*
X033365Y022856D01*
X033365Y022856D01*
X033322Y022898D01*
X033279Y022856D01*
X033322Y022898D01*
X033272Y022948D01*
X033272Y022948D01*
X033089Y023131D01*
X032947Y023273D01*
X032813Y023407D01*
X032672Y023549D01*
X032643Y023577D01*
X033050Y023984D01*
X033050Y024090D01*
X033141Y024181D01*
X033198Y024320D01*
X033198Y024470D01*
X033141Y024609D01*
X033034Y024716D01*
X032895Y024773D01*
X032745Y024773D01*
X032606Y024716D01*
X032499Y024609D01*
X032442Y024470D01*
X032442Y024320D01*
X032499Y024181D01*
X032548Y024132D01*
X032318Y023902D01*
X032254Y023966D01*
X032113Y024107D01*
X032021Y024200D01*
X031837Y024383D01*
X031688Y024383D01*
X031554Y024249D01*
X030969Y024249D01*
X030675Y023956D01*
X030675Y024120D01*
X030663Y024166D01*
X030663Y024167D01*
X030675Y024179D01*
X030675Y024280D01*
X030770Y024280D01*
X031155Y024665D01*
X031470Y024665D01*
X031688Y024447D01*
X031837Y024447D01*
X032021Y024630D01*
X032021Y024630D01*
X032063Y024673D01*
X032021Y024716D01*
X032063Y024673D01*
X032113Y024723D01*
X032113Y024723D01*
X032296Y024906D01*
X032425Y025035D01*
X032480Y025090D01*
X032438Y025133D01*
X032438Y025133D01*
X032480Y025090D01*
X032536Y025146D01*
X032713Y025323D01*
X032742Y025352D01*
X032830Y025264D01*
X032830Y025040D01*
X033230Y024640D01*
X033365Y024505D01*
X033395Y024505D01*
X033486Y024415D01*
X033625Y024357D01*
X033775Y024357D01*
X033914Y024415D01*
X034021Y024521D01*
X034078Y024660D01*
X034078Y024810D01*
X034021Y024949D01*
X033914Y025056D01*
X033834Y025089D01*
X033838Y025100D01*
X033838Y025218D01*
X033974Y025275D01*
X034081Y025381D01*
X034138Y025520D01*
X034138Y025624D01*
X034142Y025628D01*
X034200Y025570D01*
X034255Y025515D01*
X034298Y025557D01*
X034298Y025557D01*
X034255Y025515D01*
X034311Y025459D01*
X034488Y025282D01*
X034588Y025182D01*
X034771Y024999D01*
X034906Y024864D01*
X035047Y024723D01*
X035139Y024630D01*
X035323Y024447D01*
X035472Y024447D01*
X035595Y024571D01*
X035562Y024490D01*
X035562Y024340D01*
X035595Y024260D01*
X035472Y024383D01*
X035323Y024383D01*
X035139Y024200D01*
X035139Y024200D01*
X035097Y024157D01*
X035139Y024114D01*
X035097Y024157D01*
X035047Y024107D01*
X035047Y024107D01*
X034864Y023924D01*
X034864Y023924D01*
X034842Y023902D01*
X034753Y023991D01*
X034798Y024100D01*
X034798Y024250D01*
X034741Y024389D01*
X034634Y024496D01*
X034495Y024553D01*
X034345Y024553D01*
X034206Y024496D01*
X034099Y024389D01*
X034042Y024250D01*
X034042Y024100D01*
X034099Y023961D01*
X034206Y023855D01*
X034155Y023855D01*
X034154Y023856D02*
X034015Y023913D01*
X033865Y023913D01*
X033726Y023856D01*
X033619Y023749D01*
X033562Y023610D01*
X033562Y023460D01*
X033619Y023321D01*
X033726Y023215D01*
X033865Y023157D01*
X034015Y023157D01*
X034154Y023215D01*
X034234Y023294D01*
X034164Y023224D01*
X034029Y023090D01*
X033888Y022948D01*
X033795Y022856D01*
X033612Y022672D01*
X033612Y022523D01*
X034007Y022128D01*
X034015Y022128D01*
X034622Y021521D01*
X034584Y021540D01*
X034512Y021563D01*
X034438Y021575D01*
X034420Y021575D01*
X034420Y020815D01*
X034880Y020815D01*
X034880Y021133D01*
X034868Y021207D01*
X034845Y021279D01*
X034826Y021317D01*
X034929Y021213D01*
X034920Y021191D01*
X034920Y020400D01*
X034993Y020223D01*
X035128Y020088D01*
X035305Y020015D01*
X035495Y020015D01*
X035672Y020088D01*
X035807Y020223D01*
X035880Y020400D01*
X035880Y021060D01*
X035966Y020975D01*
X036089Y020924D01*
X036042Y020810D01*
X036042Y020660D01*
X036099Y020521D01*
X036110Y020510D01*
X035445Y019845D01*
X035205Y019845D01*
X035114Y019936D01*
X034975Y019993D01*
X034825Y019993D01*
X034686Y019936D01*
X034579Y019829D01*
X034522Y019690D01*
X034522Y019540D01*
X034532Y019515D01*
X034144Y019515D01*
X033882Y019777D01*
X033861Y019829D01*
X033754Y019936D01*
X033615Y019993D01*
X033465Y019993D01*
X033326Y019936D01*
X033219Y019829D01*
X033162Y019690D01*
X033162Y019540D01*
X033219Y019401D01*
X033326Y019295D01*
X033465Y019237D01*
X033574Y019237D01*
X033766Y019045D01*
X033850Y018961D01*
X033960Y018915D01*
X035680Y018915D01*
X035790Y018961D01*
X036544Y019715D01*
X036827Y019715D01*
X036773Y019514D01*
X036773Y019243D01*
X036844Y018980D01*
X036979Y018745D01*
X037171Y018553D01*
X037407Y018417D01*
X037669Y018347D01*
X037940Y018347D01*
X038203Y018417D01*
X038438Y018553D01*
X038630Y018745D01*
X038765Y018980D01*
X038836Y019243D01*
X038836Y019514D01*
X038765Y019776D01*
X038630Y020012D01*
X038438Y020204D01*
X038238Y020319D01*
X038238Y020410D01*
X038181Y020549D01*
X038074Y020656D01*
X037935Y020713D01*
X037785Y020713D01*
X037646Y020656D01*
X037620Y020630D01*
X037530Y020720D01*
X037530Y021070D01*
X037395Y021205D01*
X036130Y022470D01*
X036181Y022521D01*
X036238Y022660D01*
X036238Y022810D01*
X036181Y022949D01*
X036074Y023056D01*
X035935Y023113D01*
X035785Y023113D01*
X035646Y023056D01*
X035539Y022949D01*
X035532Y022930D01*
X035245Y023217D01*
X035316Y023287D01*
X035337Y023308D01*
X035366Y023280D01*
X035501Y023145D01*
X036275Y023145D01*
X036286Y023135D01*
X036425Y023077D01*
X036575Y023077D01*
X036714Y023135D01*
X036821Y023241D01*
X036878Y023380D01*
X036878Y023530D01*
X036821Y023669D01*
X036714Y023776D01*
X036682Y023789D01*
X037403Y023789D01*
X037450Y023675D01*
X037454Y023670D01*
X037406Y023670D01*
X037360Y023658D01*
X037319Y023634D01*
X037285Y023601D01*
X037262Y023560D01*
X037249Y023514D01*
X037249Y023243D01*
X037637Y023243D01*
X037637Y023147D01*
X037249Y023147D01*
X037249Y022876D01*
X037262Y022830D01*
X037285Y022789D01*
X037319Y022756D01*
X037360Y022732D01*
X037406Y022720D01*
X037637Y022720D01*
X037637Y023147D01*
X037733Y023147D01*
X037733Y022720D01*
X037965Y022720D01*
X038011Y022732D01*
X038011Y022733D01*
X038024Y022720D01*
X038685Y022720D01*
X038791Y022825D01*
X038791Y023475D01*
X038931Y023475D01*
X039030Y023516D01*
X039030Y008151D01*
X039020Y008112D01*
X039030Y008046D01*
X039030Y007980D01*
X039032Y007974D01*
X039031Y007969D01*
X039017Y007947D01*
X038996Y007931D01*
X038975Y007925D01*
X038939Y007925D01*
X038853Y007931D01*
X038834Y007925D01*
X038194Y007925D01*
X038194Y008693D01*
X038088Y008799D01*
X037152Y008799D01*
X037087Y008734D01*
X037054Y008734D01*
X036989Y008799D01*
X036131Y008799D01*
X036110Y008778D01*
X036089Y008799D01*
X035286Y008799D01*
X035286Y008911D01*
X035583Y008911D01*
X035583Y009329D01*
X035737Y009329D01*
X035737Y008911D01*
X036038Y008911D01*
X036084Y008924D01*
X036110Y008939D01*
X036136Y008924D01*
X036182Y008911D01*
X036483Y008911D01*
X036483Y009329D01*
X036637Y009329D01*
X036637Y008911D01*
X036938Y008911D01*
X036984Y008924D01*
X037025Y008947D01*
X037058Y008981D01*
X037067Y008996D01*
X037152Y008911D01*
X038088Y008911D01*
X038194Y009017D01*
X038194Y009796D01*
X038088Y009901D01*
X037850Y009901D01*
X037850Y010230D01*
X037838Y010242D01*
X037838Y010370D01*
X037781Y010509D01*
X037674Y010616D01*
X037535Y010673D01*
X037385Y010673D01*
X037246Y010616D01*
X037139Y010509D01*
X037082Y010370D01*
X037082Y010220D01*
X037139Y010081D01*
X037246Y009975D01*
X037385Y009917D01*
X037390Y009917D01*
X037390Y009901D01*
X037152Y009901D01*
X037067Y009817D01*
X037058Y009832D01*
X037025Y009865D01*
X036984Y009889D01*
X036938Y009901D01*
X036637Y009901D01*
X036637Y009484D01*
X036483Y009484D01*
X036483Y009901D01*
X036182Y009901D01*
X036136Y009889D01*
X036110Y009874D01*
X036084Y009889D01*
X036038Y009901D01*
X035737Y009901D01*
X035737Y009484D01*
X035583Y009484D01*
X035583Y009901D01*
X035282Y009901D01*
X035236Y009889D01*
X035195Y009865D01*
X035162Y009832D01*
X035138Y009791D01*
X035126Y009745D01*
X035126Y009484D01*
X035583Y009484D01*
X035583Y009329D01*
X035126Y009329D01*
X035126Y009109D01*
X034869Y009109D01*
X034869Y008653D01*
X034714Y008653D01*
X034714Y009109D01*
X034530Y009109D01*
X034627Y009206D01*
X034627Y009526D01*
X034627Y009528D01*
X034627Y009623D01*
X034627Y009626D01*
X034627Y009945D01*
X034521Y010051D01*
X033742Y010051D01*
X033734Y010042D01*
X033703Y010051D01*
X033620Y010051D01*
X033620Y009576D01*
X033620Y009576D01*
X033620Y010051D01*
X033537Y010051D01*
X033506Y010042D01*
X033497Y010051D01*
X032207Y010051D01*
X032198Y010042D01*
X032167Y010051D01*
X032084Y010051D01*
X032002Y010051D01*
X031970Y010042D01*
X031962Y010051D01*
X031439Y010051D01*
X031354Y010136D01*
X031215Y010193D01*
X031065Y010193D01*
X030926Y010136D01*
X030819Y010029D01*
X030762Y009890D01*
X030762Y009740D01*
X030773Y009713D01*
X030665Y009713D01*
X030526Y009656D01*
X030475Y009605D01*
X030475Y010044D01*
X030057Y010044D01*
X030057Y009351D01*
X030319Y009351D01*
X030362Y009362D01*
X030362Y009260D01*
X030419Y009121D01*
X030526Y009015D01*
X030665Y008957D01*
X030815Y008957D01*
X030954Y009015D01*
X031005Y009065D01*
X031065Y009065D01*
X031214Y008916D01*
X031214Y008225D01*
X030538Y008225D01*
X030475Y008288D01*
X030475Y009054D01*
X030370Y009159D01*
X029818Y009159D01*
X029717Y009260D01*
X029559Y009325D01*
X028714Y009325D01*
X029390Y010001D01*
X029474Y010085D01*
X029520Y010195D01*
X029520Y010199D01*
X029903Y010199D01*
X029903Y010892D01*
X029641Y010892D01*
X029596Y010880D01*
X029555Y010856D01*
X029521Y010822D01*
X029520Y010821D01*
X029520Y011631D01*
X029805Y011916D01*
X029819Y011881D01*
X029926Y011775D01*
X030065Y011717D01*
X030215Y011717D01*
X030354Y011775D01*
X030445Y011865D01*
X031333Y011865D01*
X031333Y011765D01*
X031439Y011659D01*
X032474Y011659D01*
X032482Y011668D01*
X032513Y011659D01*
X032596Y011659D01*
X032596Y012135D01*
X032596Y012610D01*
X032580Y012610D01*
X032580Y012727D01*
X032612Y012695D01*
X032612Y012610D01*
X032596Y012610D01*
X032596Y012135D01*
X032596Y012135D01*
X032596Y010919D01*
X032660Y010855D01*
X032900Y010858D02*
X030402Y010858D01*
X030405Y010856D02*
X030364Y010880D01*
X030319Y010892D01*
X030057Y010892D01*
X030057Y010199D01*
X029903Y010199D01*
X029903Y010044D01*
X030057Y010044D01*
X030057Y010199D01*
X030475Y010199D01*
X030475Y010735D01*
X030463Y010781D01*
X030439Y010822D01*
X030405Y010856D01*
X030475Y010699D02*
X031530Y010699D01*
X031530Y010775D02*
X031530Y010331D01*
X031542Y010286D01*
X031566Y010245D01*
X031599Y010211D01*
X031641Y010187D01*
X031686Y010175D01*
X032900Y010175D01*
X032900Y010775D01*
X033060Y010775D01*
X033060Y010175D01*
X034274Y010175D01*
X034319Y010187D01*
X034361Y010211D01*
X034394Y010245D01*
X034418Y010286D01*
X034430Y010331D01*
X034430Y010775D01*
X033060Y010775D01*
X033060Y010935D01*
X034430Y010935D01*
X034430Y011379D01*
X034418Y011425D01*
X034394Y011466D01*
X034361Y011499D01*
X034319Y011523D01*
X034274Y011535D01*
X033060Y011535D01*
X033060Y010935D01*
X032900Y010935D01*
X032900Y010775D01*
X031530Y010775D01*
X031530Y010935D02*
X032900Y010935D01*
X032900Y011535D01*
X031686Y011535D01*
X031641Y011523D01*
X031599Y011499D01*
X031566Y011466D01*
X031542Y011425D01*
X031530Y011379D01*
X031530Y010935D01*
X031530Y011016D02*
X029520Y011016D01*
X029520Y010858D02*
X029558Y010858D01*
X029520Y011175D02*
X031530Y011175D01*
X031530Y011333D02*
X029520Y011333D01*
X029520Y011492D02*
X031592Y011492D01*
X031333Y011809D02*
X030388Y011809D01*
X029892Y011809D02*
X029698Y011809D01*
X029539Y011650D02*
X034617Y011650D01*
X034606Y011655D02*
X034745Y011597D01*
X034895Y011597D01*
X035034Y011655D01*
X035141Y011761D01*
X035198Y011900D01*
X035198Y012050D01*
X035141Y012189D01*
X035034Y012296D01*
X034895Y012353D01*
X034760Y012353D01*
X034708Y012375D01*
X034627Y012375D01*
X034627Y012504D01*
X034521Y012610D01*
X034254Y012610D01*
X034246Y012602D01*
X034214Y012610D01*
X034132Y012610D01*
X034132Y012135D01*
X034132Y012135D01*
X034132Y012610D01*
X034049Y012610D01*
X034004Y012598D01*
X033958Y012610D01*
X033876Y012610D01*
X033876Y012135D01*
X033876Y012135D01*
X034115Y012135D01*
X034132Y012135D01*
X034132Y011367D01*
X033620Y010855D01*
X033620Y010775D02*
X033700Y010855D01*
X033620Y010775D02*
X033620Y010615D01*
X033876Y010871D01*
X033876Y012135D01*
X033876Y012135D01*
X033876Y012610D01*
X033860Y012610D01*
X033860Y012751D01*
X033874Y012765D01*
X033920Y012875D01*
X033920Y013315D01*
X033874Y013425D01*
X032754Y014545D01*
X032670Y014629D01*
X032560Y014675D01*
X030404Y014675D01*
X030034Y015046D01*
X030034Y017429D01*
X030138Y017533D01*
X030211Y017709D01*
X030211Y017898D01*
X030138Y018074D01*
X030004Y018208D01*
X029829Y018280D01*
X029639Y018280D01*
X029464Y018208D01*
X029329Y018074D01*
X029257Y017898D01*
X029257Y017709D01*
X029329Y017533D01*
X029434Y017429D01*
X029434Y014862D01*
X029479Y014751D01*
X029564Y014667D01*
X029929Y014302D01*
X029829Y014343D01*
X029639Y014343D01*
X029464Y014271D01*
X029329Y014137D01*
X029257Y013961D01*
X029257Y013772D01*
X029329Y013596D01*
X029464Y013462D01*
X029639Y013390D01*
X029829Y013390D01*
X029832Y013391D01*
X028890Y012449D01*
X028806Y012365D01*
X028799Y012348D01*
X028590Y012139D01*
X028506Y012055D01*
X028460Y011945D01*
X028460Y011494D01*
X028421Y011589D01*
X028314Y011696D01*
X028175Y011753D01*
X028025Y011753D01*
X027886Y011696D01*
X027875Y011685D01*
X027752Y011809D02*
X028460Y011809D01*
X028469Y011967D02*
X027593Y011967D01*
X028100Y011375D02*
X028020Y011295D01*
X028020Y010575D01*
X028360Y011650D02*
X028460Y011650D01*
X028576Y012126D02*
X025930Y012126D01*
X025930Y012284D02*
X028735Y012284D01*
X028883Y012443D02*
X025930Y012443D01*
X025930Y012601D02*
X029042Y012601D01*
X029200Y012760D02*
X025930Y012760D01*
X025930Y012918D02*
X029359Y012918D01*
X029517Y013077D02*
X025930Y013077D01*
X025930Y013235D02*
X029676Y013235D01*
X029630Y013394D02*
X025930Y013394D01*
X025930Y013552D02*
X029374Y013552D01*
X029282Y013711D02*
X025930Y013711D01*
X025930Y013869D02*
X029257Y013869D01*
X029284Y014028D02*
X025930Y014028D01*
X025930Y014186D02*
X029379Y014186D01*
X029728Y014503D02*
X025930Y014503D01*
X025930Y014345D02*
X029886Y014345D01*
X029569Y014662D02*
X026032Y014662D01*
X026170Y014820D02*
X029451Y014820D01*
X029434Y014979D02*
X026398Y014979D01*
X026524Y015137D02*
X029434Y015137D01*
X029434Y015296D02*
X026558Y015296D01*
X026523Y015454D02*
X029434Y015454D01*
X029434Y015613D02*
X026397Y015613D01*
X026314Y015771D02*
X029434Y015771D01*
X029434Y015930D02*
X026318Y015930D01*
X026242Y016088D02*
X029434Y016088D01*
X029434Y016247D02*
X025683Y016247D01*
X025358Y016405D02*
X029434Y016405D01*
X029434Y016564D02*
X025328Y016564D01*
X025208Y016722D02*
X029434Y016722D01*
X029434Y016881D02*
X025173Y016881D01*
X025332Y017039D02*
X029434Y017039D01*
X029434Y017198D02*
X025461Y017198D01*
X025480Y017356D02*
X029434Y017356D01*
X029348Y017515D02*
X025480Y017515D01*
X025480Y017673D02*
X029272Y017673D01*
X029257Y017832D02*
X025480Y017832D01*
X025480Y017990D02*
X029295Y017990D01*
X029404Y018149D02*
X025480Y018149D01*
X025480Y018307D02*
X031550Y018307D01*
X031550Y018149D02*
X030063Y018149D01*
X030173Y017990D02*
X031550Y017990D01*
X031550Y017832D02*
X030211Y017832D01*
X030196Y017673D02*
X031550Y017673D01*
X031550Y017515D02*
X030119Y017515D01*
X030034Y017356D02*
X031550Y017356D01*
X031550Y017198D02*
X030034Y017198D01*
X030034Y017039D02*
X031550Y017039D01*
X031550Y016881D02*
X030034Y016881D01*
X030034Y016722D02*
X031550Y016722D01*
X031550Y016564D02*
X030034Y016564D01*
X030034Y016405D02*
X031550Y016405D01*
X031550Y016247D02*
X030034Y016247D01*
X030034Y016088D02*
X031550Y016088D01*
X031620Y015930D02*
X030034Y015930D01*
X030034Y015771D02*
X031779Y015771D01*
X031937Y015613D02*
X030034Y015613D01*
X030034Y015454D02*
X032096Y015454D01*
X032385Y015296D02*
X030034Y015296D01*
X030034Y015137D02*
X039030Y015137D01*
X039030Y014979D02*
X030101Y014979D01*
X030259Y014820D02*
X039030Y014820D01*
X039030Y014662D02*
X032592Y014662D01*
X032796Y014503D02*
X039030Y014503D01*
X039030Y014345D02*
X032955Y014345D01*
X033113Y014186D02*
X039030Y014186D01*
X039030Y014028D02*
X033272Y014028D01*
X033430Y013869D02*
X039030Y013869D01*
X039030Y013711D02*
X033589Y013711D01*
X033747Y013552D02*
X039030Y013552D01*
X039030Y013394D02*
X033887Y013394D01*
X033920Y013235D02*
X037376Y013235D01*
X037407Y013253D02*
X037171Y013117D01*
X036979Y012925D01*
X036844Y012690D01*
X036773Y012428D01*
X036773Y012156D01*
X036844Y011894D01*
X036979Y011659D01*
X037171Y011467D01*
X037407Y011331D01*
X037669Y011261D01*
X037940Y011261D01*
X038203Y011331D01*
X038438Y011467D01*
X038630Y011659D01*
X038765Y011894D01*
X038836Y012156D01*
X038836Y012428D01*
X038765Y012690D01*
X038630Y012925D01*
X038438Y013117D01*
X038203Y013253D01*
X037940Y013323D01*
X037669Y013323D01*
X037407Y013253D01*
X037131Y013077D02*
X033920Y013077D01*
X033920Y012918D02*
X036975Y012918D01*
X036884Y012760D02*
X033869Y012760D01*
X033876Y012601D02*
X033876Y012601D01*
X033991Y012601D02*
X034016Y012601D01*
X034132Y012601D02*
X034132Y012601D01*
X034132Y012443D02*
X034132Y012443D01*
X034132Y012284D02*
X034132Y012284D01*
X034132Y012135D02*
X034132Y012135D01*
X034132Y011659D01*
X034214Y011659D01*
X034246Y011668D01*
X034254Y011659D01*
X034521Y011659D01*
X034561Y011699D01*
X034606Y011655D01*
X034368Y011492D02*
X037146Y011492D01*
X036988Y011650D02*
X035023Y011650D01*
X035160Y011809D02*
X036893Y011809D01*
X036824Y011967D02*
X035198Y011967D01*
X035167Y012126D02*
X036782Y012126D01*
X036773Y012284D02*
X035046Y012284D01*
X034627Y012443D02*
X036777Y012443D01*
X036820Y012601D02*
X034530Y012601D01*
X034132Y012135D02*
X034132Y012135D01*
X034132Y011659D01*
X034049Y011659D01*
X034004Y011671D01*
X033958Y011659D01*
X033876Y011659D01*
X033876Y012135D01*
X034132Y012135D01*
X034132Y012126D02*
X034132Y012126D01*
X034132Y011967D02*
X034132Y011967D01*
X034132Y011809D02*
X034132Y011809D01*
X033876Y011809D02*
X033876Y011809D01*
X033876Y011659D02*
X033876Y012135D01*
X033876Y012135D01*
X033876Y012126D02*
X033876Y012126D01*
X033876Y012284D02*
X033876Y012284D01*
X033876Y012443D02*
X033876Y012443D01*
X033364Y012443D02*
X033364Y012443D01*
X033364Y012601D02*
X033364Y012601D01*
X033364Y012610D02*
X033364Y012135D01*
X033364Y012135D01*
X033364Y012610D01*
X033380Y012610D01*
X033380Y012751D01*
X033366Y012765D01*
X033348Y012808D01*
X033348Y012610D01*
X033364Y012610D01*
X033348Y012760D02*
X033371Y012760D01*
X033620Y012935D02*
X033620Y012935D01*
X033108Y013207D02*
X032660Y013655D01*
X032100Y013575D02*
X032852Y012823D01*
X032596Y012601D02*
X032596Y012601D01*
X032596Y012443D02*
X032596Y012443D01*
X032596Y012284D02*
X032596Y012284D01*
X032596Y012135D02*
X032596Y011659D01*
X032679Y011659D01*
X032710Y011668D01*
X032718Y011659D01*
X033242Y011659D01*
X033250Y011668D01*
X033281Y011659D01*
X033364Y011659D01*
X033447Y011659D01*
X033478Y011668D01*
X033486Y011659D01*
X033753Y011659D01*
X033762Y011668D01*
X033793Y011659D01*
X033876Y011659D01*
X033876Y011967D02*
X033876Y011967D01*
X033364Y011967D02*
X033364Y011967D01*
X033364Y011809D02*
X033364Y011809D01*
X033364Y011659D02*
X033364Y012135D01*
X033364Y010919D01*
X033220Y010775D01*
X033060Y010699D02*
X032900Y010699D01*
X032900Y010541D02*
X033060Y010541D01*
X033060Y010382D02*
X032900Y010382D01*
X032900Y010224D02*
X033060Y010224D01*
X033620Y009907D02*
X033620Y009907D01*
X033620Y009748D02*
X033620Y009748D01*
X033620Y009590D02*
X033620Y009590D01*
X033620Y009576D02*
X033620Y009109D01*
X033620Y009109D01*
X033620Y009576D01*
X033620Y009576D01*
X033620Y009431D02*
X033620Y009431D01*
X033620Y009273D02*
X033620Y009273D01*
X033620Y009114D02*
X033620Y009114D01*
X034087Y009100D02*
X034418Y009100D01*
X034407Y009097D01*
X034366Y009073D01*
X034332Y009040D01*
X034308Y008999D01*
X034296Y008953D01*
X034296Y008653D01*
X034714Y008653D01*
X034714Y008498D01*
X034296Y008498D01*
X034296Y008225D01*
X034184Y008225D01*
X034184Y009004D01*
X034087Y009100D01*
X034184Y008956D02*
X034297Y008956D01*
X034296Y008797D02*
X034184Y008797D01*
X034184Y008639D02*
X034714Y008639D01*
X034714Y008797D02*
X034869Y008797D01*
X034869Y008956D02*
X034714Y008956D01*
X034535Y009114D02*
X035126Y009114D01*
X035126Y009273D02*
X034627Y009273D01*
X034627Y009431D02*
X035583Y009431D01*
X035737Y009431D02*
X036483Y009431D01*
X036483Y009484D02*
X036483Y009329D01*
X036026Y009329D01*
X035737Y009329D01*
X035737Y009484D01*
X036483Y009484D01*
X036483Y009590D02*
X036637Y009590D01*
X036637Y009748D02*
X036483Y009748D01*
X036483Y009273D02*
X036637Y009273D01*
X036637Y009114D02*
X036483Y009114D01*
X036483Y008956D02*
X036637Y008956D01*
X036991Y008797D02*
X037150Y008797D01*
X037107Y008956D02*
X037033Y008956D01*
X036129Y008797D02*
X036091Y008797D01*
X035737Y008956D02*
X035583Y008956D01*
X035583Y009114D02*
X035737Y009114D01*
X035737Y009273D02*
X035583Y009273D01*
X035583Y009590D02*
X035737Y009590D01*
X035737Y009748D02*
X035583Y009748D01*
X035127Y009748D02*
X034627Y009748D01*
X034627Y009590D02*
X035126Y009590D01*
X034627Y009907D02*
X037390Y009907D01*
X037155Y010065D02*
X031425Y010065D01*
X031587Y010224D02*
X030475Y010224D01*
X030475Y010382D02*
X031530Y010382D01*
X031530Y010541D02*
X030475Y010541D01*
X030057Y010541D02*
X029903Y010541D01*
X029903Y010699D02*
X030057Y010699D01*
X030057Y010858D02*
X029903Y010858D01*
X029903Y010382D02*
X030057Y010382D01*
X030057Y010224D02*
X029903Y010224D01*
X029903Y010065D02*
X029454Y010065D01*
X029485Y010044D02*
X029485Y009507D01*
X029497Y009461D01*
X029521Y009420D01*
X029555Y009387D01*
X029596Y009363D01*
X029641Y009351D01*
X029903Y009351D01*
X029903Y010044D01*
X029485Y010044D01*
X029485Y009907D02*
X029296Y009907D01*
X029137Y009748D02*
X029485Y009748D01*
X029485Y009590D02*
X028979Y009590D01*
X028820Y009431D02*
X029515Y009431D01*
X029686Y009273D02*
X030362Y009273D01*
X030415Y009114D02*
X030426Y009114D01*
X030475Y008956D02*
X031174Y008956D01*
X031214Y008797D02*
X030475Y008797D01*
X030475Y008639D02*
X031214Y008639D01*
X031214Y008480D02*
X030475Y008480D01*
X030475Y008322D02*
X031214Y008322D01*
X030057Y009431D02*
X029903Y009431D01*
X029903Y009590D02*
X030057Y009590D01*
X030057Y009748D02*
X029903Y009748D01*
X029903Y009907D02*
X030057Y009907D01*
X030057Y010065D02*
X030855Y010065D01*
X030769Y009907D02*
X030475Y009907D01*
X030475Y009748D02*
X030762Y009748D01*
X032084Y009748D02*
X032084Y009748D01*
X032084Y009590D02*
X032084Y009590D01*
X032084Y009576D02*
X032084Y010051D01*
X032084Y009576D01*
X032084Y009576D01*
X032084Y010679D01*
X032220Y010815D01*
X032900Y011016D02*
X033060Y011016D01*
X033060Y010858D02*
X039030Y010858D01*
X039030Y011016D02*
X034430Y011016D01*
X034430Y011175D02*
X039030Y011175D01*
X039030Y011333D02*
X038206Y011333D01*
X038463Y011492D02*
X039030Y011492D01*
X039030Y011650D02*
X038621Y011650D01*
X038716Y011809D02*
X039030Y011809D01*
X039030Y011967D02*
X038785Y011967D01*
X038828Y012126D02*
X039030Y012126D01*
X039030Y012284D02*
X038836Y012284D01*
X038832Y012443D02*
X039030Y012443D01*
X039030Y012601D02*
X038789Y012601D01*
X038725Y012760D02*
X039030Y012760D01*
X039030Y012918D02*
X038634Y012918D01*
X038478Y013077D02*
X039030Y013077D01*
X039030Y013235D02*
X038233Y013235D01*
X037403Y011333D02*
X034430Y011333D01*
X034430Y010699D02*
X039030Y010699D01*
X039030Y010541D02*
X037749Y010541D01*
X037833Y010382D02*
X039030Y010382D01*
X039030Y010224D02*
X037850Y010224D01*
X037850Y010065D02*
X039030Y010065D01*
X039030Y009907D02*
X037850Y009907D01*
X038194Y009748D02*
X039030Y009748D01*
X039030Y009590D02*
X038194Y009590D01*
X038194Y009431D02*
X039030Y009431D01*
X039030Y009273D02*
X038194Y009273D01*
X038194Y009114D02*
X039030Y009114D01*
X039030Y008956D02*
X038133Y008956D01*
X038090Y008797D02*
X039030Y008797D01*
X039030Y008639D02*
X038194Y008639D01*
X038194Y008480D02*
X039030Y008480D01*
X039030Y008322D02*
X038194Y008322D01*
X038194Y008163D02*
X039030Y008163D01*
X039030Y008005D02*
X038194Y008005D01*
X037082Y010224D02*
X034373Y010224D01*
X034430Y010382D02*
X037087Y010382D01*
X037171Y010541D02*
X034430Y010541D01*
X033060Y011175D02*
X032900Y011175D01*
X032900Y011333D02*
X033060Y011333D01*
X033060Y011492D02*
X032900Y011492D01*
X032596Y011809D02*
X032596Y011809D01*
X032596Y011967D02*
X032596Y011967D01*
X032596Y012126D02*
X032596Y012126D01*
X032596Y012135D02*
X032596Y012135D01*
X032340Y012855D02*
X032060Y013135D01*
X032020Y013175D01*
X033364Y012284D02*
X033364Y012284D01*
X033364Y012135D02*
X033364Y012135D01*
X033364Y011659D01*
X033364Y012126D02*
X033364Y012126D01*
X032084Y009907D02*
X032084Y009907D01*
X034184Y008480D02*
X034296Y008480D01*
X034296Y008322D02*
X034184Y008322D01*
X029564Y014667D02*
X029564Y014667D01*
X032274Y016247D02*
X039030Y016247D01*
X039030Y016405D02*
X032250Y016405D01*
X032250Y016564D02*
X039030Y016564D01*
X039030Y016722D02*
X032250Y016722D01*
X032250Y016881D02*
X039030Y016881D01*
X039030Y017039D02*
X032250Y017039D01*
X032250Y017198D02*
X039030Y017198D01*
X039030Y017356D02*
X032250Y017356D01*
X032250Y017515D02*
X039030Y017515D01*
X039030Y017673D02*
X032250Y017673D01*
X032250Y017832D02*
X039030Y017832D01*
X039030Y017990D02*
X032250Y017990D01*
X032250Y018149D02*
X039030Y018149D01*
X039030Y018307D02*
X032250Y018307D01*
X032250Y018466D02*
X037323Y018466D01*
X037101Y018624D02*
X032250Y018624D01*
X032250Y018783D02*
X036958Y018783D01*
X036866Y018941D02*
X035742Y018941D01*
X035929Y019100D02*
X036812Y019100D01*
X036773Y019258D02*
X036087Y019258D01*
X036246Y019417D02*
X036773Y019417D01*
X036790Y019575D02*
X036404Y019575D01*
X035650Y020051D02*
X035581Y020051D01*
X035492Y019892D02*
X035158Y019892D01*
X035219Y020051D02*
X034585Y020051D01*
X034584Y020050D02*
X034652Y020085D01*
X034713Y020129D01*
X034766Y020182D01*
X034811Y020244D01*
X034845Y020311D01*
X034868Y020383D01*
X034880Y020457D01*
X034880Y020775D01*
X034420Y020775D01*
X034420Y020015D01*
X034438Y020015D01*
X034512Y020027D01*
X034584Y020050D01*
X034420Y020051D02*
X034380Y020051D01*
X034380Y020015D02*
X034380Y020775D01*
X034420Y020775D01*
X034420Y020815D01*
X034380Y020815D01*
X034380Y020775D01*
X033920Y020775D01*
X033920Y020457D01*
X033932Y020383D01*
X033955Y020311D01*
X033989Y020244D01*
X034034Y020182D01*
X034087Y020129D01*
X034148Y020085D01*
X034216Y020050D01*
X034288Y020027D01*
X034362Y020015D01*
X034380Y020015D01*
X034215Y020051D02*
X033581Y020051D01*
X033793Y020209D02*
X034014Y020209D01*
X033937Y020368D02*
X033867Y020368D01*
X033880Y020526D02*
X033920Y020526D01*
X033920Y020685D02*
X033880Y020685D01*
X033920Y020815D02*
X034380Y020815D01*
X034380Y021575D01*
X034362Y021575D01*
X034288Y021563D01*
X034216Y021540D01*
X034148Y021506D01*
X034087Y021461D01*
X034034Y021408D01*
X033989Y021347D01*
X033955Y021279D01*
X033932Y021207D01*
X033920Y021133D01*
X033920Y020815D01*
X033920Y020843D02*
X033880Y020843D01*
X033880Y021002D02*
X033920Y021002D01*
X033924Y021160D02*
X033880Y021160D01*
X033827Y021319D02*
X033975Y021319D01*
X034109Y021477D02*
X033697Y021477D01*
X033614Y021794D02*
X034348Y021794D01*
X034190Y021953D02*
X033730Y021953D01*
X033758Y022111D02*
X034031Y022111D01*
X033866Y022270D02*
X033717Y022270D01*
X033707Y022428D02*
X033564Y022428D01*
X033548Y022587D02*
X033612Y022587D01*
X033685Y022745D02*
X033475Y022745D01*
X033317Y022904D02*
X033843Y022904D01*
X033888Y022948D02*
X033888Y022948D01*
X033795Y022856D02*
X033795Y022856D01*
X034002Y023062D02*
X033158Y023062D01*
X033000Y023221D02*
X033720Y023221D01*
X033595Y023379D02*
X032841Y023379D01*
X032813Y023407D02*
X032813Y023407D01*
X032683Y023538D02*
X033562Y023538D01*
X033597Y023696D02*
X032762Y023696D01*
X032921Y023855D02*
X033725Y023855D01*
X033620Y024175D02*
X033860Y024175D01*
X034100Y024415D01*
X034100Y024895D01*
X034260Y025055D01*
X034006Y024964D02*
X034806Y024964D01*
X034964Y024806D02*
X034078Y024806D01*
X034073Y024647D02*
X035123Y024647D01*
X035139Y024630D02*
X035139Y024630D01*
X035047Y024723D02*
X035047Y024723D01*
X035281Y024489D02*
X034641Y024489D01*
X034765Y024330D02*
X035270Y024330D01*
X035111Y024172D02*
X034798Y024172D01*
X034762Y024013D02*
X034953Y024013D01*
X035139Y024114D02*
X035139Y024114D01*
X035525Y024330D02*
X035566Y024330D01*
X035562Y024489D02*
X035513Y024489D01*
X035818Y023789D02*
X036318Y023789D01*
X036286Y023776D01*
X036179Y023669D01*
X036153Y023605D01*
X035691Y023605D01*
X035662Y023634D01*
X035697Y023668D01*
X035697Y023668D01*
X035818Y023789D01*
X035725Y023696D02*
X036206Y023696D01*
X036794Y023696D02*
X037441Y023696D01*
X037256Y023538D02*
X036875Y023538D01*
X036878Y023379D02*
X037249Y023379D01*
X037249Y023062D02*
X036059Y023062D01*
X036199Y022904D02*
X037249Y022904D01*
X037337Y022745D02*
X036238Y022745D01*
X036208Y022587D02*
X039030Y022587D01*
X039030Y022745D02*
X038710Y022745D01*
X038791Y022904D02*
X039030Y022904D01*
X039030Y023062D02*
X038791Y023062D01*
X038791Y023221D02*
X039030Y023221D01*
X039030Y023379D02*
X038791Y023379D01*
X038860Y024315D02*
X038860Y025095D01*
X038734Y025221D01*
X038180Y025221D01*
X038675Y025481D02*
X038675Y025552D01*
X038631Y025595D01*
X038639Y025603D01*
X038663Y025644D01*
X038675Y025689D01*
X038675Y025921D01*
X038228Y025921D01*
X038228Y026017D01*
X038675Y026017D01*
X038675Y026249D01*
X038663Y026294D01*
X038639Y026336D01*
X038615Y026360D01*
X038787Y026360D01*
X038787Y026787D01*
X038883Y026787D01*
X038883Y026360D01*
X039030Y026360D01*
X039030Y025293D01*
X039007Y025315D01*
X038881Y025441D01*
X038786Y025481D01*
X038675Y025481D01*
X038634Y025598D02*
X039030Y025598D01*
X039030Y025440D02*
X038883Y025440D01*
X039007Y025315D02*
X039007Y025315D01*
X039030Y025757D02*
X038675Y025757D01*
X038675Y025915D02*
X039030Y025915D01*
X039030Y026074D02*
X038675Y026074D01*
X038634Y025969D02*
X038860Y026195D01*
X038835Y026220D01*
X038835Y026835D01*
X038835Y027575D01*
X038875Y027615D01*
X038923Y027567D02*
X038923Y027310D01*
X038883Y027310D01*
X038883Y026883D01*
X038787Y026883D01*
X038787Y027140D01*
X038827Y027140D01*
X038827Y027567D01*
X038923Y027567D01*
X038923Y027500D02*
X038827Y027500D01*
X038827Y027342D02*
X038923Y027342D01*
X038883Y027183D02*
X038827Y027183D01*
X038787Y027025D02*
X038883Y027025D01*
X038883Y026708D02*
X038787Y026708D01*
X038787Y026549D02*
X038883Y026549D01*
X038883Y026391D02*
X038787Y026391D01*
X038675Y026232D02*
X039030Y026232D01*
X038634Y025969D02*
X038180Y025969D01*
X036897Y027425D02*
X036863Y027425D01*
X036863Y028290D01*
X036758Y028395D01*
X036057Y028395D01*
X036051Y028389D01*
X035866Y028575D01*
X036453Y028798D01*
X037307Y029267D01*
X038090Y029847D01*
X038786Y030529D01*
X038786Y030529D01*
X038786Y030529D01*
X039030Y030844D01*
X039030Y028090D01*
X038923Y028090D01*
X038923Y027663D01*
X038827Y027663D01*
X038827Y028090D01*
X038595Y028090D01*
X038549Y028078D01*
X038549Y028078D01*
X038536Y028090D01*
X037875Y028090D01*
X037808Y028023D01*
X037808Y028290D01*
X037703Y028395D01*
X037002Y028395D01*
X036897Y028290D01*
X036897Y027425D01*
X036897Y027500D02*
X036863Y027500D01*
X036863Y027659D02*
X036897Y027659D01*
X036897Y027817D02*
X036863Y027817D01*
X036863Y027976D02*
X036897Y027976D01*
X036897Y028134D02*
X036863Y028134D01*
X036860Y028293D02*
X036900Y028293D01*
X036687Y028927D02*
X039030Y028927D01*
X039030Y029085D02*
X036976Y029085D01*
X037265Y029244D02*
X039030Y029244D01*
X039030Y029402D02*
X037490Y029402D01*
X037307Y029267D02*
X037307Y029267D01*
X037703Y029561D02*
X039030Y029561D01*
X039030Y029719D02*
X037917Y029719D01*
X038090Y029847D02*
X038090Y029847D01*
X038121Y029878D02*
X039030Y029878D01*
X039030Y030036D02*
X038283Y030036D01*
X038444Y030195D02*
X039030Y030195D01*
X039030Y030353D02*
X038606Y030353D01*
X038768Y030512D02*
X039030Y030512D01*
X039030Y030670D02*
X038895Y030670D01*
X039018Y030829D02*
X039030Y030829D01*
X039030Y028768D02*
X036373Y028768D01*
X036453Y028798D02*
X036453Y028798D01*
X035989Y028451D02*
X039030Y028451D01*
X039030Y028293D02*
X037805Y028293D01*
X037808Y028134D02*
X039030Y028134D01*
X038923Y027976D02*
X038827Y027976D01*
X038827Y027817D02*
X038923Y027817D01*
X039030Y028610D02*
X035958Y028610D01*
X035531Y028259D02*
X035790Y028000D01*
X035790Y027230D01*
X035673Y027113D01*
X035545Y027113D01*
X035406Y027056D01*
X035299Y026949D01*
X035242Y026810D01*
X035242Y026660D01*
X035276Y026578D01*
X034890Y026192D01*
X034890Y026283D01*
X034890Y027010D01*
X034924Y027025D01*
X035375Y027025D01*
X035265Y026866D02*
X034890Y026866D01*
X034890Y026708D02*
X035242Y026708D01*
X035247Y026549D02*
X034890Y026549D01*
X034890Y026391D02*
X035089Y026391D01*
X034930Y026232D02*
X034890Y026232D01*
X034924Y027025D02*
X035031Y027131D01*
X035088Y027270D01*
X035088Y027420D01*
X035047Y027520D01*
X035047Y027947D01*
X035143Y027947D01*
X035143Y028043D01*
X035531Y028043D01*
X035531Y028259D01*
X035531Y028134D02*
X035656Y028134D01*
X035790Y027976D02*
X035143Y027976D01*
X035143Y027947D02*
X035531Y027947D01*
X035531Y027676D01*
X035518Y027630D01*
X035495Y027589D01*
X035461Y027556D01*
X035420Y027532D01*
X035374Y027520D01*
X035143Y027520D01*
X035143Y027947D01*
X035143Y027817D02*
X035047Y027817D01*
X035047Y027659D02*
X035143Y027659D01*
X035055Y027500D02*
X035790Y027500D01*
X035790Y027342D02*
X035088Y027342D01*
X035052Y027183D02*
X035743Y027183D01*
X035790Y027659D02*
X035526Y027659D01*
X035531Y027817D02*
X035790Y027817D01*
X034090Y027525D02*
X033531Y027525D01*
X033531Y027767D01*
X033143Y027767D01*
X033143Y027863D01*
X033531Y027863D01*
X033531Y028134D01*
X033527Y028148D01*
X033622Y028143D01*
X033989Y028176D01*
X033989Y027625D01*
X034090Y027525D01*
X033989Y027659D02*
X033531Y027659D01*
X033531Y027976D02*
X033989Y027976D01*
X033989Y028134D02*
X033531Y028134D01*
X033143Y027817D02*
X033989Y027817D01*
X034138Y025598D02*
X034172Y025598D01*
X034105Y025440D02*
X034330Y025440D01*
X034311Y025459D02*
X034311Y025459D01*
X034489Y025281D02*
X033981Y025281D01*
X033838Y025123D02*
X034647Y025123D01*
X034588Y025182D02*
X034588Y025182D01*
X034199Y024489D02*
X033988Y024489D01*
X034075Y024330D02*
X033198Y024330D01*
X033191Y024489D02*
X033412Y024489D01*
X033223Y024647D02*
X033103Y024647D01*
X033064Y024806D02*
X032196Y024806D01*
X032260Y024655D02*
X032420Y024815D01*
X032580Y024815D01*
X032980Y024815D01*
X033540Y024255D01*
X033620Y024175D01*
X034042Y024172D02*
X033131Y024172D01*
X033050Y024013D02*
X034078Y024013D01*
X034154Y023856D02*
X034245Y023765D01*
X034329Y023765D01*
X034263Y023831D01*
X034206Y023855D01*
X034234Y023294D02*
X034234Y023294D01*
X034160Y023221D02*
X034160Y023221D01*
X033279Y022856D02*
X033279Y022856D01*
X032862Y022270D02*
X032736Y022270D01*
X032690Y022111D02*
X033002Y022111D01*
X033030Y021953D02*
X032728Y021953D01*
X032886Y021794D02*
X033146Y021794D01*
X033045Y021636D02*
X034507Y021636D01*
X034420Y021477D02*
X034380Y021477D01*
X034380Y021319D02*
X034420Y021319D01*
X034420Y021160D02*
X034380Y021160D01*
X034380Y021002D02*
X034420Y021002D01*
X034420Y020843D02*
X034380Y020843D01*
X034380Y020685D02*
X034420Y020685D01*
X034420Y020526D02*
X034380Y020526D01*
X034380Y020368D02*
X034420Y020368D01*
X034420Y020209D02*
X034380Y020209D01*
X034786Y020209D02*
X035007Y020209D01*
X034933Y020368D02*
X034863Y020368D01*
X034880Y020526D02*
X034920Y020526D01*
X034920Y020685D02*
X034880Y020685D01*
X034880Y020843D02*
X034920Y020843D01*
X034920Y021002D02*
X034880Y021002D01*
X034876Y021160D02*
X034920Y021160D01*
X035880Y021002D02*
X035939Y021002D01*
X035880Y020843D02*
X036055Y020843D01*
X036042Y020685D02*
X035880Y020685D01*
X035880Y020526D02*
X036097Y020526D01*
X035967Y020368D02*
X035867Y020368D01*
X035809Y020209D02*
X035793Y020209D01*
X034642Y019892D02*
X033798Y019892D01*
X033926Y019734D02*
X034540Y019734D01*
X034522Y019575D02*
X034084Y019575D01*
X033414Y019258D02*
X032250Y019258D01*
X032250Y019100D02*
X033711Y019100D01*
X033898Y018941D02*
X032250Y018941D01*
X032250Y019417D02*
X033213Y019417D01*
X033162Y019575D02*
X032307Y019575D01*
X032474Y019734D02*
X033180Y019734D01*
X033282Y019892D02*
X032518Y019892D01*
X032581Y020051D02*
X033219Y020051D01*
X033007Y020209D02*
X032793Y020209D01*
X032867Y020368D02*
X032933Y020368D01*
X032920Y020526D02*
X032880Y020526D01*
X032880Y020685D02*
X032920Y020685D01*
X032920Y020843D02*
X032880Y020843D01*
X032880Y021002D02*
X032920Y021002D01*
X031550Y019734D02*
X031424Y019734D01*
X031550Y019575D02*
X031265Y019575D01*
X031550Y019417D02*
X030340Y019417D01*
X030281Y019258D02*
X031550Y019258D01*
X031550Y019100D02*
X030143Y019100D01*
X029560Y019495D02*
X029520Y019535D01*
X025940Y019535D01*
X025620Y019855D01*
X025620Y018895D01*
X025220Y018495D01*
X025220Y017295D01*
X024740Y016815D01*
X024340Y016815D01*
X024180Y016655D01*
X024180Y015375D01*
X023860Y015055D01*
X023870Y015433D02*
X023785Y015433D01*
X023680Y015390D01*
X023680Y015770D01*
X023587Y015863D01*
X023587Y016287D01*
X023683Y016287D01*
X023683Y015860D01*
X023914Y015860D01*
X023920Y015861D01*
X023920Y015483D01*
X023870Y015433D01*
X023891Y015454D02*
X023680Y015454D01*
X023680Y015613D02*
X023920Y015613D01*
X023920Y015771D02*
X023679Y015771D01*
X023683Y015930D02*
X023587Y015930D01*
X023587Y016088D02*
X023683Y016088D01*
X023683Y016247D02*
X023587Y016247D01*
X023635Y016335D02*
X023635Y016800D01*
X023300Y017135D01*
X024420Y017135D01*
X024634Y017349D01*
X024634Y017695D01*
X024586Y017515D02*
X024682Y017515D01*
X024682Y017356D02*
X024586Y017356D01*
X024755Y017198D02*
X021918Y017198D01*
X021876Y017039D02*
X024201Y017039D01*
X024038Y016881D02*
X021721Y016881D01*
X020970Y016722D02*
X020888Y016722D01*
X020432Y016722D02*
X020344Y016722D01*
X020213Y017673D02*
X020743Y017673D01*
X021300Y018466D02*
X018496Y018466D01*
X018520Y018624D02*
X021300Y018624D01*
X021300Y018783D02*
X018520Y018783D01*
X018520Y018941D02*
X021300Y018941D01*
X021332Y019100D02*
X018520Y019100D01*
X018520Y019258D02*
X021320Y019258D01*
X021320Y019417D02*
X018520Y019417D01*
X018520Y019575D02*
X021320Y019575D01*
X021444Y019734D02*
X018520Y019734D01*
X018520Y019892D02*
X021444Y019892D01*
X021509Y019960D02*
X021509Y019960D01*
X021447Y020051D02*
X018520Y020051D01*
X018520Y020209D02*
X021444Y020209D01*
X021444Y020368D02*
X020538Y020368D01*
X020696Y020526D02*
X021444Y020526D01*
X021444Y020550D02*
X021509Y020550D01*
X021509Y020550D01*
X021509Y020550D01*
X021444Y020550D01*
X021444Y020685D02*
X020852Y020685D01*
X020977Y020843D02*
X021444Y020843D01*
X021771Y021002D02*
X021020Y021002D01*
X021020Y021160D02*
X021771Y021160D01*
X021790Y021319D02*
X021379Y021319D01*
X021221Y021319D02*
X021020Y021319D01*
X021762Y020510D02*
X021762Y020394D01*
X021762Y020354D01*
X021762Y020354D01*
X021762Y020510D01*
X021762Y020510D01*
X021762Y020368D02*
X021762Y020368D01*
X021762Y020353D02*
X021762Y020157D01*
X021762Y020157D01*
X021762Y020353D01*
X021762Y020353D01*
X021762Y020209D02*
X021762Y020209D01*
X021762Y020157D02*
X021762Y019960D01*
X021762Y019960D01*
X021762Y020157D01*
X021762Y020157D01*
X021762Y020051D02*
X021762Y020051D01*
X021762Y019960D02*
X021762Y019763D01*
X021762Y019763D01*
X021762Y019920D01*
X021762Y019960D01*
X021762Y019960D01*
X021762Y019892D02*
X021762Y019892D01*
X022014Y019960D02*
X022014Y019960D01*
X022014Y019960D01*
X022080Y019960D01*
X022080Y020041D01*
X022075Y020058D01*
X022080Y020076D01*
X022080Y020157D01*
X022080Y020237D01*
X022075Y020255D01*
X022080Y020273D01*
X022080Y020354D01*
X022080Y020434D01*
X022075Y020452D01*
X022080Y020470D01*
X022080Y020550D01*
X022014Y020550D01*
X022014Y020550D01*
X022014Y020550D01*
X022080Y020550D01*
X022080Y020675D01*
X022205Y020675D01*
X022286Y020675D01*
X022303Y020680D01*
X022321Y020675D01*
X022402Y020675D01*
X022920Y020675D01*
X022920Y019835D01*
X022080Y019835D01*
X022080Y019844D01*
X022075Y019861D01*
X022080Y019879D01*
X022080Y019960D01*
X022014Y019960D01*
X022080Y019892D02*
X022920Y019892D01*
X022920Y020051D02*
X022077Y020051D01*
X022080Y020157D02*
X022014Y020157D01*
X022014Y020157D01*
X022014Y020157D01*
X022080Y020157D01*
X022080Y020209D02*
X022920Y020209D01*
X022920Y020368D02*
X022080Y020368D01*
X022080Y020354D02*
X022014Y020354D01*
X022014Y020354D01*
X022014Y020354D01*
X022080Y020354D01*
X022080Y020526D02*
X022920Y020526D01*
X022580Y020415D02*
X022395Y020600D01*
X022205Y020600D01*
X022205Y020675D02*
X022205Y020741D01*
X022205Y020741D01*
X022205Y020741D01*
X022205Y020675D01*
X022205Y020685D02*
X022205Y020685D01*
X022402Y020685D02*
X022402Y020685D01*
X022402Y020675D02*
X022402Y020741D01*
X022402Y020741D01*
X022402Y020741D01*
X022402Y020675D01*
X022361Y020993D02*
X022250Y020993D01*
X022250Y020993D01*
X022361Y020993D01*
X022361Y020993D01*
X023556Y020857D02*
X023556Y020397D01*
X023741Y020397D01*
X023810Y020466D01*
X024550Y020466D01*
X024580Y020435D01*
X024610Y020466D01*
X025350Y020466D01*
X025455Y020360D01*
X025455Y020275D01*
X025512Y020275D01*
X025607Y020235D01*
X025767Y020075D01*
X025767Y020075D01*
X026048Y019795D01*
X028795Y019795D01*
X028670Y019920D01*
X028645Y019945D01*
X028510Y020080D01*
X028510Y020880D01*
X028005Y021385D01*
X027365Y021385D01*
X027274Y021295D01*
X027135Y021237D01*
X026985Y021237D01*
X026846Y021295D01*
X026739Y021401D01*
X026682Y021540D01*
X026682Y021552D01*
X026090Y020960D01*
X026101Y020949D01*
X026158Y020810D01*
X026158Y020660D01*
X026101Y020521D01*
X025994Y020415D01*
X025855Y020357D01*
X025705Y020357D01*
X025566Y020415D01*
X025459Y020521D01*
X025402Y020660D01*
X025402Y020810D01*
X025459Y020949D01*
X025470Y020960D01*
X025470Y020990D01*
X025605Y021125D01*
X026725Y022245D01*
X027605Y022245D01*
X027845Y022485D01*
X028755Y022485D01*
X028780Y022460D01*
X028780Y022475D01*
X029540Y022475D01*
X029540Y022515D01*
X028780Y022515D01*
X028780Y022533D01*
X028792Y022607D01*
X028815Y022679D01*
X028849Y022747D01*
X028894Y022808D01*
X028947Y022861D01*
X029008Y022906D01*
X029076Y022940D01*
X029148Y022963D01*
X029222Y022975D01*
X029540Y022975D01*
X029540Y022515D01*
X029580Y022515D01*
X029580Y022975D01*
X029898Y022975D01*
X029972Y022963D01*
X030044Y022940D01*
X030110Y022906D01*
X030110Y023070D01*
X030245Y023205D01*
X030430Y023390D01*
X030430Y023405D01*
X030248Y023405D01*
X030248Y023792D01*
X030152Y023792D01*
X030152Y023405D01*
X029881Y023405D01*
X029835Y023417D01*
X029794Y023440D01*
X029761Y023474D01*
X029737Y023515D01*
X029725Y023561D01*
X029725Y023752D01*
X029040Y023068D01*
X029040Y023068D01*
X028967Y022995D01*
X028872Y022955D01*
X028055Y022955D01*
X027994Y022895D01*
X027855Y022837D01*
X027705Y022837D01*
X027566Y022895D01*
X027459Y023001D01*
X027402Y023140D01*
X027402Y023290D01*
X027441Y023385D01*
X026755Y023385D01*
X026275Y022905D01*
X025582Y022905D01*
X025638Y022770D01*
X025638Y022620D01*
X025581Y022481D01*
X025474Y022375D01*
X025355Y022325D01*
X026005Y022325D01*
X026565Y022885D01*
X026675Y022885D01*
X026766Y022976D01*
X026905Y023033D01*
X027055Y023033D01*
X027194Y022976D01*
X027301Y022869D01*
X027358Y022730D01*
X027358Y022580D01*
X027301Y022441D01*
X027194Y022335D01*
X027055Y022277D01*
X026905Y022277D01*
X026766Y022335D01*
X026715Y022385D01*
X026330Y022000D01*
X026330Y022000D01*
X026195Y021865D01*
X025125Y021865D01*
X024690Y022300D01*
X024690Y021526D01*
X024584Y021420D01*
X024310Y021420D01*
X024195Y021305D01*
X024035Y021145D01*
X023600Y021145D01*
X023600Y020901D01*
X023556Y020857D01*
X023556Y020843D02*
X025415Y020843D01*
X025402Y020685D02*
X023556Y020685D01*
X023556Y020526D02*
X025457Y020526D01*
X025448Y020368D02*
X025679Y020368D01*
X025634Y020209D02*
X028510Y020209D01*
X028510Y020368D02*
X025881Y020368D01*
X026103Y020526D02*
X028510Y020526D01*
X028510Y020685D02*
X026158Y020685D01*
X026145Y020843D02*
X028510Y020843D01*
X028388Y021002D02*
X026132Y021002D01*
X026290Y021160D02*
X028230Y021160D01*
X028071Y021319D02*
X027298Y021319D01*
X026822Y021319D02*
X026449Y021319D01*
X026607Y021477D02*
X026708Y021477D01*
X026274Y021794D02*
X024690Y021794D01*
X024690Y021636D02*
X026115Y021636D01*
X025957Y021477D02*
X024641Y021477D01*
X024209Y021319D02*
X025798Y021319D01*
X025640Y021160D02*
X024050Y021160D01*
X023860Y020815D02*
X025220Y020815D01*
X026660Y022255D01*
X027540Y022255D01*
X028180Y022895D01*
X029540Y022895D01*
X029560Y022875D01*
X029560Y023200D01*
X030200Y023840D01*
X030525Y023840D01*
X031160Y024475D01*
X032080Y024475D01*
X032260Y024655D01*
X032037Y024647D02*
X032537Y024647D01*
X032449Y024489D02*
X031879Y024489D01*
X031890Y024330D02*
X032442Y024330D01*
X032509Y024172D02*
X032049Y024172D01*
X032021Y024200D02*
X032021Y024200D01*
X032113Y024107D02*
X032113Y024107D01*
X032207Y024013D02*
X032428Y024013D01*
X031635Y024330D02*
X030820Y024330D01*
X030891Y024172D02*
X030668Y024172D01*
X030675Y024013D02*
X030733Y024013D01*
X030608Y023888D02*
X030565Y023845D01*
X030512Y023792D01*
X030248Y023792D01*
X030248Y023888D01*
X030608Y023888D01*
X030574Y023855D02*
X030248Y023855D01*
X030248Y023696D02*
X030152Y023696D01*
X030152Y023538D02*
X030248Y023538D01*
X030419Y023379D02*
X029352Y023379D01*
X029510Y023538D02*
X029731Y023538D01*
X029725Y023696D02*
X029669Y023696D01*
X029193Y023221D02*
X030260Y023221D01*
X030110Y023062D02*
X029035Y023062D01*
X029006Y022904D02*
X028003Y022904D01*
X027780Y023215D02*
X028820Y023215D01*
X030115Y024510D01*
X030200Y024510D01*
X030979Y024489D02*
X031647Y024489D01*
X031488Y024647D02*
X031137Y024647D01*
X032021Y024716D02*
X032021Y024716D01*
X032354Y024964D02*
X032906Y024964D01*
X032830Y025123D02*
X032513Y025123D01*
X032536Y025146D02*
X032536Y025146D01*
X032448Y025123D02*
X032448Y025123D01*
X032425Y025035D02*
X032425Y025035D01*
X032671Y025281D02*
X032813Y025281D01*
X035249Y023221D02*
X035425Y023221D01*
X035316Y023287D02*
X035316Y023287D01*
X035400Y023062D02*
X035661Y023062D01*
X036172Y022428D02*
X039030Y022428D01*
X039030Y022270D02*
X036331Y022270D01*
X036489Y022111D02*
X039030Y022111D01*
X039030Y021953D02*
X036648Y021953D01*
X036806Y021794D02*
X039030Y021794D01*
X039030Y021636D02*
X036965Y021636D01*
X037123Y021477D02*
X039030Y021477D01*
X039030Y021319D02*
X037282Y021319D01*
X037440Y021160D02*
X039030Y021160D01*
X039030Y021002D02*
X037530Y021002D01*
X037530Y020843D02*
X039030Y020843D01*
X039030Y020685D02*
X038004Y020685D01*
X038190Y020526D02*
X039030Y020526D01*
X039030Y020368D02*
X038238Y020368D01*
X038428Y020209D02*
X039030Y020209D01*
X039030Y020051D02*
X038591Y020051D01*
X038699Y019892D02*
X039030Y019892D01*
X039030Y019734D02*
X038777Y019734D01*
X038819Y019575D02*
X039030Y019575D01*
X039030Y019417D02*
X038836Y019417D01*
X038836Y019258D02*
X039030Y019258D01*
X039030Y019100D02*
X038797Y019100D01*
X038743Y018941D02*
X039030Y018941D01*
X039030Y018783D02*
X038651Y018783D01*
X038509Y018624D02*
X039030Y018624D01*
X039030Y018466D02*
X038286Y018466D01*
X037716Y020685D02*
X037565Y020685D01*
X037637Y022745D02*
X037733Y022745D01*
X037733Y022904D02*
X037637Y022904D01*
X037637Y023062D02*
X037733Y023062D01*
X037637Y023221D02*
X036800Y023221D01*
X031550Y018941D02*
X025880Y018941D01*
X025880Y019100D02*
X028977Y019100D01*
X028839Y019258D02*
X025880Y019258D01*
X025855Y018783D02*
X031550Y018783D01*
X031550Y018624D02*
X025717Y018624D01*
X025558Y018466D02*
X031550Y018466D01*
X028698Y019892D02*
X025951Y019892D01*
X025792Y020051D02*
X028539Y020051D01*
X027629Y022270D02*
X026600Y022270D01*
X026591Y022111D02*
X026441Y022111D01*
X026432Y021953D02*
X026283Y021953D01*
X026108Y022428D02*
X025528Y022428D01*
X025624Y022587D02*
X026266Y022587D01*
X026425Y022745D02*
X025638Y022745D01*
X025583Y022904D02*
X026694Y022904D01*
X026432Y023062D02*
X027434Y023062D01*
X027402Y023221D02*
X026591Y023221D01*
X026749Y023379D02*
X027439Y023379D01*
X027557Y022904D02*
X027266Y022904D01*
X027352Y022745D02*
X028849Y022745D01*
X028789Y022587D02*
X027358Y022587D01*
X027288Y022428D02*
X027788Y022428D01*
X029540Y022587D02*
X029580Y022587D01*
X029560Y022495D02*
X029560Y022875D01*
X029540Y022904D02*
X029580Y022904D01*
X029580Y022745D02*
X029540Y022745D01*
X027163Y025528D02*
X027163Y025528D01*
X027024Y025598D02*
X024362Y025598D01*
X024290Y025757D02*
X026731Y025757D01*
X026750Y025738D02*
X026750Y025738D01*
X026573Y025915D02*
X024290Y025915D01*
X024290Y026074D02*
X024311Y026074D01*
X024590Y026074D02*
X024610Y026074D01*
X024610Y026232D02*
X024590Y026232D01*
X024590Y026391D02*
X024610Y026391D01*
X024610Y026549D02*
X024590Y026549D01*
X024590Y026708D02*
X024610Y026708D01*
X024610Y026866D02*
X024590Y026866D01*
X024590Y026975D02*
X024409Y026975D01*
X024140Y027245D01*
X024140Y027425D01*
X024590Y027425D01*
X024610Y027425D01*
X024610Y026975D01*
X024791Y026975D01*
X025060Y027245D01*
X025060Y027425D01*
X024610Y027425D01*
X024610Y027445D01*
X025060Y027445D01*
X025060Y027626D01*
X024791Y027895D01*
X024610Y027895D01*
X024610Y027445D01*
X024590Y027445D01*
X024590Y027425D01*
X024590Y026975D01*
X024590Y027025D02*
X024610Y027025D01*
X024610Y027183D02*
X024590Y027183D01*
X024590Y027342D02*
X024610Y027342D01*
X024590Y027445D02*
X024140Y027445D01*
X024140Y027626D01*
X024409Y027895D01*
X024590Y027895D01*
X024590Y027445D01*
X024590Y027500D02*
X024610Y027500D01*
X024610Y027659D02*
X024590Y027659D01*
X024590Y027817D02*
X024610Y027817D01*
X024869Y027817D02*
X025331Y027817D01*
X025409Y027895D02*
X025140Y027626D01*
X025140Y027245D01*
X025409Y026975D01*
X025791Y026975D01*
X026060Y027245D01*
X026060Y027626D01*
X025791Y027895D01*
X025409Y027895D01*
X025173Y027659D02*
X025027Y027659D01*
X025060Y027500D02*
X025140Y027500D01*
X025140Y027342D02*
X025060Y027342D01*
X024999Y027183D02*
X025201Y027183D01*
X025360Y027025D02*
X024840Y027025D01*
X024820Y026866D02*
X025380Y026866D01*
X025409Y026895D02*
X025140Y026626D01*
X025140Y026245D01*
X025409Y025975D01*
X025791Y025975D01*
X026060Y026245D01*
X026060Y026626D01*
X025791Y026895D01*
X025409Y026895D01*
X025222Y026708D02*
X024978Y026708D01*
X025060Y026549D02*
X025140Y026549D01*
X025140Y026391D02*
X025060Y026391D01*
X025048Y026232D02*
X025152Y026232D01*
X025311Y026074D02*
X024889Y026074D01*
X024380Y026866D02*
X024290Y026866D01*
X024290Y027025D02*
X024360Y027025D01*
X024201Y027183D02*
X024177Y027183D01*
X024140Y027342D02*
X024060Y027342D01*
X024060Y027500D02*
X024140Y027500D01*
X024173Y027659D02*
X024027Y027659D01*
X023869Y027817D02*
X024331Y027817D01*
X023331Y027817D02*
X022869Y027817D01*
X023027Y027659D02*
X023173Y027659D01*
X023140Y027500D02*
X023060Y027500D01*
X023060Y027342D02*
X023140Y027342D01*
X023201Y027183D02*
X022999Y027183D01*
X022840Y027025D02*
X023360Y027025D01*
X023380Y026866D02*
X022820Y026866D01*
X022978Y026708D02*
X023222Y026708D01*
X023140Y026549D02*
X023060Y026549D01*
X023060Y026391D02*
X023140Y026391D01*
X023128Y026232D02*
X023152Y026232D01*
X023287Y026074D02*
X023311Y026074D01*
X023445Y025915D02*
X023830Y025915D01*
X023830Y025757D02*
X023604Y025757D01*
X023762Y025598D02*
X023830Y025598D01*
X023069Y025281D02*
X016878Y025281D01*
X015524Y025440D02*
X015488Y025440D01*
X015488Y025598D02*
X015524Y025598D01*
X015524Y025757D02*
X015488Y025757D01*
X015503Y025281D02*
X015438Y025281D01*
X015398Y025123D02*
X015503Y025123D01*
X015934Y026495D02*
X015834Y026595D01*
X015920Y026595D01*
X015134Y026708D02*
X015038Y026708D01*
X015038Y026866D02*
X015134Y026866D01*
X015134Y027025D02*
X015038Y027025D01*
X014690Y027025D02*
X014686Y027025D01*
X014328Y027025D02*
X014192Y027025D01*
X014192Y027183D02*
X014328Y027183D01*
X014328Y027342D02*
X014192Y027342D01*
X014192Y027659D02*
X014328Y027659D01*
X014328Y027817D02*
X014192Y027817D01*
X013950Y027976D02*
X016633Y027976D01*
X016475Y027817D02*
X014718Y027817D01*
X014735Y027659D02*
X016388Y027659D01*
X016793Y028134D02*
X013950Y028134D01*
X012980Y028151D02*
X012791Y028151D01*
X012613Y027973D01*
X012485Y027973D01*
X012346Y027916D01*
X012239Y027809D01*
X012182Y027670D01*
X012182Y027542D01*
X011865Y027225D01*
X010630Y027225D01*
X010630Y027385D01*
X010530Y027485D01*
X010715Y027485D01*
X010820Y027590D01*
X010820Y028190D01*
X011200Y028150D01*
X011668Y028165D01*
X012612Y028165D01*
X012647Y028156D01*
X012716Y028165D01*
X012785Y028165D01*
X012820Y028179D01*
X012980Y028201D01*
X012980Y028151D01*
X012774Y028134D02*
X010820Y028134D01*
X010820Y027976D02*
X012615Y027976D01*
X012247Y027817D02*
X010820Y027817D01*
X010820Y027659D02*
X012182Y027659D01*
X012140Y027500D02*
X010730Y027500D01*
X010630Y027342D02*
X011981Y027342D01*
X012930Y027500D02*
X013070Y027500D01*
X012980Y027659D02*
X012949Y027659D01*
X011200Y028150D02*
X011200Y028150D01*
X009177Y028537D02*
X009165Y028525D01*
X009030Y028390D01*
X009030Y028317D01*
X008885Y028317D01*
X008780Y028211D01*
X008780Y028121D01*
X006620Y028121D01*
X006620Y028211D01*
X006515Y028317D01*
X005990Y028317D01*
X005990Y030808D01*
X006176Y030561D01*
X006176Y030561D01*
X006848Y029883D01*
X006848Y029883D01*
X007606Y029303D01*
X007606Y029303D01*
X008437Y028832D01*
X009177Y028537D01*
X009091Y028451D02*
X005990Y028451D01*
X005990Y028610D02*
X008996Y028610D01*
X008861Y028293D02*
X006539Y028293D01*
X006620Y028134D02*
X008780Y028134D01*
X008830Y027500D02*
X006570Y027500D01*
X005990Y027342D02*
X008509Y027342D01*
X008329Y027183D02*
X005990Y027183D01*
X005990Y027025D02*
X008282Y027025D01*
X008304Y026866D02*
X005990Y026866D01*
X005990Y026708D02*
X008413Y026708D01*
X008780Y026391D02*
X006620Y026391D01*
X006620Y026232D02*
X008780Y026232D01*
X008780Y025915D02*
X006620Y025915D01*
X006592Y025757D02*
X008808Y025757D01*
X009067Y026549D02*
X005990Y026549D01*
X006087Y026391D02*
X006183Y026391D01*
X006183Y026232D02*
X006087Y026232D01*
X006626Y025440D02*
X007055Y025440D01*
X007054Y025281D02*
X006626Y025281D01*
X006626Y025123D02*
X007461Y025123D01*
X007461Y025047D02*
X007054Y025047D01*
X007054Y024796D01*
X007066Y024750D01*
X007090Y024709D01*
X007123Y024676D01*
X007164Y024652D01*
X007210Y024640D01*
X007461Y024640D01*
X007461Y025047D01*
X007461Y024964D02*
X007597Y024964D01*
X007597Y024806D02*
X007461Y024806D01*
X007461Y024647D02*
X007597Y024647D01*
X007183Y024647D02*
X006587Y024647D01*
X006626Y024806D02*
X007054Y024806D01*
X007054Y024964D02*
X006626Y024964D01*
X007354Y023379D02*
X007471Y023379D01*
X007471Y023221D02*
X007358Y023221D01*
X007282Y023062D02*
X007471Y023062D01*
X008907Y026708D02*
X009010Y026708D01*
X009010Y027342D02*
X008811Y027342D01*
X008598Y028768D02*
X005990Y028768D01*
X005990Y028927D02*
X008270Y028927D01*
X008437Y028832D02*
X008437Y028832D01*
X007991Y029085D02*
X005990Y029085D01*
X005990Y029244D02*
X007711Y029244D01*
X007477Y029402D02*
X005990Y029402D01*
X005990Y029561D02*
X007270Y029561D01*
X007062Y029719D02*
X005990Y029719D01*
X005990Y029878D02*
X006855Y029878D01*
X006696Y030036D02*
X005990Y030036D01*
X005990Y030195D02*
X006539Y030195D01*
X006382Y030353D02*
X005990Y030353D01*
X005990Y030512D02*
X006225Y030512D01*
X006094Y030670D02*
X005990Y030670D01*
X016340Y022745D02*
X016350Y022745D01*
X016340Y022587D02*
X016389Y022587D01*
X016340Y022428D02*
X019228Y022428D01*
X019069Y022270D02*
X016340Y022270D01*
X016340Y022111D02*
X018911Y022111D01*
X018830Y021953D02*
X018770Y021953D01*
X017390Y021953D02*
X016769Y021953D01*
X016580Y021953D02*
X016580Y021953D01*
X016580Y021995D02*
X016580Y021295D01*
X016580Y021295D01*
X016580Y021995D01*
X016391Y021953D02*
X016340Y021953D01*
X016580Y021794D02*
X016580Y021794D01*
X016580Y021636D02*
X016580Y021636D01*
X016580Y021477D02*
X016580Y021477D01*
X016580Y021319D02*
X016580Y021319D01*
X017020Y021319D02*
X017140Y021319D01*
X017140Y021477D02*
X017020Y021477D01*
X017013Y021636D02*
X017140Y021636D01*
X017203Y021794D02*
X016950Y021794D01*
X017020Y021160D02*
X017140Y021160D01*
X017140Y021002D02*
X017020Y021002D01*
X016976Y020843D02*
X017183Y020843D01*
X017281Y020685D02*
X017308Y020685D01*
X017528Y020526D02*
X017981Y020526D01*
X018000Y020368D02*
X017616Y020368D01*
X017640Y020209D02*
X018000Y020209D01*
X018000Y020051D02*
X017611Y020051D01*
X018520Y020368D02*
X019182Y020368D01*
X019024Y020526D02*
X018520Y020526D01*
X018852Y020685D02*
X018865Y020685D01*
X016080Y018149D02*
X015518Y018149D01*
X015734Y017990D02*
X016134Y017990D01*
X016265Y017832D02*
X015809Y017832D01*
X015660Y017039D02*
X016112Y017039D01*
X016216Y016881D02*
X015660Y016881D01*
X016840Y016881D02*
X016880Y016881D01*
X016880Y017039D02*
X016840Y017039D01*
X016840Y017356D02*
X016880Y017356D01*
X016880Y017515D02*
X016840Y017515D01*
X016840Y017673D02*
X016880Y017673D01*
X017304Y017673D02*
X019667Y017673D01*
X019574Y017832D02*
X017455Y017832D01*
X015200Y020035D02*
X015200Y020875D01*
X014213Y018307D02*
X010280Y018307D01*
X010122Y018149D02*
X014054Y018149D01*
X013896Y017990D02*
X010050Y017990D01*
X010050Y017832D02*
X013737Y017832D01*
X013579Y017673D02*
X010050Y017673D01*
X010050Y017515D02*
X013420Y017515D01*
X013262Y017356D02*
X010050Y017356D01*
X010050Y017198D02*
X013103Y017198D01*
X012945Y017039D02*
X010050Y017039D01*
X010050Y016881D02*
X012786Y016881D01*
X012628Y016722D02*
X010050Y016722D01*
X010050Y016564D02*
X012469Y016564D01*
X012311Y016405D02*
X010050Y016405D01*
X010050Y016247D02*
X012152Y016247D01*
X011994Y016088D02*
X010050Y016088D01*
X010050Y015930D02*
X011940Y015930D01*
X011940Y015771D02*
X010050Y015771D01*
X010050Y015613D02*
X011940Y015613D01*
X011940Y015454D02*
X010050Y015454D01*
X010050Y015296D02*
X011940Y015296D01*
X011940Y015137D02*
X010050Y015137D01*
X010050Y014979D02*
X011940Y014979D01*
X011940Y014820D02*
X010050Y014820D01*
X010050Y014662D02*
X011940Y014662D01*
X011940Y014503D02*
X010050Y014503D01*
X010050Y014345D02*
X011940Y014345D01*
X011940Y014186D02*
X010050Y014186D01*
X010050Y014028D02*
X011115Y014028D01*
X010963Y013869D02*
X010050Y013869D01*
X010050Y013711D02*
X010922Y013711D01*
X010950Y013552D02*
X010050Y013552D01*
X010050Y013394D02*
X011000Y013394D01*
X011000Y013235D02*
X010050Y013235D01*
X010050Y013077D02*
X011000Y013077D01*
X011000Y012918D02*
X010050Y012918D01*
X010050Y012760D02*
X011000Y012760D01*
X011031Y012601D02*
X010050Y012601D01*
X010050Y012443D02*
X011168Y012443D01*
X011327Y012284D02*
X010050Y012284D01*
X010050Y012126D02*
X011485Y012126D01*
X011560Y011967D02*
X011236Y011967D01*
X011322Y011809D02*
X011560Y011809D01*
X011560Y011650D02*
X011322Y011650D01*
X011322Y011492D02*
X011560Y011492D01*
X011560Y011333D02*
X011322Y011333D01*
X011322Y011175D02*
X011560Y011175D01*
X011560Y011016D02*
X011322Y011016D01*
X011322Y010858D02*
X011560Y010858D01*
X011560Y010699D02*
X011322Y010699D01*
X011009Y010224D02*
X010050Y010224D01*
X010050Y010382D02*
X010225Y010382D01*
X010174Y010541D02*
X010050Y010541D01*
X010050Y010699D02*
X010174Y010699D01*
X010174Y010858D02*
X010050Y010858D01*
X010050Y011016D02*
X010174Y011016D01*
X010174Y011175D02*
X010050Y011175D01*
X010050Y011333D02*
X010174Y011333D01*
X010174Y011492D02*
X010050Y011492D01*
X010050Y011650D02*
X010174Y011650D01*
X010174Y011809D02*
X010050Y011809D01*
X010050Y011967D02*
X010260Y011967D01*
X009780Y010695D02*
X009660Y010695D01*
X009620Y010735D01*
X010050Y010065D02*
X010977Y010065D01*
X010977Y009907D02*
X010050Y009907D01*
X010050Y009748D02*
X011033Y009748D01*
X011130Y009590D02*
X010050Y009590D01*
X010050Y009431D02*
X010205Y009431D01*
X010174Y009273D02*
X010050Y009273D01*
X010050Y009114D02*
X010174Y009114D01*
X010174Y008956D02*
X010050Y008956D01*
X010050Y008797D02*
X010174Y008797D01*
X010174Y008639D02*
X010085Y008639D01*
X009109Y009431D02*
X007831Y009431D01*
X008094Y009273D02*
X008846Y009273D01*
X008746Y009114D02*
X008194Y009114D01*
X008230Y008956D02*
X008710Y008956D01*
X008710Y008797D02*
X008230Y008797D01*
X008230Y008639D02*
X008710Y008639D01*
X008710Y008480D02*
X008230Y008480D01*
X008230Y008322D02*
X008710Y008322D01*
X008710Y008163D02*
X008230Y008163D01*
X008164Y008005D02*
X008776Y008005D01*
X008684Y010382D02*
X007640Y010382D01*
X007640Y010541D02*
X008110Y010541D01*
X007952Y010699D02*
X007640Y010699D01*
X007629Y010858D02*
X007793Y010858D01*
X006397Y011650D02*
X005990Y011650D01*
X005990Y011492D02*
X006032Y011492D01*
X005990Y011809D02*
X006311Y011809D01*
X006268Y011967D02*
X005990Y011967D01*
X005990Y012126D02*
X006244Y012126D01*
X006244Y012284D02*
X005990Y012284D01*
X005990Y012443D02*
X006275Y012443D01*
X006321Y012601D02*
X005990Y012601D01*
X005990Y012760D02*
X006413Y012760D01*
X006543Y012918D02*
X005990Y012918D01*
X011485Y014028D02*
X011940Y014028D01*
X011899Y013869D02*
X011637Y013869D01*
X011678Y013711D02*
X011810Y013711D01*
X011802Y013552D02*
X011650Y013552D01*
X011600Y013394D02*
X011867Y013394D01*
X011945Y013235D02*
X011600Y013235D01*
X011600Y013077D02*
X011945Y013077D01*
X011945Y012918D02*
X011600Y012918D01*
X011700Y012760D02*
X011945Y012760D01*
X011945Y012601D02*
X011858Y012601D01*
X013130Y011967D02*
X013130Y011967D01*
X013130Y011809D02*
X013130Y011809D01*
X013130Y011650D02*
X013130Y011650D01*
X013130Y011492D02*
X013130Y011492D01*
X013130Y011333D02*
X013130Y011333D01*
X013408Y011333D02*
X013678Y011333D01*
X013678Y011175D02*
X013408Y011175D01*
X013408Y011016D02*
X013678Y011016D01*
X013678Y010858D02*
X013408Y010858D01*
X013408Y010699D02*
X013678Y010699D01*
X013678Y011492D02*
X013408Y011492D01*
X013408Y011650D02*
X013678Y011650D01*
X013678Y011809D02*
X013408Y011809D01*
X013310Y011967D02*
X013764Y011967D01*
X012828Y010406D02*
X012293Y010406D01*
X012354Y010345D01*
X012400Y010235D01*
X012400Y009699D01*
X012584Y009515D01*
X012937Y009515D01*
X012809Y009643D01*
X012709Y009884D01*
X012709Y010146D01*
X012809Y010387D01*
X012828Y010406D01*
X012807Y010382D02*
X012317Y010382D01*
X012400Y010224D02*
X012741Y010224D01*
X012709Y010065D02*
X012400Y010065D01*
X012400Y009907D02*
X012709Y009907D01*
X012765Y009748D02*
X012400Y009748D01*
X012510Y009590D02*
X012862Y009590D01*
X011860Y011186D02*
X011870Y011196D01*
X016520Y012601D02*
X016667Y012601D01*
X016820Y012255D02*
X016820Y010975D01*
X017116Y010224D02*
X018217Y010224D01*
X018580Y010335D02*
X018580Y011935D01*
X020565Y012345D02*
X021200Y012345D01*
X021720Y012126D02*
X024990Y012126D01*
X024990Y012284D02*
X021784Y012284D01*
X021720Y011967D02*
X024990Y011967D01*
X024990Y011809D02*
X021720Y011809D01*
X021720Y011650D02*
X024990Y011650D01*
X024990Y011492D02*
X021720Y011492D01*
X021720Y011333D02*
X024990Y011333D01*
X024893Y011175D02*
X021720Y011175D01*
X021720Y011016D02*
X024842Y011016D01*
X024859Y010858D02*
X021720Y010858D01*
X021720Y010699D02*
X024961Y010699D01*
X025450Y011333D02*
X025657Y011333D01*
X025498Y011492D02*
X025450Y011492D01*
X024990Y012443D02*
X023789Y012443D01*
X023625Y012437D02*
X023486Y012495D01*
X023379Y012601D01*
X023322Y012760D02*
X023253Y012760D01*
X023351Y013077D02*
X023427Y013077D01*
X023351Y013394D02*
X024193Y013394D01*
X024352Y013552D02*
X023346Y013552D01*
X023680Y013711D02*
X024510Y013711D01*
X024669Y013869D02*
X023680Y013869D01*
X023680Y014028D02*
X024750Y014028D01*
X024750Y014186D02*
X023584Y014186D01*
X023605Y014345D02*
X024750Y014345D01*
X024750Y014503D02*
X023605Y014503D01*
X023605Y014662D02*
X024750Y014662D01*
X024750Y014820D02*
X024160Y014820D01*
X024238Y014979D02*
X024750Y014979D01*
X024750Y015137D02*
X024310Y015137D01*
X024428Y015296D02*
X024750Y015296D01*
X024750Y015454D02*
X024440Y015454D01*
X024440Y015613D02*
X024750Y015613D01*
X024750Y015771D02*
X024440Y015771D01*
X024440Y015930D02*
X024750Y015930D01*
X024750Y016088D02*
X024440Y016088D01*
X024440Y016247D02*
X024641Y016247D01*
X024602Y016405D02*
X024440Y016405D01*
X023683Y016405D02*
X023587Y016405D01*
X023587Y016564D02*
X023683Y016564D01*
X023683Y016722D02*
X023587Y016722D01*
X023300Y017135D02*
X022980Y017135D01*
X022820Y017295D01*
X022820Y017680D01*
X022835Y017695D01*
X022883Y017673D02*
X023450Y017673D01*
X023450Y017515D02*
X023271Y017515D01*
X023271Y017647D02*
X022883Y017647D01*
X022883Y017220D01*
X023114Y017220D01*
X023160Y017232D01*
X023201Y017256D01*
X023235Y017289D01*
X023258Y017330D01*
X023271Y017376D01*
X023271Y017647D01*
X023271Y017832D02*
X023450Y017832D01*
X023450Y017990D02*
X023271Y017990D01*
X023271Y018149D02*
X023450Y018149D01*
X023450Y018307D02*
X023271Y018307D01*
X023271Y018466D02*
X023450Y018466D01*
X023543Y018977D02*
X023223Y019298D01*
X023229Y019305D01*
X023229Y019526D01*
X023451Y019526D01*
X023556Y019631D01*
X023556Y019917D01*
X023705Y019917D01*
X023705Y019699D01*
X023717Y019687D01*
X023717Y019686D01*
X023705Y019640D01*
X023705Y019408D01*
X024132Y019408D01*
X024132Y019312D01*
X023705Y019312D01*
X023705Y019081D01*
X023717Y019035D01*
X023741Y018994D01*
X023745Y018990D01*
X023556Y018990D01*
X023543Y018977D01*
X023421Y019100D02*
X023705Y019100D01*
X023705Y019258D02*
X023262Y019258D01*
X023229Y019417D02*
X023705Y019417D01*
X023705Y019575D02*
X023500Y019575D01*
X023556Y019734D02*
X023705Y019734D01*
X023705Y019892D02*
X023556Y019892D01*
X023540Y019375D02*
X023555Y019360D01*
X024180Y019360D01*
X024980Y019360D01*
X024932Y019312D02*
X024505Y019312D01*
X024228Y019312D01*
X024228Y019408D01*
X024932Y019408D01*
X024932Y019312D01*
X024995Y020015D02*
X024980Y020030D01*
X024180Y020030D01*
X024995Y020015D02*
X025460Y020015D01*
X025620Y019855D01*
X025481Y021002D02*
X023600Y021002D01*
X024690Y021953D02*
X025037Y021953D01*
X024879Y022111D02*
X024690Y022111D01*
X024690Y022270D02*
X024720Y022270D01*
X024634Y018495D02*
X025220Y018495D01*
X023450Y017356D02*
X023265Y017356D01*
X022883Y017356D02*
X022787Y017356D01*
X022787Y017515D02*
X022883Y017515D01*
X020820Y015720D02*
X020820Y015234D01*
X020362Y014776D01*
X020342Y014729D01*
X020332Y014767D01*
X020344Y014812D01*
X020344Y014895D01*
X019969Y014895D01*
X019969Y014895D01*
X019969Y014655D01*
X019969Y014639D01*
X019969Y014639D01*
X019969Y014639D01*
X019969Y014895D01*
X019969Y014895D01*
X020344Y014895D01*
X020344Y014979D01*
X020332Y015023D01*
X020344Y015068D01*
X020344Y015151D01*
X019969Y015151D01*
X019969Y015151D01*
X019969Y015135D01*
X019969Y014895D01*
X019594Y014895D01*
X019969Y014895D01*
X019969Y014895D01*
X019969Y014895D01*
X019969Y015151D01*
X019969Y015151D01*
X020344Y015151D01*
X020344Y015235D01*
X020336Y015265D01*
X020344Y015273D01*
X020344Y015591D01*
X020425Y015557D01*
X020575Y015557D01*
X020714Y015615D01*
X020820Y015720D01*
X020820Y015613D02*
X020709Y015613D01*
X020820Y015454D02*
X020344Y015454D01*
X020344Y015296D02*
X020820Y015296D01*
X020723Y015137D02*
X020344Y015137D01*
X020344Y014979D02*
X020564Y014979D01*
X020406Y014820D02*
X020344Y014820D01*
X019969Y014820D02*
X019969Y014820D01*
X019969Y014662D02*
X019969Y014662D01*
X019969Y014503D02*
X019969Y014503D01*
X019969Y014345D02*
X019969Y014345D01*
X019969Y014186D02*
X019969Y014186D01*
X019594Y014820D02*
X019440Y014820D01*
X019518Y014979D02*
X019594Y014979D01*
X019594Y015137D02*
X019547Y015137D01*
X019594Y015151D02*
X019969Y015151D01*
X019969Y015151D01*
X019594Y015151D01*
X019969Y015137D02*
X019969Y015137D01*
X019969Y014979D02*
X019969Y014979D01*
X021671Y013552D02*
X021809Y013552D01*
X021809Y013394D02*
X021671Y013394D01*
X021565Y013235D02*
X021809Y013235D01*
X022867Y013263D02*
X022867Y013630D01*
X022884Y013630D01*
X022963Y013630D01*
X022963Y013263D01*
X022867Y013263D01*
X022963Y013235D02*
X024035Y013235D01*
X024368Y012918D02*
X024990Y012918D01*
X024990Y012760D02*
X024210Y012760D01*
X024051Y012601D02*
X024990Y012601D01*
X024990Y013077D02*
X024527Y013077D01*
X024685Y013235D02*
X024990Y013235D01*
X024990Y013394D02*
X024844Y013394D01*
X023228Y014351D02*
X023228Y014604D01*
X023228Y014607D01*
X023228Y014607D01*
X023228Y014351D01*
X023228Y014351D01*
X023228Y014503D02*
X023228Y014503D01*
X023228Y014607D02*
X023228Y014860D01*
X023228Y014863D01*
X023228Y014863D01*
X023228Y014607D01*
X023228Y014607D01*
X023228Y014662D02*
X023228Y014662D01*
X023228Y014820D02*
X023228Y014820D01*
X023228Y014863D02*
X023228Y015119D01*
X023228Y015119D01*
X023228Y014863D01*
X023228Y014863D01*
X023228Y014979D02*
X023228Y014979D01*
X022740Y014495D02*
X022116Y015119D01*
X022100Y015119D01*
X022884Y013732D02*
X022884Y013630D01*
X022884Y013732D01*
X022884Y013732D01*
X022884Y013711D02*
X022884Y013711D01*
X022867Y013552D02*
X022963Y013552D01*
X022963Y013394D02*
X022867Y013394D01*
X022867Y013077D02*
X022963Y013077D01*
X032935Y015296D02*
X033105Y015296D01*
X033615Y015296D02*
X039030Y015296D01*
X039030Y015454D02*
X033719Y015454D01*
X033738Y015613D02*
X039030Y015613D01*
X039030Y015771D02*
X033688Y015771D01*
X033492Y015930D02*
X039030Y015930D01*
X039030Y016088D02*
X032992Y016088D01*
X033151Y015930D02*
X033228Y015930D01*
X022073Y025757D02*
X018549Y025757D01*
X018530Y025738D02*
X018530Y025738D01*
X018707Y025915D02*
X021915Y025915D01*
X021965Y025865D02*
X021965Y025865D01*
X021311Y026074D02*
X020889Y026074D01*
X020791Y025975D02*
X021060Y026245D01*
X021060Y026626D01*
X020791Y026895D01*
X020409Y026895D01*
X020140Y026626D01*
X020140Y026245D01*
X020409Y025975D01*
X020791Y025975D01*
X021048Y026232D02*
X021152Y026232D01*
X021140Y026391D02*
X021060Y026391D01*
X021060Y026549D02*
X021140Y026549D01*
X021222Y026708D02*
X020978Y026708D01*
X020820Y026866D02*
X021380Y026866D01*
X021409Y026975D02*
X021791Y026975D01*
X022060Y027245D01*
X022060Y027626D01*
X021791Y027895D01*
X021409Y027895D01*
X021140Y027626D01*
X021140Y027245D01*
X021409Y026975D01*
X021360Y027025D02*
X020840Y027025D01*
X020791Y026975D02*
X021060Y027245D01*
X021060Y027626D01*
X020791Y027895D01*
X020409Y027895D01*
X020140Y027626D01*
X020140Y027245D01*
X020409Y026975D01*
X020791Y026975D01*
X020999Y027183D02*
X021201Y027183D01*
X021140Y027342D02*
X021060Y027342D01*
X021060Y027500D02*
X021140Y027500D01*
X021173Y027659D02*
X021027Y027659D01*
X020869Y027817D02*
X021331Y027817D01*
X021869Y027817D02*
X022331Y027817D01*
X022173Y027659D02*
X022027Y027659D01*
X022060Y027500D02*
X022140Y027500D01*
X022140Y027342D02*
X022060Y027342D01*
X022023Y027183D02*
X021999Y027183D01*
X021864Y027025D02*
X021840Y027025D01*
X021830Y026866D02*
X021820Y026866D01*
X022356Y026866D02*
X022380Y026866D01*
X023820Y026866D02*
X023830Y026866D01*
X025820Y026866D02*
X026151Y026866D01*
X026140Y026935D02*
X026140Y026935D01*
X026154Y027025D02*
X025840Y027025D01*
X025999Y027183D02*
X026179Y027183D01*
X026204Y027342D02*
X026060Y027342D01*
X026060Y027500D02*
X026267Y027500D01*
X026212Y027392D02*
X026212Y027392D01*
X026348Y027659D02*
X026027Y027659D01*
X025869Y027817D02*
X026435Y027817D01*
X026423Y027805D02*
X026423Y027805D01*
X026593Y027976D02*
X018687Y027976D01*
X018845Y027817D02*
X019331Y027817D01*
X019339Y027825D02*
X019210Y027696D01*
X019140Y027527D01*
X019140Y027344D01*
X019210Y027175D01*
X019339Y027045D01*
X019508Y026975D01*
X019691Y026975D01*
X019861Y027045D01*
X019990Y027175D01*
X020060Y027344D01*
X020060Y027527D01*
X019990Y027696D01*
X019861Y027825D01*
X019691Y027895D01*
X019508Y027895D01*
X019339Y027825D01*
X019195Y027659D02*
X018932Y027659D01*
X018857Y027805D02*
X018857Y027805D01*
X019013Y027500D02*
X019140Y027500D01*
X019141Y027342D02*
X019076Y027342D01*
X019101Y027183D02*
X019206Y027183D01*
X019126Y027025D02*
X019389Y027025D01*
X019409Y026895D02*
X019140Y026626D01*
X019140Y026245D01*
X019409Y025975D01*
X019791Y025975D01*
X020060Y026245D01*
X020060Y026626D01*
X019791Y026895D01*
X019409Y026895D01*
X019380Y026866D02*
X019129Y026866D01*
X019104Y026708D02*
X019222Y026708D01*
X019140Y026549D02*
X019079Y026549D01*
X019068Y026478D02*
X019068Y026478D01*
X019023Y026391D02*
X019140Y026391D01*
X019152Y026232D02*
X018942Y026232D01*
X018862Y026074D02*
X019311Y026074D01*
X019889Y026074D02*
X020311Y026074D01*
X020152Y026232D02*
X020048Y026232D01*
X020060Y026391D02*
X020140Y026391D01*
X020140Y026549D02*
X020060Y026549D01*
X019978Y026708D02*
X020222Y026708D01*
X020380Y026866D02*
X019820Y026866D01*
X019811Y027025D02*
X020360Y027025D01*
X020201Y027183D02*
X019994Y027183D01*
X020059Y027342D02*
X020140Y027342D01*
X020140Y027500D02*
X020060Y027500D01*
X020005Y027659D02*
X020173Y027659D01*
X020331Y027817D02*
X019869Y027817D01*
X018527Y028134D02*
X026753Y028134D01*
X026750Y028132D02*
X026750Y028132D01*
X026176Y026708D02*
X025978Y026708D01*
X026060Y026549D02*
X026201Y026549D01*
X026212Y026478D02*
X026212Y026478D01*
X026257Y026391D02*
X026060Y026391D01*
X026048Y026232D02*
X026338Y026232D01*
X026418Y026074D02*
X025889Y026074D01*
X026423Y026065D02*
X026423Y026065D01*
X028490Y028132D02*
X028756Y027866D01*
X028846Y027956D01*
X028985Y028013D01*
X029135Y028013D01*
X029274Y027956D01*
X029295Y027935D01*
X029776Y027935D01*
X029910Y028069D01*
X030020Y028115D01*
X030090Y028115D01*
X030090Y028205D01*
X030196Y028310D01*
X030856Y028310D01*
X030900Y028266D01*
X030932Y028298D01*
X030805Y028425D01*
X029521Y028425D01*
X029434Y028384D01*
X029315Y028265D01*
X029172Y028265D01*
X028945Y028210D01*
X028886Y028185D01*
X028844Y028185D01*
X028803Y028175D01*
X028740Y028185D01*
X028388Y028184D01*
X028490Y028132D01*
X028490Y028132D01*
X028487Y028134D02*
X030090Y028134D01*
X030178Y028293D02*
X029343Y028293D01*
X029226Y027976D02*
X029816Y027976D01*
X028894Y027976D02*
X028647Y027976D01*
X030874Y028293D02*
X030926Y028293D01*
X009856Y019100D02*
X008295Y019100D01*
X008253Y018941D02*
X009698Y018941D01*
X009539Y018783D02*
X008180Y018783D01*
X008079Y018624D02*
X009381Y018624D01*
X009376Y018620D02*
X009376Y018620D01*
X009242Y018466D02*
X007921Y018466D01*
X007635Y018307D02*
X009190Y018307D01*
D46*
X009720Y019695D03*
X008420Y019795D03*
X007220Y017495D03*
X006220Y017495D03*
X006220Y015695D03*
X007220Y015695D03*
X007220Y014495D03*
X006220Y014095D03*
X008820Y011935D03*
X008820Y010735D03*
X008340Y009775D03*
X012700Y009935D03*
X015000Y008495D03*
X016820Y010975D03*
X016820Y012255D03*
X018580Y011935D03*
X018580Y010335D03*
X021460Y010255D03*
X021960Y010315D03*
X022020Y011615D03*
X021540Y012575D03*
X021060Y014415D03*
X019540Y013295D03*
X018340Y013855D03*
X017540Y014015D03*
X017060Y014415D03*
X016900Y013935D03*
X016100Y014795D03*
X017060Y015055D03*
X016120Y016795D03*
X018200Y017675D03*
X019940Y017935D03*
X019960Y017195D03*
X020660Y016415D03*
X020500Y015935D03*
X021540Y015615D03*
X021540Y017215D03*
X023300Y017135D03*
X024980Y016415D03*
X025380Y016015D03*
X025940Y015855D03*
X026180Y015295D03*
X026360Y013835D03*
X024500Y014655D03*
X023860Y015055D03*
X022740Y014495D03*
X023700Y012815D03*
X025220Y010975D03*
X025640Y010395D03*
X027140Y011535D03*
X028100Y011375D03*
X028020Y010575D03*
X030260Y011215D03*
X030140Y012095D03*
X030820Y012775D03*
X031220Y012455D03*
X032020Y010855D03*
X032500Y010855D03*
X032980Y010855D03*
X033460Y010855D03*
X033940Y010855D03*
X035060Y010515D03*
X035860Y010515D03*
X036660Y010515D03*
X036660Y011315D03*
X035860Y011335D03*
X035060Y011335D03*
X034820Y011975D03*
X034000Y014055D03*
X032660Y015555D03*
X033360Y015575D03*
X035280Y015815D03*
X033360Y017695D03*
X033540Y019615D03*
X034900Y019615D03*
X036420Y020735D03*
X036900Y020815D03*
X037300Y020415D03*
X037860Y020335D03*
X036180Y021295D03*
X035860Y022735D03*
X036500Y023455D03*
X035940Y024415D03*
X036980Y025135D03*
X035620Y026735D03*
X035060Y026815D03*
X034710Y027345D03*
X035680Y027735D03*
X036960Y028775D03*
X033860Y027995D03*
X032180Y026315D03*
X033460Y025175D03*
X033760Y025595D03*
X034360Y024955D03*
X033700Y024735D03*
X034420Y024175D03*
X033940Y023535D03*
X033560Y022875D03*
X033380Y022095D03*
X031620Y023068D03*
X031100Y022715D03*
X030660Y022435D03*
X029060Y023935D03*
X027780Y023215D03*
X026980Y022655D03*
X027060Y021615D03*
X025780Y020735D03*
X027480Y020315D03*
X026280Y019035D03*
X025960Y017195D03*
X023540Y019375D03*
X022580Y020415D03*
X023860Y020815D03*
X022900Y021695D03*
X021300Y021695D03*
X019640Y022715D03*
X018180Y022975D03*
X018020Y023775D03*
X018520Y023835D03*
X019640Y025035D03*
X020420Y024815D03*
X024100Y023375D03*
X024740Y023215D03*
X025260Y022695D03*
X029960Y025995D03*
X029960Y026515D03*
X029060Y027635D03*
X029560Y028195D03*
X031160Y024475D03*
X032820Y024395D03*
X031600Y020235D03*
X032140Y019915D03*
X030740Y020175D03*
X030800Y017695D03*
X030800Y015975D03*
X029000Y016955D03*
X029000Y014635D03*
X031140Y009815D03*
X030740Y009335D03*
X037460Y010295D03*
X038600Y008455D03*
X038760Y014135D03*
X037760Y014135D03*
X037760Y015735D03*
X038860Y015735D03*
X038840Y017535D03*
X037760Y017535D03*
X038860Y026195D03*
X020500Y019215D03*
X017800Y019755D03*
X016680Y022135D03*
X015220Y022815D03*
X015020Y022095D03*
X014960Y023895D03*
X016340Y024495D03*
X016500Y025215D03*
X015060Y025295D03*
X013320Y026995D03*
X012560Y027595D03*
X011220Y027475D03*
X009360Y025495D03*
X009720Y024595D03*
X008420Y024595D03*
X006980Y023295D03*
X011020Y024595D03*
X008660Y026995D03*
X007620Y026995D03*
X007700Y028435D03*
X011120Y019795D03*
X010580Y017615D03*
X010580Y015695D03*
X012660Y015215D03*
X013580Y015695D03*
X013580Y014095D03*
X014420Y013055D03*
X014980Y011855D03*
X012180Y013615D03*
X011300Y013695D03*
X010580Y014095D03*
X019140Y015055D03*
X019060Y015615D03*
D47*
X019108Y015663D01*
X019969Y015663D01*
X019969Y015407D02*
X019492Y015407D01*
X019140Y015055D01*
X019140Y014735D02*
X018660Y014735D01*
X018580Y014815D01*
X018580Y016015D01*
X018660Y015935D01*
X019140Y015935D01*
X019156Y015919D01*
X019969Y015919D01*
X019969Y016175D02*
X020260Y016175D01*
X020500Y015935D01*
X020660Y016415D02*
X020644Y016431D01*
X019969Y016431D01*
X019969Y016687D02*
X019332Y016687D01*
X019969Y016687D02*
X020372Y016687D01*
X020740Y017055D01*
X019969Y016687D02*
X018340Y016687D01*
X018580Y016447D01*
X018580Y016015D01*
X018340Y016175D02*
X018084Y016431D01*
X017671Y016431D01*
X017671Y016687D02*
X017252Y016687D01*
X017220Y016655D01*
X017220Y016015D01*
X017316Y015919D01*
X017671Y015919D01*
X017671Y016175D02*
X018020Y016175D01*
X018180Y016015D01*
X018180Y014415D01*
X018340Y014255D01*
X018740Y014255D01*
X018820Y014175D01*
X018820Y013615D01*
X019060Y013375D01*
X019460Y013375D01*
X019540Y013295D01*
X019940Y013295D02*
X019940Y013535D01*
X019780Y013695D01*
X019140Y013695D01*
X019060Y013775D01*
X019060Y014255D01*
X018820Y014495D01*
X018420Y014495D01*
X018340Y014575D01*
X018340Y016175D01*
X017972Y015663D02*
X018020Y015615D01*
X018020Y014255D01*
X018340Y013935D01*
X018340Y013855D01*
X017671Y014639D02*
X017284Y014639D01*
X017060Y014415D01*
X016900Y014095D02*
X016580Y014415D01*
X016580Y015215D01*
X016772Y015407D01*
X017671Y015407D01*
X017671Y015663D02*
X017972Y015663D01*
X017671Y014895D02*
X017220Y014895D01*
X017060Y015055D01*
X016900Y014095D02*
X016900Y013935D01*
X019140Y014735D02*
X019236Y014639D01*
X019969Y014639D01*
X019969Y014384D01*
X019969Y014639D02*
X019969Y014895D01*
X019969Y015151D01*
X019940Y013295D02*
X020660Y012575D01*
X021540Y012575D01*
X023700Y012815D02*
X023940Y012815D01*
X024980Y013855D01*
X024980Y016415D01*
X025380Y016015D02*
X025220Y015855D01*
X025220Y010975D01*
X025780Y011535D02*
X025460Y011855D01*
X025460Y014735D01*
X025620Y014895D01*
X025620Y015535D01*
X025940Y015855D01*
X026180Y015295D02*
X025940Y015055D01*
X025940Y014895D01*
X025700Y014655D01*
X025700Y012015D01*
X025860Y011855D01*
X027380Y011855D01*
X027860Y011375D01*
X028100Y011375D01*
X027140Y011535D02*
X025780Y011535D01*
X030140Y012095D02*
X031533Y012095D01*
X031573Y012135D01*
X031573Y012088D01*
X031828Y012135D02*
X031828Y012487D01*
X031700Y012615D01*
X031380Y012615D01*
X031220Y012455D01*
X030900Y012855D02*
X030820Y012775D01*
X030900Y012855D02*
X031780Y012855D01*
X032084Y012551D01*
X032084Y012135D01*
X032020Y010855D02*
X032500Y010855D01*
X032596Y009576D02*
X032596Y009231D01*
X032460Y009095D01*
X032360Y009095D01*
X032160Y008895D01*
X032160Y008695D01*
X032060Y008595D01*
X031749Y008595D01*
X031709Y008555D01*
X031760Y009095D02*
X031360Y009095D01*
X031160Y009295D01*
X030780Y009295D01*
X030740Y009335D01*
X031140Y009815D02*
X031380Y009576D01*
X031573Y009576D01*
X031828Y009576D02*
X031828Y009164D01*
X031760Y009095D01*
X033364Y008900D02*
X033689Y008575D01*
X033364Y008900D02*
X033364Y009576D01*
X033620Y009576D02*
X033620Y009135D01*
X033660Y009095D01*
X034660Y009095D01*
X034760Y008995D01*
X034760Y008606D01*
X034791Y008575D01*
X033940Y010855D02*
X033924Y010871D01*
X033876Y010871D01*
X037460Y010295D02*
X037620Y010135D01*
X037620Y009406D01*
X029980Y008389D02*
X029980Y007975D01*
X030020Y007935D01*
X032320Y015555D02*
X031780Y016095D01*
X031780Y020055D01*
X031600Y020235D01*
X031300Y019935D02*
X031300Y020975D01*
X031860Y021535D01*
X031860Y022002D01*
X032767Y022909D01*
X032632Y023043D02*
X031700Y022111D01*
X031700Y021615D01*
X030740Y020655D01*
X030740Y020175D01*
X031060Y019695D02*
X030340Y019695D01*
X030020Y020015D01*
X028900Y020015D01*
X028740Y020175D01*
X028740Y020975D01*
X028100Y021615D01*
X027060Y021615D01*
X026820Y022015D02*
X025700Y020895D01*
X025700Y020815D01*
X025780Y020735D01*
X024254Y021915D02*
X024180Y021989D01*
X024180Y022335D01*
X023700Y022815D01*
X022974Y022815D01*
X022598Y023154D02*
X023140Y023695D01*
X024260Y023695D01*
X024740Y023215D01*
X024180Y023135D02*
X024180Y023295D01*
X024100Y023375D01*
X024180Y023135D02*
X025220Y022095D01*
X026100Y022095D01*
X026660Y022655D01*
X026980Y022655D01*
X026820Y022015D02*
X027700Y022015D01*
X027940Y022255D01*
X028660Y022255D01*
X028900Y022015D01*
X030180Y022015D01*
X030340Y022175D01*
X030340Y022975D01*
X030660Y023295D01*
X030660Y023615D01*
X031064Y024019D01*
X031657Y024019D01*
X031791Y023885D02*
X031601Y023695D01*
X031060Y023695D01*
X030980Y023615D01*
X030980Y023055D01*
X030660Y022735D01*
X030660Y022435D01*
X031100Y022715D02*
X031120Y022715D01*
X031220Y022815D01*
X031220Y023455D01*
X031644Y023455D01*
X031932Y023743D01*
X032074Y023602D02*
X031620Y023148D01*
X031620Y023068D01*
X032074Y023589D02*
X032074Y023602D01*
X032208Y023468D02*
X032820Y024079D01*
X032820Y024395D01*
X032260Y024655D02*
X032100Y024655D01*
X031810Y024945D01*
X031791Y024945D01*
X031908Y025087D02*
X031932Y025087D01*
X031324Y025695D01*
X030500Y025695D01*
X029220Y024415D01*
X022500Y024415D01*
X020180Y022095D01*
X019860Y022095D01*
X019620Y021855D01*
X019620Y021335D01*
X019580Y021295D01*
X019060Y020815D02*
X019060Y021935D01*
X019460Y022335D01*
X020020Y022335D01*
X022340Y024655D01*
X029140Y024655D01*
X030420Y025935D01*
X031380Y025935D01*
X031380Y025922D01*
X032074Y025228D01*
X032074Y025241D01*
X032208Y025363D02*
X032580Y024991D01*
X032580Y024815D01*
X033060Y025135D02*
X033460Y024735D01*
X033700Y024735D01*
X033540Y024255D02*
X033540Y024015D01*
X033300Y023775D01*
X033300Y023215D01*
X033380Y023135D01*
X033380Y022956D01*
X033050Y022626D01*
X032860Y022436D01*
X032860Y021895D01*
X033060Y021695D01*
X033700Y021695D01*
X033940Y021455D01*
X034340Y021455D01*
X034420Y021375D01*
X034420Y020815D01*
X034400Y020795D01*
X033400Y020795D02*
X033400Y020955D01*
X032460Y021895D01*
X032460Y022319D01*
X032908Y022768D01*
X033050Y022645D02*
X033050Y022626D01*
X033184Y022492D02*
X033217Y022492D01*
X033217Y022258D01*
X033380Y022095D01*
X033976Y022492D02*
X035400Y021068D01*
X035400Y020795D01*
X036180Y021295D02*
X036180Y021455D01*
X035700Y021935D01*
X034801Y021935D01*
X034110Y022626D01*
X034393Y022909D02*
X034406Y022909D01*
X035140Y022175D01*
X035780Y022175D01*
X036820Y021135D01*
X036820Y020895D01*
X036900Y020815D01*
X037300Y020975D02*
X037300Y020415D01*
X037300Y020975D02*
X035940Y022335D01*
X035460Y022335D01*
X035060Y022735D01*
X034820Y022735D01*
X034528Y023028D01*
X034528Y023043D01*
X034669Y023185D02*
X034319Y023535D01*
X033940Y023535D01*
X034399Y023455D02*
X034669Y023185D01*
X034810Y023326D02*
X035481Y022655D01*
X035780Y022655D01*
X035860Y022735D01*
X035596Y023375D02*
X036420Y023375D01*
X036500Y023455D01*
X035940Y023775D02*
X037105Y023775D01*
X037685Y023195D01*
X037620Y023130D01*
X037685Y023195D02*
X037700Y023180D01*
X038340Y023210D02*
X038355Y023195D01*
X038340Y023210D02*
X038340Y023695D01*
X037840Y024195D01*
X037840Y024215D01*
X037644Y024019D01*
X035503Y024019D01*
X035369Y023886D02*
X035369Y023885D01*
X034309Y024944D01*
X034320Y024955D01*
X034360Y024955D01*
X034309Y024944D02*
X034260Y024994D01*
X034260Y025055D01*
X034180Y025135D01*
X034180Y025439D01*
X034528Y025787D01*
X034393Y025921D02*
X034660Y026188D01*
X034660Y027295D01*
X034710Y027345D01*
X034760Y027295D01*
X034710Y027345D02*
X034425Y027630D01*
X034425Y027995D01*
X034060Y027295D02*
X034200Y027155D01*
X034460Y026895D01*
X034460Y026595D01*
X034110Y026245D01*
X034110Y026204D01*
X033976Y026338D02*
X033976Y026979D01*
X033860Y027095D01*
X029360Y027095D01*
X029260Y026995D01*
X029260Y025655D01*
X028680Y025075D01*
X023960Y025075D01*
X022600Y026435D01*
X022820Y025855D02*
X022300Y025855D01*
X022060Y026095D01*
X022060Y026895D01*
X022600Y027435D01*
X023600Y027435D02*
X024060Y026975D01*
X024060Y025575D01*
X024360Y025275D01*
X028480Y025275D01*
X029060Y025855D01*
X029060Y027055D01*
X029300Y027295D01*
X034060Y027295D01*
X033260Y026695D02*
X033260Y026414D01*
X033184Y026338D01*
X033050Y026204D02*
X032559Y026695D01*
X030860Y026695D01*
X030760Y026595D01*
X030040Y026595D01*
X029960Y026515D01*
X030260Y026175D02*
X031700Y026175D01*
X032020Y025855D01*
X032281Y025855D01*
X032491Y025645D01*
X032632Y025787D02*
X033060Y025359D01*
X033060Y025135D01*
X033460Y025175D02*
X033460Y025228D01*
X032767Y025921D01*
X032908Y026063D02*
X032656Y026315D01*
X032180Y026315D01*
X033060Y026895D02*
X029540Y026895D01*
X029460Y026815D01*
X029460Y025535D01*
X028820Y024895D01*
X023780Y024895D01*
X022820Y025855D01*
X022980Y023855D02*
X024580Y023855D01*
X025300Y023135D01*
X026180Y023135D01*
X026660Y023615D01*
X028740Y023615D01*
X029060Y023935D01*
X030200Y024510D02*
X030675Y024510D01*
X031060Y024895D01*
X031573Y024895D01*
X031657Y024811D01*
X030260Y026175D02*
X030080Y025995D01*
X029960Y025995D01*
X031274Y027815D02*
X031274Y028281D01*
X030900Y028655D01*
X029380Y028655D01*
X029220Y028495D01*
X009460Y028495D01*
X009260Y028295D01*
X009260Y027886D01*
X009265Y027881D01*
X008746Y027881D01*
X008660Y026995D02*
X009446Y026995D01*
X010194Y026995D02*
X011960Y026995D01*
X012560Y027595D01*
X012886Y027921D01*
X013465Y027921D01*
X014260Y026066D02*
X014260Y025615D01*
X014580Y025295D01*
X015060Y025295D01*
X016254Y025828D02*
X016500Y025582D01*
X016500Y025215D01*
X016254Y025828D02*
X016260Y025834D01*
X016340Y024495D02*
X016786Y024495D01*
X016986Y024695D01*
X017734Y024695D02*
X017774Y024655D01*
X020260Y024655D01*
X020420Y024815D01*
X022420Y023295D02*
X022980Y023855D01*
X022420Y023295D02*
X022420Y022735D01*
X022340Y022815D01*
X022226Y022815D01*
X022420Y022735D02*
X022420Y021783D01*
X022412Y021775D01*
X022412Y021447D01*
X022340Y021375D01*
X022100Y021375D01*
X022020Y021295D01*
X022020Y021005D01*
X022008Y020993D01*
X022598Y020993D02*
X022598Y021695D01*
X022598Y023154D01*
X023120Y021915D02*
X022900Y021695D01*
X023120Y021915D02*
X023506Y021915D01*
X023220Y021375D02*
X023940Y021375D01*
X024100Y021535D01*
X024100Y021761D01*
X024254Y021915D01*
X023220Y021375D02*
X022838Y020993D01*
X022795Y020993D01*
X022598Y019517D02*
X022598Y019277D01*
X022740Y019135D01*
X023060Y019135D01*
X023460Y018735D01*
X023646Y018735D01*
X023886Y018495D01*
X023300Y017135D02*
X023220Y017055D01*
X020420Y020575D02*
X019300Y020575D01*
X019060Y020815D01*
X020420Y020575D02*
X020580Y020735D01*
X020580Y021295D01*
X018020Y023775D02*
X017314Y023775D01*
X017234Y023855D01*
X017734Y024695D02*
X017774Y024815D01*
X017671Y016687D02*
X018340Y016687D01*
X029560Y020495D02*
X030260Y020495D01*
X031460Y021695D01*
X031460Y022154D01*
X032491Y023185D01*
X032350Y023326D02*
X030519Y021495D01*
X029560Y021495D01*
X031300Y019935D02*
X031060Y019695D01*
X032020Y019795D02*
X032140Y019915D01*
X032020Y019795D02*
X032020Y016175D01*
X032260Y015935D01*
X032820Y015935D01*
X033180Y015575D01*
X033360Y015575D01*
X032660Y015555D02*
X032320Y015555D01*
X034900Y019615D02*
X035540Y019615D01*
X036420Y020495D01*
X036420Y020735D01*
X035596Y023375D02*
X035228Y023743D01*
X035369Y023885D02*
X035639Y023615D01*
X035780Y023615D01*
X035940Y023775D01*
X035940Y024415D02*
X036020Y024495D01*
X036900Y024495D01*
X037626Y025221D01*
X038180Y025221D01*
X037352Y025788D02*
X037352Y026109D01*
X037352Y026503D01*
X037360Y026695D02*
X037360Y026116D01*
X037352Y026109D01*
X037352Y025788D02*
X037180Y025615D01*
X036020Y025615D01*
X035840Y025795D01*
X035384Y025795D01*
X034952Y025363D01*
X034810Y025504D02*
X035321Y026015D01*
X035460Y026015D01*
X036501Y027057D01*
X036501Y027195D01*
X036408Y027289D01*
X036408Y027841D01*
X036020Y028095D02*
X035620Y028495D01*
X032860Y028495D01*
X032660Y028295D01*
X032660Y028150D01*
X032535Y027972D01*
X032378Y027815D01*
X031274Y027815D01*
X031294Y027995D01*
X032425Y027815D02*
X032535Y027972D01*
X033060Y026895D02*
X033260Y026695D01*
X034252Y026063D02*
X033784Y025595D01*
X033760Y025595D01*
X034669Y025645D02*
X035620Y026597D01*
X035620Y026735D01*
X036020Y027135D01*
X036020Y028095D01*
X036501Y027195D02*
X037660Y027195D01*
X038080Y027615D01*
X038205Y027615D01*
X038165Y026835D02*
X037500Y026835D01*
X037360Y026695D01*
X036980Y025135D02*
X036660Y025135D01*
X036340Y024815D01*
X036020Y024815D01*
X035700Y025135D01*
X035559Y025135D01*
X035369Y024945D01*
X034420Y024175D02*
X034420Y023999D01*
X034952Y023468D01*
X038840Y024215D02*
X038860Y024235D01*
X038860Y024315D01*
X006206Y023455D02*
X006180Y023481D01*
D48*
X007529Y024726D02*
X008060Y024195D01*
X007529Y024726D02*
X007529Y025115D01*
X007560Y025146D01*
X007560Y025995D01*
X007446Y026109D01*
X009060Y026109D01*
X009100Y026149D01*
X010335Y026149D01*
X013465Y026149D01*
X013502Y026186D01*
X013502Y026686D01*
X014260Y027444D01*
X014831Y027444D01*
X015120Y027155D01*
X015420Y027455D01*
X015940Y027455D01*
X016460Y027975D01*
X016460Y027995D01*
X016660Y028195D01*
X024740Y028195D01*
X029560Y028195D01*
X030080Y027815D02*
X029900Y027635D01*
X029060Y027635D01*
X030080Y027815D02*
X030526Y027815D01*
X033095Y027815D02*
X033680Y027815D01*
X033860Y027995D01*
X035095Y027995D02*
X035095Y027820D01*
X035095Y027995D02*
X035420Y027995D01*
X035680Y027735D01*
X035620Y027675D01*
X035620Y027375D01*
X035060Y026815D01*
X037860Y020335D02*
X037540Y020015D01*
X036420Y020015D01*
X035620Y019215D01*
X034020Y019215D01*
X033620Y019615D01*
X033540Y019615D01*
X029734Y017804D02*
X029734Y014921D01*
X030280Y014375D01*
X032500Y014375D01*
X033620Y013255D01*
X033620Y012935D01*
X032660Y013655D02*
X032340Y013975D01*
X032331Y013967D01*
X029834Y013967D01*
X029734Y013867D01*
X030520Y013655D02*
X029060Y012195D01*
X029060Y012185D01*
X028760Y011885D01*
X028760Y010405D01*
X028240Y009885D01*
X028220Y009885D01*
X028110Y009775D01*
X017140Y009775D01*
X016360Y010555D01*
X016360Y010575D01*
X016220Y010715D01*
X016220Y013735D01*
X015360Y014595D01*
X015360Y017690D01*
X015346Y017704D01*
X015346Y013767D02*
X015539Y013767D01*
X015860Y013445D01*
X015860Y010475D01*
X016870Y009465D01*
X016890Y009465D01*
X016980Y009375D01*
X028340Y009375D01*
X029220Y010255D01*
X029220Y011755D01*
X030760Y013295D01*
X031900Y013295D01*
X032060Y013135D01*
X032180Y013495D02*
X032100Y013575D01*
X032020Y013655D01*
X030520Y013655D01*
X015506Y025828D02*
X015247Y025908D01*
X015060Y026095D01*
X015060Y026569D01*
X015086Y026595D01*
X015186Y026495D01*
X014960Y026495D01*
X015086Y026595D02*
X015160Y026669D01*
X015160Y026795D01*
X015060Y026895D01*
X015060Y027095D01*
X015120Y027155D01*
X014960Y023895D02*
X014406Y023895D01*
X014565Y023215D02*
X014560Y023210D01*
X014565Y023215D02*
X014980Y023215D01*
X015220Y022975D01*
X015220Y022815D01*
X009265Y026109D02*
X009060Y026109D01*
X007446Y026109D02*
X006135Y026109D01*
X011300Y013695D02*
X011300Y012735D01*
X011860Y012175D01*
X011860Y011206D01*
X011870Y011196D01*
X011860Y011186D02*
X011860Y010415D01*
X012100Y010175D01*
X012100Y009575D01*
X012460Y009215D01*
X013300Y009215D01*
X013780Y009695D01*
X014850Y009695D01*
X015030Y009515D01*
X015030Y008525D01*
X015000Y008495D01*
X013130Y010365D02*
X012700Y009935D01*
X013130Y010365D02*
X013130Y011196D01*
X008820Y010735D02*
X008340Y010735D01*
X007780Y011295D01*
X006260Y011295D01*
X006100Y011135D01*
X006100Y010555D01*
X006180Y010475D01*
X024600Y026435D02*
X024600Y027435D01*
X024600Y028055D01*
X024740Y028195D01*
D49*
X014560Y023210D02*
X014406Y023364D01*
X014406Y023895D01*
X014406Y024635D01*
X014560Y023210D02*
X013820Y023210D01*
X013805Y023195D01*
X013160Y023195D01*
X013080Y023115D01*
X012980Y023115D01*
X013820Y022540D02*
X013820Y022175D01*
X013760Y022115D01*
X013860Y022115D01*
X013820Y022075D01*
X013820Y021830D01*
X013860Y022115D02*
X014440Y022115D01*
X014540Y022215D01*
X014560Y022235D01*
X014560Y022540D01*
X014440Y022115D02*
X014460Y022095D01*
X014460Y021930D01*
X014560Y021830D01*
X014560Y021160D02*
X014160Y021160D01*
X014200Y021120D01*
X014200Y020035D01*
X014180Y020015D01*
X014180Y019055D01*
X013940Y018815D01*
X010180Y018815D01*
X009620Y018255D01*
X009620Y010735D01*
X009620Y008735D01*
X009500Y008615D01*
X010180Y007935D01*
X015300Y007935D01*
X016260Y008895D01*
X029474Y008895D01*
X029980Y008389D01*
X030020Y007935D02*
X030220Y007935D01*
X030360Y007795D01*
X032660Y007795D01*
X035460Y007795D01*
X035660Y007995D01*
X035660Y008304D01*
X036560Y008304D01*
X037620Y008304D01*
X036560Y009406D02*
X035660Y009406D01*
X035660Y009695D01*
X034560Y010795D01*
X034000Y010795D01*
X033940Y010855D01*
X032660Y010855D02*
X030620Y010855D01*
X030260Y011215D01*
X029980Y010935D01*
X029980Y010121D01*
X030500Y010855D02*
X032020Y010855D01*
X032811Y008555D02*
X032760Y008404D01*
X032760Y007895D01*
X032660Y007795D01*
X032820Y008446D02*
X032811Y008555D01*
X014160Y021160D02*
X013820Y021160D01*
X013775Y021115D01*
X012980Y021115D01*
X012120Y020035D02*
X011860Y020295D01*
X011860Y022295D01*
X012060Y022095D01*
X013240Y022095D01*
X013260Y022115D01*
X013760Y022115D01*
X013260Y022115D02*
X012980Y022115D01*
X011860Y022295D02*
X011860Y024095D01*
X012060Y024195D02*
X008060Y024195D01*
X007760Y024195D01*
X007760Y020095D01*
X011860Y020095D01*
X011860Y020295D01*
X012120Y020035D02*
X013200Y020035D01*
X012060Y024195D02*
X012500Y024635D01*
X012674Y024635D01*
X009500Y008615D02*
X009480Y008595D01*
X009220Y008595D01*
M02*
