G75*
%MOIN*%
%OFA0B0*%
%FSLAX24Y24*%
%IPPOS*%
%LPD*%
%AMOC8*
5,1,8,0,0,1.08239X$1,22.5*
%
%ADD10C,0.0100*%
%ADD11C,0.0000*%
%ADD12C,0.0060*%
%ADD13C,0.0080*%
%ADD14C,0.0050*%
%ADD15C,0.0040*%
D10*
X005600Y007440D02*
X005747Y007414D01*
X005893Y007384D01*
X006038Y007350D01*
X006183Y007313D01*
X006326Y007272D01*
X006468Y007227D01*
X006609Y007178D01*
X006749Y007126D01*
X006887Y007071D01*
X007024Y007012D01*
X007159Y006949D01*
X007293Y006883D01*
X007425Y006813D01*
X007555Y006740D01*
X007683Y006664D01*
X007809Y006585D01*
X007933Y006502D01*
X008055Y006416D01*
X008175Y006328D01*
X008292Y006236D01*
X008407Y006141D01*
X008519Y006043D01*
X008629Y005942D01*
X008736Y005839D01*
X008841Y005733D01*
X008943Y005624D01*
X009042Y005512D01*
X009138Y005398D01*
X009231Y005282D01*
X009321Y005163D01*
X009408Y005042D01*
X009492Y004919D01*
X009573Y004794D01*
X009651Y004667D01*
X009725Y004537D01*
X009796Y004406D01*
X009863Y004273D01*
X009927Y004139D01*
X009988Y004002D01*
X010045Y003865D01*
X010098Y003726D01*
X010148Y003585D01*
X010195Y003443D01*
X010237Y003301D01*
X010276Y003157D01*
X010311Y003012D01*
X010343Y002866D01*
X010371Y002720D01*
X014440Y003800D02*
X014440Y007440D01*
X014420Y007440D01*
X005600Y007440D02*
X005518Y007453D01*
X005436Y007470D01*
X005356Y007491D01*
X005276Y007515D01*
X005197Y007543D01*
X005120Y007574D01*
X005044Y007609D01*
X004970Y007647D01*
X004898Y007688D01*
X004828Y007732D01*
X004759Y007780D01*
X004693Y007831D01*
X004630Y007884D01*
X004568Y007941D01*
X004510Y008000D01*
X004454Y008061D01*
X004400Y008125D01*
X004350Y008192D01*
X004303Y008260D01*
X004259Y008331D01*
X004218Y008403D01*
X004180Y008478D01*
X004146Y008554D01*
X004115Y008631D01*
X004088Y008710D01*
X004064Y008789D01*
X004044Y008870D01*
X004027Y008952D01*
X004014Y009034D01*
X004005Y009117D01*
X004000Y009200D01*
X004000Y011600D01*
X017120Y011600D01*
X017120Y012880D01*
X024160Y012880D01*
X024160Y011600D01*
X036960Y011600D01*
X036960Y009040D01*
X036947Y008958D01*
X036930Y008876D01*
X036909Y008796D01*
X036885Y008716D01*
X036857Y008637D01*
X036826Y008560D01*
X036791Y008484D01*
X036753Y008410D01*
X036712Y008338D01*
X036668Y008268D01*
X036620Y008199D01*
X036569Y008133D01*
X036516Y008070D01*
X036459Y008008D01*
X036400Y007950D01*
X036339Y007894D01*
X036275Y007840D01*
X036208Y007790D01*
X036140Y007743D01*
X036069Y007699D01*
X035997Y007658D01*
X035922Y007620D01*
X035846Y007586D01*
X035769Y007555D01*
X035690Y007528D01*
X035611Y007504D01*
X035530Y007484D01*
X035448Y007467D01*
X035366Y007454D01*
X035283Y007445D01*
X035200Y007440D01*
X035170Y007440D01*
X027290Y007440D02*
X027280Y007440D01*
X027280Y003840D01*
X027278Y003777D01*
X027271Y003714D01*
X027262Y003651D01*
X027248Y003589D01*
X027231Y003528D01*
X027211Y003468D01*
X027187Y003409D01*
X027160Y003352D01*
X027129Y003296D01*
X027095Y003243D01*
X027058Y003191D01*
X027019Y003142D01*
X026976Y003095D01*
X026931Y003050D01*
X026883Y003009D01*
X026833Y002970D01*
X026781Y002934D01*
X026726Y002901D01*
X026670Y002871D01*
X026613Y002845D01*
X026553Y002822D01*
X026493Y002803D01*
X026432Y002787D01*
X026369Y002775D01*
X026307Y002766D01*
X026243Y002761D01*
X026180Y002760D01*
X015500Y002760D01*
X014420Y007441D02*
X014280Y007404D01*
X014142Y007363D01*
X014005Y007319D01*
X013869Y007271D01*
X013734Y007219D01*
X013601Y007164D01*
X013469Y007105D01*
X013339Y007043D01*
X013211Y006977D01*
X013085Y006908D01*
X012960Y006836D01*
X012837Y006760D01*
X012717Y006681D01*
X012598Y006598D01*
X012482Y006513D01*
X012368Y006425D01*
X012257Y006333D01*
X012148Y006239D01*
X012042Y006141D01*
X011938Y006041D01*
X011837Y005938D01*
X011739Y005833D01*
X011644Y005725D01*
X011551Y005614D01*
X011462Y005501D01*
X011375Y005386D01*
X011292Y005268D01*
X011212Y005148D01*
X011135Y005026D01*
X011062Y004902D01*
X010992Y004776D01*
X010925Y004648D01*
X010862Y004519D01*
X010802Y004388D01*
X010745Y004255D01*
X010693Y004121D01*
X010644Y003985D01*
X010598Y003848D01*
X010556Y003710D01*
X010518Y003571D01*
X010484Y003431D01*
X010454Y003290D01*
X010427Y003149D01*
X010404Y003006D01*
X010385Y002864D01*
X010369Y002720D01*
X014440Y003800D02*
X014443Y003737D01*
X014449Y003674D01*
X014459Y003611D01*
X014473Y003549D01*
X014491Y003488D01*
X014512Y003428D01*
X014537Y003370D01*
X014565Y003313D01*
X014597Y003258D01*
X014632Y003205D01*
X014670Y003155D01*
X014711Y003106D01*
X014755Y003061D01*
X014801Y003017D01*
X014850Y002977D01*
X014902Y002940D01*
X014955Y002906D01*
X015011Y002876D01*
X015068Y002848D01*
X015127Y002825D01*
X015187Y002805D01*
X015248Y002788D01*
X015311Y002775D01*
X015373Y002766D01*
X015437Y002761D01*
X015500Y002760D01*
X027290Y007441D02*
X027439Y007413D01*
X027586Y007381D01*
X027733Y007345D01*
X027878Y007305D01*
X028022Y007262D01*
X028166Y007215D01*
X028308Y007164D01*
X028448Y007110D01*
X028587Y007051D01*
X028725Y006990D01*
X028861Y006924D01*
X028995Y006855D01*
X029127Y006783D01*
X029257Y006707D01*
X029386Y006627D01*
X029512Y006545D01*
X029636Y006459D01*
X029757Y006370D01*
X029876Y006278D01*
X029993Y006182D01*
X030108Y006084D01*
X030219Y005982D01*
X030328Y005878D01*
X030434Y005771D01*
X030538Y005661D01*
X030638Y005549D01*
X030735Y005434D01*
X030830Y005316D01*
X030921Y005196D01*
X031009Y005074D01*
X031094Y004949D01*
X031176Y004822D01*
X031254Y004693D01*
X031329Y004562D01*
X031400Y004429D01*
X031468Y004295D01*
X031532Y004158D01*
X031593Y004020D01*
X031650Y003881D01*
X031703Y003740D01*
X031753Y003597D01*
X031799Y003454D01*
X031841Y003309D01*
X031879Y003163D01*
X031913Y003016D01*
X031944Y002869D01*
X031971Y002720D01*
X031970Y002720D02*
X031969Y002858D01*
X031972Y002996D01*
X031979Y003134D01*
X031990Y003272D01*
X032004Y003409D01*
X032023Y003546D01*
X032045Y003683D01*
X032071Y003818D01*
X032101Y003953D01*
X032135Y004087D01*
X032172Y004220D01*
X032213Y004352D01*
X032258Y004483D01*
X032306Y004612D01*
X032358Y004740D01*
X032414Y004867D01*
X032473Y004992D01*
X032535Y005115D01*
X032601Y005236D01*
X032671Y005356D01*
X032743Y005473D01*
X032819Y005589D01*
X032898Y005702D01*
X032980Y005813D01*
X033066Y005922D01*
X033154Y006028D01*
X033245Y006132D01*
X033340Y006233D01*
X033437Y006331D01*
X033536Y006427D01*
X033639Y006520D01*
X033743Y006610D01*
X033851Y006697D01*
X033960Y006781D01*
X034073Y006861D01*
X034187Y006939D01*
X034303Y007013D01*
X034422Y007085D01*
X034542Y007152D01*
X034664Y007217D01*
X034788Y007278D01*
X034914Y007335D01*
X035041Y007389D01*
X035170Y007440D01*
D11*
X025289Y004200D02*
X025291Y004247D01*
X025297Y004293D01*
X025307Y004339D01*
X025320Y004384D01*
X025338Y004427D01*
X025359Y004469D01*
X025383Y004509D01*
X025411Y004546D01*
X025442Y004581D01*
X025476Y004614D01*
X025512Y004643D01*
X025551Y004669D01*
X025592Y004692D01*
X025635Y004711D01*
X025679Y004727D01*
X025724Y004739D01*
X025770Y004747D01*
X025817Y004751D01*
X025863Y004751D01*
X025910Y004747D01*
X025956Y004739D01*
X026001Y004727D01*
X026045Y004711D01*
X026088Y004692D01*
X026129Y004669D01*
X026168Y004643D01*
X026204Y004614D01*
X026238Y004581D01*
X026269Y004546D01*
X026297Y004509D01*
X026321Y004469D01*
X026342Y004427D01*
X026360Y004384D01*
X026373Y004339D01*
X026383Y004293D01*
X026389Y004247D01*
X026391Y004200D01*
X026389Y004153D01*
X026383Y004107D01*
X026373Y004061D01*
X026360Y004016D01*
X026342Y003973D01*
X026321Y003931D01*
X026297Y003891D01*
X026269Y003854D01*
X026238Y003819D01*
X026204Y003786D01*
X026168Y003757D01*
X026129Y003731D01*
X026088Y003708D01*
X026045Y003689D01*
X026001Y003673D01*
X025956Y003661D01*
X025910Y003653D01*
X025863Y003649D01*
X025817Y003649D01*
X025770Y003653D01*
X025724Y003661D01*
X025679Y003673D01*
X025635Y003689D01*
X025592Y003708D01*
X025551Y003731D01*
X025512Y003757D01*
X025476Y003786D01*
X025442Y003819D01*
X025411Y003854D01*
X025383Y003891D01*
X025359Y003931D01*
X025338Y003973D01*
X025320Y004016D01*
X025307Y004061D01*
X025297Y004107D01*
X025291Y004153D01*
X025289Y004200D01*
X015329Y004200D02*
X015331Y004247D01*
X015337Y004293D01*
X015347Y004339D01*
X015360Y004384D01*
X015378Y004427D01*
X015399Y004469D01*
X015423Y004509D01*
X015451Y004546D01*
X015482Y004581D01*
X015516Y004614D01*
X015552Y004643D01*
X015591Y004669D01*
X015632Y004692D01*
X015675Y004711D01*
X015719Y004727D01*
X015764Y004739D01*
X015810Y004747D01*
X015857Y004751D01*
X015903Y004751D01*
X015950Y004747D01*
X015996Y004739D01*
X016041Y004727D01*
X016085Y004711D01*
X016128Y004692D01*
X016169Y004669D01*
X016208Y004643D01*
X016244Y004614D01*
X016278Y004581D01*
X016309Y004546D01*
X016337Y004509D01*
X016361Y004469D01*
X016382Y004427D01*
X016400Y004384D01*
X016413Y004339D01*
X016423Y004293D01*
X016429Y004247D01*
X016431Y004200D01*
X016429Y004153D01*
X016423Y004107D01*
X016413Y004061D01*
X016400Y004016D01*
X016382Y003973D01*
X016361Y003931D01*
X016337Y003891D01*
X016309Y003854D01*
X016278Y003819D01*
X016244Y003786D01*
X016208Y003757D01*
X016169Y003731D01*
X016128Y003708D01*
X016085Y003689D01*
X016041Y003673D01*
X015996Y003661D01*
X015950Y003653D01*
X015903Y003649D01*
X015857Y003649D01*
X015810Y003653D01*
X015764Y003661D01*
X015719Y003673D01*
X015675Y003689D01*
X015632Y003708D01*
X015591Y003731D01*
X015552Y003757D01*
X015516Y003786D01*
X015482Y003819D01*
X015451Y003854D01*
X015423Y003891D01*
X015399Y003931D01*
X015378Y003973D01*
X015360Y004016D01*
X015347Y004061D01*
X015337Y004107D01*
X015331Y004153D01*
X015329Y004200D01*
X017449Y011880D02*
X017451Y011927D01*
X017457Y011973D01*
X017467Y012019D01*
X017480Y012064D01*
X017498Y012107D01*
X017519Y012149D01*
X017543Y012189D01*
X017571Y012226D01*
X017602Y012261D01*
X017636Y012294D01*
X017672Y012323D01*
X017711Y012349D01*
X017752Y012372D01*
X017795Y012391D01*
X017839Y012407D01*
X017884Y012419D01*
X017930Y012427D01*
X017977Y012431D01*
X018023Y012431D01*
X018070Y012427D01*
X018116Y012419D01*
X018161Y012407D01*
X018205Y012391D01*
X018248Y012372D01*
X018289Y012349D01*
X018328Y012323D01*
X018364Y012294D01*
X018398Y012261D01*
X018429Y012226D01*
X018457Y012189D01*
X018481Y012149D01*
X018502Y012107D01*
X018520Y012064D01*
X018533Y012019D01*
X018543Y011973D01*
X018549Y011927D01*
X018551Y011880D01*
X018549Y011833D01*
X018543Y011787D01*
X018533Y011741D01*
X018520Y011696D01*
X018502Y011653D01*
X018481Y011611D01*
X018457Y011571D01*
X018429Y011534D01*
X018398Y011499D01*
X018364Y011466D01*
X018328Y011437D01*
X018289Y011411D01*
X018248Y011388D01*
X018205Y011369D01*
X018161Y011353D01*
X018116Y011341D01*
X018070Y011333D01*
X018023Y011329D01*
X017977Y011329D01*
X017930Y011333D01*
X017884Y011341D01*
X017839Y011353D01*
X017795Y011369D01*
X017752Y011388D01*
X017711Y011411D01*
X017672Y011437D01*
X017636Y011466D01*
X017602Y011499D01*
X017571Y011534D01*
X017543Y011571D01*
X017519Y011611D01*
X017498Y011653D01*
X017480Y011696D01*
X017467Y011741D01*
X017457Y011787D01*
X017451Y011833D01*
X017449Y011880D01*
X022749Y011880D02*
X022751Y011927D01*
X022757Y011973D01*
X022767Y012019D01*
X022780Y012064D01*
X022798Y012107D01*
X022819Y012149D01*
X022843Y012189D01*
X022871Y012226D01*
X022902Y012261D01*
X022936Y012294D01*
X022972Y012323D01*
X023011Y012349D01*
X023052Y012372D01*
X023095Y012391D01*
X023139Y012407D01*
X023184Y012419D01*
X023230Y012427D01*
X023277Y012431D01*
X023323Y012431D01*
X023370Y012427D01*
X023416Y012419D01*
X023461Y012407D01*
X023505Y012391D01*
X023548Y012372D01*
X023589Y012349D01*
X023628Y012323D01*
X023664Y012294D01*
X023698Y012261D01*
X023729Y012226D01*
X023757Y012189D01*
X023781Y012149D01*
X023802Y012107D01*
X023820Y012064D01*
X023833Y012019D01*
X023843Y011973D01*
X023849Y011927D01*
X023851Y011880D01*
X023849Y011833D01*
X023843Y011787D01*
X023833Y011741D01*
X023820Y011696D01*
X023802Y011653D01*
X023781Y011611D01*
X023757Y011571D01*
X023729Y011534D01*
X023698Y011499D01*
X023664Y011466D01*
X023628Y011437D01*
X023589Y011411D01*
X023548Y011388D01*
X023505Y011369D01*
X023461Y011353D01*
X023416Y011341D01*
X023370Y011333D01*
X023323Y011329D01*
X023277Y011329D01*
X023230Y011333D01*
X023184Y011341D01*
X023139Y011353D01*
X023095Y011369D01*
X023052Y011388D01*
X023011Y011411D01*
X022972Y011437D01*
X022936Y011466D01*
X022902Y011499D01*
X022871Y011534D01*
X022843Y011571D01*
X022819Y011611D01*
X022798Y011653D01*
X022780Y011696D01*
X022767Y011741D01*
X022757Y011787D01*
X022751Y011833D01*
X022749Y011880D01*
D12*
X022680Y011570D02*
X022430Y011820D01*
X021930Y011820D01*
X021680Y011570D01*
X021430Y011820D01*
X020930Y011820D01*
X020680Y011570D01*
X020430Y011820D01*
X019930Y011820D01*
X019680Y011570D01*
X019430Y011820D01*
X018930Y011820D01*
X018680Y011570D01*
X018680Y011070D01*
X018930Y010820D01*
X019430Y010820D01*
X019680Y011070D01*
X019930Y010820D01*
X020430Y010820D01*
X020680Y011070D01*
X020930Y010820D01*
X021430Y010820D01*
X021680Y011070D01*
X021930Y010820D01*
X022430Y010820D01*
X022680Y011070D01*
X022680Y011570D01*
X024050Y005400D02*
X017550Y005400D01*
X017520Y005398D01*
X017490Y005393D01*
X017461Y005384D01*
X017434Y005371D01*
X017408Y005356D01*
X017384Y005337D01*
X017363Y005316D01*
X017344Y005292D01*
X017329Y005266D01*
X017316Y005239D01*
X017307Y005210D01*
X017302Y005180D01*
X017300Y005150D01*
X017300Y003250D01*
X017302Y003220D01*
X017307Y003190D01*
X017316Y003161D01*
X017329Y003134D01*
X017344Y003108D01*
X017363Y003084D01*
X017384Y003063D01*
X017408Y003044D01*
X017434Y003029D01*
X017461Y003016D01*
X017490Y003007D01*
X017520Y003002D01*
X017550Y003000D01*
X024050Y003000D01*
X024080Y003002D01*
X024110Y003007D01*
X024139Y003016D01*
X024166Y003029D01*
X024192Y003044D01*
X024216Y003063D01*
X024237Y003084D01*
X024256Y003108D01*
X024271Y003134D01*
X024284Y003161D01*
X024293Y003190D01*
X024298Y003220D01*
X024300Y003250D01*
X024300Y005150D01*
X024298Y005180D01*
X024293Y005210D01*
X024284Y005239D01*
X024271Y005266D01*
X024256Y005292D01*
X024237Y005316D01*
X024216Y005337D01*
X024192Y005356D01*
X024166Y005371D01*
X024139Y005384D01*
X024110Y005393D01*
X024080Y005398D01*
X024050Y005400D01*
X024690Y004200D02*
X024692Y004267D01*
X024698Y004335D01*
X024708Y004402D01*
X024722Y004468D01*
X024739Y004533D01*
X024761Y004597D01*
X024786Y004660D01*
X024815Y004721D01*
X024847Y004780D01*
X024883Y004837D01*
X024922Y004892D01*
X024964Y004945D01*
X025009Y004995D01*
X025057Y005042D01*
X025108Y005087D01*
X025161Y005128D01*
X025217Y005167D01*
X025275Y005202D01*
X025335Y005233D01*
X025396Y005261D01*
X025459Y005285D01*
X025523Y005306D01*
X025589Y005322D01*
X025655Y005335D01*
X025722Y005344D01*
X025789Y005349D01*
X025857Y005350D01*
X025924Y005347D01*
X025991Y005340D01*
X026058Y005329D01*
X026124Y005314D01*
X026189Y005296D01*
X026253Y005273D01*
X026315Y005247D01*
X026376Y005218D01*
X026434Y005184D01*
X026491Y005148D01*
X026546Y005108D01*
X026598Y005065D01*
X026647Y005019D01*
X026694Y004970D01*
X026738Y004919D01*
X026778Y004865D01*
X026816Y004809D01*
X026850Y004750D01*
X026880Y004690D01*
X026907Y004628D01*
X026931Y004565D01*
X026950Y004500D01*
X026966Y004435D01*
X026978Y004368D01*
X026986Y004301D01*
X026990Y004234D01*
X026990Y004166D01*
X026986Y004099D01*
X026978Y004032D01*
X026966Y003965D01*
X026950Y003900D01*
X026931Y003835D01*
X026907Y003772D01*
X026880Y003710D01*
X026850Y003650D01*
X026816Y003591D01*
X026778Y003535D01*
X026738Y003481D01*
X026694Y003430D01*
X026647Y003381D01*
X026598Y003335D01*
X026546Y003292D01*
X026491Y003252D01*
X026434Y003216D01*
X026376Y003182D01*
X026315Y003153D01*
X026253Y003127D01*
X026189Y003104D01*
X026124Y003086D01*
X026058Y003071D01*
X025991Y003060D01*
X025924Y003053D01*
X025857Y003050D01*
X025789Y003051D01*
X025722Y003056D01*
X025655Y003065D01*
X025589Y003078D01*
X025523Y003094D01*
X025459Y003115D01*
X025396Y003139D01*
X025335Y003167D01*
X025275Y003198D01*
X025217Y003233D01*
X025161Y003272D01*
X025108Y003313D01*
X025057Y003358D01*
X025009Y003405D01*
X024964Y003455D01*
X024922Y003508D01*
X024883Y003563D01*
X024847Y003620D01*
X024815Y003679D01*
X024786Y003740D01*
X024761Y003803D01*
X024739Y003867D01*
X024722Y003932D01*
X024708Y003998D01*
X024698Y004065D01*
X024692Y004133D01*
X024690Y004200D01*
X014730Y004200D02*
X014732Y004267D01*
X014738Y004335D01*
X014748Y004402D01*
X014762Y004468D01*
X014779Y004533D01*
X014801Y004597D01*
X014826Y004660D01*
X014855Y004721D01*
X014887Y004780D01*
X014923Y004837D01*
X014962Y004892D01*
X015004Y004945D01*
X015049Y004995D01*
X015097Y005042D01*
X015148Y005087D01*
X015201Y005128D01*
X015257Y005167D01*
X015315Y005202D01*
X015375Y005233D01*
X015436Y005261D01*
X015499Y005285D01*
X015563Y005306D01*
X015629Y005322D01*
X015695Y005335D01*
X015762Y005344D01*
X015829Y005349D01*
X015897Y005350D01*
X015964Y005347D01*
X016031Y005340D01*
X016098Y005329D01*
X016164Y005314D01*
X016229Y005296D01*
X016293Y005273D01*
X016355Y005247D01*
X016416Y005218D01*
X016474Y005184D01*
X016531Y005148D01*
X016586Y005108D01*
X016638Y005065D01*
X016687Y005019D01*
X016734Y004970D01*
X016778Y004919D01*
X016818Y004865D01*
X016856Y004809D01*
X016890Y004750D01*
X016920Y004690D01*
X016947Y004628D01*
X016971Y004565D01*
X016990Y004500D01*
X017006Y004435D01*
X017018Y004368D01*
X017026Y004301D01*
X017030Y004234D01*
X017030Y004166D01*
X017026Y004099D01*
X017018Y004032D01*
X017006Y003965D01*
X016990Y003900D01*
X016971Y003835D01*
X016947Y003772D01*
X016920Y003710D01*
X016890Y003650D01*
X016856Y003591D01*
X016818Y003535D01*
X016778Y003481D01*
X016734Y003430D01*
X016687Y003381D01*
X016638Y003335D01*
X016586Y003292D01*
X016531Y003252D01*
X016474Y003216D01*
X016416Y003182D01*
X016355Y003153D01*
X016293Y003127D01*
X016229Y003104D01*
X016164Y003086D01*
X016098Y003071D01*
X016031Y003060D01*
X015964Y003053D01*
X015897Y003050D01*
X015829Y003051D01*
X015762Y003056D01*
X015695Y003065D01*
X015629Y003078D01*
X015563Y003094D01*
X015499Y003115D01*
X015436Y003139D01*
X015375Y003167D01*
X015315Y003198D01*
X015257Y003233D01*
X015201Y003272D01*
X015148Y003313D01*
X015097Y003358D01*
X015049Y003405D01*
X015004Y003455D01*
X014962Y003508D01*
X014923Y003563D01*
X014887Y003620D01*
X014855Y003679D01*
X014826Y003740D01*
X014801Y003803D01*
X014779Y003867D01*
X014762Y003932D01*
X014748Y003998D01*
X014738Y004065D01*
X014732Y004133D01*
X014730Y004200D01*
D13*
X015289Y004200D02*
X015291Y004248D01*
X015297Y004296D01*
X015307Y004343D01*
X015320Y004389D01*
X015338Y004434D01*
X015358Y004478D01*
X015383Y004520D01*
X015411Y004559D01*
X015441Y004596D01*
X015475Y004630D01*
X015512Y004662D01*
X015550Y004691D01*
X015591Y004716D01*
X015634Y004738D01*
X015679Y004756D01*
X015725Y004770D01*
X015772Y004781D01*
X015820Y004788D01*
X015868Y004791D01*
X015916Y004790D01*
X015964Y004785D01*
X016012Y004776D01*
X016058Y004764D01*
X016103Y004747D01*
X016147Y004727D01*
X016189Y004704D01*
X016229Y004677D01*
X016267Y004647D01*
X016302Y004614D01*
X016334Y004578D01*
X016364Y004540D01*
X016390Y004499D01*
X016412Y004456D01*
X016432Y004412D01*
X016447Y004367D01*
X016459Y004320D01*
X016467Y004272D01*
X016471Y004224D01*
X016471Y004176D01*
X016467Y004128D01*
X016459Y004080D01*
X016447Y004033D01*
X016432Y003988D01*
X016412Y003944D01*
X016390Y003901D01*
X016364Y003860D01*
X016334Y003822D01*
X016302Y003786D01*
X016267Y003753D01*
X016229Y003723D01*
X016189Y003696D01*
X016147Y003673D01*
X016103Y003653D01*
X016058Y003636D01*
X016012Y003624D01*
X015964Y003615D01*
X015916Y003610D01*
X015868Y003609D01*
X015820Y003612D01*
X015772Y003619D01*
X015725Y003630D01*
X015679Y003644D01*
X015634Y003662D01*
X015591Y003684D01*
X015550Y003709D01*
X015512Y003738D01*
X015475Y003770D01*
X015441Y003804D01*
X015411Y003841D01*
X015383Y003880D01*
X015358Y003922D01*
X015338Y003966D01*
X015320Y004011D01*
X015307Y004057D01*
X015297Y004104D01*
X015291Y004152D01*
X015289Y004200D01*
X024037Y005617D02*
X024037Y006227D01*
X024214Y007034D02*
X024240Y007089D01*
X024270Y007142D01*
X024303Y007194D01*
X024339Y007243D01*
X024378Y007289D01*
X024420Y007333D01*
X024465Y007375D01*
X024512Y007413D01*
X024562Y007448D01*
X024614Y007480D01*
X024668Y007508D01*
X024723Y007533D01*
X024781Y007554D01*
X024839Y007572D01*
X024898Y007585D01*
X024958Y007595D01*
X025019Y007601D01*
X025080Y007603D01*
X025141Y007601D01*
X025202Y007595D01*
X025262Y007585D01*
X025321Y007572D01*
X025379Y007554D01*
X025437Y007533D01*
X025492Y007508D01*
X025546Y007480D01*
X025598Y007448D01*
X025648Y007413D01*
X025695Y007375D01*
X025740Y007333D01*
X025782Y007289D01*
X025821Y007243D01*
X025857Y007194D01*
X025890Y007142D01*
X025920Y007089D01*
X025946Y007034D01*
X026123Y007093D02*
X026123Y007349D01*
X025769Y007703D01*
X024037Y007703D01*
X024037Y007093D01*
X024214Y006286D02*
X024240Y006231D01*
X024270Y006178D01*
X024303Y006126D01*
X024339Y006077D01*
X024378Y006031D01*
X024420Y005987D01*
X024465Y005945D01*
X024512Y005907D01*
X024562Y005872D01*
X024614Y005840D01*
X024668Y005812D01*
X024723Y005787D01*
X024781Y005766D01*
X024839Y005748D01*
X024898Y005735D01*
X024958Y005725D01*
X025019Y005719D01*
X025080Y005717D01*
X025141Y005719D01*
X025202Y005725D01*
X025262Y005735D01*
X025321Y005748D01*
X025379Y005766D01*
X025437Y005787D01*
X025492Y005812D01*
X025546Y005840D01*
X025598Y005872D01*
X025648Y005907D01*
X025695Y005945D01*
X025740Y005987D01*
X025782Y006031D01*
X025821Y006077D01*
X025857Y006126D01*
X025890Y006178D01*
X025920Y006231D01*
X025946Y006286D01*
X026123Y006227D02*
X026123Y005971D01*
X025769Y005617D01*
X024037Y005617D01*
X025249Y004200D02*
X025251Y004248D01*
X025257Y004296D01*
X025267Y004343D01*
X025280Y004389D01*
X025298Y004434D01*
X025318Y004478D01*
X025343Y004520D01*
X025371Y004559D01*
X025401Y004596D01*
X025435Y004630D01*
X025472Y004662D01*
X025510Y004691D01*
X025551Y004716D01*
X025594Y004738D01*
X025639Y004756D01*
X025685Y004770D01*
X025732Y004781D01*
X025780Y004788D01*
X025828Y004791D01*
X025876Y004790D01*
X025924Y004785D01*
X025972Y004776D01*
X026018Y004764D01*
X026063Y004747D01*
X026107Y004727D01*
X026149Y004704D01*
X026189Y004677D01*
X026227Y004647D01*
X026262Y004614D01*
X026294Y004578D01*
X026324Y004540D01*
X026350Y004499D01*
X026372Y004456D01*
X026392Y004412D01*
X026407Y004367D01*
X026419Y004320D01*
X026427Y004272D01*
X026431Y004224D01*
X026431Y004176D01*
X026427Y004128D01*
X026419Y004080D01*
X026407Y004033D01*
X026392Y003988D01*
X026372Y003944D01*
X026350Y003901D01*
X026324Y003860D01*
X026294Y003822D01*
X026262Y003786D01*
X026227Y003753D01*
X026189Y003723D01*
X026149Y003696D01*
X026107Y003673D01*
X026063Y003653D01*
X026018Y003636D01*
X025972Y003624D01*
X025924Y003615D01*
X025876Y003610D01*
X025828Y003609D01*
X025780Y003612D01*
X025732Y003619D01*
X025685Y003630D01*
X025639Y003644D01*
X025594Y003662D01*
X025551Y003684D01*
X025510Y003709D01*
X025472Y003738D01*
X025435Y003770D01*
X025401Y003804D01*
X025371Y003841D01*
X025343Y003880D01*
X025318Y003922D01*
X025298Y003966D01*
X025280Y004011D01*
X025267Y004057D01*
X025257Y004104D01*
X025251Y004152D01*
X025249Y004200D01*
D14*
X024161Y002825D02*
X023935Y002600D01*
X024236Y002600D01*
X024161Y002375D02*
X024161Y002825D01*
X023625Y002825D02*
X023475Y002675D01*
X023625Y002825D02*
X023625Y002375D01*
X023475Y002375D02*
X023775Y002375D01*
X020046Y005650D02*
X019971Y005575D01*
X019821Y005575D01*
X019746Y005650D01*
X019586Y005725D02*
X019586Y006025D01*
X019746Y005950D02*
X019821Y006025D01*
X019971Y006025D01*
X020046Y005950D01*
X020046Y005875D01*
X019971Y005800D01*
X020046Y005725D01*
X020046Y005650D01*
X019971Y005800D02*
X019896Y005800D01*
X019586Y005725D02*
X019436Y005575D01*
X019285Y005725D01*
X019285Y006025D01*
X019125Y005950D02*
X019050Y006025D01*
X018900Y006025D01*
X018825Y005950D01*
X018825Y005875D01*
X018900Y005800D01*
X019050Y005800D01*
X019125Y005725D01*
X019125Y005650D01*
X019050Y005575D01*
X018900Y005575D01*
X018825Y005650D01*
X017975Y005575D02*
X017675Y005575D01*
X017825Y005575D02*
X017825Y006025D01*
X017675Y005875D01*
X018255Y011095D02*
X018555Y011095D01*
X018405Y011095D02*
X018405Y011545D01*
X018255Y011395D01*
X018780Y011995D02*
X018705Y012070D01*
X018780Y011995D02*
X018930Y011995D01*
X019005Y012070D01*
X019005Y012145D01*
X018930Y012220D01*
X018780Y012220D01*
X018705Y012295D01*
X018705Y012370D01*
X018780Y012445D01*
X018930Y012445D01*
X019005Y012370D01*
X019165Y012445D02*
X019165Y012145D01*
X019316Y011995D01*
X019466Y012145D01*
X019466Y012445D01*
X019626Y012295D02*
X019776Y012445D01*
X019776Y011995D01*
X019626Y011995D02*
X019926Y011995D01*
X019893Y012884D02*
X021034Y012884D01*
X021034Y013435D01*
X021467Y013435D01*
X021467Y012884D01*
X021034Y012884D01*
X019893Y012884D02*
X019893Y013435D01*
X021034Y013435D01*
X023030Y011545D02*
X022805Y011320D01*
X023105Y011320D01*
X023030Y011095D02*
X023030Y011545D01*
D15*
X022861Y012700D02*
X022938Y012777D01*
X022938Y013084D01*
X022861Y013160D01*
X022708Y013160D01*
X022631Y013084D01*
X022631Y013007D01*
X022708Y012930D01*
X022938Y012930D01*
X022708Y012700D02*
X022631Y012777D01*
X022708Y012700D02*
X022861Y012700D01*
X022477Y012700D02*
X022170Y012700D01*
X022324Y012700D02*
X022324Y013160D01*
X022170Y013007D01*
X022017Y013084D02*
X021940Y013160D01*
X021787Y013160D01*
X021710Y013084D01*
X021710Y012777D01*
X021787Y012700D01*
X021940Y012700D01*
X022017Y012777D01*
X020148Y013204D02*
X019841Y012897D01*
X019841Y012820D01*
X019687Y012820D02*
X019380Y012820D01*
X019227Y012820D02*
X019073Y012973D01*
X019150Y012973D02*
X018920Y012973D01*
X018920Y012820D02*
X018920Y013280D01*
X019150Y013280D01*
X019227Y013204D01*
X019227Y013050D01*
X019150Y012973D01*
X019380Y013127D02*
X019534Y013280D01*
X019534Y012820D01*
X020148Y013204D02*
X020148Y013280D01*
X019841Y013280D01*
X017951Y008820D02*
X017798Y008820D01*
X017721Y008744D01*
X017721Y008667D01*
X017798Y008590D01*
X017951Y008590D01*
X018028Y008513D01*
X018028Y008437D01*
X017951Y008360D01*
X017798Y008360D01*
X017721Y008437D01*
X017721Y008513D01*
X017798Y008590D01*
X017951Y008590D02*
X018028Y008667D01*
X018028Y008744D01*
X017951Y008820D01*
X017414Y008820D02*
X017260Y008667D01*
X017107Y008744D02*
X017107Y008590D01*
X017030Y008513D01*
X016800Y008513D01*
X016800Y008360D02*
X016800Y008820D01*
X017030Y008820D01*
X017107Y008744D01*
X017414Y008820D02*
X017414Y008360D01*
X017567Y008360D02*
X017260Y008360D01*
X017107Y008360D02*
X016953Y008513D01*
X023050Y006244D02*
X023050Y005937D01*
X023127Y005860D01*
X023280Y005860D01*
X023357Y005937D01*
X023510Y005860D02*
X023817Y005860D01*
X023664Y005860D02*
X023664Y006320D01*
X023510Y006167D01*
X023357Y006244D02*
X023280Y006320D01*
X023127Y006320D01*
X023050Y006244D01*
X023971Y006244D02*
X023971Y006167D01*
X024048Y006090D01*
X024201Y006090D01*
X024278Y006013D01*
X024278Y005937D01*
X024201Y005860D01*
X024048Y005860D01*
X023971Y005937D01*
X023971Y006013D01*
X024048Y006090D01*
X024201Y006090D02*
X024278Y006167D01*
X024278Y006244D01*
X024201Y006320D01*
X024048Y006320D01*
X023971Y006244D01*
X024098Y007853D02*
X024251Y007853D01*
X024328Y007930D01*
X024482Y007853D02*
X024789Y007853D01*
X024635Y007853D02*
X024635Y008314D01*
X024482Y008160D01*
X024328Y008237D02*
X024251Y008314D01*
X024098Y008314D01*
X024021Y008237D01*
X024021Y007930D01*
X024098Y007853D01*
X024942Y007930D02*
X025019Y007853D01*
X025172Y007853D01*
X025249Y007930D01*
X025249Y008007D01*
X025172Y008083D01*
X024942Y008083D01*
X024942Y007930D01*
X024942Y008083D02*
X025096Y008237D01*
X025249Y008314D01*
M02*
