G75*
%MOIN*%
%OFA0B0*%
%FSLAX24Y24*%
%IPPOS*%
%LPD*%
%AMOC8*
5,1,8,0,0,1.08239X$1,22.5*
%
%ADD10OC8,0.0520*%
%ADD11R,0.0512X0.0630*%
%ADD12R,0.0551X0.0394*%
%ADD13R,0.0630X0.0512*%
%ADD14C,0.0560*%
%ADD15OC8,0.0560*%
%ADD16R,0.0236X0.0283*%
%ADD17R,0.0512X0.0591*%
%ADD18R,0.0591X0.0512*%
%ADD19R,0.0591X0.0591*%
%ADD20R,0.0283X0.0236*%
%ADD21C,0.0600*%
%ADD22C,0.0160*%
%ADD23C,0.0396*%
%ADD24C,0.0120*%
%ADD25C,0.0240*%
%ADD26C,0.0100*%
D10*
X020260Y007340D03*
X021260Y007340D03*
D11*
X022406Y007440D03*
X023154Y007440D03*
X021034Y006520D03*
X020286Y006520D03*
X018954Y007740D03*
X018206Y007740D03*
X014754Y007940D03*
X014006Y007940D03*
X011154Y007640D03*
X010406Y007640D03*
X006254Y007940D03*
X005506Y007940D03*
X005266Y010380D03*
X006014Y010380D03*
X009606Y010440D03*
X010354Y010440D03*
X013806Y010340D03*
X014554Y010340D03*
X017806Y010340D03*
X018554Y010340D03*
X022966Y010460D03*
X023714Y010460D03*
X026806Y010340D03*
X027554Y010340D03*
X030906Y010240D03*
X031654Y010240D03*
X035406Y010240D03*
X036154Y010240D03*
X033154Y007940D03*
X032406Y007940D03*
X031454Y007740D03*
X030706Y007740D03*
X027154Y007940D03*
X026406Y007940D03*
D12*
X022553Y006320D03*
X021687Y006694D03*
X021687Y005946D03*
D13*
X019580Y006306D03*
X019580Y007054D03*
D14*
X017800Y004700D03*
D15*
X018800Y004700D03*
X019800Y004700D03*
X020800Y004700D03*
X021800Y004700D03*
X022800Y004700D03*
X023800Y004700D03*
X023800Y003700D03*
X022800Y003700D03*
X021800Y003700D03*
X020800Y003700D03*
X019800Y003700D03*
X018800Y003700D03*
X017800Y003700D03*
D16*
X018104Y008546D03*
X018656Y008549D03*
X018656Y008931D03*
X018104Y008927D03*
X018104Y009309D03*
X018656Y009313D03*
X018656Y009695D03*
X018104Y009691D03*
X014456Y009695D03*
X013904Y009691D03*
X013904Y009309D03*
X014456Y009313D03*
X014456Y008931D03*
X013904Y008927D03*
X013904Y008546D03*
X014456Y008549D03*
X010256Y008549D03*
X009704Y008546D03*
X009704Y008927D03*
X010256Y008931D03*
X010256Y009313D03*
X009704Y009309D03*
X009704Y009691D03*
X010256Y009695D03*
X005916Y009675D03*
X005364Y009671D03*
X005364Y009289D03*
X005916Y009293D03*
X005916Y008911D03*
X005364Y008907D03*
X005364Y008526D03*
X005916Y008529D03*
X022604Y008546D03*
X023156Y008549D03*
X023156Y008931D03*
X022604Y008927D03*
X022604Y009309D03*
X023156Y009313D03*
X023156Y009695D03*
X022604Y009691D03*
X026804Y009691D03*
X027356Y009695D03*
X027356Y009313D03*
X026804Y009309D03*
X026804Y008927D03*
X027356Y008931D03*
X027356Y008549D03*
X026804Y008546D03*
X031104Y008446D03*
X031104Y008827D03*
X031656Y008831D03*
X031656Y008449D03*
X031656Y009213D03*
X031656Y009595D03*
X031104Y009591D03*
X031104Y009209D03*
X035404Y009209D03*
X035404Y009591D03*
X035956Y009595D03*
X035956Y009213D03*
X035956Y008831D03*
X035956Y008449D03*
X035404Y008446D03*
X035404Y008827D03*
D17*
X034315Y010440D03*
X033645Y010440D03*
X033645Y011040D03*
X034315Y011040D03*
X016015Y011140D03*
X015345Y011140D03*
X015345Y010440D03*
X016015Y010440D03*
X011815Y010440D03*
X011145Y010440D03*
X011145Y011140D03*
X011815Y011140D03*
X007515Y011060D03*
X006845Y011060D03*
X006845Y010400D03*
X007515Y010400D03*
D18*
X017080Y010375D03*
X017080Y009705D03*
X024280Y009575D03*
X024280Y008905D03*
X028380Y009005D03*
X028980Y009005D03*
X028980Y009675D03*
X028380Y009675D03*
X032980Y009775D03*
X033580Y009775D03*
X033580Y009105D03*
X032980Y009105D03*
D19*
X034380Y009729D03*
X034380Y008351D03*
X029980Y008351D03*
X029980Y009729D03*
X025780Y009829D03*
X025780Y008451D03*
X021680Y008251D03*
X019680Y008251D03*
X019680Y009629D03*
X021680Y009629D03*
X015380Y009729D03*
X015380Y008351D03*
X011180Y008351D03*
X011180Y009729D03*
X006880Y009729D03*
X006880Y008351D03*
D20*
X020089Y012766D03*
X020471Y012766D03*
X020853Y012766D03*
X021235Y012766D03*
D21*
X021180Y011620D02*
X021180Y011020D01*
X020180Y011020D02*
X020180Y011620D01*
X019180Y011620D02*
X019180Y011020D01*
X022180Y011020D02*
X022180Y011620D01*
D22*
X023880Y010340D02*
X024340Y010800D01*
X021680Y009629D02*
X021169Y009629D01*
X021180Y009640D01*
X021169Y009629D02*
X020980Y009440D01*
X020780Y009440D01*
X020180Y008840D01*
X021680Y008251D02*
X021780Y008151D01*
X021780Y007740D01*
X022080Y007440D01*
X022406Y007440D01*
X023154Y007440D02*
X023180Y007414D01*
X023180Y006940D01*
X022934Y006694D01*
X021687Y006694D01*
X021234Y006320D02*
X021034Y006520D01*
X021234Y006320D02*
X022553Y006320D01*
X020286Y006520D02*
X020260Y006546D01*
X020260Y007340D01*
X022604Y008546D02*
X022604Y008927D01*
X027554Y010340D02*
X027954Y010740D01*
X027980Y010740D01*
X029380Y010240D02*
X029891Y009729D01*
X029980Y009729D01*
X029256Y009005D01*
X028980Y009005D01*
X017380Y008840D02*
X017080Y009140D01*
X017080Y009705D01*
X016945Y009840D01*
X015980Y009840D02*
X015980Y010405D01*
X016015Y010440D01*
X016015Y011140D01*
X015345Y011140D02*
X015245Y011040D01*
X014880Y011040D01*
X015245Y011040D02*
X015245Y010540D01*
X015345Y010440D01*
X015245Y010340D01*
X014554Y010340D01*
X014554Y009794D01*
X014456Y009695D01*
X013806Y009790D02*
X013806Y010340D01*
X012280Y009840D02*
X011680Y009840D01*
X011580Y009740D01*
X011191Y009740D01*
X011180Y009729D01*
X011180Y008940D01*
X011080Y008840D01*
X010480Y008840D01*
X010389Y008931D01*
X010256Y008931D01*
X010256Y008549D02*
X010406Y008399D01*
X010406Y007640D01*
X011154Y007640D02*
X011180Y007666D01*
X011180Y008351D01*
X014006Y008100D02*
X014006Y007940D01*
X014006Y008100D02*
X014456Y008549D01*
X014780Y008840D02*
X015280Y008840D01*
X015480Y009040D01*
X015480Y009629D01*
X015380Y009729D01*
X015491Y009840D01*
X015980Y009840D01*
X014780Y008840D02*
X014689Y008931D01*
X014456Y008931D01*
X015380Y008351D02*
X014969Y007940D01*
X014754Y007940D01*
X010354Y009794D02*
X010256Y009695D01*
X010354Y009794D02*
X010354Y010440D01*
X011145Y010440D01*
X011145Y011140D01*
X011045Y011040D01*
X010580Y011040D01*
X011815Y011140D02*
X011815Y010440D01*
X011815Y009975D01*
X011680Y009840D01*
X007980Y009840D02*
X007549Y009840D01*
X007515Y009875D01*
X007380Y009740D01*
X006891Y009740D01*
X006880Y009729D01*
X006980Y009629D01*
X006980Y009040D01*
X006780Y008840D01*
X005987Y008840D01*
X005916Y008911D01*
X005905Y008540D02*
X005916Y008529D01*
X005603Y008217D01*
X005506Y008120D01*
X005506Y007940D01*
X006254Y007940D02*
X006469Y007940D01*
X006880Y008351D01*
X005916Y009675D02*
X005916Y010382D01*
X006014Y010380D01*
X006825Y010380D01*
X006845Y010400D01*
X006845Y010975D01*
X006780Y011040D01*
X006280Y011040D01*
X006845Y011060D02*
X006845Y010400D01*
X006765Y010480D01*
X007515Y010400D02*
X007515Y009875D01*
X007515Y010400D02*
X007515Y011060D01*
D23*
X006280Y011040D03*
X004980Y009840D03*
X006380Y009240D03*
X004740Y009000D03*
X007980Y009840D03*
X010580Y011040D03*
X012280Y009840D03*
X010680Y009240D03*
X008880Y008640D03*
X007980Y007800D03*
X012680Y008840D03*
X014880Y009240D03*
X015980Y008840D03*
X016680Y008840D03*
X017380Y008840D03*
X019080Y009240D03*
X020180Y008840D03*
X021169Y009629D03*
X020520Y010480D03*
X018420Y011140D03*
X016980Y010840D03*
X014880Y011040D03*
X015980Y009840D03*
X020920Y012280D03*
X024340Y010800D03*
X024660Y010320D03*
X026180Y010540D03*
X027980Y010740D03*
X029380Y010240D03*
X027780Y009240D03*
X028280Y008340D03*
X029580Y007440D03*
X026580Y007340D03*
X025780Y007640D03*
X024680Y007740D03*
X023780Y008040D03*
X024580Y008340D03*
X023680Y009240D03*
X022280Y008140D03*
X023780Y007340D03*
X026460Y005880D03*
X032580Y006720D03*
X033480Y007340D03*
X035280Y007940D03*
X033680Y008540D03*
X032280Y008940D03*
X034880Y010540D03*
X035980Y011040D03*
X032880Y010740D03*
X036380Y009240D03*
X018780Y006840D03*
X017820Y006720D03*
X017780Y007240D03*
X015540Y006360D03*
D24*
X010307Y004527D02*
X010021Y005075D01*
X009441Y005859D01*
X008748Y006544D01*
X007958Y007115D01*
X007958Y007115D01*
X007090Y007559D01*
X006670Y007697D01*
X006670Y007802D01*
X006764Y007896D01*
X007242Y007896D01*
X007335Y007989D01*
X007335Y008713D01*
X007242Y008806D01*
X006518Y008806D01*
X006425Y008713D01*
X006425Y008415D01*
X006194Y008415D01*
X006194Y008737D01*
X006191Y008740D01*
X006194Y008749D01*
X006194Y008911D01*
X005916Y008911D01*
X005916Y008911D01*
X006194Y008911D01*
X006194Y008930D01*
X006309Y008882D01*
X006451Y008882D01*
X006583Y008936D01*
X006684Y009037D01*
X006738Y009169D01*
X006738Y009274D01*
X006820Y009274D01*
X006820Y009669D01*
X006425Y009669D01*
X006425Y009598D01*
X006309Y009598D01*
X006194Y009550D01*
X006194Y009883D01*
X006172Y009905D01*
X006336Y009905D01*
X006425Y009994D01*
X006425Y009789D01*
X006820Y009789D01*
X006820Y009669D01*
X006940Y009669D01*
X006940Y009789D01*
X007335Y009789D01*
X007335Y009945D01*
X007455Y009945D01*
X007455Y010340D01*
X007575Y010340D01*
X007575Y010460D01*
X007931Y010460D01*
X007931Y010716D01*
X007927Y010730D01*
X007931Y010744D01*
X007931Y011000D01*
X007575Y011000D01*
X007575Y011090D01*
X010222Y011090D01*
X010222Y010969D01*
X010244Y010915D01*
X010032Y010915D01*
X009980Y010863D01*
X009928Y010915D01*
X009284Y010915D01*
X009190Y010821D01*
X009190Y010059D01*
X009284Y009965D01*
X009484Y009965D01*
X009484Y009957D01*
X009438Y009911D01*
X009340Y009911D01*
X009189Y009760D01*
X009060Y009631D01*
X009060Y009131D01*
X008927Y008998D01*
X008809Y008998D01*
X008677Y008944D01*
X008576Y008843D01*
X008522Y008711D01*
X008522Y008569D01*
X008576Y008437D01*
X008677Y008336D01*
X008809Y008282D01*
X008951Y008282D01*
X009083Y008336D01*
X009184Y008437D01*
X009238Y008569D01*
X009238Y008687D01*
X009426Y008875D01*
X009426Y008338D01*
X009520Y008244D01*
X009889Y008244D01*
X009977Y008332D01*
X009989Y008320D01*
X009999Y008320D01*
X010071Y008248D01*
X010166Y008248D01*
X010166Y008115D01*
X010084Y008115D01*
X009990Y008021D01*
X009990Y007259D01*
X010084Y007165D01*
X010728Y007165D01*
X010780Y007217D01*
X010832Y007165D01*
X011476Y007165D01*
X011570Y007259D01*
X011570Y007924D01*
X011635Y007989D01*
X011635Y008713D01*
X011542Y008806D01*
X010818Y008806D01*
X010725Y008713D01*
X010725Y008115D01*
X010646Y008115D01*
X010646Y008447D01*
X010609Y008535D01*
X010534Y008611D01*
X010534Y008757D01*
X010531Y008760D01*
X010534Y008769D01*
X010534Y008913D01*
X010609Y008882D01*
X010751Y008882D01*
X010883Y008936D01*
X010984Y009037D01*
X011038Y009169D01*
X011038Y009274D01*
X011120Y009274D01*
X011120Y009669D01*
X010725Y009669D01*
X010725Y009598D01*
X010609Y009598D01*
X010534Y009567D01*
X010534Y009634D01*
X010557Y009658D01*
X010594Y009746D01*
X010594Y009965D01*
X010676Y009965D01*
X010725Y010014D01*
X010725Y009789D01*
X011120Y009789D01*
X011120Y009669D01*
X011240Y009669D01*
X011240Y009789D01*
X011635Y009789D01*
X011635Y009985D01*
X011755Y009985D01*
X011755Y010380D01*
X011875Y010380D01*
X011875Y010500D01*
X012231Y010500D01*
X012231Y010756D01*
X012222Y010790D01*
X012231Y010824D01*
X012231Y011080D01*
X011875Y011080D01*
X011875Y011090D01*
X014522Y011090D01*
X014522Y010969D01*
X014576Y010837D01*
X014599Y010815D01*
X014232Y010815D01*
X014180Y010763D01*
X014128Y010815D01*
X013484Y010815D01*
X013390Y010721D01*
X013390Y009959D01*
X013439Y009910D01*
X012727Y009198D01*
X012609Y009198D01*
X012477Y009144D01*
X012376Y009043D01*
X012322Y008911D01*
X012322Y008769D01*
X012376Y008637D01*
X012477Y008536D01*
X012609Y008482D01*
X012751Y008482D01*
X012883Y008536D01*
X012984Y008637D01*
X013038Y008769D01*
X013038Y008887D01*
X013622Y009471D01*
X013626Y009471D01*
X013626Y008357D01*
X013590Y008321D01*
X013590Y007712D01*
X013017Y007470D01*
X012244Y006992D01*
X011553Y006401D01*
X010961Y005711D01*
X010482Y004939D01*
X010482Y004939D01*
X010307Y004527D01*
X010329Y004579D02*
X010280Y004579D01*
X010218Y004698D02*
X010380Y004698D01*
X010430Y004816D02*
X010156Y004816D01*
X010094Y004935D02*
X010480Y004935D01*
X010553Y005053D02*
X010032Y005053D01*
X010021Y005075D02*
X010021Y005075D01*
X009949Y005172D02*
X010626Y005172D01*
X010700Y005290D02*
X009861Y005290D01*
X009774Y005409D02*
X010773Y005409D01*
X010847Y005527D02*
X009686Y005527D01*
X009598Y005646D02*
X010920Y005646D01*
X010961Y005711D02*
X010961Y005711D01*
X011006Y005764D02*
X009511Y005764D01*
X009441Y005859D02*
X009441Y005859D01*
X009417Y005883D02*
X011108Y005883D01*
X011210Y006001D02*
X009297Y006001D01*
X009177Y006120D02*
X011311Y006120D01*
X011413Y006238D02*
X009057Y006238D01*
X008938Y006357D02*
X011515Y006357D01*
X011553Y006401D02*
X011553Y006401D01*
X011639Y006475D02*
X008818Y006475D01*
X008680Y006594D02*
X011778Y006594D01*
X011916Y006712D02*
X008516Y006712D01*
X008352Y006831D02*
X012055Y006831D01*
X012193Y006949D02*
X008188Y006949D01*
X008024Y007068D02*
X012366Y007068D01*
X012244Y006992D02*
X012244Y006992D01*
X012557Y007186D02*
X011497Y007186D01*
X011570Y007305D02*
X012749Y007305D01*
X012941Y007423D02*
X011570Y007423D01*
X011570Y007542D02*
X013186Y007542D01*
X013017Y007470D02*
X013017Y007470D01*
X013466Y007660D02*
X011570Y007660D01*
X011570Y007779D02*
X013590Y007779D01*
X013590Y007897D02*
X011570Y007897D01*
X011635Y008016D02*
X013590Y008016D01*
X013590Y008134D02*
X011635Y008134D01*
X011635Y008253D02*
X013590Y008253D01*
X013626Y008371D02*
X011635Y008371D01*
X011635Y008490D02*
X012590Y008490D01*
X012770Y008490D02*
X013626Y008490D01*
X013626Y008608D02*
X012954Y008608D01*
X013021Y008727D02*
X013626Y008727D01*
X013626Y008845D02*
X013038Y008845D01*
X013115Y008964D02*
X013626Y008964D01*
X013626Y009082D02*
X013233Y009082D01*
X013352Y009201D02*
X013626Y009201D01*
X013626Y009319D02*
X013470Y009319D01*
X013589Y009438D02*
X013626Y009438D01*
X013085Y009556D02*
X011635Y009556D01*
X011635Y009669D02*
X011240Y009669D01*
X011240Y009274D01*
X011496Y009274D01*
X011537Y009285D01*
X011574Y009306D01*
X011603Y009335D01*
X011624Y009372D01*
X011635Y009413D01*
X011635Y009669D01*
X011635Y009793D02*
X013322Y009793D01*
X013437Y009912D02*
X011635Y009912D01*
X011755Y010030D02*
X011875Y010030D01*
X011875Y009985D02*
X012092Y009985D01*
X012132Y009996D01*
X012169Y010017D01*
X012199Y010046D01*
X012220Y010083D01*
X012231Y010124D01*
X012231Y010380D01*
X011875Y010380D01*
X011875Y009985D01*
X011875Y010149D02*
X011755Y010149D01*
X011755Y010267D02*
X011875Y010267D01*
X011875Y010386D02*
X013390Y010386D01*
X013390Y010504D02*
X012231Y010504D01*
X012231Y010623D02*
X013390Y010623D01*
X013410Y010741D02*
X012231Y010741D01*
X012231Y010860D02*
X014567Y010860D01*
X014522Y010978D02*
X012231Y010978D01*
X011875Y010978D02*
X011755Y010978D01*
X011755Y011080D02*
X011875Y011080D01*
X011875Y010685D01*
X011875Y010500D01*
X011755Y010500D01*
X011755Y011080D01*
X011755Y010860D02*
X011875Y010860D01*
X011875Y010741D02*
X011755Y010741D01*
X011755Y010623D02*
X011875Y010623D01*
X011875Y010504D02*
X011755Y010504D01*
X012231Y010267D02*
X013390Y010267D01*
X013390Y010149D02*
X012231Y010149D01*
X012182Y010030D02*
X013390Y010030D01*
X013531Y009691D02*
X012680Y008840D01*
X012322Y008845D02*
X010534Y008845D01*
X010489Y008931D02*
X010256Y008931D01*
X010256Y008931D01*
X010489Y008931D01*
X010489Y008931D01*
X010534Y008727D02*
X010739Y008727D01*
X010725Y008608D02*
X010536Y008608D01*
X010628Y008490D02*
X010725Y008490D01*
X010725Y008371D02*
X010646Y008371D01*
X010646Y008253D02*
X010725Y008253D01*
X010725Y008134D02*
X010646Y008134D01*
X010166Y008134D02*
X007335Y008134D01*
X007335Y008016D02*
X009990Y008016D01*
X009990Y007897D02*
X007243Y007897D01*
X007124Y007542D02*
X009990Y007542D01*
X009990Y007660D02*
X006782Y007660D01*
X006670Y007779D02*
X009990Y007779D01*
X009990Y007423D02*
X007356Y007423D01*
X007588Y007305D02*
X009990Y007305D01*
X010063Y007186D02*
X007820Y007186D01*
X005680Y008294D02*
X005603Y008217D01*
X005680Y008294D02*
X005680Y009640D01*
X005715Y009675D01*
X005916Y009675D01*
X006194Y009675D02*
X006820Y009675D01*
X006820Y009556D02*
X006940Y009556D01*
X006940Y009669D02*
X006940Y009274D01*
X007196Y009274D01*
X007237Y009285D01*
X007274Y009306D01*
X007303Y009335D01*
X007324Y009372D01*
X007335Y009413D01*
X007335Y009669D01*
X006940Y009669D01*
X006940Y009675D02*
X009103Y009675D01*
X009060Y009556D02*
X007335Y009556D01*
X007335Y009438D02*
X009060Y009438D01*
X009060Y009319D02*
X007287Y009319D01*
X006940Y009319D02*
X006820Y009319D01*
X006820Y009438D02*
X006940Y009438D01*
X006738Y009201D02*
X009060Y009201D01*
X009011Y009082D02*
X006702Y009082D01*
X006610Y008964D02*
X008725Y008964D01*
X008579Y008845D02*
X006194Y008845D01*
X006194Y008727D02*
X006439Y008727D01*
X006425Y008608D02*
X006194Y008608D01*
X006194Y008490D02*
X006425Y008490D01*
X005364Y008526D02*
X005364Y008907D01*
X005086Y008964D02*
X004554Y008964D01*
X004525Y009067D02*
X004510Y009217D01*
X004510Y011090D01*
X005922Y011090D01*
X005922Y010969D01*
X005969Y010855D01*
X005692Y010855D01*
X005640Y010803D01*
X005588Y010855D01*
X004944Y010855D01*
X004850Y010761D01*
X004850Y010174D01*
X004777Y010144D01*
X004676Y010043D01*
X004622Y009911D01*
X004622Y009769D01*
X004676Y009637D01*
X004777Y009536D01*
X004909Y009482D01*
X005027Y009482D01*
X005058Y009451D01*
X005086Y009451D01*
X005086Y008318D01*
X005090Y008314D01*
X005090Y008182D01*
X004970Y008264D01*
X004761Y008495D01*
X004610Y008767D01*
X004525Y009067D01*
X004524Y009082D02*
X005086Y009082D01*
X005086Y009201D02*
X004512Y009201D01*
X004510Y009319D02*
X005086Y009319D01*
X005086Y009438D02*
X004510Y009438D01*
X004510Y009556D02*
X004758Y009556D01*
X004661Y009675D02*
X004510Y009675D01*
X004510Y009793D02*
X004622Y009793D01*
X004622Y009912D02*
X004510Y009912D01*
X004510Y010030D02*
X004671Y010030D01*
X004789Y010149D02*
X004510Y010149D01*
X004510Y010267D02*
X004850Y010267D01*
X004850Y010386D02*
X004510Y010386D01*
X004510Y010504D02*
X004850Y010504D01*
X004850Y010623D02*
X004510Y010623D01*
X004510Y010741D02*
X004850Y010741D01*
X004510Y010860D02*
X005967Y010860D01*
X005922Y010978D02*
X004510Y010978D01*
X005266Y010380D02*
X005364Y010382D01*
X005364Y009671D01*
X005149Y009671D01*
X004980Y009840D01*
X006194Y009793D02*
X006425Y009793D01*
X006425Y009912D02*
X006343Y009912D01*
X006207Y009556D02*
X006194Y009556D01*
X006327Y009293D02*
X005916Y009293D01*
X006327Y009293D02*
X006380Y009240D01*
X007321Y008727D02*
X008528Y008727D01*
X008522Y008608D02*
X007335Y008608D01*
X007335Y008490D02*
X008555Y008490D01*
X008643Y008371D02*
X007335Y008371D01*
X007335Y008253D02*
X009511Y008253D01*
X009426Y008371D02*
X009117Y008371D01*
X009205Y008490D02*
X009426Y008490D01*
X009426Y008608D02*
X009238Y008608D01*
X009278Y008727D02*
X009426Y008727D01*
X009426Y008845D02*
X009396Y008845D01*
X009280Y009040D02*
X008880Y008640D01*
X009704Y008546D02*
X009704Y008927D01*
X009280Y009040D02*
X009280Y009540D01*
X009431Y009691D01*
X009704Y009691D01*
X009704Y010342D01*
X009606Y010440D01*
X009190Y010386D02*
X007575Y010386D01*
X007575Y010340D02*
X007931Y010340D01*
X007931Y010084D01*
X007920Y010043D01*
X007899Y010006D01*
X007869Y009977D01*
X007832Y009956D01*
X007792Y009945D01*
X007575Y009945D01*
X007575Y010340D01*
X007575Y010267D02*
X007455Y010267D01*
X007455Y010149D02*
X007575Y010149D01*
X007575Y010030D02*
X007455Y010030D01*
X007335Y009912D02*
X009439Y009912D01*
X009222Y009793D02*
X007335Y009793D01*
X007912Y010030D02*
X009219Y010030D01*
X009190Y010149D02*
X007931Y010149D01*
X007931Y010267D02*
X009190Y010267D01*
X009190Y010504D02*
X007931Y010504D01*
X007931Y010623D02*
X009190Y010623D01*
X009190Y010741D02*
X007930Y010741D01*
X007931Y010860D02*
X009228Y010860D01*
X010222Y010978D02*
X007931Y010978D01*
X007575Y010978D02*
X007455Y010978D01*
X007455Y011000D02*
X007575Y011000D01*
X007575Y010460D01*
X007455Y010460D01*
X007455Y010855D01*
X007455Y011000D01*
X007455Y010860D02*
X007575Y010860D01*
X007575Y010741D02*
X007455Y010741D01*
X007455Y010623D02*
X007575Y010623D01*
X007575Y010504D02*
X007455Y010504D01*
X009980Y009640D02*
X009980Y008640D01*
X010080Y008540D01*
X010246Y008540D01*
X010256Y008549D01*
X010066Y008253D02*
X009898Y008253D01*
X010910Y008964D02*
X012344Y008964D01*
X012416Y009082D02*
X011002Y009082D01*
X011038Y009201D02*
X012729Y009201D01*
X012848Y009319D02*
X011587Y009319D01*
X011635Y009438D02*
X012966Y009438D01*
X013203Y009675D02*
X011240Y009675D01*
X011240Y009556D02*
X011120Y009556D01*
X011120Y009438D02*
X011240Y009438D01*
X011240Y009319D02*
X011120Y009319D01*
X011120Y009675D02*
X010564Y009675D01*
X010594Y009793D02*
X010725Y009793D01*
X010725Y009912D02*
X010594Y009912D01*
X010256Y009695D02*
X010035Y009695D01*
X009980Y009640D01*
X011621Y008727D02*
X012339Y008727D01*
X012406Y008608D02*
X011635Y008608D01*
X013904Y008546D02*
X013904Y008927D01*
X014456Y008931D02*
X014689Y008931D01*
X014689Y008931D01*
X014456Y008931D01*
X014456Y008931D01*
X014734Y008913D02*
X014734Y008769D01*
X014731Y008760D01*
X014734Y008757D01*
X014734Y008415D01*
X014925Y008415D01*
X014925Y008713D01*
X015018Y008806D01*
X015622Y008806D01*
X015622Y008911D01*
X015676Y009043D01*
X015777Y009144D01*
X015909Y009198D01*
X016051Y009198D01*
X016183Y009144D01*
X016260Y009066D01*
X016260Y009985D01*
X016075Y009985D01*
X016075Y010380D01*
X015955Y010380D01*
X015955Y009985D01*
X015835Y009985D01*
X015835Y009789D01*
X015440Y009789D01*
X015440Y009669D01*
X015835Y009669D01*
X015835Y009413D01*
X015824Y009372D01*
X015803Y009335D01*
X015774Y009306D01*
X015737Y009285D01*
X015696Y009274D01*
X015440Y009274D01*
X015440Y009669D01*
X015320Y009669D01*
X014925Y009669D01*
X014925Y009598D01*
X014809Y009598D01*
X014734Y009567D01*
X014734Y009634D01*
X014757Y009658D01*
X014794Y009746D01*
X014794Y009865D01*
X014876Y009865D01*
X014925Y009914D01*
X014925Y009789D01*
X015320Y009789D01*
X015320Y009669D01*
X015320Y009274D01*
X015238Y009274D01*
X015238Y009169D01*
X015184Y009037D01*
X015083Y008936D01*
X014951Y008882D01*
X014809Y008882D01*
X014734Y008913D01*
X014734Y008845D02*
X015622Y008845D01*
X015644Y008964D02*
X015110Y008964D01*
X015202Y009082D02*
X015716Y009082D01*
X015787Y009319D02*
X016260Y009319D01*
X016260Y009201D02*
X015238Y009201D01*
X015320Y009319D02*
X015440Y009319D01*
X015440Y009438D02*
X015320Y009438D01*
X015320Y009556D02*
X015440Y009556D01*
X015440Y009675D02*
X016260Y009675D01*
X016260Y009793D02*
X015835Y009793D01*
X015835Y009912D02*
X016260Y009912D01*
X016075Y010030D02*
X015955Y010030D01*
X015955Y010149D02*
X016075Y010149D01*
X016075Y010267D02*
X015955Y010267D01*
X015955Y010500D02*
X015955Y010895D01*
X015955Y011080D01*
X016075Y011080D01*
X016075Y010500D01*
X015955Y010500D01*
X015955Y010504D02*
X016075Y010504D01*
X016075Y010623D02*
X015955Y010623D01*
X015955Y010741D02*
X016075Y010741D01*
X016075Y010860D02*
X015955Y010860D01*
X015955Y010978D02*
X016075Y010978D01*
X016480Y011140D02*
X016480Y009040D01*
X016680Y008840D01*
X017038Y008845D02*
X017560Y008845D01*
X017560Y008727D02*
X017021Y008727D01*
X017038Y008769D02*
X017038Y008911D01*
X016984Y009043D01*
X016883Y009144D01*
X016751Y009198D01*
X016700Y009198D01*
X016700Y009314D01*
X016723Y009300D01*
X016764Y009289D01*
X017020Y009289D01*
X017020Y009645D01*
X017140Y009645D01*
X017140Y009289D01*
X017396Y009289D01*
X017437Y009300D01*
X017460Y009314D01*
X017460Y009249D01*
X017560Y009149D01*
X017560Y008631D01*
X016589Y007660D01*
X016200Y007660D01*
X016200Y007542D02*
X016470Y007542D01*
X016460Y007531D02*
X016460Y007071D01*
X016200Y007331D01*
X016200Y008554D01*
X016284Y008637D01*
X016330Y008749D01*
X016376Y008637D01*
X016477Y008536D01*
X016609Y008482D01*
X016751Y008482D01*
X016883Y008536D01*
X016984Y008637D01*
X017038Y008769D01*
X016954Y008608D02*
X017537Y008608D01*
X017418Y008490D02*
X016770Y008490D01*
X016590Y008490D02*
X016200Y008490D01*
X016200Y008371D02*
X017300Y008371D01*
X017181Y008253D02*
X016200Y008253D01*
X016200Y008134D02*
X017063Y008134D01*
X016944Y008016D02*
X016200Y008016D01*
X016200Y007897D02*
X016826Y007897D01*
X016707Y007779D02*
X016200Y007779D01*
X016460Y007531D02*
X016589Y007660D01*
X017093Y007542D02*
X017575Y007542D01*
X017577Y007544D02*
X017476Y007443D01*
X017422Y007311D01*
X017422Y007169D01*
X017476Y007037D01*
X017577Y006936D01*
X017709Y006882D01*
X017851Y006882D01*
X017983Y006936D01*
X018084Y007037D01*
X018138Y007169D01*
X018138Y007265D01*
X018528Y007265D01*
X018580Y007317D01*
X018632Y007265D01*
X019105Y007265D01*
X019105Y006732D01*
X019157Y006680D01*
X019105Y006628D01*
X019105Y005984D01*
X019199Y005890D01*
X019685Y005890D01*
X019875Y005700D01*
X021011Y005700D01*
X021037Y005726D01*
X021251Y005726D01*
X021251Y005683D01*
X021345Y005589D01*
X021418Y005589D01*
X021189Y005360D01*
X021060Y005231D01*
X021060Y005062D01*
X020982Y005140D01*
X020618Y005140D01*
X020360Y004882D01*
X020360Y004518D01*
X020618Y004260D01*
X020982Y004260D01*
X021060Y004338D01*
X021060Y004271D01*
X020929Y004140D01*
X020618Y004140D01*
X020360Y003882D01*
X020360Y003518D01*
X020608Y003270D01*
X019992Y003270D01*
X020240Y003518D01*
X020240Y003882D01*
X019982Y004140D01*
X019618Y004140D01*
X019360Y003882D01*
X019360Y003518D01*
X019608Y003270D01*
X018992Y003270D01*
X019240Y003518D01*
X019240Y003882D01*
X018982Y004140D01*
X018618Y004140D01*
X018360Y003882D01*
X018360Y003518D01*
X018608Y003270D01*
X017992Y003270D01*
X018240Y003518D01*
X018240Y003882D01*
X017982Y004140D01*
X017618Y004140D01*
X017360Y003882D01*
X017360Y003518D01*
X017608Y003270D01*
X016989Y003270D01*
X017061Y003342D01*
X017061Y003342D01*
X017269Y003749D01*
X017340Y004200D01*
X017269Y004651D01*
X017269Y004651D01*
X017061Y005058D01*
X017061Y005058D01*
X016738Y005381D01*
X016331Y005589D01*
X015880Y005660D01*
X015429Y005589D01*
X015022Y005381D01*
X015022Y005381D01*
X014950Y005309D01*
X014950Y007465D01*
X015076Y007465D01*
X015170Y007559D01*
X015170Y007802D01*
X015264Y007896D01*
X015742Y007896D01*
X015760Y007914D01*
X015760Y007149D01*
X015889Y007020D01*
X017580Y005329D01*
X017580Y005085D01*
X017551Y005073D01*
X017427Y004949D01*
X017360Y004788D01*
X017360Y004612D01*
X017427Y004451D01*
X017551Y004327D01*
X017712Y004260D01*
X017888Y004260D01*
X018049Y004327D01*
X018173Y004451D01*
X018240Y004612D01*
X018240Y004788D01*
X018173Y004949D01*
X018049Y005073D01*
X018020Y005085D01*
X018020Y005289D01*
X018089Y005220D01*
X019289Y005220D01*
X019493Y005016D01*
X019360Y004882D01*
X019360Y004518D01*
X019618Y004260D01*
X019982Y004260D01*
X020240Y004518D01*
X020240Y004882D01*
X020000Y005122D01*
X020000Y005131D01*
X019871Y005260D01*
X019471Y005660D01*
X018271Y005660D01*
X016900Y007031D01*
X016900Y007349D01*
X017857Y008306D01*
X017920Y008244D01*
X018073Y008244D01*
X018044Y008215D01*
X017884Y008215D01*
X017790Y008121D01*
X017790Y007598D01*
X017709Y007598D01*
X017577Y007544D01*
X017468Y007423D02*
X016974Y007423D01*
X016900Y007305D02*
X017422Y007305D01*
X017422Y007186D02*
X016900Y007186D01*
X016900Y007068D02*
X017464Y007068D01*
X017565Y006949D02*
X016982Y006949D01*
X017101Y006831D02*
X019105Y006831D01*
X019105Y006949D02*
X017995Y006949D01*
X018096Y007068D02*
X019105Y007068D01*
X019105Y007186D02*
X018138Y007186D01*
X017780Y007240D02*
X018206Y007666D01*
X018206Y007740D01*
X018206Y008066D01*
X018380Y008240D01*
X018380Y008640D01*
X018480Y008540D01*
X018646Y008540D01*
X018656Y008549D01*
X018934Y008608D02*
X019225Y008608D01*
X019225Y008613D02*
X019225Y008215D01*
X018632Y008215D01*
X018600Y008183D01*
X018600Y008248D01*
X018840Y008248D01*
X018934Y008341D01*
X018934Y008757D01*
X018931Y008760D01*
X018934Y008769D01*
X018934Y008913D01*
X019009Y008882D01*
X019151Y008882D01*
X019283Y008936D01*
X019384Y009037D01*
X019438Y009169D01*
X019438Y009174D01*
X019620Y009174D01*
X019620Y009569D01*
X019740Y009569D01*
X019740Y009689D01*
X019740Y009920D01*
X019620Y009920D01*
X019620Y009689D01*
X019740Y009689D01*
X020135Y009689D01*
X020135Y009920D01*
X020271Y009920D01*
X020400Y010049D01*
X020473Y010122D01*
X020591Y010122D01*
X020723Y010176D01*
X020824Y010277D01*
X020878Y010409D01*
X020878Y010551D01*
X020824Y010683D01*
X020723Y010784D01*
X020601Y010834D01*
X020640Y010928D01*
X020640Y011711D01*
X020570Y011881D01*
X020441Y012010D01*
X020400Y012027D01*
X020400Y012290D01*
X020320Y012370D01*
X021320Y012370D01*
X021441Y012249D01*
X021570Y012120D01*
X022089Y012120D01*
X022131Y012078D01*
X022072Y012069D01*
X022003Y012046D01*
X021939Y012013D01*
X021880Y011971D01*
X021829Y011920D01*
X021787Y011861D01*
X021754Y011797D01*
X021731Y011728D01*
X021720Y011656D01*
X021720Y011360D01*
X022140Y011360D01*
X022140Y011280D01*
X021720Y011280D01*
X021720Y010984D01*
X021731Y010912D01*
X021754Y010843D01*
X021787Y010779D01*
X021829Y010720D01*
X021880Y010669D01*
X021939Y010627D01*
X022003Y010594D01*
X022033Y010584D01*
X022029Y010580D01*
X021900Y010451D01*
X021900Y010084D01*
X021740Y010084D01*
X021740Y009689D01*
X021620Y009689D01*
X021620Y010084D01*
X021364Y010084D01*
X021323Y010073D01*
X021286Y010052D01*
X021257Y010022D01*
X021236Y009986D01*
X021225Y009945D01*
X021225Y009689D01*
X021620Y009689D01*
X021620Y009569D01*
X021225Y009569D01*
X021225Y009313D01*
X021236Y009272D01*
X021257Y009235D01*
X021286Y009206D01*
X021323Y009185D01*
X021364Y009174D01*
X021620Y009174D01*
X021620Y009569D01*
X021740Y009569D01*
X021740Y009174D01*
X021803Y009174D01*
X021689Y009060D01*
X021089Y009060D01*
X020960Y008931D01*
X020135Y008106D01*
X020135Y008613D01*
X020042Y008706D01*
X019318Y008706D01*
X019225Y008613D01*
X019180Y008640D02*
X019080Y008640D01*
X018789Y008931D01*
X018656Y008931D01*
X018889Y008931D01*
X018889Y008931D01*
X018656Y008931D01*
X018656Y008931D01*
X018934Y008845D02*
X020874Y008845D01*
X020992Y008964D02*
X019310Y008964D01*
X019402Y009082D02*
X021711Y009082D01*
X021740Y009201D02*
X021620Y009201D01*
X021620Y009319D02*
X021740Y009319D01*
X021740Y009438D02*
X021620Y009438D01*
X021620Y009556D02*
X021740Y009556D01*
X021620Y009675D02*
X019740Y009675D01*
X019680Y009629D02*
X019680Y009740D01*
X019620Y009793D02*
X019740Y009793D01*
X019740Y009912D02*
X019620Y009912D01*
X019280Y010140D02*
X019080Y009940D01*
X019080Y009240D01*
X019007Y009313D01*
X018656Y009313D01*
X018380Y009640D02*
X018380Y008640D01*
X018104Y008546D02*
X018104Y008927D01*
X017560Y008964D02*
X017016Y008964D01*
X016944Y009082D02*
X017560Y009082D01*
X017508Y009201D02*
X016700Y009201D01*
X017020Y009319D02*
X017140Y009319D01*
X017140Y009438D02*
X017020Y009438D01*
X017020Y009556D02*
X017140Y009556D01*
X017140Y009645D02*
X017474Y009645D01*
X017589Y009760D01*
X017619Y009790D01*
X017560Y009849D01*
X017560Y009865D01*
X017535Y009865D01*
X017535Y009765D01*
X017140Y009765D01*
X017140Y009645D01*
X017140Y009675D02*
X017503Y009675D01*
X017535Y009793D02*
X017616Y009793D01*
X017780Y009940D02*
X017780Y010314D01*
X017806Y010340D01*
X017280Y010840D02*
X017080Y010640D01*
X017080Y010375D01*
X017280Y010840D02*
X018480Y010840D01*
X018580Y010740D01*
X018580Y010366D01*
X018554Y010340D01*
X018656Y010238D01*
X018656Y009695D01*
X018435Y009695D01*
X018380Y009640D01*
X018104Y009691D02*
X017831Y009691D01*
X017680Y009540D01*
X017680Y009340D01*
X017780Y009240D01*
X017780Y008540D01*
X016680Y007440D01*
X016680Y006940D01*
X018180Y005440D01*
X019380Y005440D01*
X019780Y005040D01*
X019780Y004720D01*
X019800Y004700D01*
X019360Y004698D02*
X019240Y004698D01*
X019240Y004816D02*
X019360Y004816D01*
X019412Y004935D02*
X019188Y004935D01*
X019240Y004882D02*
X018982Y005140D01*
X018618Y005140D01*
X018360Y004882D01*
X018360Y004518D01*
X018618Y004260D01*
X018982Y004260D01*
X019240Y004518D01*
X019240Y004882D01*
X019069Y005053D02*
X019456Y005053D01*
X019337Y005172D02*
X018020Y005172D01*
X018069Y005053D02*
X018531Y005053D01*
X018412Y004935D02*
X018179Y004935D01*
X018228Y004816D02*
X018360Y004816D01*
X018360Y004698D02*
X018240Y004698D01*
X018226Y004579D02*
X018360Y004579D01*
X018417Y004461D02*
X018177Y004461D01*
X018064Y004342D02*
X018536Y004342D01*
X018583Y004105D02*
X018017Y004105D01*
X018136Y003987D02*
X018464Y003987D01*
X018360Y003868D02*
X018240Y003868D01*
X018240Y003750D02*
X018360Y003750D01*
X018360Y003631D02*
X018240Y003631D01*
X018235Y003513D02*
X018365Y003513D01*
X018484Y003394D02*
X018116Y003394D01*
X017998Y003276D02*
X018602Y003276D01*
X018998Y003276D02*
X019602Y003276D01*
X019484Y003394D02*
X019116Y003394D01*
X019235Y003513D02*
X019365Y003513D01*
X019360Y003631D02*
X019240Y003631D01*
X019240Y003750D02*
X019360Y003750D01*
X019360Y003868D02*
X019240Y003868D01*
X019136Y003987D02*
X019464Y003987D01*
X019583Y004105D02*
X019017Y004105D01*
X019064Y004342D02*
X019536Y004342D01*
X019417Y004461D02*
X019183Y004461D01*
X019240Y004579D02*
X019360Y004579D01*
X020064Y004342D02*
X020536Y004342D01*
X020417Y004461D02*
X020183Y004461D01*
X020240Y004579D02*
X020360Y004579D01*
X020360Y004698D02*
X020240Y004698D01*
X020240Y004816D02*
X020360Y004816D01*
X020412Y004935D02*
X020188Y004935D01*
X020069Y005053D02*
X020531Y005053D01*
X021060Y005172D02*
X019960Y005172D01*
X019871Y005260D02*
X019871Y005260D01*
X019841Y005290D02*
X021119Y005290D01*
X021237Y005409D02*
X019723Y005409D01*
X019604Y005527D02*
X021356Y005527D01*
X021289Y005646D02*
X019486Y005646D01*
X019692Y005883D02*
X018049Y005883D01*
X017930Y006001D02*
X019105Y006001D01*
X019105Y006120D02*
X017812Y006120D01*
X017693Y006238D02*
X019105Y006238D01*
X019105Y006357D02*
X017575Y006357D01*
X017456Y006475D02*
X019105Y006475D01*
X019105Y006594D02*
X017338Y006594D01*
X017219Y006712D02*
X019125Y006712D01*
X019460Y007120D02*
X021180Y008840D01*
X021780Y008840D01*
X022120Y009180D01*
X022120Y010360D01*
X022240Y010480D01*
X022360Y010480D01*
X022600Y010720D01*
X022600Y011920D01*
X022180Y012340D01*
X021661Y012340D01*
X021235Y012766D01*
X020853Y012766D01*
X020920Y012280D02*
X021040Y012280D01*
X021280Y012040D01*
X021520Y012040D01*
X021640Y011920D01*
X021640Y011320D01*
X022180Y011320D01*
X022140Y011334D02*
X021640Y011334D01*
X021640Y011320D02*
X021640Y010600D01*
X021180Y010140D01*
X021180Y009640D01*
X021225Y009556D02*
X020135Y009556D01*
X020135Y009569D02*
X019740Y009569D01*
X019740Y009174D01*
X019996Y009174D01*
X020037Y009185D01*
X020074Y009206D01*
X020103Y009235D01*
X020124Y009272D01*
X020135Y009313D01*
X020135Y009569D01*
X020135Y009438D02*
X021225Y009438D01*
X021225Y009319D02*
X020135Y009319D01*
X020065Y009201D02*
X021295Y009201D01*
X021225Y009793D02*
X020135Y009793D01*
X020135Y009912D02*
X021225Y009912D01*
X021264Y010030D02*
X020381Y010030D01*
X020180Y010140D02*
X019280Y010140D01*
X020180Y010140D02*
X020520Y010480D01*
X020849Y010623D02*
X020938Y010623D01*
X020919Y010630D02*
X021088Y010560D01*
X021271Y010560D01*
X021441Y010630D01*
X021570Y010759D01*
X021640Y010928D01*
X021640Y011711D01*
X021570Y011881D01*
X021441Y012010D01*
X021271Y012080D01*
X021088Y012080D01*
X020919Y012010D01*
X020790Y011881D01*
X020720Y011711D01*
X020720Y010928D01*
X020790Y010759D01*
X020919Y010630D01*
X020878Y010504D02*
X021953Y010504D01*
X021947Y010623D02*
X021422Y010623D01*
X021552Y010741D02*
X021814Y010741D01*
X021748Y010860D02*
X021611Y010860D01*
X021640Y010978D02*
X021721Y010978D01*
X021720Y011097D02*
X021640Y011097D01*
X021640Y011215D02*
X021720Y011215D01*
X021720Y011452D02*
X021640Y011452D01*
X021640Y011571D02*
X021720Y011571D01*
X021725Y011689D02*
X021640Y011689D01*
X021600Y011808D02*
X021759Y011808D01*
X021836Y011926D02*
X021524Y011926D01*
X021357Y012045D02*
X022000Y012045D01*
X021527Y012163D02*
X020400Y012163D01*
X020400Y012045D02*
X021003Y012045D01*
X020836Y011926D02*
X020524Y011926D01*
X020600Y011808D02*
X020760Y011808D01*
X020720Y011689D02*
X020640Y011689D01*
X020640Y011571D02*
X020720Y011571D01*
X020720Y011452D02*
X020640Y011452D01*
X020640Y011334D02*
X020720Y011334D01*
X020720Y011215D02*
X020640Y011215D01*
X020640Y011097D02*
X020720Y011097D01*
X020720Y010978D02*
X020640Y010978D01*
X020611Y010860D02*
X020749Y010860D01*
X020765Y010741D02*
X020808Y010741D01*
X020868Y010386D02*
X021900Y010386D01*
X021900Y010267D02*
X020813Y010267D01*
X020656Y010149D02*
X021900Y010149D01*
X021740Y010030D02*
X021620Y010030D01*
X021620Y009912D02*
X021740Y009912D01*
X021740Y009793D02*
X021620Y009793D01*
X022380Y009716D02*
X022604Y009940D01*
X022966Y010302D01*
X022966Y010460D01*
X023680Y010426D02*
X023714Y010460D01*
X023834Y010340D01*
X023880Y010340D01*
X023680Y010426D02*
X023680Y010000D01*
X023420Y009740D01*
X023380Y009740D01*
X023200Y009740D01*
X023156Y009695D01*
X023335Y009695D01*
X023380Y009740D01*
X023420Y009740D02*
X023780Y009740D01*
X023945Y009575D01*
X024280Y009575D01*
X024735Y009681D02*
X024735Y009897D01*
X024642Y009991D01*
X024042Y009991D01*
X024130Y010079D01*
X024130Y010251D01*
X024321Y010442D01*
X024411Y010442D01*
X024543Y010496D01*
X024644Y010597D01*
X024698Y010729D01*
X024698Y010760D01*
X025000Y010760D01*
X025000Y009956D01*
X024743Y009699D01*
X024735Y009681D01*
X024735Y009793D02*
X024837Y009793D01*
X024721Y009912D02*
X024956Y009912D01*
X025000Y010030D02*
X024081Y010030D01*
X024130Y010149D02*
X025000Y010149D01*
X025000Y010267D02*
X024146Y010267D01*
X024265Y010386D02*
X025000Y010386D01*
X025000Y010504D02*
X024550Y010504D01*
X024654Y010623D02*
X025000Y010623D01*
X025000Y010741D02*
X024698Y010741D01*
X025521Y011090D02*
X027889Y011090D01*
X027777Y011044D01*
X027676Y010943D01*
X027623Y010815D01*
X027232Y010815D01*
X027180Y010763D01*
X027128Y010815D01*
X026484Y010815D01*
X026390Y010721D01*
X026390Y009959D01*
X026484Y009865D01*
X026494Y009865D01*
X026489Y009860D01*
X026489Y009860D01*
X026260Y009631D01*
X026260Y009160D01*
X025389Y009160D01*
X025260Y009031D01*
X025260Y009424D01*
X025330Y009494D01*
X025336Y009472D01*
X025357Y009435D01*
X025386Y009406D01*
X025423Y009385D01*
X025464Y009374D01*
X025720Y009374D01*
X025720Y009769D01*
X025840Y009769D01*
X025840Y009889D01*
X025720Y009889D01*
X025720Y010284D01*
X025560Y010284D01*
X025560Y010996D01*
X025521Y011090D01*
X025560Y010978D02*
X027712Y010978D01*
X027642Y010860D02*
X025560Y010860D01*
X025560Y010741D02*
X026410Y010741D01*
X026390Y010623D02*
X025560Y010623D01*
X025560Y010504D02*
X026390Y010504D01*
X026390Y010386D02*
X025560Y010386D01*
X025720Y010267D02*
X025840Y010267D01*
X025840Y010284D02*
X025840Y009889D01*
X026235Y009889D01*
X026235Y010145D01*
X026224Y010186D01*
X026203Y010222D01*
X026174Y010252D01*
X026137Y010273D01*
X026096Y010284D01*
X025840Y010284D01*
X025840Y010149D02*
X025720Y010149D01*
X025780Y010140D02*
X026180Y010540D01*
X026148Y010267D02*
X026390Y010267D01*
X026390Y010149D02*
X026234Y010149D01*
X026235Y010030D02*
X026390Y010030D01*
X026437Y009912D02*
X026235Y009912D01*
X026235Y009769D02*
X025840Y009769D01*
X025840Y009374D01*
X026096Y009374D01*
X026137Y009385D01*
X026174Y009406D01*
X026203Y009435D01*
X026224Y009472D01*
X026235Y009513D01*
X026235Y009769D01*
X026235Y009675D02*
X026303Y009675D01*
X026260Y009556D02*
X026235Y009556D01*
X026260Y009438D02*
X026205Y009438D01*
X026260Y009319D02*
X025260Y009319D01*
X025260Y009201D02*
X026260Y009201D01*
X026480Y009040D02*
X026480Y009540D01*
X026580Y009640D01*
X026753Y009640D01*
X026804Y009691D01*
X026631Y009691D01*
X026804Y009691D02*
X026804Y010338D01*
X026806Y010340D01*
X027554Y010340D02*
X027554Y009894D01*
X027356Y009695D01*
X027376Y009675D01*
X028380Y009675D01*
X028980Y009675D01*
X029435Y009675D02*
X029920Y009675D01*
X029920Y009669D02*
X029525Y009669D01*
X029525Y009413D01*
X029536Y009372D01*
X029557Y009335D01*
X029586Y009306D01*
X029623Y009285D01*
X029664Y009274D01*
X029920Y009274D01*
X029920Y009669D01*
X029920Y009789D01*
X029920Y010184D01*
X029664Y010184D01*
X029623Y010173D01*
X029586Y010152D01*
X029557Y010122D01*
X029536Y010086D01*
X029525Y010045D01*
X029525Y009789D01*
X029920Y009789D01*
X030040Y009789D01*
X030040Y010184D01*
X030296Y010184D01*
X030337Y010173D01*
X030374Y010152D01*
X030403Y010122D01*
X030424Y010086D01*
X030435Y010045D01*
X030435Y009789D01*
X030040Y009789D01*
X030040Y009669D01*
X030398Y009669D01*
X030489Y009760D01*
X030539Y009810D01*
X030490Y009859D01*
X030490Y010621D01*
X030584Y010715D01*
X031228Y010715D01*
X031280Y010663D01*
X031332Y010715D01*
X031976Y010715D01*
X032070Y010621D01*
X032070Y009997D01*
X032124Y010020D01*
X032525Y010020D01*
X032525Y010097D01*
X032618Y010191D01*
X033229Y010191D01*
X033229Y010648D01*
X033184Y010537D01*
X033083Y010436D01*
X032951Y010382D01*
X032809Y010382D01*
X032677Y010436D01*
X032576Y010537D01*
X032522Y010669D01*
X032522Y010811D01*
X032576Y010943D01*
X032677Y011044D01*
X032789Y011090D01*
X028071Y011090D01*
X028183Y011044D01*
X028284Y010943D01*
X028338Y010811D01*
X028338Y010669D01*
X028284Y010537D01*
X028183Y010436D01*
X028051Y010382D01*
X027970Y010382D01*
X027970Y010042D01*
X028018Y010091D01*
X029342Y010091D01*
X029435Y009997D01*
X029435Y009352D01*
X029418Y009335D01*
X029424Y009323D01*
X029435Y009282D01*
X029435Y009065D01*
X029040Y009065D01*
X029040Y008945D01*
X029374Y008945D01*
X029689Y009260D01*
X030360Y009260D01*
X030360Y009298D01*
X030337Y009285D01*
X030296Y009274D01*
X030040Y009274D01*
X030040Y009669D01*
X029920Y009669D01*
X029920Y009556D02*
X030040Y009556D01*
X030040Y009438D02*
X029920Y009438D01*
X029920Y009319D02*
X030040Y009319D01*
X029780Y009040D02*
X029280Y008540D01*
X028480Y008540D01*
X028280Y008340D01*
X028032Y008598D02*
X027976Y008543D01*
X027922Y008411D01*
X027922Y008269D01*
X027976Y008137D01*
X028077Y008036D01*
X028209Y007982D01*
X028351Y007982D01*
X028483Y008036D01*
X028584Y008137D01*
X028638Y008269D01*
X028638Y008320D01*
X029371Y008320D01*
X029500Y008449D01*
X029525Y008474D01*
X029525Y007989D01*
X029618Y007896D01*
X030124Y007896D01*
X030290Y007730D01*
X030290Y007359D01*
X030384Y007265D01*
X031028Y007265D01*
X031080Y007317D01*
X031132Y007265D01*
X031776Y007265D01*
X031870Y007359D01*
X031870Y007720D01*
X031990Y007720D01*
X031990Y007559D01*
X032084Y007465D01*
X032728Y007465D01*
X032780Y007517D01*
X032832Y007465D01*
X033144Y007465D01*
X033122Y007411D01*
X033122Y007269D01*
X033176Y007137D01*
X033277Y007036D01*
X033395Y006987D01*
X033205Y006838D01*
X032633Y006223D01*
X032161Y005528D01*
X032161Y005528D01*
X031802Y004768D01*
X031801Y004764D01*
X031650Y005058D01*
X031083Y005840D01*
X030403Y006527D01*
X029625Y007100D01*
X028769Y007548D01*
X027854Y007859D01*
X027570Y007909D01*
X027570Y008045D01*
X027600Y008075D01*
X027600Y008308D01*
X027634Y008341D01*
X027634Y008757D01*
X027631Y008760D01*
X027634Y008769D01*
X027634Y008913D01*
X027709Y008882D01*
X027851Y008882D01*
X027925Y008912D01*
X027925Y008728D01*
X027936Y008688D01*
X027957Y008651D01*
X027986Y008621D01*
X028023Y008600D01*
X028032Y008598D01*
X028010Y008608D02*
X027634Y008608D01*
X027634Y008490D02*
X027954Y008490D01*
X027922Y008371D02*
X027634Y008371D01*
X027600Y008253D02*
X027929Y008253D01*
X027980Y008134D02*
X027600Y008134D01*
X027570Y008016D02*
X028128Y008016D01*
X028432Y008016D02*
X029525Y008016D01*
X029525Y008134D02*
X028580Y008134D01*
X028631Y008253D02*
X029525Y008253D01*
X029525Y008371D02*
X029422Y008371D01*
X029980Y008351D02*
X030591Y007740D01*
X030706Y007740D01*
X030290Y007660D02*
X028439Y007660D01*
X028781Y007542D02*
X030290Y007542D01*
X030290Y007423D02*
X029008Y007423D01*
X029235Y007305D02*
X030344Y007305D01*
X029830Y006949D02*
X033347Y006949D01*
X033246Y007068D02*
X029670Y007068D01*
X029461Y007186D02*
X033156Y007186D01*
X033122Y007305D02*
X031816Y007305D01*
X031870Y007423D02*
X033127Y007423D01*
X033480Y007340D02*
X033780Y007640D01*
X034580Y007640D01*
X034880Y007940D01*
X034880Y009440D01*
X035031Y009591D01*
X035404Y009591D01*
X035406Y009593D01*
X035406Y010240D01*
X034990Y010267D02*
X034731Y010267D01*
X034731Y010175D02*
X034731Y010380D01*
X034375Y010380D01*
X034375Y010500D01*
X034731Y010500D01*
X034731Y010980D01*
X034375Y010980D01*
X034375Y011090D01*
X035622Y011090D01*
X035622Y010969D01*
X035676Y010837D01*
X035777Y010736D01*
X035795Y010729D01*
X035820Y010704D01*
X035780Y010663D01*
X035728Y010715D01*
X035084Y010715D01*
X034990Y010621D01*
X034990Y009859D01*
X035038Y009811D01*
X034940Y009811D01*
X034798Y009669D01*
X034440Y009669D01*
X034440Y009789D01*
X034320Y009789D01*
X034320Y010184D01*
X034255Y010184D01*
X034255Y010380D01*
X034375Y010380D01*
X034375Y009985D01*
X034440Y009985D01*
X034440Y009789D01*
X034835Y009789D01*
X034835Y010045D01*
X034824Y010086D01*
X034803Y010122D01*
X034774Y010152D01*
X034737Y010173D01*
X034731Y010175D01*
X034777Y010149D02*
X034990Y010149D01*
X034990Y010030D02*
X034835Y010030D01*
X034835Y009912D02*
X034990Y009912D01*
X034922Y009793D02*
X034835Y009793D01*
X034803Y009675D02*
X034440Y009675D01*
X034440Y009669D02*
X034440Y009274D01*
X034660Y009274D01*
X034660Y008806D01*
X034029Y008806D01*
X034035Y008828D01*
X034035Y009045D01*
X033640Y009045D01*
X033640Y008689D01*
X033896Y008689D01*
X033925Y008697D01*
X033925Y008207D01*
X033878Y008160D01*
X033570Y008160D01*
X033570Y008321D01*
X033476Y008415D01*
X032832Y008415D01*
X032780Y008363D01*
X032728Y008415D01*
X032084Y008415D01*
X031990Y008321D01*
X031990Y008160D01*
X031876Y008160D01*
X031876Y008183D01*
X031934Y008241D01*
X031934Y008657D01*
X031931Y008660D01*
X031934Y008669D01*
X031934Y008831D01*
X031656Y008831D01*
X031656Y008831D01*
X031934Y008831D01*
X031934Y008840D01*
X031976Y008737D01*
X032077Y008636D01*
X032209Y008582D01*
X032351Y008582D01*
X032483Y008636D01*
X032577Y008731D01*
X032586Y008721D01*
X032623Y008700D01*
X032664Y008689D01*
X032920Y008689D01*
X032920Y009045D01*
X033040Y009045D01*
X033040Y008689D01*
X033520Y008689D01*
X033520Y009045D01*
X033640Y009045D01*
X033640Y009165D01*
X034035Y009165D01*
X034035Y009281D01*
X034064Y009274D01*
X034320Y009274D01*
X034320Y009669D01*
X034440Y009669D01*
X034440Y009556D02*
X034320Y009556D01*
X034320Y009438D02*
X034440Y009438D01*
X034440Y009319D02*
X034320Y009319D01*
X034035Y009201D02*
X034660Y009201D01*
X034660Y009082D02*
X033640Y009082D01*
X033580Y009105D02*
X033680Y009005D01*
X033680Y008540D01*
X033520Y008371D02*
X033925Y008371D01*
X033925Y008253D02*
X033570Y008253D01*
X033925Y008490D02*
X031934Y008490D01*
X031934Y008608D02*
X032146Y008608D01*
X032180Y008440D02*
X031789Y008831D01*
X031656Y008831D01*
X031934Y008727D02*
X031987Y008727D01*
X032280Y008940D02*
X032007Y009213D01*
X031656Y009213D01*
X031656Y009595D02*
X031611Y009640D01*
X031480Y009640D01*
X031380Y009540D01*
X031380Y008540D01*
X031471Y008449D01*
X031656Y008449D01*
X031656Y007942D01*
X031454Y007740D01*
X031654Y007940D01*
X032406Y007940D01*
X033154Y007940D02*
X033969Y007940D01*
X034380Y008351D01*
X033925Y008608D02*
X032414Y008608D01*
X032573Y008727D02*
X032581Y008727D01*
X032680Y008440D02*
X032880Y008640D01*
X032880Y009005D01*
X032980Y009105D01*
X033040Y009082D02*
X033520Y009082D01*
X033520Y009045D02*
X033125Y009045D01*
X033040Y009045D01*
X033040Y009165D01*
X033520Y009165D01*
X033520Y009045D01*
X033520Y008964D02*
X033640Y008964D01*
X033640Y008845D02*
X033520Y008845D01*
X033520Y008727D02*
X033640Y008727D01*
X034035Y008845D02*
X034660Y008845D01*
X034660Y008964D02*
X034035Y008964D01*
X033040Y008964D02*
X032920Y008964D01*
X032920Y008845D02*
X033040Y008845D01*
X033040Y008727D02*
X032920Y008727D01*
X032680Y008440D02*
X032180Y008440D01*
X032040Y008371D02*
X031934Y008371D01*
X031934Y008253D02*
X031990Y008253D01*
X032772Y008371D02*
X032788Y008371D01*
X031990Y007660D02*
X031870Y007660D01*
X031870Y007542D02*
X032007Y007542D01*
X031092Y007305D02*
X031068Y007305D01*
X030241Y007779D02*
X028090Y007779D01*
X027636Y007897D02*
X029617Y007897D01*
X031104Y008446D02*
X031104Y008827D01*
X030580Y009140D02*
X030480Y009040D01*
X029780Y009040D01*
X029629Y009201D02*
X029435Y009201D01*
X029425Y009319D02*
X029573Y009319D01*
X029525Y009438D02*
X029435Y009438D01*
X029435Y009556D02*
X029525Y009556D01*
X029525Y009793D02*
X029435Y009793D01*
X029435Y009912D02*
X029525Y009912D01*
X029525Y010030D02*
X029402Y010030D01*
X029583Y010149D02*
X027970Y010149D01*
X027970Y010267D02*
X030490Y010267D01*
X030490Y010149D02*
X030377Y010149D01*
X030435Y010030D02*
X030490Y010030D01*
X030490Y009912D02*
X030435Y009912D01*
X030435Y009793D02*
X030522Y009793D01*
X030403Y009675D02*
X030040Y009675D01*
X030040Y009793D02*
X029920Y009793D01*
X029920Y009912D02*
X030040Y009912D01*
X030040Y010030D02*
X029920Y010030D01*
X029920Y010149D02*
X030040Y010149D01*
X030490Y010386D02*
X028060Y010386D01*
X028250Y010504D02*
X030490Y010504D01*
X030491Y010623D02*
X028319Y010623D01*
X028338Y010741D02*
X032522Y010741D01*
X032541Y010623D02*
X032069Y010623D01*
X032070Y010504D02*
X032610Y010504D01*
X032800Y010386D02*
X032070Y010386D01*
X032070Y010267D02*
X033229Y010267D01*
X033229Y010386D02*
X032960Y010386D01*
X033150Y010504D02*
X033229Y010504D01*
X033219Y010623D02*
X033229Y010623D01*
X033645Y010440D02*
X033645Y010840D01*
X033645Y011040D01*
X034255Y010980D02*
X034375Y010980D01*
X034375Y010500D01*
X034255Y010500D01*
X034255Y010585D01*
X034255Y010980D01*
X034255Y010978D02*
X034375Y010978D01*
X034375Y010860D02*
X034255Y010860D01*
X034255Y010741D02*
X034375Y010741D01*
X034375Y010623D02*
X034255Y010623D01*
X034255Y010504D02*
X034375Y010504D01*
X034375Y010386D02*
X034990Y010386D01*
X034990Y010504D02*
X034731Y010504D01*
X034731Y010623D02*
X034991Y010623D01*
X034731Y010741D02*
X035773Y010741D01*
X035667Y010860D02*
X034731Y010860D01*
X034731Y010978D02*
X035622Y010978D01*
X036154Y010240D02*
X036154Y009794D01*
X035956Y009595D01*
X035911Y009640D01*
X035780Y009640D01*
X035680Y009540D01*
X035680Y008540D01*
X035771Y008449D01*
X035956Y008449D01*
X036234Y008553D02*
X036234Y008657D01*
X036231Y008660D01*
X036234Y008669D01*
X036234Y008831D01*
X035956Y008831D01*
X035956Y008831D01*
X036234Y008831D01*
X036234Y008913D01*
X036309Y008882D01*
X036395Y008882D01*
X036312Y008667D01*
X036234Y008553D01*
X036234Y008608D02*
X036271Y008608D01*
X036234Y008727D02*
X036335Y008727D01*
X036280Y008740D02*
X036280Y008240D01*
X036180Y008140D01*
X035580Y008140D01*
X035380Y007940D01*
X035280Y007940D01*
X035333Y007965D02*
X035183Y007950D01*
X035179Y007950D01*
X035100Y007953D01*
X035100Y009349D01*
X035122Y009371D01*
X035126Y009371D01*
X035126Y008238D01*
X035220Y008144D01*
X035589Y008144D01*
X035677Y008232D01*
X035679Y008229D01*
X035689Y008229D01*
X035771Y008148D01*
X035810Y008148D01*
X035633Y008050D01*
X035333Y007965D01*
X035512Y008016D02*
X035100Y008016D01*
X035100Y008134D02*
X035785Y008134D01*
X035126Y008253D02*
X035100Y008253D01*
X035100Y008371D02*
X035126Y008371D01*
X035126Y008490D02*
X035100Y008490D01*
X035100Y008608D02*
X035126Y008608D01*
X035126Y008727D02*
X035100Y008727D01*
X035100Y008845D02*
X035126Y008845D01*
X035126Y008964D02*
X035100Y008964D01*
X035100Y009082D02*
X035126Y009082D01*
X035126Y009201D02*
X035100Y009201D01*
X035100Y009319D02*
X035126Y009319D01*
X035404Y008827D02*
X035404Y008446D01*
X035956Y008831D02*
X036189Y008831D01*
X036280Y008740D01*
X036234Y008845D02*
X036381Y008845D01*
X034440Y009793D02*
X034320Y009793D01*
X034320Y009912D02*
X034440Y009912D01*
X034375Y010030D02*
X034320Y010030D01*
X034320Y010149D02*
X034375Y010149D01*
X034375Y010267D02*
X034255Y010267D01*
X032576Y010149D02*
X032070Y010149D01*
X032070Y010030D02*
X032525Y010030D01*
X031656Y010238D02*
X031654Y010240D01*
X031656Y010238D02*
X031656Y009595D01*
X031104Y009591D02*
X030906Y009790D01*
X030830Y009790D01*
X030580Y009540D01*
X030580Y009140D01*
X029511Y009082D02*
X029435Y009082D01*
X029392Y008964D02*
X029040Y008964D01*
X028980Y009005D02*
X028380Y009005D01*
X028106Y008931D01*
X028015Y008840D01*
X027580Y008840D01*
X027489Y008931D01*
X027356Y008931D01*
X027589Y008931D01*
X027589Y008931D01*
X027356Y008931D01*
X027356Y008931D01*
X027634Y008845D02*
X027925Y008845D01*
X027925Y008727D02*
X027634Y008727D01*
X027171Y008549D02*
X027080Y008640D01*
X027080Y009640D01*
X027180Y009740D01*
X027311Y009740D01*
X027356Y009695D01*
X026422Y009793D02*
X025840Y009793D01*
X025780Y009829D02*
X025780Y010140D01*
X025720Y010030D02*
X025840Y010030D01*
X025840Y009912D02*
X025720Y009912D01*
X025720Y009675D02*
X025840Y009675D01*
X025840Y009556D02*
X025720Y009556D01*
X025720Y009438D02*
X025840Y009438D01*
X025355Y009438D02*
X025274Y009438D01*
X025260Y009082D02*
X025311Y009082D01*
X025260Y009031D02*
X025260Y009031D01*
X025480Y008940D02*
X026380Y008940D01*
X026480Y009040D01*
X026804Y008927D02*
X026804Y008546D01*
X027171Y008549D02*
X027356Y008549D01*
X027380Y008525D01*
X027380Y008166D01*
X027154Y007940D01*
X027080Y007740D01*
X026580Y007340D02*
X026180Y007340D01*
X025980Y007140D01*
X025380Y007140D01*
X023280Y005040D01*
X023280Y004340D01*
X023180Y004240D01*
X022340Y004240D01*
X021800Y003700D01*
X022240Y003750D02*
X022360Y003750D01*
X022360Y003730D02*
X022360Y003882D01*
X022498Y004020D01*
X022431Y004020D01*
X022240Y003829D01*
X022240Y003518D01*
X021992Y003270D01*
X022608Y003270D01*
X022360Y003518D01*
X022360Y003670D01*
X022770Y003670D01*
X022770Y003730D01*
X022360Y003730D01*
X022360Y003631D02*
X022240Y003631D01*
X022235Y003513D02*
X022365Y003513D01*
X022484Y003394D02*
X022116Y003394D01*
X021998Y003276D02*
X022602Y003276D01*
X022992Y003270D02*
X023240Y003518D01*
X023240Y003670D01*
X022830Y003670D01*
X022830Y003730D01*
X023240Y003730D01*
X023240Y003882D01*
X023102Y004020D01*
X023271Y004020D01*
X023400Y004149D01*
X023500Y004249D01*
X023500Y004378D01*
X023618Y004260D01*
X023982Y004260D01*
X024240Y004518D01*
X024240Y004882D01*
X023982Y005140D01*
X023691Y005140D01*
X025471Y006920D01*
X026071Y006920D01*
X026200Y007049D01*
X026271Y007120D01*
X026294Y007120D01*
X026377Y007036D01*
X026509Y006982D01*
X026651Y006982D01*
X026770Y007031D01*
X026770Y005309D01*
X026698Y005381D01*
X026698Y005381D01*
X026291Y005589D01*
X025840Y005660D01*
X025389Y005589D01*
X024982Y005381D01*
X024982Y005381D01*
X024659Y005058D01*
X024451Y004651D01*
X024380Y004200D01*
X024380Y004200D01*
X024451Y003749D01*
X024659Y003342D01*
X024731Y003270D01*
X023992Y003270D01*
X024240Y003518D01*
X024240Y003882D01*
X023982Y004140D01*
X023618Y004140D01*
X023360Y003882D01*
X023360Y003518D01*
X023608Y003270D01*
X022992Y003270D01*
X022998Y003276D02*
X023602Y003276D01*
X023484Y003394D02*
X023116Y003394D01*
X023235Y003513D02*
X023365Y003513D01*
X023360Y003631D02*
X023240Y003631D01*
X023240Y003750D02*
X023360Y003750D01*
X023360Y003868D02*
X023240Y003868D01*
X023136Y003987D02*
X023464Y003987D01*
X023356Y004105D02*
X023583Y004105D01*
X023475Y004224D02*
X024384Y004224D01*
X024402Y004342D02*
X024064Y004342D01*
X024183Y004461D02*
X024421Y004461D01*
X024440Y004579D02*
X024240Y004579D01*
X024240Y004698D02*
X024475Y004698D01*
X024451Y004651D02*
X024451Y004651D01*
X024535Y004816D02*
X024240Y004816D01*
X024188Y004935D02*
X024596Y004935D01*
X024656Y005053D02*
X024069Y005053D01*
X023841Y005290D02*
X024891Y005290D01*
X024772Y005172D02*
X023723Y005172D01*
X023960Y005409D02*
X025036Y005409D01*
X025268Y005527D02*
X024078Y005527D01*
X024197Y005646D02*
X025749Y005646D01*
X025840Y005660D02*
X025840Y005660D01*
X025931Y005646D02*
X026770Y005646D01*
X026770Y005764D02*
X024315Y005764D01*
X024434Y005883D02*
X026770Y005883D01*
X026770Y006001D02*
X024552Y006001D01*
X024671Y006120D02*
X026770Y006120D01*
X026770Y006238D02*
X024789Y006238D01*
X024908Y006357D02*
X026770Y006357D01*
X026770Y006475D02*
X025026Y006475D01*
X025145Y006594D02*
X026770Y006594D01*
X026770Y006712D02*
X025263Y006712D01*
X025382Y006831D02*
X026770Y006831D01*
X026770Y006949D02*
X026100Y006949D01*
X026219Y007068D02*
X026346Y007068D01*
X025780Y007640D02*
X025380Y007640D01*
X022980Y005240D01*
X021880Y005240D01*
X021800Y005160D01*
X021800Y004700D01*
X022240Y004698D02*
X022770Y004698D01*
X022770Y004670D02*
X022360Y004670D01*
X022360Y004518D01*
X022418Y004460D01*
X022249Y004460D01*
X021929Y004140D01*
X021618Y004140D01*
X021360Y003882D01*
X021360Y003518D01*
X021608Y003270D01*
X020992Y003270D01*
X021240Y003518D01*
X021240Y003829D01*
X021500Y004089D01*
X021500Y004378D01*
X021618Y004260D01*
X021982Y004260D01*
X022240Y004518D01*
X022240Y004882D01*
X022102Y005020D01*
X022498Y005020D01*
X022360Y004882D01*
X022360Y004730D01*
X022770Y004730D01*
X022770Y004670D01*
X022360Y004579D02*
X022240Y004579D01*
X022183Y004461D02*
X022417Y004461D01*
X022131Y004342D02*
X022064Y004342D01*
X022012Y004224D02*
X021500Y004224D01*
X021500Y004342D02*
X021536Y004342D01*
X021500Y004105D02*
X021583Y004105D01*
X021464Y003987D02*
X021398Y003987D01*
X021360Y003868D02*
X021279Y003868D01*
X021240Y003750D02*
X021360Y003750D01*
X021360Y003631D02*
X021240Y003631D01*
X021235Y003513D02*
X021365Y003513D01*
X021484Y003394D02*
X021116Y003394D01*
X020998Y003276D02*
X021602Y003276D01*
X020800Y003700D02*
X021280Y004180D01*
X021280Y005140D01*
X021680Y005540D01*
X022980Y005540D01*
X025280Y007840D01*
X025280Y008740D01*
X025480Y008940D01*
X024700Y008964D02*
X024340Y008964D01*
X024340Y008965D02*
X024700Y008965D01*
X024700Y008845D01*
X024340Y008845D01*
X024220Y008845D01*
X024340Y008845D01*
X024340Y008606D01*
X024276Y008543D01*
X024222Y008411D01*
X024222Y008293D01*
X023570Y007641D01*
X023570Y007821D01*
X023476Y007915D01*
X023374Y007915D01*
X023374Y008282D01*
X023434Y008341D01*
X023434Y008757D01*
X023431Y008760D01*
X023434Y008769D01*
X023434Y008931D01*
X023156Y008931D01*
X023156Y008931D01*
X023434Y008931D01*
X023434Y008980D01*
X023477Y008936D01*
X023609Y008882D01*
X023751Y008882D01*
X023883Y008936D01*
X023912Y008965D01*
X024220Y008965D01*
X024220Y008845D01*
X024220Y008489D01*
X023964Y008489D01*
X023923Y008500D01*
X023886Y008521D01*
X023857Y008551D01*
X023836Y008588D01*
X023825Y008628D01*
X023825Y008845D01*
X023434Y008845D01*
X023434Y008727D02*
X023825Y008727D01*
X023825Y008845D02*
X024220Y008845D01*
X024280Y008905D02*
X024354Y008931D01*
X023156Y008931D01*
X023434Y008964D02*
X023450Y008964D01*
X023910Y008964D02*
X024220Y008964D01*
X024340Y008965D02*
X024340Y008845D01*
X024340Y008727D02*
X024220Y008727D01*
X024220Y008608D02*
X024340Y008608D01*
X024254Y008490D02*
X024220Y008490D01*
X024222Y008371D02*
X023434Y008371D01*
X023434Y008490D02*
X023963Y008490D01*
X023830Y008608D02*
X023434Y008608D01*
X023156Y008549D02*
X023154Y008548D01*
X023154Y007440D01*
X023570Y007660D02*
X023589Y007660D01*
X023570Y007779D02*
X023707Y007779D01*
X023826Y007897D02*
X023494Y007897D01*
X023374Y008016D02*
X023944Y008016D01*
X024063Y008134D02*
X023374Y008134D01*
X023374Y008253D02*
X024181Y008253D01*
X024580Y008340D02*
X023780Y007540D01*
X023780Y007340D01*
X022280Y008140D02*
X022280Y009040D01*
X022380Y009140D01*
X022380Y009716D01*
X022556Y009740D02*
X022604Y009691D01*
X022604Y009940D01*
X022880Y009640D02*
X022935Y009695D01*
X023156Y009695D01*
X022880Y009640D02*
X022880Y008640D01*
X022980Y008540D01*
X023146Y008540D01*
X023156Y008549D01*
X021540Y007796D02*
X021540Y007692D01*
X021567Y007627D01*
X021434Y007760D01*
X021280Y007760D01*
X021280Y007360D01*
X021240Y007360D01*
X021240Y007760D01*
X021086Y007760D01*
X020840Y007514D01*
X020840Y007360D01*
X021240Y007360D01*
X021240Y007320D01*
X020840Y007320D01*
X020840Y007166D01*
X021011Y006995D01*
X020712Y006995D01*
X020660Y006943D01*
X020608Y006995D01*
X020509Y006995D01*
X020680Y007166D01*
X020680Y007514D01*
X020434Y007760D01*
X020411Y007760D01*
X021225Y008574D01*
X021225Y007889D01*
X021318Y007796D01*
X021540Y007796D01*
X021540Y007779D02*
X020430Y007779D01*
X020534Y007660D02*
X020986Y007660D01*
X020868Y007542D02*
X020652Y007542D01*
X020680Y007423D02*
X020840Y007423D01*
X020840Y007305D02*
X020680Y007305D01*
X020680Y007186D02*
X020840Y007186D01*
X020939Y007068D02*
X020581Y007068D01*
X020654Y006949D02*
X020666Y006949D01*
X021565Y007051D02*
X021680Y007166D01*
X021680Y007320D01*
X021280Y007320D01*
X021280Y007360D01*
X021680Y007360D01*
X021680Y007501D01*
X021944Y007237D01*
X021990Y007217D01*
X021990Y007059D01*
X021998Y007051D01*
X021565Y007051D01*
X021581Y007068D02*
X021990Y007068D01*
X021990Y007186D02*
X021680Y007186D01*
X021680Y007305D02*
X021876Y007305D01*
X021758Y007423D02*
X021680Y007423D01*
X021280Y007423D02*
X021240Y007423D01*
X021240Y007542D02*
X021280Y007542D01*
X021280Y007660D02*
X021240Y007660D01*
X021225Y007897D02*
X020548Y007897D01*
X020667Y008016D02*
X021225Y008016D01*
X021225Y008134D02*
X020785Y008134D01*
X020904Y008253D02*
X021225Y008253D01*
X021225Y008371D02*
X021022Y008371D01*
X021141Y008490D02*
X021225Y008490D01*
X020637Y008608D02*
X020135Y008608D01*
X020135Y008490D02*
X020518Y008490D01*
X020400Y008371D02*
X020135Y008371D01*
X020135Y008253D02*
X020281Y008253D01*
X020163Y008134D02*
X020135Y008134D01*
X019680Y008251D02*
X019069Y007740D01*
X018954Y007740D01*
X018592Y007305D02*
X018568Y007305D01*
X017790Y007660D02*
X017211Y007660D01*
X017330Y007779D02*
X017790Y007779D01*
X017790Y007897D02*
X017448Y007897D01*
X017567Y008016D02*
X017790Y008016D01*
X017803Y008134D02*
X017685Y008134D01*
X017804Y008253D02*
X017911Y008253D01*
X018845Y008253D02*
X019225Y008253D01*
X019225Y008371D02*
X018934Y008371D01*
X018934Y008490D02*
X019225Y008490D01*
X019180Y008640D02*
X019580Y009040D01*
X019780Y008840D01*
X020180Y008840D01*
X019680Y009140D02*
X019680Y009629D01*
X019620Y009556D02*
X019740Y009556D01*
X019740Y009438D02*
X019620Y009438D01*
X019620Y009319D02*
X019740Y009319D01*
X019740Y009201D02*
X019620Y009201D01*
X019680Y009140D02*
X019580Y009040D01*
X018934Y008727D02*
X020755Y008727D01*
X023156Y009313D02*
X023607Y009313D01*
X023680Y009240D01*
X025780Y008451D02*
X026291Y007940D01*
X026406Y007940D01*
X028440Y008945D02*
X028440Y009065D01*
X028835Y009065D01*
X028920Y009065D01*
X028920Y008945D01*
X028440Y008945D01*
X028440Y008964D02*
X028920Y008964D01*
X027780Y009240D02*
X027707Y009313D01*
X027356Y009313D01*
X028318Y010860D02*
X032542Y010860D01*
X032612Y010978D02*
X028248Y010978D01*
X030906Y010240D02*
X030906Y009790D01*
X029991Y006831D02*
X033199Y006831D01*
X033205Y006838D02*
X033205Y006838D01*
X033088Y006712D02*
X030152Y006712D01*
X030312Y006594D02*
X032978Y006594D01*
X032867Y006475D02*
X030454Y006475D01*
X030403Y006527D02*
X030403Y006527D01*
X030572Y006357D02*
X032757Y006357D01*
X032647Y006238D02*
X030689Y006238D01*
X030807Y006120D02*
X032563Y006120D01*
X032633Y006223D02*
X032633Y006223D01*
X032482Y006001D02*
X030924Y006001D01*
X031042Y005883D02*
X032402Y005883D01*
X032322Y005764D02*
X031139Y005764D01*
X031224Y005646D02*
X032241Y005646D01*
X032161Y005527D02*
X031310Y005527D01*
X031396Y005409D02*
X032105Y005409D01*
X032049Y005290D02*
X031482Y005290D01*
X031568Y005172D02*
X031993Y005172D01*
X031937Y005053D02*
X031653Y005053D01*
X031713Y004935D02*
X031881Y004935D01*
X031825Y004816D02*
X031774Y004816D01*
X031802Y004768D02*
X031802Y004768D01*
X026770Y005409D02*
X026644Y005409D01*
X026770Y005527D02*
X026412Y005527D01*
X026291Y005589D02*
X026291Y005589D01*
X025389Y005589D02*
X025389Y005589D01*
X024659Y005058D02*
X024659Y005058D01*
X023536Y004342D02*
X023500Y004342D01*
X024017Y004105D02*
X024395Y004105D01*
X024414Y003987D02*
X024136Y003987D01*
X024240Y003868D02*
X024433Y003868D01*
X024451Y003750D02*
X024240Y003750D01*
X024240Y003631D02*
X024511Y003631D01*
X024451Y003749D02*
X024451Y003749D01*
X024572Y003513D02*
X024235Y003513D01*
X024116Y003394D02*
X024632Y003394D01*
X024659Y003342D02*
X024659Y003342D01*
X024725Y003276D02*
X023998Y003276D01*
X022464Y003987D02*
X022398Y003987D01*
X022360Y003868D02*
X022279Y003868D01*
X021012Y004224D02*
X017336Y004224D01*
X017318Y004342D02*
X017536Y004342D01*
X017423Y004461D02*
X017299Y004461D01*
X017280Y004579D02*
X017374Y004579D01*
X017360Y004698D02*
X017245Y004698D01*
X017185Y004816D02*
X017372Y004816D01*
X017421Y004935D02*
X017124Y004935D01*
X017064Y005053D02*
X017531Y005053D01*
X017580Y005172D02*
X016948Y005172D01*
X016829Y005290D02*
X017580Y005290D01*
X017500Y005409D02*
X016684Y005409D01*
X016738Y005381D02*
X016738Y005381D01*
X016452Y005527D02*
X017382Y005527D01*
X017263Y005646D02*
X015971Y005646D01*
X015880Y005660D02*
X015880Y005660D01*
X015789Y005646D02*
X014950Y005646D01*
X014950Y005764D02*
X017145Y005764D01*
X017026Y005883D02*
X014950Y005883D01*
X014950Y006001D02*
X016908Y006001D01*
X016789Y006120D02*
X014950Y006120D01*
X014950Y006238D02*
X016671Y006238D01*
X016552Y006357D02*
X014950Y006357D01*
X014950Y006475D02*
X016434Y006475D01*
X016315Y006594D02*
X014950Y006594D01*
X014950Y006712D02*
X016197Y006712D01*
X016078Y006831D02*
X014950Y006831D01*
X014950Y006949D02*
X015960Y006949D01*
X015841Y007068D02*
X014950Y007068D01*
X014950Y007186D02*
X015760Y007186D01*
X015760Y007305D02*
X014950Y007305D01*
X014950Y007423D02*
X015760Y007423D01*
X015760Y007542D02*
X015153Y007542D01*
X015170Y007660D02*
X015760Y007660D01*
X015760Y007779D02*
X015170Y007779D01*
X015743Y007897D02*
X015760Y007897D01*
X016200Y007423D02*
X016460Y007423D01*
X016460Y007305D02*
X016227Y007305D01*
X016345Y007186D02*
X016460Y007186D01*
X015980Y007240D02*
X015980Y008840D01*
X016321Y008727D02*
X016339Y008727D01*
X016406Y008608D02*
X016254Y008608D01*
X016244Y009082D02*
X016260Y009082D01*
X016260Y009438D02*
X015835Y009438D01*
X015835Y009556D02*
X016260Y009556D01*
X015320Y009675D02*
X014764Y009675D01*
X014794Y009793D02*
X014925Y009793D01*
X014923Y009912D02*
X014925Y009912D01*
X014456Y009695D02*
X014411Y009740D01*
X014280Y009740D01*
X014180Y009640D01*
X014180Y008640D01*
X014271Y008549D01*
X014456Y008549D01*
X014734Y008608D02*
X014925Y008608D01*
X014925Y008490D02*
X014734Y008490D01*
X014734Y008727D02*
X014939Y008727D01*
X014880Y009240D02*
X014807Y009313D01*
X014456Y009313D01*
X013904Y009691D02*
X013531Y009691D01*
X013806Y009790D02*
X013904Y009691D01*
X016480Y011140D02*
X016580Y011240D01*
X017180Y011240D01*
X017280Y011140D01*
X018420Y011140D01*
X018760Y011480D01*
X018760Y012040D01*
X019009Y012289D01*
X020089Y012289D01*
X020180Y012199D01*
X020180Y011320D01*
X020400Y012282D02*
X021408Y012282D01*
X018029Y009691D02*
X017780Y009940D01*
X018029Y009691D02*
X018104Y009691D01*
X021534Y007660D02*
X021553Y007660D01*
X019580Y007054D02*
X019460Y007120D01*
X019580Y006306D02*
X019966Y005920D01*
X020920Y005920D01*
X020946Y005946D01*
X021687Y005946D01*
X019811Y005764D02*
X018167Y005764D01*
X017800Y005420D02*
X015980Y007240D01*
X016331Y005589D02*
X016331Y005589D01*
X015429Y005589D02*
X015429Y005589D01*
X015308Y005527D02*
X014950Y005527D01*
X014950Y005409D02*
X015076Y005409D01*
X017800Y005420D02*
X017800Y004700D01*
X017583Y004105D02*
X017325Y004105D01*
X017306Y003987D02*
X017464Y003987D01*
X017360Y003868D02*
X017287Y003868D01*
X017269Y003750D02*
X017360Y003750D01*
X017269Y003749D02*
X017269Y003749D01*
X017209Y003631D02*
X017360Y003631D01*
X017365Y003513D02*
X017148Y003513D01*
X017088Y003394D02*
X017484Y003394D01*
X017602Y003276D02*
X016995Y003276D01*
X019998Y003276D02*
X020602Y003276D01*
X020484Y003394D02*
X020116Y003394D01*
X020235Y003513D02*
X020365Y003513D01*
X020360Y003631D02*
X020240Y003631D01*
X020240Y003750D02*
X020360Y003750D01*
X020360Y003868D02*
X020240Y003868D01*
X020136Y003987D02*
X020464Y003987D01*
X020583Y004105D02*
X020017Y004105D01*
X022188Y004935D02*
X022412Y004935D01*
X022360Y004816D02*
X022240Y004816D01*
X010811Y007186D02*
X010749Y007186D01*
X005090Y008253D02*
X004987Y008253D01*
X005086Y008371D02*
X004873Y008371D01*
X004765Y008490D02*
X005086Y008490D01*
X005086Y008608D02*
X004698Y008608D01*
X004632Y008727D02*
X005086Y008727D01*
X005086Y008845D02*
X004588Y008845D01*
D25*
X016980Y010475D02*
X017080Y010375D01*
X016980Y010475D02*
X016980Y010840D01*
X023780Y008405D02*
X023780Y008040D01*
X024680Y007740D02*
X024980Y008040D01*
X024980Y009540D01*
X025280Y009840D01*
X025280Y010940D01*
X025180Y011040D01*
X024580Y011040D01*
X024340Y010800D01*
X027554Y010340D02*
X027580Y010340D01*
X024280Y008905D02*
X023780Y008405D01*
X031656Y009595D02*
X032035Y009595D01*
X032180Y009740D01*
X032645Y009740D01*
X032980Y009775D01*
X033580Y009775D01*
X033580Y010775D01*
X033645Y010840D01*
X033645Y011040D02*
X033180Y011040D01*
X032880Y010740D01*
X034315Y010640D02*
X034415Y010540D01*
X034880Y010540D01*
X034380Y010375D02*
X034315Y010440D01*
X034315Y010640D01*
X034315Y011040D01*
X034380Y010375D02*
X034380Y009729D01*
X034380Y009240D01*
X034245Y009105D01*
X033580Y009105D01*
X032980Y009105D01*
X036154Y010240D02*
X036180Y010266D01*
X036180Y010740D01*
X035980Y010940D01*
X035980Y011040D01*
D26*
X035982Y009240D02*
X035956Y009213D01*
X035982Y009240D02*
X036380Y009240D01*
X020089Y012289D02*
X020089Y012766D01*
X010680Y009240D02*
X010607Y009313D01*
X010256Y009313D01*
M02*
