G75*
%MOIN*%
%OFA0B0*%
%FSLAX24Y24*%
%IPPOS*%
%LPD*%
%AMOC8*
5,1,8,0,0,1.08239X$1,22.5*
%
%ADD10R,0.0240X0.0240*%
%ADD11R,0.0709X0.0630*%
%ADD12R,0.0512X0.0591*%
%ADD13R,0.0591X0.0512*%
%ADD14R,0.0630X0.0512*%
%ADD15R,0.0512X0.0630*%
%ADD16R,0.4098X0.4252*%
%ADD17R,0.0850X0.0420*%
%ADD18C,0.0660*%
%ADD19C,0.0560*%
%ADD20R,0.0591X0.0591*%
%ADD21C,0.0600*%
%ADD22C,0.0594*%
%ADD23R,0.0610X0.0512*%
%ADD24R,0.0118X0.0591*%
%ADD25R,0.2540X0.1000*%
%ADD26R,0.0630X0.0709*%
%ADD27R,0.0787X0.0630*%
%ADD28R,0.0551X0.0748*%
%ADD29R,0.0630X0.1181*%
%ADD30R,0.1181X0.0630*%
%ADD31R,0.0110X0.0410*%
%ADD32R,0.0787X0.0984*%
%ADD33R,0.0787X0.1299*%
%ADD34R,0.0197X0.1220*%
%ADD35R,0.0394X0.0551*%
%ADD36C,0.0560*%
%ADD37OC8,0.0560*%
%ADD38R,0.0276X0.0114*%
%ADD39R,0.0114X0.0276*%
%ADD40R,0.0394X0.0157*%
%ADD41R,0.0157X0.0394*%
%ADD42R,0.0390X0.0120*%
%ADD43C,0.0120*%
%ADD44C,0.0160*%
%ADD45C,0.0396*%
%ADD46C,0.0100*%
%ADD47C,0.0240*%
%ADD48C,0.0500*%
D10*
X021600Y013975D03*
X023280Y013895D03*
X023280Y015575D03*
X021520Y019415D03*
X023200Y021095D03*
D11*
X035560Y009406D03*
X036460Y009406D03*
X036460Y008304D03*
X035560Y008304D03*
D12*
X023535Y016335D03*
X022865Y016335D03*
X022735Y017695D03*
X022065Y017695D03*
X022065Y018495D03*
X022735Y018495D03*
X021135Y013695D03*
X020465Y013695D03*
X022145Y013215D03*
X022815Y013215D03*
X037585Y023195D03*
X038255Y023195D03*
X038065Y026835D03*
X038735Y026835D03*
X038775Y027615D03*
X038105Y027615D03*
X034995Y027995D03*
X034325Y027995D03*
X032995Y027815D03*
X032325Y027815D03*
D13*
X030540Y025710D03*
X030540Y025040D03*
X024880Y020030D03*
X024080Y020030D03*
X024080Y019360D03*
X024880Y019360D03*
X014460Y021160D03*
X014460Y021830D03*
X014460Y022540D03*
X014460Y023210D03*
X013720Y023210D03*
X013720Y022540D03*
X013720Y021830D03*
X013720Y021160D03*
D14*
X006880Y021961D03*
X006880Y022709D03*
X006080Y023481D03*
X006080Y024229D03*
X024700Y024369D03*
X024700Y023621D03*
X025520Y023621D03*
X025520Y024369D03*
X037940Y022369D03*
X037940Y021621D03*
X038080Y025221D03*
X038080Y025969D03*
D15*
X031174Y027815D03*
X030426Y027815D03*
X024534Y018495D03*
X023786Y018495D03*
X023786Y017695D03*
X024534Y017695D03*
X022054Y016335D03*
X021306Y016335D03*
X017434Y023015D03*
X016686Y023015D03*
X016386Y023855D03*
X017134Y023855D03*
X016886Y024695D03*
X017634Y024695D03*
X015734Y026595D03*
X014986Y026595D03*
X010094Y026995D03*
X009346Y026995D03*
D16*
X009600Y022115D03*
D17*
X012880Y022115D03*
X012880Y021115D03*
X012880Y023115D03*
D18*
X009120Y008925D02*
X009120Y008265D01*
X007620Y008265D02*
X007620Y008925D01*
X006120Y008925D02*
X006120Y008265D01*
D19*
X006080Y010195D02*
X006080Y010755D01*
X007080Y010755D02*
X007080Y010195D01*
X037740Y023935D02*
X037740Y024495D01*
X038740Y024495D02*
X038740Y023935D01*
D20*
X038880Y022424D03*
X038880Y021046D03*
X014160Y026066D03*
X014160Y027444D03*
X007429Y025115D03*
X006051Y025115D03*
X006000Y022064D03*
X006000Y020686D03*
D21*
X013100Y020335D02*
X013100Y019735D01*
X014100Y019735D02*
X014100Y020335D01*
X015100Y020335D02*
X015100Y019735D01*
X026800Y023595D02*
X026800Y024195D01*
X027800Y024195D02*
X027800Y023595D01*
X028800Y023595D02*
X028800Y024195D01*
X029800Y024195D02*
X029800Y023595D01*
X029760Y022495D02*
X029160Y022495D01*
X029160Y021495D02*
X029760Y021495D01*
X029760Y020495D02*
X029160Y020495D01*
X029160Y019495D02*
X029760Y019495D01*
X032300Y020495D02*
X032300Y021095D01*
X033300Y021095D02*
X033300Y020495D01*
X034300Y020495D02*
X034300Y021095D01*
X035300Y021095D02*
X035300Y020495D01*
D22*
X029634Y017804D03*
X029634Y013867D03*
X015246Y013767D03*
X015246Y017704D03*
D23*
X013365Y026149D03*
X013365Y027921D03*
X010235Y027921D03*
X009165Y027881D03*
X009165Y026109D03*
X010235Y026149D03*
X006035Y026109D03*
X006035Y027881D03*
D24*
X031473Y012135D03*
X031728Y012135D03*
X031984Y012135D03*
X032240Y012135D03*
X032496Y012135D03*
X032752Y012135D03*
X033008Y012135D03*
X033264Y012135D03*
X033520Y012135D03*
X033776Y012135D03*
X034032Y012135D03*
X034287Y012135D03*
X034287Y009576D03*
X034032Y009576D03*
X033776Y009576D03*
X033520Y009576D03*
X033264Y009576D03*
X033008Y009576D03*
X032752Y009576D03*
X032496Y009576D03*
X032240Y009576D03*
X031984Y009576D03*
X031728Y009576D03*
X031473Y009576D03*
D25*
X032880Y010855D03*
D26*
X032711Y008555D03*
X033589Y008575D03*
X034691Y008575D03*
X031609Y008555D03*
D27*
X037520Y008304D03*
X037520Y009406D03*
D28*
X037252Y026109D03*
X036308Y026109D03*
X036308Y027841D03*
X037252Y027841D03*
D29*
X029880Y010121D03*
X029880Y008389D03*
D30*
X014306Y024635D03*
X012574Y024635D03*
D31*
G36*
X031740Y024705D02*
X031663Y024628D01*
X031374Y024917D01*
X031451Y024994D01*
X031740Y024705D01*
G37*
G36*
X031874Y024839D02*
X031797Y024762D01*
X031508Y025051D01*
X031585Y025128D01*
X031874Y024839D01*
G37*
G36*
X032015Y024981D02*
X031938Y024904D01*
X031649Y025193D01*
X031726Y025270D01*
X032015Y024981D01*
G37*
G36*
X032157Y025122D02*
X032080Y025045D01*
X031791Y025334D01*
X031868Y025411D01*
X032157Y025122D01*
G37*
G36*
X032291Y025257D02*
X032214Y025180D01*
X031925Y025469D01*
X032002Y025546D01*
X032291Y025257D01*
G37*
G36*
X032433Y025398D02*
X032356Y025321D01*
X032067Y025610D01*
X032144Y025687D01*
X032433Y025398D01*
G37*
G36*
X032574Y025539D02*
X032497Y025462D01*
X032208Y025751D01*
X032285Y025828D01*
X032574Y025539D01*
G37*
G36*
X032715Y025681D02*
X032638Y025604D01*
X032349Y025893D01*
X032426Y025970D01*
X032715Y025681D01*
G37*
G36*
X032850Y025815D02*
X032773Y025738D01*
X032484Y026027D01*
X032561Y026104D01*
X032850Y025815D01*
G37*
G36*
X032991Y025957D02*
X032914Y025880D01*
X032625Y026169D01*
X032702Y026246D01*
X032991Y025957D01*
G37*
G36*
X033133Y026098D02*
X033056Y026021D01*
X032767Y026310D01*
X032844Y026387D01*
X033133Y026098D01*
G37*
G36*
X033267Y026232D02*
X033190Y026155D01*
X032901Y026444D01*
X032978Y026521D01*
X033267Y026232D01*
G37*
G36*
X033982Y026521D02*
X034059Y026444D01*
X033770Y026155D01*
X033693Y026232D01*
X033982Y026521D01*
G37*
G36*
X034116Y026387D02*
X034193Y026310D01*
X033904Y026021D01*
X033827Y026098D01*
X034116Y026387D01*
G37*
G36*
X034258Y026246D02*
X034335Y026169D01*
X034046Y025880D01*
X033969Y025957D01*
X034258Y026246D01*
G37*
G36*
X034399Y026104D02*
X034476Y026027D01*
X034187Y025738D01*
X034110Y025815D01*
X034399Y026104D01*
G37*
G36*
X034534Y025970D02*
X034611Y025893D01*
X034322Y025604D01*
X034245Y025681D01*
X034534Y025970D01*
G37*
G36*
X034675Y025828D02*
X034752Y025751D01*
X034463Y025462D01*
X034386Y025539D01*
X034675Y025828D01*
G37*
G36*
X034816Y025687D02*
X034893Y025610D01*
X034604Y025321D01*
X034527Y025398D01*
X034816Y025687D01*
G37*
G36*
X034958Y025546D02*
X035035Y025469D01*
X034746Y025180D01*
X034669Y025257D01*
X034958Y025546D01*
G37*
G36*
X035092Y025411D02*
X035169Y025334D01*
X034880Y025045D01*
X034803Y025122D01*
X035092Y025411D01*
G37*
G36*
X035234Y025270D02*
X035311Y025193D01*
X035022Y024904D01*
X034945Y024981D01*
X035234Y025270D01*
G37*
G36*
X035375Y025128D02*
X035452Y025051D01*
X035163Y024762D01*
X035086Y024839D01*
X035375Y025128D01*
G37*
G36*
X035509Y024994D02*
X035586Y024917D01*
X035297Y024628D01*
X035220Y024705D01*
X035509Y024994D01*
G37*
G36*
X035586Y023913D02*
X035509Y023836D01*
X035220Y024125D01*
X035297Y024202D01*
X035586Y023913D01*
G37*
G36*
X035452Y023779D02*
X035375Y023702D01*
X035086Y023991D01*
X035163Y024068D01*
X035452Y023779D01*
G37*
G36*
X035311Y023637D02*
X035234Y023560D01*
X034945Y023849D01*
X035022Y023926D01*
X035311Y023637D01*
G37*
G36*
X035169Y023496D02*
X035092Y023419D01*
X034803Y023708D01*
X034880Y023785D01*
X035169Y023496D01*
G37*
G36*
X035035Y023362D02*
X034958Y023285D01*
X034669Y023574D01*
X034746Y023651D01*
X035035Y023362D01*
G37*
G36*
X034893Y023220D02*
X034816Y023143D01*
X034527Y023432D01*
X034604Y023509D01*
X034893Y023220D01*
G37*
G36*
X034752Y023079D02*
X034675Y023002D01*
X034386Y023291D01*
X034463Y023368D01*
X034752Y023079D01*
G37*
G36*
X034611Y022937D02*
X034534Y022860D01*
X034245Y023149D01*
X034322Y023226D01*
X034611Y022937D01*
G37*
G36*
X034476Y022803D02*
X034399Y022726D01*
X034110Y023015D01*
X034187Y023092D01*
X034476Y022803D01*
G37*
G36*
X034335Y022662D02*
X034258Y022585D01*
X033969Y022874D01*
X034046Y022951D01*
X034335Y022662D01*
G37*
G36*
X034193Y022520D02*
X034116Y022443D01*
X033827Y022732D01*
X033904Y022809D01*
X034193Y022520D01*
G37*
G36*
X034059Y022386D02*
X033982Y022309D01*
X033693Y022598D01*
X033770Y022675D01*
X034059Y022386D01*
G37*
G36*
X033190Y022675D02*
X033267Y022598D01*
X032978Y022309D01*
X032901Y022386D01*
X033190Y022675D01*
G37*
G36*
X033056Y022809D02*
X033133Y022732D01*
X032844Y022443D01*
X032767Y022520D01*
X033056Y022809D01*
G37*
G36*
X032914Y022951D02*
X032991Y022874D01*
X032702Y022585D01*
X032625Y022662D01*
X032914Y022951D01*
G37*
G36*
X032773Y023092D02*
X032850Y023015D01*
X032561Y022726D01*
X032484Y022803D01*
X032773Y023092D01*
G37*
G36*
X032638Y023226D02*
X032715Y023149D01*
X032426Y022860D01*
X032349Y022937D01*
X032638Y023226D01*
G37*
G36*
X032497Y023368D02*
X032574Y023291D01*
X032285Y023002D01*
X032208Y023079D01*
X032497Y023368D01*
G37*
G36*
X032356Y023509D02*
X032433Y023432D01*
X032144Y023143D01*
X032067Y023220D01*
X032356Y023509D01*
G37*
G36*
X032214Y023651D02*
X032291Y023574D01*
X032002Y023285D01*
X031925Y023362D01*
X032214Y023651D01*
G37*
G36*
X032080Y023785D02*
X032157Y023708D01*
X031868Y023419D01*
X031791Y023496D01*
X032080Y023785D01*
G37*
G36*
X031938Y023926D02*
X032015Y023849D01*
X031726Y023560D01*
X031649Y023637D01*
X031938Y023926D01*
G37*
G36*
X031797Y024068D02*
X031874Y023991D01*
X031585Y023702D01*
X031508Y023779D01*
X031797Y024068D01*
G37*
G36*
X031663Y024202D02*
X031740Y024125D01*
X031451Y023836D01*
X031374Y023913D01*
X031663Y024202D01*
G37*
D32*
X014152Y008834D03*
X010648Y008834D03*
D33*
X010648Y011157D03*
X014152Y011157D03*
D34*
X013030Y011196D03*
X012715Y011196D03*
X012400Y011196D03*
X012085Y011196D03*
X011770Y011196D03*
D35*
X015780Y024962D03*
X015406Y025828D03*
X016154Y025828D03*
D36*
X019500Y027435D03*
D37*
X019500Y026435D03*
X020500Y026435D03*
X020500Y027435D03*
X021500Y027435D03*
X021500Y026435D03*
X022500Y026435D03*
X023500Y026435D03*
X023500Y027435D03*
X022500Y027435D03*
X024500Y027435D03*
X024500Y026435D03*
X025500Y026435D03*
X025500Y027435D03*
D38*
X023138Y020747D03*
X023138Y020550D03*
X023138Y020354D03*
X023138Y020157D03*
X023138Y019960D03*
X023138Y019763D03*
X021662Y019763D03*
X021662Y019960D03*
X021662Y020157D03*
X021662Y020354D03*
X021662Y020550D03*
X021662Y020747D03*
D39*
X021908Y020993D03*
X022105Y020993D03*
X022302Y020993D03*
X022498Y020993D03*
X022695Y020993D03*
X022892Y020993D03*
X022892Y019517D03*
X022695Y019517D03*
X022498Y019517D03*
X022302Y019517D03*
X022105Y019517D03*
X021908Y019517D03*
D40*
X021672Y015119D03*
X021672Y014863D03*
X021672Y014607D03*
X021672Y014351D03*
X023128Y014351D03*
X023128Y014607D03*
X023128Y014863D03*
X023128Y015119D03*
D41*
X022784Y015463D03*
X022528Y015463D03*
X022272Y015463D03*
X022016Y015463D03*
X022016Y014007D03*
X022272Y014007D03*
X022528Y014007D03*
X022784Y014007D03*
D42*
X019869Y014384D03*
X019869Y014639D03*
X019869Y014895D03*
X019869Y015151D03*
X019869Y015407D03*
X019869Y015663D03*
X019869Y015919D03*
X019869Y016175D03*
X019869Y016431D03*
X019869Y016687D03*
X017571Y016687D03*
X017571Y016431D03*
X017571Y016175D03*
X017571Y015919D03*
X017571Y015663D03*
X017571Y015407D03*
X017571Y015151D03*
X017571Y014895D03*
X017571Y014639D03*
X017571Y014384D03*
D43*
X006535Y007988D02*
X006453Y007905D01*
X007287Y007905D01*
X007205Y007988D01*
X007130Y008168D01*
X007130Y009023D01*
X007205Y009203D01*
X007342Y009340D01*
X007523Y009415D01*
X007717Y009415D01*
X007898Y009340D01*
X008035Y009203D01*
X008110Y009023D01*
X008110Y008168D01*
X008035Y007988D01*
X007953Y007905D01*
X008787Y007905D01*
X008705Y007988D01*
X008630Y008168D01*
X008630Y009023D01*
X008705Y009203D01*
X008842Y009340D01*
X009023Y009415D01*
X009110Y009415D01*
X009110Y018337D01*
X009172Y018487D01*
X009288Y018603D01*
X009288Y018603D01*
X009732Y019047D01*
X009848Y019163D01*
X009998Y019225D01*
X013670Y019225D01*
X013670Y019571D01*
X013640Y019644D01*
X013640Y020427D01*
X013690Y020547D01*
X013690Y020705D01*
X013373Y020705D01*
X013400Y020686D01*
X013451Y020635D01*
X013493Y020576D01*
X013526Y020512D01*
X013549Y020443D01*
X013560Y020371D01*
X013560Y020075D01*
X013140Y020075D01*
X013140Y019995D01*
X013140Y019276D01*
X013208Y019286D01*
X013277Y019309D01*
X013341Y019342D01*
X013400Y019384D01*
X013451Y019435D01*
X013493Y019494D01*
X013526Y019559D01*
X013549Y019627D01*
X013560Y019699D01*
X013560Y019995D01*
X013140Y019995D01*
X013060Y019995D01*
X013060Y019276D01*
X012992Y019286D01*
X012923Y019309D01*
X012859Y019342D01*
X012800Y019384D01*
X012749Y019435D01*
X012707Y019494D01*
X012674Y019559D01*
X012651Y019627D01*
X012640Y019699D01*
X012640Y019995D01*
X013060Y019995D01*
X013060Y020075D01*
X012640Y020075D01*
X012640Y020371D01*
X012651Y020443D01*
X012674Y020512D01*
X012707Y020576D01*
X012749Y020635D01*
X012800Y020686D01*
X012827Y020705D01*
X012798Y020705D01*
X012702Y020745D01*
X012389Y020745D01*
X012295Y020839D01*
X012295Y021391D01*
X012389Y021485D01*
X012702Y021485D01*
X012798Y021525D01*
X013272Y021525D01*
X013265Y021553D01*
X013265Y021745D01*
X012925Y021745D01*
X012925Y022070D01*
X012835Y022070D01*
X012835Y021745D01*
X012434Y021745D01*
X012393Y021756D01*
X012357Y021777D01*
X012327Y021807D01*
X012306Y021843D01*
X012295Y021884D01*
X012295Y022070D01*
X012835Y022070D01*
X012835Y022160D01*
X012295Y022160D01*
X012295Y022346D01*
X012306Y022387D01*
X012327Y022423D01*
X012357Y022453D01*
X012393Y022474D01*
X012434Y022485D01*
X012835Y022485D01*
X012835Y022160D01*
X012925Y022160D01*
X013283Y022160D01*
X013276Y022147D01*
X013265Y022107D01*
X013265Y022070D01*
X012925Y022070D01*
X012925Y022160D01*
X012925Y022485D01*
X013326Y022485D01*
X013343Y022480D01*
X013660Y022480D01*
X013780Y022480D01*
X013780Y022125D01*
X013780Y021890D01*
X013660Y021890D01*
X013660Y022480D01*
X013660Y022600D01*
X013265Y022600D01*
X013265Y022745D01*
X013158Y022745D01*
X013062Y022705D01*
X012798Y022705D01*
X012702Y022745D01*
X012389Y022745D01*
X012295Y022839D01*
X012295Y023391D01*
X012389Y023485D01*
X012702Y023485D01*
X011809Y023485D01*
X011809Y023367D02*
X012295Y023367D01*
X012295Y023248D02*
X011809Y023248D01*
X011809Y023130D02*
X012295Y023130D01*
X012295Y023011D02*
X011809Y023011D01*
X011809Y022893D02*
X012295Y022893D01*
X012360Y022774D02*
X011809Y022774D01*
X011809Y022656D02*
X013265Y022656D01*
X013660Y022537D02*
X011809Y022537D01*
X011809Y022419D02*
X012324Y022419D01*
X012295Y022300D02*
X011809Y022300D01*
X011809Y022182D02*
X012295Y022182D01*
X012295Y022063D02*
X011809Y022063D01*
X011809Y021945D02*
X012295Y021945D01*
X012316Y021826D02*
X011809Y021826D01*
X011809Y021708D02*
X013265Y021708D01*
X013265Y021589D02*
X011809Y021589D01*
X011809Y021471D02*
X012374Y021471D01*
X012295Y021352D02*
X011809Y021352D01*
X011809Y021234D02*
X012295Y021234D01*
X012295Y021115D02*
X011809Y021115D01*
X011809Y020997D02*
X012295Y020997D01*
X012295Y020878D02*
X011809Y020878D01*
X011809Y020760D02*
X012374Y020760D01*
X012679Y020523D02*
X011809Y020523D01*
X011809Y020641D02*
X012755Y020641D01*
X012645Y020404D02*
X011809Y020404D01*
X011809Y020286D02*
X012640Y020286D01*
X012640Y020167D02*
X011809Y020167D01*
X011809Y020049D02*
X013060Y020049D01*
X013140Y020049D02*
X013640Y020049D01*
X013640Y020167D02*
X013560Y020167D01*
X013560Y020286D02*
X013640Y020286D01*
X013640Y020404D02*
X013555Y020404D01*
X013521Y020523D02*
X013680Y020523D01*
X013690Y020641D02*
X013445Y020641D01*
X013560Y019930D02*
X013640Y019930D01*
X013640Y019812D02*
X013560Y019812D01*
X013559Y019693D02*
X013640Y019693D01*
X013669Y019575D02*
X013532Y019575D01*
X013466Y019456D02*
X013670Y019456D01*
X013670Y019338D02*
X013333Y019338D01*
X013140Y019338D02*
X013060Y019338D01*
X013060Y019456D02*
X013140Y019456D01*
X013140Y019575D02*
X013060Y019575D01*
X013060Y019693D02*
X013140Y019693D01*
X013140Y019812D02*
X013060Y019812D01*
X013060Y019930D02*
X013140Y019930D01*
X012640Y019930D02*
X011809Y019930D01*
X011809Y019923D02*
X011809Y024307D01*
X011715Y024401D01*
X007485Y024401D01*
X007391Y024307D01*
X007391Y020268D01*
X007309Y020290D01*
X007042Y020290D01*
X006785Y020221D01*
X006555Y020088D01*
X006366Y019899D01*
X006233Y019669D01*
X006164Y019412D01*
X006164Y019145D01*
X006233Y018888D01*
X006366Y018658D01*
X006555Y018469D01*
X006785Y018336D01*
X007042Y018267D01*
X007309Y018267D01*
X007566Y018336D01*
X007796Y018469D01*
X007985Y018658D01*
X008118Y018888D01*
X008187Y019145D01*
X008187Y019412D01*
X008118Y019669D01*
X008025Y019829D01*
X011715Y019829D01*
X011809Y019923D01*
X012640Y019812D02*
X008035Y019812D01*
X008104Y019693D02*
X012641Y019693D01*
X012668Y019575D02*
X008143Y019575D01*
X008175Y019456D02*
X012734Y019456D01*
X012867Y019338D02*
X008187Y019338D01*
X008187Y019219D02*
X009984Y019219D01*
X009786Y019101D02*
X008175Y019101D01*
X008143Y018982D02*
X009667Y018982D01*
X009549Y018864D02*
X008104Y018864D01*
X008035Y018745D02*
X009430Y018745D01*
X009312Y018627D02*
X007954Y018627D01*
X007835Y018508D02*
X009193Y018508D01*
X009132Y018390D02*
X007658Y018390D01*
X007323Y018271D02*
X009110Y018271D01*
X009110Y018153D02*
X005870Y018153D01*
X005870Y018271D02*
X007028Y018271D01*
X006692Y018390D02*
X005870Y018390D01*
X005870Y018508D02*
X006516Y018508D01*
X006397Y018627D02*
X005870Y018627D01*
X005870Y018745D02*
X006316Y018745D01*
X006247Y018864D02*
X005870Y018864D01*
X005870Y018982D02*
X006208Y018982D01*
X006176Y019101D02*
X005870Y019101D01*
X005870Y019219D02*
X006164Y019219D01*
X006164Y019338D02*
X005870Y019338D01*
X005870Y019456D02*
X006176Y019456D01*
X006208Y019575D02*
X005870Y019575D01*
X005870Y019693D02*
X006247Y019693D01*
X006316Y019812D02*
X005870Y019812D01*
X005870Y019930D02*
X006397Y019930D01*
X006516Y020049D02*
X005870Y020049D01*
X005870Y020167D02*
X006692Y020167D01*
X006455Y020325D02*
X006455Y020475D01*
X006551Y020475D01*
X006680Y020604D01*
X006780Y020704D01*
X006780Y020941D01*
X006789Y020937D01*
X006931Y020937D01*
X007063Y020991D01*
X007164Y021092D01*
X007218Y021224D01*
X007218Y021366D01*
X007164Y021498D01*
X007116Y021545D01*
X007261Y021545D01*
X007355Y021639D01*
X007355Y022283D01*
X007303Y022335D01*
X007355Y022387D01*
X007355Y023031D01*
X007261Y023125D01*
X007218Y023125D01*
X007218Y023266D01*
X007164Y023398D01*
X007063Y023499D01*
X006931Y023553D01*
X006789Y023553D01*
X006657Y023499D01*
X006556Y023398D01*
X006555Y023394D01*
X006555Y023803D01*
X006503Y023855D01*
X006555Y023907D01*
X006555Y024551D01*
X006461Y024645D01*
X006300Y024645D01*
X006300Y024660D01*
X006413Y024660D01*
X006506Y024754D01*
X006506Y025477D01*
X006413Y025570D01*
X005870Y025570D01*
X005870Y025693D01*
X005975Y025693D01*
X005975Y026049D01*
X006095Y026049D01*
X006095Y025693D01*
X006361Y025693D01*
X006402Y025704D01*
X006438Y025725D01*
X006468Y025755D01*
X006489Y025792D01*
X006500Y025832D01*
X006500Y026049D01*
X006095Y026049D01*
X006095Y026169D01*
X006500Y026169D01*
X006500Y026386D01*
X006489Y026427D01*
X006468Y026463D01*
X006438Y026493D01*
X006402Y026514D01*
X006361Y026525D01*
X006095Y026525D01*
X006095Y026169D01*
X005975Y026169D01*
X005975Y026525D01*
X005870Y026525D01*
X005870Y027465D01*
X006406Y027465D01*
X006500Y027559D01*
X006500Y027661D01*
X008700Y027661D01*
X008700Y027559D01*
X008794Y027465D01*
X009019Y027465D01*
X008930Y027376D01*
X008930Y027205D01*
X008856Y027205D01*
X008763Y027299D01*
X008631Y027353D01*
X008489Y027353D01*
X008357Y027299D01*
X008256Y027198D01*
X008202Y027066D01*
X008202Y026924D01*
X008256Y026792D01*
X008357Y026691D01*
X008489Y026637D01*
X008631Y026637D01*
X008763Y026691D01*
X008856Y026785D01*
X008930Y026785D01*
X008930Y026614D01*
X009019Y026525D01*
X008839Y026525D01*
X008798Y026514D01*
X008762Y026493D01*
X008732Y026463D01*
X008711Y026427D01*
X008700Y026386D01*
X008700Y026169D01*
X009105Y026169D01*
X009105Y026049D01*
X008700Y026049D01*
X008700Y025832D01*
X008711Y025792D01*
X008732Y025755D01*
X008762Y025725D01*
X008798Y025704D01*
X008839Y025693D01*
X008955Y025693D01*
X008902Y025566D01*
X008902Y025424D01*
X008956Y025292D01*
X009057Y025191D01*
X009189Y025137D01*
X009331Y025137D01*
X009463Y025191D01*
X009526Y025255D01*
X013761Y025255D01*
X013906Y025110D01*
X013649Y025110D01*
X013556Y025016D01*
X013556Y024254D01*
X013649Y024160D01*
X013896Y024160D01*
X013896Y023626D01*
X013358Y023626D01*
X013338Y023605D01*
X012978Y023605D01*
X012828Y023543D01*
X012810Y023525D01*
X012798Y023525D01*
X012702Y023485D01*
X012975Y023604D02*
X011809Y023604D01*
X011809Y023722D02*
X013896Y023722D01*
X013896Y023841D02*
X011809Y023841D01*
X011809Y023959D02*
X013896Y023959D01*
X013896Y024078D02*
X011809Y024078D01*
X011809Y024196D02*
X011881Y024196D01*
X011885Y024192D02*
X011855Y024222D01*
X011834Y024258D01*
X011823Y024299D01*
X011823Y024575D01*
X012514Y024575D01*
X012634Y024575D01*
X012634Y024695D01*
X013324Y024695D01*
X013324Y024971D01*
X013314Y025012D01*
X013292Y025048D01*
X013263Y025078D01*
X013226Y025099D01*
X013185Y025110D01*
X012634Y025110D01*
X012634Y024695D01*
X012514Y024695D01*
X012514Y025110D01*
X011962Y025110D01*
X011922Y025099D01*
X011885Y025078D01*
X011855Y025048D01*
X011834Y025012D01*
X011823Y024971D01*
X011823Y024695D01*
X012514Y024695D01*
X012514Y024575D01*
X012514Y024160D01*
X011962Y024160D01*
X011922Y024171D01*
X011885Y024192D01*
X011823Y024315D02*
X011802Y024315D01*
X011823Y024433D02*
X006555Y024433D01*
X006555Y024315D02*
X007398Y024315D01*
X007391Y024196D02*
X006555Y024196D01*
X006555Y024078D02*
X007391Y024078D01*
X007391Y023959D02*
X006555Y023959D01*
X006518Y023841D02*
X007391Y023841D01*
X007391Y023722D02*
X006555Y023722D01*
X006555Y023604D02*
X007391Y023604D01*
X007391Y023485D02*
X007076Y023485D01*
X007177Y023367D02*
X007391Y023367D01*
X007391Y023248D02*
X007218Y023248D01*
X007218Y023130D02*
X007391Y023130D01*
X007391Y023011D02*
X007355Y023011D01*
X007355Y022893D02*
X007391Y022893D01*
X007391Y022774D02*
X007355Y022774D01*
X007355Y022656D02*
X007391Y022656D01*
X007391Y022537D02*
X007355Y022537D01*
X007355Y022419D02*
X007391Y022419D01*
X007391Y022300D02*
X007338Y022300D01*
X007355Y022182D02*
X007391Y022182D01*
X007391Y022063D02*
X007355Y022063D01*
X007355Y021945D02*
X007391Y021945D01*
X007391Y021826D02*
X007355Y021826D01*
X007355Y021708D02*
X007391Y021708D01*
X007391Y021589D02*
X007305Y021589D01*
X007391Y021471D02*
X007175Y021471D01*
X007218Y021352D02*
X007391Y021352D01*
X007391Y021234D02*
X007218Y021234D01*
X007173Y021115D02*
X007391Y021115D01*
X007391Y020997D02*
X007068Y020997D01*
X006780Y020878D02*
X007391Y020878D01*
X007391Y020760D02*
X006780Y020760D01*
X006717Y020641D02*
X007391Y020641D01*
X007391Y020523D02*
X006599Y020523D01*
X006455Y020404D02*
X007391Y020404D01*
X007391Y020286D02*
X007323Y020286D01*
X007028Y020286D02*
X006416Y020286D01*
X006455Y020325D02*
X006362Y020231D01*
X005870Y020231D01*
X005870Y011401D01*
X006001Y011532D01*
X006104Y011575D01*
X006364Y011575D01*
X006233Y011801D01*
X006164Y012059D01*
X006164Y012325D01*
X006233Y012582D01*
X006366Y012813D01*
X006555Y013001D01*
X006785Y013134D01*
X007042Y013203D01*
X007309Y013203D01*
X007566Y013134D01*
X007796Y013001D01*
X007985Y012813D01*
X008118Y012582D01*
X008187Y012325D01*
X008187Y012059D01*
X008118Y011801D01*
X007985Y011571D01*
X007892Y011479D01*
X007917Y011454D01*
X007917Y011454D01*
X008356Y011015D01*
X008494Y011015D01*
X008517Y011039D01*
X008649Y011093D01*
X008791Y011093D01*
X008923Y011039D01*
X009024Y010938D01*
X009078Y010806D01*
X009078Y010664D01*
X009024Y010532D01*
X008923Y010431D01*
X008791Y010377D01*
X008649Y010377D01*
X008517Y010431D01*
X008494Y010455D01*
X008184Y010455D01*
X008081Y010498D01*
X007564Y011015D01*
X007435Y011015D01*
X007456Y010986D01*
X007488Y010924D01*
X007509Y010858D01*
X007520Y010790D01*
X007520Y010505D01*
X007110Y010505D01*
X007110Y010445D01*
X007110Y009755D01*
X007115Y009755D01*
X007183Y009766D01*
X007249Y009787D01*
X007311Y009819D01*
X007367Y009859D01*
X007416Y009908D01*
X007456Y009964D01*
X007488Y010026D01*
X007509Y010092D01*
X007520Y010160D01*
X007520Y010445D01*
X007110Y010445D01*
X007050Y010445D01*
X007050Y009755D01*
X007045Y009755D01*
X006977Y009766D01*
X006911Y009787D01*
X006849Y009819D01*
X006793Y009859D01*
X006744Y009908D01*
X006704Y009964D01*
X006672Y010026D01*
X006651Y010092D01*
X006640Y010160D01*
X006640Y010445D01*
X007050Y010445D01*
X007050Y010505D01*
X006640Y010505D01*
X006640Y010790D01*
X006651Y010858D01*
X006672Y010924D01*
X006704Y010986D01*
X006725Y011015D01*
X006442Y011015D01*
X006453Y011004D01*
X006520Y010843D01*
X006520Y010108D01*
X006453Y009946D01*
X006329Y009822D01*
X006168Y009755D01*
X005992Y009755D01*
X005870Y009806D01*
X005870Y009352D01*
X006023Y009415D01*
X006217Y009415D01*
X006398Y009340D01*
X006535Y009203D01*
X006610Y009023D01*
X006610Y008168D01*
X006535Y007988D01*
X006509Y007962D02*
X007231Y007962D01*
X007166Y008080D02*
X006574Y008080D01*
X006610Y008199D02*
X007130Y008199D01*
X007130Y008317D02*
X006610Y008317D01*
X006610Y008436D02*
X007130Y008436D01*
X007130Y008554D02*
X006610Y008554D01*
X006610Y008673D02*
X007130Y008673D01*
X007130Y008791D02*
X006610Y008791D01*
X006610Y008910D02*
X007130Y008910D01*
X007132Y009028D02*
X006608Y009028D01*
X006559Y009147D02*
X007181Y009147D01*
X007267Y009265D02*
X006473Y009265D01*
X006294Y009384D02*
X007446Y009384D01*
X007794Y009384D02*
X008946Y009384D01*
X009110Y009502D02*
X005870Y009502D01*
X005870Y009384D02*
X005947Y009384D01*
X005870Y009621D02*
X009110Y009621D01*
X009110Y009739D02*
X005870Y009739D01*
X006365Y009858D02*
X006796Y009858D01*
X006698Y009976D02*
X006466Y009976D01*
X006515Y010095D02*
X006650Y010095D01*
X006640Y010213D02*
X006520Y010213D01*
X006520Y010332D02*
X006640Y010332D01*
X006520Y010450D02*
X007050Y010450D01*
X007110Y010450D02*
X008499Y010450D01*
X008941Y010450D02*
X009110Y010450D01*
X009110Y010332D02*
X007520Y010332D01*
X007520Y010213D02*
X009110Y010213D01*
X009110Y010095D02*
X007510Y010095D01*
X007462Y009976D02*
X009110Y009976D01*
X009110Y009858D02*
X007364Y009858D01*
X007110Y009858D02*
X007050Y009858D01*
X007050Y009976D02*
X007110Y009976D01*
X007110Y010095D02*
X007050Y010095D01*
X007050Y010213D02*
X007110Y010213D01*
X007110Y010332D02*
X007050Y010332D01*
X006640Y010569D02*
X006520Y010569D01*
X006520Y010687D02*
X006640Y010687D01*
X006643Y010806D02*
X006520Y010806D01*
X006486Y010924D02*
X006672Y010924D01*
X006329Y011635D02*
X005870Y011635D01*
X005870Y011517D02*
X005986Y011517D01*
X005870Y011754D02*
X006261Y011754D01*
X006214Y011872D02*
X005870Y011872D01*
X005870Y011991D02*
X006182Y011991D01*
X006164Y012109D02*
X005870Y012109D01*
X005870Y012228D02*
X006164Y012228D01*
X006170Y012346D02*
X005870Y012346D01*
X005870Y012465D02*
X006202Y012465D01*
X006234Y012583D02*
X005870Y012583D01*
X005870Y012702D02*
X006302Y012702D01*
X006374Y012820D02*
X005870Y012820D01*
X005870Y012939D02*
X006492Y012939D01*
X006652Y013057D02*
X005870Y013057D01*
X005870Y013176D02*
X006940Y013176D01*
X007411Y013176D02*
X009110Y013176D01*
X009110Y013294D02*
X005870Y013294D01*
X005870Y013413D02*
X009110Y013413D01*
X009110Y013531D02*
X005870Y013531D01*
X005870Y013650D02*
X009110Y013650D01*
X009110Y013768D02*
X005870Y013768D01*
X005870Y013887D02*
X009110Y013887D01*
X009110Y014005D02*
X005870Y014005D01*
X005870Y014124D02*
X009110Y014124D01*
X009110Y014242D02*
X005870Y014242D01*
X005870Y014361D02*
X009110Y014361D01*
X009110Y014479D02*
X005870Y014479D01*
X005870Y014598D02*
X009110Y014598D01*
X009110Y014716D02*
X005870Y014716D01*
X005870Y014835D02*
X009110Y014835D01*
X009110Y014953D02*
X005870Y014953D01*
X005870Y015072D02*
X009110Y015072D01*
X009110Y015190D02*
X005870Y015190D01*
X005870Y015309D02*
X009110Y015309D01*
X009110Y015427D02*
X005870Y015427D01*
X005870Y015546D02*
X009110Y015546D01*
X009110Y015664D02*
X005870Y015664D01*
X005870Y015783D02*
X009110Y015783D01*
X009110Y015901D02*
X005870Y015901D01*
X005870Y016020D02*
X009110Y016020D01*
X009110Y016138D02*
X005870Y016138D01*
X005870Y016257D02*
X009110Y016257D01*
X009110Y016375D02*
X005870Y016375D01*
X005870Y016494D02*
X009110Y016494D01*
X009110Y016612D02*
X005870Y016612D01*
X005870Y016731D02*
X009110Y016731D01*
X009110Y016849D02*
X005870Y016849D01*
X005870Y016968D02*
X009110Y016968D01*
X009110Y017086D02*
X005870Y017086D01*
X005870Y017205D02*
X009110Y017205D01*
X009110Y017323D02*
X005870Y017323D01*
X005870Y017442D02*
X009110Y017442D01*
X009110Y017560D02*
X005870Y017560D01*
X005870Y017679D02*
X009110Y017679D01*
X009110Y017797D02*
X005870Y017797D01*
X005870Y017916D02*
X009110Y017916D01*
X009110Y018034D02*
X005870Y018034D01*
X006860Y020495D02*
X007660Y020495D01*
X006560Y020795D02*
X006460Y020695D01*
X006009Y020695D01*
X006000Y020686D01*
X006000Y020815D01*
X005870Y021141D02*
X006340Y021141D01*
X006340Y021586D01*
X006405Y021651D01*
X006405Y021652D01*
X006394Y021641D01*
X006357Y021620D01*
X006316Y021609D01*
X006060Y021609D01*
X006060Y022004D01*
X005940Y022004D01*
X005940Y021609D01*
X005870Y021609D01*
X005870Y021141D01*
X005870Y021234D02*
X006340Y021234D01*
X006340Y021352D02*
X005870Y021352D01*
X005960Y021295D02*
X005960Y022024D01*
X006000Y022064D01*
X006060Y022124D02*
X005940Y022124D01*
X005940Y022519D01*
X005870Y022519D01*
X005870Y023065D01*
X005886Y023065D01*
X005886Y022958D01*
X006328Y022516D01*
X006316Y022519D01*
X006060Y022519D01*
X006060Y022124D01*
X006060Y022182D02*
X005940Y022182D01*
X005940Y022300D02*
X006060Y022300D01*
X006060Y022419D02*
X005940Y022419D01*
X005870Y022537D02*
X006307Y022537D01*
X006188Y022656D02*
X005870Y022656D01*
X005870Y022774D02*
X006070Y022774D01*
X005951Y022893D02*
X005870Y022893D01*
X005870Y023011D02*
X005886Y023011D01*
X006106Y023049D02*
X006106Y023455D01*
X006106Y023049D02*
X006460Y022695D01*
X006866Y022695D01*
X006880Y022709D01*
X006860Y022729D01*
X006860Y023195D01*
X006644Y023485D02*
X006555Y023485D01*
X006080Y024229D02*
X006080Y025086D01*
X006051Y025115D01*
X006506Y025144D02*
X007369Y025144D01*
X007369Y025175D02*
X007369Y025055D01*
X007489Y025055D01*
X007489Y024660D01*
X007745Y024660D01*
X007786Y024671D01*
X007822Y024692D01*
X007852Y024722D01*
X007873Y024758D01*
X007884Y024799D01*
X007884Y025055D01*
X007489Y025055D01*
X007489Y025175D01*
X007884Y025175D01*
X007884Y025431D01*
X007873Y025472D01*
X007852Y025509D01*
X007822Y025538D01*
X007786Y025559D01*
X007745Y025570D01*
X007489Y025570D01*
X007489Y025175D01*
X007369Y025175D01*
X006974Y025175D01*
X006974Y025431D01*
X006985Y025472D01*
X007006Y025509D01*
X007035Y025538D01*
X007072Y025559D01*
X007113Y025570D01*
X007369Y025570D01*
X007369Y025175D01*
X007369Y025263D02*
X007489Y025263D01*
X007489Y025381D02*
X007369Y025381D01*
X007369Y025500D02*
X007489Y025500D01*
X007489Y025144D02*
X009172Y025144D01*
X009348Y025144D02*
X013872Y025144D01*
X013565Y025026D02*
X013306Y025026D01*
X013324Y024907D02*
X013556Y024907D01*
X013556Y024789D02*
X013324Y024789D01*
X013324Y024575D02*
X012634Y024575D01*
X012634Y024160D01*
X013185Y024160D01*
X013226Y024171D01*
X013263Y024192D01*
X013292Y024222D01*
X013314Y024258D01*
X013324Y024299D01*
X013324Y024575D01*
X013324Y024552D02*
X013556Y024552D01*
X013556Y024670D02*
X012634Y024670D01*
X012634Y024552D02*
X012514Y024552D01*
X012514Y024670D02*
X007784Y024670D01*
X007882Y024789D02*
X011823Y024789D01*
X011823Y024907D02*
X007884Y024907D01*
X007884Y025026D02*
X011842Y025026D01*
X011823Y024552D02*
X006555Y024552D01*
X006423Y024670D02*
X007074Y024670D01*
X007072Y024671D02*
X007113Y024660D01*
X007369Y024660D01*
X007369Y025055D01*
X006974Y025055D01*
X006974Y024799D01*
X006985Y024758D01*
X007006Y024722D01*
X007035Y024692D01*
X007072Y024671D01*
X006976Y024789D02*
X006506Y024789D01*
X006506Y024907D02*
X006974Y024907D01*
X006974Y025026D02*
X006506Y025026D01*
X006506Y025263D02*
X006974Y025263D01*
X006974Y025381D02*
X006506Y025381D01*
X006483Y025500D02*
X007000Y025500D01*
X006450Y025737D02*
X008750Y025737D01*
X008700Y025855D02*
X006500Y025855D01*
X006500Y025974D02*
X008700Y025974D01*
X008700Y026211D02*
X006500Y026211D01*
X006500Y026329D02*
X008700Y026329D01*
X008723Y026448D02*
X006477Y026448D01*
X006095Y026448D02*
X005975Y026448D01*
X005975Y026329D02*
X006095Y026329D01*
X006095Y026211D02*
X005975Y026211D01*
X006095Y026092D02*
X009105Y026092D01*
X009225Y026092D02*
X010175Y026092D01*
X010175Y026089D02*
X009770Y026089D01*
X009770Y025872D01*
X009781Y025832D01*
X009802Y025795D01*
X009832Y025765D01*
X009868Y025744D01*
X009902Y025735D01*
X009578Y025735D01*
X009598Y025755D01*
X009619Y025792D01*
X009630Y025832D01*
X009630Y026049D01*
X009225Y026049D01*
X009225Y026169D01*
X009630Y026169D01*
X009630Y026386D01*
X009619Y026427D01*
X009598Y026463D01*
X009568Y026493D01*
X009532Y026514D01*
X009510Y026520D01*
X009668Y026520D01*
X009720Y026572D01*
X009772Y026520D01*
X009819Y026520D01*
X009802Y026503D01*
X009781Y026467D01*
X009770Y026426D01*
X009770Y026209D01*
X010175Y026209D01*
X010175Y026089D01*
X010295Y026089D02*
X010295Y026209D01*
X010700Y026209D01*
X010700Y026426D01*
X010689Y026467D01*
X010668Y026503D01*
X010638Y026533D01*
X010602Y026554D01*
X010561Y026565D01*
X010461Y026565D01*
X010510Y026614D01*
X010510Y026785D01*
X011947Y026785D01*
X012399Y027237D01*
X012531Y027237D01*
X012663Y027291D01*
X012764Y027392D01*
X012818Y027524D01*
X012818Y027656D01*
X012873Y027711D01*
X012900Y027711D01*
X012900Y027599D01*
X012994Y027505D01*
X013705Y027505D01*
X013705Y027504D01*
X014100Y027504D01*
X014100Y027384D01*
X014220Y027384D01*
X014220Y026989D01*
X014476Y026989D01*
X014517Y027000D01*
X014554Y027021D01*
X014583Y027051D01*
X014604Y027087D01*
X014615Y027128D01*
X014615Y027384D01*
X014220Y027384D01*
X014220Y027504D01*
X014615Y027504D01*
X014615Y027760D01*
X014604Y027801D01*
X014583Y027838D01*
X014554Y027867D01*
X014517Y027888D01*
X014476Y027899D01*
X014220Y027899D01*
X014220Y027504D01*
X014100Y027504D01*
X014100Y027899D01*
X013844Y027899D01*
X013830Y027896D01*
X013830Y028243D01*
X013788Y028285D01*
X016074Y028285D01*
X016225Y028231D01*
X016455Y028199D01*
X016489Y028185D01*
X016555Y028185D01*
X016620Y028176D01*
X016656Y028185D01*
X016838Y028185D01*
X016702Y028116D01*
X016379Y027793D01*
X016171Y027386D01*
X016112Y027014D01*
X016056Y027070D01*
X015412Y027070D01*
X015360Y027018D01*
X015340Y027038D01*
X015304Y027059D01*
X015263Y027070D01*
X015046Y027070D01*
X015046Y026655D01*
X014926Y026655D01*
X014926Y026535D01*
X015046Y026535D01*
X015046Y026120D01*
X015049Y026120D01*
X015049Y025867D01*
X015368Y025867D01*
X015368Y025790D01*
X015444Y025790D01*
X015444Y025393D01*
X015512Y025393D01*
X015423Y025304D01*
X015423Y024945D01*
X015237Y024758D01*
X015200Y024670D01*
X015057Y024670D01*
X015057Y024552D02*
X015200Y024552D01*
X015200Y024670D02*
X015200Y024010D01*
X015164Y024098D01*
X015063Y024199D01*
X015019Y024217D01*
X015057Y024254D01*
X015057Y024948D01*
X015163Y024991D01*
X015264Y025092D01*
X015318Y025224D01*
X015318Y025366D01*
X015307Y025393D01*
X015368Y025393D01*
X015368Y025790D01*
X015049Y025790D01*
X015049Y025646D01*
X015031Y025653D01*
X014889Y025653D01*
X014757Y025599D01*
X014664Y025505D01*
X014567Y025505D01*
X014461Y025611D01*
X014522Y025611D01*
X014615Y025705D01*
X014615Y026169D01*
X014632Y026152D01*
X014668Y026131D01*
X014709Y026120D01*
X014926Y026120D01*
X014926Y026535D01*
X014570Y026535D01*
X014570Y026473D01*
X014522Y026521D01*
X013798Y026521D01*
X013789Y026512D01*
X013768Y026533D01*
X013732Y026554D01*
X013691Y026565D01*
X013425Y026565D01*
X013425Y026209D01*
X013305Y026209D01*
X013305Y026089D01*
X012900Y026089D01*
X012900Y025872D01*
X012911Y025832D01*
X012932Y025795D01*
X012962Y025765D01*
X012998Y025744D01*
X013032Y025735D01*
X010568Y025735D01*
X010602Y025744D01*
X010638Y025765D01*
X010668Y025795D01*
X010689Y025832D01*
X010700Y025872D01*
X010700Y026089D01*
X010295Y026089D01*
X010295Y026092D02*
X013305Y026092D01*
X013305Y026209D02*
X012900Y026209D01*
X012900Y026426D01*
X012911Y026467D01*
X012932Y026503D01*
X012962Y026533D01*
X012998Y026554D01*
X013039Y026565D01*
X013305Y026565D01*
X013305Y026209D01*
X013305Y026211D02*
X013425Y026211D01*
X013425Y026329D02*
X013305Y026329D01*
X013305Y026448D02*
X013425Y026448D01*
X012906Y026448D02*
X010694Y026448D01*
X010700Y026329D02*
X012900Y026329D01*
X012900Y026211D02*
X010700Y026211D01*
X010700Y025974D02*
X012900Y025974D01*
X012904Y025855D02*
X010696Y025855D01*
X010573Y025737D02*
X013027Y025737D01*
X012634Y025026D02*
X012514Y025026D01*
X012514Y024907D02*
X012634Y024907D01*
X012634Y024789D02*
X012514Y024789D01*
X012514Y024433D02*
X012634Y024433D01*
X012634Y024315D02*
X012514Y024315D01*
X012514Y024196D02*
X012634Y024196D01*
X013267Y024196D02*
X013613Y024196D01*
X013556Y024315D02*
X013324Y024315D01*
X013324Y024433D02*
X013556Y024433D01*
X014060Y024595D02*
X014160Y024495D01*
X014166Y024495D01*
X014306Y024635D01*
X015057Y024789D02*
X015267Y024789D01*
X015386Y024907D02*
X015057Y024907D01*
X015197Y025026D02*
X015423Y025026D01*
X015423Y025144D02*
X015285Y025144D01*
X015318Y025263D02*
X015423Y025263D01*
X015500Y025381D02*
X015312Y025381D01*
X015368Y025500D02*
X015444Y025500D01*
X015444Y025618D02*
X015368Y025618D01*
X015368Y025737D02*
X015444Y025737D01*
X015444Y025790D02*
X015444Y025867D01*
X015763Y025867D01*
X015763Y026120D01*
X015797Y026120D01*
X015797Y025486D01*
X015886Y025398D01*
X015643Y025398D01*
X015665Y025403D01*
X015701Y025425D01*
X015731Y025454D01*
X015752Y025491D01*
X015763Y025531D01*
X015763Y025790D01*
X015444Y025790D01*
X015444Y025855D02*
X015797Y025855D01*
X015797Y025737D02*
X015763Y025737D01*
X015763Y025618D02*
X015797Y025618D01*
X015797Y025500D02*
X015754Y025500D01*
X015763Y025974D02*
X015797Y025974D01*
X015797Y026092D02*
X015763Y026092D01*
X015368Y025855D02*
X014615Y025855D01*
X014615Y025737D02*
X015049Y025737D01*
X015049Y025974D02*
X014615Y025974D01*
X014615Y026092D02*
X015049Y026092D01*
X015046Y026211D02*
X014926Y026211D01*
X014926Y026329D02*
X015046Y026329D01*
X015046Y026448D02*
X014926Y026448D01*
X014926Y026566D02*
X010462Y026566D01*
X010510Y026685D02*
X014570Y026685D01*
X014570Y026655D02*
X014926Y026655D01*
X014926Y027070D01*
X014709Y027070D01*
X014668Y027059D01*
X014632Y027038D01*
X014602Y027008D01*
X014581Y026972D01*
X014570Y026931D01*
X014570Y026655D01*
X014570Y026803D02*
X011965Y026803D01*
X012084Y026922D02*
X014570Y026922D01*
X014573Y027040D02*
X014635Y027040D01*
X014615Y027159D02*
X016135Y027159D01*
X016154Y027277D02*
X014615Y027277D01*
X014615Y027514D02*
X016237Y027514D01*
X016297Y027633D02*
X014615Y027633D01*
X014615Y027751D02*
X016357Y027751D01*
X016379Y027793D02*
X016379Y027793D01*
X016455Y027870D02*
X014550Y027870D01*
X014220Y027870D02*
X014100Y027870D01*
X014100Y027751D02*
X014220Y027751D01*
X014220Y027633D02*
X014100Y027633D01*
X014100Y027514D02*
X014220Y027514D01*
X014220Y027396D02*
X016176Y027396D01*
X016171Y027386D02*
X016171Y027386D01*
X016117Y027040D02*
X016086Y027040D01*
X015382Y027040D02*
X015337Y027040D01*
X015046Y027040D02*
X014926Y027040D01*
X014926Y026922D02*
X015046Y026922D01*
X015046Y026803D02*
X014926Y026803D01*
X014926Y026685D02*
X015046Y026685D01*
X014220Y027040D02*
X014100Y027040D01*
X014100Y026989D02*
X014100Y027384D01*
X013705Y027384D01*
X013705Y027128D01*
X013716Y027087D01*
X013737Y027051D01*
X013766Y027021D01*
X013803Y027000D01*
X013844Y026989D01*
X014100Y026989D01*
X014100Y027159D02*
X014220Y027159D01*
X014220Y027277D02*
X014100Y027277D01*
X014100Y027396D02*
X012765Y027396D01*
X012814Y027514D02*
X012984Y027514D01*
X012900Y027633D02*
X012818Y027633D01*
X012628Y027277D02*
X013705Y027277D01*
X013705Y027159D02*
X012321Y027159D01*
X012202Y027040D02*
X013747Y027040D01*
X013339Y027895D02*
X013365Y027921D01*
X013830Y027988D02*
X016574Y027988D01*
X016692Y028107D02*
X013830Y028107D01*
X013830Y028225D02*
X016267Y028225D01*
X016702Y028116D02*
X016702Y028116D01*
X018278Y028188D02*
X026830Y028202D01*
X026662Y028116D01*
X026339Y027793D01*
X026131Y027386D01*
X026060Y026935D01*
X026131Y026484D01*
X026339Y026077D01*
X026611Y025805D01*
X024647Y025805D01*
X024457Y025995D01*
X024470Y025995D01*
X024470Y026405D01*
X024530Y026405D01*
X024530Y025995D01*
X024682Y025995D01*
X024940Y026253D01*
X024940Y026405D01*
X024530Y026405D01*
X024530Y026465D01*
X024940Y026465D01*
X024940Y026617D01*
X024682Y026875D01*
X024530Y026875D01*
X024530Y026465D01*
X024470Y026465D01*
X024470Y026875D01*
X024318Y026875D01*
X024170Y026727D01*
X024170Y027062D01*
X023940Y027292D01*
X023940Y027617D01*
X023682Y027875D01*
X023318Y027875D01*
X023060Y027617D01*
X023060Y027253D01*
X023318Y026995D01*
X023643Y026995D01*
X023750Y026888D01*
X023750Y026807D01*
X023682Y026875D01*
X023318Y026875D01*
X023060Y026617D01*
X023060Y026392D01*
X023047Y026405D01*
X022940Y026405D01*
X022940Y026617D01*
X022682Y026875D01*
X022318Y026875D01*
X022170Y026727D01*
X022170Y026808D01*
X022357Y026995D01*
X022682Y026995D01*
X022940Y027253D01*
X022940Y027617D01*
X022682Y027875D01*
X022318Y027875D01*
X022060Y027617D01*
X022060Y027292D01*
X021750Y026982D01*
X021750Y026807D01*
X021682Y026875D01*
X021318Y026875D01*
X021060Y026617D01*
X021060Y026253D01*
X021318Y025995D01*
X021682Y025995D01*
X021750Y026063D01*
X021750Y026008D01*
X021873Y025885D01*
X022773Y024985D01*
X023713Y024985D01*
X022233Y023505D01*
X022110Y023382D01*
X022110Y021915D01*
X021486Y021915D01*
X021403Y021999D01*
X021271Y022053D01*
X021129Y022053D01*
X020997Y021999D01*
X020896Y021898D01*
X020842Y021766D01*
X020842Y021624D01*
X020896Y021492D01*
X020997Y021391D01*
X021129Y021337D01*
X021271Y021337D01*
X021403Y021391D01*
X021486Y021475D01*
X021803Y021475D01*
X021710Y021382D01*
X021710Y021217D01*
X021691Y021197D01*
X021691Y020964D01*
X021458Y020964D01*
X021364Y020871D01*
X021364Y020550D01*
X021364Y020472D01*
X021369Y020452D01*
X021364Y020432D01*
X021364Y020354D01*
X021446Y020354D01*
X021446Y020354D01*
X021446Y020354D01*
X021364Y020354D01*
X021364Y020275D01*
X021369Y020255D01*
X021364Y020235D01*
X021364Y020157D01*
X021446Y020157D01*
X021446Y020157D01*
X021446Y020157D01*
X021364Y020157D01*
X021364Y020079D01*
X021369Y020058D01*
X021364Y020038D01*
X021364Y019960D01*
X021446Y019960D01*
X021446Y019960D01*
X021446Y019960D01*
X021364Y019960D01*
X021364Y019882D01*
X021369Y019861D01*
X021364Y019841D01*
X021364Y019763D01*
X021446Y019763D01*
X021446Y019763D01*
X021364Y019763D01*
X021364Y019695D01*
X021334Y019695D01*
X021240Y019601D01*
X021240Y019229D01*
X021311Y019158D01*
X021220Y019066D01*
X021220Y017746D01*
X020811Y018155D01*
X020126Y018155D01*
X020043Y018239D01*
X019911Y018293D01*
X019769Y018293D01*
X019637Y018239D01*
X019536Y018138D01*
X019482Y018006D01*
X019482Y017864D01*
X019536Y017732D01*
X019637Y017631D01*
X019769Y017577D01*
X019911Y017577D01*
X020043Y017631D01*
X020126Y017715D01*
X020629Y017715D01*
X021082Y017262D01*
X021082Y017144D01*
X021136Y017012D01*
X021237Y016911D01*
X021369Y016857D01*
X021511Y016857D01*
X021643Y016911D01*
X021744Y017012D01*
X021798Y017144D01*
X021798Y017240D01*
X022388Y017240D01*
X022405Y017257D01*
X022417Y017251D01*
X022458Y017240D01*
X022675Y017240D01*
X022675Y017635D01*
X022795Y017635D01*
X022795Y017755D01*
X023151Y017755D01*
X023151Y018011D01*
X023140Y018052D01*
X023119Y018089D01*
X023112Y018095D01*
X023151Y018134D01*
X023151Y018648D01*
X023273Y018525D01*
X023370Y018525D01*
X023370Y018114D01*
X023389Y018095D01*
X023370Y018076D01*
X023370Y017314D01*
X023464Y017220D01*
X024108Y017220D01*
X024160Y017272D01*
X024180Y017252D01*
X024216Y017231D01*
X024257Y017220D01*
X024474Y017220D01*
X024474Y017635D01*
X024594Y017635D01*
X024594Y017220D01*
X024706Y017220D01*
X024541Y017055D01*
X024192Y017055D01*
X024104Y017019D01*
X023944Y016859D01*
X023877Y016791D01*
X023868Y016770D01*
X023852Y016779D01*
X023812Y016790D01*
X023595Y016790D01*
X023595Y016395D01*
X023475Y016395D01*
X023475Y016790D01*
X023258Y016790D01*
X023217Y016779D01*
X023205Y016773D01*
X023188Y016790D01*
X022543Y016790D01*
X022470Y016717D01*
X022376Y016810D01*
X021732Y016810D01*
X021680Y016758D01*
X021628Y016810D01*
X020984Y016810D01*
X020890Y016716D01*
X020890Y016554D01*
X020864Y016618D01*
X020763Y016719D01*
X020631Y016773D01*
X020489Y016773D01*
X020357Y016719D01*
X020279Y016641D01*
X020224Y016641D01*
X020224Y016687D01*
X020224Y016768D01*
X020213Y016808D01*
X020192Y016845D01*
X020162Y016875D01*
X020125Y016896D01*
X020085Y016907D01*
X019869Y016907D01*
X019869Y016687D01*
X019869Y016687D01*
X020224Y016687D01*
X019869Y016687D01*
X019869Y016687D01*
X019869Y016907D01*
X019653Y016907D01*
X019612Y016896D01*
X019575Y016875D01*
X019546Y016845D01*
X019525Y016808D01*
X019514Y016768D01*
X019514Y016687D01*
X019869Y016687D01*
X019869Y016687D01*
X019869Y016651D01*
X019869Y016651D01*
X019869Y016687D01*
X019869Y016687D01*
X019514Y016687D01*
X019514Y016606D01*
X019524Y016567D01*
X019514Y016557D01*
X019514Y016304D01*
X019515Y016303D01*
X019514Y016301D01*
X019514Y016049D01*
X019524Y016038D01*
X019514Y016000D01*
X019514Y015919D01*
X019869Y015919D01*
X019869Y015919D01*
X019514Y015919D01*
X019514Y015873D01*
X019208Y015873D01*
X019163Y015919D01*
X019031Y015973D01*
X018889Y015973D01*
X018757Y015919D01*
X018656Y015818D01*
X018602Y015686D01*
X018602Y015544D01*
X018656Y015412D01*
X018757Y015311D01*
X018780Y015302D01*
X018736Y015258D01*
X018682Y015126D01*
X018682Y014984D01*
X018736Y014852D01*
X018837Y014751D01*
X018969Y014697D01*
X019111Y014697D01*
X019243Y014751D01*
X019344Y014852D01*
X019398Y014984D01*
X019398Y015116D01*
X019479Y015197D01*
X019514Y015197D01*
X019514Y015151D01*
X019514Y015070D01*
X019525Y015029D01*
X019528Y015023D01*
X019525Y015017D01*
X019514Y014976D01*
X019514Y014895D01*
X019514Y014814D01*
X019525Y014774D01*
X019528Y014767D01*
X019525Y014761D01*
X019514Y014720D01*
X019514Y014639D01*
X019514Y014558D01*
X019525Y014518D01*
X019528Y014511D01*
X019525Y014505D01*
X019514Y014465D01*
X019514Y014384D01*
X019869Y014384D01*
X019869Y014384D01*
X019869Y014419D01*
X019869Y014639D01*
X019869Y014639D01*
X019869Y014639D01*
X020224Y014639D01*
X020224Y014558D01*
X020213Y014518D01*
X020209Y014511D01*
X020213Y014505D01*
X020224Y014465D01*
X020224Y014384D01*
X019869Y014384D01*
X019869Y014384D01*
X019869Y014639D01*
X020224Y014639D01*
X020224Y014720D01*
X020213Y014761D01*
X020209Y014767D01*
X020213Y014774D01*
X020224Y014814D01*
X020224Y014895D01*
X019869Y014895D01*
X019869Y014675D01*
X019869Y014639D01*
X019514Y014639D01*
X019869Y014639D01*
X019869Y014639D01*
X019869Y014639D01*
X019869Y014895D01*
X019869Y014895D01*
X019869Y014895D01*
X020224Y014895D01*
X020224Y014976D01*
X020213Y015017D01*
X020209Y015023D01*
X020213Y015029D01*
X020224Y015070D01*
X020224Y015151D01*
X019869Y015151D01*
X019869Y015151D01*
X019869Y014931D01*
X019869Y014895D01*
X019514Y014895D01*
X019869Y014895D01*
X019869Y014895D01*
X019869Y014895D01*
X019869Y015151D01*
X019869Y015151D01*
X020224Y015151D01*
X020224Y015232D01*
X020213Y015271D01*
X020224Y015281D01*
X020224Y015533D01*
X020222Y015535D01*
X020224Y015537D01*
X020224Y015620D01*
X020329Y015577D01*
X020471Y015577D01*
X020603Y015631D01*
X020704Y015732D01*
X020740Y015820D01*
X020740Y015226D01*
X020245Y014732D01*
X020245Y014150D01*
X020143Y014150D01*
X020049Y014057D01*
X020049Y013623D01*
X019767Y013905D01*
X019170Y013905D01*
X019170Y014342D01*
X019047Y014465D01*
X018807Y014705D01*
X018450Y014705D01*
X018450Y016262D01*
X018327Y016385D01*
X018071Y016641D01*
X017926Y016641D01*
X017926Y016687D01*
X017926Y016768D01*
X017915Y016808D01*
X017894Y016845D01*
X017865Y016875D01*
X017828Y016896D01*
X017787Y016907D01*
X017571Y016907D01*
X017355Y016907D01*
X017315Y016896D01*
X017278Y016875D01*
X017248Y016845D01*
X017227Y016808D01*
X017216Y016768D01*
X017216Y016687D01*
X017571Y016687D01*
X017571Y016907D01*
X017571Y016687D01*
X017571Y016687D01*
X017571Y016687D01*
X017216Y016687D01*
X017216Y016606D01*
X017227Y016567D01*
X017216Y016557D01*
X017216Y016304D01*
X017218Y016303D01*
X017216Y016301D01*
X017216Y016049D01*
X017227Y016038D01*
X017216Y016000D01*
X017216Y015919D01*
X017571Y015919D01*
X017571Y015919D01*
X017216Y015919D01*
X017216Y015838D01*
X017227Y015800D01*
X017216Y015789D01*
X017216Y015617D01*
X016745Y015617D01*
X016622Y015494D01*
X016622Y015320D01*
X016670Y015272D01*
X016656Y015258D01*
X016602Y015126D01*
X016602Y014984D01*
X016656Y014852D01*
X016757Y014751D01*
X016797Y014735D01*
X016757Y014719D01*
X016656Y014618D01*
X016602Y014486D01*
X016602Y014465D01*
X016553Y014465D01*
X016430Y014342D01*
X016430Y014168D01*
X016486Y014112D01*
X016442Y014006D01*
X016442Y013864D01*
X016496Y013732D01*
X016597Y013631D01*
X016729Y013577D01*
X016871Y013577D01*
X017003Y013631D01*
X017104Y013732D01*
X017137Y013812D01*
X017237Y013711D01*
X017369Y013657D01*
X017511Y013657D01*
X017643Y013711D01*
X017744Y013812D01*
X017798Y013944D01*
X017798Y014080D01*
X017833Y014045D01*
X017902Y013976D01*
X017882Y013926D01*
X017882Y013784D01*
X017936Y013652D01*
X018037Y013551D01*
X018169Y013497D01*
X018311Y013497D01*
X018443Y013551D01*
X018510Y013619D01*
X018510Y013528D01*
X018750Y013288D01*
X018873Y013165D01*
X019106Y013165D01*
X019136Y013092D01*
X019237Y012991D01*
X019369Y012937D01*
X019511Y012937D01*
X019643Y012991D01*
X019744Y013092D01*
X019744Y013094D01*
X019753Y013085D01*
X020473Y012365D01*
X021120Y012365D01*
X021120Y010522D01*
X021056Y010458D01*
X021002Y010326D01*
X021002Y010184D01*
X021055Y010055D01*
X018706Y010055D01*
X018784Y010132D01*
X018838Y010264D01*
X018838Y010406D01*
X018784Y010538D01*
X018720Y010602D01*
X018720Y011669D01*
X018784Y011732D01*
X018838Y011864D01*
X018838Y012006D01*
X018784Y012138D01*
X018683Y012239D01*
X018551Y012293D01*
X018409Y012293D01*
X018277Y012239D01*
X018176Y012138D01*
X018122Y012006D01*
X018122Y011864D01*
X018176Y011732D01*
X018240Y011669D01*
X018240Y010602D01*
X018176Y010538D01*
X018122Y010406D01*
X018122Y010264D01*
X018176Y010132D01*
X018254Y010055D01*
X017156Y010055D01*
X016555Y010656D01*
X016649Y010617D01*
X016791Y010617D01*
X016923Y010671D01*
X017024Y010772D01*
X017078Y010904D01*
X017078Y011046D01*
X017024Y011178D01*
X016960Y011242D01*
X016960Y011989D01*
X017024Y012052D01*
X017078Y012184D01*
X017078Y012326D01*
X017024Y012458D01*
X016923Y012559D01*
X016791Y012613D01*
X016649Y012613D01*
X016517Y012559D01*
X016416Y012458D01*
X016400Y012418D01*
X016400Y013791D01*
X016357Y013894D01*
X016279Y013972D01*
X016279Y013972D01*
X015540Y014711D01*
X015540Y017351D01*
X015634Y017445D01*
X015703Y017613D01*
X015703Y017794D01*
X015634Y017962D01*
X015505Y018091D01*
X015337Y018160D01*
X015155Y018160D01*
X014988Y018091D01*
X014859Y017962D01*
X014789Y017794D01*
X014789Y017613D01*
X014859Y017445D01*
X014980Y017324D01*
X014980Y014539D01*
X015023Y014436D01*
X015101Y014358D01*
X015236Y014223D01*
X015155Y014223D01*
X014988Y014154D01*
X014859Y014025D01*
X014789Y013857D01*
X014789Y013676D01*
X014859Y013508D01*
X014988Y013379D01*
X015155Y013310D01*
X015337Y013310D01*
X015452Y013357D01*
X015480Y013329D01*
X015480Y010419D01*
X015523Y010316D01*
X016533Y009306D01*
X016534Y009305D01*
X016078Y009305D01*
X015928Y009243D01*
X015812Y009127D01*
X015256Y008571D01*
X015210Y008682D01*
X015210Y009571D01*
X015167Y009674D01*
X015089Y009752D01*
X014909Y009932D01*
X014806Y009975D01*
X013903Y009975D01*
X013903Y010142D01*
X013818Y010347D01*
X014612Y010347D01*
X014706Y010441D01*
X014706Y011540D01*
X014809Y011497D01*
X014951Y011497D01*
X015083Y011551D01*
X015184Y011652D01*
X015238Y011784D01*
X015238Y011926D01*
X015184Y012058D01*
X015083Y012159D01*
X014951Y012213D01*
X014833Y012213D01*
X014540Y012506D01*
X014540Y012769D01*
X014624Y012852D01*
X014678Y012984D01*
X014678Y013126D01*
X014624Y013258D01*
X014523Y013359D01*
X014391Y013413D01*
X014249Y013413D01*
X014117Y013359D01*
X014016Y013258D01*
X013962Y013126D01*
X013962Y012984D01*
X014016Y012852D01*
X014100Y012769D01*
X014100Y012324D01*
X014458Y011966D01*
X013692Y011966D01*
X013598Y011873D01*
X013598Y010567D01*
X013393Y010652D01*
X013288Y010652D01*
X013288Y011196D01*
X013030Y011196D01*
X013030Y011196D01*
X013288Y011196D01*
X013288Y011827D01*
X013277Y011868D01*
X013256Y011905D01*
X013227Y011934D01*
X013190Y011956D01*
X013149Y011966D01*
X013030Y011966D01*
X013030Y011196D01*
X013030Y011196D01*
X013030Y011966D01*
X012910Y011966D01*
X012886Y011960D01*
X012880Y011966D01*
X012620Y011966D01*
X012620Y013124D01*
X012651Y013155D01*
X012780Y013284D01*
X012780Y014929D01*
X012864Y015012D01*
X012918Y015144D01*
X012918Y015286D01*
X012864Y015418D01*
X012780Y015502D01*
X012780Y015924D01*
X015611Y018755D01*
X015851Y018755D01*
X015980Y018884D01*
X016220Y019124D01*
X016220Y022835D01*
X016270Y022835D01*
X016270Y022634D01*
X016364Y022540D01*
X017008Y022540D01*
X017060Y022592D01*
X017112Y022540D01*
X017756Y022540D01*
X017850Y022634D01*
X017850Y022699D01*
X017877Y022671D01*
X018009Y022617D01*
X018151Y022617D01*
X018283Y022671D01*
X018384Y022772D01*
X018438Y022904D01*
X018438Y023046D01*
X018384Y023178D01*
X018283Y023279D01*
X018151Y023333D01*
X018009Y023333D01*
X017877Y023279D01*
X017850Y023251D01*
X017850Y023396D01*
X017815Y023431D01*
X017849Y023417D01*
X017991Y023417D01*
X018123Y023471D01*
X018224Y023572D01*
X018278Y023704D01*
X018278Y023846D01*
X018224Y023978D01*
X018123Y024079D01*
X017991Y024133D01*
X017849Y024133D01*
X017717Y024079D01*
X017624Y023985D01*
X017550Y023985D01*
X017550Y024220D01*
X017956Y024220D01*
X018050Y024314D01*
X018050Y024445D01*
X018233Y024445D01*
X019033Y023645D01*
X020984Y023645D01*
X021077Y023551D01*
X021209Y023497D01*
X021351Y023497D01*
X021483Y023551D01*
X021584Y023652D01*
X021638Y023784D01*
X021638Y023926D01*
X021584Y024058D01*
X021483Y024159D01*
X021351Y024213D01*
X021209Y024213D01*
X021077Y024159D01*
X020984Y024065D01*
X019207Y024065D01*
X018530Y024742D01*
X018407Y024865D01*
X018050Y024865D01*
X018050Y025076D01*
X017956Y025170D01*
X017312Y025170D01*
X017260Y025118D01*
X017208Y025170D01*
X016758Y025170D01*
X016758Y025286D01*
X016704Y025418D01*
X016610Y025512D01*
X016610Y025669D01*
X016511Y025768D01*
X016511Y025945D01*
X016702Y025754D01*
X017109Y025547D01*
X017560Y025475D01*
X018011Y025547D01*
X018418Y025754D01*
X018418Y025754D01*
X018741Y026077D01*
X018949Y026484D01*
X019020Y026935D01*
X018949Y027386D01*
X018949Y027386D01*
X018741Y027793D01*
X018418Y028116D01*
X018278Y028188D01*
X018418Y028116D02*
X018418Y028116D01*
X018428Y028107D02*
X026652Y028107D01*
X026662Y028116D02*
X026662Y028116D01*
X026534Y027988D02*
X018546Y027988D01*
X018665Y027870D02*
X019399Y027870D01*
X019412Y027875D02*
X019251Y027808D01*
X019127Y027684D01*
X019060Y027523D01*
X019060Y027348D01*
X019127Y027186D01*
X019251Y027062D01*
X019412Y026995D01*
X019588Y026995D01*
X019749Y027062D01*
X019873Y027186D01*
X019940Y027348D01*
X019940Y027523D01*
X019873Y027684D01*
X019749Y027808D01*
X019588Y027875D01*
X019412Y027875D01*
X019601Y027870D02*
X020312Y027870D01*
X020318Y027875D02*
X020060Y027617D01*
X020060Y027253D01*
X020318Y026995D01*
X020682Y026995D01*
X020940Y027253D01*
X020940Y027617D01*
X020682Y027875D01*
X020318Y027875D01*
X020194Y027751D02*
X019806Y027751D01*
X019894Y027633D02*
X020075Y027633D01*
X020060Y027514D02*
X019940Y027514D01*
X019940Y027396D02*
X020060Y027396D01*
X020060Y027277D02*
X019911Y027277D01*
X019846Y027159D02*
X020154Y027159D01*
X020273Y027040D02*
X019696Y027040D01*
X019682Y026875D02*
X019318Y026875D01*
X019060Y026617D01*
X019060Y026253D01*
X019318Y025995D01*
X019682Y025995D01*
X019940Y026253D01*
X019940Y026617D01*
X019682Y026875D01*
X019754Y026803D02*
X020246Y026803D01*
X020318Y026875D02*
X020060Y026617D01*
X020060Y026253D01*
X020318Y025995D01*
X020682Y025995D01*
X020940Y026253D01*
X020940Y026617D01*
X020682Y026875D01*
X020318Y026875D01*
X020127Y026685D02*
X019873Y026685D01*
X019940Y026566D02*
X020060Y026566D01*
X020060Y026448D02*
X019940Y026448D01*
X019940Y026329D02*
X020060Y026329D01*
X020102Y026211D02*
X019898Y026211D01*
X019779Y026092D02*
X020221Y026092D01*
X020779Y026092D02*
X021221Y026092D01*
X021102Y026211D02*
X020898Y026211D01*
X020940Y026329D02*
X021060Y026329D01*
X021060Y026448D02*
X020940Y026448D01*
X020940Y026566D02*
X021060Y026566D01*
X021127Y026685D02*
X020873Y026685D01*
X020754Y026803D02*
X021246Y026803D01*
X021318Y026995D02*
X021682Y026995D01*
X021940Y027253D01*
X021940Y027617D01*
X021682Y027875D01*
X021318Y027875D01*
X021060Y027617D01*
X021060Y027253D01*
X021318Y026995D01*
X021273Y027040D02*
X020727Y027040D01*
X020846Y027159D02*
X021154Y027159D01*
X021060Y027277D02*
X020940Y027277D01*
X020940Y027396D02*
X021060Y027396D01*
X021060Y027514D02*
X020940Y027514D01*
X020925Y027633D02*
X021075Y027633D01*
X021194Y027751D02*
X020806Y027751D01*
X020688Y027870D02*
X021312Y027870D01*
X021688Y027870D02*
X022312Y027870D01*
X022194Y027751D02*
X021806Y027751D01*
X021925Y027633D02*
X022075Y027633D01*
X022060Y027514D02*
X021940Y027514D01*
X021940Y027396D02*
X022060Y027396D01*
X022045Y027277D02*
X021940Y027277D01*
X021927Y027159D02*
X021846Y027159D01*
X021808Y027040D02*
X021727Y027040D01*
X021750Y026922D02*
X019018Y026922D01*
X019003Y027040D02*
X019304Y027040D01*
X019154Y027159D02*
X018985Y027159D01*
X018966Y027277D02*
X019089Y027277D01*
X019060Y027396D02*
X018944Y027396D01*
X018883Y027514D02*
X019060Y027514D01*
X019106Y027633D02*
X018823Y027633D01*
X018763Y027751D02*
X019194Y027751D01*
X018741Y027793D02*
X018741Y027793D01*
X018999Y026803D02*
X019246Y026803D01*
X019127Y026685D02*
X018980Y026685D01*
X018962Y026566D02*
X019060Y026566D01*
X019060Y026448D02*
X018930Y026448D01*
X018949Y026484D02*
X018949Y026484D01*
X018870Y026329D02*
X019060Y026329D01*
X019102Y026211D02*
X018809Y026211D01*
X018749Y026092D02*
X019221Y026092D01*
X018741Y026077D02*
X018741Y026077D01*
X018638Y025974D02*
X021784Y025974D01*
X021903Y025855D02*
X018519Y025855D01*
X018384Y025737D02*
X022021Y025737D01*
X022140Y025618D02*
X018152Y025618D01*
X018011Y025547D02*
X018011Y025547D01*
X017715Y025500D02*
X022258Y025500D01*
X022377Y025381D02*
X016719Y025381D01*
X016758Y025263D02*
X022495Y025263D01*
X022614Y025144D02*
X017982Y025144D01*
X018050Y025026D02*
X022732Y025026D01*
X023280Y024552D02*
X018720Y024552D01*
X018602Y024670D02*
X023398Y024670D01*
X023517Y024789D02*
X018483Y024789D01*
X018245Y024433D02*
X018050Y024433D01*
X018050Y024315D02*
X018363Y024315D01*
X018482Y024196D02*
X017550Y024196D01*
X017550Y024078D02*
X017716Y024078D01*
X018124Y024078D02*
X018600Y024078D01*
X018719Y023959D02*
X018231Y023959D01*
X018278Y023841D02*
X018837Y023841D01*
X018956Y023722D02*
X018278Y023722D01*
X018237Y023604D02*
X021025Y023604D01*
X020996Y024078D02*
X019194Y024078D01*
X019076Y024196D02*
X021168Y024196D01*
X021392Y024196D02*
X022924Y024196D01*
X022806Y024078D02*
X021564Y024078D01*
X021625Y023959D02*
X022687Y023959D01*
X022569Y023841D02*
X021638Y023841D01*
X021613Y023722D02*
X022450Y023722D01*
X022332Y023604D02*
X021535Y023604D01*
X022110Y023367D02*
X017850Y023367D01*
X018136Y023485D02*
X022213Y023485D01*
X022110Y023248D02*
X018313Y023248D01*
X018404Y023130D02*
X022110Y023130D01*
X022110Y023011D02*
X018438Y023011D01*
X018433Y022893D02*
X022110Y022893D01*
X022110Y022774D02*
X018384Y022774D01*
X018245Y022656D02*
X022110Y022656D01*
X022110Y022537D02*
X016220Y022537D01*
X016220Y022419D02*
X022110Y022419D01*
X022110Y022300D02*
X016220Y022300D01*
X016220Y022182D02*
X022110Y022182D01*
X022110Y022063D02*
X016220Y022063D01*
X016220Y021945D02*
X020943Y021945D01*
X020867Y021826D02*
X016220Y021826D01*
X016220Y021708D02*
X020842Y021708D01*
X020856Y021589D02*
X016220Y021589D01*
X016220Y021471D02*
X020918Y021471D01*
X021092Y021352D02*
X016220Y021352D01*
X016220Y021234D02*
X021710Y021234D01*
X021710Y021352D02*
X021308Y021352D01*
X021482Y021471D02*
X021799Y021471D01*
X021691Y021115D02*
X016220Y021115D01*
X016220Y020997D02*
X021691Y020997D01*
X021372Y020878D02*
X016220Y020878D01*
X016220Y020760D02*
X021364Y020760D01*
X021364Y020641D02*
X016220Y020641D01*
X016220Y020523D02*
X021364Y020523D01*
X021364Y020550D02*
X021438Y020550D01*
X021438Y020550D01*
X021364Y020550D01*
X021364Y020404D02*
X016220Y020404D01*
X016220Y020286D02*
X021364Y020286D01*
X021364Y020167D02*
X016220Y020167D01*
X016220Y020049D02*
X021367Y020049D01*
X021364Y019930D02*
X016220Y019930D01*
X016220Y019812D02*
X021364Y019812D01*
X021332Y019693D02*
X016220Y019693D01*
X016220Y019575D02*
X021240Y019575D01*
X021240Y019456D02*
X016220Y019456D01*
X016220Y019338D02*
X021240Y019338D01*
X021250Y019219D02*
X016220Y019219D01*
X016197Y019101D02*
X021254Y019101D01*
X021220Y018982D02*
X016078Y018982D01*
X015960Y018864D02*
X021220Y018864D01*
X021220Y018745D02*
X015601Y018745D01*
X015483Y018627D02*
X021220Y018627D01*
X021220Y018508D02*
X015364Y018508D01*
X015246Y018390D02*
X021220Y018390D01*
X021220Y018271D02*
X019965Y018271D01*
X019715Y018271D02*
X015127Y018271D01*
X015137Y018153D02*
X015009Y018153D01*
X014931Y018034D02*
X014890Y018034D01*
X014840Y017916D02*
X014772Y017916D01*
X014791Y017797D02*
X014653Y017797D01*
X014535Y017679D02*
X014789Y017679D01*
X014811Y017560D02*
X014416Y017560D01*
X014298Y017442D02*
X014862Y017442D01*
X014980Y017323D02*
X014179Y017323D01*
X014061Y017205D02*
X014980Y017205D01*
X014980Y017086D02*
X013942Y017086D01*
X013824Y016968D02*
X014980Y016968D01*
X014980Y016849D02*
X013705Y016849D01*
X013587Y016731D02*
X014980Y016731D01*
X014980Y016612D02*
X013468Y016612D01*
X013350Y016494D02*
X014980Y016494D01*
X014980Y016375D02*
X013231Y016375D01*
X013113Y016257D02*
X014980Y016257D01*
X014980Y016138D02*
X012994Y016138D01*
X012876Y016020D02*
X014980Y016020D01*
X014980Y015901D02*
X012780Y015901D01*
X012780Y015783D02*
X014980Y015783D01*
X014980Y015664D02*
X012780Y015664D01*
X012780Y015546D02*
X014980Y015546D01*
X014980Y015427D02*
X012854Y015427D01*
X012909Y015309D02*
X014980Y015309D01*
X014980Y015190D02*
X012918Y015190D01*
X012888Y015072D02*
X014980Y015072D01*
X014980Y014953D02*
X012804Y014953D01*
X012780Y014835D02*
X014980Y014835D01*
X014980Y014716D02*
X012780Y014716D01*
X012780Y014598D02*
X014980Y014598D01*
X015005Y014479D02*
X012780Y014479D01*
X012780Y014361D02*
X015099Y014361D01*
X015217Y014242D02*
X012780Y014242D01*
X012780Y014124D02*
X014957Y014124D01*
X014851Y014005D02*
X012780Y014005D01*
X012780Y013887D02*
X014802Y013887D01*
X014789Y013768D02*
X012780Y013768D01*
X012780Y013650D02*
X014800Y013650D01*
X014849Y013531D02*
X012780Y013531D01*
X012780Y013413D02*
X014247Y013413D01*
X014393Y013413D02*
X014954Y013413D01*
X014658Y013176D02*
X015480Y013176D01*
X015480Y013294D02*
X014587Y013294D01*
X014678Y013057D02*
X015480Y013057D01*
X015480Y012939D02*
X014659Y012939D01*
X014591Y012820D02*
X015480Y012820D01*
X015480Y012702D02*
X014540Y012702D01*
X014540Y012583D02*
X015480Y012583D01*
X015480Y012465D02*
X014582Y012465D01*
X014700Y012346D02*
X015480Y012346D01*
X015480Y012228D02*
X014819Y012228D01*
X015132Y012109D02*
X015480Y012109D01*
X015480Y011991D02*
X015211Y011991D01*
X015238Y011872D02*
X015480Y011872D01*
X015480Y011754D02*
X015226Y011754D01*
X015166Y011635D02*
X015480Y011635D01*
X015480Y011517D02*
X014999Y011517D01*
X014761Y011517D02*
X014706Y011517D01*
X014706Y011398D02*
X015480Y011398D01*
X015480Y011280D02*
X014706Y011280D01*
X014706Y011161D02*
X015480Y011161D01*
X015480Y011043D02*
X014706Y011043D01*
X014706Y010924D02*
X015480Y010924D01*
X015480Y010806D02*
X014706Y010806D01*
X014706Y010687D02*
X015480Y010687D01*
X015480Y010569D02*
X014706Y010569D01*
X014706Y010450D02*
X015480Y010450D01*
X015516Y010332D02*
X013825Y010332D01*
X013874Y010213D02*
X015626Y010213D01*
X015745Y010095D02*
X013903Y010095D01*
X013903Y009976D02*
X015863Y009976D01*
X015982Y009858D02*
X014983Y009858D01*
X015102Y009739D02*
X016100Y009739D01*
X016219Y009621D02*
X015189Y009621D01*
X015210Y009502D02*
X016337Y009502D01*
X016456Y009384D02*
X015210Y009384D01*
X015210Y009265D02*
X015982Y009265D01*
X015832Y009147D02*
X015210Y009147D01*
X015210Y009028D02*
X015713Y009028D01*
X015595Y008910D02*
X015210Y008910D01*
X015210Y008791D02*
X015476Y008791D01*
X015358Y008673D02*
X015214Y008673D01*
X013598Y008673D02*
X011202Y008673D01*
X011202Y008791D02*
X013598Y008791D01*
X013598Y008910D02*
X011202Y008910D01*
X011202Y009028D02*
X012151Y009028D01*
X012123Y009056D02*
X012201Y008978D01*
X012304Y008935D01*
X013256Y008935D01*
X013359Y008978D01*
X013598Y009217D01*
X013598Y008345D01*
X011202Y008345D01*
X011202Y009392D01*
X011108Y009486D01*
X010188Y009486D01*
X010094Y009392D01*
X010094Y008501D01*
X009930Y008665D01*
X009930Y018085D01*
X010250Y018405D01*
X013922Y018405D01*
X014072Y018468D01*
X014312Y018708D01*
X014428Y018823D01*
X014490Y018974D01*
X014490Y019475D01*
X014560Y019644D01*
X014560Y020427D01*
X014510Y020547D01*
X014510Y020745D01*
X014822Y020745D01*
X014860Y020783D01*
X014860Y020734D01*
X014839Y020725D01*
X014710Y020596D01*
X014640Y020427D01*
X014640Y019644D01*
X014710Y019475D01*
X014839Y019345D01*
X015008Y019275D01*
X015109Y019275D01*
X011860Y016026D01*
X011860Y013902D01*
X011776Y013818D01*
X011722Y013686D01*
X011722Y013544D01*
X011776Y013412D01*
X011865Y013324D01*
X011865Y012466D01*
X011480Y012851D01*
X011480Y013469D01*
X011504Y013492D01*
X011558Y013624D01*
X011558Y013766D01*
X011504Y013898D01*
X011403Y013999D01*
X011271Y014053D01*
X011129Y014053D01*
X010997Y013999D01*
X010896Y013898D01*
X010842Y013766D01*
X010842Y013624D01*
X010896Y013492D01*
X010920Y013469D01*
X010920Y012679D01*
X010963Y012576D01*
X011480Y012059D01*
X011480Y010652D01*
X011407Y010652D01*
X011202Y010567D01*
X011202Y011873D01*
X011108Y011966D01*
X010188Y011966D01*
X010094Y011873D01*
X010094Y010441D01*
X010188Y010347D01*
X010982Y010347D01*
X010897Y010142D01*
X010897Y009888D01*
X010994Y009654D01*
X011173Y009475D01*
X011407Y009378D01*
X011661Y009378D01*
X011761Y009420D01*
X011763Y009416D01*
X012123Y009056D01*
X012033Y009147D02*
X011202Y009147D01*
X011202Y009265D02*
X011914Y009265D01*
X011796Y009384D02*
X011674Y009384D01*
X011393Y009384D02*
X011202Y009384D01*
X011146Y009502D02*
X009930Y009502D01*
X009930Y009384D02*
X010094Y009384D01*
X010094Y009265D02*
X009930Y009265D01*
X009930Y009147D02*
X010094Y009147D01*
X010094Y009028D02*
X009930Y009028D01*
X009930Y008910D02*
X010094Y008910D01*
X010094Y008791D02*
X009930Y008791D01*
X009930Y008673D02*
X010094Y008673D01*
X010094Y008554D02*
X010041Y008554D01*
X009930Y009621D02*
X011027Y009621D01*
X010959Y009739D02*
X009930Y009739D01*
X009930Y009858D02*
X010909Y009858D01*
X010897Y009976D02*
X009930Y009976D01*
X009930Y010095D02*
X010897Y010095D01*
X010926Y010213D02*
X009930Y010213D01*
X009930Y010332D02*
X010975Y010332D01*
X011202Y010569D02*
X011205Y010569D01*
X011202Y010687D02*
X011480Y010687D01*
X011480Y010806D02*
X011202Y010806D01*
X011202Y010924D02*
X011480Y010924D01*
X011480Y011043D02*
X011202Y011043D01*
X011202Y011161D02*
X011480Y011161D01*
X011480Y011280D02*
X011202Y011280D01*
X011202Y011398D02*
X011480Y011398D01*
X011480Y011517D02*
X011202Y011517D01*
X011202Y011635D02*
X011480Y011635D01*
X011480Y011754D02*
X011202Y011754D01*
X011202Y011872D02*
X011480Y011872D01*
X011480Y011991D02*
X009930Y011991D01*
X009930Y012109D02*
X011430Y012109D01*
X011312Y012228D02*
X009930Y012228D01*
X009930Y012346D02*
X011193Y012346D01*
X011075Y012465D02*
X009930Y012465D01*
X009930Y012583D02*
X010960Y012583D01*
X010920Y012702D02*
X009930Y012702D01*
X009930Y012820D02*
X010920Y012820D01*
X010920Y012939D02*
X009930Y012939D01*
X009930Y013057D02*
X010920Y013057D01*
X010920Y013176D02*
X009930Y013176D01*
X009930Y013294D02*
X010920Y013294D01*
X010920Y013413D02*
X009930Y013413D01*
X009930Y013531D02*
X010880Y013531D01*
X010842Y013650D02*
X009930Y013650D01*
X009930Y013768D02*
X010843Y013768D01*
X010892Y013887D02*
X009930Y013887D01*
X009930Y014005D02*
X011013Y014005D01*
X011387Y014005D02*
X011860Y014005D01*
X011860Y014124D02*
X009930Y014124D01*
X009930Y014242D02*
X011860Y014242D01*
X011860Y014361D02*
X009930Y014361D01*
X009930Y014479D02*
X011860Y014479D01*
X011860Y014598D02*
X009930Y014598D01*
X009930Y014716D02*
X011860Y014716D01*
X011860Y014835D02*
X009930Y014835D01*
X009930Y014953D02*
X011860Y014953D01*
X011860Y015072D02*
X009930Y015072D01*
X009930Y015190D02*
X011860Y015190D01*
X011860Y015309D02*
X009930Y015309D01*
X009930Y015427D02*
X011860Y015427D01*
X011860Y015546D02*
X009930Y015546D01*
X009930Y015664D02*
X011860Y015664D01*
X011860Y015783D02*
X009930Y015783D01*
X009930Y015901D02*
X011860Y015901D01*
X011860Y016020D02*
X009930Y016020D01*
X009930Y016138D02*
X011972Y016138D01*
X012090Y016257D02*
X009930Y016257D01*
X009930Y016375D02*
X012209Y016375D01*
X012327Y016494D02*
X009930Y016494D01*
X009930Y016612D02*
X012446Y016612D01*
X012564Y016731D02*
X009930Y016731D01*
X009930Y016849D02*
X012683Y016849D01*
X012801Y016968D02*
X009930Y016968D01*
X009930Y017086D02*
X012920Y017086D01*
X013038Y017205D02*
X009930Y017205D01*
X009930Y017323D02*
X013157Y017323D01*
X013275Y017442D02*
X009930Y017442D01*
X009930Y017560D02*
X013394Y017560D01*
X013512Y017679D02*
X009930Y017679D01*
X009930Y017797D02*
X013631Y017797D01*
X013749Y017916D02*
X009930Y017916D01*
X009930Y018034D02*
X013868Y018034D01*
X013986Y018153D02*
X009997Y018153D01*
X010116Y018271D02*
X014105Y018271D01*
X014223Y018390D02*
X010234Y018390D01*
X012080Y015935D02*
X015360Y019215D01*
X015440Y019215D01*
X015760Y019535D01*
X015760Y023775D01*
X015840Y023855D01*
X016386Y023855D01*
X016646Y023055D02*
X016080Y023055D01*
X016000Y022975D01*
X016000Y019215D01*
X015760Y018975D01*
X015520Y018975D01*
X012560Y016015D01*
X012560Y015215D01*
X012560Y013375D01*
X012400Y013215D01*
X012400Y011196D01*
X012085Y011196D02*
X012085Y013610D01*
X012080Y013615D01*
X012080Y015935D01*
X011845Y013887D02*
X011508Y013887D01*
X011557Y013768D02*
X011756Y013768D01*
X011722Y013650D02*
X011558Y013650D01*
X011520Y013531D02*
X011727Y013531D01*
X011776Y013413D02*
X011480Y013413D01*
X011480Y013294D02*
X011865Y013294D01*
X011865Y013176D02*
X011480Y013176D01*
X011480Y013057D02*
X011865Y013057D01*
X011865Y012939D02*
X011480Y012939D01*
X011511Y012820D02*
X011865Y012820D01*
X011865Y012702D02*
X011629Y012702D01*
X011748Y012583D02*
X011865Y012583D01*
X012620Y012583D02*
X014100Y012583D01*
X014100Y012465D02*
X012620Y012465D01*
X012620Y012346D02*
X014100Y012346D01*
X014196Y012228D02*
X012620Y012228D01*
X012620Y012109D02*
X014315Y012109D01*
X014433Y011991D02*
X012620Y011991D01*
X013030Y011872D02*
X013030Y011872D01*
X013030Y011754D02*
X013030Y011754D01*
X013030Y011635D02*
X013030Y011635D01*
X013030Y011517D02*
X013030Y011517D01*
X013030Y011398D02*
X013030Y011398D01*
X013030Y011280D02*
X013030Y011280D01*
X013288Y011280D02*
X013598Y011280D01*
X013598Y011398D02*
X013288Y011398D01*
X013288Y011517D02*
X013598Y011517D01*
X013598Y011635D02*
X013288Y011635D01*
X013288Y011754D02*
X013598Y011754D01*
X013598Y011872D02*
X013275Y011872D01*
X013288Y011161D02*
X013598Y011161D01*
X013598Y011043D02*
X013288Y011043D01*
X013288Y010924D02*
X013598Y010924D01*
X013598Y010806D02*
X013288Y010806D01*
X013288Y010687D02*
X013598Y010687D01*
X013595Y010569D02*
X013598Y010569D01*
X012776Y010426D02*
X012726Y010376D01*
X012629Y010142D01*
X012629Y009888D01*
X012726Y009654D01*
X012885Y009495D01*
X012476Y009495D01*
X012280Y009691D01*
X012280Y010231D01*
X012237Y010334D01*
X012159Y010412D01*
X012145Y010426D01*
X012776Y010426D01*
X012708Y010332D02*
X012238Y010332D01*
X012280Y010213D02*
X012658Y010213D01*
X012629Y010095D02*
X012280Y010095D01*
X012280Y009976D02*
X012629Y009976D01*
X012642Y009858D02*
X012280Y009858D01*
X012280Y009739D02*
X012691Y009739D01*
X012760Y009621D02*
X012350Y009621D01*
X012469Y009502D02*
X012878Y009502D01*
X013409Y009028D02*
X013598Y009028D01*
X013598Y009147D02*
X013527Y009147D01*
X013598Y008554D02*
X011202Y008554D01*
X011202Y008436D02*
X013598Y008436D01*
X016642Y010569D02*
X018207Y010569D01*
X018240Y010687D02*
X016938Y010687D01*
X017037Y010806D02*
X018240Y010806D01*
X018240Y010924D02*
X017078Y010924D01*
X017078Y011043D02*
X018240Y011043D01*
X018240Y011161D02*
X017031Y011161D01*
X016960Y011280D02*
X018240Y011280D01*
X018240Y011398D02*
X016960Y011398D01*
X016960Y011517D02*
X018240Y011517D01*
X018240Y011635D02*
X016960Y011635D01*
X016960Y011754D02*
X018168Y011754D01*
X018122Y011872D02*
X016960Y011872D01*
X016962Y011991D02*
X018122Y011991D01*
X018164Y012109D02*
X017047Y012109D01*
X017078Y012228D02*
X018266Y012228D01*
X018694Y012228D02*
X021120Y012228D01*
X021120Y012346D02*
X017070Y012346D01*
X017017Y012465D02*
X020374Y012465D01*
X020255Y012583D02*
X016864Y012583D01*
X016576Y012583D02*
X016400Y012583D01*
X016400Y012465D02*
X016423Y012465D01*
X016400Y012702D02*
X020137Y012702D01*
X020018Y012820D02*
X016400Y012820D01*
X016400Y012939D02*
X019365Y012939D01*
X019515Y012939D02*
X019900Y012939D01*
X019781Y013057D02*
X019708Y013057D01*
X019172Y013057D02*
X016400Y013057D01*
X016400Y013176D02*
X018863Y013176D01*
X018744Y013294D02*
X016400Y013294D01*
X016400Y013413D02*
X018626Y013413D01*
X018510Y013531D02*
X018394Y013531D01*
X018086Y013531D02*
X016400Y013531D01*
X016400Y013650D02*
X016579Y013650D01*
X016482Y013768D02*
X016400Y013768D01*
X016360Y013887D02*
X016442Y013887D01*
X016442Y014005D02*
X016246Y014005D01*
X016127Y014124D02*
X016474Y014124D01*
X016430Y014242D02*
X016009Y014242D01*
X015890Y014361D02*
X016449Y014361D01*
X016602Y014479D02*
X015772Y014479D01*
X015653Y014598D02*
X016648Y014598D01*
X016755Y014716D02*
X015540Y014716D01*
X015540Y014835D02*
X016674Y014835D01*
X016615Y014953D02*
X015540Y014953D01*
X015540Y015072D02*
X016602Y015072D01*
X016628Y015190D02*
X015540Y015190D01*
X015540Y015309D02*
X016634Y015309D01*
X016622Y015427D02*
X015540Y015427D01*
X015540Y015546D02*
X016674Y015546D01*
X017216Y015664D02*
X015540Y015664D01*
X015540Y015783D02*
X017216Y015783D01*
X017216Y015901D02*
X015540Y015901D01*
X015540Y016020D02*
X017222Y016020D01*
X017216Y016138D02*
X015540Y016138D01*
X015540Y016257D02*
X017216Y016257D01*
X017216Y016375D02*
X015540Y016375D01*
X015540Y016494D02*
X017216Y016494D01*
X017216Y016612D02*
X015540Y016612D01*
X015540Y016731D02*
X017216Y016731D01*
X017252Y016849D02*
X015540Y016849D01*
X015540Y016968D02*
X021181Y016968D01*
X021106Y017086D02*
X015540Y017086D01*
X015540Y017205D02*
X021082Y017205D01*
X021021Y017323D02*
X015540Y017323D01*
X015630Y017442D02*
X020902Y017442D01*
X020784Y017560D02*
X015681Y017560D01*
X015703Y017679D02*
X019590Y017679D01*
X019510Y017797D02*
X015702Y017797D01*
X015653Y017916D02*
X019482Y017916D01*
X019493Y018034D02*
X015562Y018034D01*
X015356Y018153D02*
X019551Y018153D01*
X019840Y017935D02*
X020720Y017935D01*
X021440Y017215D01*
X021699Y016968D02*
X024053Y016968D01*
X023935Y016849D02*
X020188Y016849D01*
X020224Y016731D02*
X020386Y016731D01*
X020734Y016731D02*
X020904Y016731D01*
X020890Y016612D02*
X020866Y016612D01*
X021200Y016815D02*
X020960Y017055D01*
X020640Y017055D01*
X021200Y016815D02*
X022880Y016815D01*
X023200Y017135D01*
X023089Y017272D02*
X023119Y017302D01*
X023140Y017338D01*
X023151Y017379D01*
X023151Y017635D01*
X022795Y017635D01*
X022795Y017240D01*
X023012Y017240D01*
X023052Y017251D01*
X023089Y017272D01*
X023131Y017323D02*
X023370Y017323D01*
X023370Y017442D02*
X023151Y017442D01*
X023151Y017560D02*
X023370Y017560D01*
X023370Y017679D02*
X022795Y017679D01*
X022795Y017560D02*
X022675Y017560D01*
X022675Y017442D02*
X022795Y017442D01*
X022795Y017323D02*
X022675Y017323D01*
X023151Y017797D02*
X023370Y017797D01*
X023370Y017916D02*
X023151Y017916D01*
X023144Y018034D02*
X023370Y018034D01*
X023370Y018153D02*
X023151Y018153D01*
X023151Y018271D02*
X023370Y018271D01*
X023370Y018390D02*
X023151Y018390D01*
X023151Y018508D02*
X023370Y018508D01*
X023171Y018627D02*
X023151Y018627D01*
X023443Y018949D02*
X023094Y019298D01*
X023109Y019313D01*
X023109Y019546D01*
X023342Y019546D01*
X023436Y019640D01*
X023436Y019937D01*
X023625Y019937D01*
X023625Y019708D01*
X023642Y019690D01*
X023636Y019678D01*
X023625Y019637D01*
X023625Y019420D01*
X024020Y019420D01*
X024020Y019300D01*
X024140Y019300D01*
X024140Y018945D01*
X024186Y018945D01*
X024160Y018918D01*
X024108Y018970D01*
X024020Y018970D01*
X024020Y019300D01*
X023625Y019300D01*
X023625Y019083D01*
X023636Y019043D01*
X023657Y019006D01*
X023686Y018976D01*
X023698Y018970D01*
X023464Y018970D01*
X023443Y018949D01*
X023410Y018982D02*
X023681Y018982D01*
X023625Y019101D02*
X023291Y019101D01*
X023173Y019219D02*
X023625Y019219D01*
X023625Y019456D02*
X023109Y019456D01*
X023109Y019338D02*
X024020Y019338D01*
X024020Y019219D02*
X024140Y019219D01*
X024140Y019300D02*
X024140Y019420D01*
X024820Y019420D01*
X024820Y019300D01*
X024940Y019300D01*
X024940Y018945D01*
X025196Y018945D01*
X025237Y018955D01*
X025246Y018961D01*
X025021Y018735D01*
X024950Y018735D01*
X024950Y018876D01*
X024856Y018970D01*
X024820Y018970D01*
X024820Y019300D01*
X024425Y019300D01*
X024140Y019300D01*
X024140Y019338D02*
X024820Y019338D01*
X024820Y019219D02*
X024940Y019219D01*
X024940Y019101D02*
X024820Y019101D01*
X024820Y018982D02*
X024940Y018982D01*
X024950Y018864D02*
X025149Y018864D01*
X025031Y018745D02*
X024950Y018745D01*
X025360Y018396D02*
X025723Y018759D01*
X025760Y018847D01*
X025760Y019308D01*
X025792Y019295D01*
X028745Y019295D01*
X028770Y019235D01*
X028899Y019105D01*
X029068Y019035D01*
X029851Y019035D01*
X030021Y019105D01*
X030150Y019235D01*
X030220Y019404D01*
X030220Y019485D01*
X031047Y019485D01*
X031287Y019725D01*
X031410Y019848D01*
X031410Y019885D01*
X031429Y019877D01*
X031470Y019877D01*
X031470Y016008D01*
X031593Y015885D01*
X032133Y015345D01*
X032264Y015345D01*
X032357Y015251D01*
X032489Y015197D01*
X032631Y015197D01*
X032763Y015251D01*
X032864Y015352D01*
X032905Y015453D01*
X032936Y015423D01*
X032956Y015372D01*
X033057Y015271D01*
X033189Y015217D01*
X033331Y015217D01*
X033463Y015271D01*
X033564Y015372D01*
X033618Y015504D01*
X033618Y015646D01*
X033564Y015778D01*
X033463Y015879D01*
X033331Y015933D01*
X033189Y015933D01*
X033069Y015883D01*
X032930Y016022D01*
X032807Y016145D01*
X032247Y016145D01*
X032130Y016262D01*
X032130Y019565D01*
X032243Y019611D01*
X032344Y019712D01*
X032398Y019844D01*
X032398Y019986D01*
X032378Y020035D01*
X032391Y020035D01*
X032561Y020105D01*
X032690Y020235D01*
X032760Y020404D01*
X032840Y020404D01*
X032910Y020235D01*
X032936Y020208D01*
X032830Y020102D01*
X032670Y019942D01*
X032670Y018568D01*
X032762Y018476D01*
X032762Y018344D01*
X032816Y018212D01*
X032917Y018111D01*
X033049Y018057D01*
X033191Y018057D01*
X033323Y018111D01*
X033424Y018212D01*
X033478Y018344D01*
X033478Y018486D01*
X033424Y018618D01*
X033323Y018719D01*
X033191Y018773D01*
X033090Y018773D01*
X033090Y019524D01*
X033136Y019412D01*
X033237Y019311D01*
X033369Y019257D01*
X033482Y019257D01*
X033683Y019056D01*
X033761Y018978D01*
X033864Y018935D01*
X035576Y018935D01*
X035679Y018978D01*
X036436Y019735D01*
X036753Y019735D01*
X036693Y019512D01*
X036693Y019245D01*
X036762Y018988D01*
X036895Y018758D01*
X037084Y018569D01*
X037314Y018436D01*
X037571Y018367D01*
X037838Y018367D01*
X038095Y018436D01*
X038325Y018569D01*
X038514Y018758D01*
X038647Y018988D01*
X038716Y019245D01*
X038716Y019512D01*
X038647Y019769D01*
X038514Y019999D01*
X038325Y020188D01*
X038118Y020307D01*
X038118Y020406D01*
X038064Y020538D01*
X037963Y020639D01*
X037831Y020693D01*
X037689Y020693D01*
X037557Y020639D01*
X037513Y020595D01*
X037504Y020618D01*
X037410Y020712D01*
X037410Y021062D01*
X037287Y021185D01*
X037137Y021335D01*
X037229Y021297D01*
X037371Y021297D01*
X037465Y021336D01*
X037465Y021299D01*
X037559Y021205D01*
X038321Y021205D01*
X038415Y021299D01*
X038415Y021943D01*
X038363Y021995D01*
X038415Y022047D01*
X038415Y022145D01*
X038425Y022145D01*
X038425Y022063D01*
X038415Y022063D01*
X038425Y022063D02*
X038518Y021969D01*
X038950Y021969D01*
X038950Y021501D01*
X038940Y021501D01*
X038940Y021106D01*
X038820Y021106D01*
X038820Y020986D01*
X038940Y020986D01*
X038940Y020591D01*
X038950Y020591D01*
X038950Y008148D01*
X038941Y008111D01*
X038950Y008048D01*
X038950Y007984D01*
X038953Y007977D01*
X038950Y007961D01*
X038932Y007933D01*
X038905Y007913D01*
X038877Y007905D01*
X038838Y007905D01*
X038755Y007911D01*
X038737Y007905D01*
X038056Y007905D01*
X038074Y007923D01*
X038074Y008685D01*
X037980Y008779D01*
X037060Y008779D01*
X036995Y008714D01*
X036946Y008714D01*
X036881Y008779D01*
X036039Y008779D01*
X036010Y008749D01*
X035981Y008779D01*
X035166Y008779D01*
X035166Y008936D01*
X035185Y008931D01*
X035500Y008931D01*
X035500Y009346D01*
X035620Y009346D01*
X035620Y008931D01*
X035935Y008931D01*
X035976Y008942D01*
X036010Y008962D01*
X036044Y008942D01*
X036085Y008931D01*
X036400Y008931D01*
X036400Y009346D01*
X036520Y009346D01*
X036520Y008931D01*
X036835Y008931D01*
X036876Y008942D01*
X036913Y008963D01*
X036942Y008993D01*
X036963Y009030D01*
X036966Y009040D01*
X036966Y009025D01*
X037060Y008931D01*
X037980Y008931D01*
X038074Y009025D01*
X038074Y009787D01*
X037980Y009881D01*
X037730Y009881D01*
X037730Y010222D01*
X037718Y010234D01*
X037718Y010366D01*
X037664Y010498D01*
X037563Y010599D01*
X037431Y010653D01*
X037289Y010653D01*
X037157Y010599D01*
X037056Y010498D01*
X037002Y010366D01*
X037002Y010224D01*
X037056Y010092D01*
X037157Y009991D01*
X037289Y009937D01*
X037310Y009937D01*
X037310Y009881D01*
X037060Y009881D01*
X036966Y009787D01*
X036966Y009772D01*
X036963Y009783D01*
X036942Y009819D01*
X036913Y009849D01*
X036876Y009870D01*
X036835Y009881D01*
X036520Y009881D01*
X036520Y009466D01*
X036400Y009466D01*
X036400Y009346D01*
X035946Y009346D01*
X035620Y009346D01*
X035620Y009466D01*
X036400Y009466D01*
X036400Y009881D01*
X036085Y009881D01*
X036044Y009870D01*
X036010Y009851D01*
X035976Y009870D01*
X035935Y009881D01*
X035620Y009881D01*
X035620Y009466D01*
X035500Y009466D01*
X035500Y009346D01*
X035046Y009346D01*
X035046Y009084D01*
X035027Y009089D01*
X034751Y009089D01*
X034751Y008635D01*
X034631Y008635D01*
X034631Y008515D01*
X034216Y008515D01*
X034216Y008205D01*
X034064Y008205D01*
X034064Y008996D01*
X033970Y009089D01*
X033474Y009089D01*
X033474Y009120D01*
X033520Y009120D01*
X033600Y009120D01*
X033640Y009131D01*
X033650Y009120D01*
X033901Y009120D01*
X033904Y009123D01*
X033906Y009120D01*
X034157Y009120D01*
X034160Y009123D01*
X034162Y009120D01*
X034413Y009120D01*
X034507Y009214D01*
X034507Y009483D01*
X034507Y009484D01*
X034507Y009667D01*
X034507Y009668D01*
X034507Y009937D01*
X034413Y010031D01*
X034162Y010031D01*
X034160Y010028D01*
X034157Y010031D01*
X033906Y010031D01*
X033904Y010028D01*
X033901Y010031D01*
X033650Y010031D01*
X033640Y010020D01*
X033600Y010031D01*
X033520Y010031D01*
X033520Y009576D01*
X033520Y009576D01*
X033520Y010031D01*
X033440Y010031D01*
X033400Y010020D01*
X033389Y010031D01*
X033139Y010031D01*
X033136Y010028D01*
X033133Y010031D01*
X032883Y010031D01*
X032880Y010028D01*
X032877Y010031D01*
X032627Y010031D01*
X032624Y010028D01*
X032621Y010031D01*
X032371Y010031D01*
X032368Y010028D01*
X032366Y010031D01*
X032115Y010031D01*
X032104Y010020D01*
X032064Y010031D01*
X031984Y010031D01*
X031904Y010031D01*
X031864Y010020D01*
X031854Y010031D01*
X031603Y010031D01*
X031600Y010028D01*
X031598Y010031D01*
X031347Y010031D01*
X031339Y010023D01*
X031243Y010119D01*
X031111Y010173D01*
X030969Y010173D01*
X030837Y010119D01*
X030736Y010018D01*
X030682Y009886D01*
X030682Y009744D01*
X030703Y009693D01*
X030569Y009693D01*
X030437Y009639D01*
X030355Y009556D01*
X030355Y010061D01*
X029940Y010061D01*
X029940Y009371D01*
X030216Y009371D01*
X030257Y009382D01*
X030282Y009396D01*
X030282Y009264D01*
X030336Y009132D01*
X030437Y009031D01*
X030569Y008977D01*
X030711Y008977D01*
X030843Y009031D01*
X030896Y009085D01*
X030973Y009085D01*
X031134Y008924D01*
X031134Y008205D01*
X030430Y008205D01*
X030355Y008280D01*
X030355Y009046D01*
X030261Y009139D01*
X029709Y009139D01*
X029606Y009243D01*
X029455Y009305D01*
X028566Y009305D01*
X029279Y010018D01*
X029357Y010096D01*
X029400Y010199D01*
X029400Y011639D01*
X029712Y011951D01*
X029736Y011892D01*
X029837Y011791D01*
X029969Y011737D01*
X030111Y011737D01*
X030243Y011791D01*
X030336Y011885D01*
X031253Y011885D01*
X031253Y011773D01*
X031347Y011679D01*
X031598Y011679D01*
X031600Y011682D01*
X031603Y011679D01*
X031854Y011679D01*
X031856Y011682D01*
X031859Y011679D01*
X032110Y011679D01*
X032112Y011682D01*
X032115Y011679D01*
X032366Y011679D01*
X032376Y011690D01*
X032416Y011679D01*
X032496Y011679D01*
X032496Y012135D01*
X032496Y012590D01*
X032460Y012590D01*
X032460Y012759D01*
X032465Y012771D01*
X032532Y012704D01*
X032532Y012590D01*
X032496Y012590D01*
X032496Y012135D01*
X032496Y012135D01*
X032496Y012135D01*
X032496Y011679D01*
X032576Y011679D01*
X032616Y011690D01*
X032627Y011679D01*
X032877Y011679D01*
X032880Y011682D01*
X032883Y011679D01*
X033133Y011679D01*
X033144Y011690D01*
X033184Y011679D01*
X033264Y011679D01*
X033344Y011679D01*
X033384Y011690D01*
X033394Y011679D01*
X033645Y011679D01*
X033656Y011690D01*
X033696Y011679D01*
X033776Y011679D01*
X033856Y011679D01*
X033896Y011690D01*
X033904Y011694D01*
X033911Y011690D01*
X033951Y011679D01*
X034032Y011679D01*
X034112Y011679D01*
X034151Y011690D01*
X034162Y011679D01*
X034413Y011679D01*
X034461Y011728D01*
X034517Y011671D01*
X034649Y011617D01*
X034791Y011617D01*
X034923Y011671D01*
X035024Y011772D01*
X035078Y011904D01*
X035078Y012046D01*
X035024Y012178D01*
X034923Y012279D01*
X034791Y012333D01*
X034673Y012333D01*
X034652Y012355D01*
X034507Y012355D01*
X034507Y012496D01*
X034413Y012590D01*
X034162Y012590D01*
X034151Y012579D01*
X034112Y012590D01*
X034032Y012590D01*
X034032Y012135D01*
X034032Y012135D01*
X034032Y012590D01*
X033951Y012590D01*
X033911Y012579D01*
X033904Y012575D01*
X033896Y012579D01*
X033856Y012590D01*
X033776Y012590D01*
X033776Y012135D01*
X033776Y012135D01*
X033995Y012135D01*
X034032Y012135D01*
X034032Y011679D01*
X034032Y012135D01*
X034032Y012135D01*
X034032Y012135D01*
X033776Y012135D01*
X033776Y012135D01*
X033776Y012590D01*
X033740Y012590D01*
X033740Y012759D01*
X033757Y012776D01*
X033800Y012879D01*
X033800Y013311D01*
X033757Y013414D01*
X032637Y014534D01*
X032559Y014612D01*
X032456Y014655D01*
X030296Y014655D01*
X029914Y015037D01*
X029914Y017438D01*
X030021Y017545D01*
X030091Y017713D01*
X030091Y017894D01*
X030021Y018062D01*
X029892Y018191D01*
X029725Y018260D01*
X029543Y018260D01*
X029375Y018191D01*
X029246Y018062D01*
X029177Y017894D01*
X029177Y017713D01*
X029246Y017545D01*
X029354Y017438D01*
X029354Y014866D01*
X029396Y014763D01*
X029913Y014247D01*
X029900Y014247D01*
X029892Y014254D01*
X029725Y014323D01*
X029543Y014323D01*
X029375Y014254D01*
X029246Y014125D01*
X029177Y013957D01*
X029177Y013776D01*
X029246Y013608D01*
X029375Y013479D01*
X029543Y013410D01*
X029725Y013410D01*
X029817Y013448D01*
X028801Y012432D01*
X028723Y012354D01*
X028716Y012337D01*
X028501Y012122D01*
X028423Y012044D01*
X028380Y011941D01*
X028380Y010521D01*
X027996Y010137D01*
X027961Y010122D01*
X027894Y010055D01*
X021665Y010055D01*
X021718Y010184D01*
X021718Y010326D01*
X021664Y010458D01*
X021600Y010522D01*
X021600Y012254D01*
X021643Y012271D01*
X021744Y012372D01*
X021798Y012504D01*
X021798Y012646D01*
X021744Y012778D01*
X021643Y012879D01*
X021511Y012933D01*
X021369Y012933D01*
X021237Y012879D01*
X021144Y012785D01*
X020647Y012785D01*
X020192Y013240D01*
X020788Y013240D01*
X020805Y013257D01*
X020817Y013251D01*
X020858Y013240D01*
X021075Y013240D01*
X021075Y013635D01*
X021195Y013635D01*
X021195Y013755D01*
X021354Y013755D01*
X021414Y013695D01*
X021780Y013695D01*
X021780Y013627D01*
X021729Y013577D01*
X021729Y012854D01*
X021823Y012760D01*
X022468Y012760D01*
X022485Y012777D01*
X022497Y012771D01*
X022538Y012760D01*
X022755Y012760D01*
X022755Y013155D01*
X022875Y013155D01*
X022875Y013275D01*
X023231Y013275D01*
X023231Y013531D01*
X024259Y013531D01*
X024141Y013413D02*
X023231Y013413D01*
X023231Y013531D02*
X023220Y013572D01*
X023199Y013609D01*
X023192Y013615D01*
X023466Y013615D01*
X023560Y013709D01*
X023560Y014081D01*
X023466Y014175D01*
X023454Y014175D01*
X023474Y014211D01*
X023485Y014251D01*
X023485Y014351D01*
X023128Y014351D01*
X023128Y014103D01*
X023040Y014015D01*
X022792Y014015D01*
X022784Y014007D01*
X022784Y013246D01*
X022815Y013215D01*
X022800Y013200D01*
X022800Y012975D01*
X022755Y012939D02*
X022875Y012939D01*
X022875Y013057D02*
X022755Y013057D01*
X022875Y013155D02*
X022875Y012760D01*
X023092Y012760D01*
X023132Y012771D01*
X023169Y012792D01*
X023199Y012822D01*
X023220Y012858D01*
X023231Y012899D01*
X023231Y013155D01*
X022875Y013155D01*
X022875Y013176D02*
X023904Y013176D01*
X023825Y013097D02*
X023803Y013119D01*
X023671Y013173D01*
X023529Y013173D01*
X023397Y013119D01*
X023296Y013018D01*
X023242Y012886D01*
X023242Y012744D01*
X023296Y012612D01*
X023397Y012511D01*
X023529Y012457D01*
X023671Y012457D01*
X023803Y012511D01*
X023896Y012605D01*
X023927Y012605D01*
X024050Y012728D01*
X024910Y013588D01*
X024910Y011272D01*
X024816Y011178D01*
X024762Y011046D01*
X024762Y010904D01*
X024816Y010772D01*
X024917Y010671D01*
X025049Y010617D01*
X025191Y010617D01*
X025323Y010671D01*
X025424Y010772D01*
X025478Y010904D01*
X025478Y011046D01*
X025424Y011178D01*
X025330Y011272D01*
X025330Y011588D01*
X025593Y011325D01*
X026744Y011325D01*
X026837Y011231D01*
X026969Y011177D01*
X027111Y011177D01*
X027243Y011231D01*
X027344Y011332D01*
X027391Y011447D01*
X027673Y011165D01*
X027680Y011165D01*
X027680Y010842D01*
X027616Y010778D01*
X027562Y010646D01*
X027562Y010504D01*
X027616Y010372D01*
X027717Y010271D01*
X027849Y010217D01*
X027991Y010217D01*
X028123Y010271D01*
X028224Y010372D01*
X028278Y010504D01*
X028278Y010646D01*
X028224Y010778D01*
X028160Y010842D01*
X028160Y011054D01*
X028203Y011071D01*
X028304Y011172D01*
X028358Y011304D01*
X028358Y011446D01*
X028304Y011578D01*
X028203Y011679D01*
X028071Y011733D01*
X027929Y011733D01*
X027797Y011679D01*
X027775Y011657D01*
X027367Y012065D01*
X025847Y012065D01*
X025810Y012102D01*
X025810Y014568D01*
X025927Y014685D01*
X026050Y014808D01*
X026050Y014937D01*
X026151Y014937D01*
X026283Y014991D01*
X026384Y015092D01*
X026438Y015224D01*
X026438Y015366D01*
X026384Y015498D01*
X026283Y015599D01*
X026151Y015653D01*
X026144Y015653D01*
X026198Y015784D01*
X026198Y015926D01*
X026144Y016058D01*
X026043Y016159D01*
X025911Y016213D01*
X025769Y016213D01*
X025637Y016159D01*
X025617Y016138D01*
X025584Y016218D01*
X025483Y016319D01*
X025351Y016373D01*
X025238Y016373D01*
X025238Y016486D01*
X025184Y016618D01*
X025083Y016719D01*
X024951Y016773D01*
X024938Y016773D01*
X025323Y017159D01*
X025360Y017247D01*
X025360Y018396D01*
X025360Y018390D02*
X031470Y018390D01*
X031470Y018508D02*
X025472Y018508D01*
X025591Y018627D02*
X031470Y018627D01*
X031470Y018745D02*
X025709Y018745D01*
X025760Y018864D02*
X031470Y018864D01*
X031470Y018982D02*
X025760Y018982D01*
X025760Y019101D02*
X028910Y019101D01*
X028785Y019219D02*
X025760Y019219D01*
X025939Y019775D02*
X025656Y020059D01*
X025563Y020151D01*
X025496Y020219D01*
X025408Y020255D01*
X025335Y020255D01*
X025335Y020352D01*
X025242Y020446D01*
X024518Y020446D01*
X024480Y020407D01*
X024442Y020446D01*
X023718Y020446D01*
X023649Y020377D01*
X023436Y020377D01*
X023436Y020865D01*
X023480Y020909D01*
X023480Y021281D01*
X023386Y021375D01*
X023014Y021375D01*
X022930Y021291D01*
X022708Y021291D01*
X022708Y021345D01*
X022729Y021337D01*
X022871Y021337D01*
X023003Y021391D01*
X023104Y021492D01*
X023158Y021624D01*
X023158Y021766D01*
X023104Y021898D01*
X023003Y021999D01*
X022871Y022053D01*
X022729Y022053D01*
X022708Y022045D01*
X022708Y022987D01*
X023607Y023885D01*
X023747Y023885D01*
X023799Y023937D01*
X023931Y023937D01*
X024063Y023991D01*
X024164Y024092D01*
X024202Y024185D01*
X024225Y024185D01*
X024225Y024047D01*
X024277Y023995D01*
X024225Y023943D01*
X024225Y023656D01*
X024203Y023679D01*
X024071Y023733D01*
X023929Y023733D01*
X023797Y023679D01*
X023696Y023578D01*
X023642Y023446D01*
X023642Y023304D01*
X023696Y023172D01*
X023797Y023071D01*
X023882Y023037D01*
X023993Y022925D01*
X025033Y021885D01*
X026087Y021885D01*
X026210Y022008D01*
X026615Y022413D01*
X026677Y022351D01*
X026809Y022297D01*
X026951Y022297D01*
X027083Y022351D01*
X027184Y022452D01*
X027238Y022584D01*
X027238Y022726D01*
X027184Y022858D01*
X027083Y022959D01*
X026951Y023013D01*
X026809Y023013D01*
X026677Y022959D01*
X026584Y022865D01*
X026473Y022865D01*
X025913Y022305D01*
X025207Y022305D01*
X025175Y022337D01*
X025231Y022337D01*
X025363Y022391D01*
X025464Y022492D01*
X025518Y022624D01*
X025518Y022714D01*
X025639Y022835D01*
X025656Y022792D01*
X025757Y022691D01*
X025889Y022637D01*
X026031Y022637D01*
X026163Y022691D01*
X026264Y022792D01*
X026318Y022924D01*
X026318Y023056D01*
X026370Y023108D01*
X026370Y023430D01*
X026374Y023419D01*
X026407Y023354D01*
X026449Y023295D01*
X026500Y023244D01*
X026559Y023202D01*
X026623Y023169D01*
X026692Y023146D01*
X026760Y023136D01*
X026760Y023855D01*
X026840Y023855D01*
X026840Y023136D01*
X026908Y023146D01*
X026977Y023169D01*
X027041Y023202D01*
X027100Y023244D01*
X027151Y023295D01*
X027193Y023354D01*
X027226Y023419D01*
X027249Y023487D01*
X027260Y023559D01*
X027260Y023855D01*
X026840Y023855D01*
X026840Y023935D01*
X027260Y023935D01*
X027260Y024231D01*
X027249Y024303D01*
X027226Y024372D01*
X027193Y024436D01*
X027151Y024495D01*
X027100Y024546D01*
X027046Y024585D01*
X027540Y024585D01*
X027539Y024585D01*
X027410Y024456D01*
X027340Y024287D01*
X027340Y023504D01*
X027410Y023335D01*
X027539Y023205D01*
X027708Y023135D01*
X027723Y023135D01*
X027933Y022925D01*
X028995Y022925D01*
X028983Y022921D01*
X028919Y022889D01*
X028860Y022846D01*
X028809Y022795D01*
X028767Y022736D01*
X028734Y022672D01*
X028711Y022603D01*
X028701Y022535D01*
X029420Y022535D01*
X029420Y022455D01*
X029500Y022455D01*
X029500Y022035D01*
X029796Y022035D01*
X029868Y022046D01*
X029937Y022069D01*
X030001Y022102D01*
X030060Y022144D01*
X030111Y022195D01*
X030153Y022254D01*
X030154Y022255D01*
X030197Y022211D01*
X030329Y022157D01*
X030471Y022157D01*
X030603Y022211D01*
X030704Y022312D01*
X030758Y022444D01*
X030758Y022451D01*
X030797Y022411D01*
X030929Y022357D01*
X030983Y022357D01*
X030332Y021705D01*
X030171Y021705D01*
X030150Y021756D01*
X030021Y021885D01*
X029851Y021955D01*
X029068Y021955D01*
X028899Y021885D01*
X028790Y021776D01*
X028620Y021946D01*
X028491Y022075D01*
X026926Y022075D01*
X026843Y022159D01*
X026711Y022213D01*
X026569Y022213D01*
X026437Y022159D01*
X026336Y022058D01*
X026282Y021926D01*
X026282Y021784D01*
X026336Y021652D01*
X026437Y021551D01*
X026569Y021497D01*
X026711Y021497D01*
X026843Y021551D01*
X026926Y021635D01*
X028309Y021635D01*
X028420Y021524D01*
X028420Y020084D01*
X028549Y019955D01*
X028563Y019955D01*
X028590Y019928D01*
X028713Y019805D01*
X028819Y019805D01*
X028789Y019775D01*
X025939Y019775D01*
X025903Y019812D02*
X028706Y019812D01*
X028590Y019928D02*
X028590Y019928D01*
X028588Y019930D02*
X025784Y019930D01*
X025666Y020049D02*
X028455Y020049D01*
X028420Y020167D02*
X025547Y020167D01*
X025563Y020151D02*
X025563Y020151D01*
X025656Y020059D02*
X025656Y020059D01*
X025335Y020286D02*
X028420Y020286D01*
X028420Y020404D02*
X025283Y020404D01*
X024080Y020030D02*
X024033Y020157D01*
X023138Y020157D01*
X023138Y020354D01*
X023138Y020550D01*
X023138Y020747D01*
X022892Y020993D01*
X022695Y020993D01*
X022840Y020695D02*
X022302Y020695D01*
X022302Y020769D01*
X022302Y020769D01*
X022302Y020695D01*
X022223Y020695D01*
X022203Y020701D01*
X022183Y020695D01*
X022105Y020695D01*
X022105Y020769D01*
X022105Y020769D01*
X022105Y020695D01*
X021960Y020695D01*
X021960Y020550D01*
X021886Y020550D01*
X021886Y020550D01*
X021960Y020550D01*
X021960Y020472D01*
X021954Y020452D01*
X021960Y020432D01*
X021960Y020354D01*
X021878Y020354D01*
X021878Y020354D01*
X021878Y020354D01*
X021960Y020354D01*
X021960Y020275D01*
X021954Y020255D01*
X021960Y020235D01*
X021960Y020157D01*
X021878Y020157D01*
X021878Y020157D01*
X021878Y020157D01*
X021960Y020157D01*
X021960Y020079D01*
X021954Y020058D01*
X021960Y020038D01*
X021960Y019960D01*
X021878Y019960D01*
X021878Y019960D01*
X021878Y019960D01*
X021960Y019960D01*
X021960Y019882D01*
X021954Y019861D01*
X021960Y019841D01*
X021960Y019815D01*
X022840Y019815D01*
X022840Y020695D01*
X022840Y020641D02*
X021960Y020641D01*
X021960Y020523D02*
X022840Y020523D01*
X022840Y020404D02*
X021960Y020404D01*
X022000Y020495D02*
X021717Y020495D01*
X021662Y020550D01*
X021662Y020354D01*
X021662Y020354D01*
X021662Y020530D01*
X021662Y020530D01*
X021662Y020374D01*
X021662Y020354D01*
X021662Y020157D01*
X021662Y020157D01*
X021662Y020353D01*
X021662Y020353D01*
X021662Y020177D01*
X021662Y020157D01*
X021662Y019960D01*
X021662Y019960D01*
X021662Y020157D01*
X021662Y020157D01*
X021662Y019980D01*
X021662Y019960D01*
X021662Y019763D01*
X021662Y019763D01*
X021662Y019960D01*
X021662Y019960D01*
X021662Y019763D01*
X021662Y019812D02*
X021662Y019812D01*
X021662Y019930D02*
X021662Y019930D01*
X021662Y020049D02*
X021662Y020049D01*
X021662Y020167D02*
X021662Y020167D01*
X021662Y020286D02*
X021662Y020286D01*
X021662Y020404D02*
X021662Y020404D01*
X021662Y020523D02*
X021662Y020523D01*
X022000Y020495D02*
X022105Y020600D01*
X022105Y020993D01*
X022302Y020993D01*
X022281Y020993D02*
X022130Y020993D01*
X022130Y020993D01*
X022281Y020993D01*
X022281Y020993D01*
X022302Y020760D02*
X022302Y020760D01*
X022105Y020760D02*
X022105Y020760D01*
X021960Y020286D02*
X022840Y020286D01*
X022840Y020167D02*
X021960Y020167D01*
X021957Y020049D02*
X022840Y020049D01*
X022840Y019930D02*
X021960Y019930D01*
X021908Y019517D02*
X021908Y019443D01*
X021440Y018975D01*
X021440Y017775D01*
X021520Y017695D01*
X022065Y017695D01*
X021798Y017205D02*
X024690Y017205D01*
X024594Y017323D02*
X024474Y017323D01*
X024474Y017442D02*
X024594Y017442D01*
X024594Y017560D02*
X024474Y017560D01*
X024572Y017086D02*
X021774Y017086D01*
X022456Y016731D02*
X022483Y016731D01*
X022865Y016335D02*
X022054Y016335D01*
X022528Y015998D02*
X022865Y016335D01*
X022748Y015880D02*
X023188Y015880D01*
X023205Y015897D01*
X023217Y015891D01*
X023258Y015880D01*
X023475Y015880D01*
X023475Y016275D01*
X023595Y016275D01*
X023595Y015880D01*
X023812Y015880D01*
X023840Y015887D01*
X023840Y015474D01*
X023779Y015413D01*
X023689Y015413D01*
X023557Y015359D01*
X023468Y015270D01*
X023454Y015295D01*
X023466Y015295D01*
X023560Y015389D01*
X023560Y015761D01*
X023466Y015855D01*
X023094Y015855D01*
X023000Y015761D01*
X023000Y015742D01*
X022991Y015759D01*
X022961Y015788D01*
X022924Y015809D01*
X022884Y015820D01*
X022784Y015820D01*
X022784Y015463D01*
X023032Y015463D01*
X023535Y015966D01*
X023535Y016335D01*
X023475Y016257D02*
X023595Y016257D01*
X023595Y016138D02*
X023475Y016138D01*
X023475Y016020D02*
X023595Y016020D01*
X023595Y015901D02*
X023475Y015901D01*
X023539Y015783D02*
X023840Y015783D01*
X023840Y015664D02*
X023560Y015664D01*
X023560Y015546D02*
X023840Y015546D01*
X023793Y015427D02*
X023560Y015427D01*
X023507Y015309D02*
X023480Y015309D01*
X023120Y015375D02*
X023032Y015463D01*
X023120Y015375D02*
X023120Y015127D01*
X023128Y015119D01*
X023128Y015119D01*
X023128Y014863D01*
X022771Y014863D01*
X022771Y014828D01*
X022711Y014853D01*
X022621Y014853D01*
X022368Y015107D01*
X022673Y015107D01*
X022675Y015109D01*
X022684Y015107D01*
X022771Y015107D01*
X022771Y015019D01*
X022779Y014991D01*
X022771Y014963D01*
X022771Y014863D01*
X023128Y014863D01*
X023128Y014863D01*
X023128Y014863D01*
X023128Y014607D01*
X023128Y014607D01*
X023128Y014351D01*
X023128Y014607D01*
X023128Y014607D01*
X023128Y014863D01*
X023128Y014863D01*
X023128Y015119D01*
X023128Y014880D01*
X023128Y014863D01*
X023128Y014846D01*
X023128Y014607D01*
X023128Y014368D01*
X023128Y014351D01*
X023128Y014351D01*
X023128Y014351D01*
X023485Y014351D01*
X023485Y014451D01*
X023478Y014479D01*
X024670Y014479D01*
X024670Y014361D02*
X023485Y014361D01*
X023478Y014479D02*
X023485Y014507D01*
X023485Y014607D01*
X023128Y014607D01*
X023128Y014607D01*
X023485Y014607D01*
X023485Y014707D01*
X023478Y014735D01*
X023485Y014763D01*
X023485Y014823D01*
X023557Y014751D01*
X023689Y014697D01*
X023831Y014697D01*
X023963Y014751D01*
X024064Y014852D01*
X024118Y014984D01*
X024118Y015074D01*
X024283Y015239D01*
X024320Y015327D01*
X024320Y016556D01*
X024339Y016575D01*
X024559Y016575D01*
X024522Y016486D01*
X024522Y016344D01*
X024576Y016212D01*
X024670Y016119D01*
X024670Y013942D01*
X023825Y013097D01*
X024022Y013294D02*
X023231Y013294D01*
X023231Y013057D02*
X023336Y013057D01*
X023264Y012939D02*
X023231Y012939D01*
X023242Y012820D02*
X023197Y012820D01*
X023259Y012702D02*
X021775Y012702D01*
X021763Y012820D02*
X021701Y012820D01*
X021729Y012939D02*
X020493Y012939D01*
X020375Y013057D02*
X021729Y013057D01*
X021729Y013176D02*
X020256Y013176D01*
X020612Y012820D02*
X021179Y012820D01*
X021798Y012583D02*
X023326Y012583D01*
X023510Y012465D02*
X021782Y012465D01*
X021717Y012346D02*
X024910Y012346D01*
X024910Y012228D02*
X021600Y012228D01*
X021600Y012109D02*
X024910Y012109D01*
X024910Y011991D02*
X021600Y011991D01*
X021600Y011872D02*
X024910Y011872D01*
X024910Y011754D02*
X021600Y011754D01*
X021600Y011635D02*
X024910Y011635D01*
X024910Y011517D02*
X021600Y011517D01*
X021600Y011398D02*
X024910Y011398D01*
X024910Y011280D02*
X021600Y011280D01*
X021600Y011161D02*
X024809Y011161D01*
X024762Y011043D02*
X021600Y011043D01*
X021600Y010924D02*
X024762Y010924D01*
X024803Y010806D02*
X021600Y010806D01*
X021600Y010687D02*
X024902Y010687D01*
X025338Y010687D02*
X027579Y010687D01*
X027562Y010569D02*
X021600Y010569D01*
X021667Y010450D02*
X027584Y010450D01*
X027657Y010332D02*
X021716Y010332D01*
X021718Y010213D02*
X028072Y010213D01*
X028183Y010332D02*
X028191Y010332D01*
X028256Y010450D02*
X028309Y010450D01*
X028278Y010569D02*
X028380Y010569D01*
X028380Y010687D02*
X028261Y010687D01*
X028196Y010806D02*
X028380Y010806D01*
X028380Y010924D02*
X028160Y010924D01*
X028160Y011043D02*
X028380Y011043D01*
X028380Y011161D02*
X028292Y011161D01*
X028348Y011280D02*
X028380Y011280D01*
X028380Y011398D02*
X028358Y011398D01*
X028380Y011517D02*
X028329Y011517D01*
X028380Y011635D02*
X028246Y011635D01*
X028380Y011754D02*
X027678Y011754D01*
X027560Y011872D02*
X028380Y011872D01*
X028401Y011991D02*
X027441Y011991D01*
X027440Y011398D02*
X027371Y011398D01*
X027291Y011280D02*
X027559Y011280D01*
X027680Y011161D02*
X025431Y011161D01*
X025478Y011043D02*
X027680Y011043D01*
X027680Y010924D02*
X025478Y010924D01*
X025437Y010806D02*
X027644Y010806D01*
X027934Y010095D02*
X021681Y010095D01*
X021053Y010450D02*
X018820Y010450D01*
X018838Y010332D02*
X021004Y010332D01*
X021002Y010213D02*
X018817Y010213D01*
X018746Y010095D02*
X021039Y010095D01*
X021120Y010569D02*
X018753Y010569D01*
X018720Y010687D02*
X021120Y010687D01*
X021120Y010806D02*
X018720Y010806D01*
X018720Y010924D02*
X021120Y010924D01*
X021120Y011043D02*
X018720Y011043D01*
X018720Y011161D02*
X021120Y011161D01*
X021120Y011280D02*
X018720Y011280D01*
X018720Y011398D02*
X021120Y011398D01*
X021120Y011517D02*
X018720Y011517D01*
X018720Y011635D02*
X021120Y011635D01*
X021120Y011754D02*
X018792Y011754D01*
X018838Y011872D02*
X021120Y011872D01*
X021120Y011991D02*
X018838Y011991D01*
X018796Y012109D02*
X021120Y012109D01*
X021195Y013240D02*
X021412Y013240D01*
X021452Y013251D01*
X021489Y013272D01*
X021519Y013302D01*
X021540Y013338D01*
X021551Y013379D01*
X021551Y013635D01*
X021195Y013635D01*
X021195Y013240D01*
X021195Y013294D02*
X021075Y013294D01*
X021075Y013413D02*
X021195Y013413D01*
X021195Y013531D02*
X021075Y013531D01*
X021195Y013650D02*
X021780Y013650D01*
X021729Y013531D02*
X021551Y013531D01*
X021551Y013413D02*
X021729Y013413D01*
X021729Y013294D02*
X021511Y013294D01*
X021592Y013695D02*
X021135Y013695D01*
X021592Y013695D02*
X021672Y013775D01*
X021672Y014351D01*
X021672Y014607D02*
X021152Y014607D01*
X020960Y014415D01*
X020465Y014640D02*
X020960Y015135D01*
X020960Y015989D01*
X021306Y016335D01*
X020740Y015783D02*
X020724Y015783D01*
X020740Y015664D02*
X020635Y015664D01*
X020740Y015546D02*
X020224Y015546D01*
X020224Y015427D02*
X020740Y015427D01*
X020740Y015309D02*
X020224Y015309D01*
X020224Y015190D02*
X020704Y015190D01*
X020585Y015072D02*
X020224Y015072D01*
X020224Y014953D02*
X020467Y014953D01*
X020348Y014835D02*
X020224Y014835D01*
X020224Y014716D02*
X020245Y014716D01*
X020245Y014598D02*
X020224Y014598D01*
X020220Y014479D02*
X020245Y014479D01*
X020224Y014384D02*
X019869Y014384D01*
X019869Y014384D01*
X019869Y014383D02*
X019869Y014164D01*
X020085Y014164D01*
X020125Y014174D01*
X020162Y014195D01*
X020192Y014225D01*
X020213Y014262D01*
X020224Y014302D01*
X020224Y014384D01*
X020224Y014361D02*
X020245Y014361D01*
X020245Y014242D02*
X020201Y014242D01*
X020116Y014124D02*
X019170Y014124D01*
X019170Y014242D02*
X019536Y014242D01*
X019546Y014225D02*
X019575Y014195D01*
X019612Y014174D01*
X019653Y014164D01*
X019869Y014164D01*
X019869Y014383D01*
X019869Y014383D01*
X019869Y014384D02*
X019514Y014384D01*
X019514Y014302D01*
X019525Y014262D01*
X019546Y014225D01*
X019514Y014361D02*
X019151Y014361D01*
X019033Y014479D02*
X019518Y014479D01*
X019514Y014598D02*
X018914Y014598D01*
X018923Y014716D02*
X018450Y014716D01*
X018450Y014835D02*
X018754Y014835D01*
X018695Y014953D02*
X018450Y014953D01*
X018450Y015072D02*
X018682Y015072D01*
X018708Y015190D02*
X018450Y015190D01*
X018450Y015309D02*
X018764Y015309D01*
X018650Y015427D02*
X018450Y015427D01*
X018450Y015546D02*
X018602Y015546D01*
X018602Y015664D02*
X018450Y015664D01*
X018450Y015783D02*
X018642Y015783D01*
X018740Y015901D02*
X018450Y015901D01*
X018450Y016020D02*
X019519Y016020D01*
X019514Y016138D02*
X018450Y016138D01*
X018450Y016257D02*
X019514Y016257D01*
X019514Y016375D02*
X018337Y016375D01*
X018218Y016494D02*
X019514Y016494D01*
X019514Y016612D02*
X018100Y016612D01*
X017926Y016687D02*
X017571Y016687D01*
X017926Y016687D01*
X017926Y016731D02*
X019514Y016731D01*
X019550Y016849D02*
X017890Y016849D01*
X017571Y016849D02*
X017571Y016849D01*
X017571Y016731D02*
X017571Y016731D01*
X017571Y016687D02*
X017571Y016687D01*
X019180Y015901D02*
X019514Y015901D01*
X019514Y015190D02*
X019472Y015190D01*
X019514Y015151D02*
X019869Y015151D01*
X019514Y015151D01*
X019514Y015072D02*
X019398Y015072D01*
X019385Y014953D02*
X019514Y014953D01*
X019514Y014835D02*
X019326Y014835D01*
X019157Y014716D02*
X019514Y014716D01*
X019869Y014716D02*
X019869Y014716D01*
X019869Y014598D02*
X019869Y014598D01*
X019869Y014479D02*
X019869Y014479D01*
X019869Y014361D02*
X019869Y014361D01*
X019869Y014242D02*
X019869Y014242D01*
X020049Y014005D02*
X019170Y014005D01*
X019785Y013887D02*
X020049Y013887D01*
X020049Y013768D02*
X019904Y013768D01*
X020022Y013650D02*
X020049Y013650D01*
X020465Y013695D02*
X020465Y014640D01*
X019869Y014835D02*
X019869Y014835D01*
X019869Y014953D02*
X019869Y014953D01*
X019869Y015072D02*
X019869Y015072D01*
X019869Y015151D02*
X019869Y015151D01*
X021200Y014975D02*
X021200Y015375D01*
X021440Y015615D01*
X021672Y015119D02*
X022000Y015119D01*
X022016Y015135D01*
X022016Y015463D01*
X022272Y015463D01*
X022528Y015463D02*
X022528Y015998D01*
X022748Y015880D02*
X022748Y015820D01*
X022784Y015820D01*
X022784Y015463D01*
X022784Y015463D01*
X022784Y015546D02*
X022784Y015546D01*
X022784Y015664D02*
X022784Y015664D01*
X022784Y015783D02*
X022784Y015783D01*
X022967Y015783D02*
X023021Y015783D01*
X023475Y016494D02*
X023595Y016494D01*
X023595Y016612D02*
X023475Y016612D01*
X023475Y016731D02*
X023595Y016731D01*
X024320Y016494D02*
X024525Y016494D01*
X024522Y016375D02*
X024320Y016375D01*
X024320Y016257D02*
X024558Y016257D01*
X024651Y016138D02*
X024320Y016138D01*
X024320Y016020D02*
X024670Y016020D01*
X024670Y015901D02*
X024320Y015901D01*
X024320Y015783D02*
X024670Y015783D01*
X024670Y015664D02*
X024320Y015664D01*
X024320Y015546D02*
X024670Y015546D01*
X024670Y015427D02*
X024320Y015427D01*
X024312Y015309D02*
X024670Y015309D01*
X024670Y015190D02*
X024234Y015190D01*
X024118Y015072D02*
X024670Y015072D01*
X024670Y014953D02*
X024105Y014953D01*
X024046Y014835D02*
X024670Y014835D01*
X024670Y014716D02*
X023877Y014716D01*
X023643Y014716D02*
X023483Y014716D01*
X023485Y014598D02*
X024670Y014598D01*
X024670Y014242D02*
X023483Y014242D01*
X023518Y014124D02*
X024670Y014124D01*
X024670Y014005D02*
X023560Y014005D01*
X023560Y013887D02*
X024615Y013887D01*
X024496Y013768D02*
X023560Y013768D01*
X023501Y013650D02*
X024378Y013650D01*
X024616Y013294D02*
X024910Y013294D01*
X024910Y013176D02*
X024497Y013176D01*
X024379Y013057D02*
X024910Y013057D01*
X024910Y012939D02*
X024260Y012939D01*
X024142Y012820D02*
X024910Y012820D01*
X024910Y012702D02*
X024023Y012702D01*
X023874Y012583D02*
X024910Y012583D01*
X024910Y012465D02*
X023690Y012465D01*
X022875Y012820D02*
X022755Y012820D01*
X022800Y012815D02*
X022720Y012735D01*
X022755Y013275D02*
X022755Y013650D01*
X022784Y013650D01*
X022875Y013650D01*
X022875Y013275D01*
X022755Y013275D01*
X022755Y013294D02*
X022875Y013294D01*
X022875Y013413D02*
X022755Y013413D01*
X022755Y013531D02*
X022875Y013531D01*
X022875Y013650D02*
X022755Y013650D01*
X022784Y013650D02*
X022784Y014007D01*
X022784Y013650D01*
X022784Y013768D02*
X022784Y013768D01*
X022784Y013887D02*
X022784Y013887D01*
X022784Y014005D02*
X022784Y014005D01*
X022784Y014007D02*
X022784Y014007D01*
X023128Y014361D02*
X023128Y014361D01*
X023128Y014479D02*
X023128Y014479D01*
X023128Y014598D02*
X023128Y014598D01*
X023128Y014716D02*
X023128Y014716D01*
X023128Y014835D02*
X023128Y014835D01*
X023128Y014953D02*
X023128Y014953D01*
X023128Y015072D02*
X023128Y015072D01*
X022771Y015072D02*
X022403Y015072D01*
X022521Y014953D02*
X022771Y014953D01*
X022756Y014835D02*
X022771Y014835D01*
X022016Y015135D02*
X022016Y014007D01*
X022000Y013991D01*
X022000Y013615D01*
X022145Y013470D01*
X022145Y013215D01*
X021672Y014863D02*
X021312Y014863D01*
X021200Y014975D01*
X019869Y016731D02*
X019869Y016731D01*
X019869Y016849D02*
X019869Y016849D01*
X020090Y017679D02*
X020665Y017679D01*
X020932Y018034D02*
X021220Y018034D01*
X021220Y017916D02*
X021051Y017916D01*
X021169Y017797D02*
X021220Y017797D01*
X021220Y018153D02*
X020814Y018153D01*
X022065Y018495D02*
X022105Y018534D01*
X022105Y019517D01*
X022302Y019517D02*
X022302Y018994D01*
X022320Y018975D01*
X022560Y018975D01*
X022640Y018895D01*
X022640Y018590D01*
X022735Y018495D01*
X023600Y018681D02*
X023786Y018495D01*
X023786Y017695D01*
X024020Y018982D02*
X024140Y018982D01*
X024140Y019101D02*
X024020Y019101D01*
X023625Y019575D02*
X023371Y019575D01*
X023436Y019693D02*
X023639Y019693D01*
X023625Y019812D02*
X023436Y019812D01*
X023436Y019930D02*
X023625Y019930D01*
X023677Y020404D02*
X023436Y020404D01*
X023436Y020523D02*
X028420Y020523D01*
X028420Y020641D02*
X023436Y020641D01*
X023436Y020760D02*
X028420Y020760D01*
X028420Y020878D02*
X023449Y020878D01*
X023480Y020997D02*
X028420Y020997D01*
X028420Y021115D02*
X023480Y021115D01*
X023480Y021234D02*
X028420Y021234D01*
X028420Y021352D02*
X023409Y021352D01*
X023082Y021471D02*
X028420Y021471D01*
X028355Y021589D02*
X026880Y021589D01*
X026640Y021855D02*
X028400Y021855D01*
X028640Y021615D01*
X028640Y020175D01*
X030010Y019101D02*
X031470Y019101D01*
X031470Y019219D02*
X030135Y019219D01*
X030193Y019338D02*
X031470Y019338D01*
X031470Y019456D02*
X030220Y019456D01*
X031137Y019575D02*
X031470Y019575D01*
X031470Y019693D02*
X031255Y019693D01*
X031374Y019812D02*
X031470Y019812D01*
X032154Y019575D02*
X032670Y019575D01*
X032670Y019693D02*
X032324Y019693D01*
X032385Y019812D02*
X032670Y019812D01*
X032670Y019930D02*
X032398Y019930D01*
X032424Y020049D02*
X032777Y020049D01*
X032895Y020167D02*
X032623Y020167D01*
X032711Y020286D02*
X032889Y020286D01*
X032840Y020404D02*
X032840Y021118D01*
X032752Y021206D01*
X032760Y021187D01*
X032760Y020404D01*
X032760Y020523D02*
X032840Y020523D01*
X032840Y020641D02*
X032760Y020641D01*
X032760Y020760D02*
X032840Y020760D01*
X032840Y020878D02*
X032760Y020878D01*
X032760Y020997D02*
X032840Y020997D01*
X032840Y021115D02*
X032760Y021115D01*
X033059Y021493D02*
X032570Y021982D01*
X032570Y022232D01*
X032699Y022361D01*
X032745Y022314D01*
X032745Y022314D01*
X032912Y022148D01*
X032922Y022148D01*
X032922Y022024D01*
X032976Y021892D01*
X033077Y021791D01*
X033209Y021737D01*
X033351Y021737D01*
X033483Y021791D01*
X033584Y021892D01*
X033638Y022024D01*
X033638Y022166D01*
X033584Y022298D01*
X033483Y022399D01*
X033351Y022453D01*
X033350Y022453D01*
X033428Y022532D01*
X033428Y022664D01*
X033256Y022836D01*
X033208Y022884D01*
X033159Y022836D01*
X033208Y022884D01*
X033154Y022938D01*
X033152Y022939D01*
X033152Y022940D01*
X032981Y023111D01*
X032839Y023253D01*
X032705Y023387D01*
X032705Y023387D01*
X032563Y023529D01*
X032515Y023577D01*
X032930Y023992D01*
X032930Y024099D01*
X033024Y024192D01*
X033078Y024324D01*
X033078Y024466D01*
X033024Y024598D01*
X032923Y024699D01*
X032791Y024753D01*
X032649Y024753D01*
X032517Y024699D01*
X032416Y024598D01*
X032362Y024466D01*
X032362Y024324D01*
X032416Y024192D01*
X032476Y024132D01*
X032218Y023874D01*
X032146Y023946D01*
X032005Y024087D01*
X031901Y024191D01*
X031901Y024191D01*
X031729Y024363D01*
X031596Y024363D01*
X031213Y023979D01*
X031213Y023905D01*
X030873Y023905D01*
X030750Y023782D01*
X030670Y023702D01*
X030670Y023142D01*
X030401Y022873D01*
X030329Y022873D01*
X030197Y022819D01*
X030137Y022759D01*
X030111Y022795D01*
X030060Y022846D01*
X030001Y022889D01*
X029937Y022921D01*
X029925Y022925D01*
X030247Y022925D01*
X030370Y023048D01*
X030610Y023288D01*
X030610Y024088D01*
X030750Y024228D01*
X030750Y024625D01*
X030902Y024625D01*
X030995Y024718D01*
X030995Y024830D01*
X031233Y024830D01*
X031596Y024467D01*
X031729Y024467D01*
X031901Y024639D01*
X031949Y024687D01*
X031901Y024736D01*
X031949Y024687D01*
X032003Y024741D01*
X032004Y024743D01*
X032005Y024743D01*
X032176Y024914D01*
X032313Y025051D01*
X032366Y025105D01*
X032420Y025158D01*
X032421Y025160D01*
X032422Y025160D01*
X032593Y025332D01*
X032642Y025380D01*
X032750Y025272D01*
X032750Y025048D01*
X033150Y024648D01*
X033273Y024525D01*
X033304Y024525D01*
X033397Y024431D01*
X033529Y024377D01*
X033671Y024377D01*
X033803Y024431D01*
X033904Y024532D01*
X033958Y024664D01*
X033958Y024806D01*
X033904Y024938D01*
X033803Y025039D01*
X033707Y025078D01*
X033718Y025104D01*
X033718Y025237D01*
X033731Y025237D01*
X033863Y025291D01*
X033964Y025392D01*
X034018Y025524D01*
X034018Y025632D01*
X034042Y025656D01*
X034116Y025582D01*
X034169Y025529D01*
X034218Y025577D01*
X034218Y025577D01*
X034169Y025529D01*
X034223Y025475D01*
X034225Y025474D01*
X034225Y025473D01*
X034397Y025302D01*
X034508Y025190D01*
X034679Y025019D01*
X034814Y024884D01*
X034955Y024743D01*
X034955Y024743D01*
X035059Y024639D01*
X035059Y024639D01*
X035231Y024467D01*
X035364Y024467D01*
X035667Y024771D01*
X035695Y024743D01*
X035637Y024719D01*
X035536Y024618D01*
X035482Y024486D01*
X035482Y024344D01*
X035529Y024229D01*
X035497Y024229D01*
X035364Y024363D01*
X035231Y024363D01*
X035059Y024191D01*
X035011Y024143D01*
X035059Y024094D01*
X035011Y024143D01*
X034957Y024089D01*
X034956Y024087D01*
X034955Y024087D01*
X034784Y023916D01*
X034742Y023874D01*
X034630Y023987D01*
X034678Y024104D01*
X034678Y024246D01*
X034624Y024378D01*
X034523Y024479D01*
X034391Y024533D01*
X034249Y024533D01*
X034117Y024479D01*
X034016Y024378D01*
X033962Y024246D01*
X033962Y024104D01*
X034016Y023972D01*
X034117Y023871D01*
X034175Y023848D01*
X034277Y023745D01*
X034136Y023745D01*
X034043Y023839D01*
X033911Y023893D01*
X033769Y023893D01*
X033637Y023839D01*
X033536Y023738D01*
X033482Y023606D01*
X033482Y023464D01*
X033536Y023332D01*
X033637Y023231D01*
X033769Y023177D01*
X033911Y023177D01*
X034043Y023231D01*
X034134Y023323D01*
X034162Y023294D01*
X034084Y023216D01*
X033949Y023081D01*
X033808Y022940D01*
X033808Y022940D01*
X033704Y022836D01*
X033704Y022836D01*
X033532Y022664D01*
X033532Y022532D01*
X033916Y022148D01*
X033923Y022148D01*
X034853Y021218D01*
X034840Y021187D01*
X034840Y020404D01*
X034751Y020404D01*
X034749Y020387D02*
X034760Y020459D01*
X034760Y020755D01*
X034340Y020755D01*
X034340Y020835D01*
X034760Y020835D01*
X034760Y021131D01*
X034749Y021203D01*
X034726Y021272D01*
X034693Y021336D01*
X034651Y021395D01*
X034600Y021446D01*
X034541Y021489D01*
X034477Y021521D01*
X034408Y021544D01*
X034340Y021554D01*
X034340Y020835D01*
X034260Y020835D01*
X034260Y020755D01*
X033840Y020755D01*
X033840Y020459D01*
X033851Y020387D01*
X033874Y020319D01*
X033907Y020254D01*
X033928Y020225D01*
X033681Y020225D01*
X033690Y020235D01*
X033760Y020404D01*
X033849Y020404D01*
X033760Y020404D02*
X033760Y021187D01*
X033690Y021356D01*
X033561Y021485D01*
X033391Y021555D01*
X033208Y021555D01*
X033059Y021493D01*
X032963Y021589D02*
X034482Y021589D01*
X034566Y021471D02*
X034600Y021471D01*
X034682Y021352D02*
X034719Y021352D01*
X034739Y021234D02*
X034837Y021234D01*
X034840Y021115D02*
X034760Y021115D01*
X034760Y020997D02*
X034840Y020997D01*
X034840Y020878D02*
X034760Y020878D01*
X034840Y020760D02*
X034340Y020760D01*
X034260Y020760D02*
X033760Y020760D01*
X033840Y020835D02*
X034260Y020835D01*
X034260Y021554D01*
X034192Y021544D01*
X034123Y021521D01*
X034059Y021489D01*
X034000Y021446D01*
X033949Y021395D01*
X033907Y021336D01*
X033874Y021272D01*
X033851Y021203D01*
X033840Y021131D01*
X033840Y020835D01*
X033840Y020878D02*
X033760Y020878D01*
X033760Y020997D02*
X033840Y020997D01*
X033840Y021115D02*
X033760Y021115D01*
X033741Y021234D02*
X033861Y021234D01*
X033918Y021352D02*
X033691Y021352D01*
X033575Y021471D02*
X034034Y021471D01*
X034260Y021471D02*
X034340Y021471D01*
X034340Y021352D02*
X034260Y021352D01*
X034260Y021234D02*
X034340Y021234D01*
X034340Y021115D02*
X034260Y021115D01*
X034260Y020997D02*
X034340Y020997D01*
X034340Y020878D02*
X034260Y020878D01*
X033840Y020641D02*
X033760Y020641D01*
X033760Y020523D02*
X033840Y020523D01*
X033890Y020286D02*
X033711Y020286D01*
X034555Y020111D02*
X034600Y020144D01*
X034651Y020195D01*
X034693Y020254D01*
X034726Y020319D01*
X034749Y020387D01*
X034840Y020404D02*
X034910Y020235D01*
X035039Y020105D01*
X035208Y020035D01*
X035391Y020035D01*
X035561Y020105D01*
X035690Y020235D01*
X035760Y020404D01*
X035932Y020404D01*
X036038Y020510D02*
X035353Y019825D01*
X035096Y019825D01*
X035003Y019919D01*
X034871Y019973D01*
X034729Y019973D01*
X034598Y019919D01*
X034598Y020006D01*
X034555Y020111D01*
X034581Y020049D02*
X035176Y020049D01*
X034977Y020167D02*
X034623Y020167D01*
X034710Y020286D02*
X034889Y020286D01*
X034840Y020523D02*
X034760Y020523D01*
X034760Y020641D02*
X034840Y020641D01*
X035623Y020167D02*
X035695Y020167D01*
X035711Y020286D02*
X035814Y020286D01*
X035760Y020404D02*
X035760Y021132D01*
X035776Y021092D01*
X035877Y020991D01*
X036009Y020937D01*
X036016Y020937D01*
X035962Y020806D01*
X035962Y020664D01*
X036016Y020532D01*
X036038Y020510D01*
X036026Y020523D02*
X035760Y020523D01*
X035760Y020641D02*
X035971Y020641D01*
X035962Y020760D02*
X035760Y020760D01*
X035760Y020878D02*
X035992Y020878D01*
X035872Y020997D02*
X035760Y020997D01*
X035760Y021115D02*
X035767Y021115D01*
X036527Y021945D02*
X037083Y021945D01*
X037097Y021959D02*
X036996Y021858D01*
X036942Y021726D01*
X036942Y021584D01*
X036980Y021492D01*
X036002Y022470D01*
X036064Y022532D01*
X036118Y022664D01*
X036118Y022806D01*
X036102Y022845D01*
X036793Y022845D01*
X036910Y022728D01*
X036910Y022632D01*
X036896Y022618D01*
X036842Y022486D01*
X036842Y022344D01*
X036896Y022212D01*
X036997Y022111D01*
X037129Y022057D01*
X037271Y022057D01*
X037403Y022111D01*
X037465Y022174D01*
X037465Y022047D01*
X037517Y021995D01*
X037487Y021965D01*
X037371Y022013D01*
X037229Y022013D01*
X037097Y021959D01*
X037114Y022063D02*
X036409Y022063D01*
X036290Y022182D02*
X036927Y022182D01*
X036860Y022300D02*
X036172Y022300D01*
X036053Y022419D02*
X036842Y022419D01*
X036863Y022537D02*
X036066Y022537D01*
X036115Y022656D02*
X036910Y022656D01*
X036864Y022774D02*
X036118Y022774D01*
X036709Y023265D02*
X036793Y023265D01*
X036967Y023265D01*
X037169Y023063D01*
X037169Y023135D01*
X037525Y023135D01*
X037525Y023255D01*
X037169Y023255D01*
X037169Y023511D01*
X037180Y023552D01*
X037201Y023589D01*
X037231Y023618D01*
X037268Y023639D01*
X037308Y023650D01*
X037402Y023650D01*
X037367Y023686D01*
X037316Y023809D01*
X036481Y023809D01*
X036603Y023759D01*
X036704Y023658D01*
X036758Y023526D01*
X036758Y023384D01*
X036709Y023265D01*
X036751Y023367D02*
X037169Y023367D01*
X037169Y023485D02*
X036758Y023485D01*
X036726Y023604D02*
X037216Y023604D01*
X037352Y023722D02*
X036639Y023722D01*
X036319Y023809D02*
X036197Y023759D01*
X036096Y023658D01*
X036066Y023585D01*
X035583Y023585D01*
X035534Y023634D01*
X035581Y023680D01*
X035581Y023680D01*
X035710Y023809D01*
X036319Y023809D01*
X036161Y023722D02*
X035623Y023722D01*
X035564Y023604D02*
X036074Y023604D01*
X035494Y024315D02*
X035412Y024315D01*
X035482Y024433D02*
X034568Y024433D01*
X034650Y024315D02*
X035183Y024315D01*
X035064Y024196D02*
X034678Y024196D01*
X034667Y024078D02*
X034946Y024078D01*
X035059Y024094D02*
X035059Y024094D01*
X035059Y024191D02*
X035059Y024191D01*
X034827Y023959D02*
X034657Y023959D01*
X034784Y023916D02*
X034784Y023916D01*
X034182Y023841D02*
X034038Y023841D01*
X034030Y023959D02*
X032897Y023959D01*
X032930Y024078D02*
X033973Y024078D01*
X033962Y024196D02*
X033025Y024196D01*
X033074Y024315D02*
X033990Y024315D01*
X034072Y024433D02*
X033804Y024433D01*
X033912Y024552D02*
X035147Y024552D01*
X035028Y024670D02*
X033958Y024670D01*
X033958Y024789D02*
X034910Y024789D01*
X034791Y024907D02*
X033916Y024907D01*
X033816Y025026D02*
X034673Y025026D01*
X034554Y025144D02*
X033718Y025144D01*
X033793Y025263D02*
X034436Y025263D01*
X034508Y025190D02*
X034508Y025190D01*
X034317Y025381D02*
X033952Y025381D01*
X034008Y025500D02*
X034199Y025500D01*
X034080Y025618D02*
X034018Y025618D01*
X034770Y026143D02*
X034770Y026275D01*
X034770Y027024D01*
X034813Y027041D01*
X034914Y027142D01*
X034968Y027274D01*
X034968Y027416D01*
X034917Y027540D01*
X034935Y027540D01*
X034935Y027935D01*
X035055Y027935D01*
X035055Y028055D01*
X035411Y028055D01*
X035411Y028285D01*
X035433Y028285D01*
X035710Y028008D01*
X035710Y027222D01*
X035581Y027093D01*
X035449Y027093D01*
X035317Y027039D01*
X035216Y026938D01*
X035162Y026806D01*
X035162Y026664D01*
X035200Y026573D01*
X034770Y026143D01*
X034770Y026211D02*
X034837Y026211D01*
X034770Y026329D02*
X034956Y026329D01*
X035074Y026448D02*
X034770Y026448D01*
X034770Y026566D02*
X035193Y026566D01*
X035162Y026685D02*
X034770Y026685D01*
X034770Y026803D02*
X035162Y026803D01*
X035210Y026922D02*
X034770Y026922D01*
X034810Y027040D02*
X035321Y027040D01*
X035647Y027159D02*
X034920Y027159D01*
X034968Y027277D02*
X035710Y027277D01*
X035710Y027396D02*
X034968Y027396D01*
X034928Y027514D02*
X035710Y027514D01*
X035710Y027633D02*
X035397Y027633D01*
X035400Y027638D02*
X035411Y027679D01*
X035411Y027935D01*
X035055Y027935D01*
X035055Y027540D01*
X035272Y027540D01*
X035312Y027551D01*
X035349Y027572D01*
X035379Y027602D01*
X035400Y027638D01*
X035411Y027751D02*
X035710Y027751D01*
X035710Y027870D02*
X035411Y027870D01*
X035411Y028107D02*
X035611Y028107D01*
X035710Y027988D02*
X035055Y027988D01*
X035055Y027870D02*
X034935Y027870D01*
X034935Y027751D02*
X035055Y027751D01*
X035055Y027633D02*
X034935Y027633D01*
X034252Y027406D02*
X034252Y027300D01*
X034170Y027382D01*
X034047Y027505D01*
X033411Y027505D01*
X033411Y027755D01*
X033055Y027755D01*
X033055Y027875D01*
X033411Y027875D01*
X033411Y028131D01*
X033401Y028169D01*
X033522Y028163D01*
X033909Y028198D01*
X033909Y027634D01*
X034003Y027540D01*
X034118Y027540D01*
X034252Y027406D01*
X034252Y027396D02*
X034156Y027396D01*
X034144Y027514D02*
X033411Y027514D01*
X033411Y027633D02*
X033910Y027633D01*
X033909Y027751D02*
X033411Y027751D01*
X033411Y027988D02*
X033909Y027988D01*
X033909Y027870D02*
X033055Y027870D01*
X033411Y028107D02*
X033909Y028107D01*
X035411Y028225D02*
X035493Y028225D01*
X035731Y028581D02*
X038950Y028581D01*
X038950Y028699D02*
X036036Y028699D01*
X035850Y028462D02*
X038950Y028462D01*
X038950Y028344D02*
X037626Y028344D01*
X037594Y028375D02*
X036911Y028375D01*
X036817Y028282D01*
X036817Y027405D01*
X036743Y027405D01*
X036743Y028282D01*
X036649Y028375D01*
X035966Y028375D01*
X035951Y028361D01*
X035730Y028582D01*
X036344Y028817D01*
X036344Y028817D01*
X037196Y029284D01*
X037977Y029862D01*
X038671Y030542D01*
X038671Y030542D01*
X038671Y030542D01*
X038950Y030903D01*
X038950Y028070D01*
X038835Y028070D01*
X038835Y027675D01*
X038715Y027675D01*
X038715Y028070D01*
X038498Y028070D01*
X038457Y028059D01*
X038445Y028053D01*
X038428Y028070D01*
X037783Y028070D01*
X037689Y027977D01*
X037689Y027622D01*
X037688Y027620D01*
X037688Y028282D01*
X037594Y028375D01*
X037688Y028225D02*
X038950Y028225D01*
X038950Y028107D02*
X037688Y028107D01*
X037688Y027988D02*
X037701Y027988D01*
X037688Y027870D02*
X037689Y027870D01*
X037688Y027751D02*
X037689Y027751D01*
X037688Y027633D02*
X037689Y027633D01*
X036817Y027633D02*
X036743Y027633D01*
X036743Y027751D02*
X036817Y027751D01*
X036817Y027870D02*
X036743Y027870D01*
X036743Y027988D02*
X036817Y027988D01*
X036817Y028107D02*
X036743Y028107D01*
X036743Y028225D02*
X036817Y028225D01*
X036879Y028344D02*
X036681Y028344D01*
X036346Y028818D02*
X038950Y028818D01*
X038950Y028936D02*
X036562Y028936D01*
X036779Y029055D02*
X038950Y029055D01*
X038950Y029173D02*
X036995Y029173D01*
X037196Y029284D02*
X037196Y029284D01*
X037207Y029292D02*
X038950Y029292D01*
X038950Y029410D02*
X037367Y029410D01*
X037527Y029529D02*
X038950Y029529D01*
X038950Y029647D02*
X037686Y029647D01*
X037846Y029766D02*
X038950Y029766D01*
X038950Y029884D02*
X037999Y029884D01*
X037977Y029862D02*
X037977Y029862D01*
X038120Y030003D02*
X038950Y030003D01*
X038950Y030121D02*
X038241Y030121D01*
X038362Y030240D02*
X038950Y030240D01*
X038950Y030358D02*
X038483Y030358D01*
X038604Y030477D02*
X038950Y030477D01*
X038950Y030595D02*
X038712Y030595D01*
X038803Y030714D02*
X038950Y030714D01*
X038950Y030832D02*
X038895Y030832D01*
X038835Y027988D02*
X038715Y027988D01*
X038715Y027870D02*
X038835Y027870D01*
X038835Y027751D02*
X038715Y027751D01*
X038715Y027555D02*
X038835Y027555D01*
X038835Y027290D01*
X038795Y027290D01*
X038795Y026895D01*
X038675Y026895D01*
X038675Y027160D01*
X038715Y027160D01*
X038715Y027555D01*
X038715Y027514D02*
X038835Y027514D01*
X038835Y027396D02*
X038715Y027396D01*
X038715Y027277D02*
X038795Y027277D01*
X038795Y027159D02*
X038675Y027159D01*
X038675Y027040D02*
X038795Y027040D01*
X038795Y026922D02*
X038675Y026922D01*
X038675Y026775D02*
X038795Y026775D01*
X038795Y026380D01*
X038950Y026380D01*
X038950Y025244D01*
X038896Y025299D01*
X038770Y025425D01*
X038682Y025461D01*
X038586Y025461D01*
X038555Y025461D01*
X038555Y025543D01*
X038503Y025595D01*
X038523Y025615D01*
X038544Y025651D01*
X038555Y025692D01*
X038555Y025909D01*
X038140Y025909D01*
X038140Y026029D01*
X038555Y026029D01*
X038555Y026246D01*
X038544Y026287D01*
X038523Y026323D01*
X038493Y026353D01*
X038457Y026374D01*
X038416Y026385D01*
X038393Y026385D01*
X038405Y026397D01*
X038417Y026391D01*
X038458Y026380D01*
X038675Y026380D01*
X038675Y026775D01*
X038675Y026685D02*
X038795Y026685D01*
X038795Y026566D02*
X038675Y026566D01*
X038675Y026448D02*
X038795Y026448D01*
X038950Y026329D02*
X038517Y026329D01*
X038555Y026211D02*
X038950Y026211D01*
X038950Y026092D02*
X038555Y026092D01*
X038555Y025855D02*
X038950Y025855D01*
X038950Y025737D02*
X038555Y025737D01*
X038525Y025618D02*
X038950Y025618D01*
X038950Y025500D02*
X038555Y025500D01*
X038813Y025381D02*
X038950Y025381D01*
X038896Y025299D02*
X038896Y025299D01*
X038932Y025263D02*
X038950Y025263D01*
X038950Y025974D02*
X038140Y025974D01*
X036817Y027514D02*
X036743Y027514D01*
X035589Y024670D02*
X035566Y024670D01*
X035509Y024552D02*
X035448Y024552D01*
X034116Y023248D02*
X034059Y023248D01*
X033998Y023130D02*
X032962Y023130D01*
X032844Y023248D02*
X033621Y023248D01*
X033522Y023367D02*
X032725Y023367D01*
X032607Y023485D02*
X033482Y023485D01*
X033482Y023604D02*
X032541Y023604D01*
X032660Y023722D02*
X033530Y023722D01*
X033642Y023841D02*
X032778Y023841D01*
X032421Y024078D02*
X032014Y024078D01*
X032005Y024087D02*
X032005Y024087D01*
X031896Y024196D02*
X032415Y024196D01*
X032366Y024315D02*
X031777Y024315D01*
X031548Y024315D02*
X030750Y024315D01*
X030750Y024433D02*
X032362Y024433D01*
X032397Y024552D02*
X031813Y024552D01*
X031901Y024639D02*
X031901Y024639D01*
X031932Y024670D02*
X032489Y024670D01*
X032169Y024907D02*
X032891Y024907D01*
X033009Y024789D02*
X032050Y024789D01*
X031901Y024736D02*
X031901Y024736D01*
X031512Y024552D02*
X030750Y024552D01*
X030947Y024670D02*
X031394Y024670D01*
X031275Y024789D02*
X030995Y024789D01*
X030995Y025250D02*
X030995Y025363D01*
X030978Y025380D01*
X030984Y025392D01*
X030995Y025433D01*
X030995Y025650D01*
X030600Y025650D01*
X030600Y025770D01*
X030995Y025770D01*
X030995Y025965D01*
X031513Y025965D01*
X031710Y025768D01*
X031833Y025645D01*
X031875Y025645D01*
X031850Y025621D01*
X031899Y025572D01*
X031899Y025572D01*
X031850Y025621D01*
X031802Y025572D01*
X031802Y025572D01*
X031660Y025431D01*
X031489Y025259D01*
X031489Y025258D01*
X031487Y025257D01*
X031447Y025218D01*
X031414Y025250D01*
X030995Y025250D01*
X030995Y025263D02*
X031492Y025263D01*
X031611Y025381D02*
X030978Y025381D01*
X030995Y025500D02*
X031729Y025500D01*
X031848Y025618D02*
X030995Y025618D01*
X030995Y025855D02*
X031623Y025855D01*
X031741Y025737D02*
X030600Y025737D01*
X030480Y025737D02*
X030108Y025737D01*
X030141Y025770D02*
X030480Y025770D01*
X030480Y025650D01*
X030085Y025650D01*
X030085Y025433D01*
X030096Y025392D01*
X030102Y025380D01*
X030085Y025363D01*
X030085Y024718D01*
X030178Y024625D01*
X030330Y024625D01*
X030330Y024402D01*
X030313Y024385D01*
X030247Y024319D01*
X030190Y024456D01*
X030070Y024576D01*
X030070Y024782D01*
X029947Y024905D01*
X029647Y025205D01*
X029167Y025205D01*
X029570Y025608D01*
X029570Y025779D01*
X029657Y025691D01*
X029789Y025637D01*
X029931Y025637D01*
X030063Y025691D01*
X030141Y025770D01*
X030085Y025618D02*
X029570Y025618D01*
X029570Y025737D02*
X029612Y025737D01*
X029462Y025500D02*
X030085Y025500D01*
X030102Y025381D02*
X029343Y025381D01*
X029225Y025263D02*
X030085Y025263D01*
X030085Y025144D02*
X029708Y025144D01*
X029826Y025026D02*
X030085Y025026D01*
X030085Y024907D02*
X029945Y024907D01*
X030063Y024789D02*
X030085Y024789D01*
X030070Y024670D02*
X030133Y024670D01*
X030094Y024552D02*
X030330Y024552D01*
X030330Y024433D02*
X030199Y024433D01*
X030313Y024385D02*
X030313Y024385D01*
X030610Y024078D02*
X031311Y024078D01*
X031213Y023959D02*
X030610Y023959D01*
X030610Y023841D02*
X030809Y023841D01*
X030690Y023722D02*
X030610Y023722D01*
X030610Y023604D02*
X030670Y023604D01*
X030670Y023485D02*
X030610Y023485D01*
X030610Y023367D02*
X030670Y023367D01*
X030670Y023248D02*
X030570Y023248D01*
X030658Y023130D02*
X030452Y023130D01*
X030539Y023011D02*
X030333Y023011D01*
X030421Y022893D02*
X029993Y022893D01*
X030126Y022774D02*
X030153Y022774D01*
X030748Y022419D02*
X030790Y022419D01*
X030691Y022300D02*
X030927Y022300D01*
X030808Y022182D02*
X030531Y022182D01*
X030690Y022063D02*
X029919Y022063D01*
X029877Y021945D02*
X030571Y021945D01*
X030453Y021826D02*
X030080Y021826D01*
X030170Y021708D02*
X030334Y021708D01*
X030269Y022182D02*
X030097Y022182D01*
X029500Y022182D02*
X029420Y022182D01*
X029420Y022300D02*
X029500Y022300D01*
X029500Y022419D02*
X029420Y022419D01*
X029420Y022455D02*
X029420Y022035D01*
X029124Y022035D01*
X029052Y022046D01*
X028983Y022069D01*
X028919Y022102D01*
X028860Y022144D01*
X028809Y022195D01*
X028767Y022254D01*
X028734Y022319D01*
X028711Y022387D01*
X028701Y022455D01*
X029420Y022455D01*
X029420Y022535D02*
X029420Y022925D01*
X029500Y022925D01*
X029500Y022535D01*
X029420Y022535D01*
X029420Y022537D02*
X029500Y022537D01*
X029500Y022656D02*
X029420Y022656D01*
X029420Y022774D02*
X029500Y022774D01*
X029500Y022893D02*
X029420Y022893D01*
X028927Y022893D02*
X027149Y022893D01*
X027218Y022774D02*
X028794Y022774D01*
X028728Y022656D02*
X027238Y022656D01*
X027219Y022537D02*
X028701Y022537D01*
X028706Y022419D02*
X027150Y022419D01*
X026959Y022300D02*
X028743Y022300D01*
X028823Y022182D02*
X026787Y022182D01*
X026801Y022300D02*
X026502Y022300D01*
X026493Y022182D02*
X026384Y022182D01*
X026342Y022063D02*
X026265Y022063D01*
X026289Y021945D02*
X026147Y021945D01*
X026282Y021826D02*
X023133Y021826D01*
X023158Y021708D02*
X026313Y021708D01*
X026400Y021589D02*
X023144Y021589D01*
X022991Y021352D02*
X022908Y021352D01*
X022800Y021695D02*
X022498Y021695D01*
X022312Y021775D02*
X022232Y021695D01*
X021200Y021695D01*
X021457Y021945D02*
X022110Y021945D01*
X022708Y022063D02*
X024855Y022063D01*
X024973Y021945D02*
X023057Y021945D01*
X022708Y022182D02*
X024736Y022182D01*
X024618Y022300D02*
X022708Y022300D01*
X022708Y022419D02*
X024499Y022419D01*
X024381Y022537D02*
X022708Y022537D01*
X022708Y022656D02*
X024262Y022656D01*
X024144Y022774D02*
X022708Y022774D01*
X022708Y022893D02*
X024025Y022893D01*
X023907Y023011D02*
X022733Y023011D01*
X022852Y023130D02*
X023739Y023130D01*
X023665Y023248D02*
X022970Y023248D01*
X023089Y023367D02*
X023642Y023367D01*
X023658Y023485D02*
X023207Y023485D01*
X023326Y023604D02*
X023722Y023604D01*
X023902Y023722D02*
X023444Y023722D01*
X023563Y023841D02*
X024225Y023841D01*
X024225Y023722D02*
X024098Y023722D01*
X023985Y023959D02*
X024241Y023959D01*
X024225Y024078D02*
X024149Y024078D01*
X023635Y024907D02*
X018050Y024907D01*
X018839Y024433D02*
X023161Y024433D01*
X023043Y024315D02*
X018957Y024315D01*
X018080Y022975D02*
X017474Y022975D01*
X017434Y023015D01*
X017850Y022656D02*
X017915Y022656D01*
X016686Y023015D02*
X016646Y023055D01*
X016270Y022774D02*
X016220Y022774D01*
X016220Y022656D02*
X016270Y022656D01*
X015200Y022656D02*
X014915Y022656D01*
X014915Y022600D02*
X014915Y022817D01*
X014904Y022858D01*
X014898Y022870D01*
X014915Y022888D01*
X014915Y023532D01*
X014910Y023537D01*
X014931Y023537D01*
X015063Y023591D01*
X015164Y023692D01*
X015200Y023780D01*
X015200Y021314D01*
X014915Y021030D01*
X014915Y021483D01*
X014898Y021500D01*
X014904Y021512D01*
X014915Y021553D01*
X014915Y021770D01*
X014520Y021770D01*
X014520Y021890D01*
X014400Y021890D01*
X014400Y022480D01*
X014520Y022480D01*
X014520Y022125D01*
X014520Y021890D01*
X014915Y021890D01*
X014915Y022107D01*
X014904Y022147D01*
X014883Y022184D01*
X014882Y022185D01*
X014883Y022186D01*
X014904Y022223D01*
X014915Y022263D01*
X014915Y022480D01*
X014520Y022480D01*
X014520Y022600D01*
X014915Y022600D01*
X014915Y022774D02*
X015200Y022774D01*
X015200Y022893D02*
X014915Y022893D01*
X014915Y023011D02*
X015200Y023011D01*
X015200Y023130D02*
X014915Y023130D01*
X014915Y023248D02*
X015200Y023248D01*
X015200Y023367D02*
X014915Y023367D01*
X014915Y023485D02*
X015200Y023485D01*
X015200Y023604D02*
X015075Y023604D01*
X015176Y023722D02*
X015200Y023722D01*
X015200Y024078D02*
X015172Y024078D01*
X015200Y024196D02*
X015065Y024196D01*
X015057Y024315D02*
X015200Y024315D01*
X015200Y024433D02*
X015057Y024433D01*
X014804Y025618D02*
X014529Y025618D01*
X016511Y025855D02*
X016601Y025855D01*
X016543Y025737D02*
X016736Y025737D01*
X016610Y025618D02*
X016968Y025618D01*
X016622Y025500D02*
X017405Y025500D01*
X017560Y025475D02*
X017560Y025475D01*
X017286Y025144D02*
X017234Y025144D01*
X015200Y022537D02*
X014520Y022537D01*
X014520Y022419D02*
X014400Y022419D01*
X014400Y022480D02*
X013780Y022480D01*
X013780Y022600D01*
X014005Y022600D01*
X014400Y022600D01*
X014400Y022480D01*
X014400Y022537D02*
X013780Y022537D01*
X013780Y022419D02*
X013660Y022419D01*
X013660Y022300D02*
X013780Y022300D01*
X013780Y022182D02*
X013660Y022182D01*
X013660Y022063D02*
X013780Y022063D01*
X013780Y021945D02*
X013660Y021945D01*
X013780Y021890D02*
X014005Y021890D01*
X014400Y021890D01*
X014400Y021770D01*
X013780Y021770D01*
X013780Y021890D01*
X013780Y021826D02*
X014400Y021826D01*
X014400Y021945D02*
X014520Y021945D01*
X014520Y022063D02*
X014400Y022063D01*
X014400Y022182D02*
X014520Y022182D01*
X014520Y022300D02*
X014400Y022300D01*
X014520Y021826D02*
X015200Y021826D01*
X015200Y021708D02*
X014915Y021708D01*
X014915Y021589D02*
X015200Y021589D01*
X015200Y021471D02*
X014915Y021471D01*
X014915Y021352D02*
X015200Y021352D01*
X015119Y021234D02*
X014915Y021234D01*
X014915Y021115D02*
X015001Y021115D01*
X014860Y020760D02*
X014837Y020760D01*
X014755Y020641D02*
X014510Y020641D01*
X014520Y020523D02*
X014680Y020523D01*
X014640Y020404D02*
X014560Y020404D01*
X014560Y020286D02*
X014640Y020286D01*
X014640Y020167D02*
X014560Y020167D01*
X014560Y020049D02*
X014640Y020049D01*
X014640Y019930D02*
X014560Y019930D01*
X014560Y019812D02*
X014640Y019812D01*
X014640Y019693D02*
X014560Y019693D01*
X014531Y019575D02*
X014669Y019575D01*
X014728Y019456D02*
X014490Y019456D01*
X014490Y019338D02*
X014858Y019338D01*
X015053Y019219D02*
X014490Y019219D01*
X014490Y019101D02*
X014934Y019101D01*
X014816Y018982D02*
X014490Y018982D01*
X014444Y018864D02*
X014697Y018864D01*
X014579Y018745D02*
X014350Y018745D01*
X014460Y018627D02*
X014231Y018627D01*
X014342Y018508D02*
X014113Y018508D01*
X012925Y021826D02*
X012835Y021826D01*
X012835Y021945D02*
X012925Y021945D01*
X012925Y022063D02*
X012835Y022063D01*
X012835Y022182D02*
X012925Y022182D01*
X012925Y022300D02*
X012835Y022300D01*
X012835Y022419D02*
X012925Y022419D01*
X014885Y022182D02*
X015200Y022182D01*
X015200Y022300D02*
X014915Y022300D01*
X014915Y022419D02*
X015200Y022419D01*
X015200Y022063D02*
X014915Y022063D01*
X014915Y021945D02*
X015200Y021945D01*
X009897Y025737D02*
X009580Y025737D01*
X009630Y025855D02*
X009775Y025855D01*
X009770Y025974D02*
X009630Y025974D01*
X009630Y026211D02*
X009770Y026211D01*
X009770Y026329D02*
X009630Y026329D01*
X009607Y026448D02*
X009776Y026448D01*
X009726Y026566D02*
X009714Y026566D01*
X008978Y026566D02*
X005870Y026566D01*
X005870Y026685D02*
X008374Y026685D01*
X008252Y026803D02*
X005870Y026803D01*
X005870Y026922D02*
X008203Y026922D01*
X008202Y027040D02*
X005870Y027040D01*
X005870Y027159D02*
X008240Y027159D01*
X008336Y027277D02*
X005870Y027277D01*
X005870Y027396D02*
X008949Y027396D01*
X008930Y027277D02*
X008784Y027277D01*
X008744Y027514D02*
X006456Y027514D01*
X006500Y027633D02*
X008700Y027633D01*
X008700Y028101D02*
X006500Y028101D01*
X006500Y028203D01*
X006406Y028297D01*
X005870Y028297D01*
X005870Y030868D01*
X006091Y030574D01*
X006091Y030574D01*
X006761Y029898D01*
X006761Y029898D01*
X007517Y029320D01*
X007517Y029320D01*
X008345Y028850D01*
X008345Y028850D01*
X009113Y028545D01*
X009073Y028505D01*
X008950Y028382D01*
X008950Y028297D01*
X008794Y028297D01*
X008700Y028203D01*
X008700Y028101D01*
X008700Y028107D02*
X006500Y028107D01*
X006478Y028225D02*
X008722Y028225D01*
X008950Y028344D02*
X005870Y028344D01*
X005870Y028462D02*
X009030Y028462D01*
X009023Y028581D02*
X005870Y028581D01*
X005870Y028699D02*
X008725Y028699D01*
X008428Y028818D02*
X005870Y028818D01*
X005870Y028936D02*
X008194Y028936D01*
X007985Y029055D02*
X005870Y029055D01*
X005870Y029173D02*
X007776Y029173D01*
X007567Y029292D02*
X005870Y029292D01*
X005870Y029410D02*
X007399Y029410D01*
X007244Y029529D02*
X005870Y029529D01*
X005870Y029647D02*
X007089Y029647D01*
X006934Y029766D02*
X005870Y029766D01*
X005870Y029884D02*
X006779Y029884D01*
X006657Y030003D02*
X005870Y030003D01*
X005870Y030121D02*
X006540Y030121D01*
X006422Y030240D02*
X005870Y030240D01*
X005870Y030358D02*
X006305Y030358D01*
X006187Y030477D02*
X005870Y030477D01*
X005870Y030595D02*
X006075Y030595D01*
X005986Y030714D02*
X005870Y030714D01*
X005870Y030832D02*
X005897Y030832D01*
X006035Y027881D02*
X009165Y027881D01*
X009630Y027870D02*
X009770Y027870D01*
X009770Y027988D02*
X009630Y027988D01*
X009630Y028107D02*
X009770Y028107D01*
X009770Y028225D02*
X009608Y028225D01*
X009630Y028203D02*
X009548Y028285D01*
X009812Y028285D01*
X009770Y028243D01*
X009770Y027599D01*
X009864Y027505D01*
X010606Y027505D01*
X010700Y027599D01*
X010700Y028212D01*
X011101Y028170D01*
X011568Y028185D01*
X012514Y028185D01*
X012549Y028176D01*
X012615Y028185D01*
X012681Y028185D01*
X012714Y028199D01*
X012900Y028224D01*
X012900Y028131D01*
X012699Y028131D01*
X012521Y027953D01*
X012389Y027953D01*
X012257Y027899D01*
X012156Y027798D01*
X012102Y027666D01*
X012102Y027534D01*
X011773Y027205D01*
X010510Y027205D01*
X010510Y027376D01*
X010416Y027470D01*
X009772Y027470D01*
X009720Y027418D01*
X009668Y027470D01*
X009541Y027470D01*
X009630Y027559D01*
X009630Y028203D01*
X009630Y027751D02*
X009770Y027751D01*
X009770Y027633D02*
X009630Y027633D01*
X009585Y027514D02*
X009855Y027514D01*
X010491Y027396D02*
X011964Y027396D01*
X012082Y027514D02*
X010616Y027514D01*
X010700Y027633D02*
X012102Y027633D01*
X012137Y027751D02*
X010700Y027751D01*
X010700Y027870D02*
X012228Y027870D01*
X012556Y027988D02*
X010700Y027988D01*
X010700Y028107D02*
X012675Y028107D01*
X011845Y027277D02*
X010510Y027277D01*
X011101Y028170D02*
X011101Y028170D01*
X008930Y026685D02*
X008746Y026685D01*
X008923Y025618D02*
X005870Y025618D01*
X005975Y025737D02*
X006095Y025737D01*
X006095Y025855D02*
X005975Y025855D01*
X005975Y025974D02*
X006095Y025974D01*
X007369Y025026D02*
X007489Y025026D01*
X007489Y024907D02*
X007369Y024907D01*
X007369Y024789D02*
X007489Y024789D01*
X007489Y024670D02*
X007369Y024670D01*
X007884Y025263D02*
X008986Y025263D01*
X008920Y025381D02*
X007884Y025381D01*
X007857Y025500D02*
X008902Y025500D01*
X006880Y021961D02*
X006880Y021815D01*
X006560Y021495D01*
X006560Y020795D01*
X006340Y021471D02*
X005870Y021471D01*
X005870Y021589D02*
X006343Y021589D01*
X006060Y021708D02*
X005940Y021708D01*
X005940Y021826D02*
X006060Y021826D01*
X006060Y021945D02*
X005940Y021945D01*
X012780Y013294D02*
X014053Y013294D01*
X013982Y013176D02*
X012672Y013176D01*
X012620Y013057D02*
X013962Y013057D01*
X013981Y012939D02*
X012620Y012939D01*
X012620Y012820D02*
X014049Y012820D01*
X014100Y012702D02*
X012620Y012702D01*
X014320Y012415D02*
X014880Y011855D01*
X014320Y012415D02*
X014320Y013055D01*
X017021Y013650D02*
X017939Y013650D01*
X017888Y013768D02*
X017699Y013768D01*
X017774Y013887D02*
X017882Y013887D01*
X017873Y014005D02*
X017798Y014005D01*
X017833Y014045D02*
X017833Y014045D01*
X017181Y013768D02*
X017118Y013768D01*
X016761Y010450D02*
X018140Y010450D01*
X018122Y010332D02*
X016879Y010332D01*
X016998Y010213D02*
X018143Y010213D01*
X018214Y010095D02*
X017116Y010095D01*
X010094Y010450D02*
X009930Y010450D01*
X009930Y010569D02*
X010094Y010569D01*
X010094Y010687D02*
X009930Y010687D01*
X009930Y010806D02*
X010094Y010806D01*
X010094Y010924D02*
X009930Y010924D01*
X009930Y011043D02*
X010094Y011043D01*
X010094Y011161D02*
X009930Y011161D01*
X009930Y011280D02*
X010094Y011280D01*
X010094Y011398D02*
X009930Y011398D01*
X009930Y011517D02*
X010094Y011517D01*
X010094Y011635D02*
X009930Y011635D01*
X009930Y011754D02*
X010094Y011754D01*
X010094Y011872D02*
X009930Y011872D01*
X009110Y011872D02*
X008137Y011872D01*
X008168Y011991D02*
X009110Y011991D01*
X009110Y012109D02*
X008187Y012109D01*
X008187Y012228D02*
X009110Y012228D01*
X009110Y012346D02*
X008181Y012346D01*
X008149Y012465D02*
X009110Y012465D01*
X009110Y012583D02*
X008117Y012583D01*
X008049Y012702D02*
X009110Y012702D01*
X009110Y012820D02*
X007977Y012820D01*
X007859Y012939D02*
X009110Y012939D01*
X009110Y013057D02*
X007699Y013057D01*
X008090Y011754D02*
X009110Y011754D01*
X009110Y011635D02*
X008022Y011635D01*
X007930Y011517D02*
X009110Y011517D01*
X009110Y011398D02*
X007973Y011398D01*
X008091Y011280D02*
X009110Y011280D01*
X009110Y011161D02*
X008210Y011161D01*
X008328Y011043D02*
X008527Y011043D01*
X008913Y011043D02*
X009110Y011043D01*
X009110Y010924D02*
X009029Y010924D01*
X009078Y010806D02*
X009110Y010806D01*
X009110Y010687D02*
X009078Y010687D01*
X009110Y010569D02*
X009039Y010569D01*
X008011Y010569D02*
X007520Y010569D01*
X007520Y010687D02*
X007892Y010687D01*
X007774Y010806D02*
X007517Y010806D01*
X007488Y010924D02*
X007655Y010924D01*
X007973Y009265D02*
X008767Y009265D01*
X008681Y009147D02*
X008059Y009147D01*
X008108Y009028D02*
X008632Y009028D01*
X008630Y008910D02*
X008110Y008910D01*
X008110Y008791D02*
X008630Y008791D01*
X008630Y008673D02*
X008110Y008673D01*
X008110Y008554D02*
X008630Y008554D01*
X008630Y008436D02*
X008110Y008436D01*
X008110Y008317D02*
X008630Y008317D01*
X008630Y008199D02*
X008110Y008199D01*
X008074Y008080D02*
X008666Y008080D01*
X008731Y007962D02*
X008009Y007962D01*
X024734Y013413D02*
X024910Y013413D01*
X024910Y013531D02*
X024853Y013531D01*
X025810Y013531D02*
X029323Y013531D01*
X029229Y013650D02*
X025810Y013650D01*
X025810Y013768D02*
X029180Y013768D01*
X029177Y013887D02*
X025810Y013887D01*
X025810Y014005D02*
X029197Y014005D01*
X029246Y014124D02*
X025810Y014124D01*
X025810Y014242D02*
X029363Y014242D01*
X029680Y014479D02*
X025810Y014479D01*
X025810Y014361D02*
X029799Y014361D01*
X029562Y014598D02*
X025840Y014598D01*
X025958Y014716D02*
X029443Y014716D01*
X029367Y014835D02*
X026050Y014835D01*
X026190Y014953D02*
X029354Y014953D01*
X029354Y015072D02*
X026363Y015072D01*
X026424Y015190D02*
X029354Y015190D01*
X029354Y015309D02*
X026438Y015309D01*
X026413Y015427D02*
X029354Y015427D01*
X029354Y015546D02*
X026336Y015546D01*
X026149Y015664D02*
X029354Y015664D01*
X029354Y015783D02*
X026198Y015783D01*
X026198Y015901D02*
X029354Y015901D01*
X029354Y016020D02*
X026159Y016020D01*
X026063Y016138D02*
X029354Y016138D01*
X029354Y016257D02*
X025545Y016257D01*
X025238Y016375D02*
X029354Y016375D01*
X029354Y016494D02*
X025235Y016494D01*
X025186Y016612D02*
X029354Y016612D01*
X029354Y016731D02*
X025054Y016731D01*
X025013Y016849D02*
X029354Y016849D01*
X029354Y016968D02*
X025132Y016968D01*
X025250Y017086D02*
X029354Y017086D01*
X029354Y017205D02*
X025342Y017205D01*
X025360Y017323D02*
X029354Y017323D01*
X029350Y017442D02*
X025360Y017442D01*
X025360Y017560D02*
X029240Y017560D01*
X029191Y017679D02*
X025360Y017679D01*
X025360Y017797D02*
X029177Y017797D01*
X029186Y017916D02*
X025360Y017916D01*
X025360Y018034D02*
X029235Y018034D01*
X029337Y018153D02*
X025360Y018153D01*
X025360Y018271D02*
X031470Y018271D01*
X031470Y018153D02*
X029931Y018153D01*
X030033Y018034D02*
X031470Y018034D01*
X031470Y017916D02*
X030082Y017916D01*
X030091Y017797D02*
X031470Y017797D01*
X031470Y017679D02*
X030076Y017679D01*
X030027Y017560D02*
X031470Y017560D01*
X031470Y017442D02*
X029918Y017442D01*
X029914Y017323D02*
X031470Y017323D01*
X031470Y017205D02*
X029914Y017205D01*
X029914Y017086D02*
X031470Y017086D01*
X031470Y016968D02*
X029914Y016968D01*
X029914Y016849D02*
X031470Y016849D01*
X031470Y016731D02*
X029914Y016731D01*
X029914Y016612D02*
X031470Y016612D01*
X031470Y016494D02*
X029914Y016494D01*
X029914Y016375D02*
X031470Y016375D01*
X031470Y016257D02*
X029914Y016257D01*
X029914Y016138D02*
X031470Y016138D01*
X031470Y016020D02*
X029914Y016020D01*
X029914Y015901D02*
X031577Y015901D01*
X031695Y015783D02*
X029914Y015783D01*
X029914Y015664D02*
X031814Y015664D01*
X031932Y015546D02*
X029914Y015546D01*
X029914Y015427D02*
X032051Y015427D01*
X032300Y015309D02*
X029914Y015309D01*
X029914Y015190D02*
X038950Y015190D01*
X038950Y015072D02*
X029914Y015072D01*
X029998Y014953D02*
X038950Y014953D01*
X038950Y014835D02*
X030116Y014835D01*
X030235Y014716D02*
X038950Y014716D01*
X038950Y014598D02*
X032573Y014598D01*
X032692Y014479D02*
X038950Y014479D01*
X038950Y014361D02*
X032810Y014361D01*
X032929Y014242D02*
X038950Y014242D01*
X038950Y014124D02*
X033047Y014124D01*
X033166Y014005D02*
X038950Y014005D01*
X038950Y013887D02*
X033284Y013887D01*
X033403Y013768D02*
X038950Y013768D01*
X038950Y013650D02*
X033521Y013650D01*
X033640Y013531D02*
X038950Y013531D01*
X038950Y013413D02*
X033758Y013413D01*
X033800Y013294D02*
X037538Y013294D01*
X037571Y013303D02*
X037314Y013234D01*
X037084Y013101D01*
X036895Y012913D01*
X036762Y012682D01*
X036693Y012425D01*
X036693Y012159D01*
X036762Y011901D01*
X036895Y011671D01*
X037084Y011483D01*
X037314Y011350D01*
X037571Y011281D01*
X037838Y011281D01*
X038095Y011350D01*
X038325Y011483D01*
X038514Y011671D01*
X038647Y011901D01*
X038716Y012159D01*
X038716Y012425D01*
X038647Y012682D01*
X038514Y012913D01*
X038325Y013101D01*
X038095Y013234D01*
X037838Y013303D01*
X037571Y013303D01*
X037871Y013294D02*
X038950Y013294D01*
X038950Y013176D02*
X038196Y013176D01*
X038369Y013057D02*
X038950Y013057D01*
X038950Y012939D02*
X038488Y012939D01*
X038567Y012820D02*
X038950Y012820D01*
X038950Y012702D02*
X038636Y012702D01*
X038673Y012583D02*
X038950Y012583D01*
X038950Y012465D02*
X038705Y012465D01*
X038716Y012346D02*
X038950Y012346D01*
X038950Y012228D02*
X038716Y012228D01*
X038702Y012109D02*
X038950Y012109D01*
X038950Y011991D02*
X038671Y011991D01*
X038630Y011872D02*
X038950Y011872D01*
X038950Y011754D02*
X038561Y011754D01*
X038478Y011635D02*
X038950Y011635D01*
X038950Y011517D02*
X038359Y011517D01*
X038179Y011398D02*
X038950Y011398D01*
X038950Y011280D02*
X034310Y011280D01*
X034310Y011376D02*
X034310Y010915D01*
X032940Y010915D01*
X032940Y010795D01*
X032940Y010195D01*
X034171Y010195D01*
X034212Y010206D01*
X034248Y010227D01*
X034278Y010257D01*
X034299Y010293D01*
X034310Y010334D01*
X034310Y010795D01*
X032940Y010795D01*
X032820Y010795D01*
X032820Y010195D01*
X031589Y010195D01*
X031548Y010206D01*
X031512Y010227D01*
X031482Y010257D01*
X031461Y010293D01*
X031450Y010334D01*
X031450Y010795D01*
X032820Y010795D01*
X032820Y010915D01*
X031450Y010915D01*
X031450Y011376D01*
X031461Y011417D01*
X031482Y011453D01*
X031512Y011483D01*
X031548Y011504D01*
X031589Y011515D01*
X032820Y011515D01*
X032820Y010915D01*
X032940Y010915D01*
X032940Y011515D01*
X034171Y011515D01*
X034212Y011504D01*
X034248Y011483D01*
X034278Y011453D01*
X034299Y011417D01*
X034310Y011376D01*
X034304Y011398D02*
X037230Y011398D01*
X037050Y011517D02*
X029400Y011517D01*
X029400Y011635D02*
X034605Y011635D01*
X034835Y011635D02*
X036931Y011635D01*
X036848Y011754D02*
X035005Y011754D01*
X035065Y011872D02*
X036779Y011872D01*
X036738Y011991D02*
X035078Y011991D01*
X035052Y012109D02*
X036707Y012109D01*
X036693Y012228D02*
X034974Y012228D01*
X034660Y012346D02*
X036693Y012346D01*
X036704Y012465D02*
X034507Y012465D01*
X034420Y012583D02*
X036736Y012583D01*
X036774Y012702D02*
X033740Y012702D01*
X033775Y012820D02*
X036842Y012820D01*
X036921Y012939D02*
X033800Y012939D01*
X033800Y013057D02*
X037040Y013057D01*
X037213Y013176D02*
X033800Y013176D01*
X033520Y012935D02*
X033520Y012135D01*
X033776Y012135D02*
X033776Y012135D01*
X033776Y011679D01*
X033776Y012135D01*
X033776Y012109D02*
X033776Y012109D01*
X033776Y011991D02*
X033776Y011991D01*
X033776Y011872D02*
X033776Y011872D01*
X033776Y011754D02*
X033776Y011754D01*
X034032Y011754D02*
X034032Y011754D01*
X034032Y011872D02*
X034032Y011872D01*
X034032Y011991D02*
X034032Y011991D01*
X034032Y012109D02*
X034032Y012109D01*
X034032Y012228D02*
X034032Y012228D01*
X034032Y012346D02*
X034032Y012346D01*
X034032Y012465D02*
X034032Y012465D01*
X034032Y012583D02*
X034032Y012583D01*
X034137Y012583D02*
X034155Y012583D01*
X033926Y012583D02*
X033881Y012583D01*
X033776Y012583D02*
X033776Y012583D01*
X033776Y012465D02*
X033776Y012465D01*
X033776Y012346D02*
X033776Y012346D01*
X033776Y012228D02*
X033776Y012228D01*
X033264Y012228D02*
X033264Y012228D01*
X033264Y012135D02*
X033264Y012590D01*
X033264Y012135D01*
X033264Y012135D01*
X033264Y011679D01*
X033264Y012135D01*
X033264Y012135D01*
X033264Y012109D02*
X033264Y012109D01*
X033264Y011991D02*
X033264Y011991D01*
X033264Y011872D02*
X033264Y011872D01*
X033264Y011754D02*
X033264Y011754D01*
X033008Y012135D02*
X033008Y013207D01*
X033228Y013111D02*
X033240Y013139D01*
X033240Y012879D01*
X033283Y012776D01*
X033300Y012759D01*
X033300Y012590D01*
X033264Y012590D01*
X033228Y012590D01*
X033228Y013111D01*
X033240Y013139D02*
X033240Y013139D01*
X033228Y013057D02*
X033240Y013057D01*
X033228Y012939D02*
X033240Y012939D01*
X033228Y012820D02*
X033265Y012820D01*
X033228Y012702D02*
X033300Y012702D01*
X033264Y012583D02*
X033264Y012583D01*
X033264Y012465D02*
X033264Y012465D01*
X033264Y012346D02*
X033264Y012346D01*
X032752Y012135D02*
X032752Y012823D01*
X032532Y012702D02*
X032460Y012702D01*
X032496Y012583D02*
X032496Y012583D01*
X032496Y012465D02*
X032496Y012465D01*
X032496Y012346D02*
X032496Y012346D01*
X032496Y012228D02*
X032496Y012228D01*
X032496Y012109D02*
X032496Y012109D01*
X032496Y011991D02*
X032496Y011991D01*
X032496Y011872D02*
X032496Y011872D01*
X032496Y011754D02*
X032496Y011754D01*
X032240Y012135D02*
X032240Y012855D01*
X031253Y011872D02*
X030323Y011872D01*
X030151Y011754D02*
X031273Y011754D01*
X031456Y011398D02*
X029400Y011398D01*
X029400Y011280D02*
X031450Y011280D01*
X031450Y011161D02*
X029400Y011161D01*
X029400Y011043D02*
X031450Y011043D01*
X031450Y010924D02*
X029400Y010924D01*
X029467Y010840D02*
X029437Y010810D01*
X029416Y010774D01*
X029405Y010733D01*
X029405Y010181D01*
X029820Y010181D01*
X029820Y010061D01*
X029940Y010061D01*
X029940Y010181D01*
X030355Y010181D01*
X030355Y010733D01*
X030344Y010774D01*
X030323Y010810D01*
X030293Y010840D01*
X030257Y010861D01*
X030216Y010872D01*
X029940Y010872D01*
X029940Y010181D01*
X029820Y010181D01*
X029820Y010872D01*
X029544Y010872D01*
X029503Y010861D01*
X029467Y010840D01*
X029434Y010806D02*
X029400Y010806D01*
X029400Y010687D02*
X029405Y010687D01*
X029400Y010569D02*
X029405Y010569D01*
X029400Y010450D02*
X029405Y010450D01*
X029400Y010332D02*
X029405Y010332D01*
X029400Y010213D02*
X029405Y010213D01*
X029355Y010095D02*
X029820Y010095D01*
X029820Y010061D02*
X029405Y010061D01*
X029405Y009510D01*
X029416Y009469D01*
X029437Y009432D01*
X029467Y009403D01*
X029503Y009382D01*
X029544Y009371D01*
X029820Y009371D01*
X029820Y010061D01*
X029820Y009976D02*
X029940Y009976D01*
X029940Y009858D02*
X029820Y009858D01*
X029820Y009739D02*
X029940Y009739D01*
X029940Y009621D02*
X029820Y009621D01*
X029820Y009502D02*
X029940Y009502D01*
X029940Y009384D02*
X029820Y009384D01*
X029702Y009147D02*
X030330Y009147D01*
X030355Y009028D02*
X030445Y009028D01*
X030355Y008910D02*
X031134Y008910D01*
X031134Y008791D02*
X030355Y008791D01*
X030355Y008673D02*
X031134Y008673D01*
X031134Y008554D02*
X030355Y008554D01*
X030355Y008436D02*
X031134Y008436D01*
X031134Y008317D02*
X030355Y008317D01*
X030835Y009028D02*
X031030Y009028D01*
X030282Y009265D02*
X029552Y009265D01*
X029500Y009384D02*
X028644Y009384D01*
X028763Y009502D02*
X029407Y009502D01*
X029405Y009621D02*
X028881Y009621D01*
X029000Y009739D02*
X029405Y009739D01*
X029405Y009858D02*
X029118Y009858D01*
X029237Y009976D02*
X029405Y009976D01*
X029820Y010213D02*
X029940Y010213D01*
X029940Y010095D02*
X030813Y010095D01*
X030719Y009976D02*
X030355Y009976D01*
X030355Y009858D02*
X030682Y009858D01*
X030684Y009739D02*
X030355Y009739D01*
X030355Y009621D02*
X030419Y009621D01*
X030282Y009384D02*
X030260Y009384D01*
X030355Y010213D02*
X031536Y010213D01*
X031451Y010332D02*
X030355Y010332D01*
X030355Y010450D02*
X031450Y010450D01*
X031450Y010569D02*
X030355Y010569D01*
X030355Y010687D02*
X031450Y010687D01*
X032120Y010815D02*
X032160Y010855D01*
X032400Y010855D01*
X032560Y010855D01*
X032820Y010806D02*
X030326Y010806D01*
X029940Y010806D02*
X029820Y010806D01*
X029820Y010687D02*
X029940Y010687D01*
X029940Y010569D02*
X029820Y010569D01*
X029820Y010450D02*
X029940Y010450D01*
X029940Y010332D02*
X029820Y010332D01*
X031267Y010095D02*
X037055Y010095D01*
X037006Y010213D02*
X034224Y010213D01*
X034309Y010332D02*
X037002Y010332D01*
X037037Y010450D02*
X034310Y010450D01*
X034310Y010569D02*
X037127Y010569D01*
X037593Y010569D02*
X038950Y010569D01*
X038950Y010687D02*
X034310Y010687D01*
X034310Y010924D02*
X038950Y010924D01*
X038950Y010806D02*
X032940Y010806D01*
X032940Y010924D02*
X032820Y010924D01*
X032820Y011043D02*
X032940Y011043D01*
X032940Y011161D02*
X032820Y011161D01*
X032820Y011280D02*
X032940Y011280D01*
X032940Y011398D02*
X032820Y011398D01*
X033264Y010919D02*
X033328Y010855D01*
X033360Y010855D01*
X033520Y010855D01*
X033520Y010855D01*
X033600Y010855D01*
X034032Y011287D01*
X034310Y011161D02*
X038950Y011161D01*
X038950Y011043D02*
X034310Y011043D01*
X033520Y010615D02*
X033520Y009576D01*
X033520Y009120D01*
X033520Y009576D01*
X033520Y009576D01*
X033520Y009621D02*
X033520Y009621D01*
X033520Y009739D02*
X033520Y009739D01*
X033520Y009858D02*
X033520Y009858D01*
X033520Y009976D02*
X033520Y009976D01*
X033776Y009576D02*
X034032Y009576D01*
X034287Y009576D01*
X034507Y009621D02*
X035046Y009621D01*
X035046Y009739D02*
X034507Y009739D01*
X034507Y009858D02*
X035122Y009858D01*
X035107Y009849D02*
X035078Y009819D01*
X035057Y009783D01*
X035046Y009742D01*
X035046Y009466D01*
X035500Y009466D01*
X035500Y009881D01*
X035185Y009881D01*
X035144Y009870D01*
X035107Y009849D01*
X035046Y009502D02*
X034507Y009502D01*
X034507Y009384D02*
X035500Y009384D01*
X035500Y009502D02*
X035620Y009502D01*
X035620Y009384D02*
X036400Y009384D01*
X036400Y009502D02*
X036520Y009502D01*
X036520Y009621D02*
X036400Y009621D01*
X036400Y009739D02*
X036520Y009739D01*
X036520Y009858D02*
X036400Y009858D01*
X036022Y009858D02*
X035998Y009858D01*
X035620Y009858D02*
X035500Y009858D01*
X035500Y009739D02*
X035620Y009739D01*
X035620Y009621D02*
X035500Y009621D01*
X035500Y009265D02*
X035620Y009265D01*
X035620Y009147D02*
X035500Y009147D01*
X035500Y009028D02*
X035620Y009028D01*
X035166Y008910D02*
X038950Y008910D01*
X038950Y009028D02*
X038074Y009028D01*
X038074Y009147D02*
X038950Y009147D01*
X038950Y009265D02*
X038074Y009265D01*
X038074Y009384D02*
X038950Y009384D01*
X038950Y009502D02*
X038074Y009502D01*
X038074Y009621D02*
X038950Y009621D01*
X038950Y009739D02*
X038074Y009739D01*
X038004Y009858D02*
X038950Y009858D01*
X038950Y009976D02*
X037730Y009976D01*
X037730Y010095D02*
X038950Y010095D01*
X038950Y010213D02*
X037730Y010213D01*
X037718Y010332D02*
X038950Y010332D01*
X038950Y010450D02*
X037683Y010450D01*
X037194Y009976D02*
X034468Y009976D01*
X034507Y009265D02*
X035046Y009265D01*
X035046Y009147D02*
X034439Y009147D01*
X034355Y009089D02*
X034631Y009089D01*
X034631Y008635D01*
X034216Y008635D01*
X034216Y008950D01*
X034227Y008991D01*
X034248Y009028D01*
X034278Y009057D01*
X034314Y009079D01*
X034355Y009089D01*
X034249Y009028D02*
X034031Y009028D01*
X034064Y008910D02*
X034216Y008910D01*
X034216Y008791D02*
X034064Y008791D01*
X034064Y008673D02*
X034216Y008673D01*
X034064Y008554D02*
X034631Y008554D01*
X034631Y008673D02*
X034751Y008673D01*
X034751Y008791D02*
X034631Y008791D01*
X034631Y008910D02*
X034751Y008910D01*
X034751Y009028D02*
X034631Y009028D01*
X035166Y008791D02*
X038950Y008791D01*
X038950Y008673D02*
X038074Y008673D01*
X038074Y008554D02*
X038950Y008554D01*
X038950Y008436D02*
X038074Y008436D01*
X038074Y008317D02*
X038950Y008317D01*
X038950Y008199D02*
X038074Y008199D01*
X038074Y008080D02*
X038945Y008080D01*
X038950Y007962D02*
X038074Y007962D01*
X036966Y009028D02*
X036963Y009028D01*
X036520Y009028D02*
X036400Y009028D01*
X036400Y009147D02*
X036520Y009147D01*
X036520Y009265D02*
X036400Y009265D01*
X036898Y009858D02*
X037036Y009858D01*
X034720Y011975D02*
X034560Y012135D01*
X034287Y012135D01*
X033120Y010775D02*
X033040Y010695D01*
X032940Y010687D02*
X032820Y010687D01*
X032820Y010569D02*
X032940Y010569D01*
X032940Y010450D02*
X032820Y010450D01*
X032820Y010332D02*
X032940Y010332D01*
X032940Y010213D02*
X032820Y010213D01*
X032752Y009576D02*
X032752Y008496D01*
X032711Y008555D01*
X033008Y008752D01*
X033008Y009576D01*
X033520Y009502D02*
X033520Y009502D01*
X033520Y009384D02*
X033520Y009384D01*
X033520Y009265D02*
X033520Y009265D01*
X033520Y009147D02*
X033520Y009147D01*
X034064Y008436D02*
X034216Y008436D01*
X034216Y008317D02*
X034064Y008317D01*
X031988Y009120D02*
X031973Y009105D01*
X031937Y009069D01*
X031931Y009069D01*
X031938Y009077D01*
X031938Y009120D01*
X031984Y009120D01*
X031984Y009576D01*
X031984Y010031D01*
X031984Y009576D01*
X031984Y009576D01*
X031984Y009576D01*
X031984Y009120D01*
X031988Y009120D01*
X031973Y009105D02*
X031973Y009105D01*
X031984Y009147D02*
X031984Y009147D01*
X031984Y009265D02*
X031984Y009265D01*
X031984Y009384D02*
X031984Y009384D01*
X031984Y009502D02*
X031984Y009502D01*
X031984Y009621D02*
X031984Y009621D01*
X031984Y009739D02*
X031984Y009739D01*
X031984Y009858D02*
X031984Y009858D01*
X031984Y009976D02*
X031984Y009976D01*
X029929Y011754D02*
X029514Y011754D01*
X029633Y011872D02*
X029757Y011872D01*
X028952Y012583D02*
X025810Y012583D01*
X025810Y012465D02*
X028834Y012465D01*
X028719Y012346D02*
X025810Y012346D01*
X025810Y012228D02*
X028607Y012228D01*
X028488Y012109D02*
X025810Y012109D01*
X025810Y012702D02*
X029071Y012702D01*
X029189Y012820D02*
X025810Y012820D01*
X025810Y012939D02*
X029308Y012939D01*
X029426Y013057D02*
X025810Y013057D01*
X025810Y013176D02*
X029545Y013176D01*
X029663Y013294D02*
X025810Y013294D01*
X025810Y013413D02*
X029536Y013413D01*
X029731Y013413D02*
X029782Y013413D01*
X032820Y015309D02*
X033020Y015309D01*
X032931Y015427D02*
X032895Y015427D01*
X033051Y015901D02*
X033111Y015901D01*
X032932Y016020D02*
X038950Y016020D01*
X038950Y016138D02*
X032814Y016138D01*
X033409Y015901D02*
X038950Y015901D01*
X038950Y015783D02*
X033559Y015783D01*
X033611Y015664D02*
X038950Y015664D01*
X038950Y015546D02*
X033618Y015546D01*
X033586Y015427D02*
X038950Y015427D01*
X038950Y015309D02*
X033500Y015309D01*
X032135Y016257D02*
X038950Y016257D01*
X038950Y016375D02*
X032130Y016375D01*
X032130Y016494D02*
X038950Y016494D01*
X038950Y016612D02*
X032130Y016612D01*
X032130Y016731D02*
X038950Y016731D01*
X038950Y016849D02*
X032130Y016849D01*
X032130Y016968D02*
X038950Y016968D01*
X038950Y017086D02*
X032130Y017086D01*
X032130Y017205D02*
X038950Y017205D01*
X038950Y017323D02*
X032130Y017323D01*
X032130Y017442D02*
X038950Y017442D01*
X038950Y017560D02*
X032130Y017560D01*
X032130Y017679D02*
X038950Y017679D01*
X038950Y017797D02*
X032130Y017797D01*
X032130Y017916D02*
X038950Y017916D01*
X038950Y018034D02*
X032130Y018034D01*
X032130Y018153D02*
X032876Y018153D01*
X032792Y018271D02*
X032130Y018271D01*
X032130Y018390D02*
X032762Y018390D01*
X032730Y018508D02*
X032130Y018508D01*
X032130Y018627D02*
X032670Y018627D01*
X032670Y018745D02*
X032130Y018745D01*
X032130Y018864D02*
X032670Y018864D01*
X032670Y018982D02*
X032130Y018982D01*
X032130Y019101D02*
X032670Y019101D01*
X032670Y019219D02*
X032130Y019219D01*
X032130Y019338D02*
X032670Y019338D01*
X032670Y019456D02*
X032130Y019456D01*
X033090Y019456D02*
X033118Y019456D01*
X033090Y019338D02*
X033211Y019338D01*
X033090Y019219D02*
X033520Y019219D01*
X033638Y019101D02*
X033090Y019101D01*
X033090Y018982D02*
X033757Y018982D01*
X033415Y018627D02*
X037026Y018627D01*
X036908Y018745D02*
X033259Y018745D01*
X033090Y018864D02*
X036834Y018864D01*
X036766Y018982D02*
X035683Y018982D01*
X035802Y019101D02*
X036732Y019101D01*
X036700Y019219D02*
X035920Y019219D01*
X036039Y019338D02*
X036693Y019338D01*
X036693Y019456D02*
X036157Y019456D01*
X036276Y019575D02*
X036710Y019575D01*
X036742Y019693D02*
X036394Y019693D01*
X035577Y020049D02*
X035424Y020049D01*
X035458Y019930D02*
X034975Y019930D01*
X034625Y019930D02*
X034598Y019930D01*
X033469Y018508D02*
X037190Y018508D01*
X037488Y018390D02*
X033478Y018390D01*
X033448Y018271D02*
X038950Y018271D01*
X038950Y018153D02*
X033364Y018153D01*
X036883Y021589D02*
X036942Y021589D01*
X036942Y021708D02*
X036764Y021708D01*
X036646Y021826D02*
X036983Y021826D01*
X037286Y022063D02*
X037465Y022063D01*
X037940Y022369D02*
X037954Y022355D01*
X038414Y021945D02*
X038950Y021945D01*
X038950Y021826D02*
X038415Y021826D01*
X038415Y021708D02*
X038950Y021708D01*
X038880Y021775D02*
X038880Y021046D01*
X038820Y020997D02*
X037410Y020997D01*
X037410Y020878D02*
X038425Y020878D01*
X038425Y020986D02*
X038425Y020730D01*
X038436Y020689D01*
X038457Y020653D01*
X038486Y020623D01*
X038523Y020602D01*
X038564Y020591D01*
X038820Y020591D01*
X038820Y020986D01*
X038425Y020986D01*
X038425Y021106D02*
X038820Y021106D01*
X038820Y021501D01*
X038564Y021501D01*
X038523Y021490D01*
X038486Y021469D01*
X038457Y021440D01*
X038436Y021403D01*
X038425Y021362D01*
X038425Y021106D01*
X038425Y021115D02*
X037357Y021115D01*
X037238Y021234D02*
X037530Y021234D01*
X037410Y020760D02*
X038425Y020760D01*
X038468Y020641D02*
X037957Y020641D01*
X038070Y020523D02*
X038950Y020523D01*
X038940Y020641D02*
X038820Y020641D01*
X038820Y020760D02*
X038940Y020760D01*
X038940Y020878D02*
X038820Y020878D01*
X038820Y021115D02*
X038940Y021115D01*
X038940Y021234D02*
X038820Y021234D01*
X038820Y021352D02*
X038940Y021352D01*
X038940Y021471D02*
X038820Y021471D01*
X038950Y021589D02*
X038415Y021589D01*
X038415Y021471D02*
X038489Y021471D01*
X038425Y021352D02*
X038415Y021352D01*
X038425Y021234D02*
X038350Y021234D01*
X038118Y020404D02*
X038950Y020404D01*
X038950Y020286D02*
X038156Y020286D01*
X038346Y020167D02*
X038950Y020167D01*
X038950Y020049D02*
X038464Y020049D01*
X038554Y019930D02*
X038950Y019930D01*
X038950Y019812D02*
X038622Y019812D01*
X038667Y019693D02*
X038950Y019693D01*
X038950Y019575D02*
X038699Y019575D01*
X038716Y019456D02*
X038950Y019456D01*
X038950Y019338D02*
X038716Y019338D01*
X038709Y019219D02*
X038950Y019219D01*
X038950Y019101D02*
X038677Y019101D01*
X038643Y018982D02*
X038950Y018982D01*
X038950Y018864D02*
X038575Y018864D01*
X038501Y018745D02*
X038950Y018745D01*
X038950Y018627D02*
X038383Y018627D01*
X038220Y018508D02*
X038950Y018508D01*
X038950Y018390D02*
X037921Y018390D01*
X037563Y020641D02*
X037480Y020641D01*
X038831Y022424D02*
X038880Y022424D01*
X037525Y023248D02*
X036984Y023248D01*
X037102Y023130D02*
X037169Y023130D01*
X034363Y021708D02*
X032844Y021708D01*
X032726Y021826D02*
X033043Y021826D01*
X032955Y021945D02*
X032607Y021945D01*
X032570Y022063D02*
X032922Y022063D01*
X032878Y022182D02*
X032570Y022182D01*
X032638Y022300D02*
X032759Y022300D01*
X033435Y022419D02*
X033645Y022419D01*
X033581Y022300D02*
X033764Y022300D01*
X033882Y022182D02*
X033632Y022182D01*
X033638Y022063D02*
X034008Y022063D01*
X034126Y021945D02*
X033605Y021945D01*
X033517Y021826D02*
X034245Y021826D01*
X033532Y022537D02*
X033428Y022537D01*
X033428Y022656D02*
X033532Y022656D01*
X033642Y022774D02*
X033318Y022774D01*
X033256Y022836D02*
X033256Y022836D01*
X033199Y022893D02*
X033761Y022893D01*
X033879Y023011D02*
X033081Y023011D01*
X033159Y022836D02*
X033159Y022836D01*
X032303Y023959D02*
X032133Y023959D01*
X031430Y024196D02*
X030718Y024196D01*
X031853Y025618D02*
X031853Y025618D01*
X032318Y025153D02*
X032366Y025105D01*
X032318Y025153D01*
X032318Y025153D01*
X032327Y025144D02*
X032327Y025144D01*
X032406Y025144D02*
X032750Y025144D01*
X032750Y025263D02*
X032524Y025263D01*
X032313Y025051D02*
X032313Y025051D01*
X032287Y025026D02*
X032772Y025026D01*
X032951Y024670D02*
X033128Y024670D01*
X033043Y024552D02*
X033246Y024552D01*
X033396Y024433D02*
X033078Y024433D01*
X029500Y022063D02*
X029420Y022063D01*
X029043Y021945D02*
X028622Y021945D01*
X028740Y021826D02*
X028840Y021826D01*
X029001Y022063D02*
X028503Y022063D01*
X027847Y023011D02*
X026956Y023011D01*
X026804Y023011D02*
X026318Y023011D01*
X026305Y022893D02*
X026611Y022893D01*
X026382Y022774D02*
X026245Y022774D01*
X026264Y022656D02*
X026076Y022656D01*
X026145Y022537D02*
X025482Y022537D01*
X025518Y022656D02*
X025844Y022656D01*
X025675Y022774D02*
X025578Y022774D01*
X025390Y022419D02*
X026027Y022419D01*
X026370Y023130D02*
X027728Y023130D01*
X027496Y023248D02*
X027104Y023248D01*
X027200Y023367D02*
X027397Y023367D01*
X027348Y023485D02*
X027248Y023485D01*
X027260Y023604D02*
X027340Y023604D01*
X027340Y023722D02*
X027260Y023722D01*
X027260Y023841D02*
X027340Y023841D01*
X027340Y023959D02*
X027260Y023959D01*
X027260Y024078D02*
X027340Y024078D01*
X027340Y024196D02*
X027260Y024196D01*
X027245Y024315D02*
X027352Y024315D01*
X027401Y024433D02*
X027195Y024433D01*
X027092Y024552D02*
X027506Y024552D01*
X026800Y023895D02*
X026760Y023855D01*
X026760Y023841D02*
X026840Y023841D01*
X026840Y023722D02*
X026760Y023722D01*
X026760Y023604D02*
X026840Y023604D01*
X026840Y023485D02*
X026760Y023485D01*
X026760Y023367D02*
X026840Y023367D01*
X026840Y023248D02*
X026760Y023248D01*
X026496Y023248D02*
X026370Y023248D01*
X026370Y023367D02*
X026400Y023367D01*
X026561Y025855D02*
X024597Y025855D01*
X024478Y025974D02*
X026442Y025974D01*
X026339Y026077D02*
X026339Y026077D01*
X026331Y026092D02*
X025779Y026092D01*
X025682Y025995D02*
X025940Y026253D01*
X025940Y026617D01*
X025682Y026875D01*
X025318Y026875D01*
X025060Y026617D01*
X025060Y026253D01*
X025318Y025995D01*
X025682Y025995D01*
X025898Y026211D02*
X026271Y026211D01*
X026210Y026329D02*
X025940Y026329D01*
X025940Y026448D02*
X026150Y026448D01*
X026131Y026484D02*
X026131Y026484D01*
X026118Y026566D02*
X025940Y026566D01*
X025873Y026685D02*
X026100Y026685D01*
X026081Y026803D02*
X025754Y026803D01*
X025682Y026995D02*
X025940Y027253D01*
X025940Y027617D01*
X025682Y027875D01*
X025318Y027875D01*
X025060Y027617D01*
X025060Y027253D01*
X025318Y026995D01*
X025682Y026995D01*
X025727Y027040D02*
X026077Y027040D01*
X026060Y026935D02*
X026060Y026935D01*
X026062Y026922D02*
X024170Y026922D01*
X024170Y027040D02*
X024273Y027040D01*
X024318Y026995D02*
X024470Y026995D01*
X024470Y027405D01*
X024530Y027405D01*
X024530Y026995D01*
X024682Y026995D01*
X024940Y027253D01*
X024940Y027405D01*
X024530Y027405D01*
X024530Y027465D01*
X024940Y027465D01*
X024940Y027617D01*
X024682Y027875D01*
X024530Y027875D01*
X024530Y027465D01*
X024470Y027465D01*
X024470Y027405D01*
X024060Y027405D01*
X024060Y027253D01*
X024318Y026995D01*
X024470Y027040D02*
X024530Y027040D01*
X024530Y027159D02*
X024470Y027159D01*
X024470Y027277D02*
X024530Y027277D01*
X024530Y027396D02*
X024470Y027396D01*
X024470Y027465D02*
X024060Y027465D01*
X024060Y027617D01*
X024318Y027875D01*
X024470Y027875D01*
X024470Y027465D01*
X024470Y027514D02*
X024530Y027514D01*
X024530Y027633D02*
X024470Y027633D01*
X024470Y027751D02*
X024530Y027751D01*
X024530Y027870D02*
X024470Y027870D01*
X024312Y027870D02*
X023688Y027870D01*
X023806Y027751D02*
X024194Y027751D01*
X024075Y027633D02*
X023925Y027633D01*
X023940Y027514D02*
X024060Y027514D01*
X024060Y027396D02*
X023940Y027396D01*
X023955Y027277D02*
X024060Y027277D01*
X024073Y027159D02*
X024154Y027159D01*
X024170Y026803D02*
X024246Y026803D01*
X024470Y026803D02*
X024530Y026803D01*
X024530Y026685D02*
X024470Y026685D01*
X024470Y026566D02*
X024530Y026566D01*
X024530Y026448D02*
X025060Y026448D01*
X025060Y026566D02*
X024940Y026566D01*
X024873Y026685D02*
X025127Y026685D01*
X025246Y026803D02*
X024754Y026803D01*
X024727Y027040D02*
X025273Y027040D01*
X025154Y027159D02*
X024846Y027159D01*
X024940Y027277D02*
X025060Y027277D01*
X025060Y027396D02*
X024940Y027396D01*
X024940Y027514D02*
X025060Y027514D01*
X025075Y027633D02*
X024925Y027633D01*
X024806Y027751D02*
X025194Y027751D01*
X025312Y027870D02*
X024688Y027870D01*
X025688Y027870D02*
X026415Y027870D01*
X026339Y027793D02*
X026339Y027793D01*
X026317Y027751D02*
X025806Y027751D01*
X025925Y027633D02*
X026257Y027633D01*
X026197Y027514D02*
X025940Y027514D01*
X025940Y027396D02*
X026136Y027396D01*
X026131Y027386D02*
X026131Y027386D01*
X026114Y027277D02*
X025940Y027277D01*
X025846Y027159D02*
X026095Y027159D01*
X025060Y026329D02*
X024940Y026329D01*
X024898Y026211D02*
X025102Y026211D01*
X025221Y026092D02*
X024779Y026092D01*
X024530Y026092D02*
X024470Y026092D01*
X024470Y026211D02*
X024530Y026211D01*
X024530Y026329D02*
X024470Y026329D01*
X023716Y026922D02*
X022284Y026922D01*
X022246Y026803D02*
X022170Y026803D01*
X022754Y026803D02*
X023246Y026803D01*
X023127Y026685D02*
X022873Y026685D01*
X022940Y026566D02*
X023060Y026566D01*
X023060Y026448D02*
X022940Y026448D01*
X022727Y027040D02*
X023273Y027040D01*
X023154Y027159D02*
X022846Y027159D01*
X022940Y027277D02*
X023060Y027277D01*
X023060Y027396D02*
X022940Y027396D01*
X022940Y027514D02*
X023060Y027514D01*
X023075Y027633D02*
X022925Y027633D01*
X022806Y027751D02*
X023194Y027751D01*
X023312Y027870D02*
X022688Y027870D01*
X028205Y028204D02*
X028641Y028205D01*
X028702Y028196D01*
X028742Y028205D01*
X028782Y028205D01*
X028839Y028229D01*
X029070Y028285D01*
X029207Y028285D01*
X029322Y028400D01*
X029416Y028445D01*
X030713Y028445D01*
X030868Y028290D01*
X030852Y028290D01*
X030800Y028238D01*
X030748Y028290D01*
X030104Y028290D01*
X030010Y028196D01*
X030010Y028095D01*
X029924Y028095D01*
X029821Y028052D01*
X029684Y027915D01*
X029186Y027915D01*
X029163Y027939D01*
X029031Y027993D01*
X028889Y027993D01*
X028757Y027939D01*
X028656Y027838D01*
X028378Y028116D01*
X028205Y028204D01*
X028378Y028116D02*
X028378Y028116D01*
X028388Y028107D02*
X030010Y028107D01*
X030039Y028225D02*
X028830Y028225D01*
X028877Y027988D02*
X028506Y027988D01*
X028625Y027870D02*
X028688Y027870D01*
X029043Y027988D02*
X029757Y027988D01*
X029266Y028344D02*
X030814Y028344D01*
X025402Y011517D02*
X025330Y011517D01*
X025330Y011398D02*
X025520Y011398D01*
X025330Y011280D02*
X026789Y011280D01*
D44*
X027920Y011295D02*
X027920Y010575D01*
X027920Y011295D02*
X028000Y011375D01*
X031984Y010679D02*
X031984Y009576D01*
X031984Y010679D02*
X032120Y010815D01*
X032496Y010919D02*
X032560Y010855D01*
X032496Y010919D02*
X032496Y012135D01*
X032752Y012823D02*
X032000Y013575D01*
X032560Y013655D02*
X033008Y013207D01*
X032240Y012855D02*
X031960Y013135D01*
X031920Y013175D01*
X033264Y012135D02*
X033264Y010919D01*
X033120Y010775D01*
X033520Y010775D02*
X033520Y010615D01*
X033776Y010871D01*
X033776Y012135D01*
X034032Y012135D02*
X034032Y011367D01*
X033520Y010855D01*
X033520Y010775D02*
X033600Y010855D01*
X033520Y012935D02*
X033520Y012935D01*
X029460Y019495D02*
X029420Y019535D01*
X025840Y019535D01*
X025520Y019855D01*
X025520Y018895D01*
X025120Y018495D01*
X025120Y017295D01*
X024640Y016815D01*
X024240Y016815D01*
X024080Y016655D01*
X024080Y015375D01*
X023760Y015055D01*
X022640Y014495D02*
X022016Y015119D01*
X022000Y015119D01*
X021672Y014351D02*
X021600Y014280D01*
X021600Y012975D01*
X021840Y012735D01*
X022720Y012735D01*
X022800Y012815D02*
X022800Y012975D01*
X022800Y012815D02*
X022800Y012095D01*
X022320Y011615D01*
X021920Y011615D01*
X021860Y011555D01*
X021860Y010315D01*
X021360Y010255D02*
X021360Y012495D01*
X021440Y012575D01*
X018480Y011935D02*
X018480Y010335D01*
X016720Y010975D02*
X016720Y012255D01*
X017440Y014015D02*
X017440Y014252D01*
X017571Y014384D01*
X022720Y017295D02*
X022720Y017680D01*
X022735Y017695D01*
X022720Y017295D02*
X022880Y017135D01*
X023200Y017135D01*
X023535Y016800D01*
X023535Y016335D01*
X023200Y017135D02*
X024320Y017135D01*
X024534Y017349D01*
X024534Y017695D01*
X024534Y018495D02*
X025120Y018495D01*
X024880Y019360D02*
X024080Y019360D01*
X023455Y019360D01*
X023440Y019375D01*
X024080Y020030D02*
X024880Y020030D01*
X024895Y020015D01*
X025360Y020015D01*
X025520Y019855D01*
X025600Y021295D02*
X024160Y021295D01*
X025600Y021295D02*
X026560Y022255D01*
X027440Y022255D01*
X028080Y022895D01*
X029440Y022895D01*
X029460Y022875D01*
X029460Y022495D01*
X029440Y022895D02*
X030400Y022895D01*
X030640Y023135D01*
X030640Y024055D01*
X031060Y024475D01*
X031980Y024475D01*
X032160Y024655D01*
X032320Y024815D01*
X032880Y024815D01*
X033440Y024255D01*
X033520Y024175D01*
X033760Y024175D01*
X034000Y024415D01*
X034000Y024895D01*
X034160Y025055D01*
X038080Y025221D02*
X038634Y025221D01*
X038760Y025095D01*
X038760Y024315D01*
X038534Y025969D02*
X038080Y025969D01*
X038534Y025969D02*
X038760Y026195D01*
X038735Y026220D01*
X038735Y026835D01*
X038735Y027575D01*
X038775Y027615D01*
X037300Y021655D02*
X037334Y021621D01*
X037940Y021621D01*
X028080Y022895D02*
X027280Y022895D01*
X026800Y023375D01*
X026800Y023895D01*
X025520Y023621D02*
X025520Y023055D01*
X025160Y022695D01*
X025520Y023621D02*
X024700Y023621D01*
X024674Y023595D01*
X022295Y020600D02*
X022480Y020415D01*
X022295Y020600D02*
X022105Y020600D01*
X016160Y025834D02*
X016160Y026255D01*
X015820Y026595D01*
X015734Y026595D01*
X015834Y026495D01*
X015780Y024962D02*
X015440Y024622D01*
X015440Y021215D01*
X015100Y020875D01*
X015100Y020035D01*
X014920Y022095D02*
X014560Y022095D01*
X014440Y022215D01*
X014306Y024635D02*
X014160Y024781D01*
X014160Y025195D01*
X013860Y025495D01*
X009260Y025495D01*
X011770Y011196D02*
X011760Y011186D01*
X009680Y010695D02*
X009560Y010695D01*
X009520Y010735D01*
D45*
X008720Y010735D03*
X008240Y009775D03*
X008720Y011935D03*
X010480Y014095D03*
X011200Y013695D03*
X012080Y013615D03*
X013480Y014095D03*
X014320Y013055D03*
X014880Y011855D03*
X016720Y012255D03*
X016720Y010975D03*
X018480Y010335D03*
X018480Y011935D03*
X019440Y013295D03*
X018240Y013855D03*
X017440Y014015D03*
X016960Y014415D03*
X016800Y013935D03*
X016000Y014795D03*
X016960Y015055D03*
X016020Y016795D03*
X013480Y015695D03*
X012560Y015215D03*
X010480Y015695D03*
X010480Y017615D03*
X009620Y019695D03*
X008320Y019795D03*
X006860Y020495D03*
X006860Y021295D03*
X005960Y021295D03*
X006860Y023195D03*
X008320Y024595D03*
X009260Y025495D03*
X009620Y024595D03*
X010920Y024595D03*
X013220Y026995D03*
X012460Y027595D03*
X011120Y027475D03*
X008560Y026995D03*
X007520Y026995D03*
X007600Y028435D03*
X014960Y025295D03*
X016240Y024495D03*
X016400Y025215D03*
X014860Y023895D03*
X014920Y022095D03*
X016580Y022135D03*
X018080Y022975D03*
X017920Y023775D03*
X018420Y023835D03*
X019540Y025035D03*
X021280Y023855D03*
X020100Y021995D03*
X021200Y021695D03*
X022800Y021695D03*
X024160Y021295D03*
X025160Y022695D03*
X025960Y022995D03*
X026880Y022655D03*
X026640Y021855D03*
X027380Y020315D03*
X026180Y019035D03*
X025860Y017195D03*
X024880Y016415D03*
X025280Y016015D03*
X025840Y015855D03*
X026080Y015295D03*
X026260Y013835D03*
X024400Y014655D03*
X023760Y015055D03*
X022640Y014495D03*
X021440Y015615D03*
X020400Y015935D03*
X020560Y016415D03*
X019860Y017195D03*
X019840Y017935D03*
X021440Y017215D03*
X023200Y017135D03*
X023440Y019375D03*
X022480Y020415D03*
X020400Y019215D03*
X016580Y019595D03*
X018960Y015615D03*
X019040Y015055D03*
X020960Y014415D03*
X021440Y012575D03*
X021920Y011615D03*
X021860Y010315D03*
X021360Y010255D03*
X023600Y012815D03*
X025120Y010975D03*
X025540Y010395D03*
X027040Y011535D03*
X028000Y011375D03*
X027920Y010575D03*
X030040Y012095D03*
X030160Y011215D03*
X031120Y012455D03*
X030720Y012775D03*
X031920Y010855D03*
X032400Y010855D03*
X032880Y010855D03*
X033360Y010855D03*
X033840Y010855D03*
X034960Y010515D03*
X035760Y010515D03*
X036560Y010515D03*
X037360Y010295D03*
X036560Y011315D03*
X035760Y011335D03*
X034960Y011335D03*
X034720Y011975D03*
X033900Y014055D03*
X033260Y015575D03*
X032560Y015555D03*
X030700Y015975D03*
X028900Y016955D03*
X030700Y017695D03*
X033120Y018415D03*
X033260Y017695D03*
X033440Y019615D03*
X034240Y019935D03*
X034800Y019615D03*
X036320Y020735D03*
X036800Y020815D03*
X037200Y020415D03*
X037760Y020335D03*
X037300Y021655D03*
X037200Y022415D03*
X036400Y023455D03*
X035760Y022735D03*
X036080Y021295D03*
X033280Y022095D03*
X033460Y022875D03*
X033840Y023535D03*
X034320Y024175D03*
X033600Y024735D03*
X033360Y025175D03*
X033660Y025595D03*
X034260Y024955D03*
X032720Y024395D03*
X031060Y024475D03*
X031520Y023068D03*
X031000Y022715D03*
X030400Y022515D03*
X030640Y020175D03*
X031500Y020235D03*
X032040Y019915D03*
X035180Y015815D03*
X037660Y015735D03*
X038760Y015735D03*
X038660Y014135D03*
X037660Y014135D03*
X037660Y017535D03*
X038740Y017535D03*
X038880Y021775D03*
X039040Y023055D03*
X036880Y025135D03*
X036080Y025215D03*
X035840Y024415D03*
X035520Y026735D03*
X034960Y026815D03*
X034610Y027345D03*
X035580Y027735D03*
X036860Y028775D03*
X033760Y027995D03*
X032080Y026315D03*
X029860Y026515D03*
X029860Y025995D03*
X028960Y027635D03*
X029460Y028195D03*
X023860Y024295D03*
X024000Y023375D03*
X028900Y014635D03*
X031040Y009815D03*
X030640Y009335D03*
X038500Y008455D03*
X038760Y026195D03*
X014900Y008495D03*
X012600Y009935D03*
X007120Y014495D03*
X006120Y014095D03*
X006120Y015695D03*
X007120Y015695D03*
X007120Y017495D03*
X006120Y017495D03*
X011020Y019795D03*
D46*
X006880Y021315D02*
X006860Y021295D01*
X006880Y021315D02*
X006880Y021961D01*
X006129Y020815D02*
X006000Y020686D01*
X006129Y020815D02*
X006129Y020526D01*
X006106Y023455D02*
X006080Y023481D01*
X008560Y026995D02*
X009346Y026995D01*
X010094Y026995D02*
X011860Y026995D01*
X012460Y027595D01*
X012786Y027921D01*
X013365Y027921D01*
X014160Y026066D02*
X014160Y025615D01*
X014480Y025295D01*
X014960Y025295D01*
X016154Y025828D02*
X016400Y025582D01*
X016400Y025215D01*
X016886Y024695D02*
X016686Y024495D01*
X016240Y024495D01*
X017134Y023855D02*
X017214Y023775D01*
X017920Y023775D01*
X017674Y024655D02*
X017634Y024695D01*
X017674Y024815D01*
X017674Y024655D02*
X018320Y024655D01*
X019120Y023855D01*
X021280Y023855D01*
X022320Y023295D02*
X022320Y021783D01*
X022312Y021775D01*
X022312Y021447D01*
X022240Y021375D01*
X022000Y021375D01*
X021920Y021295D01*
X021920Y021005D01*
X021908Y020993D01*
X022498Y020993D02*
X022498Y021695D01*
X022498Y023074D01*
X023520Y024095D01*
X023660Y024095D01*
X023860Y024295D01*
X023960Y024395D01*
X024674Y024395D01*
X024700Y024369D01*
X025280Y024895D02*
X023920Y024895D01*
X022320Y023295D01*
X024000Y023375D02*
X024080Y023295D01*
X024080Y023135D01*
X025120Y022095D01*
X026000Y022095D01*
X026560Y022655D01*
X026880Y022655D01*
X026160Y023195D02*
X025960Y022995D01*
X026160Y023195D02*
X026160Y024695D01*
X026260Y024795D01*
X028660Y024795D01*
X028800Y024655D01*
X028800Y023895D01*
X029800Y023895D02*
X029860Y023955D01*
X029860Y024695D01*
X029560Y024995D01*
X025660Y024995D01*
X025560Y024895D01*
X025560Y024695D01*
X025480Y024695D01*
X025280Y024895D01*
X025560Y024695D02*
X025560Y024409D01*
X025520Y024369D01*
X024560Y025595D02*
X023960Y026195D01*
X023960Y026975D01*
X023500Y027435D01*
X022500Y027435D02*
X021960Y026895D01*
X021960Y026095D01*
X022860Y025195D01*
X028860Y025195D01*
X029360Y025695D01*
X029360Y026795D01*
X029460Y026895D01*
X032960Y026895D01*
X033160Y026695D01*
X033160Y026414D01*
X033084Y026338D01*
X032950Y026204D02*
X032459Y026695D01*
X030760Y026695D01*
X030660Y026595D01*
X029940Y026595D01*
X029860Y026515D01*
X030160Y026175D02*
X031600Y026175D01*
X031920Y025855D01*
X032181Y025855D01*
X032391Y025645D01*
X032532Y025787D02*
X032960Y025359D01*
X032960Y025135D01*
X033360Y024735D01*
X033600Y024735D01*
X033360Y025175D02*
X033360Y025228D01*
X032667Y025921D01*
X032808Y026063D02*
X032556Y026315D01*
X032080Y026315D01*
X031616Y025855D02*
X031600Y025855D01*
X031440Y026015D01*
X030800Y026015D01*
X030720Y025935D01*
X030720Y025890D01*
X030540Y025710D01*
X030555Y025695D01*
X030960Y025695D01*
X031261Y025394D01*
X031261Y025375D01*
X031691Y024945D01*
X031710Y024945D01*
X032000Y024655D01*
X032160Y024655D01*
X031557Y024811D02*
X031327Y025040D01*
X030540Y025040D01*
X030540Y024315D01*
X030400Y024175D01*
X030400Y023375D01*
X030160Y023135D01*
X028020Y023135D01*
X027760Y023395D01*
X027760Y023855D01*
X027800Y023895D01*
X028660Y025395D02*
X023760Y025395D01*
X022960Y026195D01*
X022740Y026195D01*
X022500Y026435D01*
X024560Y025595D02*
X028460Y025595D01*
X028960Y026095D01*
X028960Y027095D01*
X029160Y027295D01*
X033960Y027295D01*
X034360Y026895D01*
X034360Y026595D01*
X034010Y026245D01*
X034010Y026204D01*
X033876Y026338D02*
X033876Y026979D01*
X033760Y027095D01*
X029260Y027095D01*
X029160Y026995D01*
X029160Y025895D01*
X028660Y025395D01*
X029860Y025995D02*
X029980Y025995D01*
X030160Y026175D01*
X031616Y025855D02*
X032108Y025363D01*
X032720Y024395D02*
X032720Y024079D01*
X032108Y023468D01*
X031974Y023589D02*
X031974Y023602D01*
X031520Y023148D01*
X031520Y023068D01*
X031544Y023455D02*
X031120Y023455D01*
X031120Y022815D01*
X031020Y022715D01*
X031000Y022715D01*
X030880Y023055D02*
X030880Y023615D01*
X030960Y023695D01*
X031501Y023695D01*
X031691Y023885D01*
X031832Y023743D02*
X031544Y023455D01*
X032250Y023326D02*
X030419Y021495D01*
X029460Y021495D01*
X029460Y020495D02*
X030160Y020495D01*
X031360Y021695D01*
X031360Y022154D01*
X032391Y023185D01*
X032532Y023043D02*
X031600Y022111D01*
X031600Y021615D01*
X030640Y020655D01*
X030640Y020175D01*
X030960Y019695D02*
X031200Y019935D01*
X031200Y020975D01*
X031760Y021535D01*
X031760Y022002D01*
X032667Y022909D01*
X032808Y022768D02*
X032360Y022319D01*
X032360Y021895D01*
X033300Y020955D01*
X033300Y020795D01*
X033040Y020015D02*
X034160Y020015D01*
X034240Y019935D01*
X034800Y019615D02*
X035440Y019615D01*
X036320Y020495D01*
X036320Y020735D01*
X036720Y020895D02*
X036800Y020815D01*
X036720Y020895D02*
X036720Y021135D01*
X035680Y022175D01*
X035040Y022175D01*
X034306Y022909D01*
X034293Y022909D01*
X034428Y023028D02*
X034720Y022735D01*
X034960Y022735D01*
X035360Y022335D01*
X035840Y022335D01*
X037200Y020975D01*
X037200Y020415D01*
X037440Y021135D02*
X038791Y021135D01*
X038880Y021046D01*
X038811Y022355D02*
X037954Y022355D01*
X037520Y022095D02*
X037520Y023130D01*
X037585Y023195D01*
X037600Y023180D01*
X037585Y023195D02*
X037005Y023775D01*
X035840Y023775D01*
X035680Y023615D01*
X035539Y023615D01*
X035269Y023885D01*
X034209Y024944D01*
X034220Y024955D01*
X034260Y024955D01*
X034209Y024944D02*
X034160Y024994D01*
X034160Y025055D01*
X034080Y025135D01*
X034080Y025439D01*
X034428Y025787D01*
X034293Y025921D02*
X034560Y026188D01*
X034560Y027295D01*
X034610Y027345D01*
X034660Y027295D01*
X034610Y027345D02*
X034325Y027630D01*
X034325Y027995D01*
X035520Y028495D02*
X032760Y028495D01*
X032560Y028295D01*
X032560Y028150D01*
X032435Y027972D01*
X032278Y027815D01*
X031174Y027815D01*
X031174Y028281D01*
X030800Y028655D01*
X029280Y028655D01*
X029120Y028495D01*
X009360Y028495D01*
X009160Y028295D01*
X009160Y027886D01*
X009165Y027881D01*
X008646Y027881D01*
X016154Y025828D02*
X016160Y025834D01*
X022498Y019517D02*
X022498Y019277D01*
X022640Y019135D01*
X022960Y019135D01*
X023360Y018735D01*
X023546Y018735D01*
X023786Y018495D01*
X023200Y017135D02*
X023120Y017055D01*
X024880Y016415D02*
X024880Y013855D01*
X023840Y012815D01*
X023600Y012815D01*
X025360Y011855D02*
X025680Y011535D01*
X027040Y011535D01*
X027280Y011855D02*
X025760Y011855D01*
X025600Y012015D01*
X025600Y014655D01*
X025840Y014895D01*
X025840Y015055D01*
X026080Y015295D01*
X025520Y015535D02*
X025520Y014895D01*
X025360Y014735D01*
X025360Y011855D01*
X025120Y010975D02*
X025120Y015855D01*
X025280Y016015D01*
X025520Y015535D02*
X025840Y015855D01*
X029920Y020015D02*
X030240Y019695D01*
X030960Y019695D01*
X031500Y020235D02*
X031680Y020055D01*
X031680Y016095D01*
X032220Y015555D01*
X032560Y015555D01*
X032720Y015935D02*
X032160Y015935D01*
X031920Y016175D01*
X031920Y019795D01*
X032040Y019915D01*
X032880Y019855D02*
X033040Y020015D01*
X032880Y019855D02*
X032880Y018655D01*
X033120Y018415D01*
X034300Y020795D02*
X034320Y020815D01*
X034320Y021375D01*
X034240Y021455D01*
X033840Y021455D01*
X033600Y021695D01*
X032960Y021695D01*
X032760Y021895D01*
X032760Y022436D01*
X032950Y022626D01*
X033280Y022956D01*
X033280Y023135D01*
X033200Y023215D01*
X033200Y023775D01*
X033440Y024015D01*
X033440Y024255D01*
X033840Y023535D02*
X034219Y023535D01*
X034569Y023185D01*
X034299Y023455D01*
X034710Y023326D02*
X035381Y022655D01*
X035680Y022655D01*
X035760Y022735D01*
X035533Y023055D02*
X034986Y023602D01*
X034986Y023589D01*
X034852Y023468D02*
X034320Y023999D01*
X034320Y024175D01*
X035128Y023743D02*
X035496Y023375D01*
X036320Y023375D01*
X036400Y023455D01*
X036880Y023055D02*
X037120Y022815D01*
X037120Y022495D01*
X037200Y022415D01*
X037120Y022015D02*
X037440Y022015D01*
X037520Y022095D01*
X037120Y022015D02*
X036960Y021855D01*
X036960Y021455D01*
X037120Y021295D01*
X037280Y021295D01*
X037440Y021135D01*
X038811Y022355D02*
X038880Y022424D01*
X038720Y022584D01*
X039040Y022904D01*
X039040Y023055D01*
X038255Y023195D02*
X038240Y023210D01*
X038240Y023695D01*
X037740Y024195D01*
X037740Y024215D01*
X037544Y024019D01*
X035403Y024019D01*
X035269Y023886D02*
X035269Y023885D01*
X035840Y024415D02*
X035920Y024495D01*
X036800Y024495D01*
X037526Y025221D01*
X038080Y025221D01*
X037252Y025788D02*
X037080Y025615D01*
X035920Y025615D01*
X035740Y025795D01*
X035284Y025795D01*
X034852Y025363D01*
X034710Y025504D02*
X035221Y026015D01*
X035360Y026015D01*
X036401Y027057D01*
X036401Y027195D01*
X036308Y027289D01*
X036308Y027841D01*
X035920Y028095D02*
X035920Y027135D01*
X035520Y026735D01*
X035520Y026597D01*
X034569Y025645D01*
X035128Y025087D02*
X035496Y025455D01*
X035760Y025455D01*
X036000Y025215D01*
X036080Y025215D01*
X035920Y024815D02*
X035600Y025135D01*
X035459Y025135D01*
X035269Y024945D01*
X035920Y024815D02*
X036240Y024815D01*
X036560Y025135D01*
X036880Y025135D01*
X037252Y025788D02*
X037252Y026109D01*
X037252Y026503D01*
X037260Y026695D02*
X037260Y026116D01*
X037252Y026109D01*
X037260Y026695D02*
X037400Y026835D01*
X038065Y026835D01*
X037560Y027195D02*
X036401Y027195D01*
X035920Y028095D02*
X035520Y028495D01*
X037560Y027195D02*
X037980Y027615D01*
X038105Y027615D01*
X038760Y024315D02*
X038760Y024235D01*
X038740Y024215D01*
X036880Y023055D02*
X035533Y023055D01*
X034428Y023043D02*
X034428Y023028D01*
X034010Y022626D02*
X034701Y021935D01*
X035600Y021935D01*
X036080Y021455D01*
X036080Y021295D01*
X035300Y021068D02*
X033876Y022492D01*
X033280Y022095D02*
X033117Y022258D01*
X033117Y022492D01*
X033084Y022492D01*
X032950Y022626D02*
X032950Y022645D01*
X030880Y023055D02*
X030419Y022594D01*
X030400Y022594D01*
X030400Y022515D01*
X028640Y020175D02*
X028800Y020015D01*
X029920Y020015D01*
X032720Y015935D02*
X033080Y015575D01*
X033260Y015575D01*
X031680Y012855D02*
X030800Y012855D01*
X030720Y012775D01*
X031120Y012455D02*
X031280Y012615D01*
X031600Y012615D01*
X031728Y012487D01*
X031728Y012135D01*
X031473Y012135D02*
X031433Y012095D01*
X030040Y012095D01*
X031473Y012135D02*
X031473Y012088D01*
X031984Y012135D02*
X031984Y012551D01*
X031680Y012855D01*
X031920Y010855D02*
X032400Y010855D01*
X032496Y009576D02*
X032496Y009231D01*
X032360Y009095D01*
X032260Y009095D01*
X032060Y008895D01*
X032060Y008695D01*
X031960Y008595D01*
X031649Y008595D01*
X031609Y008555D01*
X031660Y009095D02*
X031260Y009095D01*
X031060Y009295D01*
X030680Y009295D01*
X030640Y009335D01*
X031040Y009815D02*
X031280Y009576D01*
X031473Y009576D01*
X031728Y009576D02*
X031728Y009164D01*
X031660Y009095D01*
X033264Y008900D02*
X033589Y008575D01*
X033264Y008900D02*
X033264Y009576D01*
X033520Y009576D02*
X033520Y009135D01*
X033560Y009095D01*
X034560Y009095D01*
X034660Y008995D01*
X034660Y008606D01*
X034691Y008575D01*
X033840Y010855D02*
X033824Y010871D01*
X033776Y010871D01*
X037360Y010295D02*
X037520Y010135D01*
X037520Y009406D01*
X029880Y008389D02*
X029880Y007975D01*
X029920Y007935D01*
X028000Y011375D02*
X027760Y011375D01*
X027280Y011855D01*
X021440Y012575D02*
X020560Y012575D01*
X019840Y013295D01*
X019840Y013535D01*
X019680Y013695D01*
X019040Y013695D01*
X018960Y013775D01*
X018960Y014255D01*
X018720Y014495D01*
X018320Y014495D01*
X018240Y014575D01*
X018240Y016175D01*
X017984Y016431D01*
X017571Y016431D01*
X017571Y016687D02*
X017152Y016687D01*
X017120Y016655D01*
X017120Y016015D01*
X017216Y015919D01*
X017571Y015919D01*
X017571Y016175D02*
X017920Y016175D01*
X018080Y016015D01*
X018080Y014415D01*
X018240Y014255D01*
X018640Y014255D01*
X018720Y014175D01*
X018720Y013615D01*
X018960Y013375D01*
X019360Y013375D01*
X019440Y013295D01*
X019869Y014384D02*
X019869Y014639D01*
X019869Y014895D01*
X019869Y015151D01*
X019869Y015407D02*
X019392Y015407D01*
X019040Y015055D01*
X019040Y014735D02*
X018560Y014735D01*
X018480Y014815D01*
X018480Y016015D01*
X018560Y015935D01*
X019040Y015935D01*
X019056Y015919D01*
X019869Y015919D01*
X019869Y016175D02*
X020160Y016175D01*
X020400Y015935D01*
X020560Y016415D02*
X020544Y016431D01*
X019869Y016431D01*
X019869Y016687D02*
X020272Y016687D01*
X020640Y017055D01*
X019869Y016687D02*
X019232Y016687D01*
X018480Y016447D02*
X018240Y016687D01*
X017571Y016687D01*
X018240Y016687D02*
X019869Y016687D01*
X019869Y015663D02*
X019008Y015663D01*
X018960Y015615D01*
X018480Y016015D02*
X018480Y016447D01*
X017872Y015663D02*
X017920Y015615D01*
X017920Y014255D01*
X018240Y013935D01*
X018240Y013855D01*
X017571Y014639D02*
X017184Y014639D01*
X016960Y014415D01*
X016800Y014095D02*
X016640Y014255D01*
X016800Y014095D02*
X016800Y013935D01*
X017120Y014895D02*
X016960Y015055D01*
X017120Y014895D02*
X017571Y014895D01*
X017571Y015407D02*
X016832Y015407D01*
X017571Y015663D02*
X017872Y015663D01*
X019040Y014735D02*
X019136Y014639D01*
X019869Y014639D01*
X033660Y025595D02*
X033684Y025595D01*
X034152Y026063D01*
X032325Y027815D02*
X032435Y027972D01*
X031194Y027995D02*
X031174Y027815D01*
X035300Y021068D02*
X035300Y020795D01*
D47*
X036320Y020015D02*
X037440Y020015D01*
X037760Y020335D01*
X036320Y020015D02*
X035520Y019215D01*
X033920Y019215D01*
X033520Y019615D01*
X033440Y019615D01*
X029634Y017804D02*
X029634Y014921D01*
X030180Y014375D01*
X032400Y014375D01*
X033520Y013255D01*
X033520Y012935D01*
X032560Y013655D02*
X032240Y013975D01*
X032231Y013967D01*
X029734Y013967D01*
X029634Y013867D01*
X030420Y013655D02*
X028960Y012195D01*
X028960Y012185D01*
X028660Y011885D01*
X028660Y010405D01*
X028140Y009885D01*
X028120Y009885D01*
X028010Y009775D01*
X017040Y009775D01*
X016260Y010555D01*
X016260Y010575D01*
X016120Y010715D01*
X016120Y013735D01*
X015260Y014595D01*
X015260Y017690D01*
X015246Y017704D01*
X015246Y013767D02*
X015439Y013767D01*
X015760Y013445D01*
X015760Y010475D01*
X016770Y009465D01*
X016790Y009465D01*
X016880Y009375D01*
X028240Y009375D01*
X029120Y010255D01*
X029120Y011755D01*
X030660Y013295D01*
X031800Y013295D01*
X031960Y013135D01*
X032080Y013495D02*
X032000Y013575D01*
X031920Y013655D01*
X030420Y013655D01*
X024500Y026435D02*
X024500Y027435D01*
X024500Y028055D01*
X024640Y028195D01*
X029460Y028195D01*
X029980Y027815D02*
X029800Y027635D01*
X028960Y027635D01*
X029980Y027815D02*
X030426Y027815D01*
X032995Y027815D02*
X033580Y027815D01*
X033760Y027995D01*
X034995Y027995D02*
X034995Y027820D01*
X034995Y027995D02*
X035320Y027995D01*
X035580Y027735D01*
X035520Y027675D01*
X035520Y027375D01*
X034960Y026815D01*
X024640Y028195D02*
X016560Y028195D01*
X016360Y027995D01*
X016360Y027975D01*
X015840Y027455D01*
X015320Y027455D01*
X015020Y027155D01*
X014731Y027444D01*
X014160Y027444D01*
X013402Y026686D01*
X013402Y026186D01*
X013365Y026149D01*
X010235Y026149D01*
X009000Y026149D01*
X008960Y026109D01*
X007346Y026109D01*
X007460Y025995D01*
X007460Y025146D01*
X007429Y025115D01*
X007429Y024726D01*
X007960Y024195D01*
X007346Y026109D02*
X006035Y026109D01*
X008960Y026109D02*
X009165Y026109D01*
X014306Y023895D02*
X014860Y023895D01*
X015406Y025828D02*
X015147Y025908D01*
X014960Y026095D01*
X014960Y026569D01*
X014986Y026595D01*
X015086Y026495D01*
X014860Y026495D01*
X014986Y026595D02*
X015060Y026669D01*
X015060Y026795D01*
X014960Y026895D01*
X014960Y027095D01*
X015020Y027155D01*
X011200Y013695D02*
X011200Y012735D01*
X011760Y012175D01*
X011760Y011206D01*
X011770Y011196D01*
X011760Y011186D02*
X011760Y010415D01*
X012000Y010175D01*
X012000Y009575D01*
X012360Y009215D01*
X013200Y009215D01*
X013680Y009695D01*
X014750Y009695D01*
X014930Y009515D01*
X014930Y008525D01*
X014900Y008495D01*
X013030Y010365D02*
X012600Y009935D01*
X013030Y010365D02*
X013030Y011196D01*
X008720Y010735D02*
X008240Y010735D01*
X007680Y011295D01*
X006160Y011295D01*
X006000Y011135D01*
X006000Y010555D01*
X006080Y010475D01*
D48*
X009120Y008595D02*
X009380Y008595D01*
X009400Y008615D01*
X010080Y007935D01*
X015200Y007935D01*
X016160Y008895D01*
X029374Y008895D01*
X029880Y008389D01*
X029920Y007935D02*
X030120Y007935D01*
X030260Y007795D01*
X032560Y007795D01*
X035360Y007795D01*
X035560Y007995D01*
X035560Y008304D01*
X036460Y008304D01*
X037520Y008304D01*
X036460Y009406D02*
X035560Y009406D01*
X035560Y009695D01*
X034460Y010795D01*
X033900Y010795D01*
X033840Y010855D01*
X032560Y010855D02*
X030520Y010855D01*
X030160Y011215D01*
X029880Y010935D01*
X029880Y010121D01*
X030400Y010855D02*
X031920Y010855D01*
X032711Y008555D02*
X032660Y008404D01*
X032660Y007895D01*
X032560Y007795D01*
X032720Y008446D02*
X032711Y008555D01*
X014460Y021160D02*
X014060Y021160D01*
X014100Y021120D01*
X014100Y020035D01*
X014080Y020015D01*
X014080Y019055D01*
X013840Y018815D01*
X010080Y018815D01*
X009520Y018255D01*
X009520Y010735D01*
X009520Y008735D01*
X009400Y008615D01*
X007660Y020095D02*
X011760Y020095D01*
X011760Y020295D01*
X012020Y020035D01*
X013100Y020035D01*
X012880Y021115D02*
X013675Y021115D01*
X013720Y021160D01*
X014060Y021160D01*
X013720Y021830D02*
X013720Y022075D01*
X013760Y022115D01*
X014340Y022115D01*
X014440Y022215D01*
X014460Y022235D01*
X014460Y022540D01*
X014340Y022115D02*
X014360Y022095D01*
X014360Y021930D01*
X014460Y021830D01*
X013760Y022115D02*
X013660Y022115D01*
X013720Y022175D01*
X013720Y022540D01*
X013660Y022115D02*
X013160Y022115D01*
X013140Y022095D01*
X011960Y022095D01*
X011760Y022295D01*
X011760Y024095D01*
X011960Y024195D02*
X007960Y024195D01*
X007660Y024195D01*
X007660Y020495D01*
X007660Y020095D01*
X011760Y020295D02*
X011760Y022295D01*
X012880Y022115D02*
X013160Y022115D01*
X012980Y023115D02*
X012880Y023115D01*
X012980Y023115D02*
X013060Y023195D01*
X013705Y023195D01*
X013720Y023210D01*
X014460Y023210D01*
X014306Y023364D01*
X014306Y023895D01*
X014306Y024635D01*
X012574Y024635D02*
X012400Y024635D01*
X011960Y024195D01*
M02*
