G75*
%MOIN*%
%OFA0B0*%
%FSLAX24Y24*%
%IPPOS*%
%LPD*%
%AMOC8*
5,1,8,0,0,1.08239X$1,22.5*
%
%ADD10R,0.0789X0.0710*%
%ADD11R,0.0592X0.0671*%
%ADD12R,0.0671X0.0592*%
%ADD13R,0.0592X0.0710*%
%ADD14R,0.4178X0.4332*%
%ADD15R,0.0930X0.0500*%
%ADD16C,0.0740*%
%ADD17C,0.0640*%
%ADD18R,0.0671X0.0671*%
%ADD19R,0.0710X0.0592*%
%ADD20C,0.0680*%
%ADD21C,0.1182*%
%ADD22C,0.0674*%
%ADD23R,0.0690X0.0592*%
%ADD24R,0.0198X0.0671*%
%ADD25R,0.2620X0.1080*%
%ADD26R,0.0710X0.0789*%
%ADD27R,0.0867X0.0710*%
%ADD28R,0.0631X0.0828*%
%ADD29R,0.0710X0.1261*%
%ADD30R,0.1261X0.0710*%
%ADD31R,0.0190X0.0490*%
%ADD32R,0.0867X0.1064*%
%ADD33R,0.0867X0.1379*%
%ADD34R,0.0277X0.1300*%
%ADD35C,0.0434*%
%ADD36R,0.0474X0.0631*%
%ADD37C,0.0640*%
%ADD38OC8,0.0640*%
%ADD39R,0.0356X0.0194*%
%ADD40R,0.0194X0.0356*%
%ADD41R,0.0474X0.0237*%
%ADD42R,0.0237X0.0474*%
%ADD43R,0.0470X0.0200*%
%ADD44C,0.0600*%
%ADD45C,0.0476*%
D10*
X035660Y008304D03*
X036560Y008304D03*
X036560Y009406D03*
X035660Y009406D03*
D11*
X023635Y016335D03*
X022965Y016335D03*
X022835Y017695D03*
X022165Y017695D03*
X022165Y018495D03*
X022835Y018495D03*
X021235Y013695D03*
X020565Y013695D03*
X022245Y013215D03*
X022915Y013215D03*
X037685Y023195D03*
X038355Y023195D03*
X038165Y026835D03*
X038835Y026835D03*
X038875Y027615D03*
X038205Y027615D03*
X035095Y027995D03*
X034425Y027995D03*
X033095Y027815D03*
X032425Y027815D03*
D12*
X030200Y024510D03*
X030200Y023840D03*
X024980Y020030D03*
X024180Y020030D03*
X024180Y019360D03*
X024980Y019360D03*
X014560Y021160D03*
X014560Y021830D03*
X014560Y022540D03*
X014560Y023210D03*
X013820Y023210D03*
X013820Y022540D03*
X013820Y021830D03*
X013820Y021160D03*
D13*
X016786Y023015D03*
X017534Y023015D03*
X017234Y023855D03*
X016486Y023855D03*
X016986Y024695D03*
X017734Y024695D03*
X015834Y026595D03*
X015086Y026595D03*
X010194Y026995D03*
X009446Y026995D03*
X022226Y022815D03*
X022974Y022815D03*
X023506Y021915D03*
X024254Y021915D03*
X023886Y018495D03*
X024634Y018495D03*
X024634Y017695D03*
X023886Y017695D03*
X022154Y016335D03*
X021406Y016335D03*
X030526Y027815D03*
X031274Y027815D03*
D14*
X009700Y022115D03*
D15*
X012980Y022115D03*
X012980Y021115D03*
X012980Y023115D03*
D16*
X006220Y008925D02*
X006220Y008265D01*
X007720Y008265D02*
X007720Y008925D01*
X009220Y008925D02*
X009220Y008265D01*
D17*
X007180Y010195D02*
X007180Y010755D01*
X006180Y010755D02*
X006180Y010195D01*
X037840Y023935D02*
X037840Y024495D01*
X038840Y024495D02*
X038840Y023935D01*
D18*
X014260Y026066D03*
X014260Y027444D03*
X007529Y025115D03*
X006151Y025115D03*
D19*
X006180Y024229D03*
X006180Y023481D03*
X038180Y025221D03*
X038180Y025969D03*
D20*
X035400Y021095D02*
X035400Y020495D01*
X034400Y020495D02*
X034400Y021095D01*
X033400Y021095D02*
X033400Y020495D01*
X032400Y020495D02*
X032400Y021095D01*
X029860Y021495D02*
X029260Y021495D01*
X029260Y020495D02*
X029860Y020495D01*
X029860Y019495D02*
X029260Y019495D01*
X029260Y022495D02*
X029860Y022495D01*
X017160Y020215D02*
X016560Y020215D01*
X016560Y019215D02*
X017160Y019215D01*
X017160Y018215D02*
X016560Y018215D01*
X016560Y017215D02*
X017160Y017215D01*
X015200Y019735D02*
X015200Y020335D01*
X014200Y020335D02*
X014200Y019735D01*
X013200Y019735D02*
X013200Y020335D01*
D21*
X007275Y019278D03*
X007275Y012192D03*
X017660Y026935D03*
X027620Y026935D03*
X037805Y019378D03*
X037805Y012292D03*
D22*
X029734Y013867D03*
X029734Y017804D03*
X015346Y017704D03*
X015346Y013767D03*
D23*
X013465Y026149D03*
X013465Y027921D03*
X010335Y027921D03*
X009265Y027881D03*
X009265Y026109D03*
X010335Y026149D03*
X006135Y026109D03*
X006135Y027881D03*
D24*
X031573Y012135D03*
X031828Y012135D03*
X032084Y012135D03*
X032340Y012135D03*
X032596Y012135D03*
X032852Y012135D03*
X033108Y012135D03*
X033364Y012135D03*
X033620Y012135D03*
X033876Y012135D03*
X034132Y012135D03*
X034387Y012135D03*
X034387Y009576D03*
X034132Y009576D03*
X033876Y009576D03*
X033620Y009576D03*
X033364Y009576D03*
X033108Y009576D03*
X032852Y009576D03*
X032596Y009576D03*
X032340Y009576D03*
X032084Y009576D03*
X031828Y009576D03*
X031573Y009576D03*
D25*
X032980Y010855D03*
D26*
X032811Y008555D03*
X033689Y008575D03*
X034791Y008575D03*
X031709Y008555D03*
D27*
X037620Y008304D03*
X037620Y009406D03*
D28*
X037352Y026109D03*
X036408Y026109D03*
X036408Y027841D03*
X037352Y027841D03*
D29*
X029980Y010121D03*
X029980Y008389D03*
D30*
X014406Y024635D03*
X012674Y024635D03*
D31*
G36*
X031897Y024705D02*
X031763Y024571D01*
X031417Y024917D01*
X031551Y025051D01*
X031897Y024705D01*
G37*
G36*
X032031Y024839D02*
X031897Y024705D01*
X031551Y025051D01*
X031685Y025185D01*
X032031Y024839D01*
G37*
G36*
X032172Y024981D02*
X032038Y024847D01*
X031692Y025193D01*
X031826Y025327D01*
X032172Y024981D01*
G37*
G36*
X032314Y025122D02*
X032180Y024988D01*
X031834Y025334D01*
X031968Y025468D01*
X032314Y025122D01*
G37*
G36*
X032448Y025257D02*
X032314Y025123D01*
X031968Y025469D01*
X032102Y025603D01*
X032448Y025257D01*
G37*
G36*
X032590Y025398D02*
X032456Y025264D01*
X032110Y025610D01*
X032244Y025744D01*
X032590Y025398D01*
G37*
G36*
X032731Y025539D02*
X032597Y025405D01*
X032251Y025751D01*
X032385Y025885D01*
X032731Y025539D01*
G37*
G36*
X032872Y025681D02*
X032738Y025547D01*
X032392Y025893D01*
X032526Y026027D01*
X032872Y025681D01*
G37*
G36*
X033007Y025815D02*
X032873Y025681D01*
X032527Y026027D01*
X032661Y026161D01*
X033007Y025815D01*
G37*
G36*
X033148Y025957D02*
X033014Y025823D01*
X032668Y026169D01*
X032802Y026303D01*
X033148Y025957D01*
G37*
G36*
X033290Y026098D02*
X033156Y025964D01*
X032810Y026310D01*
X032944Y026444D01*
X033290Y026098D01*
G37*
G36*
X033424Y026232D02*
X033290Y026098D01*
X032944Y026444D01*
X033078Y026578D01*
X033424Y026232D01*
G37*
G36*
X034082Y026578D02*
X034216Y026444D01*
X033870Y026098D01*
X033736Y026232D01*
X034082Y026578D01*
G37*
G36*
X034216Y026444D02*
X034350Y026310D01*
X034004Y025964D01*
X033870Y026098D01*
X034216Y026444D01*
G37*
G36*
X034358Y026303D02*
X034492Y026169D01*
X034146Y025823D01*
X034012Y025957D01*
X034358Y026303D01*
G37*
G36*
X034499Y026161D02*
X034633Y026027D01*
X034287Y025681D01*
X034153Y025815D01*
X034499Y026161D01*
G37*
G36*
X034634Y026027D02*
X034768Y025893D01*
X034422Y025547D01*
X034288Y025681D01*
X034634Y026027D01*
G37*
G36*
X034775Y025885D02*
X034909Y025751D01*
X034563Y025405D01*
X034429Y025539D01*
X034775Y025885D01*
G37*
G36*
X034916Y025744D02*
X035050Y025610D01*
X034704Y025264D01*
X034570Y025398D01*
X034916Y025744D01*
G37*
G36*
X035058Y025603D02*
X035192Y025469D01*
X034846Y025123D01*
X034712Y025257D01*
X035058Y025603D01*
G37*
G36*
X035192Y025468D02*
X035326Y025334D01*
X034980Y024988D01*
X034846Y025122D01*
X035192Y025468D01*
G37*
G36*
X035334Y025327D02*
X035468Y025193D01*
X035122Y024847D01*
X034988Y024981D01*
X035334Y025327D01*
G37*
G36*
X035475Y025185D02*
X035609Y025051D01*
X035263Y024705D01*
X035129Y024839D01*
X035475Y025185D01*
G37*
G36*
X035609Y025051D02*
X035743Y024917D01*
X035397Y024571D01*
X035263Y024705D01*
X035609Y025051D01*
G37*
G36*
X035743Y023913D02*
X035609Y023779D01*
X035263Y024125D01*
X035397Y024259D01*
X035743Y023913D01*
G37*
G36*
X035609Y023779D02*
X035475Y023645D01*
X035129Y023991D01*
X035263Y024125D01*
X035609Y023779D01*
G37*
G36*
X035468Y023637D02*
X035334Y023503D01*
X034988Y023849D01*
X035122Y023983D01*
X035468Y023637D01*
G37*
G36*
X035326Y023496D02*
X035192Y023362D01*
X034846Y023708D01*
X034980Y023842D01*
X035326Y023496D01*
G37*
G36*
X035192Y023362D02*
X035058Y023228D01*
X034712Y023574D01*
X034846Y023708D01*
X035192Y023362D01*
G37*
G36*
X035050Y023220D02*
X034916Y023086D01*
X034570Y023432D01*
X034704Y023566D01*
X035050Y023220D01*
G37*
G36*
X034909Y023079D02*
X034775Y022945D01*
X034429Y023291D01*
X034563Y023425D01*
X034909Y023079D01*
G37*
G36*
X034768Y022937D02*
X034634Y022803D01*
X034288Y023149D01*
X034422Y023283D01*
X034768Y022937D01*
G37*
G36*
X034633Y022803D02*
X034499Y022669D01*
X034153Y023015D01*
X034287Y023149D01*
X034633Y022803D01*
G37*
G36*
X034492Y022662D02*
X034358Y022528D01*
X034012Y022874D01*
X034146Y023008D01*
X034492Y022662D01*
G37*
G36*
X034350Y022520D02*
X034216Y022386D01*
X033870Y022732D01*
X034004Y022866D01*
X034350Y022520D01*
G37*
G36*
X034216Y022386D02*
X034082Y022252D01*
X033736Y022598D01*
X033870Y022732D01*
X034216Y022386D01*
G37*
G36*
X033290Y022732D02*
X033424Y022598D01*
X033078Y022252D01*
X032944Y022386D01*
X033290Y022732D01*
G37*
G36*
X033156Y022866D02*
X033290Y022732D01*
X032944Y022386D01*
X032810Y022520D01*
X033156Y022866D01*
G37*
G36*
X033014Y023008D02*
X033148Y022874D01*
X032802Y022528D01*
X032668Y022662D01*
X033014Y023008D01*
G37*
G36*
X032873Y023149D02*
X033007Y023015D01*
X032661Y022669D01*
X032527Y022803D01*
X032873Y023149D01*
G37*
G36*
X032738Y023283D02*
X032872Y023149D01*
X032526Y022803D01*
X032392Y022937D01*
X032738Y023283D01*
G37*
G36*
X032597Y023425D02*
X032731Y023291D01*
X032385Y022945D01*
X032251Y023079D01*
X032597Y023425D01*
G37*
G36*
X032456Y023566D02*
X032590Y023432D01*
X032244Y023086D01*
X032110Y023220D01*
X032456Y023566D01*
G37*
G36*
X032314Y023708D02*
X032448Y023574D01*
X032102Y023228D01*
X031968Y023362D01*
X032314Y023708D01*
G37*
G36*
X032180Y023842D02*
X032314Y023708D01*
X031968Y023362D01*
X031834Y023496D01*
X032180Y023842D01*
G37*
G36*
X032038Y023983D02*
X032172Y023849D01*
X031826Y023503D01*
X031692Y023637D01*
X032038Y023983D01*
G37*
G36*
X031897Y024125D02*
X032031Y023991D01*
X031685Y023645D01*
X031551Y023779D01*
X031897Y024125D01*
G37*
G36*
X031763Y024259D02*
X031897Y024125D01*
X031551Y023779D01*
X031417Y023913D01*
X031763Y024259D01*
G37*
D32*
X014252Y008834D03*
X010748Y008834D03*
D33*
X010748Y011157D03*
X014252Y011157D03*
D34*
X013130Y011196D03*
X012815Y011196D03*
X012500Y011196D03*
X012185Y011196D03*
X011870Y011196D03*
D35*
X011634Y010015D03*
X013366Y010015D03*
D36*
X015880Y024962D03*
X015506Y025828D03*
X016254Y025828D03*
D37*
X019600Y027435D03*
D38*
X020600Y027435D03*
X020600Y026435D03*
X019600Y026435D03*
X021600Y026435D03*
X022600Y026435D03*
X023600Y026435D03*
X024600Y026435D03*
X025600Y026435D03*
X025600Y027435D03*
X024600Y027435D03*
X023600Y027435D03*
X022600Y027435D03*
X021600Y027435D03*
D39*
X021762Y020747D03*
X021762Y020550D03*
X021762Y020354D03*
X021762Y020157D03*
X021762Y019960D03*
X021762Y019763D03*
X023238Y019763D03*
X023238Y019960D03*
X023238Y020157D03*
X023238Y020354D03*
X023238Y020550D03*
X023238Y020747D03*
D40*
X022992Y020993D03*
X022795Y020993D03*
X022598Y020993D03*
X022402Y020993D03*
X022205Y020993D03*
X022008Y020993D03*
X022008Y019517D03*
X022205Y019517D03*
X022402Y019517D03*
X022598Y019517D03*
X022795Y019517D03*
X022992Y019517D03*
D41*
X023228Y015119D03*
X023228Y014863D03*
X023228Y014607D03*
X023228Y014351D03*
X021772Y014351D03*
X021772Y014607D03*
X021772Y014863D03*
X021772Y015119D03*
D42*
X022116Y015463D03*
X022372Y015463D03*
X022628Y015463D03*
X022884Y015463D03*
X022884Y014007D03*
X022628Y014007D03*
X022372Y014007D03*
X022116Y014007D03*
D43*
X019969Y014384D03*
X019969Y014639D03*
X019969Y014895D03*
X019969Y015151D03*
X019969Y015407D03*
X019969Y015663D03*
X019969Y015919D03*
X019969Y016175D03*
X019969Y016431D03*
X019969Y016687D03*
X017671Y016687D03*
X017671Y016431D03*
X017671Y016175D03*
X017671Y015919D03*
X017671Y015663D03*
X017671Y015407D03*
X017671Y015151D03*
X017671Y014895D03*
X017671Y014639D03*
X017671Y014384D03*
D44*
X017580Y021035D02*
X017580Y021555D01*
X018580Y021555D02*
X018580Y021035D01*
X019580Y021035D02*
X019580Y021555D01*
X020580Y021555D02*
X020580Y021035D01*
X016580Y021035D02*
X016580Y021555D01*
D45*
X016680Y022135D03*
X018180Y022975D03*
X018020Y023775D03*
X018520Y023835D03*
X019640Y022715D03*
X021300Y021695D03*
X022900Y021695D03*
X023860Y020815D03*
X022580Y020415D03*
X023540Y019375D03*
X025780Y020735D03*
X027060Y021615D03*
X026980Y022655D03*
X027780Y023215D03*
X029060Y023935D03*
X030660Y022435D03*
X031100Y022715D03*
X031620Y023068D03*
X032820Y024395D03*
X033700Y024735D03*
X033460Y025175D03*
X033760Y025595D03*
X034360Y024955D03*
X034420Y024175D03*
X033940Y023535D03*
X033560Y022875D03*
X033380Y022095D03*
X035860Y022735D03*
X036500Y023455D03*
X035940Y024415D03*
X036980Y025135D03*
X035620Y026735D03*
X035060Y026815D03*
X034710Y027345D03*
X035680Y027735D03*
X036960Y028775D03*
X033860Y027995D03*
X032180Y026315D03*
X031160Y024475D03*
X029960Y025995D03*
X029960Y026515D03*
X029060Y027635D03*
X029560Y028195D03*
X024100Y023375D03*
X024740Y023215D03*
X025260Y022695D03*
X027480Y020315D03*
X026280Y019035D03*
X025960Y017195D03*
X024980Y016415D03*
X025380Y016015D03*
X025940Y015855D03*
X026180Y015295D03*
X026360Y013835D03*
X024500Y014655D03*
X023860Y015055D03*
X022740Y014495D03*
X021540Y015615D03*
X020660Y016415D03*
X020500Y015935D03*
X019960Y017195D03*
X019940Y017935D03*
X020500Y019215D03*
X018200Y017675D03*
X019060Y015615D03*
X019140Y015055D03*
X018340Y013855D03*
X017540Y014015D03*
X017060Y014415D03*
X016900Y013935D03*
X016100Y014795D03*
X017060Y015055D03*
X016120Y016795D03*
X013580Y015695D03*
X012660Y015215D03*
X013580Y014095D03*
X014420Y013055D03*
X014980Y011855D03*
X016820Y012255D03*
X016820Y010975D03*
X018580Y010335D03*
X018580Y011935D03*
X019540Y013295D03*
X021060Y014415D03*
X021540Y012575D03*
X022020Y011615D03*
X021960Y010315D03*
X021460Y010255D03*
X023700Y012815D03*
X025220Y010975D03*
X025640Y010395D03*
X027140Y011535D03*
X028100Y011375D03*
X028020Y010575D03*
X030260Y011215D03*
X030140Y012095D03*
X030820Y012775D03*
X031220Y012455D03*
X032020Y010855D03*
X032500Y010855D03*
X032980Y010855D03*
X033460Y010855D03*
X033940Y010855D03*
X035060Y010515D03*
X035860Y010515D03*
X036660Y010515D03*
X036660Y011315D03*
X035860Y011335D03*
X035060Y011335D03*
X034820Y011975D03*
X034000Y014055D03*
X032660Y015555D03*
X033360Y015575D03*
X035280Y015815D03*
X033360Y017695D03*
X033540Y019615D03*
X034900Y019615D03*
X036420Y020735D03*
X036900Y020815D03*
X037300Y020415D03*
X037860Y020335D03*
X036180Y021295D03*
X032140Y019915D03*
X031600Y020235D03*
X030740Y020175D03*
X030800Y017695D03*
X030800Y015975D03*
X029000Y016955D03*
X029000Y014635D03*
X023300Y017135D03*
X021540Y017215D03*
X017800Y019755D03*
X015020Y022095D03*
X015220Y022815D03*
X014960Y023895D03*
X016340Y024495D03*
X016500Y025215D03*
X015060Y025295D03*
X013320Y026995D03*
X012560Y027595D03*
X011220Y027475D03*
X009360Y025495D03*
X009720Y024595D03*
X008420Y024595D03*
X006980Y023295D03*
X008420Y019795D03*
X009720Y019695D03*
X011120Y019795D03*
X010580Y017615D03*
X010580Y015695D03*
X010580Y014095D03*
X011300Y013695D03*
X012180Y013615D03*
X008820Y011935D03*
X008820Y010735D03*
X008340Y009775D03*
X012700Y009935D03*
X015000Y008495D03*
X007220Y014495D03*
X006220Y014095D03*
X006220Y015695D03*
X007220Y015695D03*
X007220Y017495D03*
X006220Y017495D03*
X011020Y024595D03*
X008660Y026995D03*
X007620Y026995D03*
X007700Y028435D03*
X019640Y025035D03*
X020420Y024815D03*
X037760Y017535D03*
X038840Y017535D03*
X038860Y015735D03*
X037760Y015735D03*
X037760Y014135D03*
X038760Y014135D03*
X037460Y010295D03*
X038600Y008455D03*
X031140Y009815D03*
X030740Y009335D03*
X038860Y026195D03*
M02*
