G75*
%MOIN*%
%OFA0B0*%
%FSLAX24Y24*%
%IPPOS*%
%LPD*%
%AMOC8*
5,1,8,0,0,1.08239X$1,22.5*
%
%ADD10C,0.0740*%
%ADD11C,0.0640*%
%ADD12C,0.0680*%
%ADD13C,0.1182*%
%ADD14C,0.0674*%
%ADD15C,0.0434*%
%ADD16R,0.0300X0.0600*%
%ADD17R,0.0710X0.0592*%
%ADD18R,0.0671X0.0592*%
%ADD19R,0.0592X0.0671*%
%ADD20R,0.0867X0.0710*%
%ADD21R,0.0671X0.0671*%
%ADD22R,0.0592X0.0710*%
%ADD23C,0.0640*%
%ADD24OC8,0.0640*%
%ADD25R,0.1025X0.1025*%
%ADD26R,0.0316X0.0363*%
%ADD27C,0.0600*%
%ADD28C,0.0476*%
D10*
X006220Y008265D02*
X006220Y008925D01*
X007720Y008925D02*
X007720Y008265D01*
X009220Y008265D02*
X009220Y008925D01*
D11*
X007180Y010195D02*
X007180Y010755D01*
X006180Y010755D02*
X006180Y010195D01*
X037840Y023935D02*
X037840Y024495D01*
X038840Y024495D02*
X038840Y023935D01*
D12*
X035400Y021095D02*
X035400Y020495D01*
X034400Y020495D02*
X034400Y021095D01*
X033400Y021095D02*
X033400Y020495D01*
X032400Y020495D02*
X032400Y021095D01*
X029860Y021495D02*
X029260Y021495D01*
X029260Y020495D02*
X029860Y020495D01*
X029860Y019495D02*
X029260Y019495D01*
X029260Y022495D02*
X029860Y022495D01*
X017160Y020215D02*
X016560Y020215D01*
X016560Y019215D02*
X017160Y019215D01*
X017160Y018215D02*
X016560Y018215D01*
X016560Y017215D02*
X017160Y017215D01*
X015200Y019735D02*
X015200Y020335D01*
X014200Y020335D02*
X014200Y019735D01*
X013200Y019735D02*
X013200Y020335D01*
D13*
X007275Y019278D03*
X007275Y012192D03*
X017660Y026935D03*
X027620Y026935D03*
X037805Y019378D03*
X037805Y012292D03*
D14*
X029734Y013867D03*
X029734Y017804D03*
X015346Y017704D03*
X015346Y013767D03*
D15*
X013366Y010015D03*
X011634Y010015D03*
D16*
X013930Y010355D03*
X014300Y010355D03*
X014670Y010355D03*
X014670Y009275D03*
X013930Y009275D03*
D17*
X013140Y009269D03*
X013140Y008521D03*
X019540Y010361D03*
X019540Y011109D03*
X019540Y011881D03*
X019540Y012629D03*
X022660Y011269D03*
X022660Y010521D03*
X026260Y012041D03*
X026260Y012789D03*
X027140Y012789D03*
X027140Y012041D03*
X028260Y012041D03*
X028260Y012789D03*
X018900Y024501D03*
X018900Y025249D03*
D18*
X028660Y010830D03*
X028660Y010160D03*
X015540Y009950D03*
X015540Y009280D03*
D19*
X014915Y011055D03*
X014245Y011055D03*
X017125Y011615D03*
X017795Y011615D03*
X020645Y011695D03*
X021315Y011695D03*
X024565Y012575D03*
X025235Y012575D03*
X012115Y014495D03*
X011445Y014495D03*
X011445Y015215D03*
X012115Y015215D03*
D20*
X010820Y011606D03*
X010820Y010504D03*
D21*
X010801Y012825D03*
X012179Y012825D03*
X018580Y011024D03*
X018580Y009646D03*
X021460Y009566D03*
X021460Y010944D03*
X023460Y010944D03*
X023460Y009566D03*
X026340Y009646D03*
X026340Y011024D03*
D22*
X025274Y011695D03*
X024526Y011695D03*
X023354Y012095D03*
X022606Y012095D03*
X021194Y012895D03*
X020446Y012895D03*
X018474Y012575D03*
X017726Y012575D03*
X017754Y013375D03*
X017006Y013375D03*
X014354Y011855D03*
X013606Y011855D03*
X014346Y018935D03*
X015094Y018935D03*
X023646Y013455D03*
X024394Y013455D03*
D23*
X019600Y027435D03*
D24*
X020600Y027435D03*
X020600Y026435D03*
X019600Y026435D03*
X021600Y026435D03*
X022600Y026435D03*
X023600Y026435D03*
X024600Y026435D03*
X025600Y026435D03*
X025600Y027435D03*
X024600Y027435D03*
X023600Y027435D03*
X022600Y027435D03*
X021600Y027435D03*
D25*
X009686Y013615D03*
X007954Y013615D03*
D26*
X017264Y010966D03*
X017264Y010584D03*
X017264Y010202D03*
X017264Y009821D03*
X017816Y009825D03*
X017816Y010206D03*
X017816Y010588D03*
X017816Y010970D03*
X020224Y010966D03*
X020224Y010584D03*
X020224Y010202D03*
X020224Y009821D03*
X020776Y009825D03*
X020776Y010206D03*
X020776Y010588D03*
X020776Y010970D03*
X024144Y010966D03*
X024144Y010584D03*
X024144Y010202D03*
X024144Y009821D03*
X024696Y009825D03*
X024696Y010206D03*
X024696Y010588D03*
X024696Y010970D03*
X026944Y010966D03*
X026944Y010584D03*
X026944Y010202D03*
X026944Y009821D03*
X027496Y009825D03*
X027496Y010206D03*
X027496Y010588D03*
X027496Y010970D03*
D27*
X020580Y021035D02*
X020580Y021555D01*
X019580Y021555D02*
X019580Y021035D01*
X018580Y021035D02*
X018580Y021555D01*
X017580Y021555D02*
X017580Y021035D01*
X016580Y021035D02*
X016580Y021555D01*
D28*
X016680Y022135D03*
X018180Y022975D03*
X018020Y023775D03*
X018520Y023835D03*
X019640Y022715D03*
X021460Y021375D03*
X022580Y020415D03*
X022900Y021455D03*
X023860Y020815D03*
X023540Y019375D03*
X025780Y020735D03*
X027060Y021615D03*
X026980Y022655D03*
X027780Y023215D03*
X029060Y023935D03*
X030660Y022435D03*
X031100Y022715D03*
X031620Y023068D03*
X031240Y024315D03*
X032820Y024395D03*
X033700Y024735D03*
X033460Y025175D03*
X033760Y025595D03*
X034360Y024955D03*
X034420Y024175D03*
X033940Y023535D03*
X033560Y022875D03*
X033380Y022095D03*
X035860Y022735D03*
X036500Y023455D03*
X035940Y024415D03*
X036980Y025135D03*
X035620Y026735D03*
X035060Y026815D03*
X034710Y027345D03*
X035680Y027735D03*
X036960Y028775D03*
X033860Y027995D03*
X032180Y026315D03*
X029960Y026515D03*
X029960Y025995D03*
X029060Y027635D03*
X029560Y028195D03*
X025640Y023755D03*
X024740Y023215D03*
X025260Y022695D03*
X024100Y023375D03*
X020420Y024815D03*
X019640Y025035D03*
X016500Y025215D03*
X016340Y024495D03*
X014960Y023895D03*
X015220Y022815D03*
X015020Y022095D03*
X017800Y019755D03*
X019940Y017935D03*
X019960Y017195D03*
X020660Y016415D03*
X020500Y015935D03*
X021540Y015615D03*
X021060Y014415D03*
X019540Y013295D03*
X018340Y013855D03*
X017540Y014015D03*
X017060Y014415D03*
X016900Y013935D03*
X016100Y014795D03*
X017060Y015055D03*
X016120Y016795D03*
X018200Y017675D03*
X019060Y015615D03*
X019140Y015055D03*
X021540Y017215D03*
X023300Y017135D03*
X024980Y016415D03*
X025380Y016015D03*
X025940Y015855D03*
X026180Y015295D03*
X026360Y013835D03*
X024500Y014655D03*
X023860Y015055D03*
X022740Y014495D03*
X023700Y012815D03*
X022020Y011615D03*
X021540Y012575D03*
X021960Y010315D03*
X021460Y010255D03*
X018580Y010335D03*
X018580Y011935D03*
X016820Y012255D03*
X016820Y010975D03*
X014980Y011855D03*
X014420Y013055D03*
X013580Y014095D03*
X012660Y015215D03*
X013580Y015695D03*
X012180Y013615D03*
X011300Y013695D03*
X010580Y014095D03*
X010580Y015695D03*
X010580Y017615D03*
X011120Y019795D03*
X009720Y019695D03*
X008420Y019795D03*
X007220Y017495D03*
X006220Y017495D03*
X006220Y015695D03*
X007220Y015695D03*
X007220Y014495D03*
X006220Y014095D03*
X008820Y011935D03*
X008820Y010735D03*
X008340Y009775D03*
X012700Y009935D03*
X015000Y008495D03*
X025220Y010975D03*
X025640Y010395D03*
X027140Y011535D03*
X028100Y011375D03*
X028020Y010575D03*
X030260Y011215D03*
X030140Y012095D03*
X030820Y012775D03*
X031220Y012455D03*
X032020Y010855D03*
X032500Y010855D03*
X032980Y010855D03*
X033460Y010855D03*
X033940Y010855D03*
X035060Y010515D03*
X035860Y010515D03*
X036660Y010515D03*
X036660Y011315D03*
X035860Y011335D03*
X035060Y011335D03*
X034820Y011975D03*
X034000Y014055D03*
X032660Y015555D03*
X033360Y015575D03*
X035280Y015815D03*
X033360Y017695D03*
X033540Y019615D03*
X034900Y019615D03*
X036420Y020735D03*
X036900Y020815D03*
X037300Y020415D03*
X038020Y020735D03*
X036180Y021295D03*
X032140Y019675D03*
X031600Y019915D03*
X030500Y020255D03*
X027480Y020315D03*
X027300Y018975D03*
X026280Y019035D03*
X025960Y017195D03*
X029000Y016955D03*
X030800Y017695D03*
X030800Y015975D03*
X029000Y014635D03*
X031140Y009815D03*
X030740Y009335D03*
X037460Y010295D03*
X038600Y008455D03*
X038760Y014135D03*
X037760Y014135D03*
X037760Y015735D03*
X038860Y015735D03*
X038840Y017535D03*
X037760Y017535D03*
X038860Y026195D03*
X020500Y019215D03*
X015060Y025295D03*
X013320Y026995D03*
X012560Y027595D03*
X011220Y027475D03*
X009360Y025495D03*
X009720Y024595D03*
X008420Y024595D03*
X006980Y023295D03*
X011020Y024595D03*
X008660Y026995D03*
X007620Y026995D03*
X007700Y028435D03*
M02*
