%
M48
M72
T01C0.0236
T02C0.0320
T03C0.0354
T04C0.0360
T05C0.0394
T06C0.0400
T07C0.0440
T08C0.1102
%
T01
X8340Y9775
X8820Y10735
X8820Y11935
X11300Y13695
X10580Y14095
X12180Y13615
X13580Y14095
X14420Y13055
X14980Y11855
X16820Y12255
X16820Y10975
X18580Y10335
X18580Y11935
X19540Y13295
X18340Y13855
X17540Y14015
X17060Y14415
X16900Y13935
X16100Y14795
X17060Y15055
X16120Y16795
X18200Y17675
X19940Y17935
X19960Y17195
X20660Y16415
X20500Y15935
X21540Y15615
X21060Y14415
X22740Y14495
X23860Y15055
X24500Y14655
X25380Y16015
X24980Y16415
X25940Y15855
X26180Y15295
X26360Y13835
X29000Y14635
X30800Y15975
X30800Y17695
X29000Y16955
X25960Y17195
X26280Y19035
X27480Y20315
X27060Y21615
X26980Y22655
X27780Y23215
X29060Y23935
X30660Y22435
X31100Y22715
X31620Y23068
X32820Y24395
X33700Y24735
X33460Y25175
X33760Y25595
X34360Y24955
X34420Y24175
X33940Y23535
X33560Y22875
X33380Y22095
X35860Y22735
X36500Y23455
X35940Y24415
X36980Y25135
X35620Y26735
X35060Y26815
X34710Y27345
X35680Y27735
X36960Y28775
X33860Y27995
X32180Y26315
X31160Y24475
X29960Y25995
X29960Y26515
X29060Y27635
X29560Y28195
X24100Y23375
X24740Y23215
X25260Y22695
X22900Y21695
X23860Y20815
X22580Y20415
X23540Y19375
X25780Y20735
X23300Y17135
X21540Y17215
X20500Y19215
X17800Y19755
X16680Y22135
X18180Y22975
X18020Y23775
X18520Y23835
X19640Y22715
X21300Y21695
X20420Y24815
X19640Y25035
X16500Y25215
X16340Y24495
X14960Y23895
X15220Y22815
X15020Y22095
X15060Y25295
X13320Y26995
X12560Y27595
X11220Y27475
X9360Y25495
X9720Y24595
X8420Y24595
X6980Y23295
X8420Y19795
X9720Y19695
X11120Y19795
X10580Y17615
X10580Y15695
X12660Y15215
X13580Y15695
X19060Y15615
X19140Y15055
X21540Y12575
X22020Y11615
X21960Y10315
X21460Y10255
X23700Y12815
X25220Y10975
X25640Y10395
X27140Y11535
X28100Y11375
X28020Y10575
X30260Y11215
X30140Y12095
X30820Y12775
X31220Y12455
X32020Y10855
X32500Y10855
X32980Y10855
X33460Y10855
X33940Y10855
X35060Y10515
X35860Y10515
X36660Y10515
X36660Y11315
X35860Y11335
X35060Y11335
X34820Y11975
X34000Y14055
X32660Y15555
X33360Y15575
X35280Y15815
X33360Y17695
X33540Y19615
X34900Y19615
X36420Y20735
X36900Y20815
X37300Y20415
X37860Y20335
X36180Y21295
X32140Y19915
X31600Y20235
X30740Y20175
X37760Y17535
X38840Y17535
X38860Y15735
X37760Y15735
X37760Y14135
X38760Y14135
X37460Y10295
X38600Y8455
X31140Y9815
X30740Y9335
X15000Y8495
X12700Y9935
X7220Y14495
X6220Y14095
X6220Y15695
X7220Y15695
X7220Y17495
X6220Y17495
X11020Y24595
X8660Y26995
X7620Y26995
X7700Y28435
X38860Y26195
T02
X20580Y21295
X19580Y21295
X18580Y21295
X17580Y21295
X16580Y21295
T03
X13366Y10015
X11634Y10015
T04
X7180Y10475
X6180Y10475
X19600Y26435
X20600Y26435
X21600Y26435
X22600Y26435
X23600Y26435
X24600Y26435
X25600Y26435
X25600Y27435
X24600Y27435
X23600Y27435
X22600Y27435
X21600Y27435
X20600Y27435
X19600Y27435
X37840Y24215
X38840Y24215
T05
X29734Y17804
X29734Y13867
X15346Y13767
X15346Y17704
T06
X16860Y17215
X16860Y18215
X16860Y19215
X16860Y20215
X15200Y20035
X14200Y20035
X13200Y20035
X29560Y20495
X29560Y19495
X29560Y21495
X29560Y22495
X32400Y20795
X33400Y20795
X34400Y20795
X35400Y20795
T07
X6220Y8595
X7720Y8595
X9220Y8595
T08
X7275Y12192
X7275Y19278
X17660Y26935
X27620Y26935
X37805Y19378
X37805Y12292
M30
