G75*
%MOIN*%
%OFA0B0*%
%FSLAX24Y24*%
%IPPOS*%
%LPD*%
%AMOC8*
5,1,8,0,0,1.08239X$1,22.5*
%
%ADD10R,0.0512X0.0591*%
%ADD11R,0.0512X0.0630*%
%ADD12R,0.4252X0.4098*%
%ADD13R,0.0420X0.0850*%
%ADD14R,0.0591X0.0591*%
%ADD15R,0.0630X0.0512*%
%ADD16R,0.0610X0.0512*%
%ADD17R,0.0551X0.0748*%
%ADD18R,0.0630X0.1181*%
%ADD19R,0.1181X0.0630*%
%ADD20R,0.0591X0.0512*%
%ADD21R,0.0114X0.0276*%
%ADD22R,0.0276X0.0114*%
%ADD23R,0.0945X0.0945*%
%ADD24R,0.0110X0.0580*%
%ADD25R,0.0236X0.0866*%
%ADD26C,0.0236*%
%ADD27R,0.0200X0.0787*%
%ADD28R,0.0197X0.0787*%
%ADD29R,0.0394X0.0551*%
%ADD30R,0.0551X0.0315*%
%ADD31R,0.0866X0.0709*%
%ADD32R,0.0984X0.1693*%
%ADD33R,0.0984X0.0787*%
%ADD34R,0.1299X0.0787*%
%ADD35R,0.1220X0.0197*%
D10*
X024895Y024460D03*
X025565Y024460D03*
X031455Y028980D03*
X032125Y028980D03*
X032165Y029920D03*
X031495Y029920D03*
X028665Y030920D03*
X027995Y030920D03*
X022765Y029360D03*
X022095Y029360D03*
X016325Y026300D03*
X015655Y026300D03*
X015025Y026300D03*
X014355Y026300D03*
X014435Y025560D03*
X015105Y025560D03*
X015655Y025640D03*
X016325Y025640D03*
X035375Y027200D03*
X036045Y027200D03*
X036045Y028000D03*
X035375Y028000D03*
D11*
X033424Y025860D03*
X032676Y025860D03*
X032676Y025040D03*
X033424Y025040D03*
X033976Y020880D03*
X034724Y020880D03*
X035816Y020960D03*
X036564Y020960D03*
X037496Y020960D03*
X038244Y020960D03*
X026004Y021040D03*
X025256Y021040D03*
X024484Y021040D03*
X023736Y021040D03*
X022964Y021040D03*
X022216Y021040D03*
X014864Y027040D03*
X014116Y027040D03*
X013404Y032420D03*
X012656Y032420D03*
X012456Y034320D03*
X013204Y034320D03*
X031656Y030760D03*
X032404Y030760D03*
X011924Y016480D03*
X011176Y016480D03*
D12*
X015290Y021520D03*
D13*
X015290Y024800D03*
X014290Y024800D03*
X016290Y024800D03*
D14*
X017630Y031771D03*
X017630Y033149D03*
X011659Y034340D03*
X010281Y034340D03*
X009950Y017729D03*
X009950Y016351D03*
D15*
X014870Y027686D03*
X014870Y028434D03*
X015790Y028574D03*
X015790Y027826D03*
X018470Y032366D03*
X018470Y033114D03*
X033550Y032806D03*
X033550Y033554D03*
D16*
X016595Y033306D03*
X016595Y031534D03*
X013465Y031534D03*
X012555Y031574D03*
X012555Y033346D03*
X013465Y033306D03*
X009425Y033346D03*
X009425Y031574D03*
D17*
X029858Y030386D03*
X030802Y030386D03*
X030802Y028654D03*
X029858Y028654D03*
D18*
X017990Y026346D03*
X017990Y024614D03*
D19*
X015296Y030020D03*
X013564Y030020D03*
D20*
X013950Y028495D03*
X013950Y027825D03*
X013070Y028095D03*
X013070Y027425D03*
X022110Y028065D03*
X022110Y028735D03*
X030690Y027235D03*
X030690Y026565D03*
X036910Y025855D03*
X036910Y025185D03*
X037710Y025185D03*
X037710Y025855D03*
X040910Y032545D03*
X040910Y033215D03*
X014030Y017535D03*
X014030Y016865D03*
X013310Y016865D03*
X013310Y017535D03*
X013310Y018145D03*
X013310Y018815D03*
D21*
X034658Y024782D03*
X034855Y024782D03*
X035052Y024782D03*
X035248Y024782D03*
X035445Y024782D03*
X035642Y024782D03*
X035642Y026258D03*
X035445Y026258D03*
X035248Y026258D03*
X035052Y026258D03*
X034855Y026258D03*
X034658Y026258D03*
D22*
X034412Y026012D03*
X034412Y025815D03*
X034412Y025618D03*
X034412Y025422D03*
X034412Y025225D03*
X034412Y025028D03*
X035888Y025028D03*
X035888Y025225D03*
X035888Y025422D03*
X035888Y025618D03*
X035888Y025815D03*
X035888Y026012D03*
D23*
X011936Y025520D03*
X011936Y024080D03*
X010204Y024080D03*
X010204Y025520D03*
D24*
G36*
X023638Y027619D02*
X023715Y027542D01*
X023306Y027133D01*
X023229Y027210D01*
X023638Y027619D01*
G37*
G36*
X023780Y027477D02*
X023857Y027400D01*
X023448Y026991D01*
X023371Y027068D01*
X023780Y027477D01*
G37*
G36*
X023921Y027336D02*
X023998Y027259D01*
X023589Y026850D01*
X023512Y026927D01*
X023921Y027336D01*
G37*
G36*
X024056Y027201D02*
X024133Y027124D01*
X023724Y026715D01*
X023647Y026792D01*
X024056Y027201D01*
G37*
G36*
X024197Y027060D02*
X024274Y026983D01*
X023865Y026574D01*
X023788Y026651D01*
X024197Y027060D01*
G37*
G36*
X024339Y026918D02*
X024416Y026841D01*
X024007Y026432D01*
X023930Y026509D01*
X024339Y026918D01*
G37*
G36*
X024473Y026784D02*
X024550Y026707D01*
X024141Y026298D01*
X024064Y026375D01*
X024473Y026784D01*
G37*
G36*
X024614Y026643D02*
X024691Y026566D01*
X024282Y026157D01*
X024205Y026234D01*
X024614Y026643D01*
G37*
G36*
X024756Y026501D02*
X024833Y026424D01*
X024424Y026015D01*
X024347Y026092D01*
X024756Y026501D01*
G37*
G36*
X024897Y026360D02*
X024974Y026283D01*
X024565Y025874D01*
X024488Y025951D01*
X024897Y026360D01*
G37*
G36*
X025031Y026226D02*
X025108Y026149D01*
X024699Y025740D01*
X024622Y025817D01*
X025031Y026226D01*
G37*
G36*
X025173Y026084D02*
X025250Y026007D01*
X024841Y025598D01*
X024764Y025675D01*
X025173Y026084D01*
G37*
G36*
X025314Y025943D02*
X025391Y025866D01*
X024982Y025457D01*
X024905Y025534D01*
X025314Y025943D01*
G37*
G36*
X025449Y025808D02*
X025526Y025731D01*
X025117Y025322D01*
X025040Y025399D01*
X025449Y025808D01*
G37*
G36*
X025590Y025667D02*
X025667Y025590D01*
X025258Y025181D01*
X025181Y025258D01*
X025590Y025667D01*
G37*
G36*
X025732Y025525D02*
X025809Y025448D01*
X025400Y025039D01*
X025323Y025116D01*
X025732Y025525D01*
G37*
G36*
X026897Y025116D02*
X026820Y025039D01*
X026411Y025448D01*
X026488Y025525D01*
X026897Y025116D01*
G37*
G36*
X027039Y025258D02*
X026962Y025181D01*
X026553Y025590D01*
X026630Y025667D01*
X027039Y025258D01*
G37*
G36*
X027180Y025399D02*
X027103Y025322D01*
X026694Y025731D01*
X026771Y025808D01*
X027180Y025399D01*
G37*
G36*
X027315Y025534D02*
X027238Y025457D01*
X026829Y025866D01*
X026906Y025943D01*
X027315Y025534D01*
G37*
G36*
X027456Y025675D02*
X027379Y025598D01*
X026970Y026007D01*
X027047Y026084D01*
X027456Y025675D01*
G37*
G36*
X027598Y025817D02*
X027521Y025740D01*
X027112Y026149D01*
X027189Y026226D01*
X027598Y025817D01*
G37*
G36*
X027732Y025951D02*
X027655Y025874D01*
X027246Y026283D01*
X027323Y026360D01*
X027732Y025951D01*
G37*
G36*
X027873Y026092D02*
X027796Y026015D01*
X027387Y026424D01*
X027464Y026501D01*
X027873Y026092D01*
G37*
G36*
X028015Y026234D02*
X027938Y026157D01*
X027529Y026566D01*
X027606Y026643D01*
X028015Y026234D01*
G37*
G36*
X028156Y026375D02*
X028079Y026298D01*
X027670Y026707D01*
X027747Y026784D01*
X028156Y026375D01*
G37*
G36*
X028290Y026509D02*
X028213Y026432D01*
X027804Y026841D01*
X027881Y026918D01*
X028290Y026509D01*
G37*
G36*
X028432Y026651D02*
X028355Y026574D01*
X027946Y026983D01*
X028023Y027060D01*
X028432Y026651D01*
G37*
G36*
X028573Y026792D02*
X028496Y026715D01*
X028087Y027124D01*
X028164Y027201D01*
X028573Y026792D01*
G37*
G36*
X028708Y026927D02*
X028631Y026850D01*
X028222Y027259D01*
X028299Y027336D01*
X028708Y026927D01*
G37*
G36*
X028849Y027068D02*
X028772Y026991D01*
X028363Y027400D01*
X028440Y027477D01*
X028849Y027068D01*
G37*
G36*
X028991Y027210D02*
X028914Y027133D01*
X028505Y027542D01*
X028582Y027619D01*
X028991Y027210D01*
G37*
G36*
X028914Y028707D02*
X028991Y028630D01*
X028582Y028221D01*
X028505Y028298D01*
X028914Y028707D01*
G37*
G36*
X028772Y028849D02*
X028849Y028772D01*
X028440Y028363D01*
X028363Y028440D01*
X028772Y028849D01*
G37*
G36*
X028631Y028990D02*
X028708Y028913D01*
X028299Y028504D01*
X028222Y028581D01*
X028631Y028990D01*
G37*
G36*
X028496Y029125D02*
X028573Y029048D01*
X028164Y028639D01*
X028087Y028716D01*
X028496Y029125D01*
G37*
G36*
X028355Y029266D02*
X028432Y029189D01*
X028023Y028780D01*
X027946Y028857D01*
X028355Y029266D01*
G37*
G36*
X028213Y029408D02*
X028290Y029331D01*
X027881Y028922D01*
X027804Y028999D01*
X028213Y029408D01*
G37*
G36*
X028079Y029542D02*
X028156Y029465D01*
X027747Y029056D01*
X027670Y029133D01*
X028079Y029542D01*
G37*
G36*
X027938Y029683D02*
X028015Y029606D01*
X027606Y029197D01*
X027529Y029274D01*
X027938Y029683D01*
G37*
G36*
X027796Y029825D02*
X027873Y029748D01*
X027464Y029339D01*
X027387Y029416D01*
X027796Y029825D01*
G37*
G36*
X027655Y029966D02*
X027732Y029889D01*
X027323Y029480D01*
X027246Y029557D01*
X027655Y029966D01*
G37*
G36*
X027521Y030100D02*
X027598Y030023D01*
X027189Y029614D01*
X027112Y029691D01*
X027521Y030100D01*
G37*
G36*
X027379Y030242D02*
X027456Y030165D01*
X027047Y029756D01*
X026970Y029833D01*
X027379Y030242D01*
G37*
G36*
X027238Y030383D02*
X027315Y030306D01*
X026906Y029897D01*
X026829Y029974D01*
X027238Y030383D01*
G37*
G36*
X027103Y030518D02*
X027180Y030441D01*
X026771Y030032D01*
X026694Y030109D01*
X027103Y030518D01*
G37*
G36*
X026962Y030659D02*
X027039Y030582D01*
X026630Y030173D01*
X026553Y030250D01*
X026962Y030659D01*
G37*
G36*
X026820Y030801D02*
X026897Y030724D01*
X026488Y030315D01*
X026411Y030392D01*
X026820Y030801D01*
G37*
G36*
X025809Y030392D02*
X025732Y030315D01*
X025323Y030724D01*
X025400Y030801D01*
X025809Y030392D01*
G37*
G36*
X025667Y030250D02*
X025590Y030173D01*
X025181Y030582D01*
X025258Y030659D01*
X025667Y030250D01*
G37*
G36*
X025526Y030109D02*
X025449Y030032D01*
X025040Y030441D01*
X025117Y030518D01*
X025526Y030109D01*
G37*
G36*
X025391Y029974D02*
X025314Y029897D01*
X024905Y030306D01*
X024982Y030383D01*
X025391Y029974D01*
G37*
G36*
X025250Y029833D02*
X025173Y029756D01*
X024764Y030165D01*
X024841Y030242D01*
X025250Y029833D01*
G37*
G36*
X025108Y029691D02*
X025031Y029614D01*
X024622Y030023D01*
X024699Y030100D01*
X025108Y029691D01*
G37*
G36*
X024974Y029557D02*
X024897Y029480D01*
X024488Y029889D01*
X024565Y029966D01*
X024974Y029557D01*
G37*
G36*
X024833Y029416D02*
X024756Y029339D01*
X024347Y029748D01*
X024424Y029825D01*
X024833Y029416D01*
G37*
G36*
X024691Y029274D02*
X024614Y029197D01*
X024205Y029606D01*
X024282Y029683D01*
X024691Y029274D01*
G37*
G36*
X024550Y029133D02*
X024473Y029056D01*
X024064Y029465D01*
X024141Y029542D01*
X024550Y029133D01*
G37*
G36*
X024416Y028999D02*
X024339Y028922D01*
X023930Y029331D01*
X024007Y029408D01*
X024416Y028999D01*
G37*
G36*
X024274Y028857D02*
X024197Y028780D01*
X023788Y029189D01*
X023865Y029266D01*
X024274Y028857D01*
G37*
G36*
X024133Y028716D02*
X024056Y028639D01*
X023647Y029048D01*
X023724Y029125D01*
X024133Y028716D01*
G37*
G36*
X023998Y028581D02*
X023921Y028504D01*
X023512Y028913D01*
X023589Y028990D01*
X023998Y028581D01*
G37*
G36*
X023857Y028440D02*
X023780Y028363D01*
X023371Y028772D01*
X023448Y028849D01*
X023857Y028440D01*
G37*
G36*
X023715Y028298D02*
X023638Y028221D01*
X023229Y028630D01*
X023306Y028707D01*
X023715Y028298D01*
G37*
D25*
X038560Y031776D03*
X039060Y031776D03*
X039560Y031776D03*
X040060Y031776D03*
X040060Y033824D03*
X039560Y033824D03*
X039060Y033824D03*
X038560Y033824D03*
D26*
X037525Y016645D03*
X037525Y015858D03*
X037525Y015071D03*
X036737Y015071D03*
X035950Y015071D03*
X035950Y015858D03*
X036737Y015858D03*
X036737Y016645D03*
X035950Y016645D03*
X035163Y016645D03*
X035163Y015858D03*
X035163Y015071D03*
X034375Y015071D03*
X034375Y015858D03*
X034375Y016645D03*
X034375Y013889D03*
X033588Y013889D03*
X033588Y013102D03*
X034375Y013102D03*
X034375Y012315D03*
X033588Y012315D03*
X035163Y012315D03*
X035163Y013102D03*
X035163Y013889D03*
X036737Y013889D03*
X036737Y013102D03*
X036737Y012315D03*
X037525Y012315D03*
X038312Y012315D03*
X038312Y013102D03*
X037525Y013102D03*
X037525Y013889D03*
X038312Y013889D03*
X026232Y013889D03*
X026232Y013102D03*
X025445Y013102D03*
X024657Y013102D03*
X024657Y012315D03*
X025445Y012315D03*
X026232Y012315D03*
X025445Y013889D03*
X024657Y013889D03*
X024657Y015071D03*
X025445Y015071D03*
X025445Y015858D03*
X024657Y015858D03*
X023870Y015858D03*
X023870Y016645D03*
X023083Y016645D03*
X022295Y016645D03*
X022295Y015858D03*
X023083Y015858D03*
X023083Y015071D03*
X022295Y015071D03*
X023870Y015071D03*
X023083Y013889D03*
X022295Y013889D03*
X022295Y013102D03*
X023083Y013102D03*
X023083Y012315D03*
X022295Y012315D03*
X021508Y012315D03*
X021508Y013102D03*
X021508Y013889D03*
X024657Y016645D03*
X025445Y016645D03*
D27*
X025445Y018023D03*
X025051Y018023D03*
X024657Y018023D03*
X024264Y018023D03*
X023870Y018023D03*
X023476Y018023D03*
X023083Y018023D03*
X022689Y018023D03*
X022295Y018023D03*
X021508Y018023D03*
X026232Y018023D03*
X033588Y018023D03*
X034375Y018023D03*
X034769Y018023D03*
X035163Y018023D03*
X035556Y018023D03*
X035950Y018023D03*
X036344Y018023D03*
X036737Y018023D03*
X037131Y018023D03*
X037525Y018023D03*
X038312Y018023D03*
X038312Y010937D03*
X037919Y010937D03*
X037525Y010937D03*
X037131Y010937D03*
X036344Y010937D03*
X035556Y010937D03*
X034769Y010937D03*
X034375Y010937D03*
X033981Y010937D03*
X033588Y010937D03*
X026232Y010937D03*
X025839Y010937D03*
X025445Y010937D03*
X025051Y010937D03*
X024264Y010937D03*
X023476Y010937D03*
X022689Y010937D03*
X022295Y010937D03*
X021901Y010937D03*
X021508Y010937D03*
D28*
X021114Y010939D03*
X023083Y010939D03*
X023870Y010939D03*
X024657Y010939D03*
X026626Y010939D03*
X033194Y010939D03*
X035163Y010939D03*
X035950Y010939D03*
X036737Y010939D03*
X038706Y010939D03*
X038706Y018021D03*
X037919Y018021D03*
X033981Y018021D03*
X033194Y018021D03*
X026626Y018021D03*
X025839Y018021D03*
X021901Y018021D03*
X021114Y018021D03*
D29*
X022590Y019487D03*
X022216Y020353D03*
X022964Y020353D03*
X023656Y020353D03*
X024404Y020353D03*
X025176Y020353D03*
X025924Y020353D03*
X025550Y019487D03*
X024030Y019487D03*
X033976Y020193D03*
X034724Y020193D03*
X034350Y019327D03*
X035816Y020273D03*
X036564Y020273D03*
X037496Y020273D03*
X038244Y020273D03*
X037870Y019407D03*
X036190Y019407D03*
D30*
X012410Y018351D03*
X012410Y017760D03*
X012410Y017169D03*
D31*
X011197Y017760D03*
D32*
X017310Y009086D03*
X017310Y012354D03*
X030030Y012354D03*
X030030Y009086D03*
D33*
X009409Y026728D03*
X009409Y030232D03*
D34*
X011732Y030232D03*
X011732Y026728D03*
D35*
X011771Y027850D03*
X011771Y028165D03*
X011771Y028480D03*
X011771Y028795D03*
X011771Y029110D03*
M02*
