%
M48
M72
T01C0.0236
T02C0.0354
T03C0.0360
T04C0.0400
T05C0.0440
T06C0.0470
T07C0.1102
%
T01
X12879Y7133
X14590Y9200
X17390Y10160
X19470Y13120
X20910Y13040
X20910Y12400
X21630Y12400
X22270Y12400
X22270Y13040
X22270Y13600
X21630Y13600
X20910Y13600
X22110Y15040
X23870Y15040
X24990Y13600
X24990Y13040
X24990Y12560
X23870Y13040
X26110Y13600
X27070Y13600
X27070Y13040
X27070Y12560
X25710Y15040
X25710Y16720
X23870Y16720
X22110Y16720
X22590Y18880
X23310Y19440
X23790Y18880
X24910Y18960
X24830Y19840
X26790Y21400
X26310Y23080
X27510Y23800
X27990Y23320
X28710Y22960
X29190Y24600
X28270Y25040
X29390Y25920
X29470Y26480
X29230Y27200
X29690Y27720
X27310Y28880
X26890Y28280
X26910Y27520
X26670Y26680
X25370Y26440
X23630Y26080
X23150Y25520
X22830Y25920
X22350Y26400
X22030Y26800
X22430Y27520
X22750Y28400
X23610Y29480
X23470Y30400
X22270Y30960
X21870Y30240
X21070Y30320
X21470Y29120
X19590Y27720
X21550Y25440
X23470Y24800
X24110Y24640
X24030Y23520
X24270Y22480
X24510Y21880
X22830Y21760
X22110Y22680
X18950Y24800
X17310Y24800
X17550Y23160
X17550Y22080
X17550Y21000
X18030Y18960
X17470Y16720
X17470Y15920
X18430Y15920
X18350Y14960
X17470Y14960
X16510Y14960
X16510Y15920
X15070Y16880
X14910Y17600
X12830Y19760
X12990Y21000
X12990Y22080
X12990Y23160
X13070Y24480
X12990Y25560
X13470Y26320
X12990Y28480
X14910Y28880
X16110Y29600
X16350Y27840
X16270Y26960
X14590Y31200
X15150Y32160
X16670Y33840
X13790Y34080
X11790Y32480
X10090Y32520
X9270Y27640
X21790Y19440
X28350Y18960
X30510Y21480
X31950Y23640
X31590Y24640
X33950Y24800
X34990Y25600
X36030Y26560
X34590Y26880
X33990Y27280
X33550Y26480
X32550Y27520
X33390Y28480
X33390Y29200
X33310Y29920
X32910Y30720
X32510Y31520
X34190Y31360
X36870Y33480
X37950Y31760
X39150Y30720
X39990Y29760
X42270Y30120
X40110Y32800
X37110Y27600
X38270Y26320
X37830Y23640
X38190Y22000
X39150Y21240
X37070Y19680
X38270Y19280
X39870Y18640
X41550Y19680
X42150Y21240
X36510Y22240
X35390Y19760
X35630Y19280
X34750Y19280
X33470Y19600
X31950Y18800
X34270Y16640
X35950Y16640
X37710Y16640
X37710Y15040
X35950Y15040
X34270Y15040
X34030Y13360
X34910Y13360
X34910Y12880
X34910Y12400
X35950Y12880
X37150Y12880
X37150Y12400
X37150Y13360
X38110Y13360
X38990Y13360
X38990Y12880
X38990Y12400
X40750Y12800
X40190Y9882
X38221Y6733
X36430Y9520
X34990Y9520
X32990Y12400
X32990Y12880
X32990Y13360
X30910Y14960
X30110Y14960
X29390Y14960
X29390Y15840
X30110Y15840
X30110Y16560
X30910Y15840
X29950Y10240
X29950Y7200
X25230Y9680
X23950Y9680
X22510Y9680
X20510Y7120
X10510Y15440
X26190Y24880
X25690Y28040
X24890Y28920
X26430Y29200
X26110Y30400
X25230Y31120
X28990Y30320
X32830Y33680
T02
X10590Y29346
X10590Y27614
T03
X22890Y32020
X23890Y32020
X24890Y32020
X25890Y32020
X26890Y32020
X27890Y32020
X28890Y32020
X28890Y33020
X27890Y33020
X26890Y33020
X25890Y33020
X24890Y33020
X23890Y33020
X22890Y33020
X34490Y32840
X35490Y32840
T04
X35530Y30580
X34530Y30580
X34530Y29580
X35530Y29580
X36530Y29580
X37530Y29580
X37530Y30580
X36530Y30580
X20010Y30580
X19010Y30580
X18010Y30580
X17010Y30580
X17010Y29580
X18010Y29580
X19010Y29580
X20010Y29580
X19570Y23640
X18570Y23640
X18570Y22640
X18570Y21640
X19570Y21640
X19570Y22640
T05
X10330Y22480
X10330Y20980
X10330Y19480
T06
X12100Y13080
X12100Y11080
X23030Y7990
X25030Y7990
X34790Y8150
X36790Y8150
T07
X10992Y7695
X41600Y7651
X30910Y32520
X20950Y32520
M30
