G75*
%MOIN*%
%OFA0B0*%
%FSLAX24Y24*%
%IPPOS*%
%LPD*%
%AMOC8*
5,1,8,0,0,1.08239X$1,22.5*
%
%ADD10C,0.0740*%
%ADD11C,0.0640*%
%ADD12C,0.1182*%
%ADD13C,0.0640*%
%ADD14OC8,0.0640*%
%ADD15OC8,0.0680*%
%ADD16R,0.0710X0.0592*%
%ADD17R,0.0671X0.0592*%
%ADD18C,0.0785*%
%ADD19C,0.0680*%
%ADD20C,0.0434*%
%ADD21C,0.0476*%
D10*
X010000Y019480D02*
X010660Y019480D01*
X010660Y020980D02*
X010000Y020980D01*
X010000Y022480D02*
X010660Y022480D01*
D11*
X034490Y032560D02*
X034490Y033120D01*
X035490Y033120D02*
X035490Y032560D01*
D12*
X010992Y007695D03*
X041600Y007651D03*
X030910Y032520D03*
X020950Y032520D03*
D13*
X022890Y033020D03*
D14*
X023890Y033020D03*
X024890Y033020D03*
X025890Y033020D03*
X026890Y033020D03*
X027890Y033020D03*
X028890Y033020D03*
X028890Y032020D03*
X027890Y032020D03*
X026890Y032020D03*
X025890Y032020D03*
X024890Y032020D03*
X023890Y032020D03*
X022890Y032020D03*
D15*
X020010Y030580D03*
X019010Y030580D03*
X018010Y030580D03*
X017010Y030580D03*
X017010Y029580D03*
X018010Y029580D03*
X019010Y029580D03*
X020010Y029580D03*
X019570Y023640D03*
X019570Y022640D03*
X019570Y021640D03*
X018570Y021640D03*
X018570Y022640D03*
X034530Y029580D03*
X035530Y029580D03*
X036530Y029580D03*
X037530Y029580D03*
X037530Y030580D03*
X036530Y030580D03*
X035530Y030580D03*
X034530Y030580D03*
D16*
X034990Y018294D03*
X034990Y017546D03*
X036190Y017546D03*
X036190Y018294D03*
X037950Y018294D03*
X037950Y017546D03*
X024990Y017546D03*
X024990Y018294D03*
X023870Y018294D03*
X023870Y017546D03*
X022830Y017546D03*
X022830Y018294D03*
D17*
X023470Y012495D03*
X023470Y011825D03*
X024190Y011825D03*
X024190Y012495D03*
X035550Y011935D03*
X036190Y011935D03*
X036190Y011265D03*
X035550Y011265D03*
D18*
X034790Y008503D02*
X034790Y007798D01*
X036790Y007798D02*
X036790Y008503D01*
X025030Y008343D02*
X025030Y007638D01*
X023030Y007638D02*
X023030Y008343D01*
X012453Y011080D02*
X011748Y011080D01*
X011748Y013080D02*
X012453Y013080D01*
D19*
X018570Y023640D03*
D20*
X010590Y027614D03*
X010590Y029346D03*
D21*
X009270Y027640D03*
X012990Y028480D03*
X014910Y028880D03*
X016110Y029600D03*
X016350Y027840D03*
X016270Y026960D03*
X017310Y024800D03*
X018950Y024800D03*
X017550Y023160D03*
X017550Y022080D03*
X017550Y021000D03*
X018030Y018960D03*
X017470Y016720D03*
X017470Y015920D03*
X018430Y015920D03*
X018350Y014960D03*
X017470Y014960D03*
X016510Y014960D03*
X016510Y015920D03*
X015070Y016880D03*
X014910Y017600D03*
X012830Y019760D03*
X012990Y021000D03*
X012990Y022080D03*
X012990Y023160D03*
X013070Y024480D03*
X012990Y025560D03*
X013470Y026320D03*
X014590Y031200D03*
X015150Y032160D03*
X016670Y033840D03*
X013790Y034080D03*
X011790Y032480D03*
X010090Y032520D03*
X019590Y027720D03*
X021470Y029120D03*
X021870Y030240D03*
X021070Y030320D03*
X022270Y030960D03*
X023470Y030400D03*
X023610Y029480D03*
X024890Y028920D03*
X025690Y028040D03*
X026890Y028280D03*
X027310Y028880D03*
X026430Y029200D03*
X026110Y030400D03*
X025230Y031120D03*
X022750Y028400D03*
X022430Y027520D03*
X022030Y026800D03*
X022350Y026400D03*
X022830Y025920D03*
X023150Y025520D03*
X023630Y026080D03*
X023470Y024800D03*
X024110Y024640D03*
X024030Y023520D03*
X024270Y022480D03*
X024510Y021880D03*
X022830Y021760D03*
X022110Y022680D03*
X021550Y025440D03*
X025370Y026440D03*
X026670Y026680D03*
X026910Y027520D03*
X029230Y027200D03*
X029690Y027720D03*
X029470Y026480D03*
X029390Y025920D03*
X028270Y025040D03*
X029190Y024600D03*
X027990Y023320D03*
X027510Y023800D03*
X026310Y023080D03*
X026790Y021400D03*
X028710Y022960D03*
X030510Y021480D03*
X031950Y023640D03*
X031590Y024640D03*
X033950Y024800D03*
X034990Y025600D03*
X036030Y026560D03*
X034590Y026880D03*
X033990Y027280D03*
X033550Y026480D03*
X032550Y027520D03*
X033390Y028480D03*
X033390Y029200D03*
X033310Y029920D03*
X032910Y030720D03*
X032510Y031520D03*
X034190Y031360D03*
X036870Y033480D03*
X037950Y031760D03*
X039150Y030720D03*
X039990Y029760D03*
X042270Y030120D03*
X040110Y032800D03*
X037110Y027600D03*
X038270Y026320D03*
X037830Y023640D03*
X038190Y022000D03*
X039150Y021240D03*
X037070Y019680D03*
X038270Y019280D03*
X039870Y018640D03*
X041550Y019680D03*
X042150Y021240D03*
X036510Y022240D03*
X035390Y019760D03*
X035630Y019280D03*
X034750Y019280D03*
X033470Y019600D03*
X031950Y018800D03*
X034270Y016640D03*
X035950Y016640D03*
X037710Y016640D03*
X037710Y015040D03*
X035950Y015040D03*
X034270Y015040D03*
X034030Y013360D03*
X034910Y013360D03*
X034910Y012880D03*
X034910Y012400D03*
X035950Y012880D03*
X037150Y012880D03*
X037150Y012400D03*
X037150Y013360D03*
X038110Y013360D03*
X038990Y013360D03*
X038990Y012880D03*
X038990Y012400D03*
X040750Y012800D03*
X040190Y009882D03*
X038221Y006733D03*
X036430Y009520D03*
X034990Y009520D03*
X032990Y012400D03*
X032990Y012880D03*
X032990Y013360D03*
X030910Y014960D03*
X030110Y014960D03*
X029390Y014960D03*
X029390Y015840D03*
X030110Y015840D03*
X030110Y016560D03*
X030910Y015840D03*
X028350Y018960D03*
X025710Y016720D03*
X023870Y016720D03*
X022110Y016720D03*
X022110Y015040D03*
X022270Y013600D03*
X021630Y013600D03*
X020910Y013600D03*
X020910Y013040D03*
X020910Y012400D03*
X021630Y012400D03*
X022270Y012400D03*
X022270Y013040D03*
X023870Y013040D03*
X024990Y013040D03*
X024990Y012560D03*
X024990Y013600D03*
X026110Y013600D03*
X027070Y013600D03*
X027070Y013040D03*
X027070Y012560D03*
X025710Y015040D03*
X023870Y015040D03*
X019470Y013120D03*
X017390Y010160D03*
X014590Y009200D03*
X012879Y007133D03*
X020510Y007120D03*
X022510Y009680D03*
X023950Y009680D03*
X025230Y009680D03*
X029950Y010240D03*
X029950Y007200D03*
X023790Y018880D03*
X023310Y019440D03*
X022590Y018880D03*
X021790Y019440D03*
X024830Y019840D03*
X024910Y018960D03*
X026190Y024880D03*
X028990Y030320D03*
X032830Y033680D03*
X010510Y015440D03*
M02*
