G75*
%MOIN*%
%OFA0B0*%
%FSLAX24Y24*%
%IPPOS*%
%LPD*%
%AMOC8*
5,1,8,0,0,1.08239X$1,22.5*
%
%ADD10C,0.0100*%
%ADD11C,0.0000*%
D10*
X008750Y006960D02*
X008750Y034160D01*
X008781Y034225D01*
X008815Y034289D01*
X008853Y034351D01*
X008894Y034411D01*
X008938Y034469D01*
X008986Y034524D01*
X009036Y034576D01*
X009089Y034626D01*
X009145Y034672D01*
X009203Y034716D01*
X009263Y034756D01*
X009326Y034793D01*
X009390Y034826D01*
X009456Y034856D01*
X009524Y034882D01*
X009593Y034905D01*
X009663Y034924D01*
X009734Y034939D01*
X009806Y034950D01*
X009878Y034957D01*
X009950Y034960D01*
X042230Y034960D01*
X043190Y034160D02*
X043190Y006800D01*
X043168Y006732D01*
X043142Y006666D01*
X043113Y006602D01*
X043081Y006539D01*
X043046Y006477D01*
X043007Y006418D01*
X042966Y006360D01*
X042921Y006305D01*
X042874Y006253D01*
X042824Y006203D01*
X042771Y006155D01*
X042716Y006110D01*
X042659Y006069D01*
X042600Y006030D01*
X042538Y005994D01*
X042475Y005962D01*
X042411Y005933D01*
X042345Y005907D01*
X042277Y005885D01*
X042209Y005866D01*
X042140Y005851D01*
X042070Y005840D01*
X009710Y005840D01*
X009642Y005862D01*
X009576Y005888D01*
X009512Y005917D01*
X009449Y005949D01*
X009387Y005984D01*
X009328Y006023D01*
X009270Y006064D01*
X009215Y006109D01*
X009163Y006156D01*
X009113Y006206D01*
X009065Y006259D01*
X009020Y006314D01*
X008979Y006371D01*
X008940Y006430D01*
X008904Y006492D01*
X008872Y006555D01*
X008843Y006619D01*
X008817Y006685D01*
X008795Y006753D01*
X008776Y006821D01*
X008761Y006890D01*
X008750Y006960D01*
X042230Y034960D02*
X042295Y034950D01*
X042360Y034937D01*
X042423Y034919D01*
X042486Y034898D01*
X042547Y034874D01*
X042607Y034846D01*
X042665Y034814D01*
X042721Y034780D01*
X042776Y034742D01*
X042827Y034701D01*
X042877Y034658D01*
X042924Y034611D01*
X042968Y034562D01*
X043009Y034511D01*
X043048Y034457D01*
X043083Y034401D01*
X043115Y034343D01*
X043143Y034284D01*
X043168Y034223D01*
X043190Y034160D01*
D11*
X030359Y032520D02*
X030361Y032567D01*
X030367Y032613D01*
X030377Y032659D01*
X030390Y032704D01*
X030408Y032747D01*
X030429Y032789D01*
X030453Y032829D01*
X030481Y032866D01*
X030512Y032901D01*
X030546Y032934D01*
X030582Y032963D01*
X030621Y032989D01*
X030662Y033012D01*
X030705Y033031D01*
X030749Y033047D01*
X030794Y033059D01*
X030840Y033067D01*
X030887Y033071D01*
X030933Y033071D01*
X030980Y033067D01*
X031026Y033059D01*
X031071Y033047D01*
X031115Y033031D01*
X031158Y033012D01*
X031199Y032989D01*
X031238Y032963D01*
X031274Y032934D01*
X031308Y032901D01*
X031339Y032866D01*
X031367Y032829D01*
X031391Y032789D01*
X031412Y032747D01*
X031430Y032704D01*
X031443Y032659D01*
X031453Y032613D01*
X031459Y032567D01*
X031461Y032520D01*
X031459Y032473D01*
X031453Y032427D01*
X031443Y032381D01*
X031430Y032336D01*
X031412Y032293D01*
X031391Y032251D01*
X031367Y032211D01*
X031339Y032174D01*
X031308Y032139D01*
X031274Y032106D01*
X031238Y032077D01*
X031199Y032051D01*
X031158Y032028D01*
X031115Y032009D01*
X031071Y031993D01*
X031026Y031981D01*
X030980Y031973D01*
X030933Y031969D01*
X030887Y031969D01*
X030840Y031973D01*
X030794Y031981D01*
X030749Y031993D01*
X030705Y032009D01*
X030662Y032028D01*
X030621Y032051D01*
X030582Y032077D01*
X030546Y032106D01*
X030512Y032139D01*
X030481Y032174D01*
X030453Y032211D01*
X030429Y032251D01*
X030408Y032293D01*
X030390Y032336D01*
X030377Y032381D01*
X030367Y032427D01*
X030361Y032473D01*
X030359Y032520D01*
X020399Y032520D02*
X020401Y032567D01*
X020407Y032613D01*
X020417Y032659D01*
X020430Y032704D01*
X020448Y032747D01*
X020469Y032789D01*
X020493Y032829D01*
X020521Y032866D01*
X020552Y032901D01*
X020586Y032934D01*
X020622Y032963D01*
X020661Y032989D01*
X020702Y033012D01*
X020745Y033031D01*
X020789Y033047D01*
X020834Y033059D01*
X020880Y033067D01*
X020927Y033071D01*
X020973Y033071D01*
X021020Y033067D01*
X021066Y033059D01*
X021111Y033047D01*
X021155Y033031D01*
X021198Y033012D01*
X021239Y032989D01*
X021278Y032963D01*
X021314Y032934D01*
X021348Y032901D01*
X021379Y032866D01*
X021407Y032829D01*
X021431Y032789D01*
X021452Y032747D01*
X021470Y032704D01*
X021483Y032659D01*
X021493Y032613D01*
X021499Y032567D01*
X021501Y032520D01*
X021499Y032473D01*
X021493Y032427D01*
X021483Y032381D01*
X021470Y032336D01*
X021452Y032293D01*
X021431Y032251D01*
X021407Y032211D01*
X021379Y032174D01*
X021348Y032139D01*
X021314Y032106D01*
X021278Y032077D01*
X021239Y032051D01*
X021198Y032028D01*
X021155Y032009D01*
X021111Y031993D01*
X021066Y031981D01*
X021020Y031973D01*
X020973Y031969D01*
X020927Y031969D01*
X020880Y031973D01*
X020834Y031981D01*
X020789Y031993D01*
X020745Y032009D01*
X020702Y032028D01*
X020661Y032051D01*
X020622Y032077D01*
X020586Y032106D01*
X020552Y032139D01*
X020521Y032174D01*
X020493Y032211D01*
X020469Y032251D01*
X020448Y032293D01*
X020430Y032336D01*
X020417Y032381D01*
X020407Y032427D01*
X020401Y032473D01*
X020399Y032520D01*
X010413Y029346D02*
X010415Y029372D01*
X010421Y029398D01*
X010431Y029423D01*
X010444Y029446D01*
X010460Y029466D01*
X010480Y029484D01*
X010502Y029499D01*
X010525Y029511D01*
X010551Y029519D01*
X010577Y029523D01*
X010603Y029523D01*
X010629Y029519D01*
X010655Y029511D01*
X010679Y029499D01*
X010700Y029484D01*
X010720Y029466D01*
X010736Y029446D01*
X010749Y029423D01*
X010759Y029398D01*
X010765Y029372D01*
X010767Y029346D01*
X010765Y029320D01*
X010759Y029294D01*
X010749Y029269D01*
X010736Y029246D01*
X010720Y029226D01*
X010700Y029208D01*
X010678Y029193D01*
X010655Y029181D01*
X010629Y029173D01*
X010603Y029169D01*
X010577Y029169D01*
X010551Y029173D01*
X010525Y029181D01*
X010501Y029193D01*
X010480Y029208D01*
X010460Y029226D01*
X010444Y029246D01*
X010431Y029269D01*
X010421Y029294D01*
X010415Y029320D01*
X010413Y029346D01*
X010413Y027614D02*
X010415Y027640D01*
X010421Y027666D01*
X010431Y027691D01*
X010444Y027714D01*
X010460Y027734D01*
X010480Y027752D01*
X010502Y027767D01*
X010525Y027779D01*
X010551Y027787D01*
X010577Y027791D01*
X010603Y027791D01*
X010629Y027787D01*
X010655Y027779D01*
X010679Y027767D01*
X010700Y027752D01*
X010720Y027734D01*
X010736Y027714D01*
X010749Y027691D01*
X010759Y027666D01*
X010765Y027640D01*
X010767Y027614D01*
X010765Y027588D01*
X010759Y027562D01*
X010749Y027537D01*
X010736Y027514D01*
X010720Y027494D01*
X010700Y027476D01*
X010678Y027461D01*
X010655Y027449D01*
X010629Y027441D01*
X010603Y027437D01*
X010577Y027437D01*
X010551Y027441D01*
X010525Y027449D01*
X010501Y027461D01*
X010480Y027476D01*
X010460Y027494D01*
X010444Y027514D01*
X010431Y027537D01*
X010421Y027562D01*
X010415Y027588D01*
X010413Y027614D01*
X010441Y007695D02*
X010443Y007742D01*
X010449Y007788D01*
X010459Y007834D01*
X010472Y007879D01*
X010490Y007922D01*
X010511Y007964D01*
X010535Y008004D01*
X010563Y008041D01*
X010594Y008076D01*
X010628Y008109D01*
X010664Y008138D01*
X010703Y008164D01*
X010744Y008187D01*
X010787Y008206D01*
X010831Y008222D01*
X010876Y008234D01*
X010922Y008242D01*
X010969Y008246D01*
X011015Y008246D01*
X011062Y008242D01*
X011108Y008234D01*
X011153Y008222D01*
X011197Y008206D01*
X011240Y008187D01*
X011281Y008164D01*
X011320Y008138D01*
X011356Y008109D01*
X011390Y008076D01*
X011421Y008041D01*
X011449Y008004D01*
X011473Y007964D01*
X011494Y007922D01*
X011512Y007879D01*
X011525Y007834D01*
X011535Y007788D01*
X011541Y007742D01*
X011543Y007695D01*
X011541Y007648D01*
X011535Y007602D01*
X011525Y007556D01*
X011512Y007511D01*
X011494Y007468D01*
X011473Y007426D01*
X011449Y007386D01*
X011421Y007349D01*
X011390Y007314D01*
X011356Y007281D01*
X011320Y007252D01*
X011281Y007226D01*
X011240Y007203D01*
X011197Y007184D01*
X011153Y007168D01*
X011108Y007156D01*
X011062Y007148D01*
X011015Y007144D01*
X010969Y007144D01*
X010922Y007148D01*
X010876Y007156D01*
X010831Y007168D01*
X010787Y007184D01*
X010744Y007203D01*
X010703Y007226D01*
X010664Y007252D01*
X010628Y007281D01*
X010594Y007314D01*
X010563Y007349D01*
X010535Y007386D01*
X010511Y007426D01*
X010490Y007468D01*
X010472Y007511D01*
X010459Y007556D01*
X010449Y007602D01*
X010443Y007648D01*
X010441Y007695D01*
X041049Y007651D02*
X041051Y007698D01*
X041057Y007744D01*
X041067Y007790D01*
X041080Y007835D01*
X041098Y007878D01*
X041119Y007920D01*
X041143Y007960D01*
X041171Y007997D01*
X041202Y008032D01*
X041236Y008065D01*
X041272Y008094D01*
X041311Y008120D01*
X041352Y008143D01*
X041395Y008162D01*
X041439Y008178D01*
X041484Y008190D01*
X041530Y008198D01*
X041577Y008202D01*
X041623Y008202D01*
X041670Y008198D01*
X041716Y008190D01*
X041761Y008178D01*
X041805Y008162D01*
X041848Y008143D01*
X041889Y008120D01*
X041928Y008094D01*
X041964Y008065D01*
X041998Y008032D01*
X042029Y007997D01*
X042057Y007960D01*
X042081Y007920D01*
X042102Y007878D01*
X042120Y007835D01*
X042133Y007790D01*
X042143Y007744D01*
X042149Y007698D01*
X042151Y007651D01*
X042149Y007604D01*
X042143Y007558D01*
X042133Y007512D01*
X042120Y007467D01*
X042102Y007424D01*
X042081Y007382D01*
X042057Y007342D01*
X042029Y007305D01*
X041998Y007270D01*
X041964Y007237D01*
X041928Y007208D01*
X041889Y007182D01*
X041848Y007159D01*
X041805Y007140D01*
X041761Y007124D01*
X041716Y007112D01*
X041670Y007104D01*
X041623Y007100D01*
X041577Y007100D01*
X041530Y007104D01*
X041484Y007112D01*
X041439Y007124D01*
X041395Y007140D01*
X041352Y007159D01*
X041311Y007182D01*
X041272Y007208D01*
X041236Y007237D01*
X041202Y007270D01*
X041171Y007305D01*
X041143Y007342D01*
X041119Y007382D01*
X041098Y007424D01*
X041080Y007467D01*
X041067Y007512D01*
X041057Y007558D01*
X041051Y007604D01*
X041049Y007651D01*
M02*
