G75*
%MOIN*%
%OFA0B0*%
%FSLAX24Y24*%
%IPPOS*%
%LPD*%
%AMOC8*
5,1,8,0,0,1.08239X$1,22.5*
%
%ADD10R,0.0671X0.0671*%
%ADD11R,0.0592X0.0710*%
%ADD12C,0.0680*%
%ADD13OC8,0.0600*%
%ADD14R,0.0592X0.0671*%
%ADD15C,0.1182*%
%ADD16C,0.0476*%
%ADD17C,0.0437*%
D10*
X010690Y014372D03*
X010690Y015749D03*
D11*
X009824Y015800D03*
X009076Y015800D03*
D12*
X009570Y014840D02*
X009570Y014240D01*
X008570Y014240D02*
X008570Y014840D01*
X007570Y014840D02*
X007570Y014240D01*
X006570Y014240D02*
X006570Y014840D01*
X003010Y010700D02*
X002410Y010700D01*
X002410Y009700D02*
X003010Y009700D01*
X003010Y008700D02*
X002410Y008700D01*
X002410Y007700D02*
X003010Y007700D01*
X012870Y008700D02*
X013470Y008700D01*
X013470Y009700D02*
X012870Y009700D01*
X012870Y010700D02*
X013470Y010700D01*
X013470Y011700D02*
X012870Y011700D01*
D13*
X003390Y002840D03*
X003390Y003840D03*
X006750Y003840D03*
X006750Y002840D03*
X009870Y002840D03*
X009870Y003840D03*
X012870Y003840D03*
X012870Y002840D03*
D14*
X008405Y004540D03*
X007735Y004540D03*
D15*
X004704Y005794D03*
X004704Y012487D03*
X003270Y014980D03*
X011397Y012487D03*
X012990Y014980D03*
X011397Y005794D03*
D16*
X011550Y007060D03*
X011310Y008140D03*
X010230Y008020D03*
X009510Y007660D03*
X009390Y007180D03*
X010110Y005980D03*
X010950Y004540D03*
X012750Y005020D03*
X013470Y007660D03*
X011310Y009580D03*
X010350Y010900D03*
X009990Y011380D03*
X008910Y010180D03*
X009390Y009820D03*
X009270Y009340D03*
X008910Y008860D03*
X008430Y008380D03*
X007950Y008860D03*
X007950Y009700D03*
X008430Y010660D03*
X007950Y012220D03*
X008617Y012873D03*
X007110Y013060D03*
X006270Y012460D03*
X006270Y011020D03*
X006030Y009700D03*
X005070Y009460D03*
X003670Y011180D03*
X002670Y013180D03*
X005190Y014500D03*
X006390Y015700D03*
X010590Y013660D03*
X013110Y012940D03*
X011430Y011140D03*
X007270Y007780D03*
X007230Y006580D03*
X005550Y007060D03*
X003990Y007060D03*
X003030Y004780D03*
X005630Y004460D03*
D17*
X007270Y005800D03*
X007670Y005800D03*
X008070Y005800D03*
X008470Y005800D03*
X008850Y005800D03*
M02*
