G75*
%MOIN*%
%OFA0B0*%
%FSLAX24Y24*%
%IPPOS*%
%LPD*%
%AMOC8*
5,1,8,0,0,1.08239X$1,22.5*
%
%ADD10C,0.0000*%
%ADD11C,0.0040*%
%ADD12C,0.0060*%
%ADD13C,0.0050*%
%ADD14C,0.0080*%
%ADD15C,0.0143*%
%ADD16C,0.0030*%
D10*
X001830Y001900D02*
X001830Y016477D01*
X014440Y016477D01*
X014440Y001900D01*
X001830Y001900D01*
X004153Y005794D02*
X004155Y005841D01*
X004161Y005887D01*
X004171Y005933D01*
X004184Y005978D01*
X004202Y006021D01*
X004223Y006063D01*
X004247Y006103D01*
X004275Y006140D01*
X004306Y006175D01*
X004340Y006208D01*
X004376Y006237D01*
X004415Y006263D01*
X004456Y006286D01*
X004499Y006305D01*
X004543Y006321D01*
X004588Y006333D01*
X004634Y006341D01*
X004681Y006345D01*
X004727Y006345D01*
X004774Y006341D01*
X004820Y006333D01*
X004865Y006321D01*
X004909Y006305D01*
X004952Y006286D01*
X004993Y006263D01*
X005032Y006237D01*
X005068Y006208D01*
X005102Y006175D01*
X005133Y006140D01*
X005161Y006103D01*
X005185Y006063D01*
X005206Y006021D01*
X005224Y005978D01*
X005237Y005933D01*
X005247Y005887D01*
X005253Y005841D01*
X005255Y005794D01*
X005253Y005747D01*
X005247Y005701D01*
X005237Y005655D01*
X005224Y005610D01*
X005206Y005567D01*
X005185Y005525D01*
X005161Y005485D01*
X005133Y005448D01*
X005102Y005413D01*
X005068Y005380D01*
X005032Y005351D01*
X004993Y005325D01*
X004952Y005302D01*
X004909Y005283D01*
X004865Y005267D01*
X004820Y005255D01*
X004774Y005247D01*
X004727Y005243D01*
X004681Y005243D01*
X004634Y005247D01*
X004588Y005255D01*
X004543Y005267D01*
X004499Y005283D01*
X004456Y005302D01*
X004415Y005325D01*
X004376Y005351D01*
X004340Y005380D01*
X004306Y005413D01*
X004275Y005448D01*
X004247Y005485D01*
X004223Y005525D01*
X004202Y005567D01*
X004184Y005610D01*
X004171Y005655D01*
X004161Y005701D01*
X004155Y005747D01*
X004153Y005794D01*
X004153Y012487D02*
X004155Y012534D01*
X004161Y012580D01*
X004171Y012626D01*
X004184Y012671D01*
X004202Y012714D01*
X004223Y012756D01*
X004247Y012796D01*
X004275Y012833D01*
X004306Y012868D01*
X004340Y012901D01*
X004376Y012930D01*
X004415Y012956D01*
X004456Y012979D01*
X004499Y012998D01*
X004543Y013014D01*
X004588Y013026D01*
X004634Y013034D01*
X004681Y013038D01*
X004727Y013038D01*
X004774Y013034D01*
X004820Y013026D01*
X004865Y013014D01*
X004909Y012998D01*
X004952Y012979D01*
X004993Y012956D01*
X005032Y012930D01*
X005068Y012901D01*
X005102Y012868D01*
X005133Y012833D01*
X005161Y012796D01*
X005185Y012756D01*
X005206Y012714D01*
X005224Y012671D01*
X005237Y012626D01*
X005247Y012580D01*
X005253Y012534D01*
X005255Y012487D01*
X005253Y012440D01*
X005247Y012394D01*
X005237Y012348D01*
X005224Y012303D01*
X005206Y012260D01*
X005185Y012218D01*
X005161Y012178D01*
X005133Y012141D01*
X005102Y012106D01*
X005068Y012073D01*
X005032Y012044D01*
X004993Y012018D01*
X004952Y011995D01*
X004909Y011976D01*
X004865Y011960D01*
X004820Y011948D01*
X004774Y011940D01*
X004727Y011936D01*
X004681Y011936D01*
X004634Y011940D01*
X004588Y011948D01*
X004543Y011960D01*
X004499Y011976D01*
X004456Y011995D01*
X004415Y012018D01*
X004376Y012044D01*
X004340Y012073D01*
X004306Y012106D01*
X004275Y012141D01*
X004247Y012178D01*
X004223Y012218D01*
X004202Y012260D01*
X004184Y012303D01*
X004171Y012348D01*
X004161Y012394D01*
X004155Y012440D01*
X004153Y012487D01*
X002719Y014980D02*
X002721Y015027D01*
X002727Y015073D01*
X002737Y015119D01*
X002750Y015164D01*
X002768Y015207D01*
X002789Y015249D01*
X002813Y015289D01*
X002841Y015326D01*
X002872Y015361D01*
X002906Y015394D01*
X002942Y015423D01*
X002981Y015449D01*
X003022Y015472D01*
X003065Y015491D01*
X003109Y015507D01*
X003154Y015519D01*
X003200Y015527D01*
X003247Y015531D01*
X003293Y015531D01*
X003340Y015527D01*
X003386Y015519D01*
X003431Y015507D01*
X003475Y015491D01*
X003518Y015472D01*
X003559Y015449D01*
X003598Y015423D01*
X003634Y015394D01*
X003668Y015361D01*
X003699Y015326D01*
X003727Y015289D01*
X003751Y015249D01*
X003772Y015207D01*
X003790Y015164D01*
X003803Y015119D01*
X003813Y015073D01*
X003819Y015027D01*
X003821Y014980D01*
X003819Y014933D01*
X003813Y014887D01*
X003803Y014841D01*
X003790Y014796D01*
X003772Y014753D01*
X003751Y014711D01*
X003727Y014671D01*
X003699Y014634D01*
X003668Y014599D01*
X003634Y014566D01*
X003598Y014537D01*
X003559Y014511D01*
X003518Y014488D01*
X003475Y014469D01*
X003431Y014453D01*
X003386Y014441D01*
X003340Y014433D01*
X003293Y014429D01*
X003247Y014429D01*
X003200Y014433D01*
X003154Y014441D01*
X003109Y014453D01*
X003065Y014469D01*
X003022Y014488D01*
X002981Y014511D01*
X002942Y014537D01*
X002906Y014566D01*
X002872Y014599D01*
X002841Y014634D01*
X002813Y014671D01*
X002789Y014711D01*
X002768Y014753D01*
X002750Y014796D01*
X002737Y014841D01*
X002727Y014887D01*
X002721Y014933D01*
X002719Y014980D01*
X010846Y012487D02*
X010848Y012534D01*
X010854Y012580D01*
X010864Y012626D01*
X010877Y012671D01*
X010895Y012714D01*
X010916Y012756D01*
X010940Y012796D01*
X010968Y012833D01*
X010999Y012868D01*
X011033Y012901D01*
X011069Y012930D01*
X011108Y012956D01*
X011149Y012979D01*
X011192Y012998D01*
X011236Y013014D01*
X011281Y013026D01*
X011327Y013034D01*
X011374Y013038D01*
X011420Y013038D01*
X011467Y013034D01*
X011513Y013026D01*
X011558Y013014D01*
X011602Y012998D01*
X011645Y012979D01*
X011686Y012956D01*
X011725Y012930D01*
X011761Y012901D01*
X011795Y012868D01*
X011826Y012833D01*
X011854Y012796D01*
X011878Y012756D01*
X011899Y012714D01*
X011917Y012671D01*
X011930Y012626D01*
X011940Y012580D01*
X011946Y012534D01*
X011948Y012487D01*
X011946Y012440D01*
X011940Y012394D01*
X011930Y012348D01*
X011917Y012303D01*
X011899Y012260D01*
X011878Y012218D01*
X011854Y012178D01*
X011826Y012141D01*
X011795Y012106D01*
X011761Y012073D01*
X011725Y012044D01*
X011686Y012018D01*
X011645Y011995D01*
X011602Y011976D01*
X011558Y011960D01*
X011513Y011948D01*
X011467Y011940D01*
X011420Y011936D01*
X011374Y011936D01*
X011327Y011940D01*
X011281Y011948D01*
X011236Y011960D01*
X011192Y011976D01*
X011149Y011995D01*
X011108Y012018D01*
X011069Y012044D01*
X011033Y012073D01*
X010999Y012106D01*
X010968Y012141D01*
X010940Y012178D01*
X010916Y012218D01*
X010895Y012260D01*
X010877Y012303D01*
X010864Y012348D01*
X010854Y012394D01*
X010848Y012440D01*
X010846Y012487D01*
X012439Y014980D02*
X012441Y015027D01*
X012447Y015073D01*
X012457Y015119D01*
X012470Y015164D01*
X012488Y015207D01*
X012509Y015249D01*
X012533Y015289D01*
X012561Y015326D01*
X012592Y015361D01*
X012626Y015394D01*
X012662Y015423D01*
X012701Y015449D01*
X012742Y015472D01*
X012785Y015491D01*
X012829Y015507D01*
X012874Y015519D01*
X012920Y015527D01*
X012967Y015531D01*
X013013Y015531D01*
X013060Y015527D01*
X013106Y015519D01*
X013151Y015507D01*
X013195Y015491D01*
X013238Y015472D01*
X013279Y015449D01*
X013318Y015423D01*
X013354Y015394D01*
X013388Y015361D01*
X013419Y015326D01*
X013447Y015289D01*
X013471Y015249D01*
X013492Y015207D01*
X013510Y015164D01*
X013523Y015119D01*
X013533Y015073D01*
X013539Y015027D01*
X013541Y014980D01*
X013539Y014933D01*
X013533Y014887D01*
X013523Y014841D01*
X013510Y014796D01*
X013492Y014753D01*
X013471Y014711D01*
X013447Y014671D01*
X013419Y014634D01*
X013388Y014599D01*
X013354Y014566D01*
X013318Y014537D01*
X013279Y014511D01*
X013238Y014488D01*
X013195Y014469D01*
X013151Y014453D01*
X013106Y014441D01*
X013060Y014433D01*
X013013Y014429D01*
X012967Y014429D01*
X012920Y014433D01*
X012874Y014441D01*
X012829Y014453D01*
X012785Y014469D01*
X012742Y014488D01*
X012701Y014511D01*
X012662Y014537D01*
X012626Y014566D01*
X012592Y014599D01*
X012561Y014634D01*
X012533Y014671D01*
X012509Y014711D01*
X012488Y014753D01*
X012470Y014796D01*
X012457Y014841D01*
X012447Y014887D01*
X012441Y014933D01*
X012439Y014980D01*
X010846Y005794D02*
X010848Y005841D01*
X010854Y005887D01*
X010864Y005933D01*
X010877Y005978D01*
X010895Y006021D01*
X010916Y006063D01*
X010940Y006103D01*
X010968Y006140D01*
X010999Y006175D01*
X011033Y006208D01*
X011069Y006237D01*
X011108Y006263D01*
X011149Y006286D01*
X011192Y006305D01*
X011236Y006321D01*
X011281Y006333D01*
X011327Y006341D01*
X011374Y006345D01*
X011420Y006345D01*
X011467Y006341D01*
X011513Y006333D01*
X011558Y006321D01*
X011602Y006305D01*
X011645Y006286D01*
X011686Y006263D01*
X011725Y006237D01*
X011761Y006208D01*
X011795Y006175D01*
X011826Y006140D01*
X011854Y006103D01*
X011878Y006063D01*
X011899Y006021D01*
X011917Y005978D01*
X011930Y005933D01*
X011940Y005887D01*
X011946Y005841D01*
X011948Y005794D01*
X011946Y005747D01*
X011940Y005701D01*
X011930Y005655D01*
X011917Y005610D01*
X011899Y005567D01*
X011878Y005525D01*
X011854Y005485D01*
X011826Y005448D01*
X011795Y005413D01*
X011761Y005380D01*
X011725Y005351D01*
X011686Y005325D01*
X011645Y005302D01*
X011602Y005283D01*
X011558Y005267D01*
X011513Y005255D01*
X011467Y005247D01*
X011420Y005243D01*
X011374Y005243D01*
X011327Y005247D01*
X011281Y005255D01*
X011236Y005267D01*
X011192Y005283D01*
X011149Y005302D01*
X011108Y005325D01*
X011069Y005351D01*
X011033Y005380D01*
X010999Y005413D01*
X010968Y005448D01*
X010940Y005485D01*
X010916Y005525D01*
X010895Y005567D01*
X010877Y005610D01*
X010864Y005655D01*
X010854Y005701D01*
X010848Y005747D01*
X010846Y005794D01*
D11*
X010067Y005867D02*
X010067Y005944D01*
X009991Y006021D01*
X009837Y006021D01*
X009760Y005944D01*
X009607Y005944D02*
X009530Y006021D01*
X009377Y006021D01*
X009300Y005944D01*
X009300Y005637D01*
X009377Y005560D01*
X009530Y005560D01*
X009607Y005637D01*
X009760Y005560D02*
X010067Y005867D01*
X010067Y005560D02*
X009760Y005560D01*
X009796Y004511D02*
X009950Y004357D01*
X010103Y004511D01*
X010103Y004050D01*
X010256Y004050D02*
X010487Y004050D01*
X010563Y004127D01*
X010563Y004204D01*
X010487Y004281D01*
X010256Y004281D01*
X010256Y004511D02*
X010487Y004511D01*
X010563Y004434D01*
X010563Y004357D01*
X010487Y004281D01*
X010256Y004511D02*
X010256Y004050D01*
X009796Y004050D02*
X009796Y004511D01*
X009643Y004511D02*
X009643Y004050D01*
X009336Y004050D02*
X009336Y004511D01*
X009489Y004357D01*
X009643Y004511D01*
X009182Y004434D02*
X009182Y004357D01*
X008875Y004050D01*
X009182Y004050D01*
X009182Y004434D02*
X009105Y004511D01*
X008952Y004511D01*
X008875Y004434D01*
X008722Y004434D02*
X008722Y004127D01*
X008645Y004050D01*
X008492Y004050D01*
X008415Y004127D01*
X008415Y004434D01*
X008492Y004511D01*
X008645Y004511D01*
X008722Y004434D01*
X008568Y004204D02*
X008722Y004050D01*
X008610Y003701D02*
X008150Y003701D01*
X008380Y003471D01*
X008380Y003778D01*
X008533Y003317D02*
X008610Y003241D01*
X008610Y003087D01*
X008533Y003010D01*
X008226Y003010D01*
X008150Y003087D01*
X008150Y003241D01*
X008226Y003317D01*
X008610Y003050D02*
X008686Y003127D01*
X008763Y003127D01*
X008840Y003050D01*
X008917Y003127D01*
X008993Y003127D01*
X009070Y003050D01*
X009070Y002897D01*
X008993Y002820D01*
X009070Y002667D02*
X008917Y002513D01*
X008917Y002590D02*
X008917Y002360D01*
X009070Y002360D02*
X008610Y002360D01*
X008610Y002590D01*
X008686Y002667D01*
X008840Y002667D01*
X008917Y002590D01*
X008686Y002820D02*
X008610Y002897D01*
X008610Y003050D01*
X008840Y003050D02*
X008840Y002974D01*
X007470Y004106D02*
X007470Y004260D01*
X007393Y004336D01*
X007470Y004490D02*
X007163Y004797D01*
X007086Y004797D01*
X007010Y004720D01*
X007010Y004566D01*
X007086Y004490D01*
X007086Y004336D02*
X007010Y004260D01*
X007010Y004106D01*
X007086Y004029D01*
X007393Y004029D01*
X007470Y004106D01*
X007470Y004490D02*
X007470Y004797D01*
X007470Y004950D02*
X007470Y005257D01*
X007470Y005104D02*
X007010Y005104D01*
X007163Y004950D01*
X005753Y006335D02*
X005428Y006010D01*
X005319Y006118D02*
X005536Y005901D01*
X005536Y006335D02*
X005753Y006335D01*
X005482Y006498D02*
X005265Y006281D01*
X005156Y006281D01*
X005048Y006390D01*
X005048Y006498D01*
X005265Y006715D01*
X005373Y006715D01*
X005482Y006607D01*
X005482Y006498D01*
X005211Y006444D02*
X005211Y006227D01*
X003790Y006190D02*
X003483Y006497D01*
X003406Y006497D01*
X003330Y006420D01*
X003330Y006267D01*
X003406Y006190D01*
X003406Y006037D02*
X003330Y005960D01*
X003330Y005806D01*
X003406Y005730D01*
X003406Y005576D02*
X003330Y005500D01*
X003330Y005346D01*
X003406Y005269D01*
X003713Y005269D01*
X003790Y005346D01*
X003790Y005500D01*
X003713Y005576D01*
X003790Y005730D02*
X003483Y006037D01*
X003406Y006037D01*
X003790Y006037D02*
X003790Y005730D01*
X003790Y006190D02*
X003790Y006497D01*
X004486Y008229D02*
X004793Y008229D01*
X004870Y008306D01*
X004870Y008460D01*
X004793Y008536D01*
X004870Y008690D02*
X004563Y008997D01*
X004486Y008997D01*
X004410Y008920D01*
X004410Y008766D01*
X004486Y008690D01*
X004486Y008536D02*
X004410Y008460D01*
X004410Y008306D01*
X004486Y008229D01*
X004870Y008690D02*
X004870Y008997D01*
X004793Y009150D02*
X004870Y009227D01*
X004870Y009380D01*
X004793Y009457D01*
X004640Y009457D01*
X004563Y009380D01*
X004563Y009304D01*
X004640Y009150D01*
X004410Y009150D01*
X004410Y009457D01*
X004430Y010840D02*
X004430Y011301D01*
X004660Y011301D01*
X004737Y011224D01*
X004737Y011071D01*
X004660Y010994D01*
X004430Y010994D01*
X004583Y010994D02*
X004737Y010840D01*
X004890Y010840D02*
X005197Y010840D01*
X005044Y010840D02*
X005044Y011301D01*
X004890Y011147D01*
X005351Y011071D02*
X005504Y011147D01*
X005581Y011147D01*
X005658Y011071D01*
X005658Y010917D01*
X005581Y010840D01*
X005428Y010840D01*
X005351Y010917D01*
X005351Y011071D02*
X005351Y011301D01*
X005658Y011301D01*
X006477Y012260D02*
X006630Y012260D01*
X006707Y012337D01*
X006860Y012337D02*
X006937Y012260D01*
X007091Y012260D01*
X007167Y012337D01*
X007167Y012491D01*
X007091Y012567D01*
X007014Y012567D01*
X006860Y012491D01*
X006860Y012721D01*
X007167Y012721D01*
X006707Y012644D02*
X006630Y012721D01*
X006477Y012721D01*
X006400Y012644D01*
X006400Y012337D01*
X006477Y012260D01*
X008920Y013877D02*
X008997Y013800D01*
X009150Y013800D01*
X009227Y013877D01*
X009380Y013877D02*
X009457Y013800D01*
X009611Y013800D01*
X009687Y013877D01*
X009687Y013954D01*
X009611Y014031D01*
X009380Y014031D01*
X009380Y013877D01*
X009380Y014031D02*
X009534Y014184D01*
X009687Y014261D01*
X009227Y014184D02*
X009150Y014261D01*
X008997Y014261D01*
X008920Y014184D01*
X008920Y013877D01*
X009097Y013461D02*
X009020Y013384D01*
X009020Y013077D01*
X009097Y013000D01*
X009250Y013000D01*
X009327Y013077D01*
X009480Y013000D02*
X009787Y013000D01*
X009634Y013000D02*
X009634Y013461D01*
X009480Y013307D01*
X009327Y013384D02*
X009250Y013461D01*
X009097Y013461D01*
X009941Y013461D02*
X009941Y013231D01*
X010094Y013307D01*
X010171Y013307D01*
X010248Y013231D01*
X010248Y013077D01*
X010171Y013000D01*
X010018Y013000D01*
X009941Y013077D01*
X009941Y013461D02*
X010248Y013461D01*
X011150Y010928D02*
X011226Y010928D01*
X011533Y010621D01*
X011610Y010621D01*
X011610Y010468D02*
X011610Y010161D01*
X011610Y010314D02*
X011150Y010314D01*
X011303Y010161D01*
X011226Y010007D02*
X011380Y010007D01*
X011457Y009931D01*
X011457Y009700D01*
X011610Y009700D02*
X011150Y009700D01*
X011150Y009931D01*
X011226Y010007D01*
X011457Y009854D02*
X011610Y010007D01*
X011150Y010621D02*
X011150Y010928D01*
X012190Y008641D02*
X012420Y008641D01*
X012497Y008564D01*
X012497Y008411D01*
X012420Y008334D01*
X012190Y008334D01*
X012343Y008334D02*
X012497Y008180D01*
X012650Y008257D02*
X012727Y008180D01*
X012881Y008180D01*
X012957Y008257D01*
X012957Y008411D01*
X012881Y008487D01*
X012804Y008487D01*
X012650Y008411D01*
X012650Y008641D01*
X012957Y008641D01*
X012190Y008641D02*
X012190Y008180D01*
X013190Y007321D02*
X013420Y007321D01*
X013497Y007244D01*
X013497Y007091D01*
X013420Y007014D01*
X013190Y007014D01*
X013343Y007014D02*
X013497Y006860D01*
X013650Y007091D02*
X013957Y007091D01*
X014111Y007091D02*
X014111Y007321D01*
X014418Y007321D01*
X014341Y007167D02*
X014264Y007167D01*
X014111Y007091D01*
X014111Y006937D02*
X014188Y006860D01*
X014341Y006860D01*
X014418Y006937D01*
X014418Y007091D01*
X014341Y007167D01*
X013881Y007321D02*
X013881Y006860D01*
X013650Y007091D02*
X013881Y007321D01*
X013190Y007321D02*
X013190Y006860D01*
X013326Y004511D02*
X013019Y004511D01*
X012865Y004281D02*
X012558Y004281D01*
X012405Y004434D02*
X012405Y004127D01*
X012328Y004050D01*
X012175Y004050D01*
X012098Y004127D01*
X012405Y004434D01*
X012328Y004511D01*
X012175Y004511D01*
X012098Y004434D01*
X012098Y004127D01*
X011945Y004434D02*
X011638Y004127D01*
X011638Y004050D01*
X011484Y004050D02*
X011177Y004050D01*
X011331Y004050D02*
X011331Y004511D01*
X011177Y004357D01*
X011024Y004511D02*
X010717Y004511D01*
X010717Y004050D01*
X010986Y003778D02*
X011063Y003778D01*
X011140Y003701D01*
X011217Y003778D01*
X011293Y003778D01*
X011370Y003701D01*
X011370Y003548D01*
X011293Y003471D01*
X011293Y003317D02*
X011370Y003241D01*
X011370Y003087D01*
X011293Y003010D01*
X010986Y003010D01*
X010910Y003087D01*
X010910Y003241D01*
X010986Y003317D01*
X010986Y003471D02*
X010910Y003548D01*
X010910Y003701D01*
X010986Y003778D01*
X011140Y003701D02*
X011140Y003624D01*
X011446Y003127D02*
X011370Y003050D01*
X011370Y002897D01*
X011446Y002820D01*
X011446Y002667D02*
X011370Y002590D01*
X011370Y002360D01*
X011830Y002360D01*
X011677Y002360D02*
X011677Y002590D01*
X011600Y002667D01*
X011446Y002667D01*
X011677Y002513D02*
X011830Y002667D01*
X011830Y002820D02*
X011523Y003127D01*
X011446Y003127D01*
X011830Y003127D02*
X011830Y002820D01*
X012710Y002960D02*
X012710Y003191D01*
X012786Y003267D01*
X012940Y003267D01*
X013017Y003191D01*
X013017Y002960D01*
X013170Y002960D02*
X012710Y002960D01*
X013017Y003114D02*
X013170Y003267D01*
X013170Y003421D02*
X013170Y003728D01*
X013170Y003574D02*
X012710Y003574D01*
X012863Y003421D01*
X013019Y004050D02*
X013019Y004127D01*
X013326Y004434D01*
X013326Y004511D01*
X013479Y004281D02*
X013786Y004281D01*
X013940Y004281D02*
X014093Y004281D01*
X013940Y004511D02*
X014247Y004511D01*
X013940Y004511D02*
X013940Y004050D01*
X011945Y004434D02*
X011945Y004511D01*
X011638Y004511D01*
X010870Y004281D02*
X010717Y004281D01*
X010700Y007860D02*
X011007Y007860D01*
X010854Y007860D02*
X010854Y008321D01*
X010700Y008167D01*
X010547Y008244D02*
X010470Y008321D01*
X010317Y008321D01*
X010240Y008244D01*
X010240Y007937D01*
X010317Y007860D01*
X010470Y007860D01*
X010547Y007937D01*
X005710Y003050D02*
X005250Y003050D01*
X005480Y002820D01*
X005480Y003127D01*
X005490Y003087D02*
X005490Y003241D01*
X005413Y003317D01*
X005413Y003471D02*
X005490Y003471D01*
X005413Y003471D02*
X005106Y003778D01*
X005030Y003778D01*
X005030Y003471D01*
X005106Y003317D02*
X005030Y003241D01*
X005030Y003087D01*
X005106Y003010D01*
X005413Y003010D01*
X005490Y003087D01*
X005480Y002667D02*
X005326Y002667D01*
X005250Y002590D01*
X005250Y002360D01*
X005710Y002360D01*
X005557Y002360D02*
X005557Y002590D01*
X005480Y002667D01*
X005557Y002513D02*
X005710Y002667D01*
X002130Y003087D02*
X002130Y003241D01*
X002053Y003317D01*
X002053Y003471D02*
X001977Y003471D01*
X001900Y003548D01*
X001823Y003471D01*
X001746Y003471D01*
X001670Y003548D01*
X001670Y003701D01*
X001746Y003778D01*
X001823Y003778D01*
X001900Y003701D01*
X001977Y003778D01*
X002053Y003778D01*
X002130Y003701D01*
X002130Y003548D01*
X002053Y003471D01*
X001900Y003548D02*
X001900Y003701D01*
X001746Y003317D02*
X001670Y003241D01*
X001670Y003087D01*
X001746Y003010D01*
X002053Y003010D01*
X002130Y003087D01*
D12*
X003554Y005794D02*
X003556Y005861D01*
X003562Y005929D01*
X003572Y005996D01*
X003586Y006062D01*
X003603Y006127D01*
X003625Y006191D01*
X003650Y006254D01*
X003679Y006315D01*
X003711Y006374D01*
X003747Y006431D01*
X003786Y006486D01*
X003828Y006539D01*
X003873Y006589D01*
X003921Y006636D01*
X003972Y006681D01*
X004025Y006722D01*
X004081Y006761D01*
X004139Y006796D01*
X004199Y006827D01*
X004260Y006855D01*
X004323Y006879D01*
X004387Y006900D01*
X004453Y006916D01*
X004519Y006929D01*
X004586Y006938D01*
X004653Y006943D01*
X004721Y006944D01*
X004788Y006941D01*
X004855Y006934D01*
X004922Y006923D01*
X004988Y006908D01*
X005053Y006890D01*
X005117Y006867D01*
X005179Y006841D01*
X005240Y006812D01*
X005298Y006778D01*
X005355Y006742D01*
X005410Y006702D01*
X005462Y006659D01*
X005511Y006613D01*
X005558Y006564D01*
X005602Y006513D01*
X005642Y006459D01*
X005680Y006403D01*
X005714Y006344D01*
X005744Y006284D01*
X005771Y006222D01*
X005795Y006159D01*
X005814Y006094D01*
X005830Y006029D01*
X005842Y005962D01*
X005850Y005895D01*
X005854Y005828D01*
X005854Y005760D01*
X005850Y005693D01*
X005842Y005626D01*
X005830Y005559D01*
X005814Y005494D01*
X005795Y005429D01*
X005771Y005366D01*
X005744Y005304D01*
X005714Y005244D01*
X005680Y005185D01*
X005642Y005129D01*
X005602Y005075D01*
X005558Y005024D01*
X005511Y004975D01*
X005462Y004929D01*
X005410Y004886D01*
X005355Y004846D01*
X005298Y004810D01*
X005240Y004776D01*
X005179Y004747D01*
X005117Y004721D01*
X005053Y004698D01*
X004988Y004680D01*
X004922Y004665D01*
X004855Y004654D01*
X004788Y004647D01*
X004721Y004644D01*
X004653Y004645D01*
X004586Y004650D01*
X004519Y004659D01*
X004453Y004672D01*
X004387Y004688D01*
X004323Y004709D01*
X004260Y004733D01*
X004199Y004761D01*
X004139Y004792D01*
X004081Y004827D01*
X004025Y004866D01*
X003972Y004907D01*
X003921Y004952D01*
X003873Y004999D01*
X003828Y005049D01*
X003786Y005102D01*
X003747Y005157D01*
X003711Y005214D01*
X003679Y005273D01*
X003650Y005334D01*
X003625Y005397D01*
X003603Y005461D01*
X003586Y005526D01*
X003572Y005592D01*
X003562Y005659D01*
X003556Y005727D01*
X003554Y005794D01*
X002960Y007200D02*
X002460Y007200D01*
X002210Y007450D01*
X002210Y007950D01*
X002460Y008200D01*
X002210Y008450D01*
X002210Y008950D01*
X002460Y009200D01*
X002210Y009450D01*
X002210Y009950D01*
X002460Y010200D01*
X002210Y010450D01*
X002210Y010950D01*
X002460Y011200D01*
X002960Y011200D01*
X003210Y010950D01*
X003210Y010450D01*
X002960Y010200D01*
X003210Y009950D01*
X003210Y009450D01*
X002960Y009200D01*
X003210Y008950D01*
X003210Y008450D01*
X002960Y008200D01*
X003210Y007950D01*
X003210Y007450D01*
X002960Y007200D01*
X006498Y009700D02*
X006590Y009609D01*
X006498Y009700D02*
X006590Y009792D01*
X006852Y009955D02*
X006852Y009446D01*
X008358Y007841D02*
X008450Y007749D01*
X008542Y007841D01*
X010310Y009609D02*
X010402Y009700D01*
X010310Y009792D01*
X008542Y011560D02*
X008450Y011652D01*
X008358Y011560D01*
X008320Y014040D02*
X008070Y014290D01*
X007820Y014040D01*
X007320Y014040D01*
X007070Y014290D01*
X006820Y014040D01*
X006320Y014040D01*
X006070Y014290D01*
X006070Y014790D01*
X006320Y015040D01*
X006820Y015040D01*
X007070Y014790D01*
X007320Y015040D01*
X007820Y015040D01*
X008070Y014790D01*
X008320Y015040D01*
X008820Y015040D01*
X009070Y014790D01*
X009320Y015040D01*
X009820Y015040D01*
X010070Y014790D01*
X010070Y014290D01*
X009820Y014040D01*
X009320Y014040D01*
X009070Y014290D01*
X008820Y014040D01*
X008320Y014040D01*
X010247Y012487D02*
X010249Y012554D01*
X010255Y012622D01*
X010265Y012689D01*
X010279Y012755D01*
X010296Y012820D01*
X010318Y012884D01*
X010343Y012947D01*
X010372Y013008D01*
X010404Y013067D01*
X010440Y013124D01*
X010479Y013179D01*
X010521Y013232D01*
X010566Y013282D01*
X010614Y013329D01*
X010665Y013374D01*
X010718Y013415D01*
X010774Y013454D01*
X010832Y013489D01*
X010892Y013520D01*
X010953Y013548D01*
X011016Y013572D01*
X011080Y013593D01*
X011146Y013609D01*
X011212Y013622D01*
X011279Y013631D01*
X011346Y013636D01*
X011414Y013637D01*
X011481Y013634D01*
X011548Y013627D01*
X011615Y013616D01*
X011681Y013601D01*
X011746Y013583D01*
X011810Y013560D01*
X011872Y013534D01*
X011933Y013505D01*
X011991Y013471D01*
X012048Y013435D01*
X012103Y013395D01*
X012155Y013352D01*
X012204Y013306D01*
X012251Y013257D01*
X012295Y013206D01*
X012335Y013152D01*
X012373Y013096D01*
X012407Y013037D01*
X012437Y012977D01*
X012464Y012915D01*
X012488Y012852D01*
X012507Y012787D01*
X012523Y012722D01*
X012535Y012655D01*
X012543Y012588D01*
X012547Y012521D01*
X012547Y012453D01*
X012543Y012386D01*
X012535Y012319D01*
X012523Y012252D01*
X012507Y012187D01*
X012488Y012122D01*
X012464Y012059D01*
X012437Y011997D01*
X012407Y011937D01*
X012373Y011878D01*
X012335Y011822D01*
X012295Y011768D01*
X012251Y011717D01*
X012204Y011668D01*
X012155Y011622D01*
X012103Y011579D01*
X012048Y011539D01*
X011991Y011503D01*
X011933Y011469D01*
X011872Y011440D01*
X011810Y011414D01*
X011746Y011391D01*
X011681Y011373D01*
X011615Y011358D01*
X011548Y011347D01*
X011481Y011340D01*
X011414Y011337D01*
X011346Y011338D01*
X011279Y011343D01*
X011212Y011352D01*
X011146Y011365D01*
X011080Y011381D01*
X011016Y011402D01*
X010953Y011426D01*
X010892Y011454D01*
X010832Y011485D01*
X010774Y011520D01*
X010718Y011559D01*
X010665Y011600D01*
X010614Y011645D01*
X010566Y011692D01*
X010521Y011742D01*
X010479Y011795D01*
X010440Y011850D01*
X010404Y011907D01*
X010372Y011966D01*
X010343Y012027D01*
X010318Y012090D01*
X010296Y012154D01*
X010279Y012219D01*
X010265Y012285D01*
X010255Y012352D01*
X010249Y012420D01*
X010247Y012487D01*
X012670Y011950D02*
X012670Y011450D01*
X012920Y011200D01*
X012670Y010950D01*
X012670Y010450D01*
X012920Y010200D01*
X012670Y009950D01*
X012670Y009450D01*
X012920Y009200D01*
X012670Y008950D01*
X012670Y008450D01*
X012920Y008200D01*
X013420Y008200D01*
X013670Y008450D01*
X013670Y008950D01*
X013420Y009200D01*
X013670Y009450D01*
X013670Y009950D01*
X013420Y010200D01*
X013670Y010450D01*
X013670Y010950D01*
X013420Y011200D01*
X013670Y011450D01*
X013670Y011950D01*
X013420Y012200D01*
X012920Y012200D01*
X012670Y011950D01*
X011840Y014980D02*
X011842Y015047D01*
X011848Y015115D01*
X011858Y015182D01*
X011872Y015248D01*
X011889Y015313D01*
X011911Y015377D01*
X011936Y015440D01*
X011965Y015501D01*
X011997Y015560D01*
X012033Y015617D01*
X012072Y015672D01*
X012114Y015725D01*
X012159Y015775D01*
X012207Y015822D01*
X012258Y015867D01*
X012311Y015908D01*
X012367Y015947D01*
X012425Y015982D01*
X012485Y016013D01*
X012546Y016041D01*
X012609Y016065D01*
X012673Y016086D01*
X012739Y016102D01*
X012805Y016115D01*
X012872Y016124D01*
X012939Y016129D01*
X013007Y016130D01*
X013074Y016127D01*
X013141Y016120D01*
X013208Y016109D01*
X013274Y016094D01*
X013339Y016076D01*
X013403Y016053D01*
X013465Y016027D01*
X013526Y015998D01*
X013584Y015964D01*
X013641Y015928D01*
X013696Y015888D01*
X013748Y015845D01*
X013797Y015799D01*
X013844Y015750D01*
X013888Y015699D01*
X013928Y015645D01*
X013966Y015589D01*
X014000Y015530D01*
X014030Y015470D01*
X014057Y015408D01*
X014081Y015345D01*
X014100Y015280D01*
X014116Y015215D01*
X014128Y015148D01*
X014136Y015081D01*
X014140Y015014D01*
X014140Y014946D01*
X014136Y014879D01*
X014128Y014812D01*
X014116Y014745D01*
X014100Y014680D01*
X014081Y014615D01*
X014057Y014552D01*
X014030Y014490D01*
X014000Y014430D01*
X013966Y014371D01*
X013928Y014315D01*
X013888Y014261D01*
X013844Y014210D01*
X013797Y014161D01*
X013748Y014115D01*
X013696Y014072D01*
X013641Y014032D01*
X013584Y013996D01*
X013526Y013962D01*
X013465Y013933D01*
X013403Y013907D01*
X013339Y013884D01*
X013274Y013866D01*
X013208Y013851D01*
X013141Y013840D01*
X013074Y013833D01*
X013007Y013830D01*
X012939Y013831D01*
X012872Y013836D01*
X012805Y013845D01*
X012739Y013858D01*
X012673Y013874D01*
X012609Y013895D01*
X012546Y013919D01*
X012485Y013947D01*
X012425Y013978D01*
X012367Y014013D01*
X012311Y014052D01*
X012258Y014093D01*
X012207Y014138D01*
X012159Y014185D01*
X012114Y014235D01*
X012072Y014288D01*
X012033Y014343D01*
X011997Y014400D01*
X011965Y014459D01*
X011936Y014520D01*
X011911Y014583D01*
X011889Y014647D01*
X011872Y014712D01*
X011858Y014778D01*
X011848Y014845D01*
X011842Y014913D01*
X011840Y014980D01*
X003554Y012487D02*
X003556Y012554D01*
X003562Y012622D01*
X003572Y012689D01*
X003586Y012755D01*
X003603Y012820D01*
X003625Y012884D01*
X003650Y012947D01*
X003679Y013008D01*
X003711Y013067D01*
X003747Y013124D01*
X003786Y013179D01*
X003828Y013232D01*
X003873Y013282D01*
X003921Y013329D01*
X003972Y013374D01*
X004025Y013415D01*
X004081Y013454D01*
X004139Y013489D01*
X004199Y013520D01*
X004260Y013548D01*
X004323Y013572D01*
X004387Y013593D01*
X004453Y013609D01*
X004519Y013622D01*
X004586Y013631D01*
X004653Y013636D01*
X004721Y013637D01*
X004788Y013634D01*
X004855Y013627D01*
X004922Y013616D01*
X004988Y013601D01*
X005053Y013583D01*
X005117Y013560D01*
X005179Y013534D01*
X005240Y013505D01*
X005298Y013471D01*
X005355Y013435D01*
X005410Y013395D01*
X005462Y013352D01*
X005511Y013306D01*
X005558Y013257D01*
X005602Y013206D01*
X005642Y013152D01*
X005680Y013096D01*
X005714Y013037D01*
X005744Y012977D01*
X005771Y012915D01*
X005795Y012852D01*
X005814Y012787D01*
X005830Y012722D01*
X005842Y012655D01*
X005850Y012588D01*
X005854Y012521D01*
X005854Y012453D01*
X005850Y012386D01*
X005842Y012319D01*
X005830Y012252D01*
X005814Y012187D01*
X005795Y012122D01*
X005771Y012059D01*
X005744Y011997D01*
X005714Y011937D01*
X005680Y011878D01*
X005642Y011822D01*
X005602Y011768D01*
X005558Y011717D01*
X005511Y011668D01*
X005462Y011622D01*
X005410Y011579D01*
X005355Y011539D01*
X005298Y011503D01*
X005240Y011469D01*
X005179Y011440D01*
X005117Y011414D01*
X005053Y011391D01*
X004988Y011373D01*
X004922Y011358D01*
X004855Y011347D01*
X004788Y011340D01*
X004721Y011337D01*
X004653Y011338D01*
X004586Y011343D01*
X004519Y011352D01*
X004453Y011365D01*
X004387Y011381D01*
X004323Y011402D01*
X004260Y011426D01*
X004199Y011454D01*
X004139Y011485D01*
X004081Y011520D01*
X004025Y011559D01*
X003972Y011600D01*
X003921Y011645D01*
X003873Y011692D01*
X003828Y011742D01*
X003786Y011795D01*
X003747Y011850D01*
X003711Y011907D01*
X003679Y011966D01*
X003650Y012027D01*
X003625Y012090D01*
X003603Y012154D01*
X003586Y012219D01*
X003572Y012285D01*
X003562Y012352D01*
X003556Y012420D01*
X003554Y012487D01*
X002120Y014980D02*
X002122Y015047D01*
X002128Y015115D01*
X002138Y015182D01*
X002152Y015248D01*
X002169Y015313D01*
X002191Y015377D01*
X002216Y015440D01*
X002245Y015501D01*
X002277Y015560D01*
X002313Y015617D01*
X002352Y015672D01*
X002394Y015725D01*
X002439Y015775D01*
X002487Y015822D01*
X002538Y015867D01*
X002591Y015908D01*
X002647Y015947D01*
X002705Y015982D01*
X002765Y016013D01*
X002826Y016041D01*
X002889Y016065D01*
X002953Y016086D01*
X003019Y016102D01*
X003085Y016115D01*
X003152Y016124D01*
X003219Y016129D01*
X003287Y016130D01*
X003354Y016127D01*
X003421Y016120D01*
X003488Y016109D01*
X003554Y016094D01*
X003619Y016076D01*
X003683Y016053D01*
X003745Y016027D01*
X003806Y015998D01*
X003864Y015964D01*
X003921Y015928D01*
X003976Y015888D01*
X004028Y015845D01*
X004077Y015799D01*
X004124Y015750D01*
X004168Y015699D01*
X004208Y015645D01*
X004246Y015589D01*
X004280Y015530D01*
X004310Y015470D01*
X004337Y015408D01*
X004361Y015345D01*
X004380Y015280D01*
X004396Y015215D01*
X004408Y015148D01*
X004416Y015081D01*
X004420Y015014D01*
X004420Y014946D01*
X004416Y014879D01*
X004408Y014812D01*
X004396Y014745D01*
X004380Y014680D01*
X004361Y014615D01*
X004337Y014552D01*
X004310Y014490D01*
X004280Y014430D01*
X004246Y014371D01*
X004208Y014315D01*
X004168Y014261D01*
X004124Y014210D01*
X004077Y014161D01*
X004028Y014115D01*
X003976Y014072D01*
X003921Y014032D01*
X003864Y013996D01*
X003806Y013962D01*
X003745Y013933D01*
X003683Y013907D01*
X003619Y013884D01*
X003554Y013866D01*
X003488Y013851D01*
X003421Y013840D01*
X003354Y013833D01*
X003287Y013830D01*
X003219Y013831D01*
X003152Y013836D01*
X003085Y013845D01*
X003019Y013858D01*
X002953Y013874D01*
X002889Y013895D01*
X002826Y013919D01*
X002765Y013947D01*
X002705Y013978D01*
X002647Y014013D01*
X002591Y014052D01*
X002538Y014093D01*
X002487Y014138D01*
X002439Y014185D01*
X002394Y014235D01*
X002352Y014288D01*
X002313Y014343D01*
X002277Y014400D01*
X002245Y014459D01*
X002216Y014520D01*
X002191Y014583D01*
X002169Y014647D01*
X002152Y014712D01*
X002138Y014778D01*
X002128Y014845D01*
X002122Y014913D01*
X002120Y014980D01*
X010247Y005794D02*
X010249Y005861D01*
X010255Y005929D01*
X010265Y005996D01*
X010279Y006062D01*
X010296Y006127D01*
X010318Y006191D01*
X010343Y006254D01*
X010372Y006315D01*
X010404Y006374D01*
X010440Y006431D01*
X010479Y006486D01*
X010521Y006539D01*
X010566Y006589D01*
X010614Y006636D01*
X010665Y006681D01*
X010718Y006722D01*
X010774Y006761D01*
X010832Y006796D01*
X010892Y006827D01*
X010953Y006855D01*
X011016Y006879D01*
X011080Y006900D01*
X011146Y006916D01*
X011212Y006929D01*
X011279Y006938D01*
X011346Y006943D01*
X011414Y006944D01*
X011481Y006941D01*
X011548Y006934D01*
X011615Y006923D01*
X011681Y006908D01*
X011746Y006890D01*
X011810Y006867D01*
X011872Y006841D01*
X011933Y006812D01*
X011991Y006778D01*
X012048Y006742D01*
X012103Y006702D01*
X012155Y006659D01*
X012204Y006613D01*
X012251Y006564D01*
X012295Y006513D01*
X012335Y006459D01*
X012373Y006403D01*
X012407Y006344D01*
X012437Y006284D01*
X012464Y006222D01*
X012488Y006159D01*
X012507Y006094D01*
X012523Y006029D01*
X012535Y005962D01*
X012543Y005895D01*
X012547Y005828D01*
X012547Y005760D01*
X012543Y005693D01*
X012535Y005626D01*
X012523Y005559D01*
X012507Y005494D01*
X012488Y005429D01*
X012464Y005366D01*
X012437Y005304D01*
X012407Y005244D01*
X012373Y005185D01*
X012335Y005129D01*
X012295Y005075D01*
X012251Y005024D01*
X012204Y004975D01*
X012155Y004929D01*
X012103Y004886D01*
X012048Y004846D01*
X011991Y004810D01*
X011933Y004776D01*
X011872Y004747D01*
X011810Y004721D01*
X011746Y004698D01*
X011681Y004680D01*
X011615Y004665D01*
X011548Y004654D01*
X011481Y004647D01*
X011414Y004644D01*
X011346Y004645D01*
X011279Y004650D01*
X011212Y004659D01*
X011146Y004672D01*
X011080Y004688D01*
X011016Y004709D01*
X010953Y004733D01*
X010892Y004761D01*
X010832Y004792D01*
X010774Y004827D01*
X010718Y004866D01*
X010665Y004907D01*
X010614Y004952D01*
X010566Y004999D01*
X010521Y005049D01*
X010479Y005102D01*
X010440Y005157D01*
X010404Y005214D01*
X010372Y005273D01*
X010343Y005334D01*
X010318Y005397D01*
X010296Y005461D01*
X010279Y005526D01*
X010265Y005592D01*
X010255Y005659D01*
X010249Y005727D01*
X010247Y005794D01*
D13*
X012945Y007890D02*
X013170Y007665D01*
X013170Y007965D01*
X013395Y007890D02*
X012945Y007890D01*
X013845Y009156D02*
X013845Y009306D01*
X013845Y009231D02*
X014295Y009231D01*
X014295Y009156D02*
X014295Y009306D01*
X014295Y009463D02*
X013995Y009763D01*
X013920Y009763D01*
X013845Y009688D01*
X013845Y009538D01*
X013920Y009463D01*
X014295Y009463D02*
X014295Y009763D01*
X014220Y009924D02*
X014295Y009999D01*
X014295Y010149D01*
X014220Y010224D01*
X014370Y010384D02*
X014370Y010684D01*
X014295Y010844D02*
X014295Y011145D01*
X014295Y011305D02*
X013845Y011605D01*
X013845Y011765D02*
X013845Y012065D01*
X013845Y011915D02*
X014295Y011915D01*
X014295Y011605D02*
X013845Y011305D01*
X013845Y011145D02*
X013845Y010844D01*
X014295Y010844D01*
X014070Y010844D02*
X014070Y010994D01*
X013920Y010224D02*
X013845Y010149D01*
X013845Y009999D01*
X013920Y009924D01*
X014220Y009924D01*
X013395Y012215D02*
X013395Y012515D01*
X013395Y012365D02*
X012945Y012365D01*
X013095Y012215D01*
X010420Y014315D02*
X010420Y014766D01*
X010195Y014541D01*
X010495Y014541D01*
X007776Y015666D02*
X007476Y015666D01*
X007626Y015666D02*
X007626Y015215D01*
X007316Y015215D02*
X007166Y015366D01*
X007241Y015366D02*
X007016Y015366D01*
X007016Y015215D02*
X007016Y015666D01*
X007241Y015666D01*
X007316Y015591D01*
X007316Y015441D01*
X007241Y015366D01*
X006856Y015441D02*
X006555Y015441D01*
X006555Y015516D02*
X006555Y015215D01*
X006395Y015291D02*
X006395Y015666D01*
X006555Y015516D02*
X006706Y015666D01*
X006856Y015516D01*
X006856Y015215D01*
X006395Y015291D02*
X006320Y015215D01*
X006170Y015215D01*
X006095Y015291D01*
X006095Y015666D01*
X005795Y014766D02*
X005795Y014315D01*
X005645Y014315D02*
X005945Y014315D01*
X005645Y014616D02*
X005795Y014766D01*
X002935Y011551D02*
X002485Y011551D01*
X002710Y011325D01*
X002710Y011626D01*
X002035Y011516D02*
X001585Y011516D01*
X001660Y011676D02*
X001960Y011676D01*
X002035Y011751D01*
X002035Y011901D01*
X001960Y011976D01*
X001810Y011976D01*
X001810Y011826D01*
X001660Y011676D02*
X001585Y011751D01*
X001585Y011901D01*
X001660Y011976D01*
X002035Y011516D02*
X001585Y011216D01*
X002035Y011216D01*
X002035Y011059D02*
X002035Y010909D01*
X002035Y010984D02*
X001585Y010984D01*
X001585Y010909D02*
X001585Y011059D01*
X001585Y010748D02*
X002035Y010748D01*
X001735Y010598D02*
X001585Y010748D01*
X001735Y010598D02*
X001585Y010448D01*
X002035Y010448D01*
X002035Y010288D02*
X001585Y010288D01*
X001735Y010138D01*
X001585Y009988D01*
X002035Y009988D01*
X002035Y009828D02*
X001735Y009828D01*
X001585Y009678D01*
X001735Y009527D01*
X002035Y009527D01*
X002035Y009367D02*
X001885Y009217D01*
X001885Y009292D02*
X001885Y009067D01*
X002035Y009067D02*
X001585Y009067D01*
X001585Y009292D01*
X001660Y009367D01*
X001810Y009367D01*
X001885Y009292D01*
X001810Y009527D02*
X001810Y009828D01*
X001810Y008907D02*
X001810Y008757D01*
X001810Y008907D02*
X001960Y008907D01*
X002035Y008832D01*
X002035Y008682D01*
X001960Y008607D01*
X001660Y008607D01*
X001585Y008682D01*
X001585Y008832D01*
X001660Y008907D01*
X001660Y008447D02*
X001585Y008371D01*
X001585Y008221D01*
X001660Y008146D01*
X001960Y008146D01*
X002035Y008221D01*
X002035Y008371D01*
X001960Y008447D01*
X001660Y008447D01*
X001660Y007986D02*
X001810Y007986D01*
X001885Y007911D01*
X001885Y007686D01*
X002035Y007686D02*
X001585Y007686D01*
X001585Y007911D01*
X001660Y007986D01*
X001885Y007836D02*
X002035Y007986D01*
X001810Y007526D02*
X001660Y007526D01*
X001585Y007451D01*
X001585Y007225D01*
X002035Y007225D01*
X001885Y007225D02*
X001885Y007451D01*
X001810Y007526D01*
X002485Y006926D02*
X002935Y006926D01*
X002935Y007076D02*
X002935Y006775D01*
X002635Y006775D02*
X002485Y006926D01*
D14*
X004113Y005794D02*
X004115Y005842D01*
X004121Y005890D01*
X004131Y005937D01*
X004144Y005983D01*
X004162Y006028D01*
X004182Y006072D01*
X004207Y006114D01*
X004235Y006153D01*
X004265Y006190D01*
X004299Y006224D01*
X004336Y006256D01*
X004374Y006285D01*
X004415Y006310D01*
X004458Y006332D01*
X004503Y006350D01*
X004549Y006364D01*
X004596Y006375D01*
X004644Y006382D01*
X004692Y006385D01*
X004740Y006384D01*
X004788Y006379D01*
X004836Y006370D01*
X004882Y006358D01*
X004927Y006341D01*
X004971Y006321D01*
X005013Y006298D01*
X005053Y006271D01*
X005091Y006241D01*
X005126Y006208D01*
X005158Y006172D01*
X005188Y006134D01*
X005214Y006093D01*
X005236Y006050D01*
X005256Y006006D01*
X005271Y005961D01*
X005283Y005914D01*
X005291Y005866D01*
X005295Y005818D01*
X005295Y005770D01*
X005291Y005722D01*
X005283Y005674D01*
X005271Y005627D01*
X005256Y005582D01*
X005236Y005538D01*
X005214Y005495D01*
X005188Y005454D01*
X005158Y005416D01*
X005126Y005380D01*
X005091Y005347D01*
X005053Y005317D01*
X005013Y005290D01*
X004971Y005267D01*
X004927Y005247D01*
X004882Y005230D01*
X004836Y005218D01*
X004788Y005209D01*
X004740Y005204D01*
X004692Y005203D01*
X004644Y005206D01*
X004596Y005213D01*
X004549Y005224D01*
X004503Y005238D01*
X004458Y005256D01*
X004415Y005278D01*
X004374Y005303D01*
X004336Y005332D01*
X004299Y005364D01*
X004265Y005398D01*
X004235Y005435D01*
X004207Y005474D01*
X004182Y005516D01*
X004162Y005560D01*
X004144Y005605D01*
X004131Y005651D01*
X004121Y005698D01*
X004115Y005746D01*
X004113Y005794D01*
X005218Y007393D02*
X005803Y006809D01*
X006694Y006670D02*
X006861Y006837D01*
X006722Y007728D02*
X006137Y008312D01*
X005246Y008451D02*
X005079Y008284D01*
X006114Y010481D02*
X006289Y010481D01*
X006463Y010655D01*
X006463Y010830D01*
X006027Y011266D01*
X006299Y011364D02*
X006299Y011538D01*
X006473Y011713D01*
X006648Y011713D01*
X006735Y011626D01*
X006735Y010927D01*
X007084Y011276D01*
X006114Y010481D02*
X005678Y010917D01*
X004113Y012487D02*
X004115Y012535D01*
X004121Y012583D01*
X004131Y012630D01*
X004144Y012676D01*
X004162Y012721D01*
X004182Y012765D01*
X004207Y012807D01*
X004235Y012846D01*
X004265Y012883D01*
X004299Y012917D01*
X004336Y012949D01*
X004374Y012978D01*
X004415Y013003D01*
X004458Y013025D01*
X004503Y013043D01*
X004549Y013057D01*
X004596Y013068D01*
X004644Y013075D01*
X004692Y013078D01*
X004740Y013077D01*
X004788Y013072D01*
X004836Y013063D01*
X004882Y013051D01*
X004927Y013034D01*
X004971Y013014D01*
X005013Y012991D01*
X005053Y012964D01*
X005091Y012934D01*
X005126Y012901D01*
X005158Y012865D01*
X005188Y012827D01*
X005214Y012786D01*
X005236Y012743D01*
X005256Y012699D01*
X005271Y012654D01*
X005283Y012607D01*
X005291Y012559D01*
X005295Y012511D01*
X005295Y012463D01*
X005291Y012415D01*
X005283Y012367D01*
X005271Y012320D01*
X005256Y012275D01*
X005236Y012231D01*
X005214Y012188D01*
X005188Y012147D01*
X005158Y012109D01*
X005126Y012073D01*
X005091Y012040D01*
X005053Y012010D01*
X005013Y011983D01*
X004971Y011960D01*
X004927Y011940D01*
X004882Y011923D01*
X004836Y011911D01*
X004788Y011902D01*
X004740Y011897D01*
X004692Y011896D01*
X004644Y011899D01*
X004596Y011906D01*
X004549Y011917D01*
X004503Y011931D01*
X004458Y011949D01*
X004415Y011971D01*
X004374Y011996D01*
X004336Y012025D01*
X004299Y012057D01*
X004265Y012091D01*
X004235Y012128D01*
X004207Y012167D01*
X004182Y012209D01*
X004162Y012253D01*
X004144Y012298D01*
X004131Y012344D01*
X004121Y012391D01*
X004115Y012439D01*
X004113Y012487D01*
X002679Y014980D02*
X002681Y015028D01*
X002687Y015076D01*
X002697Y015123D01*
X002710Y015169D01*
X002728Y015214D01*
X002748Y015258D01*
X002773Y015300D01*
X002801Y015339D01*
X002831Y015376D01*
X002865Y015410D01*
X002902Y015442D01*
X002940Y015471D01*
X002981Y015496D01*
X003024Y015518D01*
X003069Y015536D01*
X003115Y015550D01*
X003162Y015561D01*
X003210Y015568D01*
X003258Y015571D01*
X003306Y015570D01*
X003354Y015565D01*
X003402Y015556D01*
X003448Y015544D01*
X003493Y015527D01*
X003537Y015507D01*
X003579Y015484D01*
X003619Y015457D01*
X003657Y015427D01*
X003692Y015394D01*
X003724Y015358D01*
X003754Y015320D01*
X003780Y015279D01*
X003802Y015236D01*
X003822Y015192D01*
X003837Y015147D01*
X003849Y015100D01*
X003857Y015052D01*
X003861Y015004D01*
X003861Y014956D01*
X003857Y014908D01*
X003849Y014860D01*
X003837Y014813D01*
X003822Y014768D01*
X003802Y014724D01*
X003780Y014681D01*
X003754Y014640D01*
X003724Y014602D01*
X003692Y014566D01*
X003657Y014533D01*
X003619Y014503D01*
X003579Y014476D01*
X003537Y014453D01*
X003493Y014433D01*
X003448Y014416D01*
X003402Y014404D01*
X003354Y014395D01*
X003306Y014390D01*
X003258Y014389D01*
X003210Y014392D01*
X003162Y014399D01*
X003115Y014410D01*
X003069Y014424D01*
X003024Y014442D01*
X002981Y014464D01*
X002940Y014489D01*
X002902Y014518D01*
X002865Y014550D01*
X002831Y014584D01*
X002801Y014621D01*
X002773Y014660D01*
X002748Y014702D01*
X002728Y014746D01*
X002710Y014791D01*
X002697Y014837D01*
X002687Y014884D01*
X002681Y014932D01*
X002679Y014980D01*
X010806Y012487D02*
X010808Y012535D01*
X010814Y012583D01*
X010824Y012630D01*
X010837Y012676D01*
X010855Y012721D01*
X010875Y012765D01*
X010900Y012807D01*
X010928Y012846D01*
X010958Y012883D01*
X010992Y012917D01*
X011029Y012949D01*
X011067Y012978D01*
X011108Y013003D01*
X011151Y013025D01*
X011196Y013043D01*
X011242Y013057D01*
X011289Y013068D01*
X011337Y013075D01*
X011385Y013078D01*
X011433Y013077D01*
X011481Y013072D01*
X011529Y013063D01*
X011575Y013051D01*
X011620Y013034D01*
X011664Y013014D01*
X011706Y012991D01*
X011746Y012964D01*
X011784Y012934D01*
X011819Y012901D01*
X011851Y012865D01*
X011881Y012827D01*
X011907Y012786D01*
X011929Y012743D01*
X011949Y012699D01*
X011964Y012654D01*
X011976Y012607D01*
X011984Y012559D01*
X011988Y012511D01*
X011988Y012463D01*
X011984Y012415D01*
X011976Y012367D01*
X011964Y012320D01*
X011949Y012275D01*
X011929Y012231D01*
X011907Y012188D01*
X011881Y012147D01*
X011851Y012109D01*
X011819Y012073D01*
X011784Y012040D01*
X011746Y012010D01*
X011706Y011983D01*
X011664Y011960D01*
X011620Y011940D01*
X011575Y011923D01*
X011529Y011911D01*
X011481Y011902D01*
X011433Y011897D01*
X011385Y011896D01*
X011337Y011899D01*
X011289Y011906D01*
X011242Y011917D01*
X011196Y011931D01*
X011151Y011949D01*
X011108Y011971D01*
X011067Y011996D01*
X011029Y012025D01*
X010992Y012057D01*
X010958Y012091D01*
X010928Y012128D01*
X010900Y012167D01*
X010875Y012209D01*
X010855Y012253D01*
X010837Y012298D01*
X010824Y012344D01*
X010814Y012391D01*
X010808Y012439D01*
X010806Y012487D01*
X012399Y014980D02*
X012401Y015028D01*
X012407Y015076D01*
X012417Y015123D01*
X012430Y015169D01*
X012448Y015214D01*
X012468Y015258D01*
X012493Y015300D01*
X012521Y015339D01*
X012551Y015376D01*
X012585Y015410D01*
X012622Y015442D01*
X012660Y015471D01*
X012701Y015496D01*
X012744Y015518D01*
X012789Y015536D01*
X012835Y015550D01*
X012882Y015561D01*
X012930Y015568D01*
X012978Y015571D01*
X013026Y015570D01*
X013074Y015565D01*
X013122Y015556D01*
X013168Y015544D01*
X013213Y015527D01*
X013257Y015507D01*
X013299Y015484D01*
X013339Y015457D01*
X013377Y015427D01*
X013412Y015394D01*
X013444Y015358D01*
X013474Y015320D01*
X013500Y015279D01*
X013522Y015236D01*
X013542Y015192D01*
X013557Y015147D01*
X013569Y015100D01*
X013577Y015052D01*
X013581Y015004D01*
X013581Y014956D01*
X013577Y014908D01*
X013569Y014860D01*
X013557Y014813D01*
X013542Y014768D01*
X013522Y014724D01*
X013500Y014681D01*
X013474Y014640D01*
X013444Y014602D01*
X013412Y014566D01*
X013377Y014533D01*
X013339Y014503D01*
X013299Y014476D01*
X013257Y014453D01*
X013213Y014433D01*
X013168Y014416D01*
X013122Y014404D01*
X013074Y014395D01*
X013026Y014390D01*
X012978Y014389D01*
X012930Y014392D01*
X012882Y014399D01*
X012835Y014410D01*
X012789Y014424D01*
X012744Y014442D01*
X012701Y014464D01*
X012660Y014489D01*
X012622Y014518D01*
X012585Y014550D01*
X012551Y014584D01*
X012521Y014621D01*
X012493Y014660D01*
X012468Y014702D01*
X012448Y014746D01*
X012430Y014791D01*
X012417Y014837D01*
X012407Y014884D01*
X012401Y014932D01*
X012399Y014980D01*
X010806Y005794D02*
X010808Y005842D01*
X010814Y005890D01*
X010824Y005937D01*
X010837Y005983D01*
X010855Y006028D01*
X010875Y006072D01*
X010900Y006114D01*
X010928Y006153D01*
X010958Y006190D01*
X010992Y006224D01*
X011029Y006256D01*
X011067Y006285D01*
X011108Y006310D01*
X011151Y006332D01*
X011196Y006350D01*
X011242Y006364D01*
X011289Y006375D01*
X011337Y006382D01*
X011385Y006385D01*
X011433Y006384D01*
X011481Y006379D01*
X011529Y006370D01*
X011575Y006358D01*
X011620Y006341D01*
X011664Y006321D01*
X011706Y006298D01*
X011746Y006271D01*
X011784Y006241D01*
X011819Y006208D01*
X011851Y006172D01*
X011881Y006134D01*
X011907Y006093D01*
X011929Y006050D01*
X011949Y006006D01*
X011964Y005961D01*
X011976Y005914D01*
X011984Y005866D01*
X011988Y005818D01*
X011988Y005770D01*
X011984Y005722D01*
X011976Y005674D01*
X011964Y005627D01*
X011949Y005582D01*
X011929Y005538D01*
X011907Y005495D01*
X011881Y005454D01*
X011851Y005416D01*
X011819Y005380D01*
X011784Y005347D01*
X011746Y005317D01*
X011706Y005290D01*
X011664Y005267D01*
X011620Y005247D01*
X011575Y005230D01*
X011529Y005218D01*
X011481Y005209D01*
X011433Y005204D01*
X011385Y005203D01*
X011337Y005206D01*
X011289Y005213D01*
X011242Y005224D01*
X011196Y005238D01*
X011151Y005256D01*
X011108Y005278D01*
X011067Y005303D01*
X011029Y005332D01*
X010992Y005364D01*
X010958Y005398D01*
X010928Y005435D01*
X010900Y005474D01*
X010875Y005516D01*
X010855Y005560D01*
X010837Y005605D01*
X010824Y005651D01*
X010814Y005698D01*
X010808Y005746D01*
X010806Y005794D01*
D15*
X006596Y007045D03*
D16*
X005983Y008893D02*
X005983Y009337D01*
X005983Y008893D01*
X005872Y009004D02*
X006094Y009226D01*
X005872Y009004D01*
X005762Y009115D02*
X006205Y009115D01*
X005762Y009115D01*
X005872Y009226D02*
X006094Y009004D01*
X005872Y009226D01*
M02*
