%
M48
M72
T01C0.0197
T02C0.0236
T03C0.0320
T04C0.0400
T05C0.1102
%
T01
X7270Y5800
X7670Y5800
X8070Y5800
X8470Y5800
X8850Y5800
T02
X10110Y5980
X9390Y7180
X9510Y7660
X10230Y8020
X11310Y8140
X11550Y7060
X13470Y7660
X11310Y9580
X10350Y10900
X9990Y11380
X8910Y10180
X9390Y9820
X9270Y9340
X8910Y8860
X8430Y8380
X7950Y8860
X7950Y9700
X8430Y10660
X7950Y12220
X8617Y12873
X7110Y13060
X6270Y12460
X6270Y11020
X6030Y9700
X5070Y9460
X3670Y11180
X2670Y13180
X5190Y14500
X6390Y15700
X10590Y13660
X13110Y12940
X11430Y11140
X7270Y7780
X7230Y6580
X5550Y7060
X3990Y7060
X3030Y4780
X5630Y4460
X10950Y4540
X12750Y5020
T03
X3390Y2840
X3390Y3840
X6750Y3840
X6750Y2840
X9870Y2840
X9870Y3840
X12870Y3840
X12870Y2840
T04
X13170Y8700
X13170Y9700
X13170Y10700
X13170Y11700
X9570Y14540
X8570Y14540
X7570Y14540
X6570Y14540
X2710Y10700
X2710Y9700
X2710Y8700
X2710Y7700
T05
X4704Y5794
X4704Y12487
X3270Y14980
X11397Y12487
X12990Y14980
X11397Y5794
M30
