%
M48
M72
T01C0.0236
T02C0.0354
T03C0.0360
T04C0.0394
T05C0.0400
T06C0.0440
T07C0.1102
%
T01
X8240Y9775
X8720Y10735
X8720Y11935
X10480Y14095
X11200Y13695
X12080Y13615
X13480Y14095
X14320Y13055
X14880Y11855
X16720Y12255
X16720Y10975
X18480Y10335
X18480Y11935
X19440Y13295
X18240Y13855
X17440Y14015
X16960Y14415
X16800Y13935
X16000Y14795
X16960Y15055
X16020Y16795
X13480Y15695
X12560Y15215
X10480Y15695
X10480Y17615
X9620Y19695
X8320Y19795
X6860Y20495
X6860Y21295
X5960Y21295
X6860Y23195
X8320Y24595
X9260Y25495
X9620Y24595
X10920Y24595
X13220Y26995
X12460Y27595
X11120Y27475
X8560Y26995
X7520Y26995
X7600Y28435
X14960Y25295
X16240Y24495
X16400Y25215
X14860Y23895
X14920Y22095
X16580Y22135
X18080Y22975
X17920Y23775
X18420Y23835
X19540Y25035
X21280Y23855
X20100Y21995
X21200Y21695
X22800Y21695
X24160Y21295
X25160Y22695
X25960Y22995
X26880Y22655
X26640Y21855
X27380Y20315
X26180Y19035
X25860Y17195
X24880Y16415
X25280Y16015
X25840Y15855
X26080Y15295
X26260Y13835
X24400Y14655
X23760Y15055
X22640Y14495
X21440Y15615
X20400Y15935
X20560Y16415
X19860Y17195
X19840Y17935
X21440Y17215
X23200Y17135
X23440Y19375
X22480Y20415
X20400Y19215
X16580Y19595
X18960Y15615
X19040Y15055
X20960Y14415
X21440Y12575
X21920Y11615
X21860Y10315
X21360Y10255
X23600Y12815
X25120Y10975
X25540Y10395
X27040Y11535
X28000Y11375
X27920Y10575
X30040Y12095
X30160Y11215
X31120Y12455
X30720Y12775
X31920Y10855
X32400Y10855
X32880Y10855
X33360Y10855
X33840Y10855
X34960Y10515
X35760Y10515
X36560Y10515
X37360Y10295
X36560Y11315
X35760Y11335
X34960Y11335
X34720Y11975
X33900Y14055
X33260Y15575
X32560Y15555
X30700Y15975
X28900Y16955
X30700Y17695
X33120Y18415
X33260Y17695
X33440Y19615
X34240Y19935
X34800Y19615
X36320Y20735
X36800Y20815
X37200Y20415
X37760Y20335
X37300Y21655
X37200Y22415
X36400Y23455
X35760Y22735
X36080Y21295
X33280Y22095
X33460Y22875
X33840Y23535
X34320Y24175
X33600Y24735
X33360Y25175
X33660Y25595
X34260Y24955
X32720Y24395
X31060Y24475
X31520Y23068
X31000Y22715
X30400Y22515
X30640Y20175
X31500Y20235
X32040Y19915
X35180Y15815
X37660Y15735
X38760Y15735
X38660Y14135
X37660Y14135
X37660Y17535
X38740Y17535
X38880Y21775
X39040Y23055
X36880Y25135
X36080Y25215
X35840Y24415
X35520Y26735
X34960Y26815
X34610Y27345
X35580Y27735
X36860Y28775
X33760Y27995
X32080Y26315
X29860Y26515
X29860Y25995
X28960Y27635
X29460Y28195
X23860Y24295
X24000Y23375
X28900Y14635
X31040Y9815
X30640Y9335
X38500Y8455
X38760Y26195
X14900Y8495
X12600Y9935
X7120Y14495
X6120Y14095
X6120Y15695
X7120Y15695
X7120Y17495
X6120Y17495
X11020Y19795
T02
X11534Y10015
X13266Y10015
T03
X7080Y10475
X6080Y10475
X19500Y26435
X20500Y26435
X20500Y27435
X19500Y27435
X21500Y27435
X21500Y26435
X22500Y26435
X23500Y26435
X23500Y27435
X22500Y27435
X24500Y27435
X24500Y26435
X25500Y26435
X25500Y27435
X37740Y24215
X38740Y24215
T04
X29634Y17804
X29634Y13867
X15246Y13767
X15246Y17704
T05
X15100Y20035
X14100Y20035
X13100Y20035
X26800Y23895
X27800Y23895
X28800Y23895
X29800Y23895
X29460Y22495
X29460Y21495
X29460Y20495
X29460Y19495
X32300Y20795
X33300Y20795
X34300Y20795
X35300Y20795
T06
X6120Y8595
X7620Y8595
X9120Y8595
T07
X7175Y12192
X7175Y19278
X17560Y26935
X27520Y26935
X37705Y19378
X37705Y12292
M30
