%
M48
M72
T01C0.0236
T02C0.0320
T03C0.0360
T04C0.0400
T05C0.1102
%
T01
X15540Y6360
X17820Y6720
X17780Y7240
X18780Y6840
X22280Y8140
X23780Y8040
X24580Y8340
X24680Y7740
X23780Y7340
X25780Y7640
X26580Y7340
X28280Y8340
X27780Y9240
X29380Y10240
X27980Y10740
X26180Y10540
X24660Y10320
X24340Y10800
X21169Y9629
X20180Y8840
X19080Y9240
X17380Y8840
X16680Y8840
X15980Y8840
X14880Y9240
X15980Y9840
X16980Y10840
X18420Y11140
X20520Y10480
X23680Y9240
X29580Y7440
X32580Y6720
X33480Y7340
X35280Y7940
X33680Y8540
X32280Y8940
X34880Y10540
X35980Y11040
X32880Y10740
X36380Y9240
X26460Y5880
X14880Y11040
X12280Y9840
X10680Y9240
X8880Y8640
X7980Y7800
X4740Y9000
X6380Y9240
X4980Y9840
X6280Y11040
X7980Y9840
X10580Y11040
X12680Y8840
X20920Y12280
T02
X21260Y7340
X20260Y7340
T03
X19800Y4700
X18800Y4700
X17800Y4700
X17800Y3700
X18800Y3700
X19800Y3700
X20800Y3700
X21800Y3700
X22800Y3700
X23800Y3700
X23800Y4700
X22800Y4700
X21800Y4700
X20800Y4700
T04
X21180Y11320
X20180Y11320
X19180Y11320
X22180Y11320
T05
X23300Y11880
X18000Y11880
X15880Y4200
X25840Y4200
M30
